<svg version="1.1" id="Layer_1" xmlns="http://www.w3.org/2000/svg" x="0" y="0" viewBox="0 0 300 600" xml:space="preserve"><style>.st0{fill:#662868}</style><path class="st0" d="M46.2 152.2c.2.3.6.7 1 1 .4.4.9.7 1.6 1 .6.3 1.3.6 2 .8.7.2 1.5.3 2.4.3 1.2 0 2.1-.2 2.7-.6.7-.4 1-.9 1-1.6 0-.5-.1-1-.4-1.3-.3-.3-.7-.6-1.3-.9-.6-.2-1.3-.5-2.1-.6-.8-.2-1.8-.4-2.9-.7-2.7-.7-4.6-1.7-5.7-3-1.2-1.3-1.7-3-1.7-5 0-1.1.2-2.2.7-3.3s1.1-2 2-2.8c.9-.8 2-1.4 3.3-1.9 1.3-.5 2.9-.7 4.7-.7 2.1 0 4 .3 5.9 1 1.9.7 3.5 1.8 4.7 3.2l-4.6 4.3c-.7-.8-1.6-1.5-2.7-2.1-1.1-.6-2.3-.8-3.8-.8-.7 0-1.2.1-1.6.2-.4.1-.7.3-1 .5-.2.2-.4.4-.5.7s-.1.5-.1.7c0 .6.3 1.2 1 1.7.6.5 1.8 1 3.6 1.4 2 .5 3.6 1 4.8 1.6 1.3.6 2.2 1.2 3 1.9.7.7 1.2 1.4 1.5 2.3.3.8.4 1.8.4 2.8 0 1.4-.3 2.7-.9 3.8-.6 1.1-1.4 2-2.4 2.7-1 .7-2.2 1.3-3.5 1.6-1.3.4-2.7.6-4.2.6-1.4 0-2.7-.1-3.9-.3-1.2-.2-2.3-.5-3.2-.9-1-.4-1.8-.8-2.5-1.3s-1.3-1-1.7-1.5l4.4-4.8zM66.2 141h6.4v10.6c0 1.2.2 2.1.6 2.8.4.6 1 .9 2 .9s1.8-.4 2.4-1.2c.5-.8.8-2.1.8-3.8V141h6.4v19.3h-6v-2.9c-.5 1-1.2 1.8-2.1 2.4s-2.1.9-3.7.9c-2.3 0-4-.7-5.1-2-1.1-1.3-1.6-3.2-1.6-5.7v-12zM87.7 141h5.7l.5 3.6c.6-1.2 1.4-2.1 2.5-2.9 1.1-.8 2.5-1.2 4.2-1.2v6.5c-.5-.1-1.1-.2-2-.2-.5 0-1 0-1.5.1s-1 .3-1.4.6c-.4.3-.8.8-1.1 1.5-.3.7-.4 1.6-.4 2.8v8.5h-6.4V141zM107.3 152.2c.2 1.5.7 2.5 1.4 3.1.7.6 1.6.9 2.5.9.8 0 1.5-.2 2.1-.5.6-.4 1.1-.9 1.5-1.6l4.7 2.7c-1 1.5-2.2 2.5-3.7 3.2s-3.2 1-5 1c-1.6 0-3.1-.3-4.4-.8-1.3-.5-2.3-1.2-3.2-2.1s-1.5-2-2-3.2c-.4-1.3-.7-2.6-.7-4 0-1.5.2-2.8.7-4.1.5-1.3 1.1-2.4 2-3.3.8-.9 1.9-1.6 3.1-2.1 1.2-.5 2.6-.8 4.1-.8 1.5 0 2.8.3 4 .8 1.2.5 2.1 1.2 2.9 2.1.8.9 1.4 2 1.8 3.3.4 1.3.6 2.8.6 4.4v1.1h-12.4zm3.2-7.1c-1.8 0-2.9 1.2-3.2 3.5h6.2c0-1-.2-1.8-.7-2.5-.5-.6-1.2-1-2.3-1zM121.8 165.4c.7-.3 1.2-.6 1.7-.9.4-.3.7-.7 1-1 .2-.4.4-.7.5-1.1.1-.4.1-.8.1-1.3v-.6h-3.2v-7h7v7c0 1.2-.1 2.2-.3 3.1-.2.8-.6 1.6-1 2.2-.5.6-1.1 1.2-1.8 1.6-.7.4-1.5.9-2.5 1.2l-1.5-3.2zM140.1 162.3c.5.2.9.3 1.4.4.5.1.9.2 1.3.2.6 0 1-.1 1.3-.4.3-.3.6-.7.7-1.3l-7-20h6.9l3.3 13 3.3-13h6.9l-6.7 19.2c-.4 1.1-.8 2-1.1 2.9-.4.9-.9 1.7-1.5 2.3s-1.4 1.2-2.3 1.5c-.9.4-2.1.6-3.6.6h-.9c-.3 0-.7 0-1.1-.1-.4 0-.7-.1-1.1-.1-.3 0-.6-.1-.8-.2l1-5zM167.8 161c-1.6 0-3.1-.3-4.3-.8-1.2-.5-2.2-1.2-3.1-2.1s-1.4-2-1.8-3.2-.6-2.6-.6-4.1.2-2.8.6-4.1c.4-1.3 1.1-2.3 1.9-3.3s1.8-1.6 3.1-2.2c1.2-.5 2.6-.8 4.2-.8s3 .3 4.2.8c1.2.5 2.2 1.2 3.1 2.1.8.9 1.4 2 1.8 3.3s.6 2.6.6 4.1-.2 2.8-.6 4.1-1 2.3-1.8 3.2-1.8 1.6-3.1 2.1c-1.2.6-2.6.9-4.2.9zm.1-4.9c1.1 0 1.8-.5 2.3-1.4.5-1 .7-2.3.7-3.9s-.3-3-.8-4-1.3-1.5-2.4-1.5c-1.1 0-1.8.5-2.4 1.5-.5 1-.8 2.3-.8 4 0 1.6.3 3 .8 3.9.6.9 1.5 1.4 2.6 1.4zM179.5 141h6.4v10.6c0 1.2.2 2.1.6 2.8s1 .9 2 .9 1.8-.4 2.4-1.2.8-2.1.8-3.8V141h6.4v19.3h-6v-2.9c-.5 1-1.2 1.8-2.1 2.4s-2.1.9-3.7.9c-2.3 0-4-.7-5.1-2-1.1-1.3-1.6-3.2-1.6-5.7v-12zM201.1 145.3c.7-.3 1.2-.6 1.7-.9.4-.3.7-.7 1-1 .2-.4.4-.7.5-1.1.1-.4.1-.8.1-1.3v-.6h-3.2v-6.7h7v6.7c0 1.2-.1 2.2-.3 3.1-.2.8-.6 1.6-1 2.2-.5.6-1.1 1.2-1.8 1.6-.7.4-1.5.9-2.5 1.2l-1.5-3.2zM210.3 141h5.7l.5 3.6c.6-1.2 1.4-2.1 2.5-2.9 1.1-.8 2.5-1.2 4.2-1.2v6.5c-.5-.1-1.1-.2-2-.2-.5 0-1 0-1.5.1s-1 .3-1.4.6c-.4.3-.8.8-1.1 1.5-.3.7-.4 1.6-.4 2.8v8.5h-6.4V141zM230 152.2c.2 1.5.7 2.5 1.4 3.1.7.6 1.6.9 2.5.9.8 0 1.5-.2 2.1-.5.6-.4 1.1-.9 1.5-1.6l4.7 2.7c-1 1.5-2.2 2.5-3.7 3.2-1.5.7-3.2 1-5 1-1.6 0-3.1-.3-4.4-.8s-2.3-1.2-3.2-2.1c-.9-.9-1.5-2-2-3.2-.4-1.3-.7-2.6-.7-4 0-1.5.2-2.8.7-4.1s1.1-2.4 2-3.3c.8-.9 1.9-1.6 3.1-2.1 1.2-.5 2.6-.8 4.1-.8 1.5 0 2.8.3 4 .8 1.2.5 2.1 1.2 2.9 2.1.8.9 1.4 2 1.8 3.3.4 1.3.6 2.8.6 4.4v1.1H230zm3.1-7.1c-1.8 0-2.9 1.2-3.2 3.5h6.2c0-1-.2-1.8-.7-2.5-.4-.6-1.2-1-2.3-1z"/><g><path class="st0" d="M44.5 194.9c.3.3.7.6 1.1.9.4.3.9.6 1.4.8.5.2 1.1.4 1.6.6.6.1 1.1.2 1.7.2.5 0 .9-.1 1.4-.2.5-.2.7-.5.7-1s-.3-.8-.8-1.1-1.1-.5-1.9-.7c-.7-.2-1.6-.4-2.5-.7-.9-.3-1.7-.6-2.5-1.1-.7-.5-1.4-1.1-1.9-1.8s-.8-1.7-.8-2.9c0-1.1.2-2 .7-2.9.5-.8 1.1-1.5 1.8-2 .8-.5 1.6-.9 2.6-1.2 1-.3 2-.4 3.1-.4 1.7 0 3.3.2 4.6.6 1.3.4 2.5 1 3.6 1.7l-2.9 4.3c-.3-.2-.6-.5-1-.7s-.9-.4-1.3-.6c-.5-.2-1-.3-1.6-.5-.5-.1-1.1-.2-1.6-.2-.4 0-.8.1-1.1.2-.3.1-.4.4-.4.8s.3.8.8 1c.5.3 1.1.5 1.9.7.7.2 1.6.5 2.4.8.9.3 1.7.7 2.4 1.1.7.5 1.4 1.1 1.9 1.8s.8 1.7.8 2.8-.2 2.1-.7 2.9c-.5.8-1.1 1.5-1.9 2.1-.8.5-1.7.9-2.7 1.2-1 .3-2 .4-2.9.4-3.6 0-6.6-.9-9-2.7l3-4.2zM72.2 201.4c-.2-.3-.3-.6-.4-1.1-.1-.5-.2-.9-.2-1.2-.4.8-1 1.4-1.8 2-.8.6-2 .9-3.5.9-1 0-2-.2-2.7-.5-.8-.3-1.5-.8-2-1.3-.5-.6-1-1.2-1.2-2-.3-.8-.4-1.6-.4-2.5 0-1 .2-1.8.5-2.6.3-.7.8-1.3 1.5-1.8.6-.5 1.4-.9 2.3-1.2.9-.3 1.9-.5 3.1-.7l3.9-.6v-.4c0-.8-.2-1.4-.6-1.6-.4-.3-1-.4-1.8-.4-1.2 0-2.2.2-3.1.6-.8.4-1.6.9-2.3 1.5l-3-4.2c.4-.3.9-.7 1.5-1 .6-.3 1.3-.6 2-.9.8-.3 1.6-.5 2.5-.6.9-.2 2-.2 3.1-.2 2.9 0 4.9.6 6.1 1.8 1.2 1.2 1.8 3.1 1.8 5.5v8.9c0 .5.1 1 .1 1.4.1.4.1.8.2 1.1.1.3.2.7.4 1.1h-6zm-1-8.6l-2.6.5c-.9.2-1.5.4-1.9.8-.4.3-.6.8-.6 1.4 0 .6.2 1 .5 1.4.3.4.8.6 1.5.6.9 0 1.6-.3 2.3-1 .6-.7.9-1.7.9-3v-.7zM78.2 182h7.1l3.1 13.4 3.1-13.4h6.8L92 201.4h-7.5L78.2 182zM99.5 174.3h6.4v5.1h-6.4v-5.1zm0 7.7h6.4v19.3h-6.4V182zM108.9 182h5.7l.5 2.7c.6-.9 1.4-1.7 2.5-2.3 1.1-.6 2.3-1 3.6-1 4.3 0 6.4 2.7 6.4 8.1v11.8h-6.4v-10.2c0-1.5-.2-2.6-.7-3.2-.5-.6-1.2-.9-2.1-.9-.5 0-.9.1-1.3.2-.4.2-.7.5-1 .9-.3.4-.5.9-.6 1.6-.2.7-.2 1.5-.2 2.5v9.1h-6.4V182zM132.8 201.3c.7.7 1.7 1.3 2.8 1.7 1.1.4 2.2.6 3.4.6 1.2 0 2-.3 2.5-.8.4-.5.7-1.3.7-2.4v-1.8c-.4.7-1.1 1.2-1.9 1.7-.8.5-1.9.7-3.2.7-.9 0-1.8-.2-2.7-.5-.9-.3-1.7-.8-2.4-1.6-.7-.7-1.3-1.7-1.7-2.9-.4-1.2-.6-2.7-.6-4.5 0-1.6.2-3.1.6-4.3.4-1.2.9-2.3 1.6-3.2.7-.9 1.5-1.5 2.5-2 .9-.4 2-.7 3.1-.7 1.2 0 2.2.3 3.1.8.9.5 1.6 1.3 2.2 2.4l.8-2.6h5.1v18.3c0 1.2-.2 2.3-.5 3.3s-.9 1.9-1.7 2.6c-.8.7-1.7 1.3-2.9 1.7-1.2.4-2.7.6-4.4.6-1.1 0-2.2-.1-3.2-.2-1-.2-1.8-.4-2.6-.6-.8-.3-1.5-.6-2.2-.9-.6-.3-1.2-.6-1.7-1l3.3-4.4zm9.3-9.7c0-.6 0-1.2-.1-1.8-.1-.6-.2-1.1-.5-1.5-.2-.4-.5-.8-.9-1.1s-.8-.4-1.4-.4c-.4 0-.8.1-1.2.2-.4.2-.7.4-1 .8-.3.4-.5.9-.6 1.5-.2.6-.2 1.4-.2 2.2 0 1.6.3 2.8.8 3.6.5.8 1.3 1.1 2.3 1.1 1 0 1.7-.4 2.1-1.1.5-.8.7-1.9.7-3.3v-.2zM151.2 194.3h7v7h-7v-7z"/></g><g><path class="st0" d="M43.1 221.5h12.4c1.1 0 2.2.1 3.3.4 1.1.3 2 .7 2.9 1.3.8.6 1.5 1.4 2.1 2.3.5.9.8 2 .8 3.3 0 .6-.1 1.3-.4 1.9-.2.6-.6 1.2-1 1.8-.4.5-1 1-1.6 1.4-.6.4-1.3.7-2 .8 1.8.4 3.3 1 4.3 2.1 1.1 1 1.6 2.4 1.6 4.3 0 1.5-.3 2.7-.8 3.6-.5.9-1.2 1.7-2.1 2.2-.9.5-1.9.9-3 1.1-1.1.2-2.3.3-3.5.3h-13v-26.8zm10.4 10.8c1.5 0 2.5-.2 3-.7.5-.5.8-1.2.8-2.2 0-.8-.2-1.5-.7-2-.5-.5-1.3-.7-2.5-.7H50v5.5h3.5zm1.5 10.9c.6 0 1.2-.1 1.6-.2.4-.2.7-.4 1-.6.2-.3.4-.6.5-.9.1-.4.1-.7.1-1.1 0-.9-.3-1.6-.9-2.1-.6-.5-1.5-.8-2.7-.8H50v5.8h5zM67.5 229h6.4v10.6c0 1.2.2 2.1.6 2.8.4.6 1 .9 2 .9s1.8-.4 2.4-1.2c.5-.8.8-2.1.8-3.8V229H86v19.3h-6v-2.9c-.5 1-1.2 1.8-2.1 2.4s-2.1.9-3.7.9c-2.3 0-4-.7-5.1-2-1.1-1.3-1.6-3.2-1.6-5.7v-12zM90.5 233.1h-3.1V229h.6c1 0 1.8-.2 2.3-.5.6-.3 1-.8 1.3-1.3.3-.5.6-1.2.7-1.8.2-.7.3-1.4.5-2.1h4v5.7h4v4.1h-4v9c0 .6.1 1.1.3 1.4.2.4.7.6 1.5.6.2 0 .5 0 .8-.1.3 0 .6-.1 1-.3l.4 4.5c-.7.3-1.4.5-2.1.6-.7.1-1.4.2-2.2.2-1.2 0-2.2-.2-3-.5-.8-.3-1.4-.7-1.9-1.3-.5-.5-.8-1.2-1-1.9-.2-.7-.3-1.6-.3-2.5v-9.7zM110.2 229h5.7l.5 2.7c.6-.9 1.4-1.7 2.5-2.3 1.1-.6 2.3-1 3.6-1 4.3 0 6.4 2.7 6.4 8.1v11.8h-6.4v-10.2c0-1.5-.2-2.6-.7-3.2-.5-.6-1.2-.9-2.1-.9-.5 0-.9.1-1.3.2-.4.2-.7.5-1 .9-.3.4-.5.9-.6 1.6-.2.7-.2 1.5-.2 2.5v9.1h-6.4V229zM140.6 249c-1.6 0-3.1-.3-4.3-.8-1.2-.5-2.2-1.2-3.1-2.1-.8-.9-1.4-2-1.8-3.2-.4-1.2-.6-2.6-.6-4.1s.2-2.8.6-4.1c.4-1.3 1.1-2.3 1.9-3.3.8-.9 1.8-1.6 3.1-2.2 1.2-.5 2.6-.8 4.2-.8s3 .3 4.2.8c1.2.5 2.2 1.2 3.1 2.1.8.9 1.4 2 1.8 3.3s.6 2.6.6 4.1-.2 2.8-.6 4.1-1 2.3-1.8 3.2c-.8.9-1.8 1.6-3.1 2.1-1.2.6-2.6.9-4.2.9zm.2-4.9c1.1 0 1.8-.5 2.3-1.4.5-1 .7-2.3.7-3.9s-.3-3-.8-4-1.3-1.5-2.4-1.5-1.8.5-2.4 1.5c-.5 1-.8 2.3-.8 4 0 1.6.3 3 .8 3.9.6.9 1.4 1.4 2.6 1.4zM153.6 233.1h-3.1V229h.5c1 0 1.8-.2 2.3-.5.6-.3 1-.8 1.3-1.3.3-.5.6-1.2.7-1.8.2-.7.3-1.4.5-2.1h4v5.7h4v4.1h-4v9c0 .6.1 1.1.3 1.4.2.4.7.6 1.5.6.2 0 .5 0 .8-.1.3 0 .6-.1 1-.3l.4 4.5c-.7.3-1.4.5-2.1.6s-1.4.2-2.2.2c-1.2 0-2.2-.2-3-.5-.8-.3-1.4-.7-1.9-1.3-.5-.5-.8-1.2-1-1.9-.2-.7-.3-1.6-.3-2.5v-9.7zM184.9 246.5c-.5.7-1.1 1.3-1.8 1.7-.8.4-1.7.6-2.8.6-1 0-2-.2-2.9-.5s-1.8-.9-2.5-1.7c-.7-.8-1.3-1.8-1.7-3.1-.4-1.3-.7-2.9-.7-4.7 0-3.4.7-5.9 2.1-7.7 1.4-1.7 3.3-2.6 5.6-2.6 1.1 0 2.1.2 3.1.7.9.5 1.7 1.3 2.3 2.5l.9-2.7h5v26h-6.4v-8.5zm0-7.9c0-1.5-.2-2.7-.7-3.6-.5-.9-1.2-1.3-2.2-1.3-1.1 0-1.8.4-2.3 1.3-.4.9-.7 2.1-.7 3.5 0 1.8.3 3.1.8 3.9.6.8 1.3 1.2 2.2 1.2.9 0 1.6-.4 2.1-1.2.5-.8.7-2 .7-3.5v-.3zM194.2 229h6.4v10.6c0 1.2.2 2.1.6 2.8s1 .9 2 .9 1.8-.4 2.4-1.2.8-2.1.8-3.8V229h6.4v19.3h-6v-2.9c-.5 1-1.2 1.8-2.1 2.4s-2.1.9-3.7.9c-2.3 0-4-.7-5.1-2-1.1-1.3-1.6-3.2-1.6-5.7v-12zM215.7 221.4h6.4v5.1h-6.4v-5.1zm0 7.6h6.4v19.3h-6.4V229zM226.6 233.1h-3.1V229h.5c1 0 1.8-.2 2.3-.5.6-.3 1-.8 1.3-1.3.3-.5.6-1.2.7-1.8.2-.7.3-1.4.5-2.1h4v5.7h4v4.1h-4v9c0 .6.1 1.1.3 1.4.2.4.7.6 1.5.6.2 0 .5 0 .8-.1.3 0 .6-.1 1-.3l.4 4.5c-.7.3-1.4.5-2.1.6s-1.4.2-2.2.2c-1.2 0-2.2-.2-3-.5-.8-.3-1.4-.7-1.9-1.3-.5-.5-.8-1.2-1-1.9-.2-.7-.3-1.6-.3-2.5v-9.7zM243.9 240.2c.2 1.5.7 2.5 1.4 3.1.7.6 1.6.9 2.5.9.8 0 1.5-.2 2.1-.5.6-.4 1.1-.9 1.5-1.6l4.7 2.7c-1 1.5-2.2 2.5-3.7 3.2-1.5.7-3.2 1-5 1-1.6 0-3.1-.3-4.4-.8s-2.3-1.2-3.2-2.1c-.9-.9-1.5-2-2-3.2-.4-1.3-.7-2.6-.7-4 0-1.5.2-2.8.7-4.1s1.1-2.4 2-3.3c.8-.9 1.9-1.6 3.1-2.1 1.2-.5 2.6-.8 4.1-.8 1.5 0 2.8.3 4 .8 1.2.5 2.1 1.2 2.9 2.1.8.9 1.4 2 1.8 3.3.4 1.3.6 2.8.6 4.4v1.1h-12.4zm3.1-7.1c-1.8 0-2.9 1.2-3.2 3.5h6.2c0-1-.2-1.8-.7-2.5-.4-.6-1.2-1-2.3-1z"/></g><g><path class="st0" d="M48.4 281.2c.2 1.5.7 2.5 1.4 3.1.7.6 1.6.9 2.5.9.8 0 1.5-.2 2.1-.5.6-.4 1.1-.9 1.5-1.6l4.7 2.7c-1 1.5-2.2 2.5-3.7 3.2s-3.2 1-5 1c-1.6 0-3.1-.3-4.4-.8-1.3-.5-2.3-1.2-3.2-2.1s-1.5-2-2-3.2c-.4-1.3-.7-2.6-.7-4 0-1.5.2-2.8.7-4.1.5-1.3 1.1-2.4 2-3.3.8-.9 1.9-1.6 3.1-2.1 1.2-.5 2.6-.8 4.1-.8 1.5 0 2.8.3 4 .8 1.2.5 2.1 1.2 2.9 2.1.8.9 1.4 2 1.8 3.3.4 1.3.6 2.8.6 4.4v1.1H48.4zm3.2-7.1c-1.8 0-2.9 1.2-3.2 3.5h6.2c0-1-.2-1.8-.7-2.5-.5-.6-1.3-1-2.3-1zM63.2 270H69l.5 2.7c.6-.9 1.4-1.7 2.5-2.3 1.1-.6 2.3-1 3.6-1 4.3 0 6.4 2.7 6.4 8.1v11.8h-6.4v-10.2c0-1.5-.2-2.6-.7-3.2-.5-.6-1.2-.9-2.1-.9-.5 0-.9.1-1.3.2-.4.2-.7.5-1 .9-.3.4-.5.9-.6 1.6-.2.7-.2 1.5-.2 2.5v9.1h-6.4V270zM93.6 290c-1.6 0-3.1-.3-4.3-.8-1.2-.5-2.2-1.2-3.1-2.1-.8-.9-1.4-2-1.8-3.2-.4-1.2-.6-2.6-.6-4.1s.2-2.8.6-4.1c.4-1.3 1.1-2.3 1.9-3.3.8-.9 1.8-1.6 3.1-2.2 1.2-.5 2.6-.8 4.2-.8s3 .3 4.2.8c1.2.5 2.2 1.2 3.1 2.1.8.9 1.4 2 1.8 3.3s.6 2.6.6 4.1-.2 2.8-.6 4.1-1 2.3-1.8 3.2c-.8.9-1.8 1.6-3.1 2.1-1.2.6-2.6.9-4.2.9zm.1-4.9c1.1 0 1.8-.5 2.3-1.4.5-1 .7-2.3.7-3.9s-.3-3-.8-4-1.3-1.5-2.4-1.5-1.8.5-2.4 1.5c-.5 1-.8 2.3-.8 4 0 1.6.3 3 .8 3.9.7.9 1.5 1.4 2.6 1.4zM105.4 270h6.4v10.6c0 1.2.2 2.1.6 2.8.4.6 1 .9 2 .9s1.8-.4 2.4-1.2c.5-.8.8-2.1.8-3.8V270h6.4v19.3h-6v-2.9c-.5 1-1.2 1.8-2.1 2.4s-2.1.9-3.7.9c-2.3 0-4-.7-5.1-2-1.1-1.3-1.6-3.2-1.6-5.7v-12zM129.3 289.3c.7.7 1.7 1.3 2.8 1.7 1.1.4 2.2.6 3.4.6 1.2 0 2-.3 2.5-.8.4-.5.7-1.3.7-2.4v-1.8c-.4.7-1.1 1.2-1.9 1.7-.8.5-1.9.7-3.2.7-.9 0-1.8-.2-2.7-.5-.9-.3-1.7-.8-2.4-1.6-.7-.7-1.3-1.7-1.7-2.9-.4-1.2-.6-2.7-.6-4.5 0-1.6.2-3.1.6-4.3.4-1.2.9-2.3 1.6-3.2.7-.9 1.5-1.5 2.5-2 .9-.4 2-.7 3.1-.7 1.2 0 2.2.3 3.1.8.9.5 1.6 1.3 2.2 2.4l.8-2.6h5.1v18.3c0 1.2-.2 2.3-.5 3.3s-.9 1.9-1.7 2.6c-.8.7-1.7 1.3-2.9 1.7-1.2.4-2.7.6-4.4.6-1.1 0-2.2-.1-3.2-.2-1-.2-1.8-.4-2.6-.6-.8-.3-1.5-.6-2.2-.9-.6-.3-1.2-.6-1.7-1l3.3-4.4zm9.3-9.7c0-.6 0-1.2-.1-1.8-.1-.6-.2-1.1-.5-1.5-.2-.4-.5-.8-.9-1.1s-.8-.4-1.4-.4c-.4 0-.8.1-1.2.2-.4.2-.7.4-1 .8-.3.4-.5.9-.6 1.5-.2.6-.2 1.4-.2 2.2 0 1.6.3 2.8.8 3.6.5.8 1.3 1.1 2.3 1.1 1 0 1.7-.4 2.1-1.1.5-.8.7-1.9.7-3.3v-.2zM148 262.5h6.4v10c.5-.9 1.2-1.6 2.2-2.2 1-.6 2.2-.9 3.7-.9 2.2 0 3.8.7 4.8 2.1 1 1.4 1.5 3.5 1.5 6.1v11.7h-6.4v-10.5c0-1.2-.2-2.2-.6-2.8-.4-.7-1.1-1-2.1-1-.9 0-1.7.4-2.2 1.1-.6.7-.9 2-.9 3.8v9.4H148v-26.8zM169.5 282.3h7v7h-7v-7z"/></g></svg>