<svg version="1.1" id="Layer_1" xmlns="http://www.w3.org/2000/svg" x="0" y="0" viewBox="0 0 728 90" xml:space="preserve"><style>.copy-purpleFill{fill:#662868}</style><path class="copy-purpleFill" d="M203.3 19h5.2v12.9c0 1.3.3 2.2.9 2.7s1.4.8 2.4.8 1.8-.3 2.4-.8c.6-.5.8-1.4.8-2.6V19h5.2v13.3c0 .5 0 1-.1 1.5s-.2 1.1-.4 1.7c-.2.6-.5 1.1-.8 1.7-.4.5-.9 1-1.5 1.4-.6.4-1.4.7-2.3 1-.9.3-2 .4-3.3.4-1.3 0-2.4-.1-3.3-.4-.9-.3-1.7-.6-2.3-1-.6-.4-1.1-.9-1.5-1.4-.4-.5-.7-1.1-.9-1.7-.2-.6-.3-1.1-.4-1.7-.1-.6-.1-1.1-.1-1.5V19zM222.8 24.7h4.9v1.9c.3-.7.8-1.2 1.5-1.7.6-.5 1.5-.7 2.5-.7 1.6 0 3 .6 4 1.9 1 1.3 1.5 3.2 1.5 5.8 0 1.5-.2 2.8-.6 3.8-.4 1-.8 1.8-1.4 2.4-.6.6-1.2 1-1.9 1.3-.7.2-1.4.4-2 .4-.7 0-1.5-.1-2.2-.4-.7-.3-1.2-.7-1.6-1.2v6.4h-4.9V24.7zm4.9 7.5c0 .5 0 1 .1 1.4.1.5.2.8.4 1.2.2.3.4.6.7.8.3.2.6.3 1 .3.7 0 1.2-.3 1.6-.9.4-.6.6-1.6.6-2.9s-.2-2.2-.6-2.9c-.4-.6-1-1-1.7-1-.4 0-.7.1-1 .3-.3.2-.5.5-.7.8-.2.3-.3.7-.4 1.1-.1.4-.1.9-.1 1.3v.5zM240.6 39.4c.6.6 1.3 1 2.1 1.3.8.3 1.7.5 2.6.5.9 0 1.6-.2 1.9-.6.3-.4.5-1 .5-1.8v-1.4c-.3.5-.8.9-1.5 1.3-.6.3-1.4.5-2.4.5-.7 0-1.4-.1-2.1-.4-.7-.2-1.3-.6-1.8-1.2s-1-1.3-1.3-2.2c-.3-.9-.5-2.1-.5-3.4 0-1.2.1-2.3.4-3.3.3-.9.7-1.7 1.2-2.4s1.1-1.2 1.9-1.5 1.5-.5 2.4-.5c.9 0 1.7.2 2.4.6.7.4 1.2 1 1.7 1.8l.6-2h3.9v14c0 .9-.1 1.7-.4 2.5-.3.8-.7 1.4-1.3 2-.6.6-1.3 1-2.2 1.3-.9.3-2 .5-3.3.5-.9 0-1.7-.1-2.4-.2s-1.4-.3-2-.5c-.6-.2-1.2-.4-1.7-.7-.5-.3-.9-.5-1.3-.7l2.6-3.5zm7.1-7.4c0-.5 0-.9-.1-1.3l-.3-1.2c-.2-.3-.4-.6-.7-.8-.3-.2-.6-.3-1.1-.3-.3 0-.6.1-.9.2-.3.1-.5.3-.7.6-.2.3-.4.7-.5 1.1-.1.5-.2 1-.2 1.7 0 1.2.2 2.1.6 2.7.4.6 1 .9 1.7.9s1.3-.3 1.6-.9.5-1.4.5-2.5V32zM254.9 24.7h4.4l.3 2.7c.4-.9 1.1-1.6 1.9-2.2.8-.6 1.9-.9 3.2-.9v5c-.3-.1-.9-.1-1.5-.1-.4 0-.8 0-1.2.1-.4.1-.8.2-1.1.5-.3.3-.6.6-.8 1.2s-.3 1.2-.3 2.1v6.5h-4.9V24.7zM274.3 39.4c-.1-.2-.2-.5-.3-.8-.1-.3-.1-.7-.2-.9-.3.6-.7 1.1-1.4 1.6-.6.5-1.5.7-2.7.7-.8 0-1.5-.1-2.1-.4-.6-.2-1.1-.6-1.5-1-.4-.4-.7-.9-.9-1.5-.2-.6-.3-1.2-.3-1.9 0-.8.1-1.4.4-2 .3-.6.6-1 1.1-1.4.5-.4 1.1-.7 1.8-.9s1.5-.4 2.3-.6l3-.5v-.3c0-.6-.2-1-.5-1.2-.3-.2-.8-.3-1.3-.3-.9 0-1.7.2-2.3.5-.6.3-1.2.7-1.7 1.2l-2.3-3.2c.3-.3.7-.5 1.1-.8.5-.3 1-.5 1.6-.7.6-.2 1.2-.4 1.9-.5.7-.1 1.5-.2 2.3-.2 2.2 0 3.7.5 4.7 1.4.9.9 1.4 2.3 1.4 4.2v6.7c0 .4 0 .8.1 1.1 0 .3.1.6.2.9.1.3.2.5.3.8h-4.7zm-.8-6.5l-2 .4c-.7.1-1.2.3-1.5.6-.3.3-.5.6-.5 1.1 0 .4.1.8.4 1.1.3.3.6.4 1.1.4.7 0 1.3-.3 1.7-.8.5-.5.7-1.3.7-2.3v-.5zM289.6 37.4c-.4.8-.9 1.3-1.5 1.7-.6.4-1.4.6-2.4.6-.9 0-1.7-.2-2.4-.5s-1.3-.8-1.9-1.5-.9-1.5-1.2-2.5c-.3-1-.4-2.1-.4-3.3 0-1.4.2-2.7.5-3.6.3-1 .8-1.7 1.4-2.3.6-.6 1.2-1 1.9-1.3.7-.3 1.4-.4 2.1-.4.9 0 1.7.2 2.3.5.6.4 1.1.8 1.4 1.3V19h4.9v20.5h-4.6v-2.1zm-.3-5.6c0-.5 0-.9-.1-1.3s-.2-.8-.4-1.1c-.2-.3-.4-.6-.7-.8-.3-.2-.6-.3-1.1-.3-.7 0-1.3.3-1.7.9-.4.6-.6 1.5-.6 2.7 0 1.3.2 2.3.7 3 .4.7 1 1 1.7 1 .4 0 .7-.1 1-.3.3-.2.5-.5.7-.8s.3-.8.4-1.2c.1-.5.1-1 .1-1.5v-.3zM300.9 33.2c.2 1.1.5 1.9 1.1 2.4.6.5 1.2.7 1.9.7.6 0 1.2-.1 1.6-.4.5-.3.8-.7 1.2-1.2l3.6 2c-.7 1.1-1.7 1.9-2.8 2.5-1.2.5-2.4.8-3.8.8-1.3 0-2.4-.2-3.3-.6-1-.4-1.8-.9-2.4-1.6-.7-.7-1.2-1.5-1.5-2.5-.3-1-.5-2-.5-3.1s.2-2.2.5-3.1c.3-1 .8-1.8 1.5-2.5.6-.7 1.4-1.2 2.4-1.6.9-.4 2-.6 3.2-.6 1.1 0 2.2.2 3 .6.9.4 1.6.9 2.2 1.6.6.7 1.1 1.6 1.4 2.6.3 1 .5 2.1.5 3.3v.8h-9.8zm2.4-5.4c-1.4 0-2.2.9-2.4 2.7h4.8c0-.7-.2-1.4-.6-1.9-.4-.5-1-.8-1.8-.8zM318.4 40.9c.3.1.7.2 1.1.3.4.1.7.1 1 .1.4 0 .8-.1 1-.3.2-.2.4-.5.6-1l-5.3-15.3h5.2l2.6 9.9 2.5-9.9h5.2l-5.1 14.7c-.3.8-.6 1.6-.9 2.2s-.7 1.3-1.1 1.8c-.5.5-1.1.9-1.8 1.2-.7.3-1.6.4-2.8.4h-1.5c-.3 0-.6 0-.8-.1-.3 0-.5-.1-.6-.1l.7-3.9zM339.6 39.9c-1.3 0-2.4-.2-3.3-.6-.9-.4-1.7-.9-2.3-1.6-.6-.7-1.1-1.5-1.4-2.5-.3-.9-.5-2-.5-3.1s.2-2.2.5-3.1.8-1.8 1.4-2.5c.6-.7 1.4-1.3 2.3-1.7.9-.4 2-.6 3.2-.6 1.2 0 2.3.2 3.2.6.9.4 1.7.9 2.3 1.6.6.7 1.1 1.5 1.4 2.5.3 1 .5 2 .5 3.1s-.2 2.2-.5 3.1c-.3.9-.8 1.8-1.4 2.5s-1.4 1.2-2.3 1.6c-.8.5-1.9.7-3.1.7zm.1-3.7c.8 0 1.4-.4 1.8-1.1.4-.7.5-1.7.5-3s-.2-2.3-.6-3c-.4-.8-1-1.1-1.8-1.1s-1.4.4-1.8 1.1-.6 1.8-.6 3 .2 2.3.6 3c.3.7 1 1.1 1.9 1.1zM348.5 24.7h4.9v8.1c0 .9.1 1.6.4 2.1.3.5.8.7 1.5.7.8 0 1.4-.3 1.8-.9.4-.6.6-1.6.6-2.9v-7.1h4.9v14.8H358v-2.2c-.4.8-.9 1.4-1.6 1.8s-1.6.7-2.8.7c-1.8 0-3.1-.5-3.9-1.5-.8-1-1.2-2.5-1.2-4.4v-9.2zM364.9 24.7h4.4l.3 2.7c.4-.9 1.1-1.6 1.9-2.2.8-.6 1.9-.9 3.2-.9v5c-.3-.1-.9-.1-1.5-.1-.4 0-.8 0-1.2.1s-.8.2-1.1.5c-.3.3-.6.6-.8 1.2-.2.5-.3 1.2-.3 2.1v6.5h-4.9V24.7zM383.2 34.5c.2.2.5.4.8.7.3.2.7.4 1.1.6.4.2.8.3 1.2.4.4.1.9.2 1.3.2.3 0 .7-.1 1.1-.2.4-.1.5-.4.5-.7 0-.3-.2-.6-.6-.8-.4-.2-.9-.4-1.4-.6-.6-.2-1.2-.3-1.9-.5s-1.3-.5-1.9-.8c-.6-.3-1-.8-1.4-1.4-.4-.6-.6-1.3-.6-2.2 0-.8.2-1.6.5-2.2.3-.6.8-1.1 1.4-1.5.6-.4 1.2-.7 2-.9s1.5-.3 2.3-.3c1.3 0 2.5.2 3.5.5s1.9.7 2.7 1.3l-2.2 3.2c-.2-.2-.4-.3-.8-.5-.3-.2-.7-.3-1-.5s-.8-.3-1.2-.3-.8-.1-1.2-.1c-.3 0-.6.1-.8.2-.2.1-.3.3-.3.6s.2.6.6.8c.4.2.9.4 1.4.6.6.2 1.2.4 1.9.6.7.2 1.3.5 1.9.9.6.4 1 .8 1.4 1.4.4.6.6 1.3.6 2.1 0 .9-.2 1.6-.6 2.2-.4.6-.9 1.2-1.5 1.6-.6.4-1.3.7-2 .9-.8.2-1.5.3-2.2.3-2.8 0-5.1-.7-6.8-2.1l2.2-3.5zM404.3 39.4c-.1-.2-.2-.5-.3-.8-.1-.3-.1-.7-.2-.9-.3.6-.7 1.1-1.4 1.6-.6.5-1.5.7-2.7.7-.8 0-1.5-.1-2.1-.4-.6-.2-1.1-.6-1.5-1-.4-.4-.7-.9-.9-1.5-.2-.6-.3-1.2-.3-1.9 0-.8.1-1.4.4-2s.6-1 1.1-1.4 1.1-.7 1.8-.9c.7-.2 1.5-.4 2.3-.6l3-.5v-.3c0-.6-.2-1-.5-1.2-.3-.2-.8-.3-1.3-.3-.9 0-1.7.2-2.3.5-.6.3-1.2.7-1.7 1.2l-2.3-3.2c.3-.3.7-.5 1.1-.8.5-.3 1-.5 1.6-.7.6-.2 1.2-.4 1.9-.5.7-.1 1.5-.2 2.3-.2 2.2 0 3.7.5 4.7 1.4.9.9 1.4 2.3 1.4 4.2v6.7c0 .4 0 .8.1 1.1 0 .3.1.6.2.9.1.3.2.5.3.8h-4.7zm-.7-6.5l-2 .4c-.7.1-1.2.3-1.5.6-.3.3-.5.6-.5 1.1 0 .4.1.8.4 1.1.3.3.6.4 1.1.4.7 0 1.3-.3 1.7-.8s.7-1.3.7-2.3v-.5zM408.9 24.7h5.5l2.4 10.2 2.3-10.2h5.2l-4.9 14.8h-5.7l-4.8-14.8zM425.2 18.8h4.9v3.9h-4.9v-3.9zm0 5.9h4.9v14.8h-4.9V24.7zM432.4 24.7h4.4l.4 2.1c.4-.7 1.1-1.3 1.9-1.8.8-.5 1.7-.7 2.7-.7 3.2 0 4.9 2.1 4.9 6.2v9h-4.9v-7.8c0-1.2-.2-2-.5-2.5s-.9-.7-1.6-.7c-.3 0-.7.1-1 .2-.3.1-.5.3-.8.7s-.4.7-.5 1.2c-.1.5-.2 1.1-.2 1.9v7h-4.9V24.7zM450.6 39.4c.6.6 1.3 1 2.1 1.3.8.3 1.7.5 2.6.5.9 0 1.6-.2 1.9-.6.3-.4.5-1 .5-1.8v-1.4c-.3.5-.8.9-1.4 1.3-.6.3-1.4.5-2.4.5-.7 0-1.4-.1-2.1-.4-.7-.2-1.3-.6-1.8-1.2s-1-1.3-1.3-2.2c-.3-.9-.5-2.1-.5-3.4 0-1.2.1-2.3.4-3.3s.7-1.7 1.2-2.4 1.1-1.2 1.9-1.5c.7-.3 1.5-.5 2.4-.5.9 0 1.7.2 2.4.6.7.4 1.2 1 1.7 1.8l.6-2h3.9v14c0 .9-.1 1.7-.4 2.5-.3.8-.7 1.4-1.3 2-.6.6-1.3 1-2.2 1.3-.9.3-2 .5-3.3.5-.9 0-1.7-.1-2.4-.2s-1.4-.3-2-.5c-.6-.2-1.2-.4-1.7-.7-.5-.3-.9-.5-1.3-.7l2.5-3.5zm7.1-7.4c0-.5 0-.9-.1-1.3l-.3-1.2c-.2-.3-.4-.6-.7-.8-.3-.2-.6-.3-1.1-.3-.3 0-.6.1-.9.2s-.5.3-.7.6c-.2.3-.4.7-.5 1.1-.1.5-.2 1-.2 1.7 0 1.2.2 2.1.6 2.7s1 .9 1.7.9 1.3-.3 1.6-.9.5-1.4.5-2.5V32zM466.2 34.5c.2.2.5.4.8.7.3.2.7.4 1.1.6.4.2.8.3 1.2.4.4.1.9.2 1.3.2.3 0 .7-.1 1.1-.2.4-.1.5-.4.5-.7 0-.3-.2-.6-.6-.8-.4-.2-.9-.4-1.4-.6-.6-.2-1.2-.3-1.9-.5s-1.3-.5-1.9-.8c-.6-.3-1-.8-1.4-1.4-.4-.6-.6-1.3-.6-2.2 0-.8.2-1.6.5-2.2.3-.6.8-1.1 1.4-1.5.6-.4 1.2-.7 2-.9s1.5-.3 2.3-.3c1.3 0 2.5.2 3.5.5s1.9.7 2.7 1.3l-2.2 3.2c-.2-.2-.4-.3-.8-.5-.3-.2-.7-.3-1-.5s-.8-.3-1.2-.3-.8-.1-1.2-.1c-.3 0-.6.1-.8.2-.2.1-.3.3-.3.6s.2.6.6.8c.4.2.9.4 1.4.6.6.2 1.2.4 1.9.6.7.2 1.3.5 1.9.9.6.4 1 .8 1.4 1.4.4.6.6 1.3.6 2.1 0 .9-.2 1.6-.6 2.2-.4.6-.9 1.2-1.5 1.6-.6.4-1.3.7-2 .9-.8.2-1.5.3-2.2.3-2.8 0-5.1-.7-6.8-2.1l2.2-3.5z"/><g><path class="copy-purpleFill" d="M201.7 55.7h5.2l2.2 10.1 1.9-10.1h5.2l1.9 10.1 2.1-10.1h5.2l-4.8 14.8h-5.2l-1.9-7.9-1.9 7.9h-5.2l-4.7-14.8zM226.3 49.8h4.9v3.9h-4.9v-3.9zm0 5.9h4.9v14.8h-4.9V55.7zM234.6 58.8h-2.3v-3.1h.4c.8 0 1.3-.1 1.8-.4s.8-.6 1-1c.2-.4.4-.9.5-1.4.1-.5.2-1 .4-1.6h3.1v4.4h3v3.1h-3v6.8c0 .4.1.8.3 1.1.2.3.6.4 1.1.4h.6c.2 0 .5-.1.8-.2l.3 3.4c-.5.2-1.1.4-1.6.5-.5.1-1.1.1-1.7.1-.9 0-1.7-.1-2.3-.3-.6-.2-1.1-.6-1.4-1-.3-.4-.6-.9-.7-1.5s-.2-1.2-.2-1.9v-7.4zM243.7 50h4.9v7.7c.4-.7.9-1.2 1.7-1.7s1.7-.7 2.8-.7c1.7 0 2.9.5 3.7 1.6.8 1.1 1.2 2.6 1.2 4.7v8.9h-4.9v-8c0-.9-.2-1.6-.5-2.2-.3-.5-.9-.8-1.6-.8-.7 0-1.3.3-1.7.9-.4.6-.7 1.5-.7 2.9v7.2h-4.9V50zM285 65.9c-1 1.8-2.3 3-3.7 3.8-1.5.8-3.2 1.2-5.3 1.2-1.7 0-3.2-.3-4.5-.8-1.3-.5-2.4-1.3-3.3-2.2-.9-.9-1.5-2.1-2-3.4-.4-1.3-.7-2.7-.7-4.3 0-1.6.2-3 .7-4.3.5-1.3 1.1-2.4 2-3.4.9-.9 2-1.7 3.3-2.2 1.3-.5 2.8-.8 4.4-.8 1.9 0 3.6.3 5.1 1s2.8 1.9 4 3.6l-5 2.5c-.4-.8-.9-1.5-1.6-1.9-.7-.5-1.5-.7-2.4-.7-.9 0-1.6.2-2.2.5-.6.3-1.1.8-1.5 1.3-.4.6-.7 1.2-.9 2-.2.8-.3 1.6-.3 2.4 0 .9.1 1.6.3 2.4.2.7.5 1.4.9 2 .4.6.9 1 1.5 1.3s1.3.5 2.1.5c.9 0 1.7-.2 2.3-.7.7-.5 1.3-1.2 1.7-2.3l5.1 2.5zM286.4 50h4.9v20.5h-4.9V50zM302.4 70.4c-.1-.2-.2-.5-.3-.8-.1-.3-.1-.7-.2-.9-.3.6-.7 1.1-1.4 1.6-.6.5-1.5.7-2.7.7-.8 0-1.5-.1-2.1-.4-.6-.2-1.1-.6-1.5-1-.4-.4-.7-.9-.9-1.5-.2-.6-.3-1.2-.3-1.9 0-.8.1-1.4.4-2 .3-.6.6-1 1.1-1.4.5-.4 1.1-.7 1.8-.9s1.5-.4 2.3-.6l3-.5v-.3c0-.6-.2-1-.5-1.2s-.8-.3-1.3-.3c-.9 0-1.7.2-2.3.5-.6.3-1.2.7-1.7 1.2l-2.3-3.2c.3-.3.7-.5 1.1-.8.5-.3 1-.5 1.6-.7s1.2-.4 1.9-.5c.7-.1 1.5-.2 2.3-.2 2.2 0 3.7.5 4.7 1.4.9.9 1.4 2.3 1.4 4.2v6.7c0 .4 0 .8.1 1.1 0 .3.1.6.2.9.1.3.2.5.3.8h-4.7zm-.8-6.5l-2 .4c-.7.1-1.2.3-1.5.6-.3.3-.5.6-.5 1.1 0 .4.1.8.4 1.1.3.3.6.4 1.1.4.7 0 1.3-.3 1.7-.8.5-.5.7-1.3.7-2.3v-.5zM308.8 49.8h4.9v3.9h-4.9v-3.9zm0 5.9h4.9v14.8h-4.9V55.7zM316 55.7h4.4l.4 2.1c.4-.8 1-1.4 1.7-1.8.7-.4 1.5-.7 2.6-.7 1.2 0 2.1.3 2.8.8.7.5 1.1 1.1 1.4 1.8l.6-.9c.2-.3.5-.6.9-.9.4-.3.8-.5 1.3-.6.5-.2 1.1-.2 1.8-.2 1 0 1.9.2 2.5.5.6.3 1.1.8 1.5 1.4.3.6.6 1.2.7 2 .1.7.2 1.5.2 2.3v9.1h-4.9v-7.7c0-1.1-.1-1.9-.4-2.5-.3-.5-.8-.8-1.5-.8-.2 0-.5 0-.7.1-.3.1-.5.2-.7.5-.2.3-.4.6-.5 1.1s-.2 1.1-.2 1.9v7.4H325v-7.8c0-1-.1-1.8-.4-2.3-.3-.5-.8-.8-1.5-.8-.2 0-.5 0-.7.1-.3.1-.5.3-.7.5s-.4.7-.5 1.2c-.1.5-.2 1.2-.2 2v7h-5V55.7zM341.1 50h8.7c1 0 2 .1 2.9.3s1.8.6 2.6 1.1c.8.5 1.4 1.2 1.8 2 .5.8.7 1.8.7 3 0 1.3-.2 2.4-.6 3.3-.4.9-1 1.6-1.7 2.2-.7.6-1.6 1-2.5 1.2-1 .2-2 .4-3.1.4h-3.5v6.9h-5.2V50zm7.9 9.5c.5 0 .9 0 1.3-.1s.7-.2 1-.4c.3-.2.5-.5.7-.9s.2-.9.2-1.5c0-.5-.1-.9-.3-1.2-.2-.3-.4-.6-.7-.8s-.7-.3-1.1-.4c-.4-.1-.8-.1-1.2-.1h-2.6v5.5h2.7zM367.6 70.4c-.1-.2-.2-.5-.3-.8-.1-.3-.1-.7-.2-.9-.3.6-.7 1.1-1.4 1.6-.6.5-1.5.7-2.7.7-.8 0-1.5-.1-2.1-.4-.6-.2-1.1-.6-1.5-1-.4-.4-.7-.9-.9-1.5-.2-.6-.3-1.2-.3-1.9 0-.8.1-1.4.4-2 .3-.6.6-1 1.1-1.4.5-.4 1.1-.7 1.8-.9s1.5-.4 2.3-.6l3-.5v-.3c0-.6-.2-1-.5-1.2-.3-.2-.8-.3-1.3-.3-.9 0-1.7.2-2.3.5-.6.3-1.2.7-1.7 1.2l-2.3-3.2c.3-.3.7-.5 1.1-.8.5-.3 1-.5 1.6-.7s1.2-.4 1.9-.5c.7-.1 1.5-.2 2.3-.2 2.2 0 3.7.5 4.7 1.4.9.9 1.4 2.3 1.4 4.2v6.7c0 .4 0 .8.1 1.1 0 .3.1.6.2.9.1.3.2.5.3.8h-4.7zm-.7-6.5l-2 .4c-.7.1-1.2.3-1.5.6-.3.3-.5.6-.5 1.1 0 .4.1.8.4 1.1.3.3.6.4 1.1.4.7 0 1.3-.3 1.7-.8.5-.5.7-1.3.7-2.3v-.5zM375.2 65.5c.2.2.5.4.8.7.3.2.7.4 1.1.6s.8.3 1.2.4c.4.1.9.2 1.3.2.3 0 .7-.1 1.1-.2.4-.1.5-.4.5-.7 0-.3-.2-.6-.6-.8s-.9-.4-1.4-.6c-.6-.2-1.2-.3-1.9-.5s-1.3-.5-1.9-.8c-.6-.3-1-.8-1.4-1.4-.4-.6-.6-1.3-.6-2.2 0-.8.2-1.6.5-2.2.3-.6.8-1.1 1.4-1.5s1.2-.7 2-.9c.8-.2 1.5-.3 2.3-.3 1.3 0 2.5.2 3.5.5s1.9.7 2.7 1.3l-2.2 3.2c-.2-.2-.4-.3-.8-.5-.3-.2-.7-.3-1-.5-.4-.1-.8-.3-1.2-.3s-.8-.1-1.2-.1c-.3 0-.6.1-.8.2s-.3.3-.3.6.2.6.6.8c.4.2.9.4 1.4.6.6.2 1.2.4 1.9.6s1.3.5 1.9.9c.6.4 1 .8 1.4 1.4.4.6.6 1.3.6 2.1s-.2 1.6-.6 2.2c-.4.6-.9 1.2-1.5 1.6-.6.4-1.3.7-2 .9s-1.5.3-2.2.3c-2.8 0-5.1-.7-6.8-2.1l2.2-3.5zM388.6 65.5c.2.2.5.4.8.7.3.2.7.4 1.1.6s.8.3 1.2.4c.4.1.9.2 1.3.2.3 0 .7-.1 1.1-.2.4-.1.5-.4.5-.7 0-.3-.2-.6-.6-.8s-.9-.4-1.4-.6c-.6-.2-1.2-.3-1.9-.5s-1.3-.5-1.9-.8c-.6-.3-1-.8-1.4-1.4-.4-.6-.6-1.3-.6-2.2 0-.8.2-1.6.5-2.2.3-.6.8-1.1 1.4-1.5s1.2-.7 2-.9c.8-.2 1.5-.3 2.3-.3 1.3 0 2.5.2 3.5.5s1.9.7 2.7 1.3l-2.2 3.2c-.2-.2-.4-.3-.8-.5-.3-.2-.7-.3-1-.5-.4-.1-.8-.3-1.2-.3s-.8-.1-1.2-.1c-.3 0-.6.1-.8.2s-.3.3-.3.6.2.6.6.8c.4.2.9.4 1.4.6.6.2 1.2.4 1.9.6s1.3.5 1.9.9c.6.4 1 .8 1.4 1.4.4.6.6 1.3.6 2.1s-.2 1.6-.6 2.2c-.4.6-.9 1.2-1.5 1.6-.6.4-1.3.7-2 .9s-1.5.3-2.2.3c-2.8 0-5.1-.7-6.8-2.1l2.2-3.5zM400.3 65.1h5.4v5.4h-5.4v-5.4z"/></g></svg>