<svg version="1.1" id="Layer_1" xmlns="http://www.w3.org/2000/svg" x="0" y="0" viewBox="0 0 728 90" xml:space="preserve"><style>.copy-purpleFill{fill:#662868}</style><path class="copy-purpleFill" d="M204 33.5c.2.3.4.5.8.8s.7.5 1.2.8c.5.2 1 .4 1.6.6.6.2 1.2.2 1.8.2.9 0 1.6-.1 2.1-.4.5-.3.8-.7.8-1.2 0-.4-.1-.7-.3-1-.2-.3-.6-.5-1-.7-.4-.2-1-.3-1.6-.5-.6-.1-1.4-.3-2.2-.5-2-.5-3.5-1.3-4.4-2.3-.9-1-1.3-2.3-1.3-3.8 0-.9.2-1.7.5-2.5s.9-1.5 1.6-2.1c.7-.6 1.5-1.1 2.6-1.5s2.2-.6 3.6-.6c1.6 0 3.1.3 4.5.8s2.6 1.4 3.6 2.5l-3.5 3.2c-.5-.6-1.2-1.1-2.1-1.6-.8-.4-1.8-.6-2.9-.6-.5 0-.9 0-1.2.1-.3.1-.6.2-.8.4s-.3.3-.4.5c-.1.2-.1.4-.1.6 0 .5.2.9.7 1.3.5.4 1.4.7 2.7 1.1 1.5.4 2.7.8 3.7 1.2s1.7.9 2.3 1.4c.6.5.9 1.1 1.2 1.7.2.6.3 1.3.3 2.1 0 1.1-.2 2-.7 2.9-.5.8-1.1 1.5-1.8 2.1-.8.6-1.7 1-2.7 1.2-1 .3-2.1.4-3.2.4s-2.1-.1-3-.3c-.9-.2-1.7-.4-2.5-.7s-1.4-.6-1.9-1-1-.8-1.3-1.2l3.3-3.4zM219.2 25h4.9v8.1c0 .9.1 1.6.4 2.1.3.5.8.7 1.5.7.8 0 1.4-.3 1.8-.9.4-.6.6-1.6.6-2.9V25h4.9v14.8h-4.6v-2.2c-.4.8-.9 1.4-1.6 1.8s-1.6.7-2.8.7c-1.8 0-3.1-.5-3.9-1.5-.8-1-1.2-2.5-1.2-4.4V25zM235.6 25h4.4l.3 2.7c.4-.9 1.1-1.6 1.9-2.2.8-.6 1.9-.9 3.2-.9v5c-.3-.1-.9-.1-1.5-.1-.4 0-.8 0-1.2.1-.4.1-.8.2-1.1.5-.3.3-.6.6-.8 1.2s-.3 1.2-.3 2.1v6.5h-4.9V25zM250.7 33.5c.2 1.1.5 1.9 1.1 2.4.6.5 1.2.7 1.9.7.6 0 1.2-.1 1.6-.4.5-.3.8-.7 1.2-1.2l3.6 2c-.7 1.1-1.7 1.9-2.8 2.5-1.2.5-2.4.8-3.8.8-1.3 0-2.4-.2-3.3-.6-1-.4-1.8-.9-2.4-1.6-.7-.7-1.2-1.5-1.5-2.5-.3-1-.5-2-.5-3.1s.2-2.2.5-3.1c.3-1 .8-1.8 1.5-2.5.6-.7 1.4-1.2 2.4-1.6.9-.4 2-.6 3.2-.6 1.1 0 2.2.2 3 .6.9.4 1.6.9 2.2 1.6.6.7 1.1 1.6 1.4 2.6.3 1 .5 2.1.5 3.3v.8h-9.8zm2.4-5.4c-1.4 0-2.2.9-2.4 2.7h4.8c0-.7-.2-1.4-.6-1.9-.4-.5-1-.8-1.8-.8zM261.7 43.6c.5-.2.9-.5 1.3-.7.3-.2.6-.5.8-.8.2-.3.3-.6.4-.9s.1-.6.1-1v-.5h-2.5v-5.4h5.4v5.3c0 .9-.1 1.7-.3 2.3-.2.6-.4 1.2-.8 1.7s-.8.9-1.3 1.2c-.5.3-1.2.7-1.9.9l-1.2-2.1zM275.7 41.2c.3.1.7.2 1.1.3.4.1.7.1 1 .1.4 0 .8-.1 1-.3.2-.2.4-.5.6-1L274.1 25h5.2l2.6 9.9 2.5-9.9h5.2l-5.1 14.7c-.3.8-.6 1.6-.9 2.2s-.7 1.3-1.1 1.8c-.5.5-1.1.9-1.8 1.2-.7.3-1.6.4-2.8.4h-1.5c-.3 0-.6 0-.8-.1-.3 0-.5-.1-.6-.1l.7-3.9zM296.8 40.2c-1.3 0-2.4-.2-3.3-.6-.9-.4-1.7-.9-2.3-1.6-.6-.7-1.1-1.5-1.4-2.5-.3-.9-.5-2-.5-3.1s.2-2.2.5-3.1.8-1.8 1.4-2.5c.6-.7 1.4-1.3 2.3-1.7.9-.4 2-.6 3.2-.6 1.2 0 2.3.2 3.2.6.9.4 1.7.9 2.3 1.6.6.7 1.1 1.5 1.4 2.5.3 1 .5 2 .5 3.1s-.2 2.2-.5 3.1c-.3.9-.8 1.8-1.4 2.5s-1.4 1.2-2.3 1.6c-.8.5-1.9.7-3.1.7zm.1-3.7c.8 0 1.4-.4 1.8-1.1.4-.7.5-1.7.5-3s-.2-2.3-.6-3c-.4-.8-1-1.1-1.8-1.1s-1.4.4-1.8 1.1-.6 1.8-.6 3 .2 2.3.6 3c.4.7 1 1.1 1.9 1.1zM305.8 25h4.9v8.1c0 .9.1 1.6.4 2.1.3.5.8.7 1.5.7.8 0 1.4-.3 1.8-.9.4-.6.6-1.6.6-2.9V25h4.9v14.8h-4.6v-2.2c-.4.8-.9 1.4-1.6 1.8s-1.6.7-2.8.7c-1.8 0-3.1-.5-3.9-1.5-.8-1-1.2-2.5-1.2-4.4V25zM322.2 28.2c.5-.2.9-.5 1.3-.7s.6-.5.8-.8c.2-.3.3-.6.4-.9.1-.3.1-.6.1-1v-.5h-2.5v-5.1h5.4v5.1c0 .9-.1 1.7-.3 2.3-.2.6-.4 1.2-.8 1.7s-.8.9-1.3 1.2c-.5.3-1.2.7-1.9.9l-1.2-2.2zM329.2 25h4.4l.3 2.7c.4-.9 1.1-1.6 1.9-2.2.8-.6 1.9-.9 3.2-.9v5c-.3-.1-.9-.1-1.5-.1-.4 0-.8 0-1.2.1-.4.1-.8.2-1.1.5-.3.3-.6.6-.8 1.2s-.3 1.2-.3 2.1v6.5h-4.9V25zM344.2 33.5c.2 1.1.5 1.9 1.1 2.4.6.5 1.2.7 1.9.7.6 0 1.2-.1 1.6-.4.5-.3.8-.7 1.2-1.2l3.6 2c-.7 1.1-1.7 1.9-2.8 2.5-1.2.5-2.4.8-3.8.8-1.3 0-2.4-.2-3.3-.6-1-.4-1.8-.9-2.4-1.6-.7-.7-1.2-1.5-1.5-2.5-.3-1-.5-2-.5-3.1s.2-2.2.5-3.1c.3-1 .8-1.8 1.5-2.5.6-.7 1.4-1.2 2.4-1.6.9-.4 2-.6 3.2-.6 1.1 0 2.2.2 3 .6.9.4 1.6.9 2.2 1.6.6.7 1.1 1.6 1.4 2.6.3 1 .5 2.1.5 3.3v.8h-9.8zm2.4-5.4c-1.4 0-2.2.9-2.4 2.7h4.8c0-.7-.2-1.4-.6-1.9-.4-.5-.9-.8-1.8-.8zM362.8 34.8c.2.2.5.4.8.7.3.2.7.4 1.1.6.4.2.8.3 1.2.4.4.1.9.2 1.3.2.3 0 .7-.1 1.1-.2.4-.1.5-.4.5-.7 0-.3-.2-.6-.6-.8-.4-.2-.9-.4-1.4-.6-.6-.2-1.2-.3-1.9-.5s-1.3-.5-1.9-.8c-.6-.3-1-.8-1.4-1.4-.4-.6-.6-1.3-.6-2.2 0-.8.2-1.6.5-2.2.3-.6.8-1.1 1.4-1.5.6-.4 1.2-.7 2-.9s1.5-.3 2.3-.3c1.3 0 2.5.2 3.5.5s1.9.7 2.7 1.3l-2.2 3.2c-.2-.2-.4-.3-.8-.5-.3-.2-.7-.3-1-.5s-.8-.3-1.2-.3-.8-.1-1.2-.1c-.3 0-.6.1-.8.2-.2.1-.3.3-.3.6s.2.6.6.8.9.4 1.4.6 1.2.4 1.9.6c.7.2 1.3.5 1.9.9.6.4 1 .8 1.4 1.4.4.6.6 1.3.6 2.1 0 .9-.2 1.6-.6 2.2-.4.6-.9 1.2-1.5 1.6-.6.4-1.3.7-2 .9-.8.2-1.5.3-2.2.3-2.8 0-5.1-.7-6.8-2.1l2.2-3.5zM383.9 39.7c-.1-.2-.2-.5-.3-.8-.1-.3-.1-.7-.2-.9-.3.6-.7 1.1-1.4 1.6-.6.5-1.5.7-2.7.7-.8 0-1.5-.1-2.1-.4-.6-.2-1.1-.6-1.5-1-.4-.4-.7-.9-.9-1.5-.2-.6-.3-1.2-.3-1.9 0-.8.1-1.4.4-2s.6-1 1.1-1.4 1.1-.7 1.8-.9c.7-.2 1.5-.4 2.3-.6l3-.5v-.3c0-.6-.2-1-.5-1.2-.3-.2-.8-.3-1.3-.3-.9 0-1.7.2-2.3.5-.6.3-1.2.7-1.7 1.2l-2.3-3.2c.3-.3.7-.5 1.1-.8.5-.3 1-.5 1.6-.7.6-.2 1.2-.4 1.9-.5.7-.1 1.5-.2 2.3-.2 2.2 0 3.7.5 4.7 1.4.9.9 1.4 2.3 1.4 4.2v6.7c0 .4 0 .8.1 1.1 0 .3.1.6.2.9.1.3.2.5.3.8h-4.7zm-.7-6.5l-2 .4c-.7.1-1.2.3-1.5.6-.3.3-.5.6-.5 1.1 0 .4.1.8.4 1.1.3.3.6.4 1.1.4.7 0 1.3-.3 1.7-.8s.7-1.3.7-2.3v-.5zM388.5 25h5.5l2.4 10.2 2.3-10.2h5.2L399 39.8h-5.7L388.5 25zM404.8 19.1h4.9V23h-4.9v-3.9zm0 5.9h4.9v14.8h-4.9V25zM412 25h4.4l.4 2.1c.4-.7 1.1-1.3 1.9-1.8.8-.5 1.7-.7 2.7-.7 3.2 0 4.9 2.1 4.9 6.2v9h-4.9V32c0-1.2-.2-2-.5-2.5s-.9-.7-1.6-.7c-.3 0-.7.1-1 .2-.3.1-.5.3-.8.7s-.4.7-.5 1.2c-.1.5-.2 1.1-.2 1.9v7H412V25zM430.2 39.7c.6.6 1.3 1 2.1 1.3.8.3 1.7.5 2.6.5.9 0 1.6-.2 1.9-.6.3-.4.5-1 .5-1.8v-1.4c-.3.5-.8.9-1.4 1.3-.6.3-1.4.5-2.4.5-.7 0-1.4-.1-2.1-.4-.7-.2-1.3-.6-1.8-1.2s-1-1.3-1.3-2.2c-.3-.9-.5-2.1-.5-3.4 0-1.2.1-2.3.4-3.3s.7-1.7 1.2-2.4 1.1-1.2 1.9-1.5c.7-.3 1.5-.5 2.4-.5.9 0 1.7.2 2.4.6.7.4 1.2 1 1.7 1.8l.6-2h3.9v14c0 .9-.1 1.7-.4 2.5-.3.8-.7 1.4-1.3 2-.6.6-1.3 1-2.2 1.3-.9.3-2 .5-3.3.5-.9 0-1.7-.1-2.4-.2s-1.4-.3-2-.5c-.6-.2-1.2-.4-1.7-.7-.5-.3-.9-.5-1.3-.7l2.5-3.5zm7.1-7.5c0-.5 0-.9-.1-1.3l-.3-1.2c-.2-.3-.4-.6-.7-.8-.3-.2-.6-.3-1.1-.3-.3 0-.6.1-.9.2s-.5.3-.7.6c-.2.3-.4.7-.5 1.1-.1.5-.2 1-.2 1.7 0 1.2.2 2.1.6 2.7s1 .9 1.7.9 1.3-.3 1.6-.9.5-1.4.5-2.5v-.2zM444.2 34.4h5.4v5.4h-5.4v-5.4z"/><g><path class="copy-purpleFill" d="M201.6 50.4h9.5c.9 0 1.7.1 2.5.3.8.2 1.6.5 2.2 1 .6.5 1.2 1 1.6 1.7.4.7.6 1.6.6 2.5 0 .5-.1 1-.3 1.5-.2.5-.4.9-.8 1.4-.3.4-.7.8-1.2 1.1-.5.3-1 .5-1.5.6 1.4.3 2.5.8 3.3 1.6.8.8 1.2 1.9 1.2 3.3 0 1.1-.2 2.1-.6 2.8-.4.7-.9 1.3-1.6 1.7s-1.4.7-2.3.8c-.9.1-1.7.2-2.7.2h-10V50.4zm8 8.2c1.1 0 1.9-.2 2.3-.5.4-.4.6-.9.6-1.7 0-.6-.2-1.1-.6-1.5s-1-.5-1.9-.5h-3.1v4.2h2.7zm1.1 8.3c.5 0 .9-.1 1.2-.2.3-.1.6-.3.8-.5.2-.2.3-.4.4-.7s.1-.6.1-.8c0-.7-.2-1.2-.7-1.6-.5-.4-1.1-.6-2.1-.6h-3.5v4.4h3.8zM220.2 56.1h4.9v8.1c0 .9.1 1.6.4 2.1s.8.7 1.5.7c.8 0 1.4-.3 1.8-.9.4-.6.6-1.6.6-2.9v-7.1h4.9v14.8h-4.6v-2.2c-.4.8-.9 1.4-1.6 1.8-.7.5-1.6.7-2.8.7-1.8 0-3.1-.5-3.9-1.5-.8-1-1.2-2.5-1.2-4.4v-9.2zM237.8 59.2h-2.3v-3.1h.4c.8 0 1.3-.1 1.8-.4s.8-.6 1-1c.2-.4.4-.9.5-1.4.1-.5.2-1 .4-1.6h3.1v4.4h3v3.1h-3V66c0 .4.1.8.3 1.1.2.3.6.4 1.1.4h.6c.2 0 .5-.1.8-.2l.3 3.4c-.5.2-1.1.4-1.6.5-.5.1-1.1.1-1.7.1-.9 0-1.7-.1-2.3-.3-.6-.2-1.1-.6-1.4-1-.3-.4-.6-.9-.7-1.5s-.2-1.2-.2-1.9v-7.4zM252.8 56.1h4.4l.4 2.1c.4-.7 1.1-1.3 1.9-1.8s1.7-.7 2.7-.7c3.2 0 4.9 2.1 4.9 6.2v9h-4.9v-7.8c0-1.2-.2-2-.5-2.5s-.9-.7-1.6-.7c-.3 0-.7.1-1 .2s-.5.3-.8.7c-.2.3-.4.7-.5 1.2-.1.5-.2 1.1-.2 1.9v7h-4.9V56.1zM276 71.3c-1.3 0-2.4-.2-3.3-.6-.9-.4-1.7-.9-2.3-1.6-.6-.7-1.1-1.5-1.4-2.5-.3-.9-.5-2-.5-3.1s.2-2.2.5-3.1.8-1.8 1.4-2.5 1.4-1.3 2.3-1.7c.9-.4 2-.6 3.2-.6 1.2 0 2.3.2 3.2.6.9.4 1.7.9 2.3 1.6s1.1 1.5 1.4 2.5c.3 1 .5 2 .5 3.1s-.2 2.2-.5 3.1c-.3.9-.8 1.8-1.4 2.5-.6.7-1.4 1.2-2.3 1.6-.8.5-1.9.7-3.1.7zm.1-3.7c.8 0 1.4-.4 1.8-1.1.4-.7.5-1.7.5-3s-.2-2.3-.6-3c-.4-.8-1-1.1-1.8-1.1s-1.4.4-1.8 1.1c-.4.8-.6 1.8-.6 3s.2 2.3.6 3c.4.7 1 1.1 1.9 1.1zM285.9 59.2h-2.3v-3.1h.4c.8 0 1.3-.1 1.8-.4s.8-.6 1-1c.2-.4.4-.9.5-1.4.1-.5.2-1 .4-1.6h3.1v4.4h3v3.1h-3V66c0 .4.1.8.3 1.1.2.3.6.4 1.1.4h.6c.2 0 .5-.1.8-.2l.3 3.4c-.5.2-1.1.4-1.6.5-.5.1-1.1.1-1.7.1-.9 0-1.7-.1-2.3-.3-.6-.2-1.1-.6-1.4-1-.3-.4-.6-.9-.7-1.5s-.2-1.2-.2-1.9v-7.4zM309.8 69.5c-.3.6-.8 1-1.4 1.3-.6.3-1.3.5-2.2.5-.8 0-1.5-.1-2.2-.4s-1.3-.7-1.9-1.3c-.6-.6-1-1.4-1.3-2.4-.3-1-.5-2.2-.5-3.6 0-2.6.5-4.5 1.6-5.8 1.1-1.3 2.5-2 4.3-2 .9 0 1.6.2 2.3.5.7.3 1.3 1 1.7 1.9l.7-2h3.8V76h-4.9v-6.5zm0-6.1c0-1.2-.2-2.1-.6-2.8-.4-.7-.9-1-1.7-1-.8 0-1.4.3-1.7 1-.3.7-.5 1.6-.5 2.7 0 1.4.2 2.3.6 3 .4.6 1 .9 1.7.9s1.2-.3 1.6-.9c.4-.6.6-1.5.6-2.7v-.2zM316.9 56.1h4.9v8.1c0 .9.1 1.6.4 2.1s.8.7 1.5.7c.8 0 1.4-.3 1.8-.9.4-.6.6-1.6.6-2.9v-7.1h4.9v14.8h-4.6v-2.2c-.4.8-.9 1.4-1.6 1.8-.7.5-1.6.7-2.8.7-1.8 0-3.1-.5-3.9-1.5-.8-1-1.2-2.5-1.2-4.4v-9.2zM333.3 50.2h4.9v3.9h-4.9v-3.9zm0 5.9h4.9v14.8h-4.9V56.1zM341.6 59.2h-2.3v-3.1h.4c.8 0 1.3-.1 1.8-.4s.8-.6 1-1c.2-.4.4-.9.5-1.4.1-.5.2-1 .4-1.6h3.1v4.4h3v3.1h-3V66c0 .4.1.8.3 1.1.2.3.6.4 1.1.4h.6c.2 0 .5-.1.8-.2l.3 3.4c-.5.2-1.1.4-1.6.5-.5.1-1.1.1-1.7.1-.9 0-1.7-.1-2.3-.3-.6-.2-1.1-.6-1.4-1-.3-.4-.6-.9-.7-1.5s-.2-1.2-.2-1.9v-7.4zM354.8 64.6c.2 1.1.5 1.9 1.1 2.4.6.5 1.2.7 1.9.7.6 0 1.2-.1 1.6-.4.5-.3.8-.7 1.2-1.2l3.6 2c-.7 1.1-1.7 1.9-2.8 2.5-1.2.5-2.4.8-3.8.8-1.3 0-2.4-.2-3.3-.6-1-.4-1.8-.9-2.4-1.6-.7-.7-1.2-1.5-1.5-2.5-.3-1-.5-2-.5-3.1s.2-2.2.5-3.1.8-1.8 1.5-2.5c.6-.7 1.4-1.2 2.4-1.6.9-.4 2-.6 3.2-.6 1.1 0 2.2.2 3 .6.9.4 1.6.9 2.2 1.6.6.7 1.1 1.6 1.4 2.6.3 1 .5 2.1.5 3.3v.8h-9.8zm2.4-5.4c-1.4 0-2.2.9-2.4 2.7h4.8c0-.7-.2-1.4-.6-1.9-.4-.5-1-.8-1.8-.8zM376.4 64.6c.2 1.1.5 1.9 1.1 2.4.6.5 1.2.7 1.9.7.6 0 1.2-.1 1.6-.4.5-.3.8-.7 1.2-1.2l3.6 2c-.7 1.1-1.7 1.9-2.8 2.5-1.2.5-2.4.8-3.8.8-1.3 0-2.4-.2-3.3-.6-1-.4-1.8-.9-2.4-1.6-.7-.7-1.2-1.5-1.5-2.5-.3-1-.5-2-.5-3.1s.2-2.2.5-3.1.8-1.8 1.5-2.5 1.4-1.2 2.4-1.6c.9-.4 2-.6 3.2-.6 1.1 0 2.2.2 3 .6.9.4 1.6.9 2.2 1.6.6.7 1.1 1.6 1.4 2.6.3 1 .5 2.1.5 3.3v.8h-9.8zm2.4-5.4c-1.4 0-2.2.9-2.4 2.7h4.8c0-.7-.2-1.4-.6-1.9-.4-.5-1-.8-1.8-.8zM387.7 56.1h4.4l.4 2.1c.4-.7 1.1-1.3 1.9-1.8.8-.5 1.7-.7 2.7-.7 3.2 0 4.9 2.1 4.9 6.2v9h-4.9v-7.8c0-1.2-.2-2-.5-2.5s-.9-.7-1.6-.7c-.3 0-.7.1-1 .2s-.5.3-.8.7-.4.7-.5 1.2-.2 1.1-.2 1.9v7h-4.9V56.1zM410.9 71.3c-1.3 0-2.4-.2-3.3-.6-.9-.4-1.7-.9-2.3-1.6-.6-.7-1.1-1.5-1.4-2.5-.3-.9-.5-2-.5-3.1s.2-2.2.5-3.1.8-1.8 1.4-2.5 1.4-1.3 2.3-1.7c.9-.4 2-.6 3.2-.6s2.3.2 3.2.6c.9.4 1.7.9 2.3 1.6.6.7 1.1 1.5 1.4 2.5s.5 2 .5 3.1-.2 2.2-.5 3.1c-.3.9-.8 1.8-1.4 2.5-.6.7-1.4 1.2-2.3 1.6-.8.5-1.9.7-3.1.7zm.1-3.7c.8 0 1.4-.4 1.8-1.1.4-.7.5-1.7.5-3s-.2-2.3-.6-3c-.4-.8-1-1.1-1.8-1.1s-1.4.4-1.8 1.1c-.4.8-.6 1.8-.6 3s.2 2.3.6 3c.4.7 1 1.1 1.9 1.1zM419.9 56.1h4.9v8.1c0 .9.1 1.6.4 2.1s.8.7 1.5.7c.8 0 1.4-.3 1.8-.9.4-.6.6-1.6.6-2.9v-7.1h4.9v14.8h-4.6v-2.2c-.4.8-.9 1.4-1.6 1.8-.7.5-1.6.7-2.8.7-1.8 0-3.1-.5-3.9-1.5-.8-1-1.2-2.5-1.2-4.4v-9.2zM438.1 70.8c.6.6 1.3 1 2.1 1.3.8.3 1.7.5 2.6.5.9 0 1.6-.2 1.9-.6.3-.4.5-1 .5-1.8v-1.4c-.3.5-.8.9-1.4 1.3-.6.3-1.4.5-2.4.5-.7 0-1.4-.1-2.1-.4-.7-.2-1.3-.6-1.8-1.2s-1-1.3-1.3-2.2c-.3-.9-.5-2.1-.5-3.4 0-1.2.1-2.3.4-3.3.3-.9.7-1.7 1.2-2.4s1.1-1.2 1.9-1.5c.7-.3 1.5-.5 2.4-.5.9 0 1.7.2 2.4.6s1.2 1 1.7 1.8l.6-2h3.9v14c0 .9-.1 1.7-.4 2.5-.3.8-.7 1.4-1.3 2s-1.3 1-2.2 1.3-2 .5-3.3.5c-.9 0-1.7-.1-2.4-.2s-1.4-.3-2-.5c-.6-.2-1.2-.4-1.7-.7-.5-.3-.9-.5-1.3-.7l2.5-3.5zm7.1-7.4c0-.5 0-.9-.1-1.3l-.3-1.2c-.1-.4-.4-.6-.7-.8-.3-.2-.6-.3-1.1-.3-.3 0-.6.1-.9.2s-.5.3-.7.6c-.2.3-.4.7-.5 1.1-.1.5-.2 1-.2 1.7 0 1.2.2 2.1.6 2.7s1 .9 1.7.9 1.3-.3 1.6-.9.5-1.4.5-2.5v-.2zM452.4 50.4h4.9V58c.4-.7.9-1.2 1.7-1.7.7-.5 1.7-.7 2.8-.7 1.7 0 2.9.5 3.7 1.6.8 1.1 1.2 2.6 1.2 4.7v8.9h-4.9v-8c0-.9-.2-1.6-.5-2.2-.3-.5-.9-.8-1.6-.8-.7 0-1.3.3-1.7.9-.4.6-.7 1.5-.7 2.9v7.2h-4.9V50.4zM468.8 65.5h5.4v5.4h-5.4v-5.4z"/></g></svg>