<svg version="1.1" id="Layer_1" xmlns="http://www.w3.org/2000/svg" x="0" y="0" viewBox="0 0 67.3 8.8" xml:space="preserve"><style>.st0{fill:#fff}</style><g id="cta-top_1_"><path class="st0" d="M1.4 6.1l.3.3c.2.1.3.2.5.3s.4.2.6.2c.3.1.6.1.8.1.4 0 .7 0 .9-.1.2-.1.3-.3.3-.5s0-.3-.1-.4-.3-.2-.4-.3-.5-.2-.7-.2c-.3-.1-.6-.2-.9-.2-.9-.3-1.5-.6-1.8-1S.3 3.4.3 2.7c0-.4.1-.7.2-1s.4-.6.6-.9c.3-.3.6-.5 1.1-.6.4-.1.9-.2 1.5-.2S5 .1 5.6.3c.6.2 1.1.6 1.5 1L5.6 2.7c-.2-.3-.5-.5-.9-.7-.3-.1-.7-.2-1.1-.2-.2 0-.4 0-.5.1-.2 0-.3 0-.4.1 0 .1-.1.1-.1.2v.2c0 .2.1.4.3.5.1.2.5.4 1.1.5.6.2 1.1.3 1.5.5.4.2.7.4.9.6.2.2.4.5.5.7s.1.6.1.9c0 .4-.1.8-.3 1.2-.1.3-.4.6-.7.8-.3.3-.7.4-1.1.5-.4.2-.9.2-1.3.2s-.9 0-1.2-.1c-.4-.1-.8-.2-1.1-.3C1 8.3.8 8.2.5 8c-.2-.1-.4-.3-.5-.5l1.4-1.4zM10.5.2h1.9l3.3 8.5h-2.3L12.8 7H10l-.6 1.6H7.2L10.5.2zm1.8 5.1c-.1-.4-.3-.9-.4-1.3-.1-.4-.3-.9-.4-1.4-.2.6-.3 1-.5 1.4s-.3.8-.4 1.3h1.7zM14.7.2H17c.2.5.4 1.1.6 1.7.2.6.4 1.1.6 1.6s.3 1 .5 1.5.3.9.4 1.3c.1-.4.2-.8.4-1.3.1-.5.3-1 .5-1.5s.4-1 .6-1.6.4-1.1.6-1.6h2.2l-3.3 8.5H18L14.7.2zM23.9.2h6v1.6H26v1.6h2.6V5H26v2h4v1.6h-6.1V.2zM33.8.2h2.5c.1.2.2.5.3.8.1.3.2.6.4.9.1.3.2.6.4.9s.2.6.3.8c.1.3.2.5.2.7.1.3.1.4.2.5 0-.1.1-.3.1-.5.1-.2.2-.4.3-.7.1-.3.2-.5.3-.8.1-.3.2-.6.4-.9.1-.3.2-.6.4-.9.1-.3.2-.6.3-.8h2.4v8.5h-2V7.2 5.6 4.2v-1c-.1.2-.2.6-.4 1s-.3.9-.6 1.4c-.2.5-.4 1-.7 1.5L38 8.6h-.2c-.2-.5-.4-1-.7-1.6-.2-.5-.4-1-.7-1.5-.2-.5-.4-.9-.5-1.3-.2-.4-.3-.7-.3-.9v5.5h-2V.2zM47.6 8.8c-.6 0-1.1-.1-1.6-.3-.5-.2-1-.4-1.4-.8-.4-.4-.7-.8-.9-1.4s-.3-1.2-.3-2 .1-1.4.3-2 .5-1 .9-1.4c.4-.4.9-.6 1.4-.8.4 0 1-.1 1.6-.1.6 0 1.1.1 1.6.3.5.2 1 .4 1.4.8.4.4.7.8.9 1.4s.4 1.2.4 2-.1 1.4-.4 2-.6 1-1 1.4-.9.6-1.4.8c-.4 0-1 .1-1.5.1zm0-1.8c.3 0 .5 0 .8-.1.2-.1.5-.2.6-.5.2-.2.3-.5.4-.8s.1-.7.1-1.1c0-.8-.2-1.5-.6-1.9-.4-.4-.9-.7-1.5-.7s-1.1.2-1.4.7c-.4.4-.5 1.1-.5 1.9 0 .4.1.8.2 1.1.1.3.3.6.4.8.2.2.4.4.6.5.4 0 .6.1.9.1zM52.9.2h3.5c.4 0 .9 0 1.3.1s.8.2 1.1.4c.3.2.6.5.8.8.2.3.3.8.3 1.3 0 .4-.1.7-.2.9-.1.3-.3.5-.5.6-.2.2-.4.3-.7.4-.3.2-.5.3-.8.4.2 0 .4.1.6.2.2.1.3.3.5.5l1.6 2.8h-2.5l-1-2c-.1-.2-.2-.3-.3-.4-.1-.1-.2-.2-.3-.2s-.2-.2-.3-.2h-1v2.8h-2.2V.2zm3.3 3.9h.4c.2-.1.4-.1.5-.2.1-.1.2-.2.3-.4.1-.2.1-.4.1-.6 0-.2 0-.4-.1-.6-.1-.1-.2-.3-.3-.3-.1-.1-.3-.1-.4-.2s-.3 0-.4 0H55v2.3h1.2zM61.2.2h6v1.6h-3.9v1.6H66V5h-2.6v2h4v1.6h-6.1V.2z"/></g></svg>