<?xml version="1.0" encoding="utf-8"?>
<!-- Generator: Adobe Illustrator 22.1.0, SVG Export Plug-In . SVG Version: 6.00 Build 0)  -->
<svg version="1.1" id="Layer_1" xmlns="https://www.w3.org/2000/svg" xmlns:xlink="https://www.w3.org/1999/xlink" x="0px" y="0px"
	 viewBox="0 0 300 250" style="enable-background:new 0 0 300 250;" xml:space="preserve">
<style type="text/css">
	.copy-purpleFill{fill:#662868;}
</style>
<g>
	<path class="copy-purpleFill" d="M23.7,63.8h4.1V74c0,1,0.2,1.7,0.7,2.1c0.5,0.4,1.1,0.6,1.9,0.6c0.8,0,1.5-0.2,1.9-0.6s0.7-1.1,0.7-2.1V63.8
		h4.1v10.5c0,0.4,0,0.8-0.1,1.2c0,0.4-0.1,0.9-0.3,1.3c-0.2,0.4-0.4,0.9-0.7,1.3c-0.3,0.4-0.7,0.8-1.2,1.1c-0.5,0.3-1.1,0.6-1.9,0.8
		c-0.7,0.2-1.6,0.3-2.6,0.3s-1.9-0.1-2.6-0.3c-0.7-0.2-1.3-0.5-1.8-0.8c-0.5-0.3-0.9-0.7-1.2-1.1s-0.5-0.9-0.7-1.3
		c-0.2-0.5-0.3-0.9-0.3-1.3c0-0.4-0.1-0.8-0.1-1.2V63.8z"/>
	<path class="copy-purpleFill" d="M39.2,68.3H43v1.5c0.3-0.5,0.6-1,1.2-1.3c0.5-0.4,1.2-0.5,2-0.5c1.3,0,2.4,0.5,3.2,1.5c0.8,1,1.2,2.5,1.2,4.6
		c0,1.2-0.1,2.2-0.4,3c-0.3,0.8-0.7,1.4-1.1,1.9c-0.4,0.5-0.9,0.8-1.5,1c-0.6,0.2-1.1,0.3-1.6,0.3c-0.6,0-1.2-0.1-1.7-0.3
		c-0.6-0.2-1-0.5-1.2-1V84h-3.9V68.3z M43,74.3c0,0.4,0,0.8,0.1,1.1c0.1,0.4,0.2,0.7,0.3,0.9c0.2,0.3,0.3,0.5,0.6,0.6
		c0.2,0.2,0.5,0.2,0.8,0.2c0.5,0,1-0.2,1.3-0.7c0.3-0.5,0.5-1.3,0.5-2.3c0-1-0.2-1.8-0.5-2.3c-0.3-0.5-0.8-0.8-1.4-0.8
		c-0.3,0-0.6,0.1-0.8,0.2c-0.2,0.2-0.4,0.4-0.5,0.6c-0.1,0.3-0.2,0.6-0.3,0.9C43.1,73.3,43,73.6,43,74V74.3z"/>
	<path class="copy-purpleFill" d="M53.3,80c0.4,0.4,1,0.8,1.7,1.1c0.7,0.3,1.3,0.4,2,0.4c0.7,0,1.2-0.2,1.5-0.5s0.4-0.8,0.4-1.4v-1.1
		c-0.3,0.4-0.6,0.7-1.1,1c-0.5,0.3-1.1,0.4-1.9,0.4c-0.6,0-1.1-0.1-1.6-0.3c-0.5-0.2-1-0.5-1.5-1s-0.8-1-1-1.8
		c-0.3-0.7-0.4-1.6-0.4-2.7c0-1,0.1-1.8,0.3-2.6c0.2-0.8,0.6-1.4,1-1.9c0.4-0.5,0.9-0.9,1.5-1.2c0.6-0.3,1.2-0.4,1.9-0.4
		c0.7,0,1.3,0.2,1.9,0.5c0.5,0.3,1,0.8,1.3,1.4l0.5-1.6h3.1v11.1c0,0.7-0.1,1.4-0.3,2c-0.2,0.6-0.5,1.1-1,1.6
		c-0.5,0.4-1.1,0.8-1.8,1c-0.7,0.2-1.6,0.4-2.6,0.4c-0.7,0-1.3,0-1.9-0.1c-0.6-0.1-1.1-0.2-1.6-0.4c-0.5-0.2-0.9-0.3-1.3-0.5
		c-0.4-0.2-0.7-0.4-1-0.6L53.3,80z M58.9,74.1c0-0.4,0-0.7-0.1-1.1s-0.1-0.7-0.3-0.9c-0.1-0.3-0.3-0.5-0.5-0.7
		c-0.2-0.2-0.5-0.3-0.9-0.3c-0.2,0-0.5,0-0.7,0.1c-0.2,0.1-0.4,0.3-0.6,0.5c-0.2,0.2-0.3,0.5-0.4,0.9s-0.1,0.8-0.1,1.4
		c0,1,0.2,1.7,0.5,2.2c0.3,0.5,0.8,0.7,1.4,0.7s1-0.2,1.3-0.7c0.3-0.5,0.4-1.1,0.4-2V74.1z"/>
	<path class="copy-purpleFill" d="M64.6,68.3h3.5l0.3,2.2c0.4-0.7,0.8-1.3,1.5-1.8c0.6-0.5,1.5-0.7,2.6-0.7v3.9c-0.3-0.1-0.7-0.1-1.2-0.1
		c-0.3,0-0.6,0-0.9,0.1s-0.6,0.2-0.9,0.4c-0.3,0.2-0.5,0.5-0.7,0.9c-0.2,0.4-0.3,1-0.3,1.7V80h-3.9V68.3z"/>
	<path class="copy-purpleFill" d="M80,80c-0.1-0.2-0.2-0.4-0.2-0.7c-0.1-0.3-0.1-0.5-0.1-0.7c-0.2,0.5-0.6,0.9-1.1,1.2s-1.2,0.5-2.1,0.5
		c-0.6,0-1.2-0.1-1.7-0.3c-0.5-0.2-0.9-0.5-1.2-0.8c-0.3-0.3-0.6-0.7-0.7-1.2s-0.3-1-0.3-1.5c0-0.6,0.1-1.1,0.3-1.6
		c0.2-0.4,0.5-0.8,0.9-1.1c0.4-0.3,0.9-0.6,1.4-0.7c0.6-0.2,1.2-0.3,1.9-0.4l2.3-0.4v-0.3c0-0.5-0.1-0.8-0.4-1
		c-0.3-0.2-0.6-0.3-1.1-0.3c-0.7,0-1.3,0.1-1.8,0.4c-0.5,0.3-1,0.6-1.4,0.9l-1.8-2.6c0.2-0.2,0.5-0.4,0.9-0.6
		c0.4-0.2,0.8-0.4,1.2-0.6c0.5-0.2,1-0.3,1.5-0.4s1.2-0.1,1.9-0.1c1.7,0,3,0.4,3.7,1.1c0.7,0.7,1.1,1.9,1.1,3.4v4.2
		c0,0.5,0,0.9,0,1.2c0,0.3,0,0.6,0.1,0.9c0,0.3,0.1,0.5,0.1,0.7c0.1,0.2,0.1,0.4,0.3,0.7H80z M79.4,74.8l-1.6,0.3
		c-0.5,0.1-0.9,0.3-1.2,0.5c-0.2,0.2-0.4,0.5-0.4,0.9c0,0.3,0.1,0.6,0.3,0.8c0.2,0.2,0.5,0.3,0.9,0.3c0.5,0,1-0.2,1.4-0.6
		c0.4-0.4,0.6-1,0.6-1.8V74.8z"/>
	<path class="copy-purpleFill" d="M92.1,78.4c-0.3,0.6-0.7,1.1-1.2,1.4s-1.1,0.5-1.9,0.5c-0.7,0-1.3-0.1-1.9-0.4c-0.6-0.3-1.1-0.7-1.5-1.2
		c-0.4-0.5-0.7-1.2-1-1.9c-0.2-0.8-0.3-1.7-0.3-2.7c0-1.1,0.1-2.1,0.4-2.9c0.3-0.8,0.6-1.4,1.1-1.9c0.4-0.5,0.9-0.8,1.5-1
		c0.6-0.2,1.1-0.3,1.7-0.3c0.7,0,1.3,0.1,1.8,0.4c0.5,0.3,0.9,0.6,1.1,1v-5.7h3.9V80h-3.7V78.4z M91.9,73.9c0-0.4,0-0.7-0.1-1.1
		c-0.1-0.3-0.2-0.6-0.3-0.9c-0.1-0.3-0.3-0.5-0.5-0.6c-0.2-0.2-0.5-0.2-0.8-0.2c-0.6,0-1,0.2-1.3,0.7c-0.3,0.5-0.4,1.2-0.4,2.1
		c0,1,0.2,1.8,0.5,2.3c0.3,0.6,0.8,0.8,1.3,0.8c0.3,0,0.6-0.1,0.8-0.2c0.2-0.2,0.4-0.4,0.5-0.7c0.1-0.3,0.2-0.6,0.3-1
		c0.1-0.4,0.1-0.8,0.1-1.2V73.9z"/>
	<path class="copy-purpleFill" d="M101,75.1c0.1,0.9,0.4,1.5,0.9,1.9c0.4,0.4,0.9,0.5,1.5,0.5c0.5,0,0.9-0.1,1.3-0.3s0.7-0.5,0.9-1l2.8,1.6
		c-0.6,0.9-1.3,1.5-2.3,2c-0.9,0.4-1.9,0.6-3,0.6c-1,0-1.9-0.2-2.6-0.5c-0.8-0.3-1.4-0.7-1.9-1.3c-0.5-0.6-0.9-1.2-1.2-2
		S97,75.1,97,74.2c0-0.9,0.1-1.7,0.4-2.5c0.3-0.8,0.7-1.4,1.2-2c0.5-0.6,1.1-1,1.9-1.3s1.6-0.5,2.5-0.5c0.9,0,1.7,0.2,2.4,0.5
		c0.7,0.3,1.3,0.7,1.8,1.3c0.5,0.6,0.9,1.2,1.1,2s0.4,1.7,0.4,2.7c0,0.2,0,0.4,0,0.5c0,0.1,0,0.2,0,0.2H101z M102.9,70.8
		c-1.1,0-1.7,0.7-1.9,2.1h3.8c0-0.6-0.1-1.1-0.4-1.5C104,71,103.6,70.8,102.9,70.8z"/>
	<path class="copy-purpleFill" d="M114.9,81.2c0.3,0.1,0.6,0.2,0.9,0.2c0.3,0.1,0.6,0.1,0.8,0.1c0.4,0,0.6-0.1,0.8-0.2c0.2-0.2,0.3-0.4,0.4-0.8
		l-4.2-12.1h4.2l2,7.9l2-7.9h4.2l-4.1,11.6c-0.2,0.6-0.5,1.2-0.7,1.8c-0.2,0.5-0.5,1-0.9,1.4s-0.8,0.7-1.4,0.9s-1.3,0.3-2.2,0.3
		c-0.1,0-0.3,0-0.5,0c-0.2,0-0.4,0-0.6,0c-0.2,0-0.4,0-0.6-0.1c-0.2,0-0.4-0.1-0.5-0.1L114.9,81.2z"/>
	<path class="copy-purpleFill" d="M131.7,80.4c-1,0-1.9-0.2-2.6-0.5c-0.7-0.3-1.4-0.7-1.9-1.3c-0.5-0.6-0.9-1.2-1.1-2c-0.2-0.8-0.4-1.6-0.4-2.5
		s0.1-1.7,0.4-2.5c0.3-0.8,0.6-1.4,1.1-2c0.5-0.6,1.1-1,1.8-1.3c0.7-0.3,1.6-0.5,2.6-0.5c1,0,1.8,0.2,2.6,0.5s1.4,0.7,1.9,1.3
		c0.5,0.6,0.9,1.2,1.1,2c0.3,0.8,0.4,1.6,0.4,2.5s-0.1,1.7-0.4,2.5c-0.3,0.8-0.6,1.4-1.1,2c-0.5,0.6-1.1,1-1.9,1.3
		C133.5,80.2,132.7,80.4,131.7,80.4z M131.8,77.4c0.6,0,1.1-0.3,1.4-0.9c0.3-0.6,0.4-1.4,0.4-2.4s-0.2-1.8-0.5-2.4
		c-0.3-0.6-0.8-0.9-1.4-0.9s-1.1,0.3-1.4,0.9c-0.3,0.6-0.5,1.4-0.5,2.4s0.2,1.8,0.5,2.4C130.6,77.1,131.1,77.4,131.8,77.4z"/>
	<path class="copy-purpleFill" d="M138.8,68.3h3.9v6.4c0,0.7,0.1,1.3,0.3,1.7c0.2,0.4,0.6,0.6,1.2,0.6c0.6,0,1.1-0.2,1.4-0.7
		c0.3-0.5,0.5-1.2,0.5-2.3v-5.7h3.9V80h-3.6v-1.7c-0.3,0.6-0.7,1.1-1.3,1.5s-1.3,0.5-2.2,0.5c-1.4,0-2.4-0.4-3.1-1.2s-1-2-1-3.5
		V68.3z"/>
	<path class="copy-purpleFill" d="M151.8,68.3h3.5l0.3,2.2c0.4-0.7,0.8-1.3,1.5-1.8c0.6-0.5,1.5-0.7,2.6-0.7v3.9c-0.3-0.1-0.7-0.1-1.2-0.1
		c-0.3,0-0.6,0-0.9,0.1c-0.3,0.1-0.6,0.2-0.9,0.4c-0.3,0.2-0.5,0.5-0.7,0.9c-0.2,0.4-0.3,1-0.3,1.7V80h-3.9V68.3z"/>
</g>
<g>
	<path class="copy-purpleFill" d="M24.5,100.2c0.2,0.2,0.4,0.3,0.7,0.5s0.5,0.3,0.9,0.5c0.3,0.1,0.6,0.2,1,0.3c0.3,0.1,0.7,0.1,1,0.1
		c0.3,0,0.6,0,0.8-0.1c0.3-0.1,0.4-0.3,0.4-0.6c0-0.3-0.2-0.5-0.5-0.7c-0.3-0.2-0.7-0.3-1.1-0.4c-0.5-0.1-0.9-0.3-1.5-0.4
		s-1-0.4-1.5-0.6c-0.5-0.3-0.8-0.6-1.1-1.1s-0.5-1-0.5-1.8c0-0.7,0.1-1.2,0.4-1.7s0.6-0.9,1.1-1.2c0.5-0.3,1-0.5,1.6-0.7
		c0.6-0.2,1.2-0.2,1.9-0.2c1.1,0,2,0.1,2.8,0.4c0.8,0.2,1.5,0.6,2.2,1L31.3,96c-0.2-0.1-0.4-0.3-0.6-0.4c-0.2-0.1-0.5-0.3-0.8-0.4
		c-0.3-0.1-0.6-0.2-0.9-0.3c-0.3-0.1-0.6-0.1-1-0.1c-0.3,0-0.5,0-0.6,0.1c-0.2,0.1-0.3,0.2-0.3,0.5c0,0.3,0.2,0.5,0.5,0.6
		c0.3,0.2,0.7,0.3,1.1,0.4c0.5,0.1,0.9,0.3,1.5,0.5c0.5,0.2,1,0.4,1.5,0.7c0.5,0.3,0.8,0.6,1.1,1.1c0.3,0.4,0.5,1,0.5,1.7
		c0,0.7-0.1,1.3-0.4,1.8s-0.7,0.9-1.2,1.3c-0.5,0.3-1,0.6-1.6,0.7c-0.6,0.2-1.2,0.2-1.8,0.2c-2.2,0-4-0.6-5.4-1.7L24.5,100.2z"/>
	<path class="copy-purpleFill" d="M41.3,104.1c-0.1-0.2-0.2-0.4-0.2-0.7c-0.1-0.3-0.1-0.5-0.1-0.7c-0.2,0.5-0.6,0.9-1.1,1.2s-1.2,0.5-2.1,0.5
		c-0.6,0-1.2-0.1-1.7-0.3c-0.5-0.2-0.9-0.5-1.2-0.8c-0.3-0.3-0.6-0.7-0.7-1.2s-0.3-1-0.3-1.5c0-0.6,0.1-1.1,0.3-1.6
		c0.2-0.4,0.5-0.8,0.9-1.1c0.4-0.3,0.9-0.6,1.4-0.7c0.6-0.2,1.2-0.3,1.9-0.4l2.3-0.4v-0.3c0-0.5-0.1-0.8-0.4-1
		C40,95.1,39.7,95,39.2,95c-0.7,0-1.3,0.1-1.8,0.4c-0.5,0.3-1,0.6-1.4,0.9l-1.8-2.6c0.2-0.2,0.5-0.4,0.9-0.6
		c0.4-0.2,0.8-0.4,1.2-0.6c0.5-0.2,1-0.3,1.5-0.4s1.2-0.1,1.9-0.1c1.7,0,3,0.4,3.7,1.1c0.7,0.7,1.1,1.9,1.1,3.4v4.2
		c0,0.5,0,0.9,0,1.2c0,0.3,0,0.6,0.1,0.9c0,0.3,0.1,0.5,0.1,0.7c0.1,0.2,0.1,0.4,0.3,0.7H41.3z M40.7,98.9l-1.6,0.3
		c-0.5,0.1-0.9,0.3-1.2,0.5c-0.2,0.2-0.4,0.5-0.4,0.9c0,0.3,0.1,0.6,0.3,0.8c0.2,0.2,0.5,0.3,0.9,0.3c0.5,0,1-0.2,1.4-0.6
		c0.4-0.4,0.6-1,0.6-1.8V98.9z"/>
	<path class="copy-purpleFill" d="M44.9,92.4h4.3l1.9,8.1l1.9-8.1h4.1l-3.9,11.7h-4.5L44.9,92.4z"/>
	<path class="copy-purpleFill" d="M57.8,87.8h3.9v3.1h-3.9V87.8z M57.8,92.4h3.9v11.7h-3.9V92.4z"/>
	<path class="copy-purpleFill" d="M63.5,92.4H67l0.3,1.6c0.4-0.6,0.9-1,1.5-1.4s1.4-0.6,2.2-0.6c2.6,0,3.9,1.6,3.9,4.9v7.1h-3.9v-6.2
		c0-0.9-0.1-1.6-0.4-1.9c-0.3-0.4-0.7-0.6-1.3-0.6c-0.3,0-0.5,0-0.8,0.1c-0.2,0.1-0.4,0.3-0.6,0.5c-0.2,0.2-0.3,0.6-0.4,1
		c-0.1,0.4-0.1,0.9-0.1,1.5v5.5h-3.9V92.4z"/>
	<path class="copy-purpleFill" d="M78,104c0.4,0.4,1,0.8,1.7,1.1c0.7,0.3,1.3,0.4,2,0.4c0.7,0,1.2-0.2,1.5-0.5s0.4-0.8,0.4-1.4v-1.1
		c-0.3,0.4-0.6,0.7-1.1,1c-0.5,0.3-1.1,0.4-1.9,0.4c-0.6,0-1.1-0.1-1.6-0.3c-0.5-0.2-1-0.5-1.5-1s-0.8-1-1-1.8
		c-0.3-0.7-0.4-1.6-0.4-2.7c0-1,0.1-1.8,0.3-2.6c0.2-0.8,0.6-1.4,1-1.9c0.4-0.5,0.9-0.9,1.5-1.2c0.6-0.3,1.2-0.4,1.9-0.4
		c0.7,0,1.3,0.2,1.9,0.5c0.5,0.3,1,0.8,1.3,1.4l0.5-1.6h3.1v11.1c0,0.7-0.1,1.4-0.3,2c-0.2,0.6-0.5,1.1-1,1.6
		c-0.5,0.4-1.1,0.8-1.8,1c-0.7,0.2-1.6,0.4-2.6,0.4c-0.7,0-1.3,0-1.9-0.1c-0.6-0.1-1.1-0.2-1.6-0.4c-0.5-0.2-0.9-0.3-1.3-0.5
		c-0.4-0.2-0.7-0.4-1-0.6L78,104z M83.6,98.2c0-0.4,0-0.7-0.1-1.1s-0.1-0.7-0.3-0.9c-0.1-0.3-0.3-0.5-0.5-0.7
		c-0.2-0.2-0.5-0.3-0.9-0.3c-0.2,0-0.5,0-0.7,0.1c-0.2,0.1-0.4,0.3-0.6,0.5c-0.2,0.2-0.3,0.5-0.4,0.9S80,97.6,80,98.2
		c0,1,0.2,1.7,0.5,2.2c0.3,0.5,0.8,0.7,1.4,0.7s1-0.2,1.3-0.7c0.3-0.5,0.4-1.1,0.4-2V98.2z"/>
	<path class="copy-purpleFill" d="M90.3,100.2c0.2,0.2,0.4,0.3,0.7,0.5s0.5,0.3,0.9,0.5c0.3,0.1,0.6,0.2,1,0.3c0.3,0.1,0.7,0.1,1,0.1
		c0.3,0,0.6,0,0.8-0.1c0.3-0.1,0.4-0.3,0.4-0.6c0-0.3-0.2-0.5-0.5-0.7c-0.3-0.2-0.7-0.3-1.1-0.4c-0.5-0.1-0.9-0.3-1.5-0.4
		s-1-0.4-1.5-0.6c-0.5-0.3-0.8-0.6-1.1-1.1s-0.5-1-0.5-1.8c0-0.7,0.1-1.2,0.4-1.7s0.6-0.9,1.1-1.2c0.5-0.3,1-0.5,1.6-0.7
		c0.6-0.2,1.2-0.2,1.9-0.2c1.1,0,2,0.1,2.8,0.4c0.8,0.2,1.5,0.6,2.2,1L97,96c-0.2-0.1-0.4-0.3-0.6-0.4c-0.2-0.1-0.5-0.3-0.8-0.4
		C95.3,95.1,95,95,94.7,95c-0.3-0.1-0.6-0.1-1-0.1c-0.3,0-0.5,0-0.6,0.1c-0.2,0.1-0.3,0.2-0.3,0.5c0,0.3,0.2,0.5,0.5,0.6
		c0.3,0.2,0.7,0.3,1.1,0.4c0.5,0.1,0.9,0.3,1.5,0.5c0.5,0.2,1,0.4,1.5,0.7c0.5,0.3,0.8,0.6,1.1,1.1c0.3,0.4,0.5,1,0.5,1.7
		c0,0.7-0.1,1.3-0.4,1.8s-0.7,0.9-1.2,1.3c-0.5,0.3-1,0.6-1.6,0.7c-0.6,0.2-1.2,0.2-1.8,0.2c-2.2,0-4-0.6-5.4-1.7L90.3,100.2z"/>
	<path class="copy-purpleFill" d="M103.8,92.4h4.2l1.7,8l1.5-8h4.1l1.5,8l1.7-8h4.1l-3.8,11.7h-4.1l-1.5-6.3l-1.5,6.3h-4.1L103.8,92.4z"/>
	<path class="copy-purpleFill" d="M123.3,87.8h3.9v3.1h-3.9V87.8z M123.3,92.4h3.9v11.7h-3.9V92.4z"/>
	<path class="copy-purpleFill" d="M129.9,94.9H128v-2.5h0.3c0.6,0,1.1-0.1,1.4-0.3c0.3-0.2,0.6-0.5,0.8-0.8c0.2-0.3,0.3-0.7,0.4-1.1
		c0.1-0.4,0.2-0.8,0.3-1.2h2.4v3.4h2.4v2.5h-2.4v5.4c0,0.4,0.1,0.6,0.2,0.9c0.1,0.2,0.4,0.3,0.9,0.3c0.1,0,0.3,0,0.5,0
		c0.2,0,0.4-0.1,0.6-0.2l0.3,2.7c-0.4,0.2-0.9,0.3-1.3,0.4c-0.4,0.1-0.9,0.1-1.3,0.1c-0.7,0-1.3-0.1-1.8-0.3
		c-0.5-0.2-0.9-0.4-1.1-0.8c-0.3-0.3-0.5-0.7-0.6-1.2c-0.1-0.5-0.2-0.9-0.2-1.5V94.9z"/>
	<path class="copy-purpleFill" d="M137,87.9h3.9v6.1c0.3-0.5,0.7-1,1.3-1.3c0.6-0.4,1.3-0.6,2.3-0.6c1.3,0,2.3,0.4,2.9,1.3s0.9,2.1,0.9,3.7v7.1
		h-3.9v-6.3c0-0.7-0.1-1.3-0.4-1.7c-0.3-0.4-0.7-0.6-1.3-0.6c-0.6,0-1,0.2-1.4,0.7c-0.4,0.5-0.5,1.2-0.5,2.3v5.7H137V87.9z"/>
</g>
<g>
	<path class="copy-purpleFill" d="M38.4,124.5c-0.8,1.4-1.8,2.4-3,3s-2.6,1-4.2,1c-1.4,0-2.6-0.2-3.6-0.6c-1-0.4-1.9-1-2.6-1.8
		c-0.7-0.8-1.2-1.6-1.6-2.7c-0.4-1-0.5-2.2-0.5-3.4c0-1.3,0.2-2.4,0.6-3.4s0.9-1.9,1.6-2.7c0.7-0.7,1.6-1.3,2.6-1.7
		c1-0.4,2.2-0.6,3.5-0.6c1.5,0,2.8,0.3,4,0.8c1.2,0.5,2.2,1.5,3.1,2.9l-4,2c-0.3-0.7-0.7-1.2-1.3-1.5c-0.6-0.4-1.2-0.5-1.9-0.5
		c-0.7,0-1.3,0.1-1.7,0.4c-0.5,0.3-0.9,0.6-1.2,1s-0.5,1-0.7,1.6c-0.2,0.6-0.2,1.2-0.2,1.9c0,0.7,0.1,1.3,0.3,1.9
		c0.2,0.6,0.4,1.1,0.7,1.6s0.7,0.8,1.2,1.1c0.5,0.3,1,0.4,1.7,0.4c0.7,0,1.3-0.2,1.9-0.6c0.6-0.4,1-1,1.4-1.9L38.4,124.5z"/>
	<path class="copy-purpleFill" d="M39.6,111.9h3.9v16.2h-3.9V111.9z"/>
	<path class="copy-purpleFill" d="M52.2,128.2c-0.1-0.2-0.2-0.4-0.2-0.7c-0.1-0.3-0.1-0.5-0.1-0.7c-0.2,0.5-0.6,0.9-1.1,1.2
		c-0.5,0.4-1.2,0.5-2.1,0.5c-0.6,0-1.2-0.1-1.7-0.3c-0.5-0.2-0.9-0.5-1.2-0.8c-0.3-0.3-0.6-0.7-0.7-1.2c-0.2-0.5-0.3-1-0.3-1.5
		c0-0.6,0.1-1.1,0.3-1.6c0.2-0.4,0.5-0.8,0.9-1.1c0.4-0.3,0.9-0.6,1.4-0.7c0.6-0.2,1.2-0.3,1.9-0.4l2.3-0.4v-0.3
		c0-0.5-0.1-0.8-0.4-1c-0.3-0.2-0.6-0.3-1.1-0.3c-0.7,0-1.3,0.1-1.8,0.4c-0.5,0.3-1,0.6-1.4,0.9l-1.8-2.6c0.2-0.2,0.5-0.4,0.9-0.6
		c0.4-0.2,0.8-0.4,1.2-0.6c0.5-0.2,1-0.3,1.5-0.4s1.2-0.1,1.9-0.1c1.7,0,3,0.4,3.7,1.1c0.7,0.7,1.1,1.9,1.1,3.4v4.2
		c0,0.5,0,0.9,0,1.2c0,0.3,0,0.6,0.1,0.9c0,0.3,0.1,0.5,0.1,0.7c0.1,0.2,0.1,0.4,0.3,0.7H52.2z M51.6,123l-1.6,0.3
		c-0.5,0.1-0.9,0.3-1.2,0.5c-0.2,0.2-0.4,0.5-0.4,0.9c0,0.3,0.1,0.6,0.3,0.8c0.2,0.2,0.5,0.3,0.9,0.3c0.5,0,1-0.2,1.4-0.6
		c0.4-0.4,0.6-1,0.6-1.8V123z"/>
	<path class="copy-purpleFill" d="M57.3,111.8h3.9v3.1h-3.9V111.8z M57.3,116.5h3.9v11.7h-3.9V116.5z"/>
	<path class="copy-purpleFill" d="M63,116.5h3.5l0.3,1.6c0.3-0.6,0.8-1.1,1.3-1.5s1.2-0.5,2-0.5c0.9,0,1.7,0.2,2.2,0.6c0.5,0.4,0.9,0.9,1.1,1.5
		c0.1-0.2,0.3-0.5,0.5-0.7c0.2-0.3,0.4-0.5,0.7-0.7c0.3-0.2,0.6-0.4,1-0.5c0.4-0.1,0.9-0.2,1.4-0.2c0.8,0,1.5,0.1,2,0.4
		c0.5,0.3,0.9,0.6,1.2,1.1c0.3,0.5,0.5,1,0.6,1.6c0.1,0.6,0.1,1.2,0.1,1.8v7.2h-3.9v-6.1c0-0.9-0.1-1.5-0.3-1.9
		c-0.2-0.4-0.6-0.6-1.2-0.6c-0.2,0-0.4,0-0.6,0.1c-0.2,0.1-0.4,0.2-0.5,0.4c-0.2,0.2-0.3,0.5-0.4,0.9c-0.1,0.4-0.1,0.9-0.1,1.5v5.9
		h-3.9V122c0-0.8-0.1-1.4-0.3-1.9c-0.2-0.4-0.6-0.6-1.2-0.6c-0.2,0-0.4,0-0.6,0.1c-0.2,0.1-0.4,0.2-0.5,0.4
		c-0.2,0.2-0.3,0.5-0.4,0.9c-0.1,0.4-0.2,0.9-0.2,1.6v5.6H63V116.5z"/>
	<path class="copy-purpleFill" d="M82.9,111.9h6.9c0.8,0,1.6,0.1,2.3,0.3c0.8,0.2,1.4,0.5,2,0.9c0.6,0.4,1.1,1,1.4,1.6c0.4,0.7,0.6,1.5,0.6,2.4
		c0,1-0.2,1.9-0.5,2.6c-0.3,0.7-0.8,1.3-1.3,1.7c-0.6,0.4-1.2,0.8-2,1c-0.8,0.2-1.6,0.3-2.5,0.3H87v5.4h-4.1V111.9z M89.2,119.5
		c0.4,0,0.7,0,1-0.1c0.3-0.1,0.6-0.2,0.8-0.4c0.2-0.2,0.4-0.4,0.5-0.7c0.1-0.3,0.2-0.7,0.2-1.2c0-0.4-0.1-0.7-0.2-1
		c-0.1-0.3-0.3-0.5-0.6-0.6c-0.2-0.2-0.5-0.3-0.8-0.3c-0.3-0.1-0.7-0.1-1-0.1H87v4.4H89.2z"/>
	<path class="copy-purpleFill" d="M103.9,128.2c-0.1-0.2-0.2-0.4-0.2-0.7c-0.1-0.3-0.1-0.5-0.1-0.7c-0.2,0.5-0.6,0.9-1.1,1.2
		c-0.5,0.4-1.2,0.5-2.1,0.5c-0.6,0-1.2-0.1-1.7-0.3c-0.5-0.2-0.9-0.5-1.2-0.8c-0.3-0.3-0.6-0.7-0.7-1.2c-0.2-0.5-0.3-1-0.3-1.5
		c0-0.6,0.1-1.1,0.3-1.6c0.2-0.4,0.5-0.8,0.9-1.1c0.4-0.3,0.9-0.6,1.4-0.7c0.6-0.2,1.2-0.3,1.9-0.4l2.3-0.4v-0.3
		c0-0.5-0.1-0.8-0.4-1c-0.3-0.2-0.6-0.3-1.1-0.3c-0.7,0-1.3,0.1-1.8,0.4c-0.5,0.3-1,0.6-1.4,0.9l-1.8-2.6c0.2-0.2,0.5-0.4,0.9-0.6
		c0.4-0.2,0.8-0.4,1.2-0.6c0.5-0.2,1-0.3,1.5-0.4s1.2-0.1,1.9-0.1c1.7,0,3,0.4,3.7,1.1c0.7,0.7,1.1,1.9,1.1,3.4v4.2
		c0,0.5,0,0.9,0,1.2c0,0.3,0,0.6,0.1,0.9c0,0.3,0.1,0.5,0.1,0.7c0.1,0.2,0.1,0.4,0.3,0.7H103.9z M103.3,123l-1.6,0.3
		c-0.5,0.1-0.9,0.3-1.2,0.5c-0.2,0.2-0.4,0.5-0.4,0.9c0,0.3,0.1,0.6,0.3,0.8c0.2,0.2,0.5,0.3,0.9,0.3c0.5,0,1-0.2,1.4-0.6
		c0.4-0.4,0.6-1,0.6-1.8V123z"/>
	<path class="copy-purpleFill" d="M109.9,124.3c0.2,0.2,0.4,0.3,0.7,0.5s0.5,0.3,0.9,0.5c0.3,0.1,0.6,0.2,1,0.3c0.3,0.1,0.7,0.1,1,0.1
		c0.3,0,0.6,0,0.8-0.1c0.3-0.1,0.4-0.3,0.4-0.6c0-0.3-0.2-0.5-0.5-0.7c-0.3-0.2-0.7-0.3-1.1-0.4c-0.5-0.1-0.9-0.3-1.5-0.4
		s-1-0.4-1.5-0.6c-0.5-0.3-0.8-0.6-1.1-1.1s-0.5-1-0.5-1.8c0-0.7,0.1-1.2,0.4-1.7s0.6-0.9,1.1-1.2c0.5-0.3,1-0.5,1.6-0.7
		c0.6-0.2,1.2-0.2,1.9-0.2c1.1,0,2,0.1,2.8,0.4c0.8,0.2,1.5,0.6,2.2,1l-1.8,2.6c-0.2-0.1-0.4-0.3-0.6-0.4c-0.2-0.1-0.5-0.3-0.8-0.4
		c-0.3-0.1-0.6-0.2-0.9-0.3c-0.3-0.1-0.6-0.1-1-0.1c-0.3,0-0.5,0-0.6,0.1c-0.2,0.1-0.3,0.2-0.3,0.5c0,0.3,0.2,0.5,0.5,0.6
		c0.3,0.2,0.7,0.3,1.1,0.4c0.5,0.1,0.9,0.3,1.5,0.5c0.5,0.2,1,0.4,1.5,0.7c0.5,0.3,0.8,0.6,1.1,1.1c0.3,0.4,0.5,1,0.5,1.7
		c0,0.7-0.1,1.3-0.4,1.8c-0.3,0.5-0.7,0.9-1.2,1.3c-0.5,0.3-1,0.6-1.6,0.7c-0.6,0.2-1.2,0.2-1.8,0.2c-2.2,0-4-0.6-5.4-1.7
		L109.9,124.3z"/>
	<path class="copy-purpleFill" d="M120.6,124.3c0.2,0.2,0.4,0.3,0.7,0.5s0.5,0.3,0.9,0.5c0.3,0.1,0.6,0.2,1,0.3c0.3,0.1,0.7,0.1,1,0.1
		c0.3,0,0.6,0,0.8-0.1c0.3-0.1,0.4-0.3,0.4-0.6c0-0.3-0.2-0.5-0.5-0.7c-0.3-0.2-0.7-0.3-1.1-0.4c-0.5-0.1-0.9-0.3-1.5-0.4
		s-1-0.4-1.5-0.6c-0.5-0.3-0.8-0.6-1.1-1.1s-0.5-1-0.5-1.8c0-0.7,0.1-1.2,0.4-1.7s0.6-0.9,1.1-1.2c0.5-0.3,1-0.5,1.6-0.7
		c0.6-0.2,1.2-0.2,1.9-0.2c1.1,0,2,0.1,2.8,0.4c0.8,0.2,1.5,0.6,2.2,1l-1.8,2.6c-0.2-0.1-0.4-0.3-0.6-0.4c-0.2-0.1-0.5-0.3-0.8-0.4
		c-0.3-0.1-0.6-0.2-0.9-0.3c-0.3-0.1-0.6-0.1-1-0.1c-0.3,0-0.5,0-0.6,0.1c-0.2,0.1-0.3,0.2-0.3,0.5c0,0.3,0.2,0.5,0.5,0.6
		c0.3,0.2,0.7,0.3,1.1,0.4c0.5,0.1,0.9,0.3,1.5,0.5c0.5,0.2,1,0.4,1.5,0.7c0.5,0.3,0.8,0.6,1.1,1.1c0.3,0.4,0.5,1,0.5,1.7
		c0,0.7-0.1,1.3-0.4,1.8c-0.3,0.5-0.7,0.9-1.2,1.3c-0.5,0.3-1,0.6-1.6,0.7c-0.6,0.2-1.2,0.2-1.8,0.2c-2.2,0-4-0.6-5.4-1.7
		L120.6,124.3z"/>
</g>
<g>
	<path class="copy-purpleFill" d="M131.4,123.9h4.3v4.3h-4.3V123.9z"/>
</g>
</svg>
