<?xml version="1.0" encoding="utf-8"?>
<!-- Generator: Adobe Illustrator 22.1.0, SVG Export Plug-In . SVG Version: 6.00 Build 0)  -->
<svg version="1.1" id="Layer_1" xmlns="https://www.w3.org/2000/svg" xmlns:xlink="https://www.w3.org/1999/xlink" x="0px" y="0px"
	 viewBox="0 0 300 250" style="enable-background:new 0 0 300 250;" xml:space="preserve">
<style type="text/css">
	.copy-purpleFill{fill:#662868;}
</style>
<g>
	<path class="copy-purpleFill" d="M23.2,98.2c0.1,0.2,0.3,0.4,0.6,0.6c0.3,0.2,0.6,0.4,0.9,0.6c0.4,0.2,0.8,0.3,1.2,0.5c0.5,0.1,0.9,0.2,1.4,0.2
		c0.7,0,1.3-0.1,1.7-0.4c0.4-0.2,0.6-0.6,0.6-1c0-0.3-0.1-0.6-0.3-0.8c-0.2-0.2-0.4-0.4-0.8-0.5c-0.4-0.1-0.8-0.3-1.3-0.4
		c-0.5-0.1-1.1-0.3-1.8-0.4c-1.6-0.4-2.8-1-3.5-1.8C21.3,94,21,93,21,91.8c0-0.7,0.1-1.4,0.4-2c0.3-0.6,0.7-1.2,1.2-1.7
		c0.5-0.5,1.2-0.9,2-1.2c0.8-0.3,1.7-0.4,2.8-0.4c1.2,0,2.4,0.2,3.6,0.6c1.1,0.4,2.1,1.1,2.9,2l-2.8,2.6c-0.4-0.5-1-0.9-1.6-1.2
		S28.1,90,27.2,90c-0.4,0-0.7,0-1,0.1c-0.3,0.1-0.5,0.2-0.6,0.3c-0.1,0.1-0.2,0.2-0.3,0.4c-0.1,0.2-0.1,0.3-0.1,0.4
		c0,0.4,0.2,0.7,0.6,1c0.4,0.3,1.1,0.6,2.1,0.9c1.2,0.3,2.1,0.6,2.9,1c0.8,0.3,1.4,0.7,1.8,1.1c0.4,0.4,0.8,0.9,0.9,1.4
		c0.2,0.5,0.3,1.1,0.3,1.7c0,0.9-0.2,1.6-0.5,2.3c-0.4,0.7-0.8,1.2-1.4,1.6c-0.6,0.4-1.3,0.8-2.1,1c-0.8,0.2-1.7,0.3-2.5,0.3
		c-0.9,0-1.6-0.1-2.4-0.2c-0.7-0.1-1.4-0.3-1.9-0.6c-0.6-0.2-1.1-0.5-1.5-0.8c-0.4-0.3-0.8-0.6-1-0.9L23.2,98.2z"/>
	<path class="copy-purpleFill" d="M35.2,91.4h3.9v6.4c0,0.7,0.1,1.3,0.3,1.7c0.2,0.4,0.6,0.6,1.2,0.6c0.6,0,1.1-0.2,1.4-0.7
		c0.3-0.5,0.5-1.2,0.5-2.3v-5.7h3.9v11.7h-3.6v-1.7c-0.3,0.6-0.7,1.1-1.3,1.5s-1.3,0.5-2.2,0.5c-1.4,0-2.4-0.4-3.1-1.2s-1-2-1-3.5
		V91.4z"/>
	<path class="copy-purpleFill" d="M48.2,91.4h3.5l0.3,2.2c0.4-0.7,0.8-1.3,1.5-1.8c0.6-0.5,1.5-0.7,2.6-0.7V95c-0.3-0.1-0.7-0.1-1.2-0.1
		c-0.3,0-0.6,0-0.9,0.1s-0.6,0.2-0.9,0.4c-0.3,0.2-0.5,0.5-0.7,0.9c-0.2,0.4-0.3,1-0.3,1.7v5.2h-3.9V91.4z"/>
	<path class="copy-purpleFill" d="M60.1,98.2c0.1,0.9,0.4,1.5,0.9,1.9c0.4,0.4,0.9,0.5,1.5,0.5c0.5,0,0.9-0.1,1.3-0.3s0.7-0.5,0.9-1l2.8,1.6
		c-0.6,0.9-1.3,1.5-2.3,2c-0.9,0.4-1.9,0.6-3,0.6c-1,0-1.9-0.2-2.6-0.5c-0.8-0.3-1.4-0.7-1.9-1.3c-0.5-0.6-0.9-1.2-1.2-2
		s-0.4-1.6-0.4-2.4c0-0.9,0.1-1.7,0.4-2.5c0.3-0.8,0.7-1.4,1.2-2c0.5-0.6,1.1-1,1.9-1.3s1.6-0.5,2.5-0.5c0.9,0,1.7,0.2,2.4,0.5
		c0.7,0.3,1.3,0.7,1.8,1.3c0.5,0.6,0.9,1.2,1.1,2s0.4,1.7,0.4,2.7c0,0.2,0,0.4,0,0.5c0,0.1,0,0.2,0,0.2H60.1z M62,93.9
		c-1.1,0-1.7,0.7-1.9,2.1h3.8c0-0.6-0.1-1.1-0.4-1.5C63.1,94.1,62.7,93.9,62,93.9z"/>
	<path class="copy-purpleFill" d="M68.9,106.2c0.4-0.2,0.7-0.4,1-0.6c0.3-0.2,0.5-0.4,0.6-0.6c0.1-0.2,0.2-0.4,0.3-0.7s0.1-0.5,0.1-0.8v-0.4h-2
		v-4.3h4.3v4.2c0,0.7-0.1,1.3-0.2,1.8c-0.1,0.5-0.3,1-0.6,1.3c-0.3,0.4-0.6,0.7-1.1,1s-0.9,0.5-1.5,0.7L68.9,106.2z"/>
	<path class="copy-purpleFill" d="M79.9,104.3c0.3,0.1,0.6,0.2,0.9,0.2c0.3,0.1,0.6,0.1,0.8,0.1c0.4,0,0.6-0.1,0.8-0.2c0.2-0.2,0.3-0.4,0.4-0.8
		l-4.2-12.1h4.2l2,7.9l2-7.9H91L86.9,103c-0.2,0.6-0.5,1.2-0.7,1.8c-0.2,0.5-0.5,1-0.9,1.4s-0.8,0.7-1.4,0.9s-1.3,0.3-2.2,0.3
		c-0.1,0-0.3,0-0.5,0c-0.2,0-0.4,0-0.6,0c-0.2,0-0.4,0-0.6-0.1c-0.2,0-0.4-0.1-0.5-0.1L79.9,104.3z"/>
	<path class="copy-purpleFill" d="M96.7,103.5c-1,0-1.9-0.2-2.6-0.5c-0.7-0.3-1.4-0.7-1.9-1.3c-0.5-0.6-0.9-1.2-1.1-2c-0.2-0.8-0.4-1.6-0.4-2.5
		s0.1-1.7,0.4-2.5c0.3-0.8,0.6-1.4,1.1-2c0.5-0.6,1.1-1,1.8-1.3c0.7-0.3,1.6-0.5,2.6-0.5c1,0,1.8,0.2,2.6,0.5s1.4,0.7,1.9,1.3
		c0.5,0.6,0.9,1.2,1.1,2c0.3,0.8,0.4,1.6,0.4,2.5s-0.1,1.7-0.4,2.5c-0.3,0.8-0.6,1.4-1.1,2c-0.5,0.6-1.1,1-1.9,1.3
		C98.5,103.3,97.6,103.5,96.7,103.5z M96.8,100.5c0.6,0,1.1-0.3,1.4-0.9c0.3-0.6,0.4-1.4,0.4-2.4s-0.2-1.8-0.5-2.4
		c-0.3-0.6-0.8-0.9-1.4-0.9s-1.1,0.3-1.4,0.9c-0.3,0.6-0.5,1.4-0.5,2.4s0.2,1.8,0.5,2.4C95.6,100.2,96.1,100.5,96.8,100.5z"/>
	<path class="copy-purpleFill" d="M103.8,91.4h3.9v6.4c0,0.7,0.1,1.3,0.3,1.7c0.2,0.4,0.6,0.6,1.2,0.6c0.6,0,1.1-0.2,1.4-0.7
		c0.3-0.5,0.5-1.2,0.5-2.3v-5.7h3.9v11.7h-3.6v-1.7c-0.3,0.6-0.7,1.1-1.3,1.5s-1.3,0.5-2.2,0.5c-1.4,0-2.4-0.4-3.1-1.2s-1-2-1-3.5
		V91.4z"/>
	<path class="copy-purpleFill" d="M116.8,94c0.4-0.2,0.7-0.4,1-0.6c0.3-0.2,0.5-0.4,0.6-0.6c0.1-0.2,0.2-0.4,0.3-0.7c0-0.2,0.1-0.5,0.1-0.8V91
		h-2v-4.1h4.3v4c0,0.7-0.1,1.3-0.2,1.8c-0.1,0.5-0.3,1-0.6,1.3c-0.3,0.4-0.6,0.7-1.1,1c-0.4,0.3-0.9,0.5-1.5,0.7L116.8,94z"/>
	<path class="copy-purpleFill" d="M122.4,91.4h3.5l0.3,2.2c0.4-0.7,0.8-1.3,1.5-1.8c0.6-0.5,1.5-0.7,2.6-0.7V95c-0.3-0.1-0.7-0.1-1.2-0.1
		c-0.3,0-0.6,0-0.9,0.1s-0.6,0.2-0.9,0.4c-0.3,0.2-0.5,0.5-0.7,0.9c-0.2,0.4-0.3,1-0.3,1.7v5.2h-3.9V91.4z"/>
	<path class="copy-purpleFill" d="M134.3,98.2c0.1,0.9,0.4,1.5,0.9,1.9c0.4,0.4,0.9,0.5,1.5,0.5c0.5,0,0.9-0.1,1.3-0.3s0.7-0.5,0.9-1l2.8,1.6
		c-0.6,0.9-1.3,1.5-2.3,2c-0.9,0.4-1.9,0.6-3,0.6c-1,0-1.9-0.2-2.6-0.5c-0.8-0.3-1.4-0.7-1.9-1.3c-0.5-0.6-0.9-1.2-1.2-2
		s-0.4-1.6-0.4-2.4c0-0.9,0.1-1.7,0.4-2.5c0.3-0.8,0.7-1.4,1.2-2c0.5-0.6,1.1-1,1.9-1.3s1.6-0.5,2.5-0.5c0.9,0,1.7,0.2,2.4,0.5
		c0.7,0.3,1.3,0.7,1.8,1.3c0.5,0.6,0.9,1.2,1.1,2s0.4,1.7,0.4,2.7c0,0.2,0,0.4,0,0.5c0,0.1,0,0.2,0,0.2H134.3z M136.2,93.9
		c-1.1,0-1.7,0.7-1.9,2.1h3.8c0-0.6-0.1-1.1-0.4-1.5C137.3,94.1,136.8,93.9,136.2,93.9z"/>
	<path class="copy-purpleFill" d="M149,99.2c0.2,0.2,0.4,0.3,0.7,0.5s0.5,0.3,0.9,0.5c0.3,0.1,0.6,0.2,1,0.3c0.3,0.1,0.7,0.1,1,0.1
		c0.3,0,0.6,0,0.8-0.1s0.4-0.3,0.4-0.6c0-0.3-0.2-0.5-0.5-0.7c-0.3-0.2-0.7-0.3-1.1-0.4c-0.5-0.1-0.9-0.3-1.5-0.4
		c-0.5-0.2-1-0.4-1.5-0.6c-0.5-0.3-0.8-0.6-1.1-1.1s-0.5-1-0.5-1.8c0-0.7,0.1-1.2,0.4-1.7s0.6-0.9,1.1-1.2c0.5-0.3,1-0.5,1.6-0.7
		c0.6-0.2,1.2-0.2,1.9-0.2c1.1,0,2,0.1,2.8,0.4c0.8,0.2,1.5,0.6,2.2,1l-1.8,2.6c-0.2-0.1-0.4-0.3-0.6-0.4c-0.2-0.1-0.5-0.3-0.8-0.4
		s-0.6-0.2-0.9-0.3c-0.3-0.1-0.6-0.1-1-0.1c-0.3,0-0.5,0-0.6,0.1c-0.2,0.1-0.3,0.2-0.3,0.5c0,0.3,0.2,0.5,0.5,0.6
		c0.3,0.2,0.7,0.3,1.1,0.4c0.5,0.1,0.9,0.3,1.5,0.5c0.5,0.2,1,0.4,1.5,0.7c0.5,0.3,0.8,0.6,1.1,1.1c0.3,0.4,0.5,1,0.5,1.7
		c0,0.7-0.2,1.3-0.4,1.8c-0.3,0.5-0.7,0.9-1.2,1.3c-0.5,0.3-1,0.6-1.6,0.7c-0.6,0.2-1.2,0.2-1.8,0.2c-2.2,0-4-0.6-5.4-1.7L149,99.2z
		"/>
	<path class="copy-purpleFill" d="M165.8,103.1c-0.1-0.2-0.2-0.4-0.2-0.7c-0.1-0.3-0.1-0.5-0.1-0.7c-0.2,0.5-0.6,0.9-1.1,1.2
		c-0.5,0.4-1.2,0.5-2.1,0.5c-0.6,0-1.2-0.1-1.7-0.3s-0.9-0.5-1.2-0.8c-0.3-0.3-0.6-0.7-0.7-1.2s-0.3-1-0.3-1.5
		c0-0.6,0.1-1.1,0.3-1.6c0.2-0.4,0.5-0.8,0.9-1.1c0.4-0.3,0.9-0.6,1.4-0.7s1.2-0.3,1.9-0.4l2.3-0.4v-0.3c0-0.5-0.1-0.8-0.4-1
		c-0.3-0.2-0.6-0.3-1.1-0.3c-0.7,0-1.3,0.1-1.8,0.4c-0.5,0.3-1,0.6-1.4,0.9l-1.8-2.6c0.2-0.2,0.5-0.4,0.9-0.6
		c0.4-0.2,0.8-0.4,1.2-0.6c0.5-0.2,1-0.3,1.5-0.4s1.2-0.1,1.9-0.1c1.7,0,3,0.4,3.7,1.1s1.1,1.9,1.1,3.4v4.2c0,0.5,0,0.9,0,1.2
		s0,0.6,0.1,0.9s0.1,0.5,0.1,0.7c0.1,0.2,0.1,0.4,0.3,0.7H165.8z M165.2,97.9l-1.6,0.3c-0.5,0.1-0.9,0.3-1.2,0.5
		c-0.2,0.2-0.4,0.5-0.4,0.9c0,0.3,0.1,0.6,0.3,0.8c0.2,0.2,0.5,0.3,0.9,0.3c0.5,0,1-0.2,1.4-0.6c0.4-0.4,0.6-1,0.6-1.8V97.9z"/>
	<path class="copy-purpleFill" d="M169.4,91.4h4.3l1.9,8.1l1.9-8.1h4.1l-3.9,11.7h-4.5L169.4,91.4z"/>
	<path class="copy-purpleFill" d="M182.3,86.8h3.9v3.1h-3.9V86.8z M182.3,91.4h3.9v11.7h-3.9V91.4z"/>
	<path class="copy-purpleFill" d="M188,91.4h3.5l0.3,1.6c0.4-0.6,0.9-1,1.5-1.4c0.6-0.4,1.4-0.6,2.2-0.6c2.6,0,3.9,1.6,3.9,4.9v7.1h-3.9V97
		c0-0.9-0.1-1.6-0.4-1.9c-0.3-0.4-0.7-0.6-1.3-0.6c-0.3,0-0.5,0-0.8,0.1s-0.4,0.3-0.6,0.5s-0.3,0.6-0.4,1c-0.1,0.4-0.1,0.9-0.1,1.5
		v5.5H188V91.4z"/>
	<path class="copy-purpleFill" d="M202.5,103.1c0.4,0.4,1,0.8,1.7,1.1c0.7,0.3,1.3,0.4,2,0.4c0.7,0,1.2-0.2,1.5-0.5c0.3-0.3,0.4-0.8,0.4-1.4
		v-1.1c-0.3,0.4-0.6,0.7-1.1,1c-0.5,0.3-1.1,0.4-1.9,0.4c-0.6,0-1.1-0.1-1.6-0.3c-0.5-0.2-1-0.5-1.5-1s-0.8-1-1-1.8
		c-0.3-0.7-0.4-1.6-0.4-2.7c0-1,0.1-1.8,0.3-2.6c0.2-0.8,0.6-1.4,1-1.9c0.4-0.5,0.9-0.9,1.5-1.2c0.6-0.3,1.2-0.4,1.9-0.4
		c0.7,0,1.3,0.2,1.9,0.5c0.5,0.3,1,0.8,1.3,1.4l0.5-1.6h3.1v11.1c0,0.7-0.1,1.4-0.3,2c-0.2,0.6-0.5,1.1-1,1.6
		c-0.5,0.4-1.1,0.8-1.8,1c-0.7,0.2-1.6,0.4-2.6,0.4c-0.7,0-1.3,0-1.9-0.1c-0.6-0.1-1.1-0.2-1.6-0.4c-0.5-0.2-0.9-0.3-1.3-0.5
		c-0.4-0.2-0.7-0.4-1-0.6L202.5,103.1z M208.1,97.2c0-0.4,0-0.7-0.1-1.1s-0.1-0.7-0.3-0.9c-0.1-0.3-0.3-0.5-0.5-0.7
		c-0.2-0.2-0.5-0.3-0.9-0.3c-0.2,0-0.5,0-0.7,0.1c-0.2,0.1-0.4,0.3-0.6,0.5c-0.2,0.2-0.3,0.5-0.4,0.9s-0.1,0.8-0.1,1.4
		c0,1,0.2,1.7,0.5,2.2s0.8,0.7,1.4,0.7s1-0.2,1.3-0.7c0.3-0.5,0.4-1.1,0.4-2V97.2z"/>
	<path class="copy-purpleFill" d="M213.5,98.9h4.3v4.3h-4.3V98.9z"/>
</g>
<g>
	<path class="copy-purpleFill" d="M21.3,111h7.5c0.7,0,1.4,0.1,2,0.3c0.7,0.2,1.2,0.4,1.7,0.8c0.5,0.4,0.9,0.8,1.2,1.4c0.3,0.6,0.5,1.2,0.5,2
		c0,0.4-0.1,0.8-0.2,1.2c-0.1,0.4-0.4,0.8-0.6,1.1c-0.3,0.3-0.6,0.6-1,0.9c-0.4,0.2-0.8,0.4-1.2,0.5c1.1,0.2,2,0.6,2.6,1.2
		s1,1.5,1,2.6c0,0.9-0.2,1.6-0.5,2.2c-0.3,0.6-0.7,1-1.3,1.3c-0.5,0.3-1.1,0.5-1.8,0.7c-0.7,0.1-1.4,0.2-2.1,0.2h-7.9V111z
		 M27.6,117.5c0.9,0,1.5-0.1,1.8-0.4c0.3-0.3,0.5-0.7,0.5-1.3c0-0.5-0.1-0.9-0.4-1.2c-0.3-0.3-0.8-0.4-1.5-0.4h-2.5v3.4H27.6z
		 M28.5,124.1c0.4,0,0.7,0,1-0.1c0.3-0.1,0.5-0.2,0.6-0.4c0.1-0.2,0.2-0.3,0.3-0.6c0.1-0.2,0.1-0.4,0.1-0.7c0-0.5-0.2-1-0.5-1.3
		c-0.4-0.3-0.9-0.5-1.6-0.5h-2.8v3.5H28.5z"/>
	<path class="copy-purpleFill" d="M36,115.5h3.9v6.4c0,0.7,0.1,1.3,0.3,1.7c0.2,0.4,0.6,0.6,1.2,0.6c0.6,0,1.1-0.2,1.4-0.7
		c0.3-0.5,0.5-1.2,0.5-2.3v-5.7h3.9v11.7h-3.6v-1.7c-0.3,0.6-0.7,1.1-1.3,1.5c-0.5,0.4-1.3,0.5-2.2,0.5c-1.4,0-2.4-0.4-3.1-1.2
		c-0.7-0.8-1-2-1-3.5V115.5z"/>
	<path class="copy-purpleFill" d="M49.9,118h-1.9v-2.5h0.3c0.6,0,1.1-0.1,1.4-0.3c0.3-0.2,0.6-0.5,0.8-0.8c0.2-0.3,0.3-0.7,0.4-1.1
		c0.1-0.4,0.2-0.8,0.3-1.2h2.4v3.4h2.4v2.5h-2.4v5.4c0,0.4,0.1,0.6,0.2,0.9c0.1,0.2,0.4,0.3,0.9,0.3c0.1,0,0.3,0,0.5,0
		c0.2,0,0.4-0.1,0.6-0.2l0.3,2.7c-0.4,0.2-0.9,0.3-1.3,0.4c-0.4,0.1-0.9,0.1-1.3,0.1c-0.7,0-1.3-0.1-1.8-0.3s-0.9-0.4-1.1-0.8
		c-0.3-0.3-0.5-0.7-0.6-1.2c-0.1-0.5-0.2-0.9-0.2-1.5V118z"/>
	<path class="copy-purpleFill" d="M61.9,115.5h3.5l0.3,1.6c0.4-0.6,0.9-1,1.5-1.4s1.4-0.6,2.2-0.6c2.6,0,3.9,1.6,3.9,4.9v7.1h-3.9V121
		c0-0.9-0.1-1.6-0.4-1.9c-0.3-0.4-0.7-0.6-1.3-0.6c-0.3,0-0.5,0-0.8,0.1c-0.2,0.1-0.4,0.3-0.6,0.5c-0.2,0.2-0.3,0.6-0.4,1
		c-0.1,0.4-0.1,0.9-0.1,1.5v5.5h-3.9V115.5z"/>
	<path class="copy-purpleFill" d="M80.3,127.6c-1,0-1.9-0.2-2.6-0.5c-0.7-0.3-1.4-0.7-1.9-1.3s-0.9-1.2-1.1-2c-0.2-0.8-0.4-1.6-0.4-2.5
		s0.1-1.7,0.4-2.5c0.3-0.8,0.6-1.4,1.1-2c0.5-0.6,1.1-1,1.8-1.3c0.7-0.3,1.6-0.5,2.6-0.5c1,0,1.8,0.2,2.6,0.5s1.4,0.7,1.9,1.3
		c0.5,0.6,0.9,1.2,1.1,2c0.3,0.8,0.4,1.6,0.4,2.5s-0.1,1.7-0.4,2.5c-0.3,0.8-0.6,1.4-1.1,2c-0.5,0.6-1.1,1-1.9,1.3
		S81.2,127.6,80.3,127.6z M80.3,124.6c0.6,0,1.1-0.3,1.4-0.9c0.3-0.6,0.4-1.4,0.4-2.4s-0.2-1.8-0.5-2.4c-0.3-0.6-0.8-0.9-1.4-0.9
		s-1.1,0.3-1.4,0.9c-0.3,0.6-0.5,1.4-0.5,2.4s0.2,1.8,0.5,2.4C79.1,124.3,79.6,124.6,80.3,124.6z"/>
	<path class="copy-purpleFill" d="M88.1,118h-1.9v-2.5h0.3c0.6,0,1.1-0.1,1.4-0.3c0.3-0.2,0.6-0.5,0.8-0.8c0.2-0.3,0.3-0.7,0.4-1.1
		c0.1-0.4,0.2-0.8,0.3-1.2h2.4v3.4h2.4v2.5h-2.4v5.4c0,0.4,0.1,0.6,0.2,0.9c0.1,0.2,0.4,0.3,0.9,0.3c0.1,0,0.3,0,0.5,0
		c0.2,0,0.4-0.1,0.6-0.2l0.3,2.7c-0.4,0.2-0.9,0.3-1.3,0.4c-0.4,0.1-0.9,0.1-1.3,0.1c-0.7,0-1.3-0.1-1.8-0.3s-0.9-0.4-1.1-0.8
		c-0.3-0.3-0.5-0.7-0.6-1.2c-0.1-0.5-0.2-0.9-0.2-1.5V118z"/>
	<path class="copy-purpleFill" d="M107,126.1c-0.3,0.4-0.6,0.8-1.1,1c-0.5,0.2-1,0.4-1.7,0.4c-0.6,0-1.2-0.1-1.8-0.3c-0.6-0.2-1.1-0.6-1.5-1
		c-0.4-0.5-0.8-1.1-1.1-1.9s-0.4-1.7-0.4-2.9c0-2,0.4-3.6,1.3-4.6c0.8-1,2-1.6,3.4-1.6c0.7,0,1.3,0.1,1.9,0.4c0.6,0.3,1,0.8,1.4,1.5
		l0.5-1.6h3v15.7H107V126.1z M107,121.3c0-0.9-0.1-1.7-0.4-2.2c-0.3-0.5-0.7-0.8-1.3-0.8c-0.6,0-1.1,0.3-1.4,0.8
		c-0.3,0.5-0.4,1.2-0.4,2.1c0,1.1,0.2,1.9,0.5,2.4c0.3,0.5,0.8,0.7,1.3,0.7c0.6,0,1-0.2,1.3-0.7s0.4-1.2,0.4-2.1V121.3z"/>
	<path class="copy-purpleFill" d="M112.6,115.5h3.9v6.4c0,0.7,0.1,1.3,0.3,1.7c0.2,0.4,0.6,0.6,1.2,0.6c0.6,0,1.1-0.2,1.4-0.7
		c0.3-0.5,0.5-1.2,0.5-2.3v-5.7h3.9v11.7h-3.6v-1.7c-0.3,0.6-0.7,1.1-1.3,1.5c-0.5,0.4-1.3,0.5-2.2,0.5c-1.4,0-2.4-0.4-3.1-1.2
		c-0.7-0.8-1-2-1-3.5V115.5z"/>
	<path class="copy-purpleFill" d="M125.6,110.9h3.9v3.1h-3.9V110.9z M125.6,115.5h3.9v11.7h-3.9V115.5z"/>
	<path class="copy-purpleFill" d="M132.2,118h-1.9v-2.5h0.3c0.6,0,1.1-0.1,1.4-0.3c0.3-0.2,0.6-0.5,0.8-0.8c0.2-0.3,0.3-0.7,0.4-1.1
		c0.1-0.4,0.2-0.8,0.3-1.2h2.4v3.4h2.4v2.5H136v5.4c0,0.4,0.1,0.6,0.2,0.9c0.1,0.2,0.4,0.3,0.9,0.3c0.1,0,0.3,0,0.5,0
		c0.2,0,0.4-0.1,0.6-0.2l0.3,2.7c-0.4,0.2-0.9,0.3-1.3,0.4c-0.4,0.1-0.9,0.1-1.3,0.1c-0.7,0-1.3-0.1-1.8-0.3s-0.9-0.4-1.1-0.8
		c-0.3-0.3-0.5-0.7-0.6-1.2c-0.1-0.5-0.2-0.9-0.2-1.5V118z"/>
	<path class="copy-purpleFill" d="M142.7,122.3c0.1,0.9,0.4,1.5,0.9,1.9c0.4,0.4,0.9,0.5,1.5,0.5c0.5,0,0.9-0.1,1.3-0.3s0.7-0.5,0.9-1l2.8,1.6
		c-0.6,0.9-1.3,1.5-2.3,2c-0.9,0.4-1.9,0.6-3,0.6c-1,0-1.9-0.2-2.6-0.5c-0.8-0.3-1.4-0.7-1.9-1.3c-0.5-0.6-0.9-1.2-1.2-2
		s-0.4-1.6-0.4-2.4c0-0.9,0.1-1.7,0.4-2.5c0.3-0.8,0.7-1.4,1.2-2c0.5-0.6,1.1-1,1.9-1.3s1.6-0.5,2.5-0.5c0.9,0,1.7,0.2,2.4,0.5
		c0.7,0.3,1.3,0.7,1.8,1.3c0.5,0.6,0.9,1.2,1.1,2s0.4,1.7,0.4,2.7c0,0.2,0,0.4,0,0.5c0,0.1,0,0.2,0,0.2H142.7z M144.6,118
		c-1.1,0-1.7,0.7-1.9,2.1h3.8c0-0.6-0.1-1.1-0.4-1.5C145.7,118.2,145.3,118,144.6,118z"/>
	<path class="copy-purpleFill" d="M159.8,122.3c0.1,0.9,0.4,1.5,0.9,1.9c0.4,0.4,0.9,0.5,1.5,0.5c0.5,0,0.9-0.1,1.3-0.3s0.7-0.5,0.9-1l2.8,1.6
		c-0.6,0.9-1.3,1.5-2.3,2c-0.9,0.4-1.9,0.6-3,0.6c-1,0-1.9-0.2-2.6-0.5c-0.8-0.3-1.4-0.7-1.9-1.3c-0.5-0.6-0.9-1.2-1.2-2
		c-0.3-0.8-0.4-1.6-0.4-2.4c0-0.9,0.1-1.7,0.4-2.5c0.3-0.8,0.7-1.4,1.2-2c0.5-0.6,1.1-1,1.9-1.3s1.6-0.5,2.5-0.5
		c0.9,0,1.7,0.2,2.4,0.5c0.7,0.3,1.3,0.7,1.8,1.3c0.5,0.6,0.9,1.2,1.1,2s0.4,1.7,0.4,2.7c0,0.2,0,0.4,0,0.5s0,0.2,0,0.2H159.8z
		 M161.7,118c-1.1,0-1.7,0.7-1.9,2.1h3.8c0-0.6-0.1-1.1-0.4-1.5S162.4,118,161.7,118z"/>
	<path class="copy-purpleFill" d="M168.8,115.5h3.5l0.3,1.6c0.4-0.6,0.9-1,1.5-1.4c0.6-0.4,1.4-0.6,2.2-0.6c2.6,0,3.9,1.6,3.9,4.9v7.1h-3.9V121
		c0-0.9-0.1-1.6-0.4-1.9c-0.3-0.4-0.7-0.6-1.3-0.6c-0.3,0-0.5,0-0.8,0.1s-0.4,0.3-0.6,0.5s-0.3,0.6-0.4,1c-0.1,0.4-0.1,0.9-0.1,1.5
		v5.5h-3.9V115.5z"/>
	<path class="copy-purpleFill" d="M187.1,127.6c-1,0-1.9-0.2-2.6-0.5s-1.4-0.7-1.8-1.3s-0.9-1.2-1.1-2c-0.2-0.8-0.4-1.6-0.4-2.5s0.1-1.7,0.4-2.5
		s0.6-1.4,1.1-2c0.5-0.6,1.1-1,1.8-1.3s1.6-0.5,2.6-0.5s1.8,0.2,2.6,0.5c0.7,0.3,1.4,0.7,1.8,1.3c0.5,0.6,0.9,1.2,1.1,2
		c0.3,0.8,0.4,1.6,0.4,2.5s-0.1,1.7-0.4,2.5c-0.3,0.8-0.6,1.4-1.1,2s-1.1,1-1.8,1.3C189,127.4,188.1,127.6,187.1,127.6z
		 M187.2,124.6c0.6,0,1.1-0.3,1.4-0.9c0.3-0.6,0.4-1.4,0.4-2.4s-0.2-1.8-0.5-2.4c-0.3-0.6-0.8-0.9-1.4-0.9c-0.6,0-1.1,0.3-1.4,0.9
		c-0.3,0.6-0.5,1.4-0.5,2.4s0.2,1.8,0.5,2.4C186,124.3,186.5,124.6,187.2,124.6z"/>
	<path class="copy-purpleFill" d="M194.2,115.5h3.9v6.4c0,0.7,0.1,1.3,0.3,1.7c0.2,0.4,0.6,0.6,1.2,0.6c0.6,0,1.1-0.2,1.4-0.7
		c0.3-0.5,0.5-1.2,0.5-2.3v-5.7h3.9v11.7h-3.6v-1.7c-0.3,0.6-0.7,1.1-1.3,1.5c-0.5,0.4-1.3,0.5-2.2,0.5c-1.4,0-2.4-0.4-3.1-1.2
		c-0.7-0.8-1-2-1-3.5V115.5z"/>
	<path class="copy-purpleFill" d="M208.7,127.1c0.4,0.4,1,0.8,1.7,1.1s1.3,0.4,2,0.4c0.7,0,1.2-0.2,1.5-0.5c0.3-0.3,0.4-0.8,0.4-1.4v-1.1
		c-0.3,0.4-0.6,0.7-1.1,1c-0.5,0.3-1.1,0.4-1.9,0.4c-0.6,0-1.1-0.1-1.6-0.3s-1-0.5-1.5-1s-0.8-1-1-1.8c-0.3-0.7-0.4-1.6-0.4-2.7
		c0-1,0.1-1.8,0.3-2.6c0.2-0.8,0.6-1.4,1-1.9c0.4-0.5,0.9-0.9,1.5-1.2c0.6-0.3,1.2-0.4,1.9-0.4c0.7,0,1.3,0.2,1.9,0.5
		c0.5,0.3,1,0.8,1.3,1.4l0.5-1.6h3.1v11.1c0,0.7-0.1,1.4-0.3,2s-0.5,1.1-1,1.6c-0.5,0.4-1.1,0.8-1.8,1c-0.7,0.2-1.6,0.4-2.6,0.4
		c-0.7,0-1.3,0-1.9-0.1s-1.1-0.2-1.6-0.4c-0.5-0.2-0.9-0.3-1.3-0.5s-0.7-0.4-1-0.6L208.7,127.1z M214.3,121.3c0-0.4,0-0.7-0.1-1.1
		s-0.1-0.7-0.3-0.9c-0.1-0.3-0.3-0.5-0.5-0.7c-0.2-0.2-0.5-0.3-0.9-0.3c-0.2,0-0.5,0-0.7,0.1c-0.2,0.1-0.4,0.3-0.6,0.5
		c-0.2,0.2-0.3,0.5-0.4,0.9s-0.1,0.8-0.1,1.4c0,1,0.2,1.7,0.5,2.2s0.8,0.7,1.4,0.7s1-0.2,1.3-0.7c0.3-0.5,0.4-1.1,0.4-2V121.3z"/>
	<path class="copy-purpleFill" d="M220,111h3.9v6.1c0.3-0.5,0.7-1,1.3-1.3s1.3-0.6,2.3-0.6c1.3,0,2.3,0.4,2.9,1.3c0.6,0.9,0.9,2.1,0.9,3.7v7.1
		h-3.9v-6.3c0-0.7-0.1-1.3-0.4-1.7c-0.3-0.4-0.7-0.6-1.3-0.6c-0.6,0-1,0.2-1.4,0.7c-0.4,0.5-0.5,1.2-0.5,2.3v5.7H220V111z"/>
	<path class="copy-purpleFill" d="M233,122.9h4.3v4.3H233V122.9z"/>
</g>
</svg>
