<?xml version="1.0" encoding="utf-8"?>
<!-- Generator: Adobe Illustrator 22.1.0, SVG Export Plug-In . SVG Version: 6.00 Build 0)  -->
<svg version="1.1" id="Layer_1" xmlns="http://www.w3.org/2000/svg" xmlns:xlink="http://www.w3.org/1999/xlink" x="0px" y="0px"
	 viewBox="0 0 300 600" style="enable-background:new 0 0 300 600;" xml:space="preserve">
<style type="text/css">
	.st0{fill:#662868;}
</style>
<g>
	<path class="st0" d="M48.2,173.3h-6.4v-4.4h18.5v4.4H54v18.2h-5.8V173.3z"/>
	<path class="st0" d="M67.5,192c-1.4,0-2.6-0.2-3.6-0.7s-1.9-1-2.6-1.8c-0.7-0.8-1.2-1.7-1.5-2.7c-0.3-1-0.5-2.2-0.5-3.4
		c0-1.2,0.2-2.4,0.5-3.4c0.4-1.1,0.9-2,1.6-2.8c0.7-0.8,1.6-1.4,2.6-1.8c1-0.4,2.2-0.7,3.6-0.7c1.3,0,2.5,0.2,3.6,0.7
		c1,0.4,1.9,1,2.6,1.8c0.7,0.8,1.2,1.7,1.6,2.8s0.5,2.2,0.5,3.5c0,1.2-0.2,2.4-0.5,3.4c-0.4,1-0.9,2-1.6,2.7
		c-0.7,0.8-1.5,1.4-2.6,1.8C70,191.8,68.8,192,67.5,192z M67.6,187.9c0.9,0,1.5-0.4,1.9-1.2c0.4-0.8,0.6-1.9,0.6-3.3
		c0-1.4-0.2-2.5-0.7-3.3c-0.4-0.8-1.1-1.2-2-1.2s-1.6,0.4-2,1.2c-0.4,0.8-0.6,1.9-0.6,3.3c0,1.4,0.2,2.5,0.7,3.3
		C65.9,187.5,66.6,187.9,67.6,187.9z"/>
	<path class="st0" d="M88.2,189.2c-0.4,0.8-1,1.5-1.7,1.9c-0.7,0.4-1.6,0.7-2.7,0.7c-1,0-1.8-0.2-2.6-0.6c-0.8-0.4-1.5-0.9-2-1.6
		c-0.6-0.7-1-1.6-1.3-2.7c-0.3-1.1-0.5-2.3-0.5-3.7c0-1.6,0.2-2.9,0.6-4c0.4-1.1,0.9-1.9,1.5-2.6c0.6-0.7,1.3-1.1,2.1-1.4
		c0.8-0.3,1.5-0.4,2.3-0.4c1,0,1.9,0.2,2.6,0.6c0.7,0.4,1.2,0.9,1.5,1.5v-7.9h5.4v22.6h-5.1V189.2z M87.8,183c0-0.5,0-1-0.1-1.5
		c-0.1-0.5-0.2-0.9-0.4-1.3c-0.2-0.4-0.4-0.7-0.8-0.9c-0.3-0.2-0.7-0.3-1.2-0.3c-0.8,0-1.4,0.3-1.8,1c-0.4,0.7-0.6,1.7-0.6,3
		c0,1.4,0.2,2.5,0.7,3.3s1.1,1.2,1.8,1.2c0.4,0,0.8-0.1,1.1-0.3c0.3-0.2,0.5-0.5,0.7-0.9c0.2-0.4,0.3-0.8,0.4-1.4
		c0.1-0.5,0.1-1.1,0.1-1.7V183z"/>
	<path class="st0" d="M106.1,191.5c-0.1-0.2-0.2-0.5-0.3-0.9c-0.1-0.4-0.1-0.7-0.2-1c-0.3,0.6-0.8,1.2-1.5,1.7
		c-0.7,0.5-1.7,0.8-2.9,0.8c-0.9,0-1.6-0.1-2.3-0.4c-0.7-0.3-1.2-0.6-1.7-1.1c-0.5-0.5-0.8-1-1-1.7c-0.2-0.6-0.4-1.3-0.4-2.1
		c0-0.8,0.1-1.6,0.4-2.2s0.7-1.1,1.2-1.6c0.5-0.4,1.2-0.8,2-1c0.8-0.3,1.6-0.5,2.6-0.6l3.3-0.5v-0.4c0-0.7-0.2-1.1-0.5-1.4
		s-0.8-0.4-1.5-0.4c-1,0-1.9,0.2-2.6,0.5s-1.3,0.8-1.9,1.3l-2.5-3.6c0.3-0.3,0.8-0.6,1.3-0.8c0.5-0.3,1.1-0.5,1.7-0.8
		c0.6-0.2,1.4-0.4,2.1-0.5c0.8-0.1,1.7-0.2,2.6-0.2c2.4,0,4.1,0.5,5.2,1.5c1,1,1.6,2.6,1.6,4.7v5.8c0,0.7,0,1.2,0,1.7
		c0,0.4,0,0.8,0.1,1.2c0.1,0.4,0.1,0.7,0.2,1c0.1,0.3,0.2,0.6,0.4,0.9H106.1z M105.2,184.3l-2.2,0.4c-0.7,0.1-1.3,0.4-1.6,0.7
		s-0.5,0.7-0.5,1.2c0,0.5,0.1,0.9,0.4,1.2c0.3,0.3,0.7,0.5,1.2,0.5c0.7,0,1.4-0.3,1.9-0.9c0.5-0.6,0.8-1.4,0.8-2.5V184.3z"/>
	<path class="st0" d="M114,193.1c0.4,0.1,0.8,0.2,1.2,0.3c0.4,0.1,0.8,0.1,1.1,0.1c0.5,0,0.9-0.1,1.1-0.3c0.3-0.2,0.5-0.6,0.6-1.1
		l-5.9-16.9h5.8l2.8,11l2.8-11h5.8l-5.7,16.2c-0.3,0.9-0.6,1.7-1,2.5c-0.3,0.7-0.7,1.4-1.2,1.9c-0.5,0.5-1.2,1-2,1.3
		c-0.8,0.3-1.8,0.5-3,0.5c-0.2,0-0.4,0-0.7,0c-0.3,0-0.6,0-0.9,0c-0.3,0-0.6,0-0.9-0.1c-0.3,0-0.5-0.1-0.7-0.1L114,193.1z"/>
	<path class="st0" d="M131.4,178.8c0.6-0.3,1-0.5,1.4-0.8c0.4-0.3,0.6-0.5,0.8-0.8c0.2-0.3,0.3-0.6,0.4-1c0.1-0.3,0.1-0.7,0.1-1.1
		v-0.5h-2.7v-5.7h5.9v5.6c0,1-0.1,1.9-0.3,2.6s-0.5,1.3-0.9,1.9c-0.4,0.5-0.9,1-1.5,1.4c-0.6,0.4-1.3,0.7-2.1,1L131.4,178.8z"/>
	<path class="st0" d="M141,186.1c0.3,0.2,0.6,0.5,0.9,0.7c0.4,0.2,0.7,0.5,1.2,0.7c0.4,0.2,0.9,0.3,1.4,0.5c0.5,0.1,0.9,0.2,1.4,0.2
		c0.4,0,0.8-0.1,1.2-0.2c0.4-0.1,0.6-0.4,0.6-0.8c0-0.4-0.2-0.7-0.6-0.9s-1-0.4-1.6-0.6c-0.6-0.2-1.3-0.4-2.1-0.6
		c-0.7-0.2-1.4-0.5-2.1-0.9c-0.6-0.4-1.2-0.9-1.6-1.5c-0.4-0.6-0.6-1.5-0.6-2.5c0-0.9,0.2-1.7,0.6-2.4c0.4-0.7,0.9-1.2,1.5-1.7
		c0.6-0.4,1.4-0.8,2.2-1c0.8-0.2,1.7-0.3,2.6-0.3c1.5,0,2.8,0.2,3.9,0.5s2.1,0.8,3,1.4l-2.5,3.6c-0.2-0.2-0.5-0.4-0.8-0.6
		c-0.3-0.2-0.7-0.4-1.1-0.5c-0.4-0.2-0.9-0.3-1.3-0.4c-0.5-0.1-0.9-0.1-1.3-0.1c-0.4,0-0.7,0.1-0.9,0.2c-0.2,0.1-0.4,0.3-0.4,0.7
		c0,0.4,0.2,0.7,0.6,0.9c0.4,0.2,1,0.4,1.6,0.6c0.6,0.2,1.3,0.4,2,0.7c0.7,0.2,1.4,0.5,2,0.9c0.6,0.4,1.2,0.9,1.6,1.5
		c0.4,0.6,0.6,1.4,0.6,2.3c0,0.9-0.2,1.8-0.6,2.5c-0.4,0.7-1,1.3-1.6,1.7c-0.7,0.5-1.4,0.8-2.3,1c-0.8,0.2-1.7,0.3-2.5,0.3
		c-3.1,0-5.6-0.8-7.6-2.3L141,186.1z"/>
	<path class="st0" d="M162.5,168.9h5.4v22.6h-5.4V168.9z"/>
	<path class="st0" d="M175.7,184.6c0.2,1.3,0.6,2.1,1.2,2.6c0.6,0.5,1.3,0.8,2.1,0.8c0.7,0,1.3-0.1,1.8-0.4c0.5-0.3,0.9-0.8,1.3-1.4
		l4,2.2c-0.8,1.2-1.9,2.1-3.1,2.7c-1.3,0.6-2.7,0.9-4.2,0.9c-1.4,0-2.6-0.2-3.7-0.7c-1.1-0.4-2-1-2.7-1.8s-1.3-1.7-1.6-2.7
		c-0.4-1.1-0.6-2.2-0.6-3.4c0-1.2,0.2-2.4,0.6-3.5s0.9-2,1.6-2.8c0.7-0.8,1.6-1.4,2.6-1.8c1-0.4,2.2-0.7,3.5-0.7
		c1.3,0,2.4,0.2,3.4,0.6c1,0.4,1.8,1,2.5,1.8s1.2,1.7,1.5,2.8c0.4,1.1,0.5,2.3,0.5,3.7c0,0.3,0,0.5,0,0.7s0,0.2,0,0.3H175.7z
		 M178.4,178.7c-1.5,0-2.4,1-2.7,2.9h5.2c0-0.8-0.2-1.5-0.6-2.1C179.9,179,179.3,178.7,178.4,178.7z"/>
	<path class="st0" d="M198.1,191.5c-0.1-0.2-0.2-0.5-0.3-0.9c-0.1-0.4-0.1-0.7-0.2-1c-0.3,0.6-0.8,1.2-1.5,1.7
		c-0.7,0.5-1.7,0.8-2.9,0.8c-0.9,0-1.6-0.1-2.3-0.4c-0.7-0.3-1.2-0.6-1.7-1.1c-0.5-0.5-0.8-1-1-1.7c-0.2-0.6-0.4-1.3-0.4-2.1
		c0-0.8,0.1-1.6,0.4-2.2s0.7-1.1,1.2-1.6c0.5-0.4,1.2-0.8,2-1c0.8-0.3,1.6-0.5,2.6-0.6l3.3-0.5v-0.4c0-0.7-0.2-1.1-0.5-1.4
		c-0.4-0.2-0.8-0.4-1.5-0.4c-1,0-1.9,0.2-2.6,0.5s-1.3,0.8-1.9,1.3l-2.5-3.6c0.3-0.3,0.8-0.6,1.3-0.8s1.1-0.5,1.7-0.8
		c0.6-0.2,1.4-0.4,2.1-0.5c0.8-0.1,1.7-0.2,2.6-0.2c2.4,0,4.1,0.5,5.2,1.5c1,1,1.6,2.6,1.6,4.7v5.8c0,0.7,0,1.2,0,1.7
		c0,0.4,0,0.8,0.1,1.2c0.1,0.4,0.1,0.7,0.2,1c0.1,0.3,0.2,0.6,0.4,0.9H198.1z M197.3,184.3l-2.2,0.4c-0.7,0.1-1.3,0.4-1.6,0.7
		s-0.5,0.7-0.5,1.2c0,0.5,0.1,0.9,0.4,1.2s0.7,0.5,1.2,0.5c0.7,0,1.4-0.3,1.9-0.9c0.5-0.6,0.8-1.4,0.8-2.5V184.3z"/>
	<path class="st0" d="M215.7,189.2c-0.4,0.8-1,1.5-1.7,1.9c-0.7,0.4-1.6,0.7-2.7,0.7c-1,0-1.8-0.2-2.6-0.6c-0.8-0.4-1.5-0.9-2-1.6
		c-0.6-0.7-1-1.6-1.3-2.7c-0.3-1.1-0.5-2.3-0.5-3.7c0-1.6,0.2-2.9,0.6-4c0.4-1.1,0.9-1.9,1.5-2.6c0.6-0.7,1.3-1.1,2.1-1.4
		c0.8-0.3,1.5-0.4,2.3-0.4c1,0,1.9,0.2,2.6,0.6c0.7,0.4,1.2,0.9,1.5,1.5v-7.9h5.4v22.6h-5.1V189.2z M215.4,183c0-0.5,0-1-0.1-1.5
		c-0.1-0.5-0.2-0.9-0.4-1.3c-0.2-0.4-0.4-0.7-0.8-0.9c-0.3-0.2-0.7-0.3-1.2-0.3c-0.8,0-1.4,0.3-1.8,1c-0.4,0.7-0.6,1.7-0.6,3
		c0,1.4,0.2,2.5,0.7,3.3c0.5,0.8,1.1,1.2,1.8,1.2c0.4,0,0.8-0.1,1.1-0.3c0.3-0.2,0.5-0.5,0.7-0.9c0.2-0.4,0.3-0.8,0.4-1.4
		c0.1-0.5,0.1-1.1,0.1-1.7V183z"/>
	<path class="st0" d="M223.9,168.7h5.4v4.3h-5.4V168.7z M223.9,175.2h5.4v16.3h-5.4V175.2z"/>
	<path class="st0" d="M232.4,175.2h4.8l0.4,2.3c0.5-0.8,1.2-1.4,2.1-2c0.9-0.5,1.9-0.8,3-0.8c3.6,0,5.4,2.3,5.4,6.8v9.9h-5.4v-8.6
		c0-1.3-0.2-2.2-0.6-2.7s-1-0.8-1.8-0.8c-0.4,0-0.7,0.1-1.1,0.2c-0.3,0.1-0.6,0.4-0.8,0.7c-0.2,0.3-0.4,0.8-0.5,1.3
		c-0.1,0.6-0.2,1.3-0.2,2.1v7.7h-5.4V175.2z"/>
	<path class="st0" d="M253.2,191.4c0.6,0.6,1.4,1.1,2.3,1.5c0.9,0.4,1.9,0.5,2.8,0.5c1,0,1.7-0.2,2.1-0.7c0.4-0.4,0.6-1.1,0.6-2
		v-1.5c-0.4,0.6-0.9,1-1.6,1.4s-1.6,0.6-2.7,0.6c-0.8,0-1.5-0.1-2.3-0.4c-0.8-0.3-1.4-0.7-2-1.3c-0.6-0.6-1.1-1.5-1.4-2.5
		c-0.4-1-0.5-2.3-0.5-3.8c0-1.4,0.2-2.6,0.5-3.6c0.3-1,0.8-1.9,1.3-2.7c0.6-0.7,1.3-1.3,2.1-1.6c0.8-0.4,1.7-0.6,2.6-0.6
		c1,0,1.9,0.2,2.6,0.6s1.4,1.1,1.8,2l0.7-2.2h4.3v15.4c0,1-0.1,1.9-0.4,2.8s-0.8,1.6-1.4,2.2c-0.6,0.6-1.5,1.1-2.5,1.4
		c-1,0.3-2.2,0.5-3.7,0.5c-1,0-1.8-0.1-2.7-0.2s-1.6-0.3-2.2-0.5s-1.3-0.5-1.8-0.8c-0.5-0.3-1-0.5-1.4-0.8L253.2,191.4z M261,183.2
		c0-0.5,0-1-0.1-1.5c-0.1-0.5-0.2-0.9-0.4-1.3c-0.2-0.4-0.4-0.7-0.8-0.9c-0.3-0.2-0.7-0.4-1.2-0.4c-0.3,0-0.7,0.1-1,0.2
		c-0.3,0.1-0.6,0.4-0.8,0.7c-0.2,0.3-0.4,0.7-0.5,1.2c-0.1,0.5-0.2,1.1-0.2,1.9c0,1.4,0.2,2.4,0.7,3c0.5,0.6,1.1,1,1.9,1
		s1.4-0.3,1.8-1c0.4-0.6,0.6-1.6,0.6-2.8V183.2z"/>
</g>
<g>
	<path class="st0" d="M43.1,203.9h5.4v8.4c0.4-0.7,1-1.3,1.8-1.9c0.8-0.5,1.9-0.8,3.1-0.8c1.9,0,3.2,0.6,4.1,1.8
		c0.9,1.2,1.3,2.9,1.3,5.2v9.8h-5.4v-8.8c0-1-0.2-1.8-0.5-2.4c-0.4-0.6-1-0.8-1.8-0.8c-0.8,0-1.4,0.3-1.9,0.9
		c-0.5,0.6-0.7,1.7-0.7,3.2v7.9h-5.4V203.9z"/>
	<path class="st0" d="M66.6,219.6c0.2,1.3,0.6,2.1,1.2,2.6c0.6,0.5,1.3,0.8,2.1,0.8c0.7,0,1.3-0.1,1.8-0.4c0.5-0.3,0.9-0.8,1.3-1.4
		l4,2.2c-0.8,1.2-1.9,2.1-3.1,2.7c-1.3,0.6-2.7,0.9-4.2,0.9c-1.4,0-2.6-0.2-3.7-0.7s-2-1-2.7-1.8s-1.3-1.7-1.6-2.7
		c-0.4-1.1-0.6-2.2-0.6-3.4c0-1.2,0.2-2.4,0.6-3.5s0.9-2,1.6-2.8c0.7-0.8,1.6-1.4,2.6-1.8c1-0.4,2.2-0.7,3.5-0.7
		c1.3,0,2.4,0.2,3.4,0.6c1,0.4,1.8,1,2.5,1.8s1.2,1.7,1.5,2.8c0.4,1.1,0.5,2.3,0.5,3.7c0,0.3,0,0.5,0,0.7s0,0.2,0,0.3H66.6z
		 M69.2,213.7c-1.5,0-2.4,1-2.7,2.9h5.2c0-0.8-0.2-1.5-0.6-2.1C70.8,214,70.1,213.7,69.2,213.7z"/>
	<path class="st0" d="M89,226.5c-0.1-0.2-0.2-0.5-0.3-0.9c-0.1-0.4-0.1-0.7-0.2-1c-0.3,0.6-0.8,1.2-1.5,1.7
		c-0.7,0.5-1.7,0.8-2.9,0.8c-0.9,0-1.6-0.1-2.3-0.4c-0.7-0.3-1.2-0.6-1.7-1.1c-0.5-0.5-0.8-1-1-1.7c-0.2-0.6-0.4-1.3-0.4-2.1
		c0-0.8,0.1-1.6,0.4-2.2s0.7-1.1,1.2-1.6c0.5-0.4,1.2-0.8,2-1c0.8-0.3,1.6-0.5,2.6-0.6l3.3-0.5v-0.4c0-0.7-0.2-1.1-0.5-1.4
		s-0.8-0.4-1.5-0.4c-1,0-1.9,0.2-2.6,0.5s-1.3,0.8-1.9,1.3l-2.5-3.6c0.3-0.3,0.8-0.6,1.3-0.8c0.5-0.3,1.1-0.5,1.7-0.8
		c0.6-0.2,1.4-0.4,2.1-0.5c0.8-0.1,1.7-0.2,2.6-0.2c2.4,0,4.1,0.5,5.2,1.5c1,1,1.6,2.6,1.6,4.7v5.8c0,0.7,0,1.2,0,1.7
		c0,0.4,0,0.8,0.1,1.2c0.1,0.4,0.1,0.7,0.2,1c0.1,0.3,0.2,0.6,0.4,0.9H89z M88.2,219.3l-2.2,0.4c-0.7,0.1-1.3,0.4-1.6,0.7
		s-0.5,0.7-0.5,1.2c0,0.5,0.1,0.9,0.4,1.2c0.3,0.3,0.7,0.5,1.2,0.5c0.7,0,1.4-0.3,1.9-0.9c0.5-0.6,0.8-1.4,0.8-2.5V219.3z"/>
	<path class="st0" d="M96.7,203.9h5.4v22.6h-5.4V203.9z"/>
	<path class="st0" d="M106.5,213.7h-2.6v-3.5h0.4c0.8,0,1.5-0.1,2-0.4c0.5-0.3,0.9-0.6,1.1-1.1c0.3-0.5,0.5-1,0.6-1.6
		c0.1-0.6,0.3-1.2,0.4-1.7h3.4v4.8h3.4v3.5h-3.4v7.6c0,0.5,0.1,0.9,0.3,1.2c0.2,0.3,0.6,0.5,1.2,0.5c0.2,0,0.4,0,0.6,0
		c0.3,0,0.5-0.1,0.9-0.3l0.4,3.8c-0.6,0.2-1.2,0.4-1.8,0.5c-0.6,0.1-1.2,0.1-1.8,0.1c-1,0-1.8-0.1-2.5-0.4c-0.7-0.3-1.2-0.6-1.6-1.1
		c-0.4-0.4-0.7-1-0.8-1.6c-0.2-0.6-0.2-1.3-0.2-2.1V213.7z"/>
	<path class="st0" d="M117.1,203.9h5.4v8.4c0.4-0.7,1-1.3,1.8-1.9c0.8-0.5,1.9-0.8,3.1-0.8c1.9,0,3.2,0.6,4.1,1.8
		c0.9,1.2,1.3,2.9,1.3,5.2v9.8h-5.4v-8.8c0-1-0.2-1.8-0.5-2.4c-0.4-0.6-1-0.8-1.8-0.8c-0.8,0-1.4,0.3-1.9,0.9
		c-0.5,0.6-0.7,1.7-0.7,3.2v7.9h-5.4V203.9z"/>
	<path class="st0" d="M143,210.2h5.4v2.1c0.4-0.7,0.9-1.4,1.6-1.9c0.7-0.5,1.6-0.8,2.8-0.8c1.8,0,3.3,0.7,4.4,2.1
		c1.1,1.4,1.7,3.5,1.7,6.4c0,1.7-0.2,3.1-0.6,4.2c-0.4,1.1-0.9,2-1.5,2.7c-0.6,0.7-1.3,1.1-2.1,1.4s-1.5,0.4-2.2,0.4
		c-0.8,0-1.6-0.1-2.4-0.4c-0.8-0.3-1.3-0.8-1.7-1.4v7H143V210.2z M148.4,218.5c0,0.6,0,1.1,0.1,1.6c0.1,0.5,0.3,0.9,0.5,1.3
		s0.5,0.7,0.8,0.9c0.3,0.2,0.7,0.3,1.1,0.3c0.7,0,1.3-0.3,1.8-1c0.4-0.7,0.6-1.7,0.6-3.2c0-1.4-0.2-2.5-0.7-3.2
		c-0.4-0.7-1.1-1.1-1.9-1.1c-0.4,0-0.8,0.1-1.1,0.3s-0.5,0.5-0.7,0.9c-0.2,0.4-0.3,0.8-0.4,1.3c-0.1,0.5-0.1,1-0.1,1.5V218.5z"/>
	<path class="st0" d="M161.3,203.9h5.4v22.6h-5.4V203.9z"/>
	<path class="st0" d="M179.5,226.5c-0.1-0.2-0.2-0.5-0.3-0.9c-0.1-0.4-0.1-0.7-0.2-1c-0.3,0.6-0.8,1.2-1.5,1.7
		c-0.7,0.5-1.7,0.8-2.9,0.8c-0.9,0-1.6-0.1-2.3-0.4c-0.7-0.3-1.2-0.6-1.7-1.1c-0.5-0.5-0.8-1-1-1.7c-0.2-0.6-0.4-1.3-0.4-2.1
		c0-0.8,0.1-1.6,0.4-2.2s0.7-1.1,1.2-1.6c0.5-0.4,1.2-0.8,2-1c0.8-0.3,1.6-0.5,2.6-0.6l3.3-0.5v-0.4c0-0.7-0.2-1.1-0.5-1.4
		c-0.4-0.2-0.8-0.4-1.5-0.4c-1,0-1.9,0.2-2.6,0.5s-1.3,0.8-1.9,1.3l-2.5-3.6c0.3-0.3,0.8-0.6,1.3-0.8s1.1-0.5,1.7-0.8
		c0.6-0.2,1.4-0.4,2.1-0.5c0.8-0.1,1.7-0.2,2.6-0.2c2.4,0,4.1,0.5,5.2,1.5c1,1,1.6,2.6,1.6,4.7v5.8c0,0.7,0,1.2,0,1.7
		c0,0.4,0,0.8,0.1,1.2c0.1,0.4,0.1,0.7,0.2,1c0.1,0.3,0.2,0.6,0.4,0.9H179.5z M178.7,219.3l-2.2,0.4c-0.7,0.1-1.3,0.4-1.6,0.7
		s-0.5,0.7-0.5,1.2c0,0.5,0.1,0.9,0.4,1.2s0.7,0.5,1.2,0.5c0.7,0,1.4-0.3,1.9-0.9c0.5-0.6,0.8-1.4,0.8-2.5V219.3z"/>
	<path class="st0" d="M187.2,210.2h4.8l0.4,2.3c0.5-0.8,1.2-1.4,2.1-2c0.9-0.5,1.9-0.8,3-0.8c3.6,0,5.4,2.3,5.4,6.8v9.9h-5.4v-8.6
		c0-1.3-0.2-2.2-0.6-2.7s-1-0.8-1.8-0.8c-0.4,0-0.7,0.1-1.1,0.2c-0.3,0.1-0.6,0.4-0.8,0.7c-0.2,0.3-0.4,0.8-0.5,1.3
		c-0.1,0.6-0.2,1.3-0.2,2.1v7.7h-5.4V210.2z"/>
	<path class="st0" d="M207.4,221.1c0.3,0.2,0.6,0.5,0.9,0.7c0.4,0.2,0.7,0.5,1.2,0.7c0.4,0.2,0.9,0.3,1.4,0.5
		c0.5,0.1,0.9,0.2,1.4,0.2c0.4,0,0.8-0.1,1.2-0.2c0.4-0.1,0.6-0.4,0.6-0.8c0-0.4-0.2-0.7-0.6-0.9c-0.4-0.2-1-0.4-1.6-0.6
		c-0.6-0.2-1.3-0.4-2.1-0.6c-0.7-0.2-1.4-0.5-2.1-0.9c-0.6-0.4-1.2-0.9-1.6-1.5c-0.4-0.6-0.6-1.5-0.6-2.5c0-0.9,0.2-1.7,0.6-2.4
		c0.4-0.7,0.9-1.2,1.5-1.7c0.6-0.4,1.4-0.8,2.2-1c0.8-0.2,1.7-0.3,2.6-0.3c1.5,0,2.8,0.2,3.9,0.5s2.1,0.8,3,1.4l-2.5,3.6
		c-0.2-0.2-0.5-0.4-0.8-0.6c-0.3-0.2-0.7-0.4-1.1-0.5s-0.9-0.3-1.3-0.4c-0.5-0.1-0.9-0.1-1.3-0.1c-0.4,0-0.7,0.1-0.9,0.2
		c-0.2,0.1-0.4,0.3-0.4,0.7c0,0.4,0.2,0.7,0.6,0.9c0.4,0.2,1,0.4,1.6,0.6c0.6,0.2,1.3,0.4,2,0.7c0.7,0.2,1.4,0.5,2,0.9
		c0.6,0.4,1.2,0.9,1.6,1.5c0.4,0.6,0.6,1.4,0.6,2.3c0,0.9-0.2,1.8-0.6,2.5c-0.4,0.7-1,1.3-1.6,1.7c-0.7,0.5-1.4,0.8-2.3,1
		c-0.8,0.2-1.7,0.3-2.5,0.3c-3.1,0-5.6-0.8-7.6-2.3L207.4,221.1z"/>
</g>
<g>
	<path class="st0" d="M52.8,261.5c-0.1-0.2-0.2-0.5-0.3-0.9c-0.1-0.4-0.1-0.7-0.2-1c-0.3,0.6-0.8,1.2-1.5,1.7
		c-0.7,0.5-1.7,0.8-2.9,0.8c-0.9,0-1.6-0.1-2.3-0.4c-0.7-0.3-1.2-0.6-1.7-1.1c-0.5-0.5-0.8-1-1-1.7c-0.2-0.6-0.4-1.3-0.4-2.1
		c0-0.8,0.1-1.6,0.4-2.2s0.7-1.1,1.2-1.6c0.5-0.4,1.2-0.8,2-1c0.8-0.3,1.6-0.5,2.6-0.6l3.3-0.5v-0.4c0-0.7-0.2-1.1-0.5-1.4
		s-0.8-0.4-1.5-0.4c-1,0-1.9,0.2-2.6,0.5s-1.3,0.8-1.9,1.3l-2.5-3.6c0.3-0.3,0.8-0.6,1.3-0.8c0.5-0.3,1.1-0.5,1.7-0.8
		c0.6-0.2,1.4-0.4,2.1-0.5c0.8-0.1,1.7-0.2,2.6-0.2c2.4,0,4.1,0.5,5.2,1.5c1,1,1.6,2.6,1.6,4.7v5.8c0,0.7,0,1.2,0,1.7
		c0,0.4,0,0.8,0.1,1.2c0.1,0.4,0.1,0.7,0.2,1c0.1,0.3,0.2,0.6,0.4,0.9H52.8z M52,254.3l-2.2,0.4c-0.7,0.1-1.3,0.4-1.6,0.7
		s-0.5,0.7-0.5,1.2c0,0.5,0.1,0.9,0.4,1.2c0.3,0.3,0.7,0.5,1.2,0.5c0.7,0,1.4-0.3,1.9-0.9c0.5-0.6,0.8-1.4,0.8-2.5V254.3z"/>
	<path class="st0" d="M60.5,245.2h4.8l0.4,2.3c0.5-0.8,1.2-1.4,2.1-2s1.9-0.8,3-0.8c3.6,0,5.4,2.3,5.4,6.8v9.9h-5.4v-8.6
		c0-1.3-0.2-2.2-0.6-2.7c-0.4-0.5-1-0.8-1.8-0.8c-0.4,0-0.7,0.1-1.1,0.2c-0.3,0.1-0.6,0.4-0.8,0.7c-0.2,0.3-0.4,0.8-0.5,1.3
		c-0.1,0.6-0.2,1.3-0.2,2.1v7.7h-5.4V245.2z"/>
	<path class="st0" d="M89.3,259.2c-0.4,0.8-1,1.5-1.7,1.9c-0.7,0.4-1.6,0.7-2.7,0.7c-1,0-1.8-0.2-2.6-0.6c-0.8-0.4-1.5-0.9-2-1.6
		c-0.6-0.7-1-1.6-1.3-2.7c-0.3-1.1-0.5-2.3-0.5-3.7c0-1.6,0.2-2.9,0.6-4c0.4-1.1,0.9-1.9,1.5-2.6c0.6-0.7,1.3-1.1,2.1-1.4
		c0.8-0.3,1.5-0.4,2.3-0.4c1,0,1.9,0.2,2.6,0.6c0.7,0.4,1.2,0.9,1.5,1.5v-7.9h5.4v22.6h-5.1V259.2z M89,253.1c0-0.5,0-1-0.1-1.5
		c-0.1-0.5-0.2-0.9-0.4-1.3c-0.2-0.4-0.4-0.7-0.8-0.9c-0.3-0.2-0.7-0.3-1.2-0.3c-0.8,0-1.4,0.3-1.8,1c-0.4,0.7-0.6,1.7-0.6,3
		c0,1.4,0.2,2.5,0.7,3.3s1.1,1.2,1.8,1.2c0.4,0,0.8-0.1,1.1-0.3c0.3-0.2,0.5-0.5,0.7-0.9c0.2-0.4,0.3-0.8,0.4-1.4
		c0.1-0.5,0.1-1.1,0.1-1.7V253.1z"/>
	<path class="st0" d="M109.6,243.3h-6.4v-4.4h18.5v4.4h-6.4v18.2h-5.8V243.3z"/>
	<path class="st0" d="M123.8,238.9h9.6c1.1,0,2.2,0.1,3.2,0.4c1.1,0.3,2,0.7,2.8,1.2s1.5,1.3,2,2.2c0.5,0.9,0.8,2,0.8,3.4
		c0,1.5-0.2,2.7-0.7,3.6c-0.5,1-1.1,1.8-1.9,2.4c-0.8,0.6-1.7,1.1-2.8,1.3c-1.1,0.3-2.2,0.4-3.5,0.4h-3.9v7.6h-5.8V238.9z
		 M132.6,249.4c0.5,0,1,0,1.4-0.1c0.4-0.1,0.8-0.3,1.1-0.5c0.3-0.2,0.6-0.6,0.8-1c0.2-0.4,0.3-1,0.3-1.6c0-0.5-0.1-1-0.3-1.4
		c-0.2-0.4-0.5-0.7-0.8-0.9c-0.3-0.2-0.7-0.4-1.2-0.5c-0.4-0.1-0.9-0.1-1.4-0.1h-2.9v6.1H132.6z"/>
	<path class="st0" d="M149.3,238.9h5.1l8.8,22.6h-6l-1.6-4.6H148l-1.6,4.6h-5.9L149.3,238.9z M154.1,252.6c-0.4-1.1-0.8-2.2-1.2-3.3
		c-0.4-1.1-0.8-2.3-1.2-3.7c-0.3,1.3-0.7,2.5-1.1,3.6c-0.4,1.1-0.8,2.2-1.2,3.4H154.1z"/>
	<path class="st0" d="M166.5,256.1c0.3,0.2,0.6,0.5,0.9,0.7c0.4,0.2,0.7,0.5,1.2,0.7c0.4,0.2,0.9,0.3,1.4,0.5
		c0.5,0.1,0.9,0.2,1.4,0.2c0.4,0,0.8-0.1,1.2-0.2c0.4-0.1,0.6-0.4,0.6-0.8c0-0.4-0.2-0.7-0.6-0.9c-0.4-0.2-1-0.4-1.6-0.6
		c-0.6-0.2-1.3-0.4-2.1-0.6c-0.7-0.2-1.4-0.5-2.1-0.9c-0.6-0.4-1.2-0.9-1.6-1.5c-0.4-0.6-0.6-1.5-0.6-2.5c0-0.9,0.2-1.7,0.6-2.4
		c0.4-0.7,0.9-1.2,1.5-1.7c0.6-0.4,1.4-0.8,2.2-1c0.8-0.2,1.7-0.3,2.6-0.3c1.5,0,2.8,0.2,3.9,0.5s2.1,0.8,3,1.4l-2.5,3.6
		c-0.2-0.2-0.5-0.4-0.8-0.6c-0.3-0.2-0.7-0.4-1.1-0.5s-0.9-0.3-1.3-0.4c-0.5-0.1-0.9-0.1-1.3-0.1c-0.4,0-0.7,0.1-0.9,0.2
		c-0.2,0.1-0.4,0.3-0.4,0.7c0,0.4,0.2,0.7,0.6,0.9c0.4,0.2,1,0.4,1.6,0.6c0.6,0.2,1.3,0.4,2,0.7c0.7,0.2,1.4,0.5,2,0.9
		c0.6,0.4,1.2,0.9,1.6,1.5c0.4,0.6,0.6,1.4,0.6,2.3c0,0.9-0.2,1.8-0.6,2.5c-0.4,0.7-1,1.3-1.6,1.7c-0.7,0.5-1.4,0.8-2.3,1
		c-0.8,0.2-1.7,0.3-2.5,0.3c-3.1,0-5.6-0.8-7.6-2.3L166.5,256.1z"/>
	<path class="st0" d="M197.6,261.5c-0.1-0.2-0.2-0.5-0.3-0.9c-0.1-0.4-0.1-0.7-0.2-1c-0.3,0.6-0.8,1.2-1.5,1.7
		c-0.7,0.5-1.7,0.8-2.9,0.8c-0.9,0-1.6-0.1-2.3-0.4c-0.7-0.3-1.2-0.6-1.7-1.1c-0.5-0.5-0.8-1-1-1.7c-0.2-0.6-0.4-1.3-0.4-2.1
		c0-0.8,0.1-1.6,0.4-2.2s0.7-1.1,1.2-1.6c0.5-0.4,1.2-0.8,2-1c0.8-0.3,1.6-0.5,2.6-0.6l3.3-0.5v-0.4c0-0.7-0.2-1.1-0.5-1.4
		c-0.4-0.2-0.8-0.4-1.5-0.4c-1,0-1.9,0.2-2.6,0.5s-1.3,0.8-1.9,1.3l-2.5-3.6c0.3-0.3,0.8-0.6,1.3-0.8s1.1-0.5,1.7-0.8
		c0.6-0.2,1.4-0.4,2.1-0.5c0.8-0.1,1.7-0.2,2.6-0.2c2.4,0,4.1,0.5,5.2,1.5c1,1,1.6,2.6,1.6,4.7v5.8c0,0.7,0,1.2,0,1.7
		c0,0.4,0,0.8,0.1,1.2c0.1,0.4,0.1,0.7,0.2,1c0.1,0.3,0.2,0.6,0.4,0.9H197.6z M196.8,254.3l-2.2,0.4c-0.7,0.1-1.3,0.4-1.6,0.7
		s-0.5,0.7-0.5,1.2c0,0.5,0.1,0.9,0.4,1.2s0.7,0.5,1.2,0.5c0.7,0,1.4-0.3,1.9-0.9c0.5-0.6,0.8-1.4,0.8-2.5V254.3z"/>
	<path class="st0" d="M205.3,245.2h4.8l0.4,3c0.5-1,1.2-1.8,2.1-2.5c0.9-0.7,2.1-1,3.6-1v5.5c-0.4-0.1-0.9-0.2-1.7-0.2
		c-0.4,0-0.9,0-1.3,0.1c-0.4,0.1-0.8,0.3-1.2,0.5c-0.4,0.3-0.7,0.7-0.9,1.3c-0.2,0.6-0.4,1.4-0.4,2.3v7.2h-5.4V245.2z"/>
	<path class="st0" d="M222.5,254.6c0.2,1.3,0.6,2.1,1.2,2.6c0.6,0.5,1.3,0.8,2.1,0.8c0.7,0,1.3-0.1,1.8-0.4c0.5-0.3,0.9-0.8,1.3-1.4
		l4,2.2c-0.8,1.2-1.9,2.1-3.1,2.7c-1.3,0.6-2.7,0.9-4.2,0.9c-1.4,0-2.6-0.2-3.7-0.7c-1.1-0.4-2-1-2.7-1.8s-1.3-1.7-1.6-2.7
		c-0.4-1.1-0.6-2.2-0.6-3.4c0-1.2,0.2-2.4,0.6-3.5s0.9-2,1.6-2.8c0.7-0.8,1.6-1.4,2.6-1.8c1-0.4,2.2-0.7,3.5-0.7
		c1.3,0,2.4,0.2,3.4,0.6c1,0.4,1.8,1,2.5,1.8s1.2,1.7,1.5,2.8c0.4,1.1,0.5,2.3,0.5,3.7c0,0.3,0,0.5,0,0.7s0,0.2,0,0.3H222.5z
		 M225.2,248.7c-1.5,0-2.4,1-2.7,2.9h5.2c0-0.8-0.2-1.5-0.6-2.1C226.7,249,226.1,248.7,225.2,248.7z"/>
</g>
<g>
	<path class="st0" d="M44.6,291.1c0.3,0.2,0.6,0.5,0.9,0.7c0.4,0.2,0.7,0.5,1.2,0.7c0.4,0.2,0.9,0.3,1.4,0.5
		c0.5,0.1,0.9,0.2,1.4,0.2c0.4,0,0.8-0.1,1.2-0.2c0.4-0.1,0.6-0.4,0.6-0.8c0-0.4-0.2-0.7-0.6-0.9s-1-0.4-1.6-0.6
		c-0.6-0.2-1.3-0.4-2.1-0.6c-0.7-0.2-1.4-0.5-2.1-0.9c-0.6-0.4-1.2-0.9-1.6-1.5c-0.4-0.6-0.6-1.5-0.6-2.5c0-0.9,0.2-1.7,0.6-2.4
		c0.4-0.7,0.9-1.2,1.5-1.7c0.6-0.4,1.4-0.8,2.2-1c0.8-0.2,1.7-0.3,2.6-0.3c1.5,0,2.8,0.2,3.9,0.5c1.1,0.3,2.1,0.8,3,1.4l-2.5,3.6
		c-0.2-0.2-0.5-0.4-0.8-0.6c-0.3-0.2-0.7-0.4-1.1-0.5c-0.4-0.2-0.9-0.3-1.3-0.4c-0.5-0.1-0.9-0.1-1.3-0.1c-0.4,0-0.7,0.1-0.9,0.2
		c-0.2,0.1-0.4,0.3-0.4,0.7c0,0.4,0.2,0.7,0.6,0.9c0.4,0.2,1,0.4,1.6,0.6c0.6,0.2,1.3,0.4,2,0.7c0.7,0.2,1.4,0.5,2,0.9
		c0.6,0.4,1.2,0.9,1.6,1.5c0.4,0.6,0.6,1.4,0.6,2.3c0,0.9-0.2,1.8-0.6,2.5c-0.4,0.7-1,1.3-1.6,1.7c-0.7,0.5-1.4,0.8-2.3,1
		c-0.8,0.2-1.7,0.3-2.5,0.3c-3.1,0-5.6-0.8-7.6-2.3L44.6,291.1z"/>
	<path class="st0" d="M68.5,296.5c-0.1-0.2-0.2-0.5-0.3-0.9c-0.1-0.4-0.1-0.7-0.2-1c-0.3,0.6-0.8,1.2-1.5,1.7
		c-0.7,0.5-1.7,0.8-2.9,0.8c-0.9,0-1.6-0.1-2.3-0.4c-0.7-0.3-1.2-0.6-1.7-1.1c-0.5-0.5-0.8-1-1-1.7c-0.2-0.6-0.4-1.3-0.4-2.1
		c0-0.8,0.1-1.6,0.4-2.2s0.7-1.1,1.2-1.6c0.5-0.4,1.2-0.8,2-1c0.8-0.3,1.6-0.5,2.6-0.6l3.3-0.5v-0.4c0-0.7-0.2-1.1-0.5-1.4
		s-0.8-0.4-1.5-0.4c-1,0-1.9,0.2-2.6,0.5s-1.3,0.8-1.9,1.3l-2.5-3.6c0.3-0.3,0.8-0.6,1.3-0.8c0.5-0.3,1.1-0.5,1.7-0.8
		c0.6-0.2,1.4-0.4,2.1-0.5c0.8-0.1,1.7-0.2,2.6-0.2c2.4,0,4.1,0.5,5.2,1.5c1,1,1.6,2.6,1.6,4.7v5.8c0,0.7,0,1.2,0,1.7
		c0,0.4,0,0.8,0.1,1.2c0.1,0.4,0.1,0.7,0.2,1c0.1,0.3,0.2,0.6,0.4,0.9H68.5z M67.7,289.3l-2.2,0.4c-0.7,0.1-1.3,0.4-1.6,0.7
		s-0.5,0.7-0.5,1.2c0,0.5,0.1,0.9,0.4,1.2c0.3,0.3,0.7,0.5,1.2,0.5c0.7,0,1.4-0.3,1.9-0.9c0.5-0.6,0.8-1.4,0.8-2.5V289.3z"/>
	<path class="st0" d="M74.2,280.2h6l2.6,11.3l2.6-11.3h5.8l-5.4,16.3h-6.3L74.2,280.2z"/>
	<path class="st0" d="M92.8,273.8h5.4v4.3h-5.4V273.8z M92.8,280.2h5.4v16.3h-5.4V280.2z"/>
	<path class="st0" d="M101.3,280.2h4.8l0.4,2.3c0.5-0.8,1.2-1.4,2.1-2s1.9-0.8,3-0.8c3.6,0,5.4,2.3,5.4,6.8v9.9h-5.4v-8.6
		c0-1.3-0.2-2.2-0.6-2.7c-0.4-0.5-1-0.8-1.8-0.8c-0.4,0-0.7,0.1-1.1,0.2c-0.3,0.1-0.6,0.4-0.8,0.7c-0.2,0.3-0.4,0.8-0.5,1.3
		c-0.1,0.6-0.2,1.3-0.2,2.1v7.7h-5.4V280.2z"/>
	<path class="st0" d="M122.1,296.5c0.6,0.6,1.4,1.1,2.3,1.5c0.9,0.4,1.9,0.5,2.8,0.5c1,0,1.7-0.2,2.1-0.7c0.4-0.4,0.6-1.1,0.6-2
		v-1.5c-0.4,0.6-0.9,1-1.6,1.4c-0.7,0.4-1.6,0.6-2.7,0.6c-0.8,0-1.5-0.1-2.3-0.4s-1.4-0.7-2-1.3c-0.6-0.6-1.1-1.5-1.4-2.5
		c-0.4-1-0.5-2.3-0.5-3.8c0-1.4,0.2-2.6,0.5-3.6c0.3-1,0.8-1.9,1.3-2.7c0.6-0.7,1.3-1.3,2.1-1.6c0.8-0.4,1.7-0.6,2.6-0.6
		c1,0,1.9,0.2,2.6,0.6c0.7,0.4,1.4,1.1,1.8,2l0.7-2.2h4.3v15.4c0,1-0.1,1.9-0.4,2.8c-0.3,0.8-0.8,1.6-1.4,2.2
		c-0.6,0.6-1.5,1.1-2.5,1.4c-1,0.3-2.2,0.5-3.7,0.5c-1,0-1.8-0.1-2.7-0.2s-1.6-0.3-2.2-0.5c-0.7-0.2-1.3-0.5-1.8-0.8s-1-0.5-1.4-0.8
		L122.1,296.5z M129.9,288.3c0-0.5,0-1-0.1-1.5c-0.1-0.5-0.2-0.9-0.4-1.3c-0.2-0.4-0.4-0.7-0.8-0.9c-0.3-0.2-0.7-0.4-1.2-0.4
		c-0.3,0-0.7,0.1-1,0.2c-0.3,0.1-0.6,0.4-0.8,0.7c-0.2,0.3-0.4,0.7-0.5,1.2c-0.1,0.5-0.2,1.1-0.2,1.9c0,1.4,0.2,2.4,0.7,3
		c0.5,0.6,1.1,1,1.9,1c0.8,0,1.4-0.3,1.8-1c0.4-0.6,0.6-1.6,0.6-2.8V288.3z"/>
	<path class="st0" d="M145.5,280.2h5.4v9c0,1,0.2,1.8,0.5,2.3c0.3,0.5,0.9,0.8,1.7,0.8c0.9,0,1.5-0.3,2-1c0.5-0.7,0.7-1.7,0.7-3.2
		v-7.9h5.4v16.3H156v-2.4c-0.4,0.9-1,1.5-1.7,2s-1.8,0.8-3.1,0.8c-1.9,0-3.4-0.6-4.3-1.7c-0.9-1.1-1.4-2.7-1.4-4.8V280.2z"/>
	<path class="st0" d="M164.2,280.2h5.4v2.1c0.4-0.7,0.9-1.4,1.6-1.9c0.7-0.5,1.6-0.8,2.8-0.8c1.8,0,3.3,0.7,4.4,2.1
		c1.1,1.4,1.7,3.5,1.7,6.4c0,1.7-0.2,3.1-0.6,4.2c-0.4,1.1-0.9,2-1.5,2.7c-0.6,0.7-1.3,1.1-2.1,1.4s-1.5,0.4-2.2,0.4
		c-0.8,0-1.6-0.1-2.4-0.4c-0.8-0.3-1.3-0.8-1.7-1.4v7h-5.4V280.2z M169.6,288.6c0,0.6,0,1.1,0.1,1.6c0.1,0.5,0.3,0.9,0.5,1.3
		s0.5,0.7,0.8,0.9c0.3,0.2,0.7,0.3,1.1,0.3c0.7,0,1.3-0.3,1.8-1c0.4-0.7,0.6-1.7,0.6-3.2c0-1.4-0.2-2.5-0.7-3.2s-1.1-1.1-1.9-1.1
		c-0.4,0-0.8,0.1-1.1,0.3c-0.3,0.2-0.5,0.5-0.7,0.9c-0.2,0.4-0.3,0.8-0.4,1.3c-0.1,0.5-0.1,1-0.1,1.5V288.6z"/>
	<path class="st0" d="M190.9,283.7h-2.6v-3.5h0.4c0.8,0,1.5-0.1,2-0.4c0.5-0.3,0.9-0.6,1.1-1.1c0.3-0.5,0.5-1,0.6-1.6
		c0.1-0.6,0.3-1.2,0.4-1.7h3.4v4.8h3.4v3.5h-3.4v7.6c0,0.5,0.1,0.9,0.3,1.2c0.2,0.3,0.6,0.5,1.2,0.5c0.2,0,0.4,0,0.6,0
		c0.3,0,0.5-0.1,0.9-0.3l0.4,3.8c-0.6,0.2-1.2,0.4-1.8,0.5c-0.6,0.1-1.2,0.1-1.8,0.1c-1,0-1.8-0.1-2.5-0.4c-0.7-0.3-1.2-0.6-1.6-1.1
		c-0.4-0.4-0.7-1-0.8-1.6c-0.2-0.6-0.2-1.3-0.2-2.1V283.7z"/>
	<path class="st0" d="M208.9,297c-1.4,0-2.6-0.2-3.6-0.7s-1.9-1-2.6-1.8s-1.2-1.7-1.5-2.7c-0.3-1-0.5-2.2-0.5-3.4
		c0-1.2,0.2-2.4,0.5-3.4c0.4-1.1,0.9-2,1.6-2.8c0.7-0.8,1.6-1.4,2.6-1.8c1-0.4,2.2-0.7,3.6-0.7c1.3,0,2.5,0.2,3.6,0.7
		c1,0.4,1.9,1,2.6,1.8c0.7,0.8,1.2,1.7,1.6,2.8s0.5,2.2,0.5,3.5c0,1.2-0.2,2.4-0.5,3.4c-0.4,1-0.9,2-1.6,2.7
		c-0.7,0.8-1.5,1.4-2.6,1.8C211.4,296.8,210.2,297,208.9,297z M209,292.9c0.9,0,1.5-0.4,1.9-1.2c0.4-0.8,0.6-1.9,0.6-3.3
		c0-1.4-0.2-2.5-0.7-3.3c-0.4-0.8-1.1-1.2-2-1.2c-0.9,0-1.6,0.4-2,1.2s-0.6,1.9-0.6,3.3c0,1.4,0.2,2.5,0.7,3.3
		C207.3,292.5,208,292.9,209,292.9z"/>
</g>
<g>
	<path class="st0" d="M46.7,320c-0.5-0.1-0.9-0.4-1.4-0.6c-0.4-0.3-0.8-0.6-1.2-1c-0.3-0.4-0.6-0.8-0.8-1.3c-0.2-0.5-0.3-1-0.3-1.5
		c0-1,0.2-1.9,0.7-2.7c0.4-0.8,1-1.4,1.7-1.9c0.7-0.5,1.6-0.9,2.5-1.1c0.9-0.2,1.9-0.4,2.8-0.4c0.9,0,1.8,0.1,2.7,0.4
		s1.7,0.6,2.5,1.1c0.7,0.5,1.3,1.1,1.8,1.9c0.5,0.7,0.7,1.6,0.7,2.7c0,1.1-0.4,2.1-1.1,2.8c-0.7,0.8-1.6,1.3-2.6,1.6
		c1.3,0.2,2.4,0.8,3.2,1.6s1.2,2,1.2,3.4c0,1.3-0.2,2.3-0.7,3.2c-0.5,0.9-1.1,1.6-1.9,2.1c-0.8,0.6-1.7,1-2.7,1.2
		c-1,0.3-2,0.4-3,0.4s-2-0.1-3.1-0.4c-1-0.3-1.9-0.7-2.7-1.2c-0.8-0.6-1.4-1.3-1.9-2.2c-0.5-0.9-0.7-1.9-0.7-3.2
		c0-1.4,0.4-2.5,1.1-3.4C44.1,320.8,45.2,320.3,46.7,320z M50.7,327.8c0.8,0,1.5-0.3,2-0.8s0.8-1.3,0.8-2.2c0-0.9-0.3-1.6-0.8-2.2
		c-0.5-0.6-1.2-0.8-2-0.8c-1,0-1.7,0.3-2.2,0.8s-0.7,1.3-0.7,2.2c0,0.8,0.3,1.5,0.8,2.1C49.1,327.5,49.8,327.8,50.7,327.8z
		 M48.3,316c0,0.7,0.2,1.4,0.7,1.9c0.4,0.5,1,0.8,1.7,0.8c0.7,0,1.2-0.3,1.7-0.8c0.4-0.5,0.7-1.2,0.7-1.9c0-0.7-0.2-1.4-0.7-1.9
		c-0.4-0.5-1-0.8-1.7-0.8c-0.7,0-1.3,0.3-1.7,0.8C48.5,314.6,48.3,315.2,48.3,316z"/>
	<path class="st0" d="M71.9,315.8c-0.2-0.7-0.6-1.2-1.1-1.6c-0.5-0.4-1-0.5-1.6-0.5c-0.4,0-0.7,0.1-1.1,0.2
		c-0.4,0.1-0.7,0.4-1.1,0.8c-0.3,0.4-0.6,0.9-0.8,1.6c-0.2,0.7-0.3,1.6-0.3,2.7v0.2c0,0.1,0,0.1,0,0.3c0.4-0.5,0.9-1,1.7-1.5
		c0.8-0.5,1.8-0.7,3-0.7c1,0,2,0.2,2.8,0.5c0.8,0.3,1.5,0.8,2.1,1.4c0.6,0.6,1,1.3,1.3,2.2c0.3,0.9,0.5,1.9,0.5,2.9
		c0,1-0.2,2-0.5,2.9c-0.3,0.9-0.8,1.7-1.5,2.5c-0.7,0.7-1.5,1.3-2.5,1.7c-1,0.4-2.2,0.6-3.5,0.6c-1.2,0-2.3-0.2-3.4-0.6
		c-1.1-0.4-2-1.1-2.8-1.9c-0.8-0.9-1.5-1.9-2-3.2c-0.5-1.3-0.7-2.8-0.7-4.6c0-2.3,0.3-4.2,0.8-5.7c0.5-1.5,1.2-2.8,2.1-3.7
		c0.9-0.9,1.8-1.6,2.8-2c1-0.4,2-0.6,3-0.6c1,0,1.8,0.1,2.6,0.3c0.8,0.2,1.5,0.5,2.1,0.9c0.6,0.4,1.1,0.8,1.6,1.3
		c0.4,0.5,0.8,1,1,1.6L71.9,315.8z M69,328.1c0.8,0,1.4-0.3,1.8-1c0.4-0.7,0.6-1.5,0.6-2.4c0-1-0.2-1.9-0.6-2.6c-0.4-0.7-1-1-1.8-1
		c-0.8,0-1.4,0.3-1.8,1c-0.4,0.7-0.6,1.6-0.6,2.6c0,1.1,0.2,2,0.7,2.5C67.7,327.8,68.3,328.1,69,328.1z"/>
	<path class="st0" d="M84.9,322.2c-1,0-1.9-0.2-2.7-0.5c-0.8-0.4-1.4-0.9-2-1.5c-0.5-0.6-0.9-1.4-1.2-2.3c-0.3-0.9-0.4-1.8-0.4-2.8
		c0-0.9,0.1-1.8,0.4-2.6c0.3-0.8,0.7-1.5,1.2-2.2c0.5-0.6,1.2-1.1,2-1.5c0.8-0.4,1.7-0.5,2.7-0.5c1.1,0,2.1,0.2,2.8,0.5
		c0.8,0.4,1.4,0.8,2,1.5c0.5,0.6,0.9,1.3,1.1,2.2c0.2,0.8,0.4,1.7,0.4,2.6c0,1-0.1,1.9-0.4,2.7c-0.2,0.9-0.6,1.6-1.1,2.3
		c-0.5,0.6-1.2,1.2-2,1.5C87,322,86,322.2,84.9,322.2z M84.9,318.8c0.3,0,0.5-0.1,0.7-0.4c0.2-0.2,0.3-0.5,0.4-0.9
		c0.1-0.4,0.2-0.8,0.2-1.2c0-0.4,0.1-0.8,0.1-1.2c0-0.4,0-0.8,0-1.2c0-0.4-0.1-0.8-0.2-1.1c-0.1-0.3-0.3-0.6-0.4-0.8
		c-0.2-0.2-0.4-0.3-0.8-0.3c-0.3,0-0.6,0.1-0.8,0.3c-0.2,0.2-0.3,0.5-0.4,0.8c-0.1,0.3-0.2,0.7-0.2,1.1c0,0.4,0,0.8,0,1.2
		s0,0.8,0,1.3c0,0.4,0.1,0.8,0.2,1.2c0.1,0.4,0.3,0.6,0.4,0.9C84.4,318.7,84.6,318.8,84.9,318.8z M97.1,308l2.9,1.3L88.9,332
		l-2.9-1.2L97.1,308z M101.1,331.9c-1,0-1.9-0.2-2.7-0.5c-0.8-0.4-1.4-0.9-2-1.5c-0.5-0.6-0.9-1.4-1.2-2.3c-0.3-0.9-0.4-1.8-0.4-2.8
		c0-0.9,0.1-1.8,0.4-2.6c0.3-0.8,0.7-1.5,1.2-2.2s1.2-1.1,2-1.5c0.8-0.4,1.7-0.5,2.7-0.5c1.1,0,2.1,0.2,2.8,0.5
		c0.8,0.4,1.4,0.8,2,1.5c0.5,0.6,0.9,1.3,1.1,2.2c0.2,0.8,0.4,1.7,0.4,2.6c0,1-0.1,1.9-0.4,2.7c-0.2,0.9-0.6,1.6-1.1,2.3
		c-0.5,0.6-1.2,1.2-2,1.5C103.1,331.7,102.1,331.9,101.1,331.9z M101.1,328.5c0.3,0,0.5-0.1,0.7-0.4c0.2-0.2,0.3-0.5,0.4-0.9
		c0.1-0.4,0.2-0.8,0.2-1.2c0-0.4,0.1-0.8,0.1-1.2c0-0.4,0-0.8,0-1.2c0-0.4-0.1-0.8-0.2-1.1c-0.1-0.3-0.3-0.6-0.4-0.8
		s-0.4-0.3-0.8-0.3s-0.6,0.1-0.8,0.3s-0.3,0.5-0.4,0.8c-0.1,0.3-0.2,0.7-0.2,1.1c0,0.4,0,0.8,0,1.2s0,0.8,0,1.3
		c0,0.4,0.1,0.8,0.2,1.2c0.1,0.4,0.3,0.6,0.4,0.9C100.5,328.4,100.7,328.5,101.1,328.5z"/>
	<path class="st0" d="M116.7,315.2h4.8l0.4,2.3c0.5-0.9,1.1-1.6,1.8-2c0.7-0.5,1.7-0.7,2.8-0.7c1.3,0,2.3,0.3,3.1,0.9
		c0.7,0.6,1.2,1.3,1.6,2c0.2-0.3,0.4-0.7,0.7-1c0.3-0.4,0.6-0.7,1-0.9c0.4-0.3,0.9-0.5,1.5-0.7c0.6-0.2,1.2-0.3,2-0.3
		c1.2,0,2.1,0.2,2.8,0.6c0.7,0.4,1.2,0.9,1.6,1.5c0.4,0.6,0.6,1.3,0.8,2.2s0.2,1.6,0.2,2.5v10h-5.4V323c0-1.2-0.2-2.1-0.5-2.7
		c-0.3-0.6-0.9-0.9-1.7-0.9c-0.3,0-0.5,0-0.8,0.1c-0.3,0.1-0.5,0.3-0.8,0.5s-0.4,0.7-0.5,1.2c-0.1,0.5-0.2,1.2-0.2,2v8.2h-5.4v-8.6
		c0-1.2-0.2-2-0.5-2.6c-0.3-0.6-0.9-0.8-1.6-0.8c-0.3,0-0.5,0-0.8,0.1c-0.3,0.1-0.5,0.3-0.8,0.6s-0.4,0.7-0.6,1.3
		c-0.1,0.6-0.2,1.3-0.2,2.3v7.8h-5.4V315.2z"/>
	<path class="st0" d="M152.3,332c-1.4,0-2.6-0.2-3.6-0.7c-1-0.4-1.9-1-2.6-1.8c-0.7-0.8-1.2-1.7-1.5-2.7c-0.3-1-0.5-2.2-0.5-3.4
		s0.2-2.4,0.5-3.4c0.4-1.1,0.9-2,1.6-2.8c0.7-0.8,1.6-1.4,2.6-1.8c1-0.4,2.2-0.7,3.6-0.7s2.5,0.2,3.6,0.7c1,0.4,1.9,1,2.6,1.8
		c0.7,0.8,1.2,1.7,1.6,2.8s0.5,2.2,0.5,3.5s-0.2,2.4-0.5,3.4s-0.9,2-1.6,2.7c-0.7,0.8-1.5,1.4-2.6,1.8
		C154.8,331.8,153.6,332,152.3,332z M152.4,327.9c0.9,0,1.5-0.4,1.9-1.2s0.6-1.9,0.6-3.3s-0.2-2.5-0.7-3.3c-0.4-0.8-1.1-1.2-2-1.2
		c-0.9,0-1.6,0.4-2,1.2c-0.4,0.8-0.6,1.9-0.6,3.3s0.2,2.5,0.7,3.3S151.4,327.9,152.4,327.9z"/>
	<path class="st0" d="M162.8,315.2h4.8l0.4,3c0.5-1,1.2-1.8,2.1-2.5c0.9-0.7,2.1-1,3.6-1v5.5c-0.4-0.1-0.9-0.2-1.7-0.2
		c-0.4,0-0.9,0-1.3,0.1s-0.8,0.3-1.2,0.5c-0.4,0.3-0.7,0.7-0.9,1.3c-0.2,0.6-0.4,1.4-0.4,2.3v7.2h-5.4V315.2z"/>
	<path class="st0" d="M180,324.6c0.2,1.3,0.6,2.1,1.2,2.6c0.6,0.5,1.3,0.8,2.1,0.8c0.7,0,1.3-0.1,1.8-0.4c0.5-0.3,0.9-0.8,1.3-1.4
		l4,2.2c-0.8,1.2-1.9,2.1-3.1,2.7c-1.3,0.6-2.7,0.9-4.2,0.9c-1.4,0-2.6-0.2-3.7-0.7c-1.1-0.4-2-1-2.7-1.8c-0.7-0.8-1.3-1.7-1.6-2.7
		c-0.4-1.1-0.6-2.2-0.6-3.4c0-1.2,0.2-2.4,0.6-3.5s0.9-2,1.6-2.8c0.7-0.8,1.6-1.4,2.6-1.8c1-0.4,2.2-0.7,3.5-0.7
		c1.3,0,2.4,0.2,3.4,0.6c1,0.4,1.8,1,2.5,1.8c0.7,0.8,1.2,1.7,1.5,2.8c0.4,1.1,0.5,2.3,0.5,3.7c0,0.3,0,0.5,0,0.7c0,0.1,0,0.2,0,0.3
		H180z M182.7,318.7c-1.5,0-2.4,1-2.7,2.9h5.2c0-0.8-0.2-1.5-0.6-2.1C184.2,319,183.6,318.7,182.7,318.7z"/>
	<path class="st0" d="M192.9,325.6h5.9v5.9h-5.9V325.6z"/>
</g>
</svg>
