<?xml version="1.0" encoding="utf-8"?>
<!-- Generator: Adobe Illustrator 22.1.0, SVG Export Plug-In . SVG Version: 6.00 Build 0)  -->
<svg version="1.1" id="Layer_1" xmlns="http://www.w3.org/2000/svg" xmlns:xlink="http://www.w3.org/1999/xlink" x="0px" y="0px"
	 viewBox="0 0 300 600" style="enable-background:new 0 0 300 600;" xml:space="preserve">
<style type="text/css">
	.st0{fill:#662868;}
	.st1{fill:#5D6770;}
</style>
<g>
	<path class="st0" d="M54.8,167.5h16v4.4H60.5v4.9h7.1v4.4h-7.1v9h-5.8V167.5z"/>
	<path class="st0" d="M72.8,167.4h5.4v4.3h-5.4V167.4z M72.8,173.8h5.4v16.3h-5.4V173.8z"/>
	<path class="st0" d="M81.3,173.8h4.8l0.4,2.3c0.5-0.8,1.2-1.4,2.1-2s1.9-0.8,3-0.8c3.6,0,5.4,2.3,5.4,6.8v9.9h-5.4v-8.6
		c0-1.3-0.2-2.2-0.6-2.7c-0.4-0.5-1-0.8-1.8-0.8c-0.4,0-0.7,0.1-1.1,0.2c-0.3,0.1-0.6,0.4-0.8,0.7c-0.2,0.3-0.4,0.8-0.5,1.3
		c-0.1,0.6-0.2,1.3-0.2,2.1v7.7h-5.4V173.8z"/>
	<path class="st0" d="M110.1,187.9c-0.4,0.8-1,1.5-1.7,1.9c-0.7,0.4-1.6,0.7-2.7,0.7c-1,0-1.8-0.2-2.6-0.6c-0.8-0.4-1.5-0.9-2-1.6
		c-0.6-0.7-1-1.6-1.3-2.7c-0.3-1.1-0.5-2.3-0.5-3.7c0-1.6,0.2-2.9,0.6-4c0.4-1.1,0.9-1.9,1.5-2.6c0.6-0.7,1.3-1.1,2.1-1.4
		c0.8-0.3,1.5-0.4,2.3-0.4c1,0,1.9,0.2,2.6,0.6c0.7,0.4,1.2,0.9,1.5,1.5v-7.9h5.4v22.6h-5.1V187.9z M109.8,181.7c0-0.5,0-1-0.1-1.5
		c-0.1-0.5-0.2-0.9-0.4-1.3c-0.2-0.4-0.4-0.7-0.8-0.9c-0.3-0.2-0.7-0.3-1.2-0.3c-0.8,0-1.4,0.3-1.8,1c-0.4,0.7-0.6,1.7-0.6,3
		c0,1.4,0.2,2.5,0.7,3.3s1.1,1.2,1.8,1.2c0.4,0,0.8-0.1,1.1-0.3c0.3-0.2,0.5-0.5,0.7-0.9c0.2-0.4,0.3-0.8,0.4-1.4
		c0.1-0.5,0.1-1.1,0.1-1.7V181.7z"/>
	<path class="st0" d="M133,190.6c-1.4,0-2.6-0.2-3.6-0.7s-1.9-1-2.6-1.8c-0.7-0.8-1.2-1.7-1.5-2.7c-0.3-1-0.5-2.2-0.5-3.4
		c0-1.2,0.2-2.4,0.5-3.4c0.4-1.1,0.9-2,1.6-2.8c0.7-0.8,1.6-1.4,2.6-1.8c1-0.4,2.2-0.7,3.6-0.7c1.3,0,2.5,0.2,3.6,0.7
		c1,0.4,1.9,1,2.6,1.8c0.7,0.8,1.2,1.7,1.6,2.8s0.5,2.2,0.5,3.5c0,1.2-0.2,2.4-0.5,3.4c-0.4,1-0.9,2-1.6,2.7
		c-0.7,0.8-1.5,1.4-2.6,1.8C135.6,190.4,134.4,190.6,133,190.6z M133.1,186.6c0.9,0,1.5-0.4,1.9-1.2c0.4-0.8,0.6-1.9,0.6-3.3
		c0-1.4-0.2-2.5-0.7-3.3c-0.4-0.8-1.1-1.2-2-1.2s-1.6,0.4-2,1.2c-0.4,0.8-0.6,1.9-0.6,3.3c0,1.4,0.2,2.5,0.7,3.3
		C131.5,186.1,132.2,186.6,133.1,186.6z"/>
	<path class="st0" d="M143.5,173.8h5.4v9c0,1,0.2,1.8,0.5,2.3c0.3,0.5,0.9,0.8,1.7,0.8c0.9,0,1.5-0.3,2-1c0.5-0.7,0.7-1.7,0.7-3.2
		v-7.9h5.4v16.3H154v-2.4c-0.4,0.9-1,1.5-1.7,2s-1.8,0.8-3.1,0.8c-1.9,0-3.4-0.6-4.3-1.7c-0.9-1.1-1.4-2.7-1.4-4.8V173.8z"/>
	<path class="st0" d="M163.5,177.3h-2.6v-3.5h0.4c0.8,0,1.5-0.1,2-0.4c0.5-0.3,0.9-0.6,1.1-1.1c0.3-0.5,0.5-1,0.6-1.6
		c0.1-0.6,0.3-1.2,0.4-1.7h3.4v4.8h3.4v3.5h-3.4v7.6c0,0.5,0.1,0.9,0.3,1.2c0.2,0.3,0.6,0.5,1.2,0.5c0.2,0,0.4,0,0.6,0
		c0.3,0,0.5-0.1,0.9-0.3l0.4,3.8c-0.6,0.2-1.2,0.4-1.8,0.5c-0.6,0.1-1.2,0.1-1.8,0.1c-1,0-1.8-0.1-2.5-0.4c-0.7-0.3-1.2-0.6-1.6-1.1
		c-0.4-0.4-0.7-1-0.8-1.6c-0.2-0.6-0.2-1.3-0.2-2.1V177.3z"/>
	<path class="st0" d="M181.3,167.5h5.4v8.4c0.4-0.7,1-1.3,1.8-1.9s1.9-0.8,3.1-0.8c1.9,0,3.2,0.6,4.1,1.8c0.9,1.2,1.3,2.9,1.3,5.2
		v9.8h-5.4v-8.8c0-1-0.2-1.8-0.5-2.4c-0.4-0.6-1-0.8-1.8-0.8c-0.8,0-1.4,0.3-1.9,0.9c-0.5,0.6-0.7,1.7-0.7,3.2v7.9h-5.4V167.5z"/>
	<path class="st0" d="M207.5,190.6c-1.4,0-2.6-0.2-3.6-0.7s-1.9-1-2.6-1.8s-1.2-1.7-1.5-2.7c-0.3-1-0.5-2.2-0.5-3.4
		c0-1.2,0.2-2.4,0.5-3.4c0.4-1.1,0.9-2,1.6-2.8c0.7-0.8,1.6-1.4,2.6-1.8c1-0.4,2.2-0.7,3.6-0.7c1.3,0,2.5,0.2,3.6,0.7
		c1,0.4,1.9,1,2.6,1.8c0.7,0.8,1.2,1.7,1.6,2.8s0.5,2.2,0.5,3.5c0,1.2-0.2,2.4-0.5,3.4c-0.4,1-0.9,2-1.6,2.7
		c-0.7,0.8-1.5,1.4-2.6,1.8C210.1,190.4,208.9,190.6,207.5,190.6z M207.6,186.6c0.9,0,1.5-0.4,1.9-1.2c0.4-0.8,0.6-1.9,0.6-3.3
		c0-1.4-0.2-2.5-0.7-3.3c-0.4-0.8-1.1-1.2-2-1.2c-0.9,0-1.6,0.4-2,1.2s-0.6,1.9-0.6,3.3c0,1.4,0.2,2.5,0.7,3.3
		C206,186.1,206.7,186.6,207.6,186.6z"/>
	<path class="st0" d="M216.2,173.8h5.8l2.4,11.1l2.1-11.1h5.7l2.1,11.1l2.4-11.1h5.8l-5.3,16.3h-5.8l-2-8.7l-2,8.7h-5.8L216.2,173.8
		z"/>
</g>
<g>
	<path class="st0" d="M69.3,221.8c-0.8,1.4-1.8,2.4-3.1,3s-2.7,0.9-4.3,0.9c-1.5,0-2.7-0.2-3.7-0.7c-1-0.4-1.9-1.1-2.6-1.8
		s-1.2-1.7-1.5-2.7c-0.3-1-0.5-2.2-0.5-3.4c0-1.3,0.2-2.5,0.6-3.6c0.4-1.1,0.9-2,1.6-2.8c0.7-0.8,1.6-1.3,2.6-1.7
		c1-0.4,2.2-0.6,3.5-0.6c1.7,0,3.1,0.3,4.3,1c1.2,0.7,2.2,1.7,3,3.1l-4.4,2.1c-0.3-0.8-0.7-1.3-1.2-1.6s-1-0.5-1.5-0.5
		c-1,0-1.7,0.4-2.2,1.2c-0.4,0.8-0.7,1.8-0.7,3.1c0,0.5,0,1,0.1,1.6c0.1,0.6,0.2,1.1,0.5,1.5c0.2,0.5,0.5,0.9,0.9,1.2
		c0.4,0.3,0.9,0.5,1.6,0.5c0.7,0,1.3-0.2,1.8-0.6c0.5-0.4,0.8-0.9,1.1-1.6L69.3,221.8z"/>
	<path class="st0" d="M78.3,225.7c-1.4,0-2.6-0.2-3.6-0.7s-1.9-1-2.6-1.8c-0.7-0.8-1.2-1.7-1.5-2.7c-0.3-1-0.5-2.2-0.5-3.4
		c0-1.2,0.2-2.4,0.5-3.4c0.4-1.1,0.9-2,1.6-2.8c0.7-0.8,1.6-1.4,2.6-1.8c1-0.4,2.2-0.7,3.6-0.7c1.3,0,2.5,0.2,3.6,0.7
		c1,0.4,1.9,1,2.6,1.8c0.7,0.8,1.2,1.7,1.6,2.8s0.5,2.2,0.5,3.5c0,1.2-0.2,2.4-0.5,3.4c-0.4,1-0.9,2-1.6,2.7
		c-0.7,0.8-1.5,1.4-2.6,1.8C80.9,225.4,79.7,225.7,78.3,225.7z M78.4,221.6c0.9,0,1.5-0.4,1.9-1.2c0.4-0.8,0.6-1.9,0.6-3.3
		c0-1.4-0.2-2.5-0.7-3.3c-0.4-0.8-1.1-1.2-2-1.2s-1.6,0.4-2,1.2c-0.4,0.8-0.6,1.9-0.6,3.3c0,1.4,0.2,2.5,0.7,3.3
		C76.8,221.2,77.5,221.6,78.4,221.6z"/>
	<path class="st0" d="M88.9,208.9h4.8l0.4,2.3c0.5-0.9,1.1-1.6,1.8-2c0.7-0.5,1.7-0.7,2.8-0.7c1.3,0,2.3,0.3,3.1,0.9
		c0.7,0.6,1.2,1.3,1.6,2c0.2-0.3,0.4-0.7,0.7-1c0.3-0.4,0.6-0.7,1-0.9c0.4-0.3,0.9-0.5,1.5-0.7c0.6-0.2,1.2-0.3,2-0.3
		c1.2,0,2.1,0.2,2.8,0.6c0.7,0.4,1.2,0.9,1.6,1.5c0.4,0.6,0.6,1.3,0.8,2.2c0.1,0.8,0.2,1.6,0.2,2.5v10h-5.4v-8.5
		c0-1.2-0.2-2.1-0.5-2.7c-0.3-0.6-0.9-0.9-1.7-0.9c-0.3,0-0.5,0-0.8,0.1c-0.3,0.1-0.5,0.3-0.8,0.5c-0.2,0.3-0.4,0.7-0.5,1.2
		c-0.1,0.5-0.2,1.2-0.2,2v8.2h-5.4v-8.6c0-1.2-0.2-2-0.5-2.6c-0.3-0.6-0.9-0.8-1.6-0.8c-0.3,0-0.5,0-0.8,0.1
		c-0.3,0.1-0.5,0.3-0.8,0.6c-0.2,0.3-0.4,0.7-0.6,1.3c-0.1,0.6-0.2,1.3-0.2,2.3v7.8h-5.4V208.9z"/>
	<path class="st0" d="M117,208.9h5.4v2.1c0.4-0.7,0.9-1.4,1.6-1.9c0.7-0.5,1.6-0.8,2.8-0.8c1.8,0,3.3,0.7,4.4,2.1
		c1.1,1.4,1.7,3.5,1.7,6.4c0,1.7-0.2,3.1-0.6,4.2c-0.4,1.1-0.9,2-1.5,2.7c-0.6,0.7-1.3,1.1-2.1,1.4s-1.5,0.4-2.2,0.4
		c-0.8,0-1.6-0.1-2.4-0.4s-1.3-0.8-1.7-1.4v7H117V208.9z M122.3,217.2c0,0.6,0,1.1,0.1,1.6c0.1,0.5,0.3,0.9,0.5,1.3s0.5,0.7,0.8,0.9
		c0.3,0.2,0.7,0.3,1.1,0.3c0.7,0,1.3-0.3,1.8-1s0.6-1.7,0.6-3.2c0-1.4-0.2-2.5-0.7-3.2c-0.4-0.7-1.1-1.1-1.9-1.1
		c-0.4,0-0.8,0.1-1.1,0.3s-0.5,0.5-0.7,0.9c-0.2,0.4-0.3,0.8-0.4,1.3c-0.1,0.5-0.1,1-0.1,1.5V217.2z"/>
	<path class="st0" d="M144.6,225.1c-0.1-0.2-0.2-0.5-0.3-0.9c-0.1-0.4-0.1-0.7-0.2-1c-0.3,0.6-0.8,1.2-1.5,1.7
		c-0.7,0.5-1.7,0.8-2.9,0.8c-0.9,0-1.6-0.1-2.3-0.4c-0.7-0.3-1.2-0.6-1.7-1.1c-0.5-0.5-0.8-1-1-1.7c-0.2-0.6-0.4-1.3-0.4-2.1
		c0-0.8,0.1-1.6,0.4-2.2s0.7-1.1,1.2-1.6c0.5-0.4,1.2-0.8,2-1c0.8-0.3,1.6-0.5,2.6-0.6l3.3-0.5v-0.4c0-0.7-0.2-1.1-0.5-1.4
		s-0.8-0.4-1.5-0.4c-1,0-1.9,0.2-2.6,0.5s-1.3,0.8-1.9,1.3l-2.5-3.6c0.3-0.3,0.8-0.6,1.3-0.8c0.5-0.3,1.1-0.5,1.7-0.8
		c0.6-0.2,1.4-0.4,2.1-0.5c0.8-0.1,1.7-0.2,2.6-0.2c2.4,0,4.1,0.5,5.2,1.5c1,1,1.6,2.6,1.6,4.7v5.8c0,0.7,0,1.2,0,1.7
		c0,0.4,0,0.8,0.1,1.2c0.1,0.4,0.1,0.7,0.2,1c0.1,0.3,0.2,0.6,0.4,0.9H144.6z M143.7,217.9l-2.2,0.4c-0.7,0.1-1.3,0.4-1.6,0.7
		s-0.5,0.7-0.5,1.2c0,0.5,0.1,0.9,0.4,1.2c0.3,0.3,0.7,0.5,1.2,0.5c0.7,0,1.4-0.3,1.9-0.9c0.5-0.6,0.8-1.4,0.8-2.5V217.9z"/>
	<path class="st0" d="M152.3,208.9h4.8l0.4,2.3c0.5-0.8,1.2-1.4,2.1-2c0.9-0.5,1.9-0.8,3-0.8c3.6,0,5.4,2.3,5.4,6.8v9.9h-5.4v-8.6
		c0-1.3-0.2-2.2-0.6-2.7s-1-0.8-1.8-0.8c-0.4,0-0.7,0.1-1.1,0.2c-0.3,0.1-0.6,0.4-0.8,0.7c-0.2,0.3-0.4,0.8-0.5,1.3
		c-0.1,0.6-0.2,1.3-0.2,2.1v7.7h-5.4V208.9z"/>
	<path class="st0" d="M171,202.4h5.4v4.3H171V202.4z M171,208.9h5.4v16.3H171V208.9z"/>
	<path class="st0" d="M184.3,218.3c0.2,1.3,0.6,2.1,1.2,2.6c0.6,0.5,1.3,0.8,2.1,0.8c0.7,0,1.3-0.1,1.8-0.4c0.5-0.3,0.9-0.8,1.3-1.4
		l4,2.2c-0.8,1.2-1.9,2.1-3.1,2.7c-1.3,0.6-2.7,0.9-4.2,0.9c-1.4,0-2.6-0.2-3.7-0.7c-1.1-0.4-2-1-2.7-1.8s-1.3-1.7-1.6-2.7
		c-0.4-1.1-0.6-2.2-0.6-3.4c0-1.2,0.2-2.4,0.6-3.5s0.9-2,1.6-2.8c0.7-0.8,1.6-1.4,2.6-1.8c1-0.4,2.2-0.7,3.5-0.7
		c1.3,0,2.4,0.2,3.4,0.6c1,0.4,1.8,1,2.5,1.8s1.2,1.7,1.5,2.8c0.4,1.1,0.5,2.3,0.5,3.7c0,0.3,0,0.5,0,0.7s0,0.2,0,0.3H184.3z
		 M186.9,212.3c-1.5,0-2.4,1-2.7,2.9h5.2c0-0.8-0.2-1.5-0.6-2.1C188.5,212.6,187.8,212.3,186.9,212.3z"/>
	<path class="st0" d="M198.6,219.7c0.3,0.2,0.6,0.5,0.9,0.7c0.4,0.2,0.7,0.5,1.2,0.7c0.4,0.2,0.9,0.3,1.4,0.5
		c0.5,0.1,0.9,0.2,1.4,0.2c0.4,0,0.8-0.1,1.2-0.2c0.4-0.1,0.6-0.4,0.6-0.8c0-0.4-0.2-0.7-0.6-0.9c-0.4-0.2-1-0.4-1.6-0.6
		c-0.6-0.2-1.3-0.4-2.1-0.6c-0.7-0.2-1.4-0.5-2.1-0.9c-0.6-0.4-1.2-0.9-1.6-1.5c-0.4-0.6-0.6-1.5-0.6-2.5c0-0.9,0.2-1.7,0.6-2.4
		c0.4-0.7,0.9-1.2,1.5-1.7c0.6-0.4,1.4-0.8,2.2-1c0.8-0.2,1.7-0.3,2.6-0.3c1.5,0,2.8,0.2,3.9,0.5s2.1,0.8,3,1.4l-2.5,3.6
		c-0.2-0.2-0.5-0.4-0.8-0.6c-0.3-0.2-0.7-0.4-1.1-0.5s-0.9-0.3-1.3-0.4c-0.5-0.1-0.9-0.1-1.3-0.1c-0.4,0-0.7,0.1-0.9,0.2
		c-0.2,0.1-0.4,0.3-0.4,0.7c0,0.4,0.2,0.7,0.6,0.9c0.4,0.2,1,0.4,1.6,0.6c0.6,0.2,1.3,0.4,2,0.7c0.7,0.2,1.4,0.5,2,0.9
		c0.6,0.4,1.2,0.9,1.6,1.5c0.4,0.6,0.6,1.4,0.6,2.3c0,0.9-0.2,1.8-0.6,2.5c-0.4,0.7-1,1.3-1.6,1.7c-0.7,0.5-1.4,0.8-2.3,1
		c-0.8,0.2-1.7,0.3-2.5,0.3c-3.1,0-5.6-0.8-7.6-2.3L198.6,219.7z"/>
</g>
<g>
	<path class="st0" d="M54.5,237.6h5.4v22.6h-5.4V237.6z"/>
	<path class="st0" d="M63,237.4h5.4v4.3H63V237.4z M63,243.9h5.4v16.3H63V243.9z"/>
	<path class="st0" d="M71.5,237.6h5.4v12.3l5.4-6h6.6l-6.4,6.2l6.4,10.1h-6.1l-3.7-6.8l-2.1,2v4.8h-5.4V237.6z"/>
	<path class="st0" d="M94.3,253.3c0.2,1.3,0.6,2.1,1.2,2.6c0.6,0.5,1.3,0.8,2.1,0.8c0.7,0,1.3-0.1,1.8-0.4c0.5-0.3,0.9-0.8,1.3-1.4
		l4,2.2c-0.8,1.2-1.9,2.1-3.1,2.7c-1.3,0.6-2.7,0.9-4.2,0.9c-1.4,0-2.6-0.2-3.7-0.7s-2-1-2.7-1.8s-1.3-1.7-1.6-2.7
		c-0.4-1.1-0.6-2.2-0.6-3.4c0-1.2,0.2-2.4,0.6-3.5s0.9-2,1.6-2.8c0.7-0.8,1.6-1.4,2.6-1.8c1-0.4,2.2-0.7,3.5-0.7
		c1.3,0,2.4,0.2,3.4,0.6c1,0.4,1.8,1,2.5,1.8s1.2,1.7,1.5,2.8c0.4,1.1,0.5,2.3,0.5,3.7c0,0.3,0,0.5,0,0.7s0,0.2,0,0.3H94.3z
		 M96.9,247.3c-1.5,0-2.4,1-2.7,2.9h5.2c0-0.8-0.2-1.5-0.6-2.1C98.5,247.6,97.8,247.3,96.9,247.3z"/>
	<path class="st0" d="M114.9,261.8c0.4,0.1,0.8,0.2,1.2,0.3c0.4,0.1,0.8,0.1,1.1,0.1c0.5,0,0.9-0.1,1.1-0.3c0.3-0.2,0.5-0.6,0.6-1.1
		l-5.9-16.9h5.8l2.8,11l2.8-11h5.8l-5.7,16.2c-0.3,0.9-0.6,1.7-1,2.5c-0.3,0.7-0.7,1.4-1.2,1.9c-0.5,0.5-1.2,1-2,1.3
		c-0.8,0.3-1.8,0.5-3,0.5c-0.2,0-0.4,0-0.7,0c-0.3,0-0.6,0-0.9,0c-0.3,0-0.6,0-0.9-0.1c-0.3,0-0.5-0.1-0.7-0.1L114.9,261.8z"/>
	<path class="st0" d="M138.9,260.7c-1.4,0-2.6-0.2-3.6-0.7s-1.9-1-2.6-1.8c-0.7-0.8-1.2-1.7-1.5-2.7c-0.3-1-0.5-2.2-0.5-3.4
		c0-1.2,0.2-2.4,0.5-3.4c0.4-1.1,0.9-2,1.6-2.8c0.7-0.8,1.6-1.4,2.6-1.8c1-0.4,2.2-0.7,3.6-0.7c1.3,0,2.5,0.2,3.6,0.7
		c1,0.4,1.9,1,2.6,1.8c0.7,0.8,1.2,1.7,1.6,2.8s0.5,2.2,0.5,3.5c0,1.2-0.2,2.4-0.5,3.4c-0.4,1-0.9,2-1.6,2.7
		c-0.7,0.8-1.5,1.4-2.6,1.8C141.4,260.4,140.2,260.7,138.9,260.7z M139,256.6c0.9,0,1.5-0.4,1.9-1.2c0.4-0.8,0.6-1.9,0.6-3.3
		c0-1.4-0.2-2.5-0.7-3.3c-0.4-0.8-1.1-1.2-2-1.2s-1.6,0.4-2,1.2c-0.4,0.8-0.6,1.9-0.6,3.3c0,1.4,0.2,2.5,0.7,3.3
		C137.3,256.2,138,256.6,139,256.6z"/>
	<path class="st0" d="M149.4,243.9h5.4v9c0,1,0.2,1.8,0.5,2.3c0.3,0.5,0.9,0.8,1.7,0.8c0.9,0,1.5-0.3,2-1c0.5-0.7,0.7-1.7,0.7-3.2
		v-7.9h5.4v16.3h-5.1v-2.4c-0.4,0.9-1,1.5-1.7,2s-1.8,0.8-3.1,0.8c-1.9,0-3.4-0.6-4.3-1.7c-0.9-1.1-1.4-2.7-1.4-4.8V243.9z"/>
	<path class="st0" d="M168.1,243.9h4.8l0.4,3c0.5-1,1.2-1.8,2.1-2.5c0.9-0.7,2.1-1,3.6-1v5.5c-0.4-0.1-0.9-0.2-1.7-0.2
		c-0.4,0-0.9,0-1.3,0.1c-0.4,0.1-0.8,0.3-1.2,0.5c-0.4,0.3-0.7,0.7-0.9,1.3c-0.2,0.6-0.4,1.4-0.4,2.3v7.2h-5.4V243.9z"/>
	<path class="st0" d="M182.1,254.7c0.3,0.2,0.6,0.5,0.9,0.7c0.4,0.2,0.7,0.5,1.2,0.7c0.4,0.2,0.9,0.3,1.4,0.5
		c0.5,0.1,0.9,0.2,1.4,0.2c0.4,0,0.8-0.1,1.2-0.2c0.4-0.1,0.6-0.4,0.6-0.8c0-0.4-0.2-0.7-0.6-0.9c-0.4-0.2-1-0.4-1.6-0.6
		c-0.6-0.2-1.3-0.4-2.1-0.6c-0.7-0.2-1.4-0.5-2.1-0.9c-0.6-0.4-1.2-0.9-1.6-1.5c-0.4-0.6-0.6-1.5-0.6-2.5c0-0.9,0.2-1.7,0.6-2.4
		c0.4-0.7,0.9-1.2,1.5-1.7c0.6-0.4,1.4-0.8,2.2-1c0.8-0.2,1.7-0.3,2.6-0.3c1.5,0,2.8,0.2,3.9,0.5s2.1,0.8,3,1.4l-2.5,3.6
		c-0.2-0.2-0.5-0.4-0.8-0.6c-0.3-0.2-0.7-0.4-1.1-0.5s-0.9-0.3-1.3-0.4c-0.5-0.1-0.9-0.1-1.3-0.1c-0.4,0-0.7,0.1-0.9,0.2
		c-0.2,0.1-0.4,0.3-0.4,0.7c0,0.4,0.2,0.7,0.6,0.9c0.4,0.2,1,0.4,1.6,0.6c0.6,0.2,1.3,0.4,2,0.7c0.7,0.2,1.4,0.5,2,0.9
		c0.6,0.4,1.2,0.9,1.6,1.5c0.4,0.6,0.6,1.4,0.6,2.3c0,0.9-0.2,1.8-0.6,2.5c-0.4,0.7-1,1.3-1.6,1.7c-0.7,0.5-1.4,0.8-2.3,1
		c-0.8,0.2-1.7,0.3-2.5,0.3c-3.1,0-5.6-0.8-7.6-2.3L182.1,254.7z"/>
	<path class="st0" d="M213.2,260.2c-0.1-0.2-0.2-0.5-0.3-0.9c-0.1-0.4-0.1-0.7-0.2-1c-0.3,0.6-0.8,1.2-1.5,1.7
		c-0.7,0.5-1.7,0.8-2.9,0.8c-0.9,0-1.6-0.1-2.3-0.4c-0.7-0.3-1.2-0.6-1.7-1.1c-0.5-0.5-0.8-1-1-1.7c-0.2-0.6-0.4-1.3-0.4-2.1
		c0-0.8,0.1-1.6,0.4-2.2s0.7-1.1,1.2-1.6c0.5-0.4,1.2-0.8,2-1c0.8-0.3,1.6-0.5,2.6-0.6l3.3-0.5v-0.4c0-0.7-0.2-1.1-0.5-1.4
		c-0.4-0.2-0.8-0.4-1.5-0.4c-1,0-1.9,0.2-2.6,0.5s-1.3,0.8-1.9,1.3l-2.5-3.6c0.3-0.3,0.8-0.6,1.3-0.8s1.1-0.5,1.7-0.8
		c0.6-0.2,1.4-0.4,2.1-0.5c0.8-0.1,1.7-0.2,2.6-0.2c2.4,0,4.1,0.5,5.2,1.5c1,1,1.6,2.6,1.6,4.7v5.8c0,0.7,0,1.2,0,1.7
		c0,0.4,0,0.8,0.1,1.2c0.1,0.4,0.1,0.7,0.2,1c0.1,0.3,0.2,0.6,0.4,0.9H213.2z M212.4,253l-2.2,0.4c-0.7,0.1-1.3,0.4-1.6,0.7
		s-0.5,0.7-0.5,1.2c0,0.5,0.1,0.9,0.4,1.2s0.7,0.5,1.2,0.5c0.7,0,1.4-0.3,1.9-0.9c0.5-0.6,0.8-1.4,0.8-2.5V253z"/>
	<path class="st0" d="M221,243.9h4.8l0.4,3c0.5-1,1.2-1.8,2.1-2.5c0.9-0.7,2.1-1,3.6-1v5.5c-0.4-0.1-0.9-0.2-1.7-0.2
		c-0.4,0-0.9,0-1.3,0.1c-0.4,0.1-0.8,0.3-1.2,0.5c-0.4,0.3-0.7,0.7-0.9,1.3c-0.2,0.6-0.4,1.4-0.4,2.3v7.2H221V243.9z"/>
	<path class="st0" d="M238.1,253.3c0.2,1.3,0.6,2.1,1.2,2.6c0.6,0.5,1.3,0.8,2.1,0.8c0.7,0,1.3-0.1,1.8-0.4c0.5-0.3,0.9-0.8,1.3-1.4
		l4,2.2c-0.8,1.2-1.9,2.1-3.1,2.7c-1.3,0.6-2.7,0.9-4.2,0.9c-1.4,0-2.6-0.2-3.7-0.7c-1.1-0.4-2-1-2.7-1.8s-1.3-1.7-1.6-2.7
		c-0.4-1.1-0.6-2.2-0.6-3.4c0-1.2,0.2-2.4,0.6-3.5s0.9-2,1.6-2.8c0.7-0.8,1.6-1.4,2.6-1.8c1-0.4,2.2-0.7,3.5-0.7
		c1.3,0,2.4,0.2,3.4,0.6c1,0.4,1.8,1,2.5,1.8s1.2,1.7,1.5,2.8c0.4,1.1,0.5,2.3,0.5,3.7c0,0.3,0,0.5,0,0.7s0,0.2,0,0.3H238.1z
		 M240.8,247.3c-1.5,0-2.4,1-2.7,2.9h5.2c0-0.8-0.2-1.5-0.6-2.1C242.3,247.6,241.7,247.3,240.8,247.3z"/>
</g>
<g>
	<path class="st0" d="M55.9,289.8c0.3,0.2,0.6,0.5,0.9,0.7c0.4,0.2,0.7,0.5,1.2,0.7c0.4,0.2,0.9,0.3,1.4,0.5
		c0.5,0.1,0.9,0.2,1.4,0.2c0.4,0,0.8-0.1,1.2-0.2c0.4-0.1,0.6-0.4,0.6-0.8c0-0.4-0.2-0.7-0.6-0.9s-1-0.4-1.6-0.6
		c-0.6-0.2-1.3-0.4-2.1-0.6c-0.7-0.2-1.4-0.5-2.1-0.9c-0.6-0.4-1.2-0.9-1.6-1.5c-0.4-0.6-0.6-1.5-0.6-2.5c0-0.9,0.2-1.7,0.6-2.4
		c0.4-0.7,0.9-1.2,1.5-1.7c0.6-0.4,1.4-0.8,2.2-1c0.8-0.2,1.7-0.3,2.6-0.3c1.5,0,2.8,0.2,3.9,0.5c1.1,0.3,2.1,0.8,3,1.4l-2.5,3.6
		c-0.2-0.2-0.5-0.4-0.8-0.6c-0.3-0.2-0.7-0.4-1.1-0.5c-0.4-0.2-0.9-0.3-1.3-0.4c-0.5-0.1-0.9-0.1-1.3-0.1c-0.4,0-0.7,0.1-0.9,0.2
		c-0.2,0.1-0.4,0.3-0.4,0.7c0,0.4,0.2,0.7,0.6,0.9c0.4,0.2,1,0.4,1.6,0.6c0.6,0.2,1.3,0.4,2,0.7c0.7,0.2,1.4,0.5,2,0.9
		c0.6,0.4,1.2,0.9,1.6,1.5c0.4,0.6,0.6,1.4,0.6,2.3c0,0.9-0.2,1.8-0.6,2.5c-0.4,0.7-1,1.3-1.6,1.7c-0.7,0.5-1.4,0.8-2.3,1
		c-0.8,0.2-1.7,0.3-2.5,0.3c-3.1,0-5.6-0.8-7.6-2.3L55.9,289.8z"/>
	<path class="st0" d="M79.9,295.2c-0.1-0.2-0.2-0.5-0.3-0.9c-0.1-0.4-0.1-0.7-0.2-1c-0.3,0.6-0.8,1.2-1.5,1.7
		c-0.7,0.5-1.7,0.8-2.9,0.8c-0.9,0-1.6-0.1-2.3-0.4c-0.7-0.3-1.2-0.6-1.7-1.1c-0.5-0.5-0.8-1-1-1.7c-0.2-0.6-0.4-1.3-0.4-2.1
		c0-0.8,0.1-1.6,0.4-2.2s0.7-1.1,1.2-1.6c0.5-0.4,1.2-0.8,2-1c0.8-0.3,1.6-0.5,2.6-0.6l3.3-0.5v-0.4c0-0.7-0.2-1.1-0.5-1.4
		s-0.8-0.4-1.5-0.4c-1,0-1.9,0.2-2.6,0.5s-1.3,0.8-1.9,1.3l-2.5-3.6c0.3-0.3,0.8-0.6,1.3-0.8c0.5-0.3,1.1-0.5,1.7-0.8
		c0.6-0.2,1.4-0.4,2.1-0.5c0.8-0.1,1.7-0.2,2.6-0.2c2.4,0,4.1,0.5,5.2,1.5c1,1,1.6,2.6,1.6,4.7v5.8c0,0.7,0,1.2,0,1.7
		c0,0.4,0,0.8,0.1,1.2c0.1,0.4,0.1,0.7,0.2,1c0.1,0.3,0.2,0.6,0.4,0.9H79.9z M79,288l-2.2,0.4c-0.7,0.1-1.3,0.4-1.6,0.7
		s-0.5,0.7-0.5,1.2c0,0.5,0.1,0.9,0.4,1.2c0.3,0.3,0.7,0.5,1.2,0.5c0.7,0,1.4-0.3,1.9-0.9c0.5-0.6,0.8-1.4,0.8-2.5V288z"/>
	<path class="st0" d="M85.6,278.9h6l2.6,11.3l2.6-11.3h5.8l-5.4,16.3h-6.3L85.6,278.9z"/>
	<path class="st0" d="M104.2,272.4h5.4v4.3h-5.4V272.4z M104.2,278.9h5.4v16.3h-5.4V278.9z"/>
	<path class="st0" d="M112.7,278.9h4.8l0.4,2.3c0.5-0.8,1.2-1.4,2.1-2s1.9-0.8,3-0.8c3.6,0,5.4,2.3,5.4,6.8v9.9H123v-8.6
		c0-1.3-0.2-2.2-0.6-2.7c-0.4-0.5-1-0.8-1.8-0.8c-0.4,0-0.7,0.1-1.1,0.2c-0.3,0.1-0.6,0.4-0.8,0.7c-0.2,0.3-0.4,0.8-0.5,1.3
		c-0.1,0.6-0.2,1.3-0.2,2.1v7.7h-5.4V278.9z"/>
	<path class="st0" d="M133.4,295.1c0.6,0.6,1.4,1.1,2.3,1.5c0.9,0.4,1.9,0.5,2.8,0.5c1,0,1.7-0.2,2.1-0.7c0.4-0.4,0.6-1.1,0.6-2
		v-1.5c-0.4,0.6-0.9,1-1.6,1.4c-0.7,0.4-1.6,0.6-2.7,0.6c-0.8,0-1.5-0.1-2.3-0.4s-1.4-0.7-2-1.3c-0.6-0.6-1.1-1.5-1.4-2.5
		c-0.4-1-0.5-2.3-0.5-3.8c0-1.4,0.2-2.6,0.5-3.6c0.3-1,0.8-1.9,1.3-2.7c0.6-0.7,1.3-1.3,2.1-1.6c0.8-0.4,1.7-0.6,2.6-0.6
		c1,0,1.9,0.2,2.6,0.6c0.7,0.4,1.4,1.1,1.8,2l0.7-2.2h4.3v15.4c0,1-0.1,1.9-0.4,2.8c-0.3,0.8-0.8,1.6-1.4,2.2
		c-0.6,0.6-1.5,1.1-2.5,1.4c-1,0.3-2.2,0.5-3.7,0.5c-1,0-1.8-0.1-2.7-0.2s-1.6-0.3-2.2-0.5c-0.7-0.2-1.3-0.5-1.8-0.8
		c-0.5-0.3-1-0.5-1.4-0.8L133.4,295.1z M141.2,286.9c0-0.5,0-1-0.1-1.5c-0.1-0.5-0.2-0.9-0.4-1.3c-0.2-0.4-0.4-0.7-0.8-0.9
		c-0.3-0.2-0.7-0.4-1.2-0.4c-0.3,0-0.7,0.1-1,0.2c-0.3,0.1-0.6,0.4-0.8,0.7c-0.2,0.3-0.4,0.7-0.5,1.2c-0.1,0.5-0.2,1.1-0.2,1.9
		c0,1.4,0.2,2.4,0.7,3c0.5,0.6,1.1,1,1.9,1c0.8,0,1.4-0.3,1.8-1c0.4-0.6,0.6-1.6,0.6-2.8V286.9z"/>
	<path class="st0" d="M156.9,278.9h5.4v9c0,1,0.2,1.8,0.5,2.3c0.3,0.5,0.9,0.8,1.7,0.8c0.9,0,1.5-0.3,2-1c0.5-0.7,0.7-1.7,0.7-3.2
		v-7.9h5.4v16.3h-5.1v-2.4c-0.4,0.9-1,1.5-1.7,2s-1.8,0.8-3.1,0.8c-1.9,0-3.4-0.6-4.3-1.7s-1.4-2.7-1.4-4.8V278.9z"/>
	<path class="st0" d="M175.6,278.9h5.4v2.1c0.4-0.7,0.9-1.4,1.6-1.9c0.7-0.5,1.6-0.8,2.8-0.8c1.8,0,3.3,0.7,4.4,2.1
		c1.1,1.4,1.7,3.5,1.7,6.4c0,1.7-0.2,3.1-0.6,4.2c-0.4,1.1-0.9,2-1.5,2.7c-0.6,0.7-1.3,1.1-2.1,1.4s-1.5,0.4-2.2,0.4
		c-0.8,0-1.6-0.1-2.4-0.4c-0.8-0.3-1.3-0.8-1.7-1.4v7h-5.4V278.9z M181,287.2c0,0.6,0,1.1,0.1,1.6c0.1,0.5,0.3,0.9,0.5,1.3
		s0.5,0.7,0.8,0.9c0.3,0.2,0.7,0.3,1.1,0.3c0.7,0,1.3-0.3,1.8-1c0.4-0.7,0.6-1.7,0.6-3.2c0-1.4-0.2-2.5-0.7-3.2s-1.1-1.1-1.9-1.1
		c-0.4,0-0.8,0.1-1.1,0.3c-0.3,0.2-0.5,0.5-0.7,0.9c-0.2,0.4-0.3,0.8-0.4,1.3c-0.1,0.5-0.1,1-0.1,1.5V287.2z"/>
	<path class="st0" d="M202.3,282.3h-2.6v-3.5h0.4c0.8,0,1.5-0.1,2-0.4c0.5-0.3,0.9-0.6,1.1-1.1c0.3-0.5,0.5-1,0.6-1.6
		c0.1-0.6,0.3-1.2,0.4-1.7h3.4v4.8h3.4v3.5h-3.4v7.6c0,0.5,0.1,0.9,0.3,1.2c0.2,0.3,0.6,0.5,1.2,0.5c0.2,0,0.4,0,0.6,0
		c0.3,0,0.5-0.1,0.9-0.3l0.4,3.8c-0.6,0.2-1.2,0.4-1.8,0.5c-0.6,0.1-1.2,0.1-1.8,0.1c-1,0-1.8-0.1-2.5-0.4c-0.7-0.3-1.2-0.6-1.6-1.1
		c-0.4-0.4-0.7-1-0.8-1.6c-0.2-0.6-0.2-1.3-0.2-2.1V282.3z"/>
	<path class="st0" d="M220.3,295.7c-1.4,0-2.6-0.2-3.6-0.7s-1.9-1-2.6-1.8s-1.2-1.7-1.5-2.7c-0.3-1-0.5-2.2-0.5-3.4
		c0-1.2,0.2-2.4,0.5-3.4c0.4-1.1,0.9-2,1.6-2.8c0.7-0.8,1.6-1.4,2.6-1.8c1-0.4,2.2-0.7,3.6-0.7c1.3,0,2.5,0.2,3.6,0.7
		c1,0.4,1.9,1,2.6,1.8c0.7,0.8,1.2,1.7,1.6,2.8s0.5,2.2,0.5,3.5c0,1.2-0.2,2.4-0.5,3.4c-0.4,1-0.9,2-1.6,2.7
		c-0.7,0.8-1.5,1.4-2.6,1.8C222.8,295.5,221.6,295.7,220.3,295.7z M220.4,291.6c0.9,0,1.5-0.4,1.9-1.2c0.4-0.8,0.6-1.9,0.6-3.3
		c0-1.4-0.2-2.5-0.7-3.3c-0.4-0.8-1.1-1.2-2-1.2c-0.9,0-1.6,0.4-2,1.2s-0.6,1.9-0.6,3.3c0,1.4,0.2,2.5,0.7,3.3
		C218.7,291.2,219.4,291.6,220.4,291.6z"/>
</g>
<g>
	<path class="st0" d="M58,318.7c-0.5-0.1-0.9-0.4-1.4-0.6c-0.4-0.3-0.8-0.6-1.2-1c-0.3-0.4-0.6-0.8-0.8-1.3c-0.2-0.5-0.3-1-0.3-1.5
		c0-1,0.2-1.9,0.7-2.7c0.4-0.8,1-1.4,1.7-1.9c0.7-0.5,1.6-0.9,2.5-1.1c0.9-0.2,1.9-0.4,2.8-0.4c0.9,0,1.8,0.1,2.7,0.4
		s1.7,0.6,2.5,1.1c0.7,0.5,1.3,1.1,1.8,1.9c0.5,0.7,0.7,1.6,0.7,2.7c0,1.1-0.4,2.1-1.1,2.8c-0.7,0.8-1.6,1.3-2.6,1.6
		c1.3,0.2,2.4,0.8,3.2,1.6s1.2,2,1.2,3.4c0,1.3-0.2,2.3-0.7,3.2c-0.5,0.9-1.1,1.6-1.9,2.1c-0.8,0.6-1.7,1-2.7,1.2
		c-1,0.3-2,0.4-3,0.4s-2-0.1-3.1-0.4c-1-0.3-1.9-0.7-2.7-1.2c-0.8-0.6-1.4-1.3-1.9-2.2c-0.5-0.9-0.7-1.9-0.7-3.2
		c0-1.4,0.4-2.5,1.1-3.4C55.5,319.5,56.6,318.9,58,318.7z M62,326.4c0.8,0,1.5-0.3,2-0.8s0.8-1.3,0.8-2.2c0-0.9-0.3-1.6-0.8-2.2
		c-0.5-0.6-1.2-0.8-2-0.8c-1,0-1.7,0.3-2.2,0.8s-0.7,1.3-0.7,2.2c0,0.8,0.3,1.5,0.8,2.1C60.4,326.1,61.1,326.4,62,326.4z
		 M59.7,314.6c0,0.7,0.2,1.4,0.7,1.9c0.4,0.5,1,0.8,1.7,0.8c0.7,0,1.2-0.3,1.7-0.8c0.4-0.5,0.7-1.2,0.7-1.9c0-0.7-0.2-1.4-0.7-1.9
		c-0.4-0.5-1-0.8-1.7-0.8c-0.7,0-1.3,0.3-1.7,0.8C59.9,313.2,59.7,313.9,59.7,314.6z"/>
	<path class="st0" d="M83.2,314.4c-0.2-0.7-0.6-1.2-1.1-1.6c-0.5-0.4-1-0.5-1.6-0.5c-0.4,0-0.7,0.1-1.1,0.2
		c-0.4,0.1-0.7,0.4-1.1,0.8c-0.3,0.4-0.6,0.9-0.8,1.6c-0.2,0.7-0.3,1.6-0.3,2.7v0.2c0,0.1,0,0.1,0,0.3c0.4-0.5,0.9-1,1.7-1.5
		c0.8-0.5,1.8-0.7,3-0.7c1,0,2,0.2,2.8,0.5c0.8,0.3,1.5,0.8,2.1,1.4c0.6,0.6,1,1.3,1.3,2.2c0.3,0.9,0.5,1.9,0.5,2.9
		c0,1-0.2,2-0.5,2.9c-0.3,0.9-0.8,1.7-1.5,2.5c-0.7,0.7-1.5,1.3-2.5,1.7c-1,0.4-2.2,0.6-3.5,0.6c-1.2,0-2.3-0.2-3.4-0.6
		c-1.1-0.4-2-1.1-2.8-1.9c-0.8-0.9-1.5-1.9-2-3.2c-0.5-1.3-0.7-2.8-0.7-4.6c0-2.3,0.3-4.2,0.8-5.7c0.5-1.5,1.2-2.8,2.1-3.7
		c0.9-0.9,1.8-1.6,2.8-2c1-0.4,2-0.6,3-0.6c1,0,1.8,0.1,2.6,0.3c0.8,0.2,1.5,0.5,2.1,0.9c0.6,0.4,1.1,0.8,1.6,1.3
		c0.4,0.5,0.8,1,1,1.6L83.2,314.4z M80.3,326.8c0.8,0,1.4-0.3,1.8-1c0.4-0.7,0.6-1.5,0.6-2.4c0-1-0.2-1.9-0.6-2.6
		c-0.4-0.7-1-1-1.8-1c-0.8,0-1.4,0.3-1.8,1c-0.4,0.7-0.6,1.6-0.6,2.6c0,1.1,0.2,2,0.7,2.5C79.1,326.5,79.6,326.8,80.3,326.8z"/>
	<path class="st0" d="M96.3,320.8c-1,0-1.9-0.2-2.7-0.5c-0.8-0.4-1.4-0.9-2-1.5c-0.5-0.6-0.9-1.4-1.2-2.3c-0.3-0.9-0.4-1.8-0.4-2.8
		c0-0.9,0.1-1.8,0.4-2.6c0.3-0.8,0.7-1.5,1.2-2.2c0.5-0.6,1.2-1.1,2-1.5c0.8-0.4,1.7-0.5,2.7-0.5c1.1,0,2.1,0.2,2.8,0.5
		c0.8,0.4,1.4,0.8,2,1.5c0.5,0.6,0.9,1.3,1.1,2.2c0.2,0.8,0.4,1.7,0.4,2.6c0,1-0.1,1.9-0.4,2.7c-0.2,0.9-0.6,1.6-1.1,2.3
		c-0.5,0.6-1.2,1.2-2,1.5C98.3,320.6,97.4,320.8,96.3,320.8z M96.3,317.4c0.3,0,0.5-0.1,0.7-0.4c0.2-0.2,0.3-0.5,0.4-0.9
		c0.1-0.4,0.2-0.8,0.2-1.2c0-0.4,0.1-0.8,0.1-1.2c0-0.4,0-0.8,0-1.2c0-0.4-0.1-0.8-0.2-1.1c-0.1-0.3-0.3-0.6-0.4-0.8
		c-0.2-0.2-0.4-0.3-0.8-0.3c-0.3,0-0.6,0.1-0.8,0.3c-0.2,0.2-0.3,0.5-0.4,0.8c-0.1,0.3-0.2,0.7-0.2,1.1c0,0.4,0,0.8,0,1.2
		s0,0.8,0,1.3c0,0.4,0.1,0.8,0.2,1.2c0.1,0.4,0.3,0.6,0.4,0.9C95.7,317.3,96,317.4,96.3,317.4z M108.5,306.7l2.9,1.3l-11.2,22.7
		l-2.9-1.2L108.5,306.7z M112.4,330.5c-1,0-1.9-0.2-2.7-0.5c-0.8-0.4-1.4-0.9-2-1.5c-0.5-0.6-0.9-1.4-1.2-2.3
		c-0.3-0.9-0.4-1.8-0.4-2.8c0-0.9,0.1-1.8,0.4-2.6c0.3-0.8,0.7-1.5,1.2-2.2s1.2-1.1,2-1.5c0.8-0.4,1.7-0.5,2.7-0.5
		c1.1,0,2.1,0.2,2.8,0.5c0.8,0.4,1.4,0.8,2,1.5c0.5,0.6,0.9,1.3,1.1,2.2c0.2,0.8,0.4,1.7,0.4,2.6c0,1-0.1,1.9-0.4,2.7
		c-0.2,0.9-0.6,1.6-1.1,2.3c-0.5,0.6-1.2,1.2-2,1.5C114.4,330.3,113.5,330.5,112.4,330.5z M112.4,327.1c0.3,0,0.5-0.1,0.7-0.4
		c0.2-0.2,0.3-0.5,0.4-0.9c0.1-0.4,0.2-0.8,0.2-1.2c0-0.4,0.1-0.8,0.1-1.2c0-0.4,0-0.8,0-1.2c0-0.4-0.1-0.8-0.2-1.1
		c-0.1-0.3-0.3-0.6-0.4-0.8s-0.4-0.3-0.8-0.3s-0.6,0.1-0.8,0.3s-0.3,0.5-0.4,0.8c-0.1,0.3-0.2,0.7-0.2,1.1c0,0.4,0,0.8,0,1.2
		s0,0.8,0,1.3c0,0.4,0.1,0.8,0.2,1.2c0.1,0.4,0.3,0.6,0.4,0.9C111.8,327,112.1,327.1,112.4,327.1z"/>
	<path class="st0" d="M128.1,313.9h4.8l0.4,2.3c0.5-0.9,1.1-1.6,1.8-2c0.7-0.5,1.7-0.7,2.8-0.7c1.3,0,2.3,0.3,3.1,0.9
		c0.7,0.6,1.2,1.3,1.6,2c0.2-0.3,0.4-0.7,0.7-1c0.3-0.4,0.6-0.7,1-0.9c0.4-0.3,0.9-0.5,1.5-0.7c0.6-0.2,1.2-0.3,2-0.3
		c1.2,0,2.1,0.2,2.8,0.6c0.7,0.4,1.2,0.9,1.6,1.5s0.6,1.3,0.8,2.2s0.2,1.6,0.2,2.5v10h-5.4v-8.5c0-1.2-0.2-2.1-0.5-2.7
		c-0.3-0.6-0.9-0.9-1.7-0.9c-0.3,0-0.5,0-0.8,0.1c-0.3,0.1-0.5,0.3-0.8,0.5s-0.4,0.7-0.5,1.2c-0.1,0.5-0.2,1.2-0.2,2v8.2h-5.4v-8.6
		c0-1.2-0.2-2-0.5-2.6c-0.3-0.6-0.9-0.8-1.6-0.8c-0.3,0-0.5,0-0.8,0.1c-0.3,0.1-0.5,0.3-0.8,0.6s-0.4,0.7-0.6,1.3
		c-0.1,0.6-0.2,1.3-0.2,2.3v7.8h-5.4V313.9z"/>
	<path class="st0" d="M163.6,330.7c-1.4,0-2.6-0.2-3.6-0.7c-1-0.4-1.9-1-2.6-1.8c-0.7-0.8-1.2-1.7-1.5-2.7c-0.3-1-0.5-2.2-0.5-3.4
		s0.2-2.4,0.5-3.4s0.9-2,1.6-2.8c0.7-0.8,1.6-1.4,2.6-1.8c1-0.4,2.2-0.7,3.6-0.7c1.3,0,2.5,0.2,3.6,0.7c1,0.4,1.9,1,2.6,1.8
		c0.7,0.8,1.2,1.7,1.6,2.8s0.5,2.2,0.5,3.5s-0.2,2.4-0.5,3.4s-0.9,2-1.6,2.7c-0.7,0.8-1.5,1.4-2.6,1.8
		C166.2,330.5,165,330.7,163.6,330.7z M163.7,326.6c0.9,0,1.5-0.4,1.9-1.2s0.6-1.9,0.6-3.3s-0.2-2.5-0.7-3.3c-0.4-0.8-1.1-1.2-2-1.2
		c-0.9,0-1.6,0.4-2,1.2s-0.6,1.9-0.6,3.3s0.2,2.5,0.7,3.3S162.8,326.6,163.7,326.6z"/>
	<path class="st0" d="M174.2,313.9h4.8l0.4,3c0.5-1,1.2-1.8,2.1-2.5c0.9-0.7,2.1-1,3.6-1v5.5c-0.4-0.1-0.9-0.2-1.7-0.2
		c-0.4,0-0.9,0-1.3,0.1s-0.8,0.3-1.2,0.5c-0.4,0.3-0.7,0.7-0.9,1.3c-0.2,0.6-0.4,1.4-0.4,2.3v7.2h-5.4V313.9z"/>
	<path class="st0" d="M191.4,323.3c0.2,1.3,0.6,2.1,1.2,2.6c0.6,0.5,1.3,0.8,2.1,0.8c0.7,0,1.3-0.1,1.8-0.4c0.5-0.3,0.9-0.8,1.3-1.4
		l4,2.2c-0.8,1.2-1.9,2.1-3.1,2.7c-1.3,0.6-2.7,0.9-4.2,0.9c-1.4,0-2.6-0.2-3.7-0.7c-1.1-0.4-2-1-2.7-1.8c-0.7-0.8-1.3-1.7-1.6-2.7
		c-0.4-1.1-0.6-2.2-0.6-3.4c0-1.2,0.2-2.4,0.6-3.5s0.9-2,1.6-2.8c0.7-0.8,1.6-1.4,2.6-1.8c1-0.4,2.2-0.7,3.5-0.7
		c1.3,0,2.4,0.2,3.4,0.6c1,0.4,1.8,1,2.5,1.8c0.7,0.8,1.2,1.7,1.5,2.8c0.4,1.1,0.5,2.3,0.5,3.7c0,0.3,0,0.5,0,0.7c0,0.1,0,0.2,0,0.3
		H191.4z M194,317.3c-1.5,0-2.4,1-2.7,2.9h5.2c0-0.8-0.2-1.5-0.6-2.1C195.6,317.6,194.9,317.3,194,317.3z"/>
	<path class="st0" d="M204.2,324.2h5.9v5.9h-5.9V324.2z"/>
</g>
<g>
	<path class="st1" d="M54.1,350.8h4.5c2.2,0,3.9,0.5,5.1,1.6s1.7,2.7,1.7,5c0,2.2-0.6,3.8-1.7,4.9c-1.2,1.1-2.8,1.6-4.9,1.6h-4.6
		V350.8z M58.6,361.8c0.8,0,1.4-0.1,1.9-0.4c0.5-0.2,0.9-0.6,1.2-1c0.3-0.4,0.5-0.9,0.6-1.4c0.1-0.5,0.2-1.1,0.2-1.7
		c0-0.6-0.1-1.2-0.2-1.7c-0.1-0.5-0.3-1-0.6-1.4c-0.3-0.4-0.7-0.7-1.2-1c-0.5-0.2-1.2-0.4-1.9-0.4h-1.8v8.9H58.6z"/>
	<path class="st1" d="M71.1,364.1c-0.8,0-1.4-0.1-2-0.4s-1-0.6-1.4-1s-0.7-1-0.8-1.6c-0.2-0.6-0.3-1.2-0.3-1.9
		c0-0.7,0.1-1.4,0.3-1.9c0.2-0.6,0.5-1.1,0.9-1.6c0.4-0.4,0.9-0.8,1.4-1c0.6-0.3,1.2-0.4,1.9-0.4c0.7,0,1.4,0.1,2,0.4s1,0.6,1.4,1
		c0.4,0.4,0.7,1,0.9,1.6c0.2,0.6,0.3,1.2,0.3,1.9c0,0.7-0.1,1.4-0.3,1.9c-0.2,0.6-0.5,1.1-0.9,1.6c-0.4,0.4-0.9,0.8-1.4,1
		S71.8,364.1,71.1,364.1z M71.1,362.2c0.6,0,1.1-0.3,1.4-0.8c0.3-0.6,0.5-1.3,0.5-2.2c0-0.9-0.2-1.6-0.5-2.2s-0.8-0.8-1.4-0.8
		c-0.7,0-1.1,0.3-1.4,0.8s-0.5,1.3-0.5,2.2c0,0.9,0.2,1.6,0.5,2.2C69.9,361.9,70.4,362.2,71.1,362.2z"/>
	<path class="st1" d="M76.2,354.5h2.7l1.6,6.9l1.4-6.9h2.7l1.4,6.9l1.6-6.9h2.7l-2.9,9.3h-2.7l-1.4-5.8l-1.4,5.8h-2.7L76.2,354.5z"
		/>
	<path class="st1" d="M91.5,354.5h2.2l0.2,1.5c0.3-0.5,0.6-0.9,1.2-1.2c0.5-0.4,1.1-0.5,1.8-0.5c1,0,1.8,0.3,2.2,1
		c0.5,0.6,0.7,1.6,0.7,2.8v5.8h-2.5v-5.2c0-0.8-0.1-1.3-0.4-1.7c-0.3-0.3-0.6-0.5-1.1-0.5c-0.5,0-1,0.2-1.3,0.6
		c-0.3,0.4-0.5,1.1-0.5,2.1v4.6h-2.5V354.5z"/>
	<path class="st1" d="M101.9,350.8h2.5v13h-2.5V350.8z"/>
	<path class="st1" d="M110.5,364.1c-0.8,0-1.4-0.1-2-0.4s-1-0.6-1.4-1s-0.7-1-0.8-1.6c-0.2-0.6-0.3-1.2-0.3-1.9
		c0-0.7,0.1-1.4,0.3-1.9c0.2-0.6,0.5-1.1,0.9-1.6c0.4-0.4,0.9-0.8,1.4-1c0.6-0.3,1.2-0.4,1.9-0.4c0.7,0,1.4,0.1,2,0.4s1,0.6,1.4,1
		c0.4,0.4,0.7,1,0.9,1.6c0.2,0.6,0.3,1.2,0.3,1.9c0,0.7-0.1,1.4-0.3,1.9c-0.2,0.6-0.5,1.1-0.9,1.6c-0.4,0.4-0.9,0.8-1.4,1
		S111.2,364.1,110.5,364.1z M110.5,362.2c0.6,0,1.1-0.3,1.4-0.8c0.3-0.6,0.5-1.3,0.5-2.2c0-0.9-0.2-1.6-0.5-2.2s-0.8-0.8-1.4-0.8
		c-0.7,0-1.1,0.3-1.4,0.8s-0.5,1.3-0.5,2.2c0,0.9,0.2,1.6,0.5,2.2C109.4,361.9,109.9,362.2,110.5,362.2z"/>
	<path class="st1" d="M122.1,363.8c-0.1-0.2-0.1-0.4-0.2-0.6c0-0.2-0.1-0.5-0.1-0.7c-0.2,0.5-0.5,0.8-1,1.1c-0.4,0.3-1,0.5-1.7,0.5
		c-1,0-1.7-0.3-2.2-0.8c-0.5-0.6-0.8-1.3-0.8-2.1c0-0.5,0.1-0.9,0.3-1.2c0.2-0.3,0.4-0.6,0.7-0.9c0.3-0.2,0.7-0.4,1.1-0.6
		c0.4-0.1,0.9-0.2,1.4-0.3l2.1-0.3v-0.4c0-0.5-0.1-0.9-0.4-1.1c-0.3-0.2-0.6-0.3-1-0.3c-0.6,0-1.2,0.1-1.6,0.4s-0.8,0.5-1.1,0.8
		l-1.2-1.7c0.4-0.4,0.9-0.7,1.6-1c0.7-0.3,1.6-0.4,2.6-0.4c1.3,0,2.2,0.3,2.8,0.8c0.6,0.6,0.9,1.4,0.9,2.6v3.5c0,0.4,0,0.7,0,0.9
		s0,0.5,0,0.7c0,0.2,0.1,0.4,0.1,0.5c0,0.2,0.1,0.4,0.2,0.5H122.1z M121.7,359.5l-1.6,0.3c-0.6,0.1-1,0.3-1.2,0.5
		c-0.2,0.2-0.4,0.5-0.4,0.8s0.1,0.7,0.3,0.9c0.2,0.2,0.5,0.4,0.9,0.4c0.5,0,1-0.2,1.4-0.6c0.4-0.4,0.6-1,0.6-1.7V359.5z"/>
	<path class="st1" d="M132.1,362.3c-0.2,0.5-0.6,1-1,1.3c-0.4,0.3-1,0.4-1.6,0.4c-0.6,0-1.1-0.1-1.5-0.3c-0.5-0.2-0.9-0.5-1.2-1
		s-0.6-0.9-0.7-1.5c-0.2-0.6-0.3-1.3-0.3-2.1c0-0.8,0.1-1.6,0.3-2.2c0.2-0.6,0.5-1.1,0.8-1.5c0.3-0.4,0.7-0.7,1.2-0.9
		s0.9-0.3,1.4-0.3c0.7,0,1.2,0.1,1.6,0.4s0.7,0.6,0.9,1v-4.9h2.5v13h-2.4V362.3z M132,358.9c0-0.3,0-0.6-0.1-0.9
		c-0.1-0.3-0.2-0.6-0.3-0.8c-0.1-0.2-0.3-0.4-0.6-0.6c-0.2-0.1-0.5-0.2-0.8-0.2c-0.6,0-1.1,0.3-1.4,0.8s-0.4,1.2-0.4,2
		c0,0.9,0.2,1.6,0.5,2.1s0.8,0.8,1.3,0.8c0.3,0,0.6-0.1,0.8-0.2c0.2-0.1,0.4-0.3,0.5-0.6c0.1-0.3,0.2-0.5,0.3-0.9
		c0.1-0.3,0.1-0.7,0.1-1.1V358.9z"/>
	<path class="st1" d="M141.4,356.2h-1.5v-1.6h0.3c0.4,0,0.8-0.1,1-0.2c0.3-0.1,0.5-0.3,0.6-0.6c0.1-0.2,0.3-0.5,0.3-0.8
		c0.1-0.3,0.1-0.7,0.2-1.1h1.6v2.7h2v1.6h-2v4.9c0,0.4,0.1,0.7,0.2,0.8c0.1,0.2,0.4,0.3,0.8,0.3c0.1,0,0.3,0,0.4,0
		c0.1,0,0.3-0.1,0.5-0.1l0.2,1.8c-0.3,0.1-0.6,0.2-0.9,0.3c-0.3,0-0.6,0.1-1,0.1c-0.5,0-1-0.1-1.3-0.2c-0.3-0.1-0.6-0.3-0.8-0.6
		c-0.2-0.2-0.3-0.5-0.4-0.9c-0.1-0.3-0.1-0.7-0.1-1.1V356.2z"/>
	<path class="st1" d="M147.3,350.8h2.5v5.2c0.2-0.5,0.6-0.9,1.1-1.2c0.5-0.3,1.1-0.5,1.8-0.5c1,0,1.8,0.3,2.3,1
		c0.5,0.7,0.7,1.6,0.7,2.8v5.7h-2.5v-5.3c0-0.7-0.1-1.2-0.4-1.5c-0.3-0.4-0.6-0.5-1.2-0.5c-0.5,0-1,0.2-1.3,0.7
		c-0.3,0.4-0.5,1.1-0.5,2v4.7h-2.5V350.8z"/>
	<path class="st1" d="M159.8,359.8c0.1,0.9,0.3,1.5,0.7,1.9c0.4,0.4,0.9,0.6,1.5,0.6c0.9,0,1.6-0.4,2-1.2l1.9,1.1
		c-0.4,0.7-1,1.2-1.7,1.5c-0.7,0.4-1.5,0.5-2.3,0.5c-0.8,0-1.4-0.1-2-0.4s-1.1-0.6-1.5-1c-0.4-0.4-0.7-1-0.9-1.6s-0.3-1.2-0.3-1.9
		c0-0.7,0.1-1.4,0.3-2c0.2-0.6,0.5-1.1,0.9-1.6s0.9-0.8,1.4-1c0.6-0.3,1.2-0.4,1.9-0.4c0.7,0,1.3,0.1,1.9,0.4c0.5,0.2,1,0.6,1.4,1
		c0.4,0.4,0.6,1,0.8,1.6s0.3,1.3,0.3,2c0,0.2,0,0.3,0,0.4c0,0.1,0,0.1,0,0.2H159.8z M161.7,356.1c-0.6,0-1,0.2-1.3,0.6
		c-0.3,0.4-0.5,0.9-0.6,1.6h3.8c0-0.3,0-0.6-0.1-0.8c-0.1-0.3-0.2-0.5-0.3-0.7s-0.3-0.4-0.6-0.5S162,356.1,161.7,356.1z"/>
	<path class="st1" d="M180,361.8c-0.4,0.8-1,1.3-1.7,1.7c-0.7,0.4-1.5,0.6-2.4,0.6c-0.8,0-1.5-0.1-2.1-0.4s-1-0.6-1.4-1
		s-0.6-1-0.8-1.6c-0.2-0.6-0.3-1.2-0.3-1.9c0-0.7,0.1-1.4,0.3-2s0.5-1.1,0.9-1.6c0.4-0.4,0.9-0.8,1.4-1s1.2-0.4,1.9-0.4
		c0.9,0,1.7,0.2,2.4,0.6c0.6,0.4,1.2,1,1.6,1.7l-2.1,1c-0.2-0.5-0.5-0.9-0.8-1.1c-0.3-0.2-0.7-0.3-1.1-0.3c-0.4,0-0.7,0.1-0.9,0.2
		c-0.3,0.1-0.5,0.4-0.6,0.6c-0.2,0.3-0.3,0.6-0.4,0.9c-0.1,0.4-0.1,0.7-0.1,1.1c0,0.4,0,0.7,0.1,1.1s0.2,0.7,0.4,1
		c0.2,0.3,0.4,0.5,0.7,0.7c0.3,0.2,0.6,0.3,1.1,0.3c0.5,0,0.9-0.1,1.2-0.4c0.3-0.3,0.6-0.6,0.7-1.1L180,361.8z"/>
	<path class="st1" d="M186.8,363.8c-0.1-0.2-0.1-0.4-0.2-0.6s-0.1-0.5-0.1-0.7c-0.2,0.5-0.5,0.8-1,1.1c-0.4,0.3-1,0.5-1.7,0.5
		c-1,0-1.7-0.3-2.2-0.8c-0.5-0.6-0.8-1.3-0.8-2.1c0-0.5,0.1-0.9,0.3-1.2c0.2-0.3,0.4-0.6,0.7-0.9c0.3-0.2,0.7-0.4,1.1-0.6
		c0.4-0.1,0.9-0.2,1.4-0.3l2-0.3v-0.4c0-0.5-0.1-0.9-0.4-1.1c-0.3-0.2-0.6-0.3-1-0.3c-0.6,0-1.2,0.1-1.6,0.4
		c-0.4,0.2-0.8,0.5-1.1,0.8l-1.2-1.7c0.4-0.4,0.9-0.7,1.6-1c0.7-0.3,1.6-0.4,2.6-0.4c1.3,0,2.2,0.3,2.8,0.8c0.6,0.6,0.8,1.4,0.8,2.6
		v3.5c0,0.4,0,0.7,0,0.9c0,0.2,0,0.5,0,0.7c0,0.2,0.1,0.4,0.1,0.5c0,0.2,0.1,0.4,0.2,0.5H186.8z M186.4,359.5l-1.6,0.3
		c-0.6,0.1-1,0.3-1.2,0.5c-0.2,0.2-0.4,0.5-0.4,0.8s0.1,0.7,0.3,0.9s0.5,0.4,0.9,0.4c0.5,0,1-0.2,1.4-0.6c0.4-0.4,0.6-1,0.6-1.7
		V359.5z"/>
	<path class="st1" d="M191.6,361c0.1,0.2,0.3,0.3,0.5,0.5s0.4,0.3,0.7,0.4c0.2,0.1,0.5,0.2,0.8,0.3c0.3,0.1,0.5,0.1,0.8,0.1
		c0.3,0,0.6-0.1,0.9-0.2c0.3-0.1,0.4-0.4,0.4-0.7c0-0.3-0.1-0.5-0.4-0.7s-0.6-0.3-0.9-0.4c-0.4-0.1-0.8-0.2-1.2-0.4
		c-0.4-0.1-0.8-0.3-1.2-0.5c-0.4-0.2-0.7-0.5-0.9-0.8c-0.2-0.3-0.4-0.8-0.4-1.4c0-0.5,0.1-0.9,0.3-1.3c0.2-0.4,0.5-0.7,0.8-0.9
		s0.7-0.4,1.2-0.5c0.4-0.1,0.9-0.2,1.4-0.2c0.8,0,1.5,0.1,2.1,0.3c0.6,0.2,1.1,0.5,1.6,0.8l-1.2,1.7c-0.1-0.1-0.3-0.2-0.5-0.4
		c-0.2-0.1-0.4-0.2-0.6-0.3s-0.5-0.2-0.7-0.2s-0.5-0.1-0.8-0.1c-0.3,0-0.5,0.1-0.7,0.2c-0.2,0.1-0.3,0.3-0.3,0.6
		c0,0.3,0.1,0.5,0.4,0.6s0.6,0.3,0.9,0.4c0.4,0.1,0.8,0.3,1.2,0.4c0.4,0.1,0.8,0.3,1.2,0.5c0.4,0.2,0.7,0.5,0.9,0.8
		c0.2,0.4,0.4,0.8,0.4,1.3c0,0.5-0.1,1-0.3,1.3s-0.5,0.7-0.9,1s-0.8,0.5-1.2,0.6c-0.5,0.1-0.9,0.2-1.4,0.2c-1.7,0-3-0.5-4.1-1.4
		L191.6,361z"/>
	<path class="st1" d="M201.9,359.8c0.1,0.9,0.3,1.5,0.7,1.9c0.4,0.4,0.9,0.6,1.5,0.6c0.9,0,1.6-0.4,2-1.2l1.9,1.1
		c-0.4,0.7-1,1.2-1.7,1.5c-0.7,0.4-1.5,0.5-2.3,0.5c-0.8,0-1.4-0.1-2-0.4s-1.1-0.6-1.5-1c-0.4-0.4-0.7-1-0.9-1.6s-0.3-1.2-0.3-1.9
		c0-0.7,0.1-1.4,0.3-2c0.2-0.6,0.5-1.1,0.9-1.6s0.9-0.8,1.4-1c0.6-0.3,1.2-0.4,1.9-0.4c0.7,0,1.3,0.1,1.9,0.4c0.5,0.2,1,0.6,1.4,1
		c0.4,0.4,0.6,1,0.8,1.6s0.3,1.3,0.3,2c0,0.2,0,0.3,0,0.4c0,0.1,0,0.1,0,0.2H201.9z M203.8,356.1c-0.6,0-1,0.2-1.3,0.6
		c-0.3,0.4-0.5,0.9-0.6,1.6h3.8c0-0.3,0-0.6-0.1-0.8c-0.1-0.3-0.2-0.5-0.3-0.7s-0.3-0.4-0.6-0.5S204.2,356.1,203.8,356.1z"/>
	<path class="st1" d="M214.6,361c0.1,0.2,0.3,0.3,0.5,0.5s0.4,0.3,0.7,0.4c0.2,0.1,0.5,0.2,0.8,0.3c0.3,0.1,0.5,0.1,0.8,0.1
		c0.3,0,0.6-0.1,0.9-0.2c0.3-0.1,0.4-0.4,0.4-0.7c0-0.3-0.1-0.5-0.4-0.7s-0.6-0.3-0.9-0.4c-0.4-0.1-0.8-0.2-1.2-0.4
		c-0.4-0.1-0.8-0.3-1.2-0.5c-0.4-0.2-0.7-0.5-0.9-0.8c-0.2-0.3-0.4-0.8-0.4-1.4c0-0.5,0.1-0.9,0.3-1.3c0.2-0.4,0.5-0.7,0.8-0.9
		s0.7-0.4,1.2-0.5c0.4-0.1,0.9-0.2,1.4-0.2c0.8,0,1.5,0.1,2.1,0.3c0.6,0.2,1.1,0.5,1.6,0.8l-1.2,1.7c-0.1-0.1-0.3-0.2-0.5-0.4
		c-0.2-0.1-0.4-0.2-0.6-0.3s-0.5-0.2-0.7-0.2s-0.5-0.1-0.8-0.1c-0.3,0-0.5,0.1-0.7,0.2c-0.2,0.1-0.3,0.3-0.3,0.6
		c0,0.3,0.1,0.5,0.4,0.6s0.6,0.3,0.9,0.4c0.4,0.1,0.8,0.3,1.2,0.4c0.4,0.1,0.8,0.3,1.2,0.5c0.4,0.2,0.7,0.5,0.9,0.8
		c0.2,0.4,0.4,0.8,0.4,1.3c0,0.5-0.1,1-0.3,1.3s-0.5,0.7-0.9,1s-0.8,0.5-1.2,0.6c-0.5,0.1-0.9,0.2-1.4,0.2c-1.7,0-3-0.5-4.1-1.4
		L214.6,361z"/>
	<path class="st1" d="M223.4,356.2h-1.5v-1.6h0.3c0.4,0,0.8-0.1,1-0.2c0.3-0.1,0.5-0.3,0.6-0.6c0.1-0.2,0.3-0.5,0.3-0.8
		s0.1-0.7,0.2-1.1h1.6v2.7h2v1.6h-2v4.9c0,0.4,0.1,0.7,0.2,0.8c0.1,0.2,0.4,0.3,0.8,0.3c0.1,0,0.3,0,0.4,0c0.1,0,0.3-0.1,0.5-0.1
		l0.2,1.8c-0.3,0.1-0.6,0.2-0.9,0.3c-0.3,0-0.6,0.1-1,0.1c-0.5,0-1-0.1-1.3-0.2c-0.3-0.1-0.6-0.3-0.8-0.6c-0.2-0.2-0.3-0.5-0.4-0.9
		s-0.1-0.7-0.1-1.1V356.2z"/>
	<path class="st1" d="M229.2,354.5h2.5v5.3c0,1.4,0.5,2.1,1.5,2.1c0.6,0,1-0.2,1.4-0.7s0.5-1.1,0.5-2v-4.6h2.5v9.3h-2.4v-1.6
		c-0.2,0.5-0.6,1-1,1.3c-0.4,0.3-1,0.5-1.8,0.5c-1.1,0-1.9-0.3-2.4-0.9c-0.5-0.6-0.8-1.5-0.8-2.7V354.5z"/>
	<path class="st1" d="M245.5,362.3c-0.2,0.5-0.6,1-1,1.3c-0.4,0.3-1,0.4-1.6,0.4c-0.6,0-1.1-0.1-1.5-0.3s-0.9-0.5-1.2-1
		c-0.3-0.4-0.6-0.9-0.7-1.5c-0.2-0.6-0.3-1.3-0.3-2.1c0-0.8,0.1-1.6,0.3-2.2c0.2-0.6,0.5-1.1,0.8-1.5c0.3-0.4,0.7-0.7,1.2-0.9
		s0.9-0.3,1.4-0.3c0.7,0,1.2,0.1,1.6,0.4s0.7,0.6,0.9,1v-4.9h2.5v13h-2.4V362.3z M245.3,358.9c0-0.3,0-0.6-0.1-0.9
		c-0.1-0.3-0.2-0.6-0.3-0.8s-0.3-0.4-0.6-0.6c-0.2-0.1-0.5-0.2-0.8-0.2c-0.6,0-1.1,0.3-1.4,0.8s-0.4,1.2-0.4,2
		c0,0.9,0.2,1.6,0.5,2.1c0.3,0.5,0.8,0.8,1.3,0.8c0.3,0,0.6-0.1,0.8-0.2c0.2-0.1,0.4-0.3,0.5-0.6c0.1-0.3,0.2-0.5,0.3-0.9
		c0.1-0.3,0.1-0.7,0.1-1.1V358.9z"/>
	<path class="st1" d="M249.9,365.1c0.2,0.1,0.4,0.1,0.6,0.2c0.2,0,0.4,0.1,0.6,0.1c0.3,0,0.6-0.1,0.8-0.3c0.2-0.2,0.3-0.5,0.5-1
		l-3.3-9.5h2.7l1.8,6.8l1.8-6.8h2.7l-3.1,9c-0.2,0.6-0.4,1.1-0.6,1.6c-0.2,0.5-0.4,0.9-0.7,1.2c-0.3,0.3-0.6,0.6-1,0.7
		c-0.4,0.2-0.9,0.2-1.6,0.2c-0.1,0-0.2,0-0.4,0c-0.1,0-0.3,0-0.5,0c-0.2,0-0.3,0-0.4,0c-0.1,0-0.3,0-0.3-0.1L249.9,365.1z"/>
	<path class="st1" d="M258.5,361h2.8v2.8h-2.8V361z"/>
</g>
</svg>
