<svg version="1.1" id="Layer_1" xmlns="http://www.w3.org/2000/svg" x="0" y="0" viewBox="0 0 100.1 13.1" xml:space="preserve"><style>.copy-whiteFill{fill:#fff}</style><path class="copy-whiteFill" d="M2.1 9c.1.2.3.3.5.5s.4.3.7.5.6.3 1 .4c.3.1.7.1 1.1.1.5 0 1-.1 1.3-.3.3-.2.4-.4.4-.7 0-.2-.1-.5-.2-.6s-.3-.3-.6-.4c-.3-.1-.6-.2-1-.3-.4-.1-.8-.2-1.3-.4-1.3-.3-2.2-.8-2.7-1.4C.7 5.8.4 5 .4 4.1c0-.5.1-1 .3-1.5.3-.6.6-1 1-1.4.4-.4.9-.7 1.6-.9S4.6 0 5.5 0c1 0 1.9.2 2.8.5.8.3 1.6.8 2.2 1.5L8.3 4c-.3-.4-.7-.7-1.2-1-.6-.2-1.1-.3-1.8-.3-.3 0-.6 0-.8.1-.2 0-.3.1-.4.2l-.3.3c0 .1-.1.2-.1.3 0 .3.2.6.5.8.3.2.9.5 1.7.7.9.2 1.7.5 2.3.7.6.3 1.1.6 1.4.9.3.3.6.7.7 1.1s.2.8.2 1.3c0 .7-.1 1.3-.4 1.8s-.7.9-1.1 1.3-1 .6-1.6.8c-.6.2-1.3.3-2 .3s-1.3-.1-1.8-.2c-.6-.1-1.1-.2-1.5-.4l-1.2-.6c-.3-.2-.6-.5-.8-.7l2-2.4zM15.7.3h2.9l4.9 12.6h-3.4l-.9-2.6h-4.3l-.9 2.5h-3.3l5-12.5zm2.6 7.6l-.6-1.8c-.2-.7-.5-1.4-.7-2.1-.2.7-.4 1.4-.6 2s-.4 1.2-.7 1.9h2.6zM21.9.3h3.4c.3.8.6 1.6.8 2.5s.6 1.6.8 2.4c.3.8.5 1.5.7 2.2.2.7.4 1.3.5 1.9.1-.6.3-1.2.5-1.9s.5-1.4.7-2.2c.3-.8.5-1.6.8-2.4.3-.8.6-1.6.8-2.4h3.3L29.3 13h-2.9L21.9.3zM35.6.3h8.9v2.4h-5.7V5h3.9v2.4h-3.9v3h5.9v2.4h-9.1V.3zM50.3.3H54c.2.4.3.8.5 1.2s.4.9.5 1.4c.2.5.4.9.5 1.4.2.5.3.9.5 1.3s.3.7.4 1 .2.5.2.7c0-.2.1-.4.2-.7s.2-.6.4-1 .3-.8.5-1.2c.2-.4.4-.9.5-1.4.2-.5.4-.9.5-1.4.2-.4.3-.9.5-1.2h3.6V13h-3v-2.2-2.3-2.1c0-.6 0-1.1.1-1.4-.1.3-.3.8-.5 1.4-.2.6-.5 1.3-.8 2s-.6 1.5-1 2.3c-.3.8-.7 1.5-.9 2.3h-.3c-.3-.8-.7-1.6-1-2.4-.3-.8-.7-1.6-1-2.3s-.6-1.4-.8-2c-.2-.6-.4-1.1-.5-1.4 0 .3.1.8.1 1.4V12.9h-3V.3zM70.8 13.1c-.9 0-1.7-.1-2.4-.4-.8-.3-1.5-.7-2-1.2-.6-.5-1.1-1.2-1.4-2s-.5-1.8-.5-2.9c0-1.1.2-2.1.5-2.9.3-.8.8-1.5 1.4-2.1.6-.5 1.3-.9 2-1.2.7-.3 1.5-.4 2.4-.4s1.7.1 2.4.4c.8.3 1.5.7 2 1.2.6.5 1.1 1.2 1.4 2.1.4.8.5 1.8.5 2.9 0 1.1-.2 2.1-.5 2.9s-.8 1.5-1.4 2c-.6.5-1.3.9-2 1.2-.8.3-1.6.4-2.4.4zm0-2.8c.4 0 .8-.1 1.2-.2s.7-.4.9-.7c.3-.3.5-.7.6-1.2.1-.5.2-1 .2-1.7 0-1.2-.3-2.2-.8-2.8-.6-.7-1.3-1-2.2-1-.9 0-1.6.3-2.1 1s-.8 1.6-.8 2.8c0 .7.1 1.2.3 1.7.2.5.4.9.7 1.2s.6.5.9.7.7.2 1.1.2zM78.7.3h5.2c.7 0 1.3.1 1.9.2.6.1 1.2.4 1.6.7.5.3.9.7 1.1 1.2s.5 1.1.5 1.8c0 .5-.1 1-.3 1.3-.2.4-.4.7-.7 1-.3.3-.6.5-1 .6s-.7.3-1.1.3c.3 0 .6.1.9.3s.5.4.7.8l2.4 4.2h-3.8l-1.5-3c-.1-.3-.3-.5-.4-.7-.1 0-.2-.1-.4-.2s-.3-.1-.5-.2h-1.4v4.2h-3.2V.3zm5 5.8c.2 0 .4 0 .7-.1.2 0 .4-.1.6-.3.2-.1.3-.3.4-.5.1-.2.2-.5.2-.9 0-.3-.1-.6-.2-.8-.1-.2-.3-.4-.5-.5-.2-.1-.4-.2-.6-.2-.2 0-.4-.1-.6-.1h-1.8v3.4h1.8zM91 .3h8.9v2.4h-5.7V5h3.9v2.4h-3.9v3h5.9v2.4H91V.3z"/></svg>