<?xml version="1.0" encoding="utf-8"?>
<!-- Generator: Adobe Illustrator 22.1.0, SVG Export Plug-In . SVG Version: 6.00 Build 0)  -->
<svg version="1.1" id="Layer_1" xmlns="https://www.w3.org/2000/svg" xmlns:xlink="https://www.w3.org/1999/xlink" x="0px" y="0px"
	 viewBox="0 0 300 600" style="enable-background:new 0 0 300 600;" xml:space="preserve">
<style type="text/css">
	.copy_purpleFill{fill:#662868;}
</style>
<g>
	<path class="copy_purpleFill" d="M43.2,133.5h6.8v16.9c0,1.6,0.4,2.8,1.1,3.5c0.7,0.7,1.8,1,3.2,1c1.4,0,2.4-0.3,3.2-1c0.7-0.7,1.1-1.8,1.1-3.5
		v-17h6.8v17.4c0,0.6,0,1.3-0.1,2c-0.1,0.7-0.2,1.5-0.5,2.2c-0.3,0.7-0.6,1.5-1.1,2.2c-0.5,0.7-1.1,1.3-2,1.9
		c-0.8,0.5-1.9,1-3.1,1.3c-1.2,0.3-2.7,0.5-4.4,0.5s-3.1-0.2-4.4-0.5c-1.2-0.3-2.2-0.8-3-1.3c-0.8-0.5-1.5-1.2-2-1.9
		c-0.5-0.7-0.9-1.4-1.1-2.2c-0.3-0.7-0.4-1.5-0.5-2.2c-0.1-0.7-0.1-1.4-0.1-2V133.5z"/>
	<path class="copy_purpleFill" d="M68.9,141h6.4v2.5c0.4-0.9,1.1-1.6,1.9-2.2c0.8-0.6,2-0.9,3.3-0.9c2.2,0,3.9,0.8,5.2,2.5c1.3,1.7,2,4.2,2,7.5
		c0,2-0.2,3.7-0.7,5c-0.5,1.3-1.1,2.4-1.8,3.2c-0.7,0.8-1.6,1.3-2.5,1.7s-1.8,0.5-2.6,0.5c-1,0-1.9-0.2-2.8-0.5s-1.6-0.9-2-1.6v8.4
		h-6.4V141z M75.2,150.9c0,0.7,0.1,1.3,0.2,1.9c0.1,0.6,0.3,1.1,0.6,1.5c0.3,0.4,0.6,0.8,1,1c0.4,0.3,0.8,0.4,1.3,0.4
		c0.9,0,1.6-0.4,2.1-1.2c0.5-0.8,0.8-2.1,0.8-3.7c0-1.7-0.3-2.9-0.8-3.8c-0.5-0.8-1.3-1.3-2.2-1.3c-0.5,0-1,0.1-1.3,0.4
		c-0.4,0.3-0.6,0.6-0.9,1c-0.2,0.4-0.4,0.9-0.5,1.5c-0.1,0.6-0.1,1.2-0.1,1.8V150.9z"/>
	<path class="copy_purpleFill" d="M92.2,160.3c0.7,0.7,1.7,1.3,2.8,1.7c1.1,0.4,2.2,0.6,3.4,0.6c1.2,0,2-0.3,2.5-0.8c0.4-0.5,0.7-1.3,0.7-2.4
		v-1.8c-0.4,0.7-1.1,1.2-1.9,1.7c-0.8,0.5-1.9,0.7-3.2,0.7c-0.9,0-1.8-0.2-2.7-0.5c-0.9-0.3-1.7-0.8-2.4-1.6
		c-0.7-0.7-1.3-1.7-1.7-2.9c-0.4-1.2-0.6-2.7-0.6-4.5c0-1.6,0.2-3.1,0.6-4.3c0.4-1.2,0.9-2.3,1.6-3.2c0.7-0.9,1.5-1.5,2.5-2
		c0.9-0.4,2-0.7,3.1-0.7c1.2,0,2.2,0.3,3.1,0.8c0.9,0.5,1.6,1.3,2.2,2.4l0.8-2.6h5.1v18.3c0,1.2-0.2,2.3-0.5,3.3
		c-0.3,1-0.9,1.9-1.7,2.6c-0.8,0.7-1.7,1.3-2.9,1.7c-1.2,0.4-2.7,0.6-4.4,0.6c-1.1,0-2.2-0.1-3.2-0.2c-1-0.2-1.8-0.4-2.6-0.6
		c-0.8-0.3-1.5-0.6-2.2-0.9c-0.6-0.3-1.2-0.6-1.7-1L92.2,160.3z M101.5,150.6c0-0.6,0-1.2-0.1-1.8c-0.1-0.6-0.2-1.1-0.5-1.5
		c-0.2-0.4-0.5-0.8-0.9-1.1s-0.8-0.4-1.4-0.4c-0.4,0-0.8,0.1-1.2,0.2c-0.4,0.2-0.7,0.4-1,0.8c-0.3,0.4-0.5,0.9-0.6,1.5
		c-0.2,0.6-0.2,1.4-0.2,2.2c0,1.6,0.3,2.8,0.8,3.6c0.5,0.8,1.3,1.1,2.3,1.1c1,0,1.7-0.4,2.1-1.1c0.5-0.8,0.7-1.9,0.7-3.3V150.6z"/>
	<path class="copy_purpleFill" d="M110.9,141h5.7l0.5,3.6c0.6-1.2,1.4-2.1,2.5-2.9c1.1-0.8,2.5-1.2,4.2-1.2v6.5c-0.5-0.1-1.1-0.2-2-0.2
		c-0.5,0-1,0-1.5,0.1c-0.5,0.1-1,0.3-1.4,0.6c-0.4,0.3-0.8,0.8-1.1,1.5c-0.3,0.7-0.4,1.6-0.4,2.8v8.5h-6.4V141z"/>
	<path class="copy_purpleFill" d="M136.3,160.4c-0.2-0.3-0.3-0.6-0.4-1.1c-0.1-0.5-0.2-0.9-0.2-1.2c-0.4,0.8-1,1.4-1.8,2c-0.8,0.6-2,0.9-3.5,0.9
		c-1,0-2-0.2-2.7-0.5c-0.8-0.3-1.5-0.8-2-1.3c-0.5-0.6-1-1.2-1.2-2c-0.3-0.8-0.4-1.6-0.4-2.5c0-1,0.2-1.8,0.5-2.6
		c0.3-0.7,0.8-1.3,1.5-1.8c0.6-0.5,1.4-0.9,2.3-1.2c0.9-0.3,1.9-0.5,3.1-0.7l3.9-0.6v-0.4c0-0.8-0.2-1.4-0.6-1.6
		c-0.4-0.3-1-0.4-1.8-0.4c-1.2,0-2.2,0.2-3.1,0.6c-0.8,0.4-1.6,0.9-2.3,1.5l-3-4.2c0.4-0.3,0.9-0.7,1.5-1c0.6-0.3,1.3-0.6,2-0.9
		c0.8-0.3,1.6-0.5,2.5-0.6c0.9-0.2,2-0.2,3.1-0.2c2.9,0,4.9,0.6,6.1,1.8c1.2,1.2,1.8,3.1,1.8,5.5v6.9c0,0.8,0,1.5,0,2
		c0,0.5,0.1,1,0.1,1.4c0.1,0.4,0.1,0.8,0.2,1.1c0.1,0.3,0.2,0.7,0.4,1.1H136.3z M135.3,151.8l-2.6,0.5c-0.9,0.2-1.5,0.4-1.9,0.8
		c-0.4,0.3-0.6,0.8-0.6,1.4c0,0.6,0.2,1,0.5,1.4c0.3,0.4,0.8,0.6,1.5,0.6c0.9,0,1.6-0.3,2.3-1c0.6-0.7,0.9-1.7,0.9-3V151.8z"/>
	<path class="copy_purpleFill" d="M156.4,157.7c-0.5,1-1.2,1.7-2,2.3c-0.8,0.5-1.9,0.8-3.2,0.8c-1.1,0-2.2-0.2-3.1-0.7c-0.9-0.4-1.8-1.1-2.4-2
		c-0.7-0.9-1.2-1.9-1.6-3.2c-0.4-1.3-0.6-2.7-0.6-4.4c0-1.9,0.2-3.5,0.7-4.8c0.5-1.3,1.1-2.3,1.8-3.1c0.7-0.8,1.6-1.3,2.5-1.7
		c0.9-0.3,1.8-0.5,2.7-0.5c1.2,0,2.2,0.2,3,0.7c0.8,0.5,1.4,1,1.8,1.7v-9.4h6.4v26.8h-6V157.7z M156,150.3c0-0.6-0.1-1.2-0.2-1.7
		s-0.3-1.1-0.5-1.5c-0.2-0.4-0.5-0.8-0.9-1c-0.4-0.3-0.8-0.4-1.4-0.4c-1,0-1.7,0.4-2.2,1.2c-0.5,0.8-0.7,2-0.7,3.5
		c0,1.7,0.3,3,0.9,3.9s1.3,1.4,2.2,1.4c0.5,0,0.9-0.1,1.3-0.4c0.4-0.3,0.6-0.6,0.9-1.1c0.2-0.5,0.4-1,0.5-1.6c0.1-0.6,0.2-1.3,0.2-2
		V150.3z"/>
	<path class="copy_purpleFill" d="M171.1,152.2c0.2,1.5,0.7,2.5,1.4,3.1c0.7,0.6,1.6,0.9,2.5,0.9c0.8,0,1.5-0.2,2.1-0.5c0.6-0.4,1.1-0.9,1.5-1.6
		l4.7,2.7c-1,1.5-2.2,2.5-3.7,3.2c-1.5,0.7-3.2,1-5,1c-1.6,0-3.1-0.3-4.4-0.8s-2.3-1.2-3.2-2.1c-0.9-0.9-1.5-2-2-3.2
		c-0.4-1.3-0.7-2.6-0.7-4c0-1.5,0.2-2.8,0.7-4.1s1.1-2.4,2-3.3c0.8-0.9,1.9-1.6,3.1-2.1c1.2-0.5,2.6-0.8,4.1-0.8
		c1.5,0,2.8,0.3,4,0.8c1.2,0.5,2.1,1.2,2.9,2.1c0.8,0.9,1.4,2,1.8,3.3c0.4,1.3,0.6,2.8,0.6,4.4c0,0.4,0,0.6,0,0.8c0,0.2,0,0.3,0,0.3
		H171.1z M174.3,145.1c-1.8,0-2.9,1.2-3.2,3.5h6.2c0-1-0.2-1.8-0.7-2.5C176.1,145.5,175.3,145.1,174.3,145.1z"/>
	<path class="copy_purpleFill" d="M194.2,162.3c0.5,0.2,0.9,0.3,1.4,0.4s1,0.2,1.3,0.2c0.6,0,1-0.1,1.3-0.4c0.3-0.3,0.6-0.7,0.7-1.3l-7-20h6.9
		l3.3,13l3.3-13h6.9l-6.7,19.2c-0.4,1.1-0.8,2-1.1,2.9c-0.4,0.9-0.9,1.7-1.5,2.3s-1.4,1.2-2.3,1.5s-2.1,0.6-3.6,0.6
		c-0.2,0-0.5,0-0.9,0c-0.3,0-0.7,0-1.1-0.1c-0.4,0-0.7-0.1-1.1-0.1c-0.3,0-0.6-0.1-0.8-0.2L194.2,162.3z"/>
	<path class="copy_purpleFill" d="M221.9,161c-1.6,0-3.1-0.3-4.3-0.8c-1.2-0.5-2.2-1.2-3.1-2.1s-1.4-2-1.8-3.2s-0.6-2.6-0.6-4.1s0.2-2.8,0.6-4.1
		c0.4-1.3,1.1-2.3,1.9-3.3s1.8-1.6,3.1-2.2c1.2-0.5,2.6-0.8,4.2-0.8s3,0.3,4.2,0.8c1.2,0.5,2.2,1.2,3.1,2.1c0.8,0.9,1.4,2,1.8,3.3
		s0.6,2.6,0.6,4.1s-0.2,2.8-0.6,4.1s-1,2.3-1.8,3.2s-1.8,1.6-3.1,2.1C224.9,160.7,223.5,161,221.9,161z M222,156.1
		c1.1,0,1.8-0.5,2.3-1.4c0.5-1,0.7-2.3,0.7-3.9c0-1.6-0.3-3-0.8-4c-0.5-1-1.3-1.5-2.4-1.5c-1.1,0-1.8,0.5-2.4,1.5
		c-0.5,1-0.8,2.3-0.8,4c0,1.6,0.3,3,0.8,3.9C220,155.6,220.8,156.1,222,156.1z"/>
	<path class="copy_purpleFill" d="M233.6,141h6.4v10.6c0,1.2,0.2,2.1,0.6,2.8s1,0.9,2,0.9c1,0,1.8-0.4,2.4-1.2s0.8-2.1,0.8-3.8V141h6.4v19.3h-6
		v-2.9c-0.5,1-1.2,1.8-2.1,2.4s-2.1,0.9-3.7,0.9c-2.3,0-4-0.7-5.1-2c-1.1-1.3-1.6-3.2-1.6-5.7V141z"/>
	<path class="copy_purpleFill" d="M255.1,141h5.7l0.5,3.6c0.6-1.2,1.4-2.1,2.5-2.9c1.1-0.8,2.5-1.2,4.2-1.2v6.5c-0.5-0.1-1.1-0.2-2-0.2
		c-0.5,0-1,0-1.5,0.1c-0.5,0.1-1,0.3-1.4,0.6c-0.4,0.3-0.8,0.8-1.1,1.5c-0.3,0.7-0.4,1.6-0.4,2.8v8.5h-6.4V141z"/>
</g>
<g>
	<path class="copy_purpleFill" d="M44.6,197c0.3,0.3,0.7,0.6,1.1,0.9c0.4,0.3,0.9,0.6,1.4,0.8c0.5,0.2,1.1,0.4,1.6,0.6c0.6,0.1,1.1,0.2,1.7,0.2
		c0.5,0,0.9-0.1,1.4-0.2c0.5-0.2,0.7-0.5,0.7-1c0-0.5-0.3-0.8-0.8-1.1s-1.1-0.5-1.9-0.7c-0.7-0.2-1.6-0.4-2.5-0.7
		c-0.9-0.3-1.7-0.6-2.5-1.1c-0.7-0.5-1.4-1.1-1.9-1.8c-0.5-0.7-0.8-1.7-0.8-2.9c0-1.1,0.2-2,0.7-2.9c0.5-0.8,1.1-1.5,1.8-2
		c0.8-0.5,1.6-0.9,2.6-1.2c1-0.3,2-0.4,3.1-0.4c1.7,0,3.3,0.2,4.6,0.6c1.3,0.4,2.5,1,3.6,1.7l-2.9,4.3c-0.3-0.2-0.6-0.5-1-0.7
		s-0.9-0.4-1.3-0.6c-0.5-0.2-1-0.3-1.6-0.5c-0.5-0.1-1.1-0.2-1.6-0.2c-0.4,0-0.8,0.1-1.1,0.2c-0.3,0.1-0.4,0.4-0.4,0.8
		c0,0.4,0.3,0.8,0.8,1c0.5,0.3,1.1,0.5,1.9,0.7c0.7,0.2,1.6,0.5,2.4,0.8c0.9,0.3,1.7,0.7,2.4,1.1c0.7,0.5,1.4,1.1,1.9,1.8
		s0.8,1.7,0.8,2.8s-0.2,2.1-0.7,2.9c-0.5,0.8-1.1,1.5-1.9,2.1c-0.8,0.5-1.7,0.9-2.7,1.2c-1,0.3-2,0.4-2.9,0.4c-3.6,0-6.6-0.9-9-2.7
		L44.6,197z"/>
	<path class="copy_purpleFill" d="M72.3,203.4c-0.2-0.3-0.3-0.6-0.4-1.1c-0.1-0.5-0.2-0.9-0.2-1.2c-0.4,0.8-1,1.4-1.8,2c-0.8,0.6-2,0.9-3.5,0.9
		c-1,0-2-0.2-2.7-0.5c-0.8-0.3-1.5-0.8-2-1.3c-0.5-0.6-1-1.2-1.2-2c-0.3-0.8-0.4-1.6-0.4-2.5c0-1,0.2-1.8,0.5-2.6
		c0.3-0.7,0.8-1.3,1.5-1.8c0.6-0.5,1.4-0.9,2.3-1.2c0.9-0.3,1.9-0.5,3.1-0.7l3.9-0.6v-0.4c0-0.8-0.2-1.4-0.6-1.6
		c-0.4-0.3-1-0.4-1.8-0.4c-1.2,0-2.2,0.2-3.1,0.6c-0.8,0.4-1.6,0.9-2.3,1.5l-3-4.2c0.4-0.3,0.9-0.7,1.5-1c0.6-0.3,1.3-0.6,2-0.9
		c0.8-0.3,1.6-0.5,2.5-0.6c0.9-0.2,2-0.2,3.1-0.2c2.9,0,4.9,0.6,6.1,1.8c1.2,1.2,1.8,3.1,1.8,5.5v6.9c0,0.8,0,1.5,0,2
		c0,0.5,0.1,1,0.1,1.4c0.1,0.4,0.1,0.8,0.2,1.1c0.1,0.3,0.2,0.7,0.4,1.1H72.3z M71.4,194.8l-2.6,0.5c-0.9,0.2-1.5,0.4-1.9,0.8
		c-0.4,0.3-0.6,0.8-0.6,1.4c0,0.6,0.2,1,0.5,1.4c0.3,0.4,0.8,0.6,1.5,0.6c0.9,0,1.6-0.3,2.3-1c0.6-0.7,0.9-1.7,0.9-3V194.8z"/>
	<path class="copy_purpleFill" d="M78.4,184h7.1l3.1,13.4l3.1-13.4h6.8l-6.4,19.3h-7.5L78.4,184z"/>
	<path class="copy_purpleFill" d="M99.7,176.4h6.4v5.1h-6.4V176.4z M99.7,184h6.4v19.3h-6.4V184z"/>
	<path class="copy_purpleFill" d="M109.1,184h5.7l0.5,2.7c0.6-0.9,1.4-1.7,2.5-2.3c1.1-0.6,2.3-1,3.6-1c4.3,0,6.4,2.7,6.4,8.1v11.8h-6.4v-10.2
		c0-1.5-0.2-2.6-0.7-3.2c-0.5-0.6-1.2-0.9-2.1-0.9c-0.5,0-0.9,0.1-1.3,0.2c-0.4,0.2-0.7,0.5-1,0.9c-0.3,0.4-0.5,0.9-0.6,1.6
		c-0.2,0.7-0.2,1.5-0.2,2.5v9.1h-6.4V184z"/>
	<path class="copy_purpleFill" d="M133,203.3c0.7,0.7,1.7,1.3,2.8,1.7c1.1,0.4,2.2,0.6,3.4,0.6c1.2,0,2-0.3,2.5-0.8c0.4-0.5,0.7-1.3,0.7-2.4
		v-1.8c-0.4,0.7-1.1,1.2-1.9,1.7c-0.8,0.5-1.9,0.7-3.2,0.7c-0.9,0-1.8-0.2-2.7-0.5c-0.9-0.3-1.7-0.8-2.4-1.6
		c-0.7-0.7-1.3-1.7-1.7-2.9c-0.4-1.2-0.6-2.7-0.6-4.5c0-1.6,0.2-3.1,0.6-4.3c0.4-1.2,0.9-2.3,1.6-3.2c0.7-0.9,1.5-1.5,2.5-2
		c0.9-0.4,2-0.7,3.1-0.7c1.2,0,2.2,0.3,3.1,0.8c0.9,0.5,1.6,1.3,2.2,2.4l0.8-2.6h5.1v18.3c0,1.2-0.2,2.3-0.5,3.3
		c-0.3,1-0.9,1.9-1.7,2.6c-0.8,0.7-1.7,1.3-2.9,1.7c-1.2,0.4-2.7,0.6-4.4,0.6c-1.1,0-2.2-0.1-3.2-0.2c-1-0.2-1.8-0.4-2.6-0.6
		c-0.8-0.3-1.5-0.6-2.2-0.9c-0.6-0.3-1.2-0.6-1.7-1L133,203.3z M142.3,193.6c0-0.6,0-1.2-0.1-1.8c-0.1-0.6-0.2-1.1-0.5-1.5
		c-0.2-0.4-0.5-0.8-0.9-1.1s-0.8-0.4-1.4-0.4c-0.4,0-0.8,0.1-1.2,0.2c-0.4,0.2-0.7,0.4-1,0.8c-0.3,0.4-0.5,0.9-0.6,1.5
		c-0.2,0.6-0.2,1.4-0.2,2.2c0,1.6,0.3,2.8,0.8,3.6c0.5,0.8,1.3,1.1,2.3,1.1c1,0,1.7-0.4,2.1-1.1c0.5-0.8,0.7-1.9,0.7-3.3V193.6z"/>
	<path class="copy_purpleFill" d="M153.4,197c0.3,0.3,0.7,0.6,1.1,0.9c0.4,0.3,0.9,0.6,1.4,0.8s1.1,0.4,1.6,0.6c0.6,0.1,1.1,0.2,1.7,0.2
		c0.5,0,0.9-0.1,1.4-0.2c0.5-0.2,0.7-0.5,0.7-1c0-0.5-0.3-0.8-0.8-1.1s-1.1-0.5-1.9-0.7c-0.7-0.2-1.6-0.4-2.5-0.7
		c-0.9-0.3-1.7-0.6-2.5-1.1s-1.4-1.1-1.9-1.8c-0.5-0.7-0.8-1.7-0.8-2.9c0-1.1,0.2-2,0.7-2.9c0.5-0.8,1.1-1.5,1.8-2
		c0.8-0.5,1.6-0.9,2.6-1.2c1-0.3,2-0.4,3.1-0.4c1.7,0,3.3,0.2,4.6,0.6c1.3,0.4,2.5,1,3.6,1.7l-2.9,4.3c-0.3-0.2-0.6-0.5-1-0.7
		s-0.9-0.4-1.3-0.6s-1-0.3-1.6-0.5c-0.5-0.1-1.1-0.2-1.6-0.2c-0.4,0-0.8,0.1-1.1,0.2c-0.3,0.1-0.4,0.4-0.4,0.8c0,0.4,0.3,0.8,0.8,1
		c0.5,0.3,1.1,0.5,1.9,0.7c0.7,0.2,1.6,0.5,2.4,0.8c0.9,0.3,1.7,0.7,2.4,1.1c0.7,0.5,1.4,1.1,1.9,1.8s0.8,1.7,0.8,2.8
		s-0.2,2.1-0.7,2.9s-1.1,1.5-1.9,2.1c-0.8,0.5-1.7,0.9-2.7,1.2s-2,0.4-2.9,0.4c-3.6,0-6.6-0.9-9-2.7L153.4,197z"/>
	<path class="copy_purpleFill" d="M175.7,184h6.9l2.8,13.2l2.5-13.2h6.8l2.5,13.2l2.8-13.2h6.8l-6.3,19.3h-6.8l-2.4-10.4l-2.4,10.4H182
		L175.7,184z"/>
	<path class="copy_purpleFill" d="M208,176.4h6.4v5.1H208V176.4z M208,184h6.4v19.3H208V184z"/>
	<path class="copy_purpleFill" d="M218.9,188.1h-3.1V184h0.5c1,0,1.8-0.2,2.3-0.5c0.6-0.3,1-0.8,1.3-1.3c0.3-0.5,0.6-1.2,0.7-1.8
		c0.2-0.7,0.3-1.4,0.5-2.1h4v5.7h4v4.1h-4v9c0,0.6,0.1,1.1,0.3,1.4c0.2,0.4,0.7,0.6,1.5,0.6c0.2,0,0.5,0,0.8-0.1
		c0.3,0,0.6-0.1,1-0.3l0.4,4.5c-0.7,0.3-1.4,0.5-2.1,0.6s-1.4,0.2-2.2,0.2c-1.2,0-2.2-0.2-3-0.5c-0.8-0.3-1.4-0.7-1.9-1.3
		c-0.5-0.5-0.8-1.2-1-1.9c-0.2-0.7-0.3-1.6-0.3-2.5V188.1z"/>
	<path class="copy_purpleFill" d="M230.8,176.5h6.4v10c0.5-0.9,1.2-1.6,2.2-2.2c1-0.6,2.2-0.9,3.7-0.9c2.2,0,3.8,0.7,4.8,2.1
		c1,1.4,1.5,3.5,1.5,6.1v11.7H243v-10.5c0-1.2-0.2-2.2-0.6-2.8c-0.4-0.7-1.1-1-2.1-1c-0.9,0-1.7,0.4-2.2,1.1c-0.6,0.7-0.9,2-0.9,3.8
		v9.4h-6.4V176.5z"/>
</g>
<g>
	<path class="copy_purpleFill" d="M67.6,240.4c-1.4,2.3-3,4-4.9,5c-1.9,1.1-4.2,1.6-7,1.6c-2.3,0-4.2-0.3-5.9-1s-3.1-1.7-4.3-2.9
		c-1.2-1.2-2-2.7-2.6-4.4c-0.6-1.7-0.9-3.6-0.9-5.6c0-2.1,0.3-4,0.9-5.7c0.6-1.7,1.5-3.2,2.7-4.4c1.2-1.2,2.6-2.2,4.3-2.9
		c1.7-0.7,3.6-1,5.8-1c2.5,0,4.7,0.4,6.6,1.3s3.7,2.5,5.2,4.8l-6.5,3.3c-0.5-1.1-1.2-1.9-2.1-2.5c-0.9-0.6-2-0.9-3.1-0.9
		c-1.1,0-2.1,0.2-2.9,0.6c-0.8,0.4-1.5,1-2,1.7c-0.5,0.7-0.9,1.6-1.2,2.6c-0.3,1-0.4,2-0.4,3.2c0,1.1,0.1,2.2,0.4,3.1
		c0.3,1,0.7,1.8,1.2,2.6c0.5,0.7,1.2,1.3,2,1.7c0.8,0.4,1.7,0.6,2.8,0.6c1.1,0,2.2-0.3,3.1-0.9c0.9-0.6,1.7-1.6,2.3-3.1L67.6,240.4z
		"/>
	<path class="copy_purpleFill" d="M69.5,219.6h6.4v26.8h-6.4V219.6z"/>
	<path class="copy_purpleFill" d="M90.4,246.4c-0.2-0.3-0.3-0.6-0.4-1.1c-0.1-0.5-0.2-0.9-0.2-1.2c-0.4,0.8-1,1.4-1.8,2c-0.8,0.6-2,0.9-3.5,0.9
		c-1,0-2-0.2-2.7-0.5c-0.8-0.3-1.5-0.8-2-1.3c-0.5-0.6-1-1.2-1.2-2c-0.3-0.8-0.4-1.6-0.4-2.5c0-1,0.2-1.8,0.5-2.6
		c0.3-0.7,0.8-1.3,1.5-1.8c0.6-0.5,1.4-0.9,2.3-1.2c0.9-0.3,1.9-0.5,3.1-0.7l3.9-0.6v-0.4c0-0.8-0.2-1.4-0.6-1.6
		c-0.4-0.3-1-0.4-1.8-0.4c-1.2,0-2.2,0.2-3.1,0.6c-0.8,0.4-1.6,0.9-2.3,1.5l-3-4.2c0.4-0.3,0.9-0.7,1.5-1c0.6-0.3,1.3-0.6,2-0.9
		c0.8-0.3,1.6-0.5,2.5-0.6c0.9-0.2,2-0.2,3.1-0.2c2.9,0,4.9,0.6,6.1,1.8c1.2,1.2,1.8,3.1,1.8,5.5v6.9c0,0.8,0,1.5,0,2
		c0,0.5,0.1,1,0.1,1.4c0.1,0.4,0.1,0.8,0.2,1.1c0.1,0.3,0.2,0.7,0.4,1.1H90.4z M89.4,237.8l-2.6,0.5c-0.9,0.2-1.5,0.4-1.9,0.8
		c-0.4,0.3-0.6,0.8-0.6,1.4c0,0.6,0.2,1,0.5,1.4c0.3,0.4,0.8,0.6,1.5,0.6c0.9,0,1.6-0.3,2.3-1c0.6-0.7,0.9-1.7,0.9-3V237.8z"/>
	<path class="copy_purpleFill" d="M98.9,219.4h6.4v5.1h-6.4V219.4z M98.9,227.1h6.4v19.3h-6.4V227.1z"/>
	<path class="copy_purpleFill" d="M108.3,227.1h5.7l0.5,2.7c0.6-1,1.3-1.8,2.2-2.4c0.9-0.6,2-0.9,3.4-0.9c1.6,0,2.8,0.3,3.6,1
		c0.9,0.7,1.5,1.5,1.9,2.4c0.2-0.4,0.5-0.8,0.8-1.2c0.3-0.4,0.7-0.8,1.2-1.1c0.5-0.3,1.1-0.6,1.7-0.8c0.7-0.2,1.5-0.3,2.4-0.3
		c1.4,0,2.5,0.2,3.3,0.7c0.8,0.5,1.5,1.1,1.9,1.8c0.5,0.7,0.8,1.6,0.9,2.6c0.2,1,0.2,2,0.2,3v11.9h-6.4v-10.1c0-1.4-0.2-2.5-0.6-3.2
		c-0.4-0.7-1-1-2-1c-0.3,0-0.6,0.1-0.9,0.2c-0.3,0.1-0.6,0.3-0.9,0.6c-0.3,0.3-0.5,0.8-0.6,1.4c-0.2,0.6-0.2,1.4-0.2,2.4v9.7h-6.4
		v-10.3c0-1.4-0.2-2.4-0.6-3.1c-0.4-0.7-1-1-1.9-1c-0.3,0-0.6,0.1-1,0.2c-0.3,0.1-0.6,0.3-0.9,0.7c-0.3,0.4-0.5,0.9-0.7,1.5
		c-0.2,0.7-0.3,1.6-0.3,2.7v9.2h-6.4V227.1z"/>
	<path class="copy_purpleFill" d="M141.2,219.6h11.4c1.3,0,2.6,0.2,3.9,0.5c1.3,0.3,2.4,0.8,3.4,1.5s1.8,1.6,2.4,2.7c0.6,1.1,0.9,2.4,0.9,4
		c0,1.7-0.3,3.2-0.8,4.3c-0.5,1.2-1.3,2.1-2.2,2.9c-0.9,0.7-2,1.3-3.3,1.6c-1.3,0.3-2.7,0.5-4.1,0.5H148v9h-6.8V219.6z M151.5,232
		c0.6,0,1.2-0.1,1.7-0.2c0.5-0.1,1-0.3,1.3-0.6c0.4-0.3,0.7-0.7,0.9-1.2c0.2-0.5,0.3-1.1,0.3-1.9c0-0.6-0.1-1.2-0.4-1.6
		c-0.2-0.4-0.6-0.8-0.9-1.1c-0.4-0.3-0.9-0.5-1.4-0.6c-0.5-0.1-1.1-0.2-1.6-0.2H148v7.3H151.5z"/>
	<path class="copy_purpleFill" d="M175.9,246.4c-0.2-0.3-0.3-0.6-0.4-1.1c-0.1-0.5-0.2-0.9-0.2-1.2c-0.4,0.8-1,1.4-1.8,2c-0.8,0.6-2,0.9-3.5,0.9
		c-1,0-2-0.2-2.7-0.5c-0.8-0.3-1.5-0.8-2-1.3c-0.5-0.6-1-1.2-1.2-2c-0.3-0.8-0.4-1.6-0.4-2.5c0-1,0.2-1.8,0.5-2.6s0.8-1.3,1.5-1.8
		c0.6-0.5,1.4-0.9,2.3-1.2c0.9-0.3,1.9-0.5,3.1-0.7l3.9-0.6v-0.4c0-0.8-0.2-1.4-0.6-1.6s-1-0.4-1.8-0.4c-1.2,0-2.2,0.2-3.1,0.6
		c-0.8,0.4-1.6,0.9-2.3,1.5l-3-4.2c0.4-0.3,0.9-0.7,1.5-1c0.6-0.3,1.3-0.6,2-0.9s1.6-0.5,2.5-0.6c0.9-0.2,2-0.2,3.1-0.2
		c2.9,0,4.9,0.6,6.1,1.8c1.2,1.2,1.8,3.1,1.8,5.5v6.9c0,0.8,0,1.5,0,2c0,0.5,0.1,1,0.1,1.4c0.1,0.4,0.1,0.8,0.2,1.1
		c0.1,0.3,0.2,0.7,0.4,1.1H175.9z M174.9,237.8l-2.6,0.5c-0.9,0.2-1.5,0.4-1.9,0.8c-0.4,0.3-0.6,0.8-0.6,1.4c0,0.6,0.2,1,0.5,1.4
		c0.3,0.4,0.8,0.6,1.5,0.6c0.9,0,1.6-0.3,2.3-1c0.6-0.7,0.9-1.7,0.9-3V237.8z"/>
	<path class="copy_purpleFill" d="M185.9,240c0.3,0.3,0.7,0.6,1.1,0.9c0.4,0.3,0.9,0.6,1.4,0.8s1.1,0.4,1.6,0.6c0.6,0.1,1.1,0.2,1.7,0.2
		c0.5,0,0.9-0.1,1.4-0.2c0.5-0.2,0.7-0.5,0.7-1c0-0.5-0.3-0.8-0.8-1.1s-1.1-0.5-1.9-0.7c-0.7-0.2-1.6-0.4-2.5-0.7
		c-0.9-0.3-1.7-0.6-2.5-1.1s-1.4-1.1-1.9-1.8c-0.5-0.7-0.8-1.7-0.8-2.9c0-1.1,0.2-2,0.7-2.9c0.5-0.8,1.1-1.5,1.8-2
		c0.8-0.5,1.6-0.9,2.6-1.2c1-0.3,2-0.4,3.1-0.4c1.7,0,3.3,0.2,4.6,0.6c1.3,0.4,2.5,1,3.6,1.7l-2.9,4.3c-0.3-0.2-0.6-0.5-1-0.7
		s-0.9-0.4-1.3-0.6s-1-0.3-1.6-0.5c-0.5-0.1-1.1-0.2-1.6-0.2c-0.4,0-0.8,0.1-1.1,0.2c-0.3,0.1-0.4,0.4-0.4,0.8c0,0.4,0.3,0.8,0.8,1
		c0.5,0.3,1.1,0.5,1.9,0.7c0.7,0.2,1.6,0.5,2.4,0.8c0.9,0.3,1.7,0.7,2.4,1.1c0.7,0.5,1.4,1.1,1.9,1.8s0.8,1.7,0.8,2.8
		s-0.2,2.1-0.7,2.9s-1.1,1.5-1.9,2.1c-0.8,0.5-1.7,0.9-2.7,1.2s-2,0.4-2.9,0.4c-3.6,0-6.6-0.9-9-2.7L185.9,240z"/>
	<path class="copy_purpleFill" d="M203.4,240c0.3,0.3,0.7,0.6,1.1,0.9c0.4,0.3,0.9,0.6,1.4,0.8s1.1,0.4,1.6,0.6c0.6,0.1,1.1,0.2,1.7,0.2
		c0.5,0,0.9-0.1,1.4-0.2c0.5-0.2,0.7-0.5,0.7-1c0-0.5-0.3-0.8-0.8-1.1s-1.1-0.5-1.9-0.7c-0.7-0.2-1.6-0.4-2.5-0.7
		c-0.9-0.3-1.7-0.6-2.5-1.1s-1.4-1.1-1.9-1.8c-0.5-0.7-0.8-1.7-0.8-2.9c0-1.1,0.2-2,0.7-2.9c0.5-0.8,1.1-1.5,1.8-2
		c0.8-0.5,1.6-0.9,2.6-1.2c1-0.3,2-0.4,3.1-0.4c1.7,0,3.3,0.2,4.6,0.6c1.3,0.4,2.5,1,3.6,1.7l-2.9,4.3c-0.3-0.2-0.6-0.5-1-0.7
		s-0.9-0.4-1.3-0.6s-1-0.3-1.6-0.5c-0.5-0.1-1.1-0.2-1.6-0.2c-0.4,0-0.8,0.1-1.1,0.2c-0.3,0.1-0.4,0.4-0.4,0.8c0,0.4,0.3,0.8,0.8,1
		c0.5,0.3,1.1,0.5,1.9,0.7c0.7,0.2,1.6,0.5,2.4,0.8c0.9,0.3,1.7,0.7,2.4,1.1c0.7,0.5,1.4,1.1,1.9,1.8s0.8,1.7,0.8,2.8
		s-0.2,2.1-0.7,2.9s-1.1,1.5-1.9,2.1c-0.8,0.5-1.7,0.9-2.7,1.2s-2,0.4-2.9,0.4c-3.6,0-6.6-0.9-9-2.7L203.4,240z"/>
</g>
<g>
	<path class="copy_purpleFill" d="M218.9,241h5.4v5.4h-5.4V241z"/>
</g>
</svg>
