<?xml version="1.0" encoding="utf-8"?>
<!-- Generator: Adobe Illustrator 22.1.0, SVG Export Plug-In . SVG Version: 6.00 Build 0)  -->
<svg version="1.1" id="Layer_1" xmlns="http://www.w3.org/2000/svg" xmlns:xlink="http://www.w3.org/1999/xlink" x="0px" y="0px"
	 viewBox="0 0 300 600" style="enable-background:new 0 0 300 600;" xml:space="preserve">
<style type="text/css">
	.st0{fill:#662868;}
</style>
<g>
	<path class="st0" d="M46.2,152.2c0.2,0.3,0.6,0.7,1,1c0.4,0.4,0.9,0.7,1.6,1c0.6,0.3,1.3,0.6,2,0.8c0.7,0.2,1.5,0.3,2.4,0.3
		c1.2,0,2.1-0.2,2.7-0.6c0.7-0.4,1-0.9,1-1.6c0-0.5-0.1-1-0.4-1.3c-0.3-0.3-0.7-0.6-1.3-0.9c-0.6-0.2-1.3-0.5-2.1-0.6
		c-0.8-0.2-1.8-0.4-2.9-0.7c-2.7-0.7-4.6-1.7-5.7-3c-1.2-1.3-1.7-3-1.7-5c0-1.1,0.2-2.2,0.7-3.3s1.1-2,2-2.8c0.9-0.8,2-1.4,3.3-1.9
		c1.3-0.5,2.9-0.7,4.7-0.7c2.1,0,4,0.3,5.9,1c1.9,0.7,3.5,1.8,4.7,3.2l-4.6,4.3c-0.7-0.8-1.6-1.5-2.7-2.1c-1.1-0.6-2.3-0.8-3.8-0.8
		c-0.7,0-1.2,0.1-1.6,0.2c-0.4,0.1-0.7,0.3-1,0.5c-0.2,0.2-0.4,0.4-0.5,0.7s-0.1,0.5-0.1,0.7c0,0.6,0.3,1.2,1,1.7
		c0.6,0.5,1.8,1,3.6,1.4c2,0.5,3.6,1,4.8,1.6c1.3,0.6,2.2,1.2,3,1.9c0.7,0.7,1.2,1.4,1.5,2.3c0.3,0.8,0.4,1.8,0.4,2.8
		c0,1.4-0.3,2.7-0.9,3.8c-0.6,1.1-1.4,2-2.4,2.7c-1,0.7-2.2,1.3-3.5,1.6c-1.3,0.4-2.7,0.6-4.2,0.6c-1.4,0-2.7-0.1-3.9-0.3
		c-1.2-0.2-2.3-0.5-3.2-0.9c-1-0.4-1.8-0.8-2.5-1.3s-1.3-1-1.7-1.5L46.2,152.2z"/>
	<path class="st0" d="M66.2,141h6.4v10.6c0,1.2,0.2,2.1,0.6,2.8c0.4,0.6,1,0.9,2,0.9c1,0,1.8-0.4,2.4-1.2c0.5-0.8,0.8-2.1,0.8-3.8
		V141h6.4v19.3h-6v-2.9c-0.5,1-1.2,1.8-2.1,2.4s-2.1,0.9-3.7,0.9c-2.3,0-4-0.7-5.1-2c-1.1-1.3-1.6-3.2-1.6-5.7V141z"/>
	<path class="st0" d="M87.7,141h5.7l0.5,3.6c0.6-1.2,1.4-2.1,2.5-2.9c1.1-0.8,2.5-1.2,4.2-1.2v6.5c-0.5-0.1-1.1-0.2-2-0.2
		c-0.5,0-1,0-1.5,0.1c-0.5,0.1-1,0.3-1.4,0.6c-0.4,0.3-0.8,0.8-1.1,1.5c-0.3,0.7-0.4,1.6-0.4,2.8v8.5h-6.4V141z"/>
	<path class="st0" d="M107.3,152.2c0.2,1.5,0.7,2.5,1.4,3.1c0.7,0.6,1.6,0.9,2.5,0.9c0.8,0,1.5-0.2,2.1-0.5c0.6-0.4,1.1-0.9,1.5-1.6
		l4.7,2.7c-1,1.5-2.2,2.5-3.7,3.2s-3.2,1-5,1c-1.6,0-3.1-0.3-4.4-0.8c-1.3-0.5-2.3-1.2-3.2-2.1s-1.5-2-2-3.2c-0.4-1.3-0.7-2.6-0.7-4
		c0-1.5,0.2-2.8,0.7-4.1c0.5-1.3,1.1-2.4,2-3.3c0.8-0.9,1.9-1.6,3.1-2.1c1.2-0.5,2.6-0.8,4.1-0.8c1.5,0,2.8,0.3,4,0.8
		c1.2,0.5,2.1,1.2,2.9,2.1c0.8,0.9,1.4,2,1.8,3.3c0.4,1.3,0.6,2.8,0.6,4.4c0,0.4,0,0.6,0,0.8c0,0.2,0,0.3,0,0.3H107.3z M110.5,145.1
		c-1.8,0-2.9,1.2-3.2,3.5h6.2c0-1-0.2-1.8-0.7-2.5C112.3,145.5,111.6,145.1,110.5,145.1z"/>
	<path class="st0" d="M121.8,165.4c0.7-0.3,1.2-0.6,1.7-0.9c0.4-0.3,0.7-0.7,1-1c0.2-0.4,0.4-0.7,0.5-1.1c0.1-0.4,0.1-0.8,0.1-1.3
		v-0.6h-3.2v-7h7v7c0,1.2-0.1,2.2-0.3,3.1c-0.2,0.8-0.6,1.6-1,2.2c-0.5,0.6-1.1,1.2-1.8,1.6c-0.7,0.4-1.5,0.9-2.5,1.2L121.8,165.4z"
		/>
	<path class="st0" d="M140.1,162.3c0.5,0.2,0.9,0.3,1.4,0.4c0.5,0.1,0.9,0.2,1.3,0.2c0.6,0,1-0.1,1.3-0.4c0.3-0.3,0.6-0.7,0.7-1.3
		l-7-20h6.9l3.3,13l3.3-13h6.9l-6.7,19.2c-0.4,1.1-0.8,2-1.1,2.9c-0.4,0.9-0.9,1.7-1.5,2.3s-1.4,1.2-2.3,1.5
		c-0.9,0.4-2.1,0.6-3.6,0.6c-0.2,0-0.5,0-0.9,0c-0.3,0-0.7,0-1.1-0.1c-0.4,0-0.7-0.1-1.1-0.1c-0.3,0-0.6-0.1-0.8-0.2L140.1,162.3z"
		/>
	<path class="st0" d="M167.8,161c-1.6,0-3.1-0.3-4.3-0.8c-1.2-0.5-2.2-1.2-3.1-2.1s-1.4-2-1.8-3.2s-0.6-2.6-0.6-4.1s0.2-2.8,0.6-4.1
		c0.4-1.3,1.1-2.3,1.9-3.3s1.8-1.6,3.1-2.2c1.2-0.5,2.6-0.8,4.2-0.8s3,0.3,4.2,0.8c1.2,0.5,2.2,1.2,3.1,2.1c0.8,0.9,1.4,2,1.8,3.3
		s0.6,2.6,0.6,4.1s-0.2,2.8-0.6,4.1s-1,2.3-1.8,3.2s-1.8,1.6-3.1,2.1C170.8,160.7,169.4,161,167.8,161z M167.9,156.1
		c1.1,0,1.8-0.5,2.3-1.4c0.5-1,0.7-2.3,0.7-3.9c0-1.6-0.3-3-0.8-4c-0.5-1-1.3-1.5-2.4-1.5c-1.1,0-1.8,0.5-2.4,1.5
		c-0.5,1-0.8,2.3-0.8,4c0,1.6,0.3,3,0.8,3.9C165.9,155.6,166.8,156.1,167.9,156.1z"/>
	<path class="st0" d="M179.5,141h6.4v10.6c0,1.2,0.2,2.1,0.6,2.8s1,0.9,2,0.9c1,0,1.8-0.4,2.4-1.2s0.8-2.1,0.8-3.8V141h6.4v19.3h-6
		v-2.9c-0.5,1-1.2,1.8-2.1,2.4s-2.1,0.9-3.7,0.9c-2.3,0-4-0.7-5.1-2c-1.1-1.3-1.6-3.2-1.6-5.7V141z"/>
	<path class="st0" d="M201.1,145.3c0.7-0.3,1.2-0.6,1.7-0.9c0.4-0.3,0.7-0.7,1-1c0.2-0.4,0.4-0.7,0.5-1.1c0.1-0.4,0.1-0.8,0.1-1.3
		v-0.6h-3.2v-6.7h7v6.7c0,1.2-0.1,2.2-0.3,3.1c-0.2,0.8-0.6,1.6-1,2.2c-0.5,0.6-1.1,1.2-1.8,1.6c-0.7,0.4-1.5,0.9-2.5,1.2
		L201.1,145.3z"/>
	<path class="st0" d="M210.3,141h5.7l0.5,3.6c0.6-1.2,1.4-2.1,2.5-2.9c1.1-0.8,2.5-1.2,4.2-1.2v6.5c-0.5-0.1-1.1-0.2-2-0.2
		c-0.5,0-1,0-1.5,0.1c-0.5,0.1-1,0.3-1.4,0.6c-0.4,0.3-0.8,0.8-1.1,1.5c-0.3,0.7-0.4,1.6-0.4,2.8v8.5h-6.4V141z"/>
	<path class="st0" d="M230,152.2c0.2,1.5,0.7,2.5,1.4,3.1c0.7,0.6,1.6,0.9,2.5,0.9c0.8,0,1.5-0.2,2.1-0.5c0.6-0.4,1.1-0.9,1.5-1.6
		l4.7,2.7c-1,1.5-2.2,2.5-3.7,3.2c-1.5,0.7-3.2,1-5,1c-1.6,0-3.1-0.3-4.4-0.8s-2.3-1.2-3.2-2.1c-0.9-0.9-1.5-2-2-3.2
		c-0.4-1.3-0.7-2.6-0.7-4c0-1.5,0.2-2.8,0.7-4.1s1.1-2.4,2-3.3c0.8-0.9,1.9-1.6,3.1-2.1c1.2-0.5,2.6-0.8,4.1-0.8
		c1.5,0,2.8,0.3,4,0.8c1.2,0.5,2.1,1.2,2.9,2.1c0.8,0.9,1.4,2,1.8,3.3c0.4,1.3,0.6,2.8,0.6,4.4c0,0.4,0,0.6,0,0.8c0,0.2,0,0.3,0,0.3
		H230z M233.1,145.1c-1.8,0-2.9,1.2-3.2,3.5h6.2c0-1-0.2-1.8-0.7-2.5C235,145.5,234.2,145.1,233.1,145.1z"/>
</g>
<g>
	<path class="st0" d="M44.5,194.9c0.3,0.3,0.7,0.6,1.1,0.9c0.4,0.3,0.9,0.6,1.4,0.8c0.5,0.2,1.1,0.4,1.6,0.6
		c0.6,0.1,1.1,0.2,1.7,0.2c0.5,0,0.9-0.1,1.4-0.2c0.5-0.2,0.7-0.5,0.7-1c0-0.5-0.3-0.8-0.8-1.1s-1.1-0.5-1.9-0.7
		c-0.7-0.2-1.6-0.4-2.5-0.7c-0.9-0.3-1.7-0.6-2.5-1.1c-0.7-0.5-1.4-1.1-1.9-1.8c-0.5-0.7-0.8-1.7-0.8-2.9c0-1.1,0.2-2,0.7-2.9
		c0.5-0.8,1.1-1.5,1.8-2c0.8-0.5,1.6-0.9,2.6-1.2c1-0.3,2-0.4,3.1-0.4c1.7,0,3.3,0.2,4.6,0.6c1.3,0.4,2.5,1,3.6,1.7l-2.9,4.3
		c-0.3-0.2-0.6-0.5-1-0.7s-0.9-0.4-1.3-0.6c-0.5-0.2-1-0.3-1.6-0.5c-0.5-0.1-1.1-0.2-1.6-0.2c-0.4,0-0.8,0.1-1.1,0.2
		c-0.3,0.1-0.4,0.4-0.4,0.8c0,0.4,0.3,0.8,0.8,1c0.5,0.3,1.1,0.5,1.9,0.7c0.7,0.2,1.6,0.5,2.4,0.8c0.9,0.3,1.7,0.7,2.4,1.1
		c0.7,0.5,1.4,1.1,1.9,1.8s0.8,1.7,0.8,2.8s-0.2,2.1-0.7,2.9c-0.5,0.8-1.1,1.5-1.9,2.1c-0.8,0.5-1.7,0.9-2.7,1.2
		c-1,0.3-2,0.4-2.9,0.4c-3.6,0-6.6-0.9-9-2.7L44.5,194.9z"/>
	<path class="st0" d="M72.2,201.4c-0.2-0.3-0.3-0.6-0.4-1.1c-0.1-0.5-0.2-0.9-0.2-1.2c-0.4,0.8-1,1.4-1.8,2c-0.8,0.6-2,0.9-3.5,0.9
		c-1,0-2-0.2-2.7-0.5c-0.8-0.3-1.5-0.8-2-1.3c-0.5-0.6-1-1.2-1.2-2c-0.3-0.8-0.4-1.6-0.4-2.5c0-1,0.2-1.8,0.5-2.6
		c0.3-0.7,0.8-1.3,1.5-1.8c0.6-0.5,1.4-0.9,2.3-1.2c0.9-0.3,1.9-0.5,3.1-0.7l3.9-0.6v-0.4c0-0.8-0.2-1.4-0.6-1.6
		c-0.4-0.3-1-0.4-1.8-0.4c-1.2,0-2.2,0.2-3.1,0.6c-0.8,0.4-1.6,0.9-2.3,1.5l-3-4.2c0.4-0.3,0.9-0.7,1.5-1c0.6-0.3,1.3-0.6,2-0.9
		c0.8-0.3,1.6-0.5,2.5-0.6c0.9-0.2,2-0.2,3.1-0.2c2.9,0,4.9,0.6,6.1,1.8c1.2,1.2,1.8,3.1,1.8,5.5v6.9c0,0.8,0,1.5,0,2
		c0,0.5,0.1,1,0.1,1.4c0.1,0.4,0.1,0.8,0.2,1.1c0.1,0.3,0.2,0.7,0.4,1.1H72.2z M71.2,192.8l-2.6,0.5c-0.9,0.2-1.5,0.4-1.9,0.8
		c-0.4,0.3-0.6,0.8-0.6,1.4c0,0.6,0.2,1,0.5,1.4c0.3,0.4,0.8,0.6,1.5,0.6c0.9,0,1.6-0.3,2.3-1c0.6-0.7,0.9-1.7,0.9-3V192.8z"/>
	<path class="st0" d="M78.2,182h7.1l3.1,13.4l3.1-13.4h6.8L92,201.4h-7.5L78.2,182z"/>
	<path class="st0" d="M99.5,174.3h6.4v5.1h-6.4V174.3z M99.5,182h6.4v19.3h-6.4V182z"/>
	<path class="st0" d="M108.9,182h5.7l0.5,2.7c0.6-0.9,1.4-1.7,2.5-2.3c1.1-0.6,2.3-1,3.6-1c4.3,0,6.4,2.7,6.4,8.1v11.8h-6.4v-10.2
		c0-1.5-0.2-2.6-0.7-3.2c-0.5-0.6-1.2-0.9-2.1-0.9c-0.5,0-0.9,0.1-1.3,0.2c-0.4,0.2-0.7,0.5-1,0.9c-0.3,0.4-0.5,0.9-0.6,1.6
		c-0.2,0.7-0.2,1.5-0.2,2.5v9.1h-6.4V182z"/>
	<path class="st0" d="M132.8,201.3c0.7,0.7,1.7,1.3,2.8,1.7c1.1,0.4,2.2,0.6,3.4,0.6c1.2,0,2-0.3,2.5-0.8c0.4-0.5,0.7-1.3,0.7-2.4
		v-1.8c-0.4,0.7-1.1,1.2-1.9,1.7c-0.8,0.5-1.9,0.7-3.2,0.7c-0.9,0-1.8-0.2-2.7-0.5c-0.9-0.3-1.7-0.8-2.4-1.6
		c-0.7-0.7-1.3-1.7-1.7-2.9c-0.4-1.2-0.6-2.7-0.6-4.5c0-1.6,0.2-3.1,0.6-4.3c0.4-1.2,0.9-2.3,1.6-3.2c0.7-0.9,1.5-1.5,2.5-2
		c0.9-0.4,2-0.7,3.1-0.7c1.2,0,2.2,0.3,3.1,0.8c0.9,0.5,1.6,1.3,2.2,2.4l0.8-2.6h5.1v18.3c0,1.2-0.2,2.3-0.5,3.3
		c-0.3,1-0.9,1.9-1.7,2.6c-0.8,0.7-1.7,1.3-2.9,1.7c-1.2,0.4-2.7,0.6-4.4,0.6c-1.1,0-2.2-0.1-3.2-0.2c-1-0.2-1.8-0.4-2.6-0.6
		c-0.8-0.3-1.5-0.6-2.2-0.9c-0.6-0.3-1.2-0.6-1.7-1L132.8,201.3z M142.1,191.6c0-0.6,0-1.2-0.1-1.8c-0.1-0.6-0.2-1.1-0.5-1.5
		c-0.2-0.4-0.5-0.8-0.9-1.1s-0.8-0.4-1.4-0.4c-0.4,0-0.8,0.1-1.2,0.2c-0.4,0.2-0.7,0.4-1,0.8c-0.3,0.4-0.5,0.9-0.6,1.5
		c-0.2,0.6-0.2,1.4-0.2,2.2c0,1.6,0.3,2.8,0.8,3.6c0.5,0.8,1.3,1.1,2.3,1.1c1,0,1.7-0.4,2.1-1.1c0.5-0.8,0.7-1.9,0.7-3.3V191.6z"/>
	<path class="st0" d="M151.2,194.3h7v7h-7V194.3z"/>
</g>
<g>
	<path class="st0" d="M43.1,221.5h12.4c1.1,0,2.2,0.1,3.3,0.4c1.1,0.3,2,0.7,2.9,1.3c0.8,0.6,1.5,1.4,2.1,2.3c0.5,0.9,0.8,2,0.8,3.3
		c0,0.6-0.1,1.3-0.4,1.9c-0.2,0.6-0.6,1.2-1,1.8c-0.4,0.5-1,1-1.6,1.4c-0.6,0.4-1.3,0.7-2,0.8c1.8,0.4,3.3,1,4.3,2.1
		c1.1,1,1.6,2.4,1.6,4.3c0,1.5-0.3,2.7-0.8,3.6c-0.5,0.9-1.2,1.7-2.1,2.2c-0.9,0.5-1.9,0.9-3,1.1c-1.1,0.2-2.3,0.3-3.5,0.3H43.1
		V221.5z M53.5,232.3c1.5,0,2.5-0.2,3-0.7c0.5-0.5,0.8-1.2,0.8-2.2c0-0.8-0.2-1.5-0.7-2c-0.5-0.5-1.3-0.7-2.5-0.7h-4.1v5.5H53.5z
		 M55,243.2c0.6,0,1.2-0.1,1.6-0.2c0.4-0.2,0.7-0.4,1-0.6c0.2-0.3,0.4-0.6,0.5-0.9c0.1-0.4,0.1-0.7,0.1-1.1c0-0.9-0.3-1.6-0.9-2.1
		c-0.6-0.5-1.5-0.8-2.7-0.8h-4.6v5.8H55z"/>
	<path class="st0" d="M67.5,229h6.4v10.6c0,1.2,0.2,2.1,0.6,2.8c0.4,0.6,1,0.9,2,0.9c1,0,1.8-0.4,2.4-1.2c0.5-0.8,0.8-2.1,0.8-3.8
		V229H86v19.3h-6v-2.9c-0.5,1-1.2,1.8-2.1,2.4s-2.1,0.9-3.7,0.9c-2.3,0-4-0.7-5.1-2c-1.1-1.3-1.6-3.2-1.6-5.7V229z"/>
	<path class="st0" d="M90.5,233.1h-3.1V229H88c1,0,1.8-0.2,2.3-0.5c0.6-0.3,1-0.8,1.3-1.3c0.3-0.5,0.6-1.2,0.7-1.8
		c0.2-0.7,0.3-1.4,0.5-2.1h4v5.7h4v4.1h-4v9c0,0.6,0.1,1.1,0.3,1.4c0.2,0.4,0.7,0.6,1.5,0.6c0.2,0,0.5,0,0.8-0.1
		c0.3,0,0.6-0.1,1-0.3l0.4,4.5c-0.7,0.3-1.4,0.5-2.1,0.6c-0.7,0.1-1.4,0.2-2.2,0.2c-1.2,0-2.2-0.2-3-0.5c-0.8-0.3-1.4-0.7-1.9-1.3
		c-0.5-0.5-0.8-1.2-1-1.9c-0.2-0.7-0.3-1.6-0.3-2.5V233.1z"/>
	<path class="st0" d="M110.2,229h5.7l0.5,2.7c0.6-0.9,1.4-1.7,2.5-2.3c1.1-0.6,2.3-1,3.6-1c4.3,0,6.4,2.7,6.4,8.1v11.8h-6.4v-10.2
		c0-1.5-0.2-2.6-0.7-3.2c-0.5-0.6-1.2-0.9-2.1-0.9c-0.5,0-0.9,0.1-1.3,0.2c-0.4,0.2-0.7,0.5-1,0.9c-0.3,0.4-0.5,0.9-0.6,1.6
		c-0.2,0.7-0.2,1.5-0.2,2.5v9.1h-6.4V229z"/>
	<path class="st0" d="M140.6,249c-1.6,0-3.1-0.3-4.3-0.8c-1.2-0.5-2.2-1.2-3.1-2.1c-0.8-0.9-1.4-2-1.8-3.2c-0.4-1.2-0.6-2.6-0.6-4.1
		s0.2-2.8,0.6-4.1c0.4-1.3,1.1-2.3,1.9-3.3c0.8-0.9,1.8-1.6,3.1-2.2c1.2-0.5,2.6-0.8,4.2-0.8c1.6,0,3,0.3,4.2,0.8
		c1.2,0.5,2.2,1.2,3.1,2.1c0.8,0.9,1.4,2,1.8,3.3s0.6,2.6,0.6,4.1s-0.2,2.8-0.6,4.1s-1,2.3-1.8,3.2c-0.8,0.9-1.8,1.6-3.1,2.1
		C143.6,248.7,142.2,249,140.6,249z M140.8,244.1c1.1,0,1.8-0.5,2.3-1.4c0.5-1,0.7-2.3,0.7-3.9c0-1.6-0.3-3-0.8-4
		c-0.5-1-1.3-1.5-2.4-1.5s-1.8,0.5-2.4,1.5c-0.5,1-0.8,2.3-0.8,4c0,1.6,0.3,3,0.8,3.9C138.8,243.6,139.6,244.1,140.8,244.1z"/>
	<path class="st0" d="M153.6,233.1h-3.1V229h0.5c1,0,1.8-0.2,2.3-0.5c0.6-0.3,1-0.8,1.3-1.3c0.3-0.5,0.6-1.2,0.7-1.8
		c0.2-0.7,0.3-1.4,0.5-2.1h4v5.7h4v4.1h-4v9c0,0.6,0.1,1.1,0.3,1.4c0.2,0.4,0.7,0.6,1.5,0.6c0.2,0,0.5,0,0.8-0.1
		c0.3,0,0.6-0.1,1-0.3l0.4,4.5c-0.7,0.3-1.4,0.5-2.1,0.6s-1.4,0.2-2.2,0.2c-1.2,0-2.2-0.2-3-0.5c-0.8-0.3-1.4-0.7-1.9-1.3
		c-0.5-0.5-0.8-1.2-1-1.9c-0.2-0.7-0.3-1.6-0.3-2.5V233.1z"/>
	<path class="st0" d="M184.9,246.5c-0.5,0.7-1.1,1.3-1.8,1.7c-0.8,0.4-1.7,0.6-2.8,0.6c-1,0-2-0.2-2.9-0.5s-1.8-0.9-2.5-1.7
		c-0.7-0.8-1.3-1.8-1.7-3.1c-0.4-1.3-0.7-2.9-0.7-4.7c0-3.4,0.7-5.9,2.1-7.7c1.4-1.7,3.3-2.6,5.6-2.6c1.1,0,2.1,0.2,3.1,0.7
		c0.9,0.5,1.7,1.3,2.3,2.5l0.9-2.7h5v26h-6.4V246.5z M184.9,238.6c0-1.5-0.2-2.7-0.7-3.6c-0.5-0.9-1.2-1.3-2.2-1.3
		c-1.1,0-1.8,0.4-2.3,1.3c-0.4,0.9-0.7,2.1-0.7,3.5c0,1.8,0.3,3.1,0.8,3.9c0.6,0.8,1.3,1.2,2.2,1.2c0.9,0,1.6-0.4,2.1-1.2
		c0.5-0.8,0.7-2,0.7-3.5V238.6z"/>
	<path class="st0" d="M194.2,229h6.4v10.6c0,1.2,0.2,2.1,0.6,2.8s1,0.9,2,0.9c1,0,1.8-0.4,2.4-1.2s0.8-2.1,0.8-3.8V229h6.4v19.3h-6
		v-2.9c-0.5,1-1.2,1.8-2.1,2.4s-2.1,0.9-3.7,0.9c-2.3,0-4-0.7-5.1-2c-1.1-1.3-1.6-3.2-1.6-5.7V229z"/>
	<path class="st0" d="M215.7,221.4h6.4v5.1h-6.4V221.4z M215.7,229h6.4v19.3h-6.4V229z"/>
	<path class="st0" d="M226.6,233.1h-3.1V229h0.5c1,0,1.8-0.2,2.3-0.5c0.6-0.3,1-0.8,1.3-1.3c0.3-0.5,0.6-1.2,0.7-1.8
		c0.2-0.7,0.3-1.4,0.5-2.1h4v5.7h4v4.1h-4v9c0,0.6,0.1,1.1,0.3,1.4c0.2,0.4,0.7,0.6,1.5,0.6c0.2,0,0.5,0,0.8-0.1
		c0.3,0,0.6-0.1,1-0.3l0.4,4.5c-0.7,0.3-1.4,0.5-2.1,0.6s-1.4,0.2-2.2,0.2c-1.2,0-2.2-0.2-3-0.5c-0.8-0.3-1.4-0.7-1.9-1.3
		c-0.5-0.5-0.8-1.2-1-1.9c-0.2-0.7-0.3-1.6-0.3-2.5V233.1z"/>
	<path class="st0" d="M243.9,240.2c0.2,1.5,0.7,2.5,1.4,3.1c0.7,0.6,1.6,0.9,2.5,0.9c0.8,0,1.5-0.2,2.1-0.5c0.6-0.4,1.1-0.9,1.5-1.6
		l4.7,2.7c-1,1.5-2.2,2.5-3.7,3.2c-1.5,0.7-3.2,1-5,1c-1.6,0-3.1-0.3-4.4-0.8s-2.3-1.2-3.2-2.1c-0.9-0.9-1.5-2-2-3.2
		c-0.4-1.3-0.7-2.6-0.7-4c0-1.5,0.2-2.8,0.7-4.1s1.1-2.4,2-3.3c0.8-0.9,1.9-1.6,3.1-2.1c1.2-0.5,2.6-0.8,4.1-0.8
		c1.5,0,2.8,0.3,4,0.8c1.2,0.5,2.1,1.2,2.9,2.1c0.8,0.9,1.4,2,1.8,3.3c0.4,1.3,0.6,2.8,0.6,4.4c0,0.4,0,0.6,0,0.8c0,0.2,0,0.3,0,0.3
		H243.9z M247,233.1c-1.8,0-2.9,1.2-3.2,3.5h6.2c0-1-0.2-1.8-0.7-2.5C248.9,233.5,248.1,233.1,247,233.1z"/>
</g>
<g>
	<path class="st0" d="M48.4,281.2c0.2,1.5,0.7,2.5,1.4,3.1c0.7,0.6,1.6,0.9,2.5,0.9c0.8,0,1.5-0.2,2.1-0.5c0.6-0.4,1.1-0.9,1.5-1.6
		l4.7,2.7c-1,1.5-2.2,2.5-3.7,3.2s-3.2,1-5,1c-1.6,0-3.1-0.3-4.4-0.8c-1.3-0.5-2.3-1.2-3.2-2.1s-1.5-2-2-3.2c-0.4-1.3-0.7-2.6-0.7-4
		c0-1.5,0.2-2.8,0.7-4.1c0.5-1.3,1.1-2.4,2-3.3c0.8-0.9,1.9-1.6,3.1-2.1c1.2-0.5,2.6-0.8,4.1-0.8c1.5,0,2.8,0.3,4,0.8
		c1.2,0.5,2.1,1.2,2.9,2.1c0.8,0.9,1.4,2,1.8,3.3c0.4,1.3,0.6,2.8,0.6,4.4c0,0.4,0,0.6,0,0.8c0,0.2,0,0.3,0,0.3H48.4z M51.6,274.1
		c-1.8,0-2.9,1.2-3.2,3.5h6.2c0-1-0.2-1.8-0.7-2.5C53.4,274.5,52.6,274.1,51.6,274.1z"/>
	<path class="st0" d="M63.2,270H69l0.5,2.7c0.6-0.9,1.4-1.7,2.5-2.3c1.1-0.6,2.3-1,3.6-1c4.3,0,6.4,2.7,6.4,8.1v11.8h-6.4v-10.2
		c0-1.5-0.2-2.6-0.7-3.2c-0.5-0.6-1.2-0.9-2.1-0.9c-0.5,0-0.9,0.1-1.3,0.2c-0.4,0.2-0.7,0.5-1,0.9c-0.3,0.4-0.5,0.9-0.6,1.6
		c-0.2,0.7-0.2,1.5-0.2,2.5v9.1h-6.4V270z"/>
	<path class="st0" d="M93.6,290c-1.6,0-3.1-0.3-4.3-0.8c-1.2-0.5-2.2-1.2-3.1-2.1c-0.8-0.9-1.4-2-1.8-3.2c-0.4-1.2-0.6-2.6-0.6-4.1
		s0.2-2.8,0.6-4.1c0.4-1.3,1.1-2.3,1.9-3.3c0.8-0.9,1.8-1.6,3.1-2.2c1.2-0.5,2.6-0.8,4.2-0.8c1.6,0,3,0.3,4.2,0.8
		c1.2,0.5,2.2,1.2,3.1,2.1c0.8,0.9,1.4,2,1.8,3.3s0.6,2.6,0.6,4.1s-0.2,2.8-0.6,4.1s-1,2.3-1.8,3.2c-0.8,0.9-1.8,1.6-3.1,2.1
		C96.6,289.7,95.2,290,93.6,290z M93.7,285.1c1.1,0,1.8-0.5,2.3-1.4c0.5-1,0.7-2.3,0.7-3.9c0-1.6-0.3-3-0.8-4
		c-0.5-1-1.3-1.5-2.4-1.5s-1.8,0.5-2.4,1.5c-0.5,1-0.8,2.3-0.8,4c0,1.6,0.3,3,0.8,3.9C91.8,284.6,92.6,285.1,93.7,285.1z"/>
	<path class="st0" d="M105.4,270h6.4v10.6c0,1.2,0.2,2.1,0.6,2.8c0.4,0.6,1,0.9,2,0.9c1,0,1.8-0.4,2.4-1.2c0.5-0.8,0.8-2.1,0.8-3.8
		V270h6.4v19.3h-6v-2.9c-0.5,1-1.2,1.8-2.1,2.4s-2.1,0.9-3.7,0.9c-2.3,0-4-0.7-5.1-2c-1.1-1.3-1.6-3.2-1.6-5.7V270z"/>
	<path class="st0" d="M129.3,289.3c0.7,0.7,1.7,1.3,2.8,1.7c1.1,0.4,2.2,0.6,3.4,0.6c1.2,0,2-0.3,2.5-0.8c0.4-0.5,0.7-1.3,0.7-2.4
		v-1.8c-0.4,0.7-1.1,1.2-1.9,1.7c-0.8,0.5-1.9,0.7-3.2,0.7c-0.9,0-1.8-0.2-2.7-0.5c-0.9-0.3-1.7-0.8-2.4-1.6
		c-0.7-0.7-1.3-1.7-1.7-2.9c-0.4-1.2-0.6-2.7-0.6-4.5c0-1.6,0.2-3.1,0.6-4.3c0.4-1.2,0.9-2.3,1.6-3.2c0.7-0.9,1.5-1.5,2.5-2
		c0.9-0.4,2-0.7,3.1-0.7c1.2,0,2.2,0.3,3.1,0.8c0.9,0.5,1.6,1.3,2.2,2.4l0.8-2.6h5.1v18.3c0,1.2-0.2,2.3-0.5,3.3
		c-0.3,1-0.9,1.9-1.7,2.6c-0.8,0.7-1.7,1.3-2.9,1.7c-1.2,0.4-2.7,0.6-4.4,0.6c-1.1,0-2.2-0.1-3.2-0.2c-1-0.2-1.8-0.4-2.6-0.6
		c-0.8-0.3-1.5-0.6-2.2-0.9c-0.6-0.3-1.2-0.6-1.7-1L129.3,289.3z M138.6,279.6c0-0.6,0-1.2-0.1-1.8c-0.1-0.6-0.2-1.1-0.5-1.5
		c-0.2-0.4-0.5-0.8-0.9-1.1s-0.8-0.4-1.4-0.4c-0.4,0-0.8,0.1-1.2,0.2c-0.4,0.2-0.7,0.4-1,0.8c-0.3,0.4-0.5,0.9-0.6,1.5
		c-0.2,0.6-0.2,1.4-0.2,2.2c0,1.6,0.3,2.8,0.8,3.6c0.5,0.8,1.3,1.1,2.3,1.1c1,0,1.7-0.4,2.1-1.1c0.5-0.8,0.7-1.9,0.7-3.3V279.6z"/>
	<path class="st0" d="M148,262.5h6.4v10c0.5-0.9,1.2-1.6,2.2-2.2c1-0.6,2.2-0.9,3.7-0.9c2.2,0,3.8,0.7,4.8,2.1
		c1,1.4,1.5,3.5,1.5,6.1v11.7h-6.4v-10.5c0-1.2-0.2-2.2-0.6-2.8c-0.4-0.7-1.1-1-2.1-1c-0.9,0-1.7,0.4-2.2,1.1
		c-0.6,0.7-0.9,2-0.9,3.8v9.4H148V262.5z"/>
	<path class="st0" d="M169.5,282.3h7v7h-7V282.3z"/>
</g>
</svg>
