<?xml version="1.0" encoding="utf-8"?>
<!-- Generator: Adobe Illustrator 22.1.0, SVG Export Plug-In . SVG Version: 6.00 Build 0)  -->
<svg version="1.1" id="Layer_1" xmlns="http://www.w3.org/2000/svg" xmlns:xlink="http://www.w3.org/1999/xlink" x="0px" y="0px"
	 viewBox="0 0 100.1 13.1" style="enable-background:new 0 0 100.1 13.1;" xml:space="preserve">
<style type="text/css">
	.st0{fill:#FFFFFF;}
</style>
<g>
	<path class="st0" d="M2.1,9c0.1,0.2,0.3,0.3,0.5,0.5C2.8,9.7,3,9.8,3.3,10s0.6,0.3,1,0.4c0.3,0.1,0.7,0.1,1.1,0.1
		c0.5,0,1-0.1,1.3-0.3C7,10,7.1,9.8,7.1,9.5c0-0.2-0.1-0.5-0.2-0.6S6.6,8.6,6.3,8.5c-0.3-0.1-0.6-0.2-1-0.3C4.9,8.1,4.5,8,4,7.8
		C2.7,7.5,1.8,7,1.3,6.4C0.7,5.8,0.4,5,0.4,4.1c0-0.5,0.1-1,0.3-1.5C1,2,1.3,1.6,1.7,1.2c0.4-0.4,0.9-0.7,1.6-0.9S4.6,0,5.5,0
		c1,0,1.9,0.2,2.8,0.5C9.1,0.8,9.9,1.3,10.5,2L8.3,4C8,3.6,7.6,3.3,7.1,3C6.5,2.8,6,2.7,5.3,2.7c-0.3,0-0.6,0-0.8,0.1
		C4.3,2.8,4.2,2.9,4.1,3C4,3.1,3.9,3.2,3.8,3.3c0,0.1-0.1,0.2-0.1,0.3c0,0.3,0.2,0.6,0.5,0.8c0.3,0.2,0.9,0.5,1.7,0.7
		c0.9,0.2,1.7,0.5,2.3,0.7c0.6,0.3,1.1,0.6,1.4,0.9c0.3,0.3,0.6,0.7,0.7,1.1s0.2,0.8,0.2,1.3c0,0.7-0.1,1.3-0.4,1.8
		s-0.7,0.9-1.1,1.3s-1,0.6-1.6,0.8c-0.6,0.2-1.3,0.3-2,0.3c-0.7,0-1.3-0.1-1.8-0.2c-0.6-0.1-1.1-0.2-1.5-0.4
		c-0.4-0.2-0.8-0.4-1.2-0.6c-0.3-0.2-0.6-0.5-0.8-0.7L2.1,9z"/>
	<path class="st0" d="M15.7,0.3h2.9l4.9,12.6h-3.4l-0.9-2.6h-4.3L14,12.8h-3.3L15.7,0.3z M18.3,7.9c-0.2-0.6-0.4-1.2-0.6-1.8
		C17.5,5.4,17.2,4.7,17,4c-0.2,0.7-0.4,1.4-0.6,2S16,7.2,15.7,7.9H18.3z"/>
	<path class="st0" d="M21.9,0.3h3.4c0.3,0.8,0.6,1.6,0.8,2.5s0.6,1.6,0.8,2.4c0.3,0.8,0.5,1.5,0.7,2.2c0.2,0.7,0.4,1.3,0.5,1.9
		c0.1-0.6,0.3-1.2,0.5-1.9c0.2-0.7,0.5-1.4,0.7-2.2c0.3-0.8,0.5-1.6,0.8-2.4c0.3-0.8,0.6-1.6,0.8-2.4h3.3l-4.9,12.6h-2.9L21.9,0.3z"
		/>
	<path class="st0" d="M35.6,0.3h8.9v2.4h-5.7V5h3.9v2.4h-3.9v3h5.9v2.4h-9.1V0.3z"/>
	<path class="st0" d="M50.3,0.3H54c0.2,0.4,0.3,0.8,0.5,1.2s0.4,0.9,0.5,1.4c0.2,0.5,0.4,0.9,0.5,1.4c0.2,0.5,0.3,0.9,0.5,1.3
		s0.3,0.7,0.4,1s0.2,0.5,0.2,0.7c0-0.2,0.1-0.4,0.2-0.7s0.2-0.6,0.4-1s0.3-0.8,0.5-1.2c0.2-0.4,0.4-0.9,0.5-1.4
		c0.2-0.5,0.4-0.9,0.5-1.4c0.2-0.4,0.3-0.9,0.5-1.2h3.6v12.6h-3c0-0.7,0-1.4,0-2.2s0-1.6,0-2.3c0-0.7,0-1.4,0-2.1
		c0-0.6,0-1.1,0.1-1.4c-0.1,0.3-0.3,0.8-0.5,1.4c-0.2,0.6-0.5,1.3-0.8,2s-0.6,1.5-1,2.3c-0.3,0.8-0.7,1.5-0.9,2.3h-0.3
		c-0.3-0.8-0.7-1.6-1-2.4c-0.3-0.8-0.7-1.6-1-2.3s-0.6-1.4-0.8-2c-0.2-0.6-0.4-1.1-0.5-1.4c0,0.3,0.1,0.8,0.1,1.4c0,0.6,0,1.3,0,2.1
		c0,0.8,0,1.5,0,2.3c0,0.8,0,1.5,0,2.2h-3V0.3z"/>
	<path class="st0" d="M70.8,13.1c-0.9,0-1.7-0.1-2.4-0.4c-0.8-0.3-1.5-0.7-2-1.2c-0.6-0.5-1.1-1.2-1.4-2s-0.5-1.8-0.5-2.9
		c0-1.1,0.2-2.1,0.5-2.9c0.3-0.8,0.8-1.5,1.4-2.1c0.6-0.5,1.3-0.9,2-1.2C69.1,0.1,69.9,0,70.8,0s1.7,0.1,2.4,0.4
		c0.8,0.3,1.5,0.7,2,1.2c0.6,0.5,1.1,1.2,1.4,2.1c0.4,0.8,0.5,1.8,0.5,2.9c0,1.1-0.2,2.1-0.5,2.9s-0.8,1.5-1.4,2
		c-0.6,0.5-1.3,0.9-2,1.2C72.4,13,71.6,13.1,70.8,13.1z M70.8,10.3c0.4,0,0.8-0.1,1.2-0.2s0.7-0.4,0.9-0.7c0.3-0.3,0.5-0.7,0.6-1.2
		c0.1-0.5,0.2-1,0.2-1.7c0-1.2-0.3-2.2-0.8-2.8c-0.6-0.7-1.3-1-2.2-1c-0.9,0-1.6,0.3-2.1,1s-0.8,1.6-0.8,2.8c0,0.7,0.1,1.2,0.3,1.7
		c0.2,0.5,0.4,0.9,0.7,1.2s0.6,0.5,0.9,0.7S70.4,10.3,70.8,10.3z"/>
	<path class="st0" d="M78.7,0.3h5.2c0.7,0,1.3,0.1,1.9,0.2c0.6,0.1,1.2,0.4,1.6,0.7c0.5,0.3,0.9,0.7,1.1,1.2S89,3.5,89,4.2
		c0,0.5-0.1,1-0.3,1.3c-0.2,0.4-0.4,0.7-0.7,1c-0.3,0.3-0.6,0.5-1,0.6s-0.7,0.3-1.1,0.3c0.3,0,0.6,0.1,0.9,0.3s0.5,0.4,0.7,0.8
		l2.4,4.2h-3.8l-1.5-3c-0.1-0.3-0.3-0.5-0.4-0.7C84.1,9,84,8.9,83.8,8.8c-0.2-0.1-0.3-0.1-0.5-0.2c-0.2,0-0.4,0-0.6,0h-0.8v4.2h-3.2
		V0.3z M83.7,6.1c0.2,0,0.4,0,0.7-0.1c0.2,0,0.4-0.1,0.6-0.3c0.2-0.1,0.3-0.3,0.4-0.5c0.1-0.2,0.2-0.5,0.2-0.9
		c0-0.3-0.1-0.6-0.2-0.8c-0.1-0.2-0.3-0.4-0.5-0.5c-0.2-0.1-0.4-0.2-0.6-0.2c-0.2,0-0.4-0.1-0.6-0.1h-1.8v3.4H83.7z"/>
	<path class="st0" d="M91,0.3h8.9v2.4h-5.7V5h3.9v2.4h-3.9v3h5.9v2.4H91V0.3z"/>
</g>
</svg>
