<?xml version="1.0" encoding="utf-8"?>
<!-- Generator: Adobe Illustrator 22.1.0, SVG Export Plug-In . SVG Version: 6.00 Build 0)  -->
<svg version="1.1" id="Layer_1" xmlns="http://www.w3.org/2000/svg" xmlns:xlink="http://www.w3.org/1999/xlink" x="0px" y="0px"
	 viewBox="0 0 300 600" style="enable-background:new 0 0 300 600;" xml:space="preserve">
<style type="text/css">
	.purpleFill{fill:#662868;}
	.yellowFill{fill:#FDBC40;}
	.orangeFill{fill:#EC7623;}
</style>
<polygon class="purpleFill" points="109.7,552.7 109,556.6 116.7,556.6 106.6,568.7 106.1,571.5 120.6,571.5 121.2,567.6 113.2,567.6 
	123.1,555.7 123.7,552.7 "/>
<path class="purpleFill" d="M123.2,564.4c0-7,4.8-12.2,10.8-12.2c3.6,0,5.7,1.8,5.7,4.8c0,4.6-5.2,6.7-11.5,7.4c0.1,2.2,0.9,3.4,3,3.4
	c2,0,3.6-1,4.8-2l2,3.3c-1.5,1.2-3.8,2.7-7.5,2.7C125.7,571.9,123.2,568.8,123.2,564.4 M128.5,561.3c3.8-0.4,6.4-1.7,6.4-3.6
	c0-1-0.6-1.5-1.8-1.5C130.8,556.1,129.2,558.5,128.5,561.3"/>
<polygon class="purpleFill" points="145.1,543.8 150.1,543.8 145.1,571.5 140.1,571.5 "/>
<path class="purpleFill" d="M152.8,552.7h5l-3.4,18.7h-5L152.8,552.7z M153.1,547.2c0-1.6,1.3-2.9,3-2.9c1.8,0,3,1.3,3,2.9c0,1.6-1.3,3-3,3
	C154.4,550.1,153.1,548.8,153.1,547.2"/>
<path class="purpleFill" d="M157,570l2.1-3.4c0.9,0.6,2.2,1.5,4,1.5c1.5,0,2.3-0.7,2.3-1.7c0-1.2-1.3-2.1-2.8-3.7c-1.4-1.5-2.5-2.9-2.5-5.1
	c0-3.2,2.5-5.3,6.7-5.3c2.5,0,4.3,0.7,5.5,1.7l-2.2,3.2c-0.6-0.5-1.7-1.1-3.2-1.1c-1.3,0-2,0.5-2,1.6c0,0.9,1,1.7,2.4,3.2
	c1.8,1.8,3.2,3.3,3.2,5.7c0,3.4-2.5,5.5-7.3,5.5C159.9,571.9,158,570.7,157,570"/>
<rect x="180.8" y="559.4" transform="matrix(0.7072 -0.7071 0.7071 0.7072 -342.3003 295.6282)" class="yellowFill" width="10" height="3.3"/>
<rect x="185.5" y="545.3" transform="matrix(0.7071 -0.7071 0.7071 0.7071 -330.9794 294.8595)" class="yellowFill" width="10" height="3.3"/>
<rect x="193.5" y="551.4" transform="matrix(0.7071 -0.7071 0.7071 0.7071 -336.2468 300.9332)" class="yellowFill" width="3.3" height="10"/>
<rect x="179.4" y="546.7" transform="matrix(0.7072 -0.7071 0.7071 0.7072 -337.0339 289.5569)" class="yellowFill" width="3.3" height="10"/>
<rect x="188.8" y="556.1" transform="matrix(0.7071 -0.7071 0.7071 0.7071 -340.9438 298.9879)" class="orangeFill" width="3.3" height="10"/>
<rect x="184.1" y="542" transform="matrix(0.7071 -0.7071 0.7071 0.7071 -332.3556 291.5392)" class="orangeFill" width="3.3" height="10"/>
<rect x="176.1" y="554.7" transform="matrix(0.7072 -0.7071 0.7071 0.7072 -340.3545 290.9317)" class="orangeFill" width="10" height="3.3"/>
<rect x="190.2" y="550" transform="matrix(0.7071 -0.7072 0.7072 0.7071 -332.9429 299.5942)" class="orangeFill" width="10" height="3.3"/>
<polygon class="purpleFill" points="197.5,561 185.7,558.7 188.1,556.4 199.8,558.7 "/>
<polygon class="purpleFill" points="188.1,551.7 176.3,549.3 178.7,547 190.4,549.3 "/>
<polygon class="purpleFill" points="185.7,554 183.4,565.7 181,563.4 183.4,551.7 "/>
<polygon class="purpleFill" points="195.1,544.6 192.8,556.4 190.4,554 192.8,542.3 "/>
<path class="purpleFill" d="M171.4,570.1c0-1,0.8-1.8,1.8-1.8c1,0,1.8,0.8,1.8,1.8s-0.8,1.8-1.8,1.8C172.2,572,171.4,571.1,171.4,570.1
	 M174.7,570.1c0-0.9-0.6-1.5-1.5-1.5c-0.9,0-1.5,0.6-1.5,1.5c0,0.9,0.6,1.5,1.5,1.5C174.1,571.6,174.7,571,174.7,570.1 M172.6,569
	h0.7c0.5,0,0.7,0.3,0.7,0.6c0,0.3-0.2,0.5-0.5,0.6c0.1,0.1,0.2,0.1,0.3,0.3l0.4,0.7h-0.5l-0.5-0.7c-0.1-0.2-0.2-0.2-0.3-0.2v0.9
	h-0.4V569z M173.2,570c0.2,0,0.4,0,0.4-0.3c0-0.2-0.1-0.3-0.4-0.3H173v0.6H173.2z"/>
</svg>
