<svg version="1.1" id="Layer_1" xmlns="https://www.w3.org/2000/svg" x="0" y="0" viewBox="0 0 300 250" xml:space="preserve"><style>.purpleFill{fill:#662868}</style><path class="purpleFill" d="M24.6 63.6h4.1v10.2c0 1 .2 1.7.7 2.1.5.4 1.1.6 1.9.6.8 0 1.5-.2 1.9-.6.4-.4.7-1.1.7-2.1V63.6H38v10.5c0 .4 0 .8-.1 1.2 0 .4-.1.9-.3 1.3-.2.4-.4.9-.7 1.3-.3.4-.7.8-1.2 1.1-.5.3-1.1.6-1.9.8-.7.2-1.6.3-2.6.3s-1.9-.1-2.6-.3c-.7-.2-1.3-.5-1.8-.8-.5-.3-.9-.7-1.2-1.1-.3-.4-.5-.9-.7-1.3-.2-.5-.3-.9-.3-1.3s-.1-.8-.1-1.2V63.6zM40.1 68.1h3.8v1.5c.3-.5.6-1 1.2-1.3.5-.4 1.2-.5 2-.5 1.3 0 2.4.5 3.2 1.5.8 1 1.2 2.5 1.2 4.5 0 1.2-.1 2.2-.4 3-.3.8-.7 1.4-1.1 1.9-.4.5-.9.8-1.5 1-.6.3-1.1.3-1.7.3-.6 0-1.1-.1-1.7-.3s-1-.5-1.2-1v5h-3.8V68.1zm3.8 6c0 .4 0 .8.1 1.1.1.4.2.7.3.9.2.3.3.5.6.6.2.2.5.2.8.2.5 0 1-.2 1.3-.7.3-.5.5-1.2.5-2.3 0-1-.2-1.8-.5-2.3-.3-.5-.8-.8-1.4-.8-.3 0-.6.1-.8.2-.2.2-.4.4-.5.6l-.3.9c-.1.3-.1.7-.1 1.1v.5zM54.2 79.7c.4.4 1 .8 1.7 1.1.7.3 1.3.4 2 .4s1.2-.2 1.5-.5c.3-.3.4-.8.4-1.4v-1.1c-.3.4-.6.7-1.1 1s-1.1.4-1.9.4c-.5 0-1.1-.1-1.6-.3-.5-.2-1-.5-1.5-1-.4-.5-.8-1-1-1.8-.3-.7-.4-1.6-.4-2.7 0-1 .1-1.8.3-2.6.2-.7.5-1.4 1-1.9.4-.5.9-.9 1.5-1.2.6-.3 1.2-.4 1.9-.4s1.3.2 1.9.5c.5.3 1 .8 1.3 1.4l.5-1.6h3v11c0 .7-.1 1.4-.3 2-.2.6-.5 1.1-1 1.6-.5.4-1.1.8-1.8 1-.7.2-1.6.4-2.6.4-.7 0-1.3 0-1.9-.1-.6-.1-1.1-.2-1.6-.4s-.9-.3-1.3-.5-.7-.4-1-.6l2-2.7zm5.5-5.8c0-.4 0-.7-.1-1.1-.1-.3-.1-.6-.3-.9-.1-.3-.3-.5-.5-.7-.2-.1-.5-.2-.8-.2-.2 0-.5 0-.7.1-.2.1-.4.3-.6.5-.2.2-.3.5-.4.9-.1.4-.1.8-.1 1.4 0 1 .2 1.7.5 2.2.3.5.8.7 1.4.7.6 0 1-.2 1.3-.7.3-.5.4-1.1.4-2v-.2zM65.4 68.1h3.5l.3 2.2c.4-.7.8-1.3 1.5-1.8.6-.5 1.5-.7 2.6-.7v3.9c-.3-.1-.7-.1-1.2-.1-.3 0-.6 0-.9.1-.3.1-.6.2-.9.4-.3.2-.5.5-.7.9-.2.4-.3 1-.3 1.7v5.2h-3.8V68.1zM80.7 79.8c-.1-.2-.2-.4-.2-.7s-.1-.5-.1-.7c-.2.5-.6.9-1.1 1.2-.5.4-1.2.5-2.1.5-.6 0-1.2-.1-1.6-.3-.5-.2-.9-.5-1.2-.8-.3-.3-.6-.7-.7-1.2-.2-.5-.3-1-.3-1.5 0-.6.1-1.1.3-1.5.2-.4.5-.8.9-1.1s.9-.5 1.4-.7c.5-.2 1.2-.3 1.9-.4l2.3-.4v-.3c0-.5-.1-.8-.4-1-.3-.2-.6-.3-1.1-.3-.7 0-1.3.1-1.8.4s-1 .6-1.4.9l-1.8-2.5c.2-.2.5-.4.9-.6s.8-.4 1.2-.5c.5-.2 1-.3 1.5-.4.6-.1 1.2-.1 1.9-.1 1.7 0 3 .4 3.7 1.1.7.7 1.1 1.8 1.1 3.3v5.3c0 .3 0 .6.1.9s.1.5.1.7c.1.2.1.4.3.7h-3.8zm-.6-5.2l-1.6.3c-.5.1-.9.3-1.2.5-.2.2-.4.5-.4.9 0 .3.1.6.3.8.2.2.5.3.9.3.5 0 1-.2 1.4-.6.4-.4.6-1 .6-1.8v-.4zM92.9 78.1c-.3.6-.7 1.1-1.2 1.4-.5.3-1.1.5-1.9.5-.7 0-1.3-.1-1.9-.4s-1.1-.7-1.5-1.2-.7-1.2-1-1.9c-.2-.8-.3-1.7-.3-2.6 0-1.1.1-2.1.4-2.9.3-.8.6-1.4 1.1-1.9.4-.5.9-.8 1.5-1 .5-.2 1.1-.3 1.6-.3.7 0 1.3.1 1.8.4.5.3.8.6 1.1 1v-5.7h3.9v16.2h-3.6v-1.6zm-.3-4.4c0-.4 0-.7-.1-1.1l-.3-.9c-.1-.3-.3-.5-.5-.6-.2-.2-.5-.2-.8-.2-.6 0-1 .2-1.3.7-.3.5-.4 1.2-.4 2.1 0 1 .2 1.8.5 2.3.3.5.8.8 1.3.8.3 0 .6-.1.8-.2s.4-.4.5-.7c.1-.3.2-.6.3-1 .1-.4.1-.8.1-1.2zM101.7 74.8c.1.9.4 1.5.9 1.9.4.4.9.5 1.5.5.5 0 .9-.1 1.3-.3s.7-.5.9-1l2.8 1.6c-.6.9-1.3 1.5-2.2 1.9-.9.4-1.9.6-3 .6-1 0-1.9-.2-2.6-.5s-1.4-.7-1.9-1.3c-.5-.5-.9-1.2-1.2-2s-.4-1.6-.4-2.4c0-.9.1-1.7.4-2.5.3-.8.7-1.4 1.2-2s1.1-1 1.9-1.3c.7-.3 1.6-.5 2.5-.5.9 0 1.7.2 2.4.5s1.3.7 1.8 1.3c.5.6.8 1.2 1.1 2s.4 1.7.4 2.6v.7h-7.8zm1.9-4.2c-1.1 0-1.7.7-1.9 2.1h3.8c0-.6-.1-1.1-.4-1.5-.4-.4-.8-.6-1.5-.6zM115.6 80.9c.3.1.6.2.9.2s.6.1.8.1c.4 0 .6-.1.8-.2.2-.2.3-.4.4-.8l-4.2-12.1h4.1l2 7.9 2-7.9h4.1l-4.1 11.6c-.2.6-.5 1.2-.7 1.8s-.5 1-.9 1.4-.8.7-1.4.9c-.6.2-1.3.3-2.2.3h-1.1c-.2 0-.4 0-.6-.1-.2 0-.4-.1-.5-.1l.6-3zM132.3 80.1c-1 0-1.9-.2-2.6-.5s-1.4-.7-1.8-1.3-.9-1.2-1.1-1.9c-.2-.7-.4-1.6-.4-2.5s.1-1.7.4-2.5c.3-.8.6-1.4 1.1-2 .5-.6 1.1-1 1.8-1.3.7-.3 1.6-.5 2.5-.5s1.8.2 2.6.5c.7.3 1.4.7 1.8 1.3.5.5.9 1.2 1.1 2 .3.8.4 1.6.4 2.5s-.1 1.7-.4 2.5c-.3.7-.6 1.4-1.1 1.9-.5.5-1.1 1-1.8 1.3-.7.4-1.5.5-2.5.5zm.1-2.9c.6 0 1.1-.3 1.4-.9s.4-1.4.4-2.4-.2-1.8-.5-2.4-.8-.9-1.4-.9-1.1.3-1.4.9c-.3.6-.5 1.4-.5 2.4s.2 1.8.5 2.4.8.9 1.5.9zM139.4 68.1h3.8v6.4c0 .7.1 1.3.3 1.7.2.4.6.6 1.2.6s1.1-.2 1.4-.7c.3-.5.5-1.2.5-2.3v-5.6h3.8v11.7h-3.6v-1.7c-.3.6-.7 1.1-1.2 1.5-.5.4-1.3.5-2.2.5-1.4 0-2.4-.4-3.1-1.2-.7-.8-1-1.9-1-3.5v-7.4zM152.4 68.1h3.5l.3 2.2c.3-.7.8-1.3 1.5-1.8.6-.5 1.5-.7 2.6-.7v3.9c-.3-.1-.7-.1-1.2-.1-.3 0-.6 0-.9.1-.3.1-.6.2-.9.4-.3.2-.5.5-.7.9-.2.4-.3 1-.3 1.7v5.2h-3.8V68.1z"/><g><path class="purpleFill" d="M25.5 99.9c.2.2.4.3.7.5.3.2.5.3.8.5.3.1.6.2 1 .3.3.1.7.1 1 .1.3 0 .6 0 .8-.1.3-.1.4-.3.4-.6s-.2-.5-.5-.7c-.3-.2-.7-.3-1.1-.4-.5-.1-.9-.3-1.5-.4l-1.5-.6c-.5-.2-.8-.6-1.1-1.1-.3-.5-.5-1-.5-1.8 0-.7.1-1.2.4-1.7s.6-.9 1.1-1.2c.5-.3 1-.5 1.6-.7.6-.2 1.2-.2 1.9-.2 1.1 0 2 .1 2.8.4.8.2 1.5.6 2.2 1l-1.8 2.6c-.2-.1-.4-.3-.6-.4-.2-.1-.5-.3-.8-.4l-.9-.3c-.3-.1-.6-.1-1-.1-.3 0-.5 0-.6.1-.2.1-.3.2-.3.5s.2.5.5.6c.3.2.7.3 1.1.4.5.1.9.3 1.5.5.5.2 1 .4 1.5.7.5.3.8.6 1.1 1.1.3.4.5 1 .5 1.7s-.1 1.3-.4 1.8c-.3.5-.7.9-1.2 1.2s-1 .6-1.6.7c-.6.2-1.2.2-1.8.2-2.2 0-4-.5-5.4-1.6l1.7-2.6zM42.2 103.8c-.1-.2-.2-.4-.2-.7s-.1-.5-.1-.7c-.2.5-.6.9-1.1 1.2-.5.4-1.2.5-2.1.5-.6 0-1.2-.1-1.6-.3-.5-.2-.9-.5-1.2-.8-.3-.3-.6-.7-.7-1.2-.2-.5-.3-1-.3-1.5 0-.6.1-1.1.3-1.5.2-.4.5-.8.9-1.1s.9-.5 1.4-.7c.5-.2 1.2-.3 1.9-.4l2.3-.4v-.3c0-.5-.1-.8-.4-1-.3-.2-.6-.3-1.1-.3-.7 0-1.3.1-1.8.4s-1 .6-1.4.9l-1.8-2.5c.2-.2.5-.4.9-.6s.8-.4 1.2-.5c.5-.2 1-.3 1.5-.4.6-.1 1.2-.1 1.9-.1 1.7 0 3 .4 3.7 1.1.7.7 1.1 1.8 1.1 3.3v5.3c0 .3 0 .6.1.9s.1.5.1.7c.1.2.1.4.3.7h-3.8zm-.6-5.2l-1.6.3c-.5.1-.9.3-1.2.5-.2.2-.4.5-.4.9 0 .3.1.6.3.8.2.2.5.3.9.3.5 0 1-.2 1.4-.6.4-.4.6-1 .6-1.8v-.4zM45.8 92.1h4.3l1.9 8.1 1.9-8.1H58l-3.8 11.7h-4.5l-3.9-11.7zM58.6 87.5h3.8v3.1h-3.8v-3.1zm0 4.6h3.8v11.7h-3.8V92.1zM64.3 92.1h3.5l.3 1.6c.4-.5.8-1 1.5-1.4.6-.4 1.4-.6 2.2-.6 2.6 0 3.8 1.6 3.8 4.9v7.1h-3.8v-6.1c0-.9-.1-1.6-.4-1.9-.3-.4-.7-.6-1.3-.6-.3 0-.5 0-.8.1-.2.1-.4.3-.6.5-.2.2-.3.6-.4 1-.1.4-.1.9-.1 1.5v5.5h-3.8V92.1zM78.7 103.7c.4.4 1 .8 1.7 1.1.7.3 1.3.4 2 .4s1.2-.2 1.5-.5c.3-.3.4-.8.4-1.4v-1.1c-.3.4-.6.7-1.1 1s-1.1.4-1.9.4c-.5 0-1.1-.1-1.6-.3-.5-.2-1-.5-1.5-1-.4-.5-.8-1-1-1.8-.3-.7-.4-1.6-.4-2.7 0-1 .1-1.8.3-2.6.2-.7.5-1.4 1-1.9.4-.5.9-.9 1.5-1.2.6-.3 1.2-.4 1.9-.4s1.3.2 1.9.5c.5.3 1 .8 1.3 1.4l.5-1.6h3v11c0 .7-.1 1.4-.3 2-.2.6-.5 1.1-1 1.6-.5.4-1.1.8-1.8 1-.7.2-1.6.4-2.6.4-.7 0-1.3 0-1.9-.1-.6-.1-1.1-.2-1.6-.4s-.9-.3-1.3-.5-.7-.4-1-.6l2-2.7zm5.6-5.8c0-.4 0-.7-.1-1.1-.1-.3-.1-.6-.3-.9-.1-.3-.3-.5-.5-.7-.2-.2-.5-.3-.8-.3-.2 0-.5 0-.7.1-.2.1-.4.3-.6.5-.2.2-.3.5-.4.9-.1.4-.1.8-.1 1.4 0 1 .2 1.7.5 2.2.3.5.8.7 1.4.7.6 0 1-.2 1.3-.7.3-.5.4-1.1.4-2v-.1zM91 99.9c.2.2.4.3.7.5.3.2.5.3.8.5.3.1.6.2 1 .3.3.1.7.1 1 .1.3 0 .6 0 .8-.1.3-.1.4-.3.4-.6s-.2-.5-.5-.7c-.3-.2-.7-.3-1.1-.4-.5-.1-.9-.3-1.5-.4l-1.5-.6c-.5-.2-.8-.6-1.1-1.1-.3-.5-.5-1-.5-1.8 0-.7.1-1.2.4-1.7s.6-.9 1.1-1.2c.5-.3 1-.5 1.6-.7.6-.2 1.2-.2 1.9-.2 1.1 0 2 .1 2.8.4.8.2 1.5.6 2.2 1l-1.8 2.6c-.2-.1-.4-.3-.6-.4-.2-.1-.5-.3-.8-.4l-.9-.3c-.3-.1-.6-.1-1-.1-.3 0-.5 0-.6.1-.2.1-.3.2-.3.5s.2.5.5.6c.3.2.7.3 1.1.4.5.1.9.3 1.5.5.5.2 1 .4 1.5.7.5.3.8.6 1.1 1.1.3.4.5 1 .5 1.7s-.1 1.3-.4 1.8c-.3.5-.7.9-1.2 1.2s-1 .6-1.6.7c-.6.2-1.2.2-1.8.2-2.2 0-4-.5-5.4-1.6l1.7-2.6zM104.5 92.1h4.1l1.7 8 1.5-8h4.1l1.5 8 1.7-8h4.1l-3.8 11.7h-4.1l-1.5-6.3-1.5 6.3h-4.1l-3.7-11.7zM123.9 87.5h3.8v3.1h-3.8v-3.1zm0 4.6h3.8v11.7h-3.8V92.1zM130.5 94.6h-1.9v-2.5h.3c.6 0 1.1-.1 1.4-.3.3-.2.6-.5.8-.8.2-.3.3-.7.4-1.1l.3-1.2h2.4v3.4h2.4v2.5h-2.4v5.4c0 .4.1.6.2.9.1.2.4.3.9.3h.5c.2 0 .4-.1.6-.2l.3 2.7c-.4.2-.9.3-1.3.4-.4.1-.9.1-1.3.1-.7 0-1.3-.1-1.8-.3-.5-.2-.8-.4-1.1-.8-.3-.3-.5-.7-.6-1.2s-.2-.9-.2-1.5v-5.8zM137.6 87.6h3.8v6c.3-.5.7-1 1.3-1.3.6-.4 1.3-.5 2.2-.5 1.3 0 2.3.4 2.9 1.3s.9 2.1.9 3.7v7H145v-6.3c0-.7-.1-1.3-.4-1.7-.3-.4-.7-.6-1.3-.6-.6 0-1 .2-1.4.7-.4.5-.5 1.2-.5 2.3v5.7h-3.8V87.6z"/></g><g><path class="purpleFill" d="M39.3 124.2c-.8 1.4-1.8 2.4-3 3s-2.5 1-4.2 1c-1.4 0-2.6-.2-3.6-.6-1-.4-1.9-1-2.6-1.8-.7-.7-1.2-1.6-1.6-2.7-.4-1-.5-2.2-.5-3.4 0-1.3.2-2.4.5-3.4.4-1 .9-1.9 1.6-2.7.7-.7 1.6-1.3 2.6-1.7 1-.4 2.2-.6 3.5-.6 1.5 0 2.8.3 4 .8s2.2 1.5 3.1 2.9l-3.9 2c-.3-.7-.7-1.2-1.3-1.5-.6-.4-1.2-.5-1.9-.5s-1.2.1-1.7.4c-.5.3-.9.6-1.2 1-.3.4-.5 1-.7 1.5-.2.6-.2 1.2-.2 1.9s.1 1.3.3 1.9c.2.6.4 1.1.7 1.5.3.4.7.8 1.2 1.1.5.3 1 .4 1.7.4s1.3-.2 1.9-.5 1-1 1.4-1.9l3.9 1.9zM40.5 111.6h3.8v16.2h-3.8v-16.2zM53.1 127.8c-.1-.2-.2-.4-.2-.7-.1-.3-.1-.5-.1-.7-.2.5-.6.9-1.1 1.2-.5.4-1.2.5-2.1.5-.6 0-1.2-.1-1.6-.3-.5-.2-.9-.5-1.2-.8-.3-.3-.6-.7-.7-1.2-.2-.5-.3-1-.3-1.5 0-.6.1-1.1.3-1.5.2-.4.5-.8.9-1.1s.9-.5 1.4-.7c.5-.2 1.2-.3 1.9-.4l2.3-.4v-.2c0-.5-.1-.8-.4-1-.3-.2-.6-.3-1.1-.3-.7 0-1.3.1-1.8.4s-1 .6-1.4.9l-1.8-2.5c.2-.2.5-.4.9-.6s.8-.4 1.2-.5c.5-.2 1-.3 1.5-.4.6-.1 1.2-.1 1.9-.1 1.7 0 3 .4 3.7 1.1.7.7 1.1 1.8 1.1 3.3v5.3c0 .3 0 .6.1.9s.1.5.1.7c.1.2.1.4.3.7h-3.8zm-.6-5.2l-1.6.3c-.5.1-.9.3-1.2.5-.2.2-.4.5-.4.9 0 .3.1.6.3.8.2.2.5.3.9.3.5 0 1-.2 1.4-.6.4-.4.6-1 .6-1.8v-.4zM58.2 111.5H62v3.1h-3.8v-3.1zm0 4.6H62v11.7h-3.8v-11.7zM63.8 116.1h3.5l.3 1.6c.3-.6.8-1.1 1.3-1.5.5-.3 1.2-.5 2-.5.9 0 1.7.2 2.2.6.5.4.9.9 1.1 1.5.1-.2.3-.5.5-.7.2-.3.4-.5.7-.7.3-.2.6-.4 1-.5.4-.1.9-.2 1.4-.2.8 0 1.5.1 2 .4.5.3.9.6 1.2 1.1.3.5.5 1 .5 1.5.1.6.1 1.2.1 1.8v7.2h-3.8v-6.1c0-.9-.1-1.5-.3-1.9-.2-.4-.6-.6-1.2-.6-.2 0-.4 0-.6.1-.2.1-.4.2-.5.4-.2.2-.3.5-.4.8-.1.4-.1.9-.1 1.5v5.8h-3.8v-6.2c0-.8-.1-1.4-.3-1.8-.2-.4-.6-.6-1.2-.6-.2 0-.4 0-.6.1-.2.1-.4.2-.5.4-.2.2-.3.5-.4.9-.1.4-.2.9-.2 1.6v5.6h-3.8v-11.6zM83.7 111.6h6.9c.8 0 1.6.1 2.3.3.8.2 1.4.5 2 .9.6.4 1.1.9 1.4 1.6s.5 1.5.5 2.4c0 1-.2 1.9-.5 2.6s-.8 1.3-1.3 1.7-1.2.8-2 1c-.8.2-1.6.3-2.5.3h-2.8v5.4h-4.1v-16.2zm6.2 7.5c.4 0 .7 0 1-.1.3-.1.6-.2.8-.4.2-.2.4-.4.5-.7.1-.3.2-.7.2-1.2 0-.4-.1-.7-.2-1-.1-.3-.3-.5-.6-.6-.2-.2-.5-.3-.8-.3s-.6-.1-1-.1h-2.1v4.4h2.2zM104.6 127.8c-.1-.2-.2-.4-.2-.7-.1-.3-.1-.5-.1-.7-.2.5-.6.9-1.1 1.2-.5.4-1.2.5-2.1.5-.6 0-1.2-.1-1.6-.3-.5-.2-.9-.5-1.2-.8-.3-.3-.6-.7-.7-1.2-.2-.5-.3-1-.3-1.5 0-.6.1-1.1.3-1.5.2-.4.5-.8.9-1.1s.9-.5 1.4-.7c.5-.2 1.2-.3 1.9-.4l2.3-.4v-.2c0-.5-.1-.8-.4-1-.3-.2-.6-.3-1.1-.3-.7 0-1.3.1-1.8.4s-1 .6-1.4.9l-1.8-2.5c.2-.2.5-.4.9-.6s.8-.4 1.2-.5c.5-.2 1-.3 1.5-.4.6-.1 1.2-.1 1.9-.1 1.7 0 3 .4 3.7 1.1.7.7 1.1 1.8 1.1 3.3v5.3c0 .3 0 .6.1.9s.1.5.1.7c.1.2.1.4.3.7h-3.8zm-.6-5.2l-1.6.3c-.5.1-.9.3-1.2.5-.2.2-.4.5-.4.9 0 .3.1.6.3.8.2.2.5.3.9.3.5 0 1-.2 1.4-.6.4-.4.6-1 .6-1.8v-.4zM110.6 123.9c.2.2.4.3.7.5.3.2.5.3.8.5.3.1.6.2 1 .3.3.1.7.1 1 .1.3 0 .6 0 .8-.1.3-.1.4-.3.4-.6s-.2-.5-.5-.7c-.3-.2-.7-.3-1.1-.4-.5-.1-.9-.3-1.5-.4l-1.5-.6c-.5-.2-.8-.6-1.1-1.1-.3-.5-.5-1-.5-1.8 0-.7.1-1.2.4-1.7s.6-.9 1.1-1.2c.5-.3 1-.5 1.6-.7.6-.2 1.2-.2 1.9-.2 1.1 0 2 .1 2.8.4.8.2 1.5.6 2.2 1l-1.8 2.6c-.2-.1-.4-.3-.6-.4-.2-.1-.5-.3-.8-.4l-.9-.3c-.3-.1-.6-.1-1-.1-.3 0-.5 0-.6.1-.2.1-.3.2-.3.5s.2.5.5.6c.3.2.7.3 1.1.4.5.1.9.3 1.5.5.5.2 1 .4 1.5.7.5.3.8.6 1.1 1.1.3.4.5 1 .5 1.7s-.1 1.3-.4 1.8c-.3.5-.7.9-1.2 1.2-.5.3-1 .6-1.6.7s-1.2.2-1.8.2c-2.2 0-4-.5-5.4-1.6l1.7-2.6zM121.2 123.9c.2.2.4.3.7.5.3.2.5.3.8.5.3.1.6.2 1 .3.3.1.7.1 1 .1.3 0 .6 0 .8-.1.3-.1.4-.3.4-.6s-.2-.5-.5-.7c-.3-.2-.7-.3-1.1-.4-.5-.1-.9-.3-1.5-.4l-1.5-.6c-.5-.2-.8-.6-1.1-1.1-.3-.5-.5-1-.5-1.8 0-.7.1-1.2.4-1.7s.6-.9 1.1-1.2c.5-.3 1-.5 1.6-.7.6-.2 1.2-.2 1.9-.2 1.1 0 2 .1 2.8.4.8.2 1.5.6 2.2 1l-1.8 2.6c-.2-.1-.4-.3-.6-.4-.2-.1-.5-.3-.8-.4l-.9-.3c-.3-.1-.6-.1-1-.1-.3 0-.5 0-.6.1-.2.1-.3.2-.3.5s.2.5.5.6c.3.2.7.3 1.1.4.5.1.9.3 1.5.5.5.2 1 .4 1.5.7.5.3.8.6 1.1 1.1.3.4.5 1 .5 1.7s-.1 1.3-.4 1.8c-.3.5-.7.9-1.2 1.2-.5.3-1 .6-1.6.7s-1.2.2-1.8.2c-2.2 0-4-.5-5.4-1.6l1.7-2.6z"/></g></svg>