<svg version="1.1" id="Layer_1" xmlns="https://www.w3.org/2000/svg" x="0" y="0" viewBox="0 0 300 250" xml:space="preserve"><style>.purpleFill{fill:#662868}</style><path class="purpleFill" d="M28 67.3h3.8v9.5c0 .9.2 1.6.6 2 .4.4 1 .6 1.8.6s1.4-.2 1.8-.6c.4-.4.6-1 .6-1.9v-9.6h3.8v9.8c0 .3 0 .7-.1 1.1 0 .4-.1.8-.3 1.2-.1.4-.3.8-.6 1.2-.3.4-.6.7-1.1 1-.5.3-1 .5-1.7.7-.7.2-1.5.3-2.5.3s-1.8-.1-2.4-.3c-.7-.2-1.2-.4-1.7-.7-.5-.3-.8-.7-1.1-1-.3-.4-.5-.8-.6-1.2l-.3-1.2c0-.4-.1-.8-.1-1.1v-9.8zM42.4 71.5H46v1.4c.2-.5.6-.9 1.1-1.2.5-.3 1.1-.5 1.9-.5 1.2 0 2.2.5 2.9 1.4.8.9 1.1 2.4 1.1 4.2 0 1.1-.1 2.1-.4 2.8-.3.7-.6 1.3-1 1.8-.4.4-.9.8-1.4.9-.5.2-1 .3-1.5.3s-1.1-.1-1.6-.3c-.5-.2-.9-.5-1.1-.9v4.7h-3.6V71.5zm3.6 5.6c0 .4 0 .7.1 1.1l.3.9c.1.2.3.4.5.6.2.1.5.2.7.2.5 0 .9-.2 1.2-.7s.4-1.2.4-2.1-.1-1.6-.4-2.1c-.3-.5-.7-.7-1.3-.7-.3 0-.5.1-.7.2s-.4.3-.5.6c-.1.2-.2.5-.3.8s-.1.7-.1 1v.2zM55.5 82.3c.4.4.9.7 1.5 1 .6.2 1.2.4 1.9.4s1.1-.1 1.4-.4c.2-.3.4-.7.4-1.3v-1c-.2.4-.6.7-1.1.9-.5.3-1.1.4-1.8.4-.5 0-1-.1-1.5-.3-.5-.2-1-.5-1.4-.9-.4-.4-.7-1-1-1.6-.2-.7-.4-1.5-.4-2.5 0-.9.1-1.7.3-2.4.2-.7.5-1.3.9-1.8s.8-.9 1.4-1.1c.5-.2 1.1-.4 1.8-.4s1.3.1 1.8.4.9.7 1.2 1.3l.5-1.5h2.8v10.3c0 .7-.1 1.3-.3 1.8-.2.6-.5 1-.9 1.5-.4.4-1 .7-1.7 1-.7.2-1.5.3-2.4.3-.6 0-1.2 0-1.8-.1-.5-.1-1-.2-1.5-.4s-.9-.3-1.2-.5c-.4-.2-.7-.4-1-.5l2.1-2.6zm5.2-5.4c0-.3 0-.7-.1-1s-.1-.6-.3-.9c-.1-.2-.3-.5-.5-.6-.2-.2-.5-.2-.8-.2-.2 0-.4 0-.7.1-.2.1-.4.2-.5.5-.1.2-.3.5-.4.8-.1.3-.1.8-.1 1.3 0 .9.2 1.6.5 2 .3.4.7.6 1.3.6.5 0 .9-.2 1.2-.6.3-.4.4-1 .4-1.9v-.1zM66 71.5h3.2l.3 2c.3-.7.8-1.2 1.4-1.7.6-.4 1.4-.7 2.4-.7v3.7c-.3-.1-.6-.1-1.1-.1-.3 0-.6 0-.9.1-.3 0-.6.2-.8.4-.2.2-.5.5-.6.9-.2.4-.2.9-.2 1.6v4.8H66v-11zM80.3 82.4c-.1-.2-.2-.4-.2-.6-.1-.3-.1-.5-.1-.7-.2.4-.5.8-1 1.1-.5.3-1.1.5-2 .5-.6 0-1.1-.1-1.5-.3-.4-.2-.8-.4-1.1-.7-.3-.3-.5-.7-.7-1.1-.2-.4-.2-.9-.2-1.4 0-.6.1-1 .3-1.4.2-.4.5-.8.8-1 .4-.3.8-.5 1.3-.7.5-.2 1.1-.3 1.7-.4l2.2-.3v-.2c0-.5-.1-.8-.4-.9-.2-.2-.6-.2-1-.2-.7 0-1.2.1-1.7.4-.5.2-.9.5-1.3.9L73.7 73c.2-.2.5-.4.8-.6.3-.2.7-.4 1.1-.5.4-.1.9-.3 1.4-.4.5-.1 1.1-.1 1.7-.1 1.6 0 2.8.3 3.4 1 .7.7 1 1.7 1 3.1v5c0 .3 0 .6.1.8s.1.4.1.6c.1.2.1.4.2.6h-3.2zm-.6-4.8l-1.5.3c-.5.1-.9.2-1.1.4-.2.2-.3.5-.3.8 0 .3.1.6.3.8.2.2.5.3.8.3.5 0 .9-.2 1.3-.6.3-.4.5-.9.5-1.7v-.3zM91.6 80.9c-.3.6-.7 1-1.1 1.3s-1.1.4-1.8.4c-.6 0-1.2-.1-1.8-.4s-1-.6-1.4-1.1c-.4-.5-.7-1.1-.9-1.8s-.3-1.5-.3-2.5c0-1.1.1-2 .4-2.7.3-.7.6-1.3 1-1.7.4-.4.9-.8 1.4-.9.5-.2 1-.3 1.5-.3.7 0 1.3.1 1.7.4.5.3.8.6 1 1v-5.3H95v15.1h-3.4v-1.5zm-.2-4.2c0-.3 0-.7-.1-1-.1-.3-.1-.6-.3-.8s-.3-.4-.5-.6c-.2-.1-.5-.2-.8-.2-.5 0-.9.2-1.2.7-.3.5-.4 1.1-.4 2 0 .9.2 1.7.5 2.2.3.5.7.8 1.2.8.3 0 .5-.1.7-.2s.4-.4.5-.6.2-.6.3-.9c.1-.3.1-.7.1-1.1v-.3zM99.9 77.8c.1.8.4 1.4.8 1.8s.9.5 1.4.5c.5 0 .9-.1 1.2-.3.3-.2.6-.5.9-.9l2.6 1.5c-.5.8-1.2 1.4-2.1 1.8s-1.8.6-2.8.6c-.9 0-1.7-.1-2.5-.4-.7-.3-1.3-.7-1.8-1.2s-.9-1.1-1.1-1.8c-.2-.7-.4-1.5-.4-2.3 0-.8.1-1.6.4-2.3.3-.7.6-1.3 1.1-1.8.5-.5 1.1-.9 1.7-1.2.7-.3 1.5-.4 2.3-.4.8 0 1.6.1 2.2.4.7.3 1.2.7 1.7 1.2s.8 1.1 1 1.9c.2.7.4 1.6.4 2.5V78h-7zm1.7-4c-1 0-1.6.7-1.8 2h3.5c0-.5-.1-1-.4-1.4s-.7-.6-1.3-.6zM112.8 83.4c.3.1.5.2.8.2.3.1.5.1.7.1.3 0 .6-.1.8-.2.2-.1.3-.4.4-.8l-3.9-11.3h3.9l1.9 7.3 1.8-7.3h3.9l-3.8 10.8c-.2.6-.4 1.1-.6 1.6-.2.5-.5.9-.8 1.3-.3.4-.8.6-1.3.9-.5.2-1.2.3-2 .3h-1.1c-.2 0-.4 0-.6-.1-.2 0-.3-.1-.5-.1l.4-2.7zM128.4 82.7c-.9 0-1.7-.1-2.4-.4s-1.3-.7-1.7-1.2c-.5-.5-.8-1.1-1-1.8-.2-.7-.3-1.5-.3-2.3 0-.8.1-1.6.4-2.3s.6-1.3 1.1-1.8c.5-.5 1-.9 1.7-1.2.7-.3 1.5-.4 2.4-.4.9 0 1.7.1 2.4.4.7.3 1.3.7 1.7 1.2.5.5.8 1.1 1 1.8.2.7.4 1.5.4 2.3 0 .8-.1 1.6-.4 2.3-.2.7-.6 1.3-1 1.8-.5.5-1 .9-1.7 1.2-1 .3-1.7.4-2.6.4zm0-2.7c.6 0 1-.3 1.3-.8.3-.5.4-1.3.4-2.2s-.1-1.7-.4-2.2c-.3-.6-.7-.8-1.3-.8s-1 .3-1.3.8c-.3.6-.4 1.3-.4 2.2s.1 1.7.4 2.2c.2.5.7.8 1.3.8zM135 71.5h3.6v6c0 .7.1 1.2.3 1.5.2.3.6.5 1.1.5.6 0 1-.2 1.3-.7.3-.4.5-1.2.5-2.1v-5.3h3.6v10.9H142v-1.6c-.3.6-.7 1-1.2 1.4-.5.3-1.2.5-2.1.5-1.3 0-2.2-.4-2.9-1.1-.6-.7-.9-1.8-.9-3.2v-6.8zM147 71.5h3.2l.3 2c.3-.7.8-1.2 1.4-1.7.6-.4 1.4-.7 2.4-.7v3.7c-.3-.1-.6-.1-1.1-.1-.3 0-.6 0-.9.1s-.6.2-.8.4c-.2.2-.5.5-.6.9-.2.4-.2.9-.2 1.6v4.8H147v-11z"/><g><path class="purpleFill" d="M28.8 101.1c.2.2.4.3.6.5.2.2.5.3.8.4l.9.3c.3.1.6.1.9.1.3 0 .5 0 .8-.1.3-.1.4-.3.4-.5 0-.3-.1-.5-.4-.6s-.6-.3-1.1-.4c-.4-.1-.9-.3-1.4-.4-.5-.1-1-.3-1.4-.6s-.8-.6-1.1-1c-.3-.4-.4-1-.4-1.7 0-.6.1-1.1.4-1.6.3-.5.6-.8 1-1.1.4-.3.9-.5 1.5-.7.6-.1 1.1-.2 1.7-.2 1 0 1.8.1 2.6.3.7.2 1.4.5 2 1L35 97.2c-.1-.1-.3-.3-.6-.4-.2-.1-.5-.2-.8-.4l-.9-.3c-.3-.1-.6-.1-.9-.1-.2 0-.4 0-.6.1s-.2.2-.2.5c0 .2.1.4.4.6.3.1.6.3 1.1.4s.9.3 1.4.4c.5.2.9.4 1.4.6.4.3.8.6 1.1 1 .3.4.4.9.4 1.6s-.1 1.2-.4 1.6-.6.9-1.1 1.2c-.4.3-1 .5-1.5.7-.6.1-1.1.2-1.6.2-2 0-3.7-.5-5-1.5l1.6-2.3zM44.3 104.7c-.1-.2-.2-.4-.2-.6-.1-.3-.1-.5-.1-.7-.2.4-.5.8-1 1.1-.5.3-1.1.5-2 .5-.6 0-1.1-.1-1.5-.3-.4-.2-.8-.4-1.1-.7-.3-.3-.5-.7-.7-1.1-.2-.4-.2-.9-.2-1.4 0-.6.1-1 .3-1.4.2-.4.5-.8.8-1 .4-.3.8-.5 1.3-.7.5-.2 1.1-.3 1.7-.4l2.2-.3v-.2c0-.5-.1-.8-.4-.9-.2-.2-.6-.2-1-.2-.7 0-1.2.1-1.7.4-.5.2-.9.5-1.3.9l-1.7-2.4c.2-.2.5-.4.8-.6.3-.2.7-.4 1.1-.5.4-.1.9-.3 1.4-.4.5-.1 1.1-.1 1.7-.1 1.6 0 2.8.3 3.4 1 .7.7 1 1.7 1 3.1v5c0 .3 0 .6.1.8s.1.4.1.6c.1.2.1.4.2.6h-3.2zm-.5-4.8l-1.5.3c-.5.1-.9.2-1.1.4-.2.2-.3.5-.3.8 0 .3.1.6.3.8.2.2.5.3.8.3.5 0 .9-.2 1.3-.6.3-.4.5-.9.5-1.7v-.3zM47.7 93.9h4l1.8 7.5 1.7-7.5H59l-3.6 10.9h-4.2l-3.5-10.9zM59.7 89.6h3.6v2.9h-3.6v-2.9zm0 4.3h3.6v10.9h-3.6V93.9zM65 93.9h3.2l.3 1.5c.3-.5.8-.9 1.4-1.3.6-.4 1.3-.5 2-.5 2.4 0 3.6 1.5 3.6 4.6v6.6h-3.6V99c0-.9-.1-1.5-.4-1.8-.3-.3-.6-.5-1.2-.5-.3 0-.5 0-.7.1-.2.1-.4.3-.6.5-.2.2-.3.5-.4.9s-.1.8-.1 1.4v5.1H65V93.9zM78.4 104.7c.4.4.9.7 1.5 1 .6.2 1.2.4 1.9.4s1.1-.1 1.4-.4c.2-.3.4-.7.4-1.3v-1c-.2.4-.6.7-1.1.9-.5.3-1.1.4-1.8.4-.5 0-1-.1-1.5-.3-.5-.2-1-.5-1.4-.9-.4-.4-.7-1-1-1.6-.2-.7-.4-1.5-.4-2.5 0-.9.1-1.7.3-2.4.2-.7.5-1.3.9-1.8s.8-.9 1.4-1.1c.5-.2 1.1-.4 1.8-.4s1.3.1 1.8.4.9.7 1.2 1.3l.5-1.5h2.8v10.3c0 .7-.1 1.3-.3 1.8-.2.6-.5 1-.9 1.5-.4.4-1 .7-1.7 1-.7.2-1.5.3-2.4.3-.6 0-1.2 0-1.8-.1-.5-.1-1-.2-1.5-.4s-.9-.3-1.2-.5c-.4-.2-.7-.4-1-.5l2.1-2.6zm5.3-5.5c0-.3 0-.7-.1-1s-.1-.6-.3-.9c-.1-.2-.3-.5-.5-.6-.2-.2-.5-.2-.8-.2-.2 0-.4 0-.7.1-.2.1-.4.2-.5.5-.1.2-.3.5-.4.8-.1.3-.1.8-.1 1.3 0 .9.2 1.6.5 2 .3.4.7.6 1.3.6.5 0 .9-.2 1.2-.6.3-.4.4-1 .4-1.9v-.1zM89.9 101.1c.2.2.4.3.6.5.2.2.5.3.8.4l.9.3c.3.1.6.1.9.1.3 0 .5 0 .8-.1.3-.1.4-.3.4-.5 0-.3-.1-.5-.4-.6s-.6-.3-1.1-.4c-.4-.1-.9-.3-1.4-.4-.5-.1-1-.3-1.4-.6s-.8-.6-1.1-1c-.3-.4-.4-1-.4-1.7 0-.6.1-1.1.4-1.6.3-.5.6-.8 1-1.1.4-.3.9-.5 1.5-.7.6-.1 1.1-.2 1.7-.2 1 0 1.8.1 2.6.3.7.2 1.4.5 2 1l-1.6 2.4c-.1-.1-.3-.3-.6-.4-.2-.1-.5-.2-.8-.4l-.9-.3c-.3-.1-.6-.1-.9-.1-.2 0-.4 0-.6.1s-.2.2-.2.5c0 .2.1.4.4.6.3.1.6.3 1.1.4s.9.3 1.4.4c.5.2.9.4 1.4.6.4.3.8.6 1.1 1 .3.4.4.9.4 1.6s-.1 1.2-.4 1.6-.6.9-1.1 1.2c-.4.3-1 .5-1.5.7-.6.1-1.1.2-1.6.2-2 0-3.7-.5-5-1.5l1.6-2.3zM102.4 93.9h3.9l1.6 7.4 1.4-7.4h3.8l1.4 7.4 1.6-7.4h3.8l-3.5 10.9h-3.8l-1.4-5.8-1.4 5.8H106l-3.6-10.9zM120.5 89.6h3.6v2.9h-3.6v-2.9zm0 4.3h3.6v10.9h-3.6V93.9zM126.6 96.2h-1.7v-2.3h.3c.6 0 1-.1 1.3-.3.3-.2.6-.4.7-.7.2-.3.3-.7.4-1l.3-1.2h2.3v3.2h2.2v2.3h-2.2v5c0 .3.1.6.2.8s.4.3.8.3h.4c.2 0 .4-.1.6-.2l.2 2.5c-.4.2-.8.3-1.2.3-.4.1-.8.1-1.2.1-.7 0-1.2-.1-1.7-.3-.4-.2-.8-.4-1-.7-.3-.3-.4-.7-.5-1.1-.1-.4-.2-.9-.2-1.4v-5.3zM133.3 89.7h3.6v5.6c.3-.5.7-.9 1.2-1.2.5-.3 1.2-.5 2.1-.5 1.2 0 2.1.4 2.7 1.2.6.8.9 1.9.9 3.4v6.6h-3.6v-5.9c0-.7-.1-1.2-.4-1.6-.2-.4-.6-.6-1.2-.6-.5 0-.9.2-1.3.6-.3.4-.5 1.1-.5 2.1v5.3h-3.6v-15z"/></g><g><path class="purpleFill" d="M41.7 123.7C41 125 40 126 39 126.6c-1.1.6-2.4.9-3.9.9-1.3 0-2.4-.2-3.3-.6-1-.4-1.8-.9-2.4-1.6s-1.1-1.5-1.5-2.5c-.3-1-.5-2-.5-3.2 0-1.2.2-2.2.5-3.2s.8-1.8 1.5-2.5 1.5-1.2 2.4-1.6c.9-.4 2-.6 3.3-.6 1.4 0 2.6.2 3.7.7s2.1 1.4 2.9 2.7L38 117c-.3-.6-.7-1.1-1.2-1.4s-1.1-.5-1.8-.5c-.6 0-1.2.1-1.6.4s-.8.6-1.1 1c-.3.4-.5.9-.7 1.4-.1.6-.2 1.1-.2 1.8s.1 1.2.2 1.8c.2.5.4 1 .7 1.4.3.4.7.7 1.1 1s1 .4 1.5.4c.6 0 1.2-.2 1.7-.5s.9-.9 1.3-1.7l3.8 1.6zM42.8 112h3.6v15.1h-3.6V112zM54.5 127.1c-.1-.2-.2-.4-.2-.6-.1-.3-.1-.5-.1-.7-.2.4-.5.8-1 1.1s-1.1.5-2 .5c-.6 0-1.1-.1-1.5-.3-.4-.2-.8-.4-1.1-.7-.3-.3-.5-.7-.7-1.1-.2-.4-.2-.9-.2-1.4 0-.6.1-1 .3-1.4.2-.4.5-.8.8-1 .4-.3.8-.5 1.3-.7.5-.2 1.1-.3 1.7-.4l2.2-.3v-.2c0-.5-.1-.8-.4-.9-.2-.2-.6-.2-1-.2-.7 0-1.2.1-1.7.4-.5.2-.9.5-1.3.9l-1.7-2.4c.2-.2.5-.4.8-.6.3-.2.7-.4 1.1-.5.4-.1.9-.3 1.4-.4.5-.1 1.1-.1 1.7-.1 1.6 0 2.8.3 3.4 1 .7.7 1 1.7 1 3.1v5c0 .3 0 .6.1.8 0 .2.1.4.1.6.1.2.1.4.2.6h-3.2zm-.5-4.8l-1.5.3c-.5.1-.9.2-1.1.4-.2.2-.3.5-.3.8 0 .3.1.6.3.8.2.2.5.3.8.3.5 0 .9-.2 1.3-.6.3-.4.5-.9.5-1.7v-.3zM59.3 111.9h3.6v2.9h-3.6v-2.9zm0 4.4h3.6v10.9h-3.6v-10.9zM64.5 116.3h3.2l.3 1.5c.3-.6.7-1 1.2-1.4.5-.3 1.1-.5 1.9-.5.9 0 1.6.2 2 .6s.8.8 1 1.4c.1-.2.3-.5.4-.7.2-.2.4-.4.7-.6.3-.2.6-.3 1-.4.4-.1.8-.2 1.3-.2.8 0 1.4.1 1.8.4.5.3.8.6 1.1 1 .3.4.4.9.5 1.4s.1 1.1.1 1.7v6.7h-3.6v-5.7c0-.8-.1-1.4-.3-1.8-.2-.4-.6-.6-1.1-.6-.2 0-.3 0-.5.1s-.4.2-.5.4c-.1.2-.3.4-.4.8s-.1.8-.1 1.4v5.4h-3.6v-5.8c0-.8-.1-1.3-.3-1.7-.2-.4-.6-.6-1.1-.6-.2 0-.3 0-.5.1s-.4.2-.5.4-.3.5-.4.9c-.1.4-.1.9-.1 1.5v5.2h-3.6v-10.9zM83 112h6.4c.7 0 1.5.1 2.2.3s1.3.4 1.9.8c.6.4 1 .9 1.3 1.5.3.6.5 1.4.5 2.2 0 1-.2 1.8-.5 2.4-.3.7-.7 1.2-1.2 1.6-.5.4-1.1.7-1.9.9-.7.2-1.5.3-2.3.3h-2.6v5.1H83V112zm5.9 7c.3 0 .7 0 .9-.1s.5-.2.7-.3c.2-.2.4-.4.5-.7.1-.3.2-.6.2-1.1 0-.4-.1-.7-.2-.9-.1-.2-.3-.4-.5-.6s-.5-.3-.8-.3c-.3-.1-.6-.1-.9-.1h-1.9v4.1h2zM102.6 127.1c-.1-.2-.2-.4-.2-.6-.1-.3-.1-.5-.1-.7-.2.4-.5.8-1 1.1s-1.1.5-2 .5c-.6 0-1.1-.1-1.5-.3-.4-.2-.8-.4-1.1-.7-.3-.3-.5-.7-.7-1.1-.2-.4-.2-.9-.2-1.4 0-.6.1-1 .3-1.4.2-.4.5-.8.8-1 .4-.3.8-.5 1.3-.7.5-.2 1.1-.3 1.7-.4l2.2-.3v-.2c0-.5-.1-.8-.4-.9-.2-.2-.6-.2-1-.2-.7 0-1.2.1-1.7.4-.5.2-.9.5-1.3.9l-1.7-2.4c.2-.2.5-.4.8-.6.3-.2.7-.4 1.1-.5.4-.1.9-.3 1.4-.4.5-.1 1.1-.1 1.7-.1 1.6 0 2.8.3 3.4 1 .7.7 1 1.7 1 3.1v5c0 .3 0 .6.1.8 0 .2.1.4.1.6.1.2.1.4.2.6h-3.2zm-.6-4.8l-1.5.3c-.5.1-.9.2-1.1.4-.2.2-.3.5-.3.8 0 .3.1.6.3.8.2.2.5.3.8.3.5 0 .9-.2 1.3-.6.3-.4.5-.9.5-1.7v-.3zM108.1 123.5c.2.2.4.3.6.5.2.2.5.3.8.4l.9.3c.3.1.6.1.9.1.3 0 .5 0 .8-.1.3-.1.4-.3.4-.5 0-.3-.1-.5-.4-.6s-.6-.3-1.1-.4c-.4-.1-.9-.3-1.4-.4-.5-.1-1-.3-1.4-.6s-.8-.6-1.1-1c-.3-.4-.4-1-.4-1.7 0-.6.1-1.1.4-1.6.3-.5.6-.8 1-1.1.4-.3.9-.5 1.5-.7s1.1-.2 1.7-.2c1 0 1.8.1 2.6.3.7.2 1.4.5 2 1l-1.6 2.4c-.1-.1-.3-.3-.6-.4-.2-.1-.5-.2-.8-.4l-.9-.3c-.3-.1-.6-.1-.9-.1-.2 0-.4 0-.6.1s-.2.2-.2.5c0 .2.1.4.4.6.3.1.6.3 1.1.4.4.1.9.3 1.4.4.5.2.9.4 1.4.6.4.3.8.6 1.1 1s.4.9.4 1.6-.1 1.2-.4 1.6-.6.9-1.1 1.2c-.4.3-1 .5-1.5.7-.6.1-1.1.2-1.6.2-2 0-3.7-.5-5-1.5l1.6-2.3zM118 123.5c.2.2.4.3.6.5.2.2.5.3.8.4l.9.3c.3.1.6.1.9.1.3 0 .5 0 .8-.1.3-.1.4-.3.4-.5 0-.3-.1-.5-.4-.6s-.6-.3-1.1-.4c-.4-.1-.9-.3-1.4-.4-.5-.1-1-.3-1.4-.6s-.8-.6-1.1-1c-.3-.4-.4-1-.4-1.7 0-.6.1-1.1.4-1.6.3-.5.6-.8 1-1.1.4-.3.9-.5 1.5-.7s1.1-.2 1.7-.2c1 0 1.8.1 2.6.3.7.2 1.4.5 2 1l-1.6 2.4c-.1-.1-.3-.3-.6-.4-.2-.1-.5-.2-.8-.4l-.9-.3c-.3-.1-.6-.1-.9-.1-.2 0-.4 0-.6.1s-.2.2-.2.5c0 .2.1.4.4.6.3.1.6.3 1.1.4.4.1.9.3 1.4.4.5.2.9.4 1.4.6.4.3.8.6 1.1 1s.4.9.4 1.6-.1 1.2-.4 1.6-.6.9-1.1 1.2c-.4.3-1 .5-1.5.7-.6.1-1.1.2-1.6.2-2 0-3.7-.5-5-1.5l1.6-2.3z"/></g><g><path class="purpleFill" d="M129.9 123.2h3.9v3.9h-3.9v-3.9z"/></g></svg>