<svg version="1.1" id="Layer_1" xmlns="https://www.w3.org/2000/svg" x="0" y="0" viewBox="0 0 300 250" xml:space="preserve"><style>.copy-purpleFill{fill:#662868}</style><path class="copy-purpleFill" d="M24.7 79.5h-4.6v-3.1h13.3v3.1h-4.6v13.1h-4.1V79.5zM38.1 92.9c-1 0-1.9-.2-2.6-.5-.7-.3-1.4-.7-1.9-1.3-.5-.6-.9-1.2-1.1-2-.2-.8-.4-1.6-.4-2.5s.1-1.7.4-2.5c.3-.8.6-1.4 1.1-2 .5-.6 1.1-1 1.8-1.3.7-.3 1.6-.5 2.6-.5s1.8.2 2.6.5 1.4.7 1.9 1.3c.5.6.9 1.2 1.1 2 .3.8.4 1.6.4 2.5s-.1 1.7-.4 2.5c-.3.8-.6 1.4-1.1 2-.5.6-1.1 1-1.9 1.3-.7.4-1.5.5-2.5.5zm.1-2.9c.6 0 1.1-.3 1.4-.9.3-.6.4-1.4.4-2.4s-.2-1.8-.5-2.4c-.3-.6-.8-.9-1.4-.9s-1.1.3-1.4.9c-.3.6-.5 1.4-.5 2.4s.2 1.8.5 2.4c.3.6.8.9 1.5.9zM52.5 90.9c-.3.6-.7 1.1-1.2 1.4s-1.1.5-1.9.5c-.7 0-1.3-.1-1.9-.4-.6-.3-1.1-.7-1.5-1.2-.4-.5-.7-1.2-1-1.9-.2-.8-.3-1.7-.3-2.7 0-1.1.1-2.1.4-2.9.3-.8.6-1.4 1.1-1.9.4-.5.9-.8 1.5-1 .6-.2 1.1-.3 1.7-.3.7 0 1.3.1 1.8.4.5.3.9.6 1.1 1v-5.7h3.9v16.2h-3.7v-1.5zm-.2-4.4c0-.4 0-.7-.1-1.1l-.3-.9c-.1-.3-.3-.5-.5-.6-.2-.2-.5-.2-.8-.2-.6 0-1 .2-1.3.7-.3.5-.4 1.2-.4 2.1 0 1 .2 1.8.5 2.3.3.6.8.8 1.3.8.3 0 .6-.1.8-.2.2-.2.4-.4.5-.7.1-.3.2-.6.3-1 .1-.4.1-.8.1-1.2zM64.9 92.6c-.1-.2-.2-.4-.2-.7-.1-.3-.1-.5-.1-.7-.2.5-.6.9-1.1 1.2s-1.2.5-2.1.5c-.6 0-1.2-.1-1.7-.3-.5-.2-.9-.5-1.2-.8-.3-.3-.6-.7-.7-1.2s-.3-1-.3-1.5c0-.6.1-1.1.3-1.6.2-.4.5-.8.9-1.1.4-.3.9-.6 1.4-.7.6-.2 1.2-.3 1.9-.4l2.3-.4v-.3c0-.5-.1-.8-.4-1-.3-.2-.6-.3-1.1-.3-.7 0-1.3.1-1.8.4-.5.3-1 .6-1.4.9L57.8 82c.2-.2.5-.4.9-.6l1.2-.6c.5-.2 1-.3 1.5-.4s1.2-.1 1.9-.1c1.7 0 3 .4 3.7 1.1.7.7 1.1 1.9 1.1 3.4v5.4c0 .3 0 .6.1.9 0 .3.1.5.1.7.1.2.1.4.3.7h-3.7zm-.5-5.2l-1.6.3c-.5.1-.9.3-1.2.5-.2.2-.4.5-.4.9 0 .3.1.6.3.8.2.2.5.3.9.3.5 0 1-.2 1.4-.6.4-.4.6-1 .6-1.8v-.4zM70.1 93.7c.3.1.6.2.9.2.3.1.6.1.8.1.4 0 .6-.1.8-.2.2-.2.3-.4.4-.8l-4.2-12.1H73l2 7.9 2-7.9h4.2l-4.1 11.6c-.2.6-.5 1.2-.7 1.8-.2.5-.5 1-.9 1.4s-.8.7-1.4.9-1.3.3-2.2.3h-1.1c-.2 0-.4 0-.6-.1-.2 0-.4-.1-.5-.1l.4-3zM82.2 83.5c.4-.2.7-.4 1-.6.3-.2.5-.4.6-.6.1-.2.2-.4.3-.7 0-.2.1-.5.1-.8v-.4h-2v-4.1h4.3v4c0 .7-.1 1.3-.2 1.8s-.3 1-.6 1.3c-.3.4-.6.7-1.1 1-.4.3-.9.5-1.5.7l-.9-1.6zM88.7 88.7c.2.2.4.3.7.5s.5.3.9.5c.3.1.6.2 1 .3.3.1.7.1 1 .1.3 0 .6 0 .8-.1.3-.1.4-.3.4-.6s-.2-.5-.5-.7c-.3-.2-.7-.3-1.1-.4-.5-.1-.9-.3-1.5-.4s-1-.4-1.5-.6c-.5-.3-.8-.6-1.1-1.1s-.5-1-.5-1.8c0-.7.1-1.2.4-1.7s.6-.9 1.1-1.2c.5-.3 1-.5 1.6-.7.6-.2 1.2-.2 1.9-.2 1.1 0 2 .1 2.8.4.8.2 1.5.6 2.2 1l-1.8 2.6c-.2-.1-.4-.3-.6-.4-.2-.1-.5-.3-.8-.4l-.9-.3c-.3-.1-.6-.1-1-.1-.3 0-.5 0-.6.1-.2.1-.3.2-.3.5s.2.5.5.6c.3.2.7.3 1.1.4.5.1.9.3 1.5.5.5.2 1 .4 1.5.7.5.3.8.6 1.1 1.1.3.4.5 1 .5 1.7s-.1 1.3-.4 1.8-.7.9-1.2 1.3c-.5.3-1 .6-1.6.7-.6.2-1.2.2-1.8.2-2.2 0-4-.6-5.4-1.7l1.6-2.6zM103.2 76.3h3.9v16.2h-3.9V76.3zM112.3 87.6c.1.9.4 1.5.9 1.9.4.4.9.5 1.5.5.5 0 .9-.1 1.3-.3s.7-.5.9-1l2.8 1.6c-.6.9-1.3 1.5-2.3 2-.9.4-1.9.6-3 .6-1 0-1.9-.2-2.6-.5-.8-.3-1.4-.7-1.9-1.3-.5-.6-.9-1.2-1.2-2s-.4-1.6-.4-2.4c0-.9.1-1.7.4-2.5.3-.8.7-1.4 1.2-2 .5-.6 1.1-1 1.9-1.3s1.6-.5 2.5-.5c.9 0 1.7.2 2.4.5s1.3.7 1.8 1.3c.5.6.9 1.2 1.1 2s.4 1.8.4 2.8v.7h-7.7zm1.9-4.2c-1.1 0-1.7.7-1.9 2.1h3.8c0-.6-.1-1.1-.4-1.5-.4-.4-.9-.6-1.5-.6zM127.9 92.6c-.1-.2-.2-.4-.2-.7-.1-.3-.1-.5-.1-.7-.2.5-.6.9-1.1 1.2s-1.2.5-2.1.5c-.6 0-1.2-.1-1.7-.3-.5-.2-.9-.5-1.2-.8-.3-.3-.6-.7-.7-1.2s-.3-1-.3-1.5c0-.6.1-1.1.3-1.6.2-.4.5-.8.9-1.1.4-.3.9-.6 1.4-.7.6-.2 1.2-.3 1.9-.4l2.3-.4v-.3c0-.5-.1-.8-.4-1-.3-.2-.6-.3-1.1-.3-.7 0-1.3.1-1.8.4-.5.3-1 .6-1.4.9l-1.8-2.6c.2-.2.5-.4.9-.6l1.2-.6c.5-.2 1-.3 1.5-.4s1.2-.1 1.9-.1c1.7 0 3 .4 3.7 1.1.7.7 1.1 1.9 1.1 3.4v5.4c0 .3 0 .6.1.9 0 .3.1.5.1.7.1.2.1.4.3.7h-3.7zm-.6-5.2l-1.6.3c-.5.1-.9.3-1.2.5-.2.2-.4.5-.4.9 0 .3.1.6.3.8.2.2.5.3.9.3.5 0 1-.2 1.4-.6.4-.4.6-1 .6-1.8v-.4zM140.1 90.9c-.3.6-.7 1.1-1.2 1.4s-1.1.5-1.9.5c-.7 0-1.3-.1-1.9-.4-.6-.3-1.1-.7-1.5-1.2-.4-.5-.7-1.2-1-1.9-.2-.8-.3-1.7-.3-2.7 0-1.1.1-2.1.4-2.9.3-.8.6-1.4 1.1-1.9.4-.5.9-.8 1.5-1 .6-.2 1.1-.3 1.7-.3.7 0 1.3.1 1.8.4.5.3.9.6 1.1 1v-5.7h3.9v16.2h-3.7v-1.5zm-.3-4.4c0-.4 0-.7-.1-1.1l-.3-.9c-.1-.3-.3-.5-.5-.6-.2-.2-.5-.2-.8-.2-.6 0-1 .2-1.3.7-.3.5-.4 1.2-.4 2.1 0 1 .2 1.8.5 2.3.3.6.8.8 1.3.8.3 0 .6-.1.8-.2.2-.2.4-.4.5-.7.1-.3.2-.6.3-1 .1-.4.1-.8.1-1.2zM145.5 76.2h3.9v3.1h-3.9v-3.1zm0 4.7h3.9v11.7h-3.9V80.9zM151.2 80.9h3.5l.3 1.6c.4-.6.9-1 1.5-1.4.6-.4 1.4-.6 2.2-.6 2.6 0 3.9 1.6 3.9 4.9v7.1h-3.9v-6.2c0-.9-.1-1.6-.4-1.9-.3-.4-.7-.6-1.3-.6-.3 0-.5 0-.8.1s-.4.3-.6.5-.3.6-.4 1c-.1.4-.1.9-.1 1.5v5.5h-3.9V80.9zM165.7 92.5c.4.4 1 .8 1.7 1.1.7.3 1.3.4 2 .4s1.2-.2 1.5-.5c.3-.3.4-.8.4-1.4V91c-.3.4-.6.7-1.1 1-.5.3-1.1.4-1.9.4-.6 0-1.1-.1-1.6-.3-.5-.2-1-.5-1.5-1s-.8-1-1-1.8c-.3-.7-.4-1.6-.4-2.7 0-1 .1-1.8.3-2.6.2-.8.6-1.4 1-1.9s.9-.9 1.5-1.2c.6-.3 1.2-.4 1.9-.4s1.3.2 1.9.5c.5.3 1 .8 1.3 1.4l.5-1.6h3.1v11.1c0 .7-.1 1.4-.3 2-.2.6-.5 1.1-1 1.6-.5.4-1.1.8-1.8 1-.7.2-1.6.4-2.6.4-.7 0-1.3 0-1.9-.1-.6-.1-1.1-.2-1.6-.4s-.9-.3-1.3-.5-.7-.4-1-.6l1.9-2.8zm5.6-5.9c0-.4 0-.7-.1-1.1s-.1-.7-.3-.9c-.1-.3-.3-.5-.5-.7-.2-.2-.5-.3-.9-.3-.2 0-.5 0-.7.1-.2.1-.4.3-.6.5-.2.2-.3.5-.4.9s-.1.8-.1 1.4c0 1 .2 1.7.5 2.2s.8.7 1.4.7 1-.2 1.3-.7c.3-.5.4-1.1.4-2v-.1zM181.7 76.3h3.9v6.1c.3-.5.7-1 1.3-1.3s1.3-.6 2.3-.6c1.3 0 2.3.4 2.9 1.3.6.9.9 2.1.9 3.7v7.1h-3.9v-6.3c0-.7-.1-1.3-.4-1.7-.3-.4-.7-.6-1.3-.6-.6 0-1 .2-1.4.7-.4.5-.5 1.2-.5 2.3v5.7h-3.9V76.3zM198.1 87.6c.1.9.4 1.5.9 1.9.4.4.9.5 1.5.5.5 0 .9-.1 1.3-.3s.7-.5.9-1l2.8 1.6c-.6.9-1.3 1.5-2.3 2s-1.9.6-3 .6c-1 0-1.9-.2-2.6-.5-.8-.3-1.4-.7-1.9-1.3-.5-.6-.9-1.2-1.2-2-.3-.8-.4-1.6-.4-2.4 0-.9.1-1.7.4-2.5.3-.8.7-1.4 1.2-2 .5-.6 1.1-1 1.9-1.3s1.6-.5 2.5-.5c.9 0 1.7.2 2.4.5s1.3.7 1.8 1.3c.5.6.9 1.2 1.1 2s.4 1.7.4 2.7v.7h-7.7zm1.9-4.2c-1.1 0-1.7.7-1.9 2.1h3.8c0-.6-.1-1.1-.4-1.5s-.8-.6-1.5-.6zM213.8 92.6c-.1-.2-.2-.4-.2-.7-.1-.3-.1-.5-.1-.7-.2.5-.6.9-1.1 1.2-.5.4-1.2.5-2.1.5-.6 0-1.2-.1-1.7-.3s-.9-.5-1.2-.8c-.3-.3-.6-.7-.7-1.2s-.3-1-.3-1.5c0-.6.1-1.1.3-1.6.2-.4.5-.8.9-1.1.4-.3.9-.6 1.4-.7s1.2-.3 1.9-.4l2.3-.4v-.3c0-.5-.1-.8-.4-1-.3-.2-.6-.3-1.1-.3-.7 0-1.3.1-1.8.4-.5.3-1 .6-1.4.9l-1.8-2.6c.2-.2.5-.4.9-.6l1.2-.6c.5-.2 1-.3 1.5-.4s1.2-.1 1.9-.1c1.7 0 3 .4 3.7 1.1s1.1 1.9 1.1 3.4v5.4c0 .3 0 .6.1.9s.1.5.1.7c.1.2.1.4.3.7h-3.7zm-.6-5.2l-1.6.3c-.5.1-.9.3-1.2.5-.2.2-.4.5-.4.9 0 .3.1.6.3.8.2.2.5.3.9.3.5 0 1-.2 1.4-.6.4-.4.6-1 .6-1.8v-.4zM218.9 76.3h3.9v16.2h-3.9V76.3zM225.4 83.4h-1.9v-2.5h.3c.6 0 1.1-.1 1.4-.3.3-.2.6-.5.8-.8.2-.3.3-.7.4-1.1l.3-1.2h2.4v3.4h2.4v2.5h-2.4v5.4c0 .4.1.6.2.9.1.2.4.3.9.3h.5c.2 0 .4-.1.6-.2l.3 2.7c-.4.2-.9.3-1.3.4-.4.1-.9.1-1.3.1-.7 0-1.3-.1-1.8-.3-.5-.2-.8-.4-1.1-.8-.3-.3-.5-.7-.6-1.2-.1-.5-.2-.9-.2-1.5v-5.8zM232.6 76.3h3.9v6.1c.3-.5.7-1 1.3-1.3s1.3-.6 2.3-.6c1.3 0 2.3.4 2.9 1.3.6.9.9 2.1.9 3.7v7.1H240v-6.3c0-.7-.1-1.3-.4-1.7-.3-.4-.7-.6-1.3-.6-.6 0-1 .2-1.4.7-.4.5-.5 1.2-.5 2.3v5.7h-3.9V76.3z"/><g><path class="copy-purpleFill" d="M21.1 105H25v1.5c.3-.5.6-1 1.2-1.3.5-.4 1.2-.5 2-.5 1.3 0 2.4.5 3.2 1.5.8 1 1.2 2.5 1.2 4.6 0 1.2-.1 2.2-.4 3-.3.8-.7 1.4-1.1 1.9-.4.5-.9.8-1.5 1-.6.2-1.1.3-1.6.3-.6 0-1.2-.1-1.7-.3-.6-.2-1-.5-1.2-1v5.1h-3.9V105zm3.8 5.9c0 .4 0 .8.1 1.1.1.4.2.7.3.9.2.3.3.5.6.6.2.2.5.2.8.2.5 0 1-.2 1.3-.7.3-.5.5-1.3.5-2.3 0-1-.2-1.8-.5-2.3-.3-.5-.8-.8-1.4-.8-.3 0-.6.1-.8.2-.2.2-.4.4-.5.6l-.3.9c-.1.3-.1.7-.1 1.1v.5zM33.7 100.4h3.9v16.2h-3.9v-16.2zM46.4 116.7c-.1-.2-.2-.4-.2-.7-.1-.3-.1-.5-.1-.7-.2.5-.6.9-1.1 1.2s-1.2.5-2.1.5c-.6 0-1.2-.1-1.7-.3-.5-.2-.9-.5-1.2-.8-.3-.3-.6-.7-.7-1.2s-.3-1-.3-1.5c0-.6.1-1.1.3-1.6.2-.4.5-.8.9-1.1.4-.3.9-.6 1.4-.7.6-.2 1.2-.3 1.9-.4l2.3-.4v-.3c0-.5-.1-.8-.4-1-.3-.2-.6-.3-1.1-.3-.7 0-1.3.1-1.8.4-.5.3-1 .6-1.4.9l-1.8-2.6c.2-.2.5-.4.9-.6l1.2-.6c.5-.2 1-.3 1.5-.4s1.2-.1 1.9-.1c1.7 0 3 .4 3.7 1.1.7.7 1.1 1.9 1.1 3.4v5.4c0 .3 0 .6.1.9 0 .3.1.5.1.7.1.2.1.4.3.7h-3.7zm-.6-5.2l-1.6.3c-.5.1-.9.3-1.2.5-.2.2-.4.5-.4.9 0 .3.1.6.3.8.2.2.5.3.9.3.5 0 1-.2 1.4-.6.4-.4.6-1 .6-1.8v-.4zM51.5 105H55l.3 1.6c.4-.6.9-1 1.5-1.4s1.4-.6 2.2-.6c2.6 0 3.9 1.6 3.9 4.9v7.1H59v-6.2c0-.9-.1-1.6-.4-1.9-.3-.4-.7-.6-1.3-.6-.3 0-.5 0-.8.1-.2.1-.4.3-.6.5-.2.2-.3.6-.4 1-.1.4-.1.9-.1 1.5v5.5h-3.9V105zM65.5 112.8c.2.2.4.3.7.5s.5.3.9.5c.3.1.6.2 1 .3.3.1.7.1 1 .1.3 0 .6 0 .8-.1.3-.1.4-.3.4-.6s-.2-.5-.5-.7c-.3-.2-.7-.3-1.1-.4-.5-.1-.9-.3-1.5-.4s-1-.4-1.5-.6c-.5-.3-.8-.6-1.1-1.1s-.5-1-.5-1.8c0-.7.1-1.2.4-1.7s.6-.9 1.1-1.2c.5-.3 1-.5 1.6-.7.6-.2 1.2-.2 1.9-.2 1.1 0 2 .1 2.8.4.8.2 1.5.6 2.2 1l-1.8 2.6c-.2-.1-.4-.3-.6-.4-.2-.1-.5-.3-.8-.4l-.9-.3c-.3-.1-.6-.1-1-.1-.3 0-.5 0-.6.1-.2.1-.3.2-.3.5s.2.5.5.6c.3.2.7.3 1.1.4.5.1.9.3 1.5.5.5.2 1 .4 1.5.7.5.3.8.6 1.1 1.1.3.4.5 1 .5 1.7s-.1 1.3-.4 1.8-.7.9-1.2 1.3c-.5.3-1 .6-1.6.7-.6.2-1.2.2-1.8.2-2.2 0-4-.6-5.4-1.7l1.6-2.6zM87 116.7c-.1-.2-.2-.4-.2-.7-.1-.3-.1-.5-.1-.7-.2.5-.6.9-1.1 1.2s-1.2.5-2.1.5c-.6 0-1.2-.1-1.7-.3-.5-.2-.9-.5-1.2-.8-.3-.3-.6-.7-.7-1.2s-.3-1-.3-1.5c0-.6.1-1.1.3-1.6.2-.4.5-.8.9-1.1.4-.3.9-.6 1.4-.7.6-.2 1.2-.3 1.9-.4l2.3-.4v-.3c0-.5-.1-.8-.4-1-.3-.2-.6-.3-1.1-.3-.7 0-1.3.1-1.8.4-.5.3-1 .6-1.4.9l-1.8-2.6c.2-.2.5-.4.9-.6l1.2-.6c.5-.2 1-.3 1.5-.4s1.2-.1 1.9-.1c1.7 0 3 .4 3.7 1.1.7.7 1.1 1.9 1.1 3.4v5.4c0 .3 0 .6.1.9 0 .3.1.5.1.7.1.2.1.4.3.7H87zm-.6-5.2l-1.6.3c-.5.1-.9.3-1.2.5-.2.2-.4.5-.4.9 0 .3.1.6.3.8.2.2.5.3.9.3.5 0 1-.2 1.4-.6.4-.4.6-1 .6-1.8v-.4zM92.1 105h3.5l.3 1.6c.4-.6.9-1 1.5-1.4s1.4-.6 2.2-.6c2.6 0 3.9 1.6 3.9 4.9v7.1h-3.9v-6.2c0-.9-.1-1.6-.4-1.9-.3-.4-.7-.6-1.3-.6-.3 0-.5 0-.8.1-.2.1-.4.3-.6.5-.2.2-.3.6-.4 1-.1.4-.1.9-.1 1.5v5.5h-3.9V105zM112.4 115c-.3.6-.7 1.1-1.2 1.4s-1.1.5-1.9.5c-.7 0-1.3-.1-1.9-.4-.6-.3-1.1-.7-1.5-1.2-.4-.5-.7-1.2-1-1.9-.2-.8-.3-1.7-.3-2.7 0-1.1.1-2.1.4-2.9.3-.8.6-1.4 1.1-1.9.4-.5.9-.8 1.5-1 .6-.2 1.1-.3 1.7-.3.7 0 1.3.1 1.8.4.5.3.9.6 1.1 1v-5.7h3.9v16.2h-3.7V115zm-.3-4.4c0-.4 0-.7-.1-1.1l-.3-.9c-.1-.3-.3-.5-.5-.6-.2-.2-.5-.2-.8-.2-.6 0-1 .2-1.3.7-.3.5-.4 1.2-.4 2.1 0 1 .2 1.8.5 2.3.3.6.8.8 1.3.8.3 0 .6-.1.8-.2.2-.2.4-.4.5-.7.1-.3.2-.6.3-1 .1-.4.1-.8.1-1.2zM126 103.6h-4.6v-3.1h13.3v3.1h-4.6v13.1H126v-13.1zM135.8 100.4h6.9c.8 0 1.6.1 2.3.3.8.2 1.4.5 2 .9.6.4 1.1 1 1.4 1.6.4.7.6 1.5.6 2.4 0 1-.2 1.9-.5 2.6-.3.7-.8 1.3-1.3 1.7-.6.4-1.2.8-2 1-.8.2-1.6.3-2.5.3h-2.8v5.4h-4.1v-16.2zm6.3 7.5c.4 0 .7 0 1-.1.3-.1.6-.2.8-.4.2-.2.4-.4.5-.7.1-.3.2-.7.2-1.2 0-.4-.1-.7-.2-1-.1-.3-.3-.5-.6-.6-.2-.2-.5-.3-.8-.3-.3-.1-.7-.1-1-.1h-2.1v4.4h2.2zM153.7 100.4h3.7l6.3 16.2h-4.3l-1.1-3.3h-5.5l-1.2 3.3h-4.2l6.3-16.2zm3.4 9.8c-.3-.8-.6-1.6-.8-2.4s-.6-1.7-.8-2.7c-.2.9-.5 1.8-.8 2.6l-.9 2.4h3.3zM165.6 112.8c.2.2.4.3.7.5s.5.3.9.5c.3.1.6.2 1 .3.3.1.7.1 1 .1.3 0 .6 0 .8-.1.3-.1.4-.3.4-.6s-.2-.5-.5-.7c-.3-.2-.7-.3-1.1-.4-.5-.1-.9-.3-1.5-.4s-1-.4-1.5-.6c-.5-.3-.8-.6-1.1-1.1-.3-.5-.5-1-.5-1.8 0-.7.1-1.2.4-1.7.3-.5.6-.9 1.1-1.2.5-.3 1-.5 1.6-.7.6-.2 1.2-.2 1.9-.2 1.1 0 2 .1 2.8.4.8.2 1.5.6 2.2 1l-1.8 2.6c-.2-.1-.4-.3-.6-.4-.2-.1-.5-.3-.8-.4l-.9-.3c-.3-.1-.6-.1-1-.1-.3 0-.5 0-.6.1-.2.1-.3.2-.3.5s.2.5.5.6c.3.2.7.3 1.1.4s.9.3 1.5.5c.5.2 1 .4 1.5.7.5.3.8.6 1.1 1.1.3.4.5 1 .5 1.7s-.1 1.3-.4 1.8c-.3.5-.7.9-1.2 1.3-.5.3-1 .6-1.6.7-.6.2-1.2.2-1.8.2-2.2 0-4-.6-5.4-1.7l1.6-2.6zM187.1 116.7c-.1-.2-.2-.4-.2-.7-.1-.3-.1-.5-.1-.7-.2.5-.6.9-1.1 1.2-.5.4-1.2.5-2.1.5-.6 0-1.2-.1-1.7-.3s-.9-.5-1.2-.8c-.3-.3-.6-.7-.7-1.2s-.3-1-.3-1.5c0-.6.1-1.1.3-1.6.2-.4.5-.8.9-1.1.4-.3.9-.6 1.4-.7s1.2-.3 1.9-.4l2.3-.4v-.3c0-.5-.1-.8-.4-1-.3-.2-.6-.3-1.1-.3-.7 0-1.3.1-1.8.4-.5.3-1 .6-1.4.9l-1.8-2.6c.2-.2.5-.4.9-.6l1.2-.6c.5-.2 1-.3 1.5-.4s1.2-.1 1.9-.1c1.7 0 3 .4 3.7 1.1s1.1 1.9 1.1 3.4v5.4c0 .3 0 .6.1.9s.1.5.1.7c.1.2.1.4.3.7h-3.7zm-.6-5.2l-1.6.3c-.5.1-.9.3-1.2.5-.2.2-.4.5-.4.9 0 .3.1.6.3.8.2.2.5.3.9.3.5 0 1-.2 1.4-.6.4-.4.6-1 .6-1.8v-.4zM192.2 105h3.5l.3 2.2c.4-.7.8-1.3 1.5-1.8.6-.5 1.5-.7 2.6-.7v3.9c-.3-.1-.7-.1-1.2-.1-.3 0-.6 0-.9.1-.3.1-.6.2-.9.4-.3.2-.5.5-.7.9-.2.4-.3 1-.3 1.7v5.2h-3.9V105zM204 111.7c.1.9.4 1.5.9 1.9.4.4.9.5 1.5.5.5 0 .9-.1 1.3-.3s.7-.5.9-1l2.8 1.6c-.6.9-1.3 1.5-2.3 2s-1.9.6-3 .6c-1 0-1.9-.2-2.6-.5-.8-.3-1.4-.7-1.9-1.3-.5-.6-.9-1.2-1.2-2-.3-.8-.4-1.6-.4-2.4 0-.9.1-1.7.4-2.5.3-.8.7-1.4 1.2-2 .5-.6 1.1-1 1.9-1.3s1.6-.5 2.5-.5c.9 0 1.7.2 2.4.5s1.3.7 1.8 1.3c.5.6.9 1.2 1.1 2s.4 1.7.4 2.7v.7H204zm1.9-4.3c-1.1 0-1.7.7-1.9 2.1h3.8c0-.6-.1-1.1-.4-1.5s-.8-.6-1.5-.6z"/></g><g><path class="copy-purpleFill" d="M22.1 136.8c.2.2.4.3.7.5s.5.3.9.5.6.2 1 .3c.3.1.7.1 1 .1.3 0 .6 0 .8-.1.3-.1.4-.3.4-.6s-.2-.5-.5-.7c-.3-.2-.7-.3-1.1-.4-.5-.1-.9-.3-1.5-.4l-1.5-.6c-.5-.3-.8-.6-1.1-1.1s-.5-1-.5-1.8c0-.7.1-1.2.4-1.7.3-.5.6-.9 1.1-1.2.5-.3 1-.5 1.6-.7.6-.2 1.2-.2 1.9-.2 1.1 0 2 .1 2.8.4.8.2 1.5.6 2.2 1l-1.8 2.6c-.2-.1-.4-.3-.6-.4s-.5-.3-.8-.4l-.9-.3c-.3-.1-.6-.1-1-.1-.3 0-.5 0-.6.1-.2.1-.3.2-.3.5s.2.5.5.6c.3.2.7.3 1.1.4.5.1.9.3 1.5.5.5.2 1 .4 1.5.7.5.3.8.6 1.1 1.1.3.4.5 1 .5 1.7s-.1 1.3-.4 1.8-.7.9-1.2 1.3c-.5.3-1 .6-1.6.7-.6.2-1.2.2-1.8.2-2.2 0-4-.6-5.4-1.7l1.6-2.6zM38.8 140.7c-.1-.2-.2-.4-.2-.7-.1-.3-.1-.5-.1-.7-.2.5-.6.9-1.1 1.2-.5.4-1.2.5-2.1.5-.6 0-1.2-.1-1.7-.3-.5-.2-.9-.5-1.2-.8-.3-.3-.6-.7-.7-1.2s-.3-1-.3-1.5c0-.6.1-1.1.3-1.6.2-.4.5-.8.9-1.1s.9-.6 1.4-.7c.6-.2 1.2-.3 1.9-.4l2.3-.4v-.3c0-.5-.1-.8-.4-1-.3-.2-.6-.3-1.1-.3-.7 0-1.3.1-1.8.4-.5.3-1 .6-1.4.9l-1.8-2.6c.2-.2.5-.4.9-.6l1.2-.6c.5-.2 1-.3 1.5-.4s1.2-.1 1.9-.1c1.7 0 3 .4 3.7 1.1.7.7 1.1 1.9 1.1 3.4v5.4c0 .3 0 .6.1.9 0 .3.1.5.1.7.1.2.1.4.3.7h-3.7zm-.6-5.2l-1.6.3c-.5.1-.9.3-1.2.5-.2.2-.4.5-.4.9 0 .3.1.6.3.8.2.2.5.3.9.3.5 0 1-.2 1.4-.6.4-.4.6-1 .6-1.8v-.4zM42.5 129h4.3l1.9 8.1 1.9-8.1h4.1l-3.9 11.7h-4.5L42.5 129zM55.4 124.4h3.9v3.1h-3.9v-3.1zm0 4.6h3.9v11.7h-3.9V129zM61.1 129h3.5l.3 1.6c.4-.6.9-1 1.5-1.4.6-.4 1.4-.6 2.2-.6 2.6 0 3.9 1.6 3.9 4.9v7.1h-3.9v-6.2c0-.9-.1-1.6-.4-1.9-.3-.4-.7-.6-1.3-.6-.3 0-.5 0-.8.1-.2.1-.4.3-.6.5-.2.2-.3.6-.4 1-.1.4-.1.9-.1 1.5v5.5h-3.9V129zM75.5 140.7c.4.4 1 .8 1.7 1.1s1.3.4 2 .4 1.2-.2 1.5-.5c.3-.3.4-.8.4-1.4v-1.1c-.3.4-.6.7-1.1 1-.5.3-1.1.4-1.9.4-.6 0-1.1-.1-1.6-.3-.5-.2-1-.5-1.5-1-.4-.5-.8-1-1-1.8-.3-.7-.4-1.6-.4-2.7 0-1 .1-1.8.3-2.6.2-.8.6-1.4 1-1.9s.9-.9 1.5-1.2c.6-.3 1.2-.4 1.9-.4s1.3.2 1.9.5c.5.3 1 .8 1.3 1.4l.5-1.6h3v11.1c0 .7-.1 1.4-.3 2-.2.6-.5 1.1-1 1.6-.5.4-1.1.8-1.8 1s-1.6.4-2.6.4c-.7 0-1.3 0-1.9-.1-.6-.1-1.1-.2-1.6-.4s-.9-.3-1.3-.5-.7-.4-1-.6l2-2.8zm5.6-5.9c0-.4 0-.7-.1-1.1s-.1-.7-.3-.9c-.1-.3-.3-.5-.5-.7-.2-.2-.5-.3-.9-.3-.2 0-.5 0-.7.1-.2.1-.4.3-.6.5-.2.2-.3.5-.4.9-.1.4-.1.8-.1 1.4 0 1 .2 1.7.5 2.2.3.5.8.7 1.4.7s1-.2 1.3-.7c.3-.5.4-1.1.4-2v-.1zM91.5 129h3.9v6.4c0 .7.1 1.3.3 1.7.2.4.6.6 1.2.6s1.1-.2 1.4-.7c.3-.5.5-1.2.5-2.3V129h3.9v11.7H99V139c-.3.6-.7 1.1-1.3 1.5-.5.4-1.3.5-2.2.5-1.4 0-2.4-.4-3.1-1.2s-1-2-1-3.5V129zM104.5 129h3.9v1.5c.3-.5.6-1 1.2-1.3.5-.4 1.2-.5 2-.5 1.3 0 2.4.5 3.2 1.5s1.2 2.5 1.2 4.6c0 1.2-.1 2.2-.4 3-.3.8-.7 1.4-1.1 1.9s-.9.8-1.5 1c-.6.2-1.1.3-1.6.3-.6 0-1.2-.1-1.7-.3-.6-.2-1-.5-1.2-1v5.1h-3.9V129zm3.9 6c0 .4 0 .8.1 1.1.1.4.2.7.3.9s.3.5.6.6c.2.2.5.2.8.2.5 0 1-.2 1.3-.7s.5-1.3.5-2.3c0-1-.2-1.8-.5-2.3-.3-.5-.8-.8-1.4-.8-.3 0-.6.1-.8.2-.2.2-.4.4-.5.6l-.3.9c-.1.3-.1.7-.1 1.1v.5zM122.8 131.5h-1.9V129h.3c.6 0 1.1-.1 1.4-.3.3-.2.6-.5.8-.8.2-.3.3-.7.4-1.1l.3-1.2h2.4v3.4h2.4v2.5h-2.4v5.4c0 .4.1.6.2.9.1.2.4.3.9.3h.5c.2 0 .4-.1.6-.2l.3 2.7c-.4.2-.9.3-1.3.4-.4.1-.9.1-1.3.1-.7 0-1.3-.1-1.8-.3s-.9-.4-1.1-.8c-.3-.3-.5-.7-.6-1.2-.1-.5-.2-.9-.2-1.5v-5.8zM135.2 141.1c-1 0-1.9-.2-2.6-.5-.7-.3-1.4-.7-1.9-1.3-.5-.6-.9-1.2-1.1-2-.2-.8-.4-1.6-.4-2.5s.1-1.7.4-2.5c.3-.8.6-1.4 1.1-2 .5-.6 1.1-1 1.8-1.3.7-.3 1.6-.5 2.6-.5s1.8.2 2.6.5c.7.3 1.4.7 1.9 1.3.5.6.9 1.2 1.1 2 .3.8.4 1.6.4 2.5s-.1 1.7-.4 2.5c-.3.8-.6 1.4-1.1 2-.5.6-1.1 1-1.9 1.3s-1.5.5-2.5.5zm.1-3c.6 0 1.1-.3 1.4-.9.3-.6.4-1.4.4-2.4s-.2-1.8-.5-2.4c-.3-.6-.8-.9-1.4-.9s-1.1.3-1.4.9c-.3.6-.5 1.4-.5 2.4s.2 1.8.5 2.4c.3.7.8.9 1.5.9zM149.7 132.5c-.3-.1-.7-.3-1-.4s-.6-.4-.9-.7l-.6-.9c-.2-.3-.2-.7-.2-1.1 0-.8.2-1.4.5-1.9s.7-1 1.3-1.3c.5-.4 1.1-.6 1.8-.8.7-.2 1.3-.3 2-.3s1.3.1 2 .3 1.2.4 1.8.8c.5.4 1 .8 1.3 1.3.3.5.5 1.2.5 1.9 0 .8-.3 1.5-.8 2-.5.6-1.2.9-1.9 1.1 1 .2 1.7.6 2.3 1.2s.9 1.4.9 2.5c0 .9-.2 1.7-.5 2.3-.4.6-.8 1.1-1.4 1.5s-1.2.7-1.9.9c-.7.2-1.4.3-2.2.3s-1.5-.1-2.2-.3-1.4-.5-2-.9c-.6-.4-1-.9-1.4-1.6-.4-.6-.5-1.4-.5-2.3 0-1 .3-1.8.8-2.4.5-.7 1.3-1.1 2.3-1.2zm2.9 5.5c.6 0 1-.2 1.4-.6s.6-.9.6-1.6c0-.6-.2-1.2-.6-1.6-.4-.4-.9-.6-1.5-.6-.7 0-1.2.2-1.6.6s-.5.9-.5 1.6c0 .6.2 1.1.6 1.5.4.5.9.7 1.6.7zm-1.7-8.5c0 .5.2 1 .5 1.4.3.4.7.6 1.2.6s.9-.2 1.2-.6c.3-.4.5-.8.5-1.4 0-.5-.2-1-.5-1.3-.3-.4-.7-.5-1.2-.5s-1 .2-1.2.5c-.4.4-.5.8-.5 1.3zM167.4 129.4c-.2-.5-.4-.9-.8-1.1-.4-.3-.8-.4-1.1-.4-.3 0-.5.1-.8.2-.3.1-.5.3-.8.6-.2.3-.4.7-.6 1.2s-.2 1.1-.2 1.9V132.1c.3-.4.7-.7 1.2-1.1.6-.3 1.3-.5 2.2-.5.7 0 1.4.1 2 .4.6.2 1.1.6 1.5 1 .4.4.7 1 1 1.6.2.6.3 1.3.3 2.1 0 .7-.1 1.4-.4 2.1-.2.7-.6 1.3-1.1 1.8-.5.5-1.1.9-1.8 1.2-.7.3-1.6.5-2.5.5-.8 0-1.7-.1-2.4-.4-.8-.3-1.5-.8-2-1.4-.6-.6-1.1-1.4-1.4-2.3-.4-.9-.5-2-.5-3.3 0-1.6.2-3 .6-4.1.4-1.1.9-2 1.5-2.7.6-.7 1.3-1.2 2-1.4.7-.3 1.5-.4 2.2-.4.7 0 1.3.1 1.9.2.6.2 1.1.4 1.5.6.4.3.8.6 1.1.9.3.4.6.7.7 1.1l-3.3 1.4zm-2.1 8.9c.6 0 1-.2 1.3-.7.3-.5.4-1.1.4-1.7 0-.7-.2-1.3-.5-1.8s-.7-.7-1.3-.7c-.6 0-1 .2-1.3.7-.3.5-.4 1.1-.4 1.9 0 .8.2 1.4.5 1.8.4.3.8.5 1.3.5zM176.3 134c-.7 0-1.4-.1-1.9-.4-.6-.3-1-.6-1.4-1.1-.4-.5-.7-1-.9-1.6-.2-.6-.3-1.3-.3-2s.1-1.3.3-1.9c.2-.6.5-1.1.9-1.6s.9-.8 1.4-1c.6-.3 1.2-.4 1.9-.4.8 0 1.5.1 2 .4.6.3 1 .6 1.4 1 .4.4.6 1 .8 1.6.2.6.3 1.2.3 1.9s-.1 1.3-.3 2c-.2.6-.4 1.2-.8 1.6-.4.5-.8.8-1.4 1.1-.5.3-1.2.4-2 .4zm0-2.4c.2 0 .4-.1.5-.3l.3-.6c.1-.3.1-.5.2-.8v-.9-.9c0-.3-.1-.6-.1-.8l-.3-.6c-.1-.2-.3-.2-.6-.2-.2 0-.4.1-.6.2l-.3.6c-.1.2-.1.5-.1.8v1.8c0 .3.1.6.1.9.1.3.2.5.3.6.2.1.4.2.6.2zm8.8-7.8l2.1.9-8 16.3-2.1-.9 8-16.3zm2.8 17.2c-.7 0-1.4-.1-1.9-.4-.6-.3-1-.6-1.4-1.1-.4-.5-.7-1-.9-1.6s-.3-1.3-.3-2 .1-1.3.3-1.9.5-1.1.9-1.6.9-.8 1.4-1 1.2-.4 1.9-.4c.8 0 1.5.1 2 .4s1 .6 1.4 1c.4.4.6 1 .8 1.6.2.6.3 1.2.3 1.9s-.1 1.3-.3 2-.4 1.2-.8 1.6c-.4.5-.8.8-1.4 1.1-.6.2-1.2.4-2 .4zm0-2.5c.2 0 .4-.1.5-.3l.3-.6c.1-.3.1-.5.2-.9v-.9-.9c0-.3-.1-.6-.1-.8l-.3-.6c-.1-.2-.3-.2-.6-.2s-.4.1-.6.2-.2.4-.3.6c-.1.2-.1.5-.1.8v1.8c0 .3.1.6.1.9.1.3.2.5.3.6s.4.3.6.3zM198.3 129h3.5l.3 1.6c.3-.6.8-1.1 1.3-1.5.5-.3 1.2-.5 2-.5 1 0 1.7.2 2.2.6.5.4.9.9 1.1 1.5.1-.2.3-.5.5-.7.2-.3.4-.5.7-.7.3-.2.6-.4 1-.5.4-.1.9-.2 1.4-.2.8 0 1.5.1 2 .4.5.3.9.6 1.2 1.1.3.5.5 1 .6 1.6.1.6.1 1.2.1 1.8v7.2h-3.9v-6.1c0-.9-.1-1.5-.3-1.9-.2-.4-.6-.6-1.2-.6-.2 0-.4 0-.6.1-.2.1-.4.2-.5.4s-.3.5-.4.9c-.1.4-.1.9-.1 1.5v5.9h-3.9v-6.2c0-.8-.1-1.4-.3-1.8-.2-.4-.6-.6-1.2-.6-.2 0-.4 0-.6.1-.2.1-.4.2-.5.4-.2.2-.3.5-.4.9-.1.4-.2.9-.2 1.6v5.6h-3.9V129zM223.3 141.1c-1 0-1.9-.2-2.6-.5s-1.4-.7-1.8-1.3c-.5-.6-.9-1.2-1.1-2-.2-.8-.4-1.6-.4-2.5s.1-1.7.4-2.5c.3-.8.6-1.4 1.1-2 .5-.6 1.1-1 1.8-1.3.7-.3 1.6-.5 2.6-.5s1.8.2 2.6.5c.7.3 1.4.7 1.8 1.3s.9 1.2 1.1 2c.3.8.4 1.6.4 2.5s-.1 1.7-.4 2.5c-.3.8-.6 1.4-1.1 2-.5.6-1.1 1-1.8 1.3-.7.3-1.6.5-2.6.5zm.1-3c.6 0 1.1-.3 1.4-.9.3-.6.4-1.4.4-2.4s-.2-1.8-.5-2.4c-.3-.6-.8-.9-1.4-.9-.6 0-1.1.3-1.4.9-.3.6-.5 1.4-.5 2.4s.2 1.8.5 2.4c.3.7.8.9 1.5.9zM230.5 129h3.5l.3 2.2c.4-.7.8-1.3 1.5-1.8s1.5-.7 2.6-.7v3.9c-.3-.1-.7-.1-1.2-.1-.3 0-.6 0-.9.1-.3.1-.6.2-.9.4-.3.2-.5.5-.7.9-.2.4-.3 1-.3 1.7v5.2h-3.9V129zM242.4 135.8c.1.9.4 1.5.9 1.9.4.4.9.5 1.5.5.5 0 .9-.1 1.3-.3s.7-.5.9-1l2.8 1.6c-.6.9-1.3 1.5-2.3 2-.9.4-1.9.6-3 .6-1 0-1.9-.2-2.6-.5-.8-.3-1.4-.7-1.9-1.3-.5-.6-.9-1.2-1.2-2-.3-.8-.4-1.6-.4-2.4 0-.9.1-1.7.4-2.5.3-.8.7-1.4 1.2-2 .5-.6 1.1-1 1.9-1.3.7-.3 1.6-.5 2.5-.5.9 0 1.7.2 2.4.5s1.3.7 1.8 1.3c.5.6.9 1.2 1.1 2s.4 1.7.4 2.7v.7h-7.7zm1.9-4.3c-1.1 0-1.7.7-1.9 2.1h3.8c0-.6-.1-1.1-.4-1.5-.4-.4-.8-.6-1.5-.6zM251.2 136.5h4.3v4.3h-4.3v-4.3z"/></g></svg>