<svg version="1.1" id="Layer_1" xmlns="https://www.w3.org/2000/svg" x="0" y="0" viewBox="0 0 300 250" xml:space="preserve"><style>.copy-purpleFill{fill:#662868}.copy-grayFill{fill:#5d6770}</style><path class="copy-purpleFill" d="M23.7 62.8h11.5v3.1h-7.4v3.5h5.1v3.1h-5.1V79h-4.1V62.8zM36.2 62.7h3.9v3.1h-3.9v-3.1zm0 4.6h3.9V79h-3.9V67.3zM41.9 67.3h3.5l.3 1.6c.4-.6.9-1 1.5-1.4s1.4-.6 2.2-.6c2.6 0 3.9 1.6 3.9 4.9V79h-3.9v-6.2c0-.9-.1-1.6-.4-1.9-.3-.4-.7-.6-1.3-.6-.3 0-.5 0-.8.1-.2.1-.4.3-.6.5-.2.2-.3.6-.4 1-.1.4-.1.9-.1 1.5V79h-3.9V67.3zM62.1 77.4c-.3.6-.7 1.1-1.2 1.4s-1.1.5-1.9.5c-.7 0-1.3-.1-1.9-.4-.6-.3-1.1-.7-1.5-1.2-.4-.5-.7-1.2-1-1.9-.2-.8-.3-1.7-.3-2.7 0-1.1.1-2.1.4-2.9.3-.8.6-1.4 1.1-1.9.4-.5.9-.8 1.5-1 .6-.2 1.1-.3 1.7-.3.7 0 1.3.1 1.8.4.5.3.9.6 1.1 1v-5.7h3.9V79h-3.7v-1.6zm-.2-4.5c0-.4 0-.7-.1-1.1l-.3-.9c-.1-.3-.3-.5-.5-.6-.2-.2-.5-.2-.8-.2-.6 0-1 .2-1.3.7-.3.5-.4 1.2-.4 2.1 0 1 .2 1.8.5 2.3.3.6.8.8 1.3.8.3 0 .6-.1.8-.2.2-.2.4-.4.5-.7.1-.3.2-.6.3-1 .1-.4.1-.8.1-1.2zM77.7 79.4c-1 0-1.9-.2-2.6-.5-.7-.3-1.4-.7-1.9-1.3-.5-.6-.9-1.2-1.1-2-.2-.8-.4-1.6-.4-2.5s.1-1.7.4-2.5c.3-.8.6-1.4 1.1-2 .5-.6 1.1-1 1.8-1.3.7-.3 1.6-.5 2.6-.5s1.8.2 2.6.5 1.4.7 1.9 1.3c.5.6.9 1.2 1.1 2 .3.8.4 1.6.4 2.5s-.1 1.7-.4 2.5c-.3.8-.6 1.4-1.1 2-.5.6-1.1 1-1.9 1.3-.7.3-1.5.5-2.5.5zm.1-3c.6 0 1.1-.3 1.4-.9.3-.6.4-1.4.4-2.4s-.2-1.8-.5-2.4c-.3-.6-.8-.9-1.4-.9s-1.1.3-1.4.9c-.3.6-.5 1.4-.5 2.4s.2 1.8.5 2.4c.3.6.8.9 1.5.9zM84.8 67.3h3.9v6.4c0 .7.1 1.3.3 1.7.2.4.6.6 1.2.6s1.1-.2 1.4-.7c.3-.5.5-1.2.5-2.3v-5.7H96V79h-3.6v-1.7c-.3.6-.7 1.1-1.3 1.5s-1.3.5-2.2.5c-1.4 0-2.4-.4-3.1-1.2s-1-2-1-3.5v-7.3zM98.7 69.8h-1.9v-2.5h.3c.6 0 1.1-.1 1.4-.3.3-.2.6-.5.8-.8.2-.3.3-.7.4-1.1l.3-1.2h2.4v3.4h2.4v2.5h-2.4v5.4c0 .4.1.6.2.9.1.2.4.3.9.3h.5c.2 0 .4-.1.6-.2l.3 2.7c-.4.2-.9.3-1.3.4-.4.1-.9.1-1.3.1-.7 0-1.3-.1-1.8-.3-.5-.2-.9-.4-1.1-.8-.3-.3-.5-.7-.6-1.2-.1-.5-.2-.9-.2-1.5v-5.8zM110.6 62.8h3.9v6.1c.3-.5.7-1 1.3-1.3.6-.4 1.3-.6 2.3-.6 1.3 0 2.3.4 2.9 1.3s.9 2.1.9 3.7v7H118v-6.3c0-.7-.1-1.3-.4-1.7-.3-.4-.7-.6-1.3-.6-.6 0-1 .2-1.4.7-.4.5-.5 1.2-.5 2.3V79h-3.9V62.8zM129 79.4c-1 0-1.9-.2-2.6-.5-.7-.3-1.4-.7-1.9-1.3-.5-.6-.9-1.2-1.1-2-.2-.8-.4-1.6-.4-2.5s.1-1.7.4-2.5c.3-.8.6-1.4 1.1-2 .5-.6 1.1-1 1.8-1.3.7-.3 1.6-.5 2.6-.5s1.8.2 2.6.5 1.4.7 1.9 1.3c.5.6.9 1.2 1.1 2 .3.8.4 1.6.4 2.5s-.1 1.7-.4 2.5c-.3.8-.6 1.4-1.1 2-.5.6-1.1 1-1.9 1.3-.7.3-1.5.5-2.5.5zm.1-3c.6 0 1.1-.3 1.4-.9.3-.6.4-1.4.4-2.4s-.2-1.8-.5-2.4c-.3-.6-.8-.9-1.4-.9s-1.1.3-1.4.9c-.3.6-.5 1.4-.5 2.4s.2 1.8.5 2.4c.3.6.8.9 1.5.9zM134.8 67.3h4.2l1.7 8 1.5-8h4.1l1.5 8 1.7-8h4.1L149.8 79h-4.1l-1.5-6.3-1.5 6.3h-4.1l-3.8-11.7zM169.7 76.6c-.6 1-1.3 1.7-2.2 2.1s-1.9.7-3.1.7c-1 0-1.9-.2-2.7-.5-.8-.3-1.4-.8-1.9-1.3-.5-.6-.8-1.2-1.1-2-.2-.8-.3-1.6-.3-2.4 0-.9.1-1.8.4-2.6.3-.8.7-1.4 1.2-2 .5-.5 1.1-1 1.9-1.3.7-.3 1.6-.4 2.5-.4 1.2 0 2.2.2 3.1.7s1.6 1.2 2.1 2.2l-3.2 1.5c-.2-.6-.5-.9-.8-1.2-.3-.2-.7-.4-1.1-.4-.7 0-1.2.3-1.6.9-.3.6-.5 1.3-.5 2.2 0 .4 0 .8.1 1.1.1.4.2.8.3 1.1.2.3.4.6.7.8.3.2.7.3 1.1.3.5 0 .9-.1 1.3-.4.3-.3.6-.7.8-1.2l3 2.1zM175.7 79.4c-1 0-1.9-.2-2.6-.5-.7-.3-1.4-.7-1.8-1.3-.5-.6-.9-1.2-1.1-2-.2-.8-.4-1.6-.4-2.5s.1-1.7.4-2.5.6-1.4 1.1-2c.5-.6 1.1-1 1.8-1.3s1.6-.5 2.6-.5 1.8.2 2.6.5c.7.3 1.4.7 1.8 1.3.5.6.9 1.2 1.1 2 .3.8.4 1.6.4 2.5s-.1 1.7-.4 2.5c-.3.8-.6 1.4-1.1 2-.5.6-1.1 1-1.8 1.3-.7.3-1.6.5-2.6.5zm.1-3c.6 0 1.1-.3 1.4-.9.3-.6.4-1.4.4-2.4s-.2-1.8-.5-2.4c-.3-.6-.8-.9-1.4-.9-.6 0-1.1.3-1.4.9-.3.6-.5 1.4-.5 2.4s.2 1.8.5 2.4c.3.6.8.9 1.5.9zM182.9 67.3h3.5l.3 1.6c.3-.6.8-1.1 1.3-1.5s1.2-.5 2-.5c1 0 1.7.2 2.2.6.5.4.9.9 1.1 1.5.1-.2.3-.5.5-.7.2-.3.4-.5.7-.7.3-.2.6-.4 1-.5.5-.1 1-.1 1.5-.1.8 0 1.5.1 2 .4.5.3.9.6 1.2 1.1.3.5.5 1 .6 1.6.1.6.1 1.2.1 1.8V79H197v-6.1c0-.9-.1-1.5-.3-1.9-.2-.4-.6-.6-1.2-.6-.2 0-.4 0-.6.1-.2.1-.4.2-.5.4-.2.2-.3.5-.4.9s-.1.9-.1 1.5V79H190v-6.2c0-.8-.1-1.4-.3-1.9-.2-.4-.6-.6-1.2-.6-.2 0-.4 0-.6.1-.2.1-.4.2-.5.4-.2.2-.3.5-.4.9-.1.4-.2.9-.2 1.6V79h-3.9V67.3zM202.6 67.3h3.9v1.5c.3-.5.6-1 1.2-1.3.5-.4 1.2-.5 2-.5 1.3 0 2.4.5 3.2 1.5.8 1 1.2 2.5 1.2 4.6 0 1.2-.1 2.2-.4 3-.3.8-.7 1.4-1.1 1.9-.4.5-.9.8-1.5 1-.6.2-1.1.3-1.6.3-.6 0-1.2-.1-1.7-.3-.6-.2-1-.5-1.2-1v5h-3.9V67.3zm3.9 6c0 .4 0 .8.1 1.1.1.4.2.7.3.9.2.3.3.5.6.6.2.2.5.2.8.2.5 0 1-.2 1.3-.7.3-.5.5-1.3.5-2.3 0-1-.2-1.8-.5-2.3-.3-.5-.8-.8-1.4-.8-.3 0-.6.1-.8.2-.2.2-.4.4-.5.6l-.3.9c-.1.3-.1.7-.1 1.1v.5zM222 79c-.1-.2-.2-.4-.2-.7-.1-.3-.1-.5-.1-.7-.2.5-.6.9-1.1 1.2-.5.4-1.2.5-2.1.5-.6 0-1.2-.1-1.7-.3s-.9-.5-1.2-.8c-.3-.3-.6-.7-.7-1.2s-.3-1-.3-1.5c0-.6.1-1.1.3-1.6.2-.4.5-.8.9-1.1.4-.3.9-.6 1.4-.7s1.2-.3 1.9-.4l2.3-.4V71c0-.5-.1-.8-.4-1-.3-.2-.6-.3-1.1-.3-.7 0-1.3.1-1.8.4-.5.3-1 .6-1.4.9l-1.8-2.6c.2-.2.5-.4.9-.6l1.2-.6c.5-.2 1-.3 1.5-.4s1.2-.1 1.9-.1c1.7 0 3 .4 3.7 1.1s1.1 1.9 1.1 3.4v5.4c0 .3 0 .6.1.9s.1.5.1.7c.1.2.1.4.3.7H222zm-.6-5.2l-1.6.3c-.5.1-.9.3-1.2.5-.2.2-.4.5-.4.9 0 .3.1.6.3.8.2.2.5.3.9.3.5 0 1-.2 1.4-.6.4-.4.6-1 .6-1.8v-.4zM227.1 67.3h3.5l.3 1.6c.4-.6.9-1 1.5-1.4.6-.4 1.4-.6 2.2-.6 2.6 0 3.9 1.6 3.9 4.9V79h-3.9v-6.2c0-.9-.1-1.6-.4-1.9-.3-.4-.7-.6-1.3-.6-.3 0-.5 0-.8.1s-.4.3-.6.5-.3.6-.4 1c-.1.4-.1.9-.1 1.5V79h-3.9V67.3zM240.1 62.7h3.9v3.1h-3.9v-3.1zm0 4.6h3.9V79h-3.9V67.3zM249.2 74.1c.1.9.4 1.5.9 1.9.4.4.9.5 1.5.5.5 0 .9-.1 1.3-.3s.7-.5.9-1l2.8 1.6c-.6.9-1.3 1.5-2.3 2s-1.9.6-3 .6c-1 0-1.9-.2-2.6-.5-.8-.3-1.4-.7-1.9-1.3-.5-.6-.9-1.2-1.2-2-.3-.8-.4-1.6-.4-2.4 0-.9.1-1.7.4-2.5.3-.8.7-1.4 1.2-2 .5-.6 1.1-1 1.9-1.3s1.6-.5 2.5-.5c.9 0 1.7.2 2.4.5s1.3.7 1.8 1.3c.5.6.9 1.2 1.1 2s.4 1.7.4 2.7v.7h-7.7zm1.9-4.3c-1.1 0-1.7.7-1.9 2.1h3.8c0-.6-.1-1.1-.4-1.5s-.9-.6-1.5-.6zM259 75.1c.2.2.4.3.7.5s.5.3.9.5c.3.1.6.2 1 .3.3.1.7.1 1 .1.3 0 .6 0 .8-.1.3-.1.4-.3.4-.6s-.2-.5-.5-.7c-.3-.2-.7-.3-1.1-.4-.5-.1-.9-.3-1.5-.4s-1-.4-1.5-.6c-.5-.3-.8-.6-1.1-1.1-.3-.5-.5-1-.5-1.8 0-.7.1-1.2.4-1.7.3-.5.6-.9 1.1-1.2.5-.3 1-.5 1.6-.7.6-.2 1.2-.2 1.9-.2 1.1 0 2 .1 2.8.4.8.2 1.5.6 2.2 1l-1.8 2.6c-.2-.1-.4-.3-.6-.4-.2-.1-.5-.3-.8-.4l-.9-.3c-.3-.1-.6-.1-1-.1-.3 0-.5 0-.6.1-.2.1-.3.2-.3.5s.2.5.5.6c.3.2.7.3 1.1.4s.9.3 1.5.5c.5.2 1 .4 1.5.7.5.3.8.6 1.1 1.1.3.4.5 1 .5 1.7s-.1 1.3-.4 1.8c-.3.5-.7.9-1.2 1.3-.5.3-1 .6-1.6.7-.6.2-1.2.2-1.8.2-2.2 0-4-.6-5.4-1.7l1.6-2.6z"/><g><path class="copy-purpleFill" d="M23.5 86.9h3.9v16.2h-3.9V86.9zM29.2 86.8H33v3.1h-3.9v-3.1zm0 4.6H33v11.7h-3.9V91.4zM34.8 86.9h3.9v8.8l3.9-4.3h4.7l-4.6 4.4 4.6 7.3h-4.4l-2.6-4.9-1.5 1.5v3.4h-3.9V86.9z"/><path class="copy-purpleFill" d="M50.7 98.1c.1.9.4 1.5.9 1.9.4.4.9.5 1.5.5.5 0 .9-.1 1.3-.3s.7-.5.9-1l2.8 1.6c-.6.9-1.3 1.5-2.3 2-.9.4-1.9.6-3 .6-1 0-1.9-.2-2.6-.5-.8-.3-1.4-.7-1.9-1.3-.5-.6-.9-1.2-1.2-2s-.4-1.6-.4-2.4c0-.9.1-1.7.4-2.5.3-.8.7-1.4 1.2-2 .5-.6 1.1-1 1.9-1.3s1.6-.5 2.5-.5c.9 0 1.7.2 2.4.5s1.3.7 1.8 1.3c.5.6.9 1.2 1.1 2s.4 1.7.4 2.7v.7h-7.7zm1.9-4.2c-1.1 0-1.7.7-1.9 2.1h3.8c0-.6-.1-1.1-.4-1.5-.4-.4-.8-.6-1.5-.6zM64.7 104.2c.3.1.6.2.9.2.3.1.6.1.8.1.4 0 .6-.1.8-.2.2-.2.3-.4.4-.8l-4.2-12.1h4.2l2 7.9 2-7.9h4.2L71.7 103c-.2.6-.5 1.2-.7 1.8-.2.5-.5 1-.9 1.4s-.8.7-1.4.9-1.3.3-2.2.3h-1.1c-.2 0-.4 0-.6-.1-.2 0-.4-.1-.5-.1l.4-3zM81.4 103.5c-1 0-1.9-.2-2.6-.5-.7-.3-1.4-.7-1.9-1.3-.5-.6-.9-1.2-1.1-2-.2-.8-.4-1.6-.4-2.5s.1-1.7.4-2.5c.3-.8.6-1.4 1.1-2 .5-.6 1.1-1 1.8-1.3.7-.3 1.6-.5 2.6-.5s1.8.2 2.6.5 1.4.7 1.9 1.3c.5.6.9 1.2 1.1 2 .3.8.4 1.6.4 2.5s-.1 1.7-.4 2.5c-.3.8-.6 1.4-1.1 2-.5.6-1.1 1-1.9 1.3-.7.3-1.5.5-2.5.5zm.1-3c.6 0 1.1-.3 1.4-.9.3-.6.4-1.4.4-2.4s-.2-1.8-.5-2.4c-.3-.5-.8-.8-1.4-.8s-1.1.3-1.4.9c-.3.6-.5 1.4-.5 2.4s.2 1.8.5 2.4c.3.5.8.8 1.5.8zM88.5 91.4h3.9v6.4c0 .7.1 1.3.3 1.7.2.4.6.6 1.2.6s1.1-.2 1.4-.7c.3-.5.5-1.2.5-2.3v-5.7h3.9v11.7h-3.6v-1.7c-.3.6-.7 1.1-1.3 1.5s-1.3.5-2.2.5c-1.4 0-2.4-.4-3.1-1.2s-1-2-1-3.5v-7.3zM101.5 91.4h3.5l.3 2.2c.4-.7.8-1.3 1.5-1.8.6-.5 1.5-.7 2.6-.7V95c-.3-.1-.7-.1-1.2-.1-.3 0-.6 0-.9.1s-.6.2-.9.4c-.3.2-.5.5-.7.9-.2.4-.3 1-.3 1.7v5.2h-3.9V91.4zM111.2 99.2c.2.2.4.3.7.5s.5.3.9.5c.3.1.6.2 1 .3.3.1.7.1 1 .1.3 0 .6 0 .8-.1.3-.1.4-.3.4-.6s-.2-.5-.5-.7c-.3-.2-.7-.3-1.1-.4-.5-.1-.9-.3-1.5-.4s-1-.4-1.5-.6c-.5-.3-.8-.6-1.1-1.1s-.5-1-.5-1.8c0-.7.1-1.2.4-1.7s.6-.9 1.1-1.2c.5-.3 1-.5 1.6-.7.6-.2 1.2-.2 1.9-.2 1.1 0 2 .1 2.8.4.8.2 1.5.6 2.2 1l-1.8 2.6c-.2-.1-.4-.3-.6-.4-.2-.1-.5-.3-.8-.4l-.9-.3c-.3-.1-.6-.1-1-.1-.3 0-.5 0-.6.1-.2.1-.3.2-.3.5s.2.5.5.6c.3.2.7.3 1.1.4.5.1.9.3 1.5.5.5.2 1 .4 1.5.7.5.3.8.6 1.1 1.1.3.4.5 1 .5 1.7s-.1 1.3-.4 1.8-.7.9-1.2 1.3c-.5.3-1 .6-1.6.7-.6.2-1.2.2-1.8.2-2.2 0-4-.6-5.4-1.7l1.6-2.6zM132.6 103.1c-.1-.2-.2-.4-.2-.7-.1-.3-.1-.5-.1-.7-.2.5-.6.9-1.1 1.2s-1.2.5-2.1.5c-.6 0-1.2-.1-1.7-.3-.5-.2-.9-.5-1.2-.8-.3-.3-.6-.7-.7-1.2s-.3-1-.3-1.5c0-.6.1-1.1.3-1.6.2-.4.5-.8.9-1.1.4-.3.9-.6 1.4-.7.6-.2 1.2-.3 1.9-.4l2.3-.4v-.3c0-.5-.1-.8-.4-1-.3-.2-.6-.3-1.1-.3-.7 0-1.3.1-1.8.4-.5.3-1 .6-1.4.9l-1.8-2.6c.2-.2.5-.4.9-.6l1.2-.6c.5-.2 1-.3 1.5-.4s1.2-.1 1.9-.1c1.7 0 3 .4 3.7 1.1.7.7 1.1 1.9 1.1 3.4v5.4c0 .3 0 .6.1.9 0 .3.1.5.1.7.1.2.1.4.3.7h-3.7zm-.6-5.2l-1.6.3c-.5.1-.9.3-1.2.5-.2.2-.4.5-.4.9 0 .3.1.6.3.8.2.2.5.3.9.3.5 0 1-.2 1.4-.6.4-.4.6-1 .6-1.8v-.4zM137.7 91.4h3.5l.3 2.2c.4-.7.8-1.3 1.5-1.8.6-.5 1.5-.7 2.6-.7V95c-.3-.1-.7-.1-1.2-.1-.3 0-.6 0-.9.1s-.6.2-.9.4c-.3.2-.5.5-.7.9-.2.4-.3 1-.3 1.7v5.2h-3.9V91.4zM149.6 98.1c.1.9.4 1.5.9 1.9.4.4.9.5 1.5.5.5 0 .9-.1 1.3-.3s.7-.5.9-1l2.8 1.6c-.6.9-1.3 1.5-2.3 2s-1.9.6-3 .6c-1 0-1.9-.2-2.6-.5-.8-.3-1.4-.7-1.9-1.3-.5-.6-.9-1.2-1.2-2s-.4-1.6-.4-2.4c0-.9.1-1.7.4-2.5.3-.8.7-1.4 1.2-2 .5-.6 1.1-1 1.9-1.3s1.6-.5 2.5-.5c.9 0 1.7.2 2.4.5s1.3.7 1.8 1.3c.5.6.9 1.2 1.1 2s.4 1.7.4 2.7v.7h-7.7zm1.9-4.2c-1.1 0-1.7.7-1.9 2.1h3.8c0-.6-.1-1.1-.4-1.5s-.8-.6-1.5-.6zM164.4 99.2c.2.2.4.3.7.5s.5.3.9.5c.3.1.6.2 1 .3.3.1.7.1 1 .1.3 0 .6 0 .8-.1.3-.1.4-.3.4-.6s-.2-.5-.5-.7c-.3-.2-.7-.3-1.1-.4-.5-.1-.9-.3-1.5-.4s-1-.4-1.5-.6c-.5-.3-.8-.6-1.1-1.1-.3-.5-.5-1-.5-1.8 0-.7.1-1.2.4-1.7.3-.5.6-.9 1.1-1.2.5-.3 1-.5 1.6-.7.6-.2 1.2-.2 1.9-.2 1.1 0 2 .1 2.8.4.8.2 1.5.6 2.2 1l-1.8 2.6c-.2-.1-.4-.3-.6-.4-.2-.1-.5-.3-.8-.4l-.9-.3c-.3-.1-.6-.1-1-.1-.3 0-.5 0-.6.1-.2.1-.3.2-.3.5s.2.5.5.6c.3.2.7.3 1.1.4s.9.3 1.5.5c.5.2 1 .4 1.5.7.5.3.8.6 1.1 1.1.3.4.5 1 .5 1.7s-.1 1.3-.4 1.8c-.3.5-.7.9-1.2 1.3-.5.3-1 .6-1.6.7-.6.2-1.2.2-1.8.2-2.2 0-4-.6-5.4-1.7l1.6-2.6zM181.1 103.1c-.1-.2-.2-.4-.2-.7-.1-.3-.1-.5-.1-.7-.2.5-.6.9-1.1 1.2-.5.4-1.2.5-2.1.5-.6 0-1.2-.1-1.7-.3s-.9-.5-1.2-.8c-.3-.3-.6-.7-.7-1.2s-.3-1-.3-1.5c0-.6.1-1.1.3-1.6.2-.4.5-.8.9-1.1.4-.3.9-.6 1.4-.7s1.2-.3 1.9-.4l2.3-.4v-.3c0-.5-.1-.8-.4-1-.3-.2-.6-.3-1.1-.3-.7 0-1.3.1-1.8.4-.5.3-1 .6-1.4.9l-1.8-2.6c.2-.2.5-.4.9-.6l1.2-.6c.5-.2 1-.3 1.5-.4s1.2-.1 1.9-.1c1.7 0 3 .4 3.7 1.1s1.1 1.9 1.1 3.4v5.4c0 .3 0 .6.1.9s.1.5.1.7c.1.2.1.4.3.7h-3.7zm-.6-5.2l-1.6.3c-.5.1-.9.3-1.2.5-.2.2-.4.5-.4.9 0 .3.1.6.3.8.2.2.5.3.9.3.5 0 1-.2 1.4-.6.4-.4.6-1 .6-1.8v-.4zM184.8 91.4h4.3l1.9 8.1 1.9-8.1h4.1l-3.9 11.7h-4.5l-3.8-11.7zM197.7 86.8h3.9v3.1h-3.9v-3.1zm0 4.6h3.9v11.7h-3.9V91.4zM203.3 91.4h3.5l.3 1.6c.4-.6.9-1 1.5-1.4.6-.4 1.4-.6 2.2-.6 2.6 0 3.9 1.6 3.9 4.9v7.1h-3.9v-6.2c0-.9-.1-1.6-.4-1.9-.3-.4-.7-.6-1.3-.6-.3 0-.5 0-.8.1s-.4.3-.6.5-.3.6-.4 1c-.1.4-.1.9-.1 1.5v5.5h-3.9V91.4zM217.8 103c.4.4 1 .8 1.7 1.1.7.3 1.3.4 2 .4s1.2-.2 1.5-.5c.3-.3.4-.8.4-1.4v-1.1c-.3.4-.6.7-1.1 1-.5.3-1.1.4-1.9.4-.6 0-1.1-.1-1.6-.3-.5-.2-1-.5-1.5-1s-.8-1-1-1.8c-.3-.7-.4-1.6-.4-2.7 0-1 .1-1.8.3-2.6.2-.8.6-1.4 1-1.9s.9-.9 1.5-1.2c.6-.3 1.2-.4 1.9-.4s1.3.2 1.9.5c.5.3 1 .8 1.3 1.4l.5-1.6h3.1v11.1c0 .7-.1 1.4-.3 2-.2.6-.5 1.1-1 1.6-.5.4-1.1.8-1.8 1-.7.2-1.6.4-2.6.4-.7 0-1.3 0-1.9-.1-.6-.1-1.1-.2-1.6-.4s-.9-.3-1.3-.5-.7-.4-1-.6l1.9-2.8zm5.6-5.8c0-.4 0-.7-.1-1.1s-.1-.7-.3-.9c-.1-.3-.3-.5-.5-.7-.2-.2-.5-.3-.9-.3-.2 0-.5 0-.7.1-.2.1-.4.3-.6.5-.2.2-.3.5-.4.9s-.1.8-.1 1.4c0 1 .2 1.7.5 2.2s.8.7 1.4.7 1-.2 1.3-.7c.3-.5.4-1.1.4-2v-.1zM233.8 91.4h3.9v6.4c0 .7.1 1.3.3 1.7.2.4.6.6 1.2.6s1.1-.2 1.4-.7c.3-.5.5-1.2.5-2.3v-5.7h3.9v11.7h-3.6v-1.7c-.3.6-.7 1.1-1.3 1.5-.5.4-1.3.5-2.2.5-1.4 0-2.4-.4-3.1-1.2s-1-2-1-3.5v-7.3zM246.8 91.4h3.9v1.5c.3-.5.6-1 1.2-1.3.5-.4 1.2-.5 2-.5 1.3 0 2.4.5 3.2 1.5.8 1 1.2 2.5 1.2 4.6 0 1.2-.1 2.2-.4 3-.3.8-.7 1.4-1.1 1.9-.4.5-.9.8-1.5 1-.6.2-1.1.3-1.6.3-.6 0-1.2-.1-1.7-.3-.6-.2-1-.5-1.2-1v5.1h-3.9V91.4zm3.8 6c0 .4 0 .8.1 1.1.1.4.2.7.3.9.2.3.3.5.6.6.2.2.5.2.8.2.5 0 1-.2 1.3-.7.3-.5.5-1.3.5-2.3 0-1-.2-1.8-.5-2.3-.3-.5-.8-.8-1.4-.8-.3 0-.6.1-.8.2-.2.2-.4.4-.5.6l-.3.9c-.1.3-.1.7-.1 1.1v.5z"/></g><g><path class="copy-purpleFill" d="M24.4 118h-1.9v-2.5h.3c.6 0 1.1-.1 1.4-.3.3-.2.6-.5.8-.8.2-.3.3-.7.4-1.1l.3-1.2h2.4v3.4h2.4v2.5h-2.4v5.4c0 .4.1.6.2.9.1.2.4.3.9.3h.5c.2 0 .4-.1.6-.2l.3 2.7c-.4.2-.9.3-1.3.4-.4.1-.9.1-1.3.1-.7 0-1.3-.1-1.8-.3s-.9-.4-1.1-.8c-.3-.3-.5-.7-.6-1.2-.1-.5-.2-.9-.2-1.5V118zM36.8 127.5c-1 0-1.9-.2-2.6-.5-.7-.3-1.4-.7-1.9-1.3s-.9-1.2-1.1-2c-.2-.8-.4-1.6-.4-2.5s.1-1.7.4-2.5c.3-.8.6-1.4 1.1-2 .5-.6 1.1-1 1.8-1.3.7-.3 1.6-.5 2.6-.5s1.8.2 2.6.5 1.4.7 1.9 1.3c.5.6.9 1.2 1.1 2 .3.8.4 1.6.4 2.5s-.1 1.7-.4 2.5c-.3.8-.6 1.4-1.1 2-.5.6-1.1 1-1.9 1.3s-1.5.5-2.5.5zm.1-2.9c.6 0 1.1-.3 1.4-.9.3-.6.4-1.4.4-2.4s-.2-1.8-.5-2.4c-.3-.6-.8-.9-1.4-.9s-1.1.3-1.4.9c-.3.6-.5 1.4-.5 2.4s.2 1.8.5 2.4c.3.6.8.9 1.5.9zM51.3 118.9c-.3-.1-.7-.3-1-.4-.3-.2-.6-.4-.9-.7l-.6-.9c-.2-.3-.2-.7-.2-1.1 0-.8.2-1.4.5-1.9s.7-1 1.3-1.3c.5-.4 1.1-.6 1.8-.8.7-.2 1.3-.3 2-.3s1.3.1 2 .3c.7.2 1.2.4 1.8.8.5.4 1 .8 1.3 1.3.3.5.5 1.2.5 1.9 0 .8-.3 1.5-.8 2-.5.6-1.2.9-1.9 1.1.9.2 1.7.6 2.3 1.2s.9 1.4.9 2.5c0 .9-.2 1.7-.5 2.3-.4.6-.8 1.1-1.4 1.5-.6.4-1.2.7-1.9.9-.7.2-1.4.3-2.2.3s-1.5-.1-2.2-.3-1.4-.5-2-.9c-.6-.4-1-.9-1.4-1.6-.4-.6-.5-1.4-.5-2.3 0-1 .3-1.8.8-2.4.5-.6 1.3-1 2.3-1.2zm2.9 5.6c.6 0 1-.2 1.4-.6s.6-.9.6-1.6c0-.6-.2-1.2-.6-1.6-.4-.4-.9-.6-1.5-.6-.7 0-1.2.2-1.6.6-.3.4-.5.9-.5 1.6 0 .6.2 1.1.6 1.5s.9.7 1.6.7zm-1.7-8.5c0 .5.2 1 .5 1.4s.7.6 1.2.6.9-.2 1.2-.6c.3-.4.5-.8.5-1.4 0-.5-.2-1-.5-1.3-.3-.4-.7-.5-1.2-.5s-.9.2-1.2.5c-.4.3-.5.8-.5 1.3zM69 115.9c-.2-.5-.4-.9-.8-1.1-.4-.3-.8-.4-1.1-.4-.3 0-.5.1-.8.2-.3.1-.5.3-.8.6-.2.3-.4.7-.6 1.2-.1.5-.2 1.1-.2 1.9V118.6c.3-.4.7-.7 1.2-1.1.6-.3 1.3-.5 2.2-.5.7 0 1.4.1 2 .4.6.2 1.1.6 1.5 1s.7 1 1 1.6c.2.6.3 1.3.3 2.1 0 .7-.1 1.4-.4 2.1-.2.7-.6 1.3-1.1 1.8-.5.5-1.1.9-1.8 1.2-.7.3-1.6.5-2.5.5-.8 0-1.7-.1-2.4-.4s-1.5-.8-2-1.4c-.6-.6-1.1-1.4-1.4-2.3-.4-.9-.5-2-.5-3.3 0-1.6.2-3 .6-4.1.4-1.1.9-2 1.5-2.7.6-.7 1.3-1.2 2-1.4.7-.3 1.5-.4 2.2-.4.7 0 1.3.1 1.9.2.6.2 1.1.4 1.5.6.4.3.8.6 1.1.9s.6.7.7 1.1l-3.3 1.4zm-2.1 8.8c.6 0 1-.2 1.3-.7.3-.5.4-1.1.4-1.7 0-.7-.2-1.3-.5-1.8s-.7-.7-1.3-.7c-.6 0-1 .2-1.3.7-.3.5-.4 1.1-.4 1.8 0 .8.2 1.4.5 1.8s.8.6 1.3.6zM77.9 120.5c-.7 0-1.4-.1-1.9-.4-.6-.3-1-.6-1.4-1.1-.4-.5-.7-1-.9-1.6-.2-.6-.3-1.3-.3-2s.1-1.3.3-1.9c.2-.6.5-1.1.9-1.6s.9-.8 1.4-1c.6-.3 1.2-.4 1.9-.4.8 0 1.5.1 2 .4.6.3 1 .6 1.4 1s.6 1 .8 1.6c.2.6.3 1.2.3 1.9s-.1 1.3-.3 2c-.2.6-.4 1.2-.8 1.6s-.8.8-1.4 1.1-1.2.4-2 .4zm0-2.5c.2 0 .4-.1.5-.3l.3-.6c.1-.3.1-.5.2-.9v-.9-.9c0-.3-.1-.6-.1-.8l-.3-.6c-.1-.2-.3-.2-.6-.2-.2 0-.4.1-.6.2l-.3.6c-.1.2-.1.5-.1.8v1.8c0 .3.1.6.1.9.1.3.2.5.3.6.2.2.4.3.6.3zm8.8-7.7l2.1.9-8 16.3-2.1-.9 8-16.3zm2.8 17.1c-.7 0-1.4-.1-1.9-.4-.6-.3-1-.6-1.4-1.1-.4-.5-.7-1-.9-1.6-.2-.6-.3-1.3-.3-2s.1-1.3.3-1.9c.2-.6.5-1.1.9-1.6.4-.4.9-.8 1.4-1 .6-.3 1.2-.4 1.9-.4.8 0 1.5.1 2 .4.6.3 1 .6 1.4 1s.6 1 .8 1.6c.2.6.3 1.2.3 1.9s-.1 1.3-.3 2c-.2.6-.4 1.2-.8 1.6-.4.5-.8.8-1.4 1.1-.6.3-1.2.4-2 .4zm0-2.4c.2 0 .4-.1.5-.3l.3-.6c.1-.3.1-.5.2-.9s0-.6 0-.9v-.9c0-.3-.1-.6-.1-.8s-.2-.4-.3-.6c-.1-.2-.3-.2-.6-.2-.2 0-.4.1-.6.2l-.3.6c-.1.2-.1.5-.1.8v1.8c0 .3.1.6.1.9.1.3.2.5.3.6.2.2.4.3.6.3zM99.9 115.5h3.5l.3 1.6c.3-.6.8-1.1 1.3-1.5s1.2-.5 2-.5c.9 0 1.7.2 2.2.6.5.4.9.9 1.1 1.5.1-.2.3-.5.5-.7.2-.3.4-.5.7-.7.3-.2.6-.4 1-.5.4-.1.9-.2 1.4-.2.8 0 1.5.1 2 .4.5.3.9.6 1.2 1.1.3.5.5 1 .6 1.6.1.6.1 1.2.1 1.8v7.2H114v-6.1c0-.9-.1-1.5-.3-1.9-.2-.4-.6-.6-1.2-.6-.2 0-.4 0-.6.1-.2.1-.4.2-.5.4-.2.2-.3.5-.4.9-.1.4-.1.9-.1 1.5v5.9H107V121c0-.8-.1-1.4-.3-1.9-.2-.4-.6-.6-1.2-.6-.2 0-.4 0-.6.1-.2.1-.4.2-.5.4-.2.2-.3.5-.4.9-.1.4-.2.9-.2 1.6v5.6h-3.9v-11.6zM124.9 127.5c-1 0-1.9-.2-2.6-.5-.7-.3-1.4-.7-1.9-1.3s-.9-1.2-1.1-2c-.2-.8-.4-1.6-.4-2.5s.1-1.7.4-2.5c.3-.8.6-1.4 1.1-2 .5-.6 1.1-1 1.8-1.3.7-.3 1.6-.5 2.6-.5s1.8.2 2.6.5 1.4.7 1.9 1.3c.5.6.9 1.2 1.1 2 .3.8.4 1.6.4 2.5s-.1 1.7-.4 2.5c-.3.8-.6 1.4-1.1 2-.5.6-1.1 1-1.9 1.3s-1.5.5-2.5.5zm.1-2.9c.6 0 1.1-.3 1.4-.9.3-.6.4-1.4.4-2.4s-.2-1.8-.5-2.4c-.3-.6-.8-.9-1.4-.9s-1.1.3-1.4.9c-.3.6-.5 1.4-.5 2.4s.2 1.8.5 2.4c.3.6.8.9 1.5.9zM132.1 115.5h3.5l.3 2.2c.4-.7.8-1.3 1.5-1.8.6-.5 1.5-.7 2.6-.7v3.9c-.3-.1-.7-.1-1.2-.1-.3 0-.6 0-.9.1s-.6.2-.9.4c-.3.2-.5.5-.7.9-.2.4-.3 1-.3 1.7v5.2h-3.9v-11.8zM144 122.2c.1.9.4 1.5.9 1.9.4.4.9.5 1.5.5.5 0 .9-.1 1.3-.3s.7-.5.9-1l2.8 1.6c-.6.9-1.3 1.5-2.3 2-.9.4-1.9.6-3 .6-1 0-1.9-.2-2.6-.5-.8-.3-1.4-.7-1.9-1.3-.5-.6-.9-1.2-1.2-2s-.4-1.6-.4-2.4c0-.9.1-1.7.4-2.5.3-.8.7-1.4 1.2-2 .5-.6 1.1-1 1.9-1.3s1.6-.5 2.5-.5c.9 0 1.7.2 2.4.5s1.3.7 1.8 1.3c.5.6.8 1.2 1.1 2 .3.8.4 1.7.4 2.7v.7H144zm1.9-4.2c-1.1 0-1.7.7-1.9 2.1h3.8c0-.6-.1-1.1-.4-1.5-.4-.4-.9-.6-1.5-.6zM152.7 122.9h4.3v4.3h-4.3v-4.3z"/></g><g><path class="copy-grayFill" d="M23.3 139.8h3.6c1.8 0 3.1.4 4.1 1.2.9.8 1.4 2.1 1.4 3.9 0 1.7-.5 3-1.4 3.9-.9.9-2.2 1.3-3.9 1.3h-3.7v-10.3zm3.6 8.8c.6 0 1.1-.1 1.5-.3s.7-.5.9-.8c.2-.3.4-.7.5-1.1.1-.4.1-.9.1-1.4 0-.5 0-.9-.1-1.3s-.3-.8-.5-1.1c-.2-.3-.6-.6-1-.8-.4-.2-.9-.3-1.5-.3h-1.4v7.1h1.5zM36.5 150.4c-.6 0-1.1-.1-1.6-.3-.5-.2-.8-.5-1.1-.8-.3-.4-.5-.8-.7-1.2-.2-.5-.2-1-.2-1.6 0-.6.1-1.1.2-1.6.2-.5.4-.9.7-1.2.3-.3.7-.6 1.1-.8.4-.2 1-.3 1.6-.3s1.1.1 1.6.3c.5.2.8.5 1.1.8.3.4.5.8.7 1.2.2.5.2 1 .2 1.6 0 .6-.1 1.1-.2 1.6-.2.5-.4.9-.7 1.2-.3.4-.7.6-1.1.8-.5.2-1 .3-1.6.3zm.1-1.5c.5 0 .9-.2 1.1-.7s.4-1 .4-1.7-.1-1.3-.4-1.7-.6-.7-1.1-.7c-.5 0-.9.2-1.2.7s-.4 1-.4 1.7.1 1.3.4 1.7.6.7 1.2.7zM40.3 142.8h2.2l1.3 5.5 1.1-5.5H47l1.1 5.5 1.2-5.5h2.1l-2.3 7.4H47l-1.1-4.6-1.1 4.6h-2.2l-2.3-7.4zM52.2 142.8H54l.2 1.2c.2-.4.5-.7.9-1 .4-.3.9-.4 1.4-.4.8 0 1.4.3 1.8.8s.6 1.2.6 2.2v4.6h-2v-4.1c0-.6-.1-1.1-.3-1.3-.2-.3-.5-.4-.9-.4s-.8.2-1 .5c-.3.3-.4.9-.4 1.7v3.6h-2v-7.4zM60.2 139.8h2v10.4h-2v-10.4zM66.8 150.4c-.6 0-1.1-.1-1.6-.3-.5-.2-.8-.5-1.1-.8-.3-.4-.5-.8-.7-1.2-.2-.5-.2-1-.2-1.6 0-.6.1-1.1.2-1.6.2-.5.4-.9.7-1.2.3-.3.7-.6 1.1-.8.4-.2 1-.3 1.6-.3s1.1.1 1.6.3c.5.2.8.5 1.1.8.3.4.5.8.7 1.2.2.5.2 1 .2 1.6 0 .6-.1 1.1-.2 1.6-.2.5-.4.9-.7 1.2-.3.4-.7.6-1.1.8-.5.2-1 .3-1.6.3zm0-1.5c.5 0 .9-.2 1.1-.7s.4-1 .4-1.7-.1-1.3-.4-1.7-.6-.7-1.1-.7c-.5 0-.9.2-1.2.7s-.4 1-.4 1.7.1 1.3.4 1.7.7.7 1.2.7zM75.8 150.2c-.1-.1-.1-.3-.1-.5s-.1-.4-.1-.6c-.2.4-.4.7-.8.9-.4.2-.8.4-1.4.4-.8 0-1.4-.2-1.8-.7-.4-.4-.6-1-.6-1.7 0-.4.1-.7.2-1s.3-.5.6-.7c.2-.2.5-.3.9-.4.3-.1.7-.2 1.1-.3l1.6-.2v-.3c0-.4-.1-.7-.3-.9-.2-.1-.5-.2-.8-.2-.5 0-.9.1-1.3.3s-.6.4-.9.7l-1-1.3c.3-.3.7-.6 1.3-.8.6-.2 1.2-.4 2.1-.4 1 0 1.8.2 2.2.7.5.5.7 1.1.7 2.1v4c0 .1 0 .3.1.4 0 .1.1.3.1.4h-1.8zm-.4-3.5l-1.3.2c-.4.1-.8.2-1 .4-.2.2-.3.4-.3.7s.1.5.3.7c.2.2.4.3.7.3.4 0 .8-.2 1.1-.5.3-.3.4-.8.4-1.3v-.5zM83.4 149c-.2.4-.5.8-.8 1s-.8.4-1.3.4c-.4 0-.8-.1-1.2-.3-.4-.2-.7-.4-.9-.8-.3-.3-.5-.7-.6-1.2-.1-.5-.2-1-.2-1.6 0-.7.1-1.3.2-1.7.2-.5.4-.9.7-1.2s.6-.5.9-.7c.4-.1.7-.2 1.1-.2.5 0 .9.1 1.3.3.3.2.6.5.7.8v-3.9h2v10.4h-1.9V149zm-.1-2.8c0-.3 0-.5-.1-.7s-.1-.5-.2-.6c-.1-.2-.3-.3-.4-.5-.2-.1-.4-.2-.7-.2-.5 0-.9.2-1.1.6-.2.4-.4.9-.4 1.6 0 .7.1 1.3.4 1.7.3.4.6.6 1.1.6.2 0 .5-.1.6-.2.2-.1.3-.3.4-.5s.2-.4.2-.7.1-.6.1-.8v-.3zM90.3 144.1h-1.2v-1.3h.2c.3 0 .6-.1.8-.2.2-.1.4-.3.5-.4s.2-.4.3-.7.1-.5.2-.8h1.2v2.1h1.6v1.3h-1.6v3.9c0 .3.1.5.2.7.1.2.3.2.6.2h.3c.1 0 .2-.1.4-.1l.1 1.4c-.2.1-.5.2-.7.2-.2 0-.5.1-.8.1-.4 0-.8-.1-1-.2-.3-.1-.5-.3-.6-.5-.2-.2-.3-.4-.3-.7-.1-.3-.1-.6-.1-.9v-4.1zM94.7 139.8h2v4.1c.2-.4.5-.7.8-1s.9-.4 1.5-.4c.8 0 1.4.3 1.8.8.4.5.6 1.3.6 2.2v4.6h-2v-4.2c0-.5-.1-.9-.3-1.2-.2-.3-.5-.4-.9-.4s-.8.2-1.1.5c-.3.4-.4.9-.4 1.6v3.7h-2v-10.3zM104.3 147c.1.7.3 1.2.6 1.5.3.3.7.5 1.2.5.7 0 1.2-.3 1.6-1l1.5.8c-.3.5-.8.9-1.3 1.2s-1.2.4-1.9.4c-.6 0-1.1-.1-1.6-.3-.5-.2-.9-.5-1.2-.8-.3-.3-.6-.8-.7-1.2s-.2-1-.2-1.5c0-.6.1-1.1.2-1.6.2-.5.4-.9.7-1.2.3-.4.7-.6 1.1-.8.4-.2 1-.3 1.5-.3.6 0 1.1.1 1.5.3.4.2.8.5 1.1.8.3.3.5.8.7 1.2.1.5.2 1 .2 1.6v.4h-5zm1.6-2.9c-.5 0-.8.2-1.1.5s-.4.7-.5 1.3h3c0-.2 0-.5-.1-.7-.1-.2-.1-.4-.3-.6-.1-.2-.3-.3-.4-.4-.2-.1-.4-.1-.6-.1zM119.9 148.6c-.3.6-.8 1.1-1.3 1.4-.5.3-1.2.4-1.9.4-.6 0-1.2-.1-1.6-.3-.5-.2-.8-.5-1.1-.8-.3-.4-.5-.8-.7-1.2-.1-.5-.2-1-.2-1.5 0-.6.1-1.1.2-1.6s.4-.9.7-1.2c.3-.3.7-.6 1.1-.8s1-.3 1.5-.3c.8 0 1.4.2 1.9.5s.9.8 1.3 1.4l-1.7.8c-.2-.4-.4-.7-.6-.9-.2-.2-.5-.3-.9-.3-.3 0-.5.1-.7.2-.2.1-.4.3-.5.5-.1.2-.2.4-.3.7-.1.3-.1.6-.1.9 0 .3 0 .6.1.9.1.3.1.6.3.8s.3.4.5.6c.2.2.5.2.8.2.4 0 .7-.1 1-.3s.4-.5.6-.9l1.6.8zM125 150.2c-.1-.1-.1-.3-.1-.5s-.1-.4-.1-.6c-.2.4-.4.7-.8.9-.4.2-.8.4-1.4.4-.8 0-1.4-.2-1.8-.7-.4-.4-.6-1-.6-1.7 0-.4.1-.7.2-1s.3-.5.6-.7c.2-.2.5-.3.9-.4.3-.1.7-.2 1.1-.3l1.6-.2v-.3c0-.4-.1-.7-.3-.9-.2-.1-.5-.2-.8-.2-.5 0-.9.1-1.3.3s-.6.4-.9.7l-1-1.3c.3-.3.7-.6 1.3-.8.6-.2 1.2-.4 2.1-.4 1 0 1.8.2 2.2.7.5.5.7 1.1.7 2.1v4c0 .1 0 .3.1.4 0 .1.1.3.1.4H125zm-.3-3.5l-1.3.2c-.4.1-.8.2-1 .4-.2.2-.3.4-.3.7s.1.5.3.7c.2.2.4.3.7.3.4 0 .8-.2 1.1-.5.3-.3.4-.8.4-1.3v-.5zM128.6 148c.1.1.3.2.4.4.2.1.3.2.5.3.2.1.4.2.6.2.2.1.4.1.7.1.3 0 .5-.1.7-.2.2-.1.3-.3.3-.6 0-.2-.1-.4-.3-.5-.2-.1-.4-.2-.7-.3-.3-.1-.6-.2-1-.3-.3-.1-.7-.2-1-.4-.3-.2-.5-.4-.7-.7s-.3-.6-.3-1.1c0-.4.1-.7.2-1 .2-.3.4-.5.7-.7.3-.2.6-.3.9-.4s.7-.1 1.1-.1c.6 0 1.2.1 1.6.2.5.2.9.4 1.3.7l-.9 1.3c-.1-.1-.2-.2-.4-.3-.2-.1-.3-.2-.5-.2-.2-.1-.4-.1-.6-.2-.2 0-.4-.1-.6-.1-.2 0-.4 0-.6.1-.2.1-.3.3-.3.5s.1.4.3.5c.2.1.4.2.7.3.3.1.6.2 1 .3.3.1.7.2 1 .4.3.2.5.4.7.7s.3.6.3 1.1c0 .4-.1.8-.3 1.1-.2.3-.4.6-.7.8-.3.2-.6.4-1 .5-.4.1-.7.1-1.1.1-1.3 0-2.4-.4-3.3-1.1l1.3-1.4zM136.5 147c.1.7.3 1.2.6 1.5.3.3.7.5 1.2.5.7 0 1.2-.3 1.6-1l1.5.8c-.3.5-.8.9-1.3 1.2s-1.2.4-1.9.4c-.6 0-1.1-.1-1.6-.3-.5-.2-.9-.5-1.2-.8-.3-.3-.6-.8-.7-1.2s-.2-1-.2-1.5c0-.6.1-1.1.2-1.6.2-.5.4-.9.7-1.2.3-.4.7-.6 1.1-.8.4-.2 1-.3 1.5-.3.6 0 1.1.1 1.5.3.4.2.8.5 1.1.8.3.3.5.8.7 1.2.1.5.2 1 .2 1.6v.4h-5zm1.5-2.9c-.5 0-.8.2-1.1.5s-.4.7-.5 1.3h3c0-.2 0-.5-.1-.7-.1-.2-.1-.4-.3-.6-.1-.2-.3-.3-.4-.4-.1-.1-.4-.1-.6-.1zM146 148c.1.1.3.2.4.4.2.1.3.2.5.3.2.1.4.2.6.2.2.1.4.1.7.1.3 0 .5-.1.7-.2.2-.1.3-.3.3-.6 0-.2-.1-.4-.3-.5-.2-.1-.4-.2-.7-.3-.3-.1-.6-.2-1-.3-.3-.1-.7-.2-1-.4-.3-.2-.5-.4-.7-.7s-.3-.6-.3-1.1c0-.4.1-.7.2-1 .2-.3.4-.5.7-.7.3-.2.6-.3.9-.4s.7-.1 1.1-.1c.6 0 1.2.1 1.6.2.5.2.9.4 1.3.7l-.9 1.3c-.1-.1-.2-.2-.4-.3-.2-.1-.3-.2-.5-.2-.2-.1-.4-.1-.6-.2-.2 0-.4-.1-.6-.1-.2 0-.4 0-.6.1-.2.1-.3.3-.3.5s.1.4.3.5c.2.1.4.2.7.3.3.1.6.2 1 .3.3.1.7.2 1 .4.3.2.5.4.7.7s.3.6.3 1.1c0 .4-.1.8-.3 1.1-.2.3-.4.6-.7.8-.3.2-.6.4-1 .5-.4.1-.7.1-1.1.1-1.3 0-2.4-.4-3.3-1.1l1.3-1.4zM152.7 144.1h-1.2v-1.3h.2c.3 0 .6-.1.8-.2.2-.1.4-.3.5-.4.1-.2.2-.4.3-.7.1-.3.1-.5.2-.8h1.2v2.1h1.6v1.3h-1.6v3.9c0 .3.1.5.2.7.1.2.3.2.6.2h.3c.1 0 .2-.1.4-.1l.1 1.4c-.2.1-.5.2-.7.2-.2 0-.5.1-.8.1-.4 0-.8-.1-1-.2-.3-.1-.5-.3-.6-.5-.2-.2-.3-.4-.3-.7-.1-.3-.1-.6-.1-.9v-4.1zM157 142.8h2v4.2c0 1.1.4 1.6 1.2 1.6.5 0 .8-.2 1.1-.6.3-.4.4-.9.4-1.6v-3.7h2v7.4h-1.9v-1.2c-.2.4-.5.8-.8 1s-.8.4-1.5.4c-.9 0-1.5-.2-1.9-.7s-.6-1.2-.6-2.1v-4.7zM169.7 149c-.2.4-.5.8-.8 1-.3.2-.8.4-1.3.4-.4 0-.8-.1-1.2-.3-.4-.2-.7-.4-.9-.8-.3-.3-.5-.7-.6-1.2-.1-.5-.2-1-.2-1.6 0-.7.1-1.3.2-1.7s.4-.9.7-1.2.6-.5.9-.7c.4-.1.7-.2 1.1-.2.5 0 .9.1 1.3.3.3.2.6.5.7.8v-3.9h2v10.4h-1.9V149zm-.1-2.8c0-.3 0-.5-.1-.7-.1-.2-.1-.5-.2-.6-.1-.2-.3-.3-.4-.5-.2-.1-.4-.2-.7-.2-.5 0-.9.2-1.1.6-.2.4-.4.9-.4 1.6 0 .7.1 1.3.4 1.7.3.4.6.6 1.1.6.2 0 .5-.1.6-.2.2-.1.3-.3.4-.5.1-.2.2-.4.2-.7.1-.3.1-.6.1-.8v-.3zM173 151.2c.2 0 .3.1.5.1s.3.1.5.1c.3 0 .5-.1.6-.2.1-.1.3-.4.4-.8l-2.6-7.6h2.1l1.5 5.4 1.5-5.4h2.1l-2.5 7.1c-.2.5-.3.9-.5 1.3-.1.4-.3.7-.5.9s-.5.4-.8.6c-.3.1-.7.2-1.3.2h-1.1c-.1 0-.2 0-.3-.1l.4-1.6zM179.5 147.9h2.2v2.2h-2.2v-2.2z"/></g></svg>