<?xml version="1.0" encoding="utf-8"?>
<!-- Generator: Adobe Illustrator 22.1.0, SVG Export Plug-In . SVG Version: 6.00 Build 0)  -->
<svg version="1.1" id="Layer_1" xmlns="http://www.w3.org/2000/svg" xmlns:xlink="http://www.w3.org/1999/xlink" x="0px" y="0px"
	 viewBox="0 0 728 90" style="enable-background:new 0 0 728 90;" xml:space="preserve">
<style type="text/css">
	.st0{fill:#662868;}
</style>
<g>
	<path class="st0" d="M189.6,26.5h-4.8v-3.3h13.9v3.3h-4.8v13.7h-4.3V26.5z"/>
	<path class="st0" d="M203.6,40.6c-1,0-1.9-0.2-2.7-0.5s-1.4-0.8-1.9-1.4c-0.5-0.6-0.9-1.3-1.2-2c-0.3-0.8-0.4-1.6-0.4-2.6
		s0.1-1.8,0.4-2.6s0.7-1.5,1.2-2.1s1.2-1,1.9-1.4c0.8-0.3,1.7-0.5,2.7-0.5s1.9,0.2,2.7,0.5c0.8,0.3,1.4,0.8,1.9,1.4s0.9,1.3,1.2,2.1
		c0.3,0.8,0.4,1.7,0.4,2.6s-0.1,1.8-0.4,2.6c-0.3,0.8-0.7,1.5-1.2,2c-0.5,0.6-1.2,1-1.9,1.4S204.6,40.6,203.6,40.6z M203.7,37.5
		c0.7,0,1.2-0.3,1.5-0.9c0.3-0.6,0.4-1.4,0.4-2.5s-0.2-1.9-0.5-2.5c-0.3-0.6-0.8-0.9-1.5-0.9s-1.2,0.3-1.5,0.9
		c-0.3,0.6-0.5,1.5-0.5,2.5s0.2,1.9,0.5,2.5C202.4,37.2,202.9,37.5,203.7,37.5z"/>
	<path class="st0" d="M218.6,38.5c-0.3,0.6-0.7,1.1-1.3,1.4c-0.5,0.3-1.2,0.5-2,0.5c-0.7,0-1.4-0.1-2-0.4c-0.6-0.3-1.1-0.7-1.5-1.2
		c-0.4-0.5-0.8-1.2-1-2c-0.2-0.8-0.4-1.7-0.4-2.8c0-1.2,0.1-2.2,0.4-3c0.3-0.8,0.7-1.4,1.1-1.9c0.5-0.5,1-0.8,1.6-1.1
		c0.6-0.2,1.2-0.3,1.7-0.3c0.8,0,1.4,0.1,1.9,0.4c0.5,0.3,0.9,0.7,1.1,1.1v-6h4.1v16.9h-3.8V38.5z M218.4,33.8c0-0.4,0-0.8-0.1-1.1
		s-0.2-0.7-0.3-0.9c-0.1-0.3-0.3-0.5-0.6-0.7c-0.2-0.2-0.5-0.2-0.9-0.2c-0.6,0-1.1,0.3-1.4,0.8s-0.5,1.3-0.5,2.2
		c0,1.1,0.2,1.9,0.5,2.4c0.4,0.6,0.8,0.9,1.4,0.9c0.3,0,0.6-0.1,0.8-0.3c0.2-0.2,0.4-0.4,0.6-0.7s0.2-0.6,0.3-1
		c0.1-0.4,0.1-0.8,0.1-1.3V33.8z"/>
	<path class="st0" d="M231.6,40.2c-0.1-0.2-0.2-0.4-0.2-0.7c-0.1-0.3-0.1-0.5-0.1-0.8c-0.2,0.5-0.6,0.9-1.1,1.3
		c-0.5,0.4-1.3,0.6-2.2,0.6c-0.7,0-1.2-0.1-1.7-0.3c-0.5-0.2-0.9-0.5-1.3-0.8c-0.3-0.4-0.6-0.8-0.8-1.2c-0.2-0.5-0.3-1-0.3-1.6
		c0-0.6,0.1-1.2,0.3-1.6s0.5-0.8,0.9-1.2c0.4-0.3,0.9-0.6,1.5-0.8c0.6-0.2,1.2-0.3,1.9-0.5l2.4-0.4V32c0-0.5-0.1-0.9-0.4-1
		c-0.3-0.2-0.6-0.3-1.1-0.3c-0.8,0-1.4,0.1-1.9,0.4c-0.5,0.3-1,0.6-1.4,1l-1.9-2.7c0.3-0.2,0.6-0.4,0.9-0.6s0.8-0.4,1.3-0.6
		s1-0.3,1.6-0.4c0.6-0.1,1.2-0.2,1.9-0.2c1.8,0,3.1,0.4,3.9,1.2s1.2,1.9,1.2,3.5v4.3c0,0.5,0,0.9,0,1.3c0,0.3,0,0.6,0.1,0.9
		c0,0.3,0.1,0.5,0.2,0.7c0.1,0.2,0.2,0.4,0.3,0.7H231.6z M231,34.8l-1.7,0.3c-0.6,0.1-1,0.3-1.2,0.5c-0.3,0.2-0.4,0.5-0.4,0.9
		c0,0.4,0.1,0.6,0.3,0.9c0.2,0.2,0.5,0.3,0.9,0.3c0.6,0,1-0.2,1.4-0.6c0.4-0.4,0.6-1.1,0.6-1.9V34.8z"/>
	<path class="st0" d="M237.1,41.4c0.3,0.1,0.6,0.2,0.9,0.2c0.3,0.1,0.6,0.1,0.8,0.1c0.4,0,0.7-0.1,0.9-0.3c0.2-0.2,0.4-0.5,0.5-0.9
		L235.7,28h4.3l2.1,8.2l2.1-8.2h4.3l-4.2,12.1c-0.2,0.7-0.5,1.3-0.7,1.8c-0.2,0.6-0.6,1-0.9,1.5c-0.4,0.4-0.9,0.7-1.5,1
		c-0.6,0.2-1.4,0.3-2.3,0.3c-0.1,0-0.3,0-0.5,0c-0.2,0-0.4,0-0.7,0s-0.5,0-0.7-0.1c-0.2,0-0.4-0.1-0.5-0.1L237.1,41.4z"/>
	<path class="st0" d="M249.7,30.7c0.4-0.2,0.8-0.4,1-0.6c0.3-0.2,0.5-0.4,0.6-0.6c0.2-0.2,0.3-0.5,0.3-0.7c0-0.3,0.1-0.5,0.1-0.8
		v-0.4h-2v-4.2h4.4v4.2c0,0.8-0.1,1.4-0.2,1.9c-0.1,0.5-0.4,1-0.7,1.4c-0.3,0.4-0.7,0.7-1.1,1c-0.4,0.3-1,0.5-1.6,0.8L249.7,30.7z"
		/>
	<path class="st0" d="M256.4,36.1c0.2,0.2,0.4,0.4,0.7,0.5c0.3,0.2,0.6,0.3,0.9,0.5c0.3,0.1,0.7,0.3,1,0.3c0.4,0.1,0.7,0.1,1.1,0.1
		c0.3,0,0.6,0,0.9-0.1c0.3-0.1,0.4-0.3,0.4-0.6c0-0.3-0.2-0.5-0.5-0.7c-0.3-0.2-0.7-0.3-1.2-0.5c-0.5-0.1-1-0.3-1.5-0.4
		c-0.6-0.2-1.1-0.4-1.5-0.7c-0.5-0.3-0.9-0.7-1.2-1.1c-0.3-0.5-0.5-1.1-0.5-1.9c0-0.7,0.1-1.3,0.4-1.8c0.3-0.5,0.7-0.9,1.2-1.3
		c0.5-0.3,1-0.6,1.7-0.7c0.6-0.2,1.3-0.2,1.9-0.2c1.1,0,2.1,0.1,2.9,0.4s1.6,0.6,2.3,1.1l-1.8,2.7c-0.2-0.1-0.4-0.3-0.6-0.4
		c-0.3-0.1-0.5-0.3-0.9-0.4s-0.6-0.2-1-0.3c-0.3-0.1-0.7-0.1-1-0.1c-0.3,0-0.5,0-0.7,0.1c-0.2,0.1-0.3,0.3-0.3,0.5
		c0,0.3,0.2,0.5,0.5,0.6c0.3,0.2,0.7,0.3,1.2,0.5c0.5,0.2,1,0.3,1.5,0.5c0.6,0.2,1.1,0.4,1.5,0.7c0.5,0.3,0.9,0.7,1.2,1.1
		c0.3,0.5,0.5,1,0.5,1.8s-0.2,1.3-0.5,1.8c-0.3,0.5-0.7,1-1.2,1.3c-0.5,0.3-1.1,0.6-1.7,0.8s-1.2,0.3-1.8,0.3
		c-2.3,0-4.2-0.6-5.7-1.7L256.4,36.1z"/>
	<path class="st0" d="M271.5,23.2h4v16.9h-4V23.2z"/>
	<path class="st0" d="M281,35c0.1,0.9,0.4,1.6,0.9,2c0.5,0.4,1,0.6,1.6,0.6c0.5,0,1-0.1,1.3-0.3c0.4-0.2,0.7-0.6,1-1l3,1.7
		c-0.6,0.9-1.4,1.6-2.4,2c-1,0.4-2,0.6-3.1,0.6c-1,0-2-0.2-2.8-0.5c-0.8-0.3-1.5-0.8-2-1.4c-0.5-0.6-1-1.3-1.2-2.1
		c-0.3-0.8-0.4-1.6-0.4-2.6c0-0.9,0.1-1.8,0.4-2.6c0.3-0.8,0.7-1.5,1.2-2.1c0.5-0.6,1.2-1,2-1.4c0.8-0.3,1.6-0.5,2.6-0.5
		c0.9,0,1.8,0.2,2.5,0.5c0.7,0.3,1.4,0.8,1.9,1.4c0.5,0.6,0.9,1.3,1.2,2.1c0.3,0.8,0.4,1.7,0.4,2.8c0,0.2,0,0.4,0,0.5
		c0,0.1,0,0.2,0,0.2H281z M283,30.6c-1.2,0-1.8,0.7-2,2.2h3.9c0-0.6-0.2-1.1-0.5-1.6C284.2,30.8,283.7,30.6,283,30.6z"/>
	<path class="st0" d="M297.4,40.2c-0.1-0.2-0.2-0.4-0.2-0.7c-0.1-0.3-0.1-0.5-0.1-0.8c-0.2,0.5-0.6,0.9-1.1,1.3
		c-0.5,0.4-1.3,0.6-2.2,0.6c-0.7,0-1.2-0.1-1.7-0.3c-0.5-0.2-0.9-0.5-1.3-0.8c-0.3-0.4-0.6-0.8-0.8-1.2c-0.2-0.5-0.3-1-0.3-1.6
		c0-0.6,0.1-1.2,0.3-1.6s0.5-0.8,0.9-1.2c0.4-0.3,0.9-0.6,1.5-0.8c0.6-0.2,1.2-0.3,1.9-0.5l2.4-0.4V32c0-0.5-0.1-0.9-0.4-1
		c-0.3-0.2-0.6-0.3-1.1-0.3c-0.8,0-1.4,0.1-1.9,0.4c-0.5,0.3-1,0.6-1.4,1l-1.9-2.7c0.3-0.2,0.6-0.4,0.9-0.6s0.8-0.4,1.3-0.6
		s1-0.3,1.6-0.4c0.6-0.1,1.2-0.2,1.9-0.2c1.8,0,3.1,0.4,3.9,1.2s1.2,1.9,1.2,3.5v4.3c0,0.5,0,0.9,0,1.3c0,0.3,0,0.6,0.1,0.9
		c0,0.3,0.1,0.5,0.2,0.7c0.1,0.2,0.2,0.4,0.3,0.7H297.4z M296.7,34.8l-1.7,0.3c-0.6,0.1-1,0.3-1.2,0.5c-0.3,0.2-0.4,0.5-0.4,0.9
		c0,0.4,0.1,0.6,0.3,0.9c0.2,0.2,0.5,0.3,0.9,0.3c0.6,0,1-0.2,1.4-0.6c0.4-0.4,0.6-1.1,0.6-1.9V34.8z"/>
	<path class="st0" d="M310.1,38.5c-0.3,0.6-0.7,1.1-1.3,1.4c-0.5,0.3-1.2,0.5-2,0.5c-0.7,0-1.4-0.1-2-0.4c-0.6-0.3-1.1-0.7-1.5-1.2
		c-0.4-0.5-0.8-1.2-1-2c-0.2-0.8-0.4-1.7-0.4-2.8c0-1.2,0.1-2.2,0.4-3c0.3-0.8,0.7-1.4,1.1-1.9c0.5-0.5,1-0.8,1.6-1.1
		c0.6-0.2,1.2-0.3,1.7-0.3c0.8,0,1.4,0.1,1.9,0.4c0.5,0.3,0.9,0.7,1.1,1.1v-6h4.1v16.9h-3.8V38.5z M309.8,33.8c0-0.4,0-0.8-0.1-1.1
		s-0.2-0.7-0.3-0.9c-0.1-0.3-0.3-0.5-0.6-0.7c-0.2-0.2-0.5-0.2-0.9-0.2c-0.6,0-1.1,0.3-1.4,0.8s-0.5,1.3-0.5,2.2
		c0,1.1,0.2,1.9,0.5,2.4c0.4,0.6,0.8,0.9,1.4,0.9c0.3,0,0.6-0.1,0.8-0.3c0.2-0.2,0.4-0.4,0.6-0.7s0.2-0.6,0.3-1
		c0.1-0.4,0.1-0.8,0.1-1.3V33.8z"/>
	<path class="st0" d="M315.8,23.1h4v3.2h-4V23.1z M315.8,28h4v12.2h-4V28z"/>
	<path class="st0" d="M321.7,28h3.6l0.3,1.7c0.4-0.6,0.9-1.1,1.6-1.5c0.7-0.4,1.4-0.6,2.3-0.6c2.7,0,4,1.7,4,5.1v7.4h-4v-6.4
		c0-1-0.1-1.6-0.4-2s-0.7-0.6-1.3-0.6c-0.3,0-0.6,0.1-0.8,0.2c-0.2,0.1-0.4,0.3-0.6,0.5c-0.2,0.3-0.3,0.6-0.4,1
		c-0.1,0.4-0.1,0.9-0.1,1.6v5.8h-4V28z"/>
	<path class="st0" d="M336.8,40.1c0.5,0.5,1,0.8,1.7,1.1c0.7,0.3,1.4,0.4,2.1,0.4c0.8,0,1.3-0.2,1.6-0.5c0.3-0.3,0.4-0.8,0.4-1.5
		v-1.2c-0.3,0.4-0.7,0.8-1.2,1.1c-0.5,0.3-1.2,0.4-2,0.4c-0.6,0-1.1-0.1-1.7-0.3c-0.6-0.2-1.1-0.5-1.5-1c-0.4-0.5-0.8-1.1-1.1-1.8
		c-0.3-0.8-0.4-1.7-0.4-2.8c0-1,0.1-1.9,0.4-2.7c0.2-0.8,0.6-1.4,1-2c0.4-0.5,0.9-1,1.5-1.2c0.6-0.3,1.3-0.4,2-0.4
		c0.8,0,1.4,0.2,2,0.5c0.6,0.3,1,0.8,1.4,1.5l0.5-1.7h3.2v11.6c0,0.8-0.1,1.4-0.3,2.1c-0.2,0.6-0.6,1.2-1,1.6s-1.1,0.8-1.9,1.1
		c-0.8,0.3-1.7,0.4-2.7,0.4c-0.7,0-1.4-0.1-2-0.2s-1.2-0.2-1.7-0.4s-1-0.4-1.4-0.6c-0.4-0.2-0.8-0.4-1.1-0.6L336.8,40.1z M342.7,34
		c0-0.4,0-0.8-0.1-1.1s-0.2-0.7-0.3-1c-0.1-0.3-0.3-0.5-0.6-0.7c-0.2-0.2-0.5-0.3-0.9-0.3c-0.3,0-0.5,0.1-0.7,0.2
		c-0.2,0.1-0.4,0.3-0.6,0.5c-0.2,0.2-0.3,0.6-0.4,0.9C339,33,339,33.4,339,34c0,1,0.2,1.8,0.5,2.3s0.8,0.7,1.4,0.7
		c0.6,0,1.1-0.2,1.3-0.7c0.3-0.5,0.4-1.2,0.4-2.1V34z"/>
	<path class="st0" d="M353.5,23.2h4v6.3c0.3-0.5,0.8-1,1.4-1.4c0.6-0.4,1.4-0.6,2.4-0.6c1.4,0,2.4,0.4,3.1,1.3c0.6,0.9,1,2.2,1,3.9
		v7.4h-4v-6.6c0-0.8-0.1-1.4-0.4-1.8c-0.3-0.4-0.7-0.6-1.3-0.6c-0.6,0-1,0.2-1.4,0.7c-0.4,0.5-0.6,1.3-0.6,2.4v6h-4V23.2z"/>
	<path class="st0" d="M370.7,35c0.1,0.9,0.4,1.6,0.9,2c0.5,0.4,1,0.6,1.6,0.6c0.5,0,1-0.1,1.3-0.3c0.4-0.2,0.7-0.6,1-1l3,1.7
		c-0.6,0.9-1.4,1.6-2.4,2c-1,0.4-2,0.6-3.1,0.6c-1,0-2-0.2-2.8-0.5c-0.8-0.3-1.5-0.8-2-1.4c-0.5-0.6-1-1.3-1.2-2.1
		c-0.3-0.8-0.4-1.6-0.4-2.6c0-0.9,0.1-1.8,0.4-2.6c0.3-0.8,0.7-1.5,1.2-2.1s1.2-1,2-1.4c0.8-0.3,1.6-0.5,2.6-0.5
		c0.9,0,1.8,0.2,2.5,0.5c0.7,0.3,1.4,0.8,1.9,1.4c0.5,0.6,0.9,1.3,1.2,2.1c0.3,0.8,0.4,1.7,0.4,2.8c0,0.2,0,0.4,0,0.5s0,0.2,0,0.2
		H370.7z M372.7,30.6c-1.2,0-1.8,0.7-2,2.2h3.9c0-0.6-0.2-1.1-0.5-1.6S373.4,30.6,372.7,30.6z"/>
	<path class="st0" d="M387,40.2c-0.1-0.2-0.2-0.4-0.2-0.7c-0.1-0.3-0.1-0.5-0.1-0.8c-0.2,0.5-0.6,0.9-1.1,1.3
		c-0.5,0.4-1.3,0.6-2.2,0.6c-0.7,0-1.2-0.1-1.7-0.3s-0.9-0.5-1.3-0.8c-0.3-0.4-0.6-0.8-0.8-1.2s-0.3-1-0.3-1.6
		c0-0.6,0.1-1.2,0.3-1.6c0.2-0.5,0.5-0.8,0.9-1.2c0.4-0.3,0.9-0.6,1.5-0.8c0.6-0.2,1.2-0.3,1.9-0.5l2.4-0.4V32c0-0.5-0.1-0.9-0.4-1
		c-0.3-0.2-0.6-0.3-1.1-0.3c-0.8,0-1.4,0.1-1.9,0.4c-0.5,0.3-1,0.6-1.4,1l-1.9-2.7c0.3-0.2,0.6-0.4,0.9-0.6s0.8-0.4,1.3-0.6
		c0.5-0.2,1-0.3,1.6-0.4c0.6-0.1,1.2-0.2,1.9-0.2c1.8,0,3.1,0.4,3.9,1.2s1.2,1.9,1.2,3.5v4.3c0,0.5,0,0.9,0,1.3c0,0.3,0,0.6,0.1,0.9
		c0,0.3,0.1,0.5,0.2,0.7c0.1,0.2,0.2,0.4,0.3,0.7H387z M386.4,34.8l-1.7,0.3c-0.6,0.1-1,0.3-1.2,0.5c-0.3,0.2-0.4,0.5-0.4,0.9
		c0,0.4,0.1,0.6,0.3,0.9s0.5,0.3,0.9,0.3c0.6,0,1-0.2,1.4-0.6c0.4-0.4,0.6-1.1,0.6-1.9V34.8z"/>
	<path class="st0" d="M392.4,23.2h4v16.9h-4V23.2z"/>
	<path class="st0" d="M399.2,30.6h-1.9V28h0.3c0.6,0,1.1-0.1,1.5-0.3c0.4-0.2,0.6-0.5,0.8-0.8c0.2-0.3,0.3-0.7,0.4-1.2
		c0.1-0.4,0.2-0.9,0.3-1.3h2.5V28h2.5v2.6h-2.5v5.7c0,0.4,0.1,0.7,0.2,0.9c0.1,0.2,0.5,0.4,0.9,0.4c0.1,0,0.3,0,0.5,0
		s0.4-0.1,0.6-0.2l0.3,2.8c-0.4,0.2-0.9,0.3-1.3,0.4c-0.4,0.1-0.9,0.1-1.4,0.1c-0.8,0-1.4-0.1-1.9-0.3c-0.5-0.2-0.9-0.5-1.2-0.8
		c-0.3-0.3-0.5-0.7-0.6-1.2c-0.1-0.5-0.2-1-0.2-1.5V30.6z"/>
	<path class="st0" d="M406.7,23.2h4v6.3c0.3-0.5,0.8-1,1.4-1.4c0.6-0.4,1.4-0.6,2.4-0.6c1.4,0,2.4,0.4,3.1,1.3c0.6,0.9,1,2.2,1,3.9
		v7.4h-4v-6.6c0-0.8-0.1-1.4-0.4-1.8c-0.3-0.4-0.7-0.6-1.3-0.6c-0.6,0-1,0.2-1.4,0.7c-0.4,0.5-0.6,1.3-0.6,2.4v6h-4V23.2z"/>
	<path class="st0" d="M425.3,28h4v1.6c0.3-0.6,0.7-1,1.2-1.4c0.5-0.4,1.2-0.6,2.1-0.6c1.4,0,2.5,0.5,3.3,1.6
		c0.8,1.1,1.3,2.7,1.3,4.8c0,1.3-0.2,2.3-0.5,3.2c-0.3,0.8-0.7,1.5-1.2,2c-0.5,0.5-1,0.8-1.6,1c-0.6,0.2-1.1,0.3-1.7,0.3
		c-0.6,0-1.2-0.1-1.8-0.3c-0.6-0.2-1-0.6-1.3-1v5.3h-4V28z M429.3,34.2c0,0.4,0,0.8,0.1,1.2c0.1,0.4,0.2,0.7,0.3,1s0.4,0.5,0.6,0.6
		c0.2,0.2,0.5,0.2,0.8,0.2c0.6,0,1-0.3,1.3-0.8c0.3-0.5,0.5-1.3,0.5-2.4c0-1.1-0.2-1.9-0.5-2.4s-0.8-0.8-1.4-0.8
		c-0.3,0-0.6,0.1-0.8,0.3c-0.2,0.2-0.4,0.4-0.6,0.7c-0.1,0.3-0.2,0.6-0.3,0.9c-0.1,0.4-0.1,0.7-0.1,1.1V34.2z"/>
	<path class="st0" d="M438.5,23.2h4v16.9h-4V23.2z"/>
	<path class="st0" d="M451.7,40.2c-0.1-0.2-0.2-0.4-0.2-0.7c-0.1-0.3-0.1-0.5-0.1-0.8c-0.2,0.5-0.6,0.9-1.1,1.3
		c-0.5,0.4-1.3,0.6-2.2,0.6c-0.7,0-1.2-0.1-1.7-0.3s-0.9-0.5-1.3-0.8c-0.3-0.4-0.6-0.8-0.8-1.2s-0.3-1-0.3-1.6
		c0-0.6,0.1-1.2,0.3-1.6c0.2-0.5,0.5-0.8,0.9-1.2c0.4-0.3,0.9-0.6,1.5-0.8c0.6-0.2,1.2-0.3,1.9-0.5l2.4-0.4V32c0-0.5-0.1-0.9-0.4-1
		c-0.3-0.2-0.6-0.3-1.1-0.3c-0.8,0-1.4,0.1-1.9,0.4c-0.5,0.3-1,0.6-1.4,1l-1.9-2.7c0.3-0.2,0.6-0.4,0.9-0.6s0.8-0.4,1.3-0.6
		c0.5-0.2,1-0.3,1.6-0.4c0.6-0.1,1.2-0.2,1.9-0.2c1.8,0,3.1,0.4,3.9,1.2s1.2,1.9,1.2,3.5v4.3c0,0.5,0,0.9,0,1.3c0,0.3,0,0.6,0.1,0.9
		c0,0.3,0.1,0.5,0.2,0.7c0.1,0.2,0.2,0.4,0.3,0.7H451.7z M451.1,34.8l-1.7,0.3c-0.6,0.1-1,0.3-1.2,0.5c-0.3,0.2-0.4,0.5-0.4,0.9
		c0,0.4,0.1,0.6,0.3,0.9s0.5,0.3,0.9,0.3c0.6,0,1-0.2,1.4-0.6c0.4-0.4,0.6-1.1,0.6-1.9V34.8z"/>
	<path class="st0" d="M457,28h3.6l0.3,1.7c0.4-0.6,0.9-1.1,1.6-1.5c0.7-0.4,1.4-0.6,2.3-0.6c2.7,0,4,1.7,4,5.1v7.4h-4v-6.4
		c0-1-0.1-1.6-0.4-2s-0.7-0.6-1.3-0.6c-0.3,0-0.6,0.1-0.8,0.2c-0.2,0.1-0.4,0.3-0.6,0.5c-0.2,0.3-0.3,0.6-0.4,1
		c-0.1,0.4-0.1,0.9-0.1,1.6v5.8h-4V28z"/>
	<path class="st0" d="M471.7,36.1c0.2,0.2,0.4,0.4,0.7,0.5c0.3,0.2,0.6,0.3,0.9,0.5s0.7,0.3,1,0.3c0.4,0.1,0.7,0.1,1.1,0.1
		c0.3,0,0.6,0,0.9-0.1s0.4-0.3,0.4-0.6c0-0.3-0.2-0.5-0.5-0.7s-0.7-0.3-1.2-0.5c-0.5-0.1-1-0.3-1.5-0.4c-0.6-0.2-1.1-0.4-1.5-0.7
		c-0.5-0.3-0.9-0.7-1.2-1.1c-0.3-0.5-0.5-1.1-0.5-1.9c0-0.7,0.1-1.3,0.4-1.8c0.3-0.5,0.7-0.9,1.2-1.3c0.5-0.3,1-0.6,1.7-0.7
		c0.6-0.2,1.3-0.2,1.9-0.2c1.1,0,2.1,0.1,2.9,0.4c0.8,0.3,1.6,0.6,2.3,1.1l-1.8,2.7c-0.2-0.1-0.4-0.3-0.6-0.4
		c-0.3-0.1-0.5-0.3-0.9-0.4c-0.3-0.1-0.6-0.2-1-0.3c-0.3-0.1-0.7-0.1-1-0.1c-0.3,0-0.5,0-0.7,0.1c-0.2,0.1-0.3,0.3-0.3,0.5
		c0,0.3,0.2,0.5,0.5,0.6c0.3,0.2,0.7,0.3,1.2,0.5s1,0.3,1.5,0.5c0.6,0.2,1.1,0.4,1.5,0.7c0.5,0.3,0.9,0.7,1.2,1.1
		c0.3,0.5,0.5,1,0.5,1.8s-0.2,1.3-0.5,1.8c-0.3,0.5-0.7,1-1.2,1.3c-0.5,0.3-1.1,0.6-1.7,0.8s-1.2,0.3-1.8,0.3
		c-2.3,0-4.2-0.6-5.7-1.7L471.7,36.1z"/>
	<path class="st0" d="M494.2,40.2c-0.1-0.2-0.2-0.4-0.2-0.7c-0.1-0.3-0.1-0.5-0.1-0.8c-0.2,0.5-0.6,0.9-1.1,1.3
		c-0.5,0.4-1.3,0.6-2.2,0.6c-0.7,0-1.2-0.1-1.7-0.3s-0.9-0.5-1.3-0.8c-0.3-0.4-0.6-0.8-0.8-1.2s-0.3-1-0.3-1.6
		c0-0.6,0.1-1.2,0.3-1.6c0.2-0.5,0.5-0.8,0.9-1.2c0.4-0.3,0.9-0.6,1.5-0.8c0.6-0.2,1.2-0.3,1.9-0.5l2.4-0.4V32c0-0.5-0.1-0.9-0.4-1
		c-0.3-0.2-0.6-0.3-1.1-0.3c-0.8,0-1.4,0.1-1.9,0.4c-0.5,0.3-1,0.6-1.4,1l-1.9-2.7c0.3-0.2,0.6-0.4,0.9-0.6s0.8-0.4,1.3-0.6
		c0.5-0.2,1-0.3,1.6-0.4c0.6-0.1,1.2-0.2,1.9-0.2c1.8,0,3.1,0.4,3.9,1.2s1.2,1.9,1.2,3.5v4.3c0,0.5,0,0.9,0,1.3c0,0.3,0,0.6,0.1,0.9
		c0,0.3,0.1,0.5,0.2,0.7c0.1,0.2,0.2,0.4,0.3,0.7H494.2z M493.5,34.8l-1.7,0.3c-0.6,0.1-1,0.3-1.2,0.5c-0.3,0.2-0.4,0.5-0.4,0.9
		c0,0.4,0.1,0.6,0.3,0.9s0.5,0.3,0.9,0.3c0.6,0,1-0.2,1.4-0.6c0.4-0.4,0.6-1.1,0.6-1.9V34.8z"/>
	<path class="st0" d="M499.5,28h3.6l0.3,1.7c0.4-0.6,0.9-1.1,1.6-1.5c0.7-0.4,1.4-0.6,2.3-0.6c2.7,0,4,1.7,4,5.1v7.4h-4v-6.4
		c0-1-0.1-1.6-0.4-2s-0.7-0.6-1.3-0.6c-0.3,0-0.6,0.1-0.8,0.2c-0.2,0.1-0.4,0.3-0.6,0.5c-0.2,0.3-0.3,0.6-0.4,1
		c-0.1,0.4-0.1,0.9-0.1,1.6v5.8h-4V28z"/>
	<path class="st0" d="M520.6,38.5c-0.3,0.6-0.7,1.1-1.3,1.4s-1.2,0.5-2,0.5c-0.7,0-1.4-0.1-2-0.4c-0.6-0.3-1.1-0.7-1.5-1.2
		s-0.8-1.2-1-2s-0.4-1.7-0.4-2.8c0-1.2,0.1-2.2,0.4-3s0.7-1.4,1.1-1.9c0.5-0.5,1-0.8,1.6-1.1s1.2-0.3,1.7-0.3c0.8,0,1.4,0.1,1.9,0.4
		c0.5,0.3,0.9,0.7,1.1,1.1v-6h4.1v16.9h-3.8V38.5z M520.4,33.8c0-0.4,0-0.8-0.1-1.1c-0.1-0.4-0.2-0.7-0.3-0.9
		c-0.1-0.3-0.3-0.5-0.6-0.7c-0.2-0.2-0.5-0.2-0.9-0.2c-0.6,0-1.1,0.3-1.4,0.8c-0.3,0.5-0.5,1.3-0.5,2.2c0,1.1,0.2,1.9,0.5,2.4
		c0.4,0.6,0.8,0.9,1.4,0.9c0.3,0,0.6-0.1,0.8-0.3c0.2-0.2,0.4-0.4,0.6-0.7c0.1-0.3,0.2-0.6,0.3-1c0.1-0.4,0.1-0.8,0.1-1.3V33.8z"/>
</g>
<g>
	<path class="st0" d="M189.6,55.5h-4.8v-3.3h13.9v3.3H194v13.7h-4.3V55.5z"/>
	<path class="st0" d="M199.9,52.2h7.2c0.8,0,1.6,0.1,2.4,0.3c0.8,0.2,1.5,0.5,2.1,0.9c0.6,0.4,1.1,1,1.5,1.7
		c0.4,0.7,0.6,1.5,0.6,2.5c0,1.1-0.2,2-0.5,2.7c-0.3,0.7-0.8,1.3-1.4,1.8c-0.6,0.5-1.3,0.8-2.1,1c-0.8,0.2-1.7,0.3-2.6,0.3h-2.9v5.7
		h-4.3V52.2z M206.4,60.1c0.4,0,0.7,0,1.1-0.1c0.3-0.1,0.6-0.2,0.8-0.4c0.2-0.2,0.4-0.4,0.6-0.7c0.1-0.3,0.2-0.7,0.2-1.2
		c0-0.4-0.1-0.7-0.2-1c-0.2-0.3-0.4-0.5-0.6-0.7s-0.5-0.3-0.9-0.4c-0.3-0.1-0.7-0.1-1-0.1h-2.2v4.6H206.4z"/>
	<path class="st0" d="M218.5,52.2h3.8l6.6,16.9h-4.5l-1.2-3.5h-5.7l-1.2,3.5h-4.4L218.5,52.2z M222.1,62.4c-0.3-0.8-0.6-1.7-0.9-2.5
		c-0.3-0.8-0.6-1.7-0.9-2.8c-0.2,1-0.5,1.9-0.8,2.7s-0.6,1.7-0.9,2.5H222.1z"/>
	<path class="st0" d="M231,65.1c0.2,0.2,0.4,0.4,0.7,0.5c0.3,0.2,0.6,0.3,0.9,0.5c0.3,0.1,0.7,0.3,1,0.3c0.4,0.1,0.7,0.1,1.1,0.1
		c0.3,0,0.6,0,0.9-0.1c0.3-0.1,0.4-0.3,0.4-0.6c0-0.3-0.2-0.5-0.5-0.7c-0.3-0.2-0.7-0.3-1.2-0.5c-0.5-0.1-1-0.3-1.5-0.4
		c-0.6-0.2-1.1-0.4-1.5-0.7c-0.5-0.3-0.9-0.7-1.2-1.1c-0.3-0.5-0.5-1.1-0.5-1.9c0-0.7,0.1-1.3,0.4-1.8s0.7-0.9,1.2-1.3
		s1-0.6,1.7-0.7s1.3-0.2,1.9-0.2c1.1,0,2.1,0.1,2.9,0.4c0.8,0.3,1.6,0.6,2.3,1.1l-1.8,2.7c-0.2-0.1-0.4-0.3-0.6-0.4
		c-0.3-0.1-0.5-0.3-0.9-0.4s-0.6-0.2-1-0.3c-0.3-0.1-0.7-0.1-1-0.1c-0.3,0-0.5,0-0.7,0.1c-0.2,0.1-0.3,0.3-0.3,0.5
		c0,0.3,0.2,0.5,0.5,0.6c0.3,0.2,0.7,0.3,1.2,0.5c0.5,0.2,1,0.3,1.5,0.5c0.6,0.2,1.1,0.4,1.5,0.7c0.5,0.3,0.9,0.7,1.2,1.1
		c0.3,0.5,0.5,1,0.5,1.8s-0.2,1.3-0.5,1.8c-0.3,0.5-0.7,1-1.2,1.3c-0.5,0.3-1.1,0.6-1.7,0.8s-1.2,0.3-1.8,0.3
		c-2.3,0-4.2-0.6-5.7-1.7L231,65.1z"/>
	<path class="st0" d="M253.4,69.2c-0.1-0.2-0.2-0.4-0.2-0.7s-0.1-0.5-0.1-0.8c-0.2,0.5-0.6,0.9-1.1,1.3c-0.5,0.4-1.3,0.6-2.2,0.6
		c-0.7,0-1.2-0.1-1.7-0.3c-0.5-0.2-0.9-0.5-1.3-0.8c-0.3-0.4-0.6-0.8-0.8-1.2c-0.2-0.5-0.3-1-0.3-1.6c0-0.6,0.1-1.2,0.3-1.6
		s0.5-0.8,0.9-1.2c0.4-0.3,0.9-0.6,1.5-0.8c0.6-0.2,1.2-0.3,1.9-0.5l2.4-0.4V61c0-0.5-0.1-0.9-0.4-1c-0.3-0.2-0.6-0.3-1.1-0.3
		c-0.8,0-1.4,0.1-1.9,0.4c-0.5,0.3-1,0.6-1.4,1l-1.9-2.7c0.3-0.2,0.6-0.4,0.9-0.6c0.4-0.2,0.8-0.4,1.3-0.6s1-0.3,1.6-0.4
		c0.6-0.1,1.2-0.2,1.9-0.2c1.8,0,3.1,0.4,3.9,1.2c0.8,0.8,1.2,1.9,1.2,3.5v4.3c0,0.5,0,0.9,0,1.3c0,0.3,0,0.6,0.1,0.9
		c0,0.3,0.1,0.5,0.2,0.7c0.1,0.2,0.2,0.4,0.3,0.7H253.4z M252.8,63.8l-1.7,0.3c-0.6,0.1-1,0.3-1.2,0.5s-0.4,0.5-0.4,0.9
		c0,0.4,0.1,0.6,0.3,0.9c0.2,0.2,0.5,0.3,0.9,0.3c0.6,0,1-0.2,1.4-0.6s0.6-1.1,0.6-1.9V63.8z"/>
	<path class="st0" d="M258.7,57h3.6l0.3,2.3c0.4-0.7,0.9-1.4,1.5-1.9c0.7-0.5,1.6-0.8,2.7-0.8v4.1c-0.3-0.1-0.7-0.1-1.3-0.1
		c-0.3,0-0.6,0-1,0.1c-0.3,0.1-0.6,0.2-0.9,0.4c-0.3,0.2-0.5,0.5-0.7,1c-0.2,0.4-0.3,1-0.3,1.8v5.4h-4V57z"/>
	<path class="st0" d="M271.1,64c0.1,0.9,0.4,1.6,0.9,2s1,0.6,1.6,0.6c0.5,0,1-0.1,1.3-0.3c0.4-0.2,0.7-0.6,1-1l3,1.7
		c-0.6,0.9-1.4,1.6-2.4,2c-1,0.4-2,0.6-3.1,0.6c-1,0-2-0.2-2.8-0.5c-0.8-0.3-1.5-0.8-2-1.4s-1-1.3-1.2-2.1c-0.3-0.8-0.4-1.6-0.4-2.6
		c0-0.9,0.1-1.8,0.4-2.6c0.3-0.8,0.7-1.5,1.2-2.1c0.5-0.6,1.2-1,2-1.4s1.6-0.5,2.6-0.5c0.9,0,1.8,0.2,2.5,0.5s1.4,0.8,1.9,1.4
		c0.5,0.6,0.9,1.3,1.2,2.1s0.4,1.7,0.4,2.8c0,0.2,0,0.4,0,0.5c0,0.1,0,0.2,0,0.2H271.1z M273.1,59.5c-1.2,0-1.8,0.7-2,2.2h3.9
		c0-0.6-0.2-1.1-0.5-1.6C274.3,59.8,273.8,59.5,273.1,59.5z"/>
	<path class="st0" d="M286.5,65.1c0.2,0.2,0.4,0.4,0.7,0.5c0.3,0.2,0.6,0.3,0.9,0.5c0.3,0.1,0.7,0.3,1,0.3c0.4,0.1,0.7,0.1,1.1,0.1
		c0.3,0,0.6,0,0.9-0.1c0.3-0.1,0.4-0.3,0.4-0.6c0-0.3-0.2-0.5-0.5-0.7c-0.3-0.2-0.7-0.3-1.2-0.5c-0.5-0.1-1-0.3-1.5-0.4
		c-0.6-0.2-1.1-0.4-1.5-0.7c-0.5-0.3-0.9-0.7-1.2-1.1c-0.3-0.5-0.5-1.1-0.5-1.9c0-0.7,0.1-1.3,0.4-1.8s0.7-0.9,1.2-1.3
		s1-0.6,1.7-0.7s1.3-0.2,1.9-0.2c1.1,0,2.1,0.1,2.9,0.4c0.8,0.3,1.6,0.6,2.3,1.1l-1.8,2.7c-0.2-0.1-0.4-0.3-0.6-0.4
		c-0.3-0.1-0.5-0.3-0.9-0.4s-0.6-0.2-1-0.3c-0.3-0.1-0.7-0.1-1-0.1c-0.3,0-0.5,0-0.7,0.1c-0.2,0.1-0.3,0.3-0.3,0.5
		c0,0.3,0.2,0.5,0.5,0.6c0.3,0.2,0.7,0.3,1.2,0.5c0.5,0.2,1,0.3,1.5,0.5c0.6,0.2,1.1,0.4,1.5,0.7c0.5,0.3,0.9,0.7,1.2,1.1
		c0.3,0.5,0.5,1,0.5,1.8s-0.2,1.3-0.5,1.8c-0.3,0.5-0.7,1-1.2,1.3c-0.5,0.3-1.1,0.6-1.7,0.8s-1.2,0.3-1.8,0.3
		c-2.3,0-4.2-0.6-5.7-1.7L286.5,65.1z"/>
	<path class="st0" d="M304,69.2c-0.1-0.2-0.2-0.4-0.2-0.7s-0.1-0.5-0.1-0.8c-0.2,0.5-0.6,0.9-1.1,1.3c-0.5,0.4-1.3,0.6-2.2,0.6
		c-0.7,0-1.2-0.1-1.7-0.3c-0.5-0.2-0.9-0.5-1.3-0.8c-0.3-0.4-0.6-0.8-0.8-1.2c-0.2-0.5-0.3-1-0.3-1.6c0-0.6,0.1-1.2,0.3-1.6
		s0.5-0.8,0.9-1.2c0.4-0.3,0.9-0.6,1.5-0.8c0.6-0.2,1.2-0.3,1.9-0.5l2.4-0.4V61c0-0.5-0.1-0.9-0.4-1c-0.3-0.2-0.6-0.3-1.1-0.3
		c-0.8,0-1.4,0.1-1.9,0.4c-0.5,0.3-1,0.6-1.4,1l-1.9-2.7c0.3-0.2,0.6-0.4,0.9-0.6c0.4-0.2,0.8-0.4,1.3-0.6s1-0.3,1.6-0.4
		c0.6-0.1,1.2-0.2,1.9-0.2c1.8,0,3.1,0.4,3.9,1.2c0.8,0.8,1.2,1.9,1.2,3.5v4.3c0,0.5,0,0.9,0,1.3c0,0.3,0,0.6,0.1,0.9
		c0,0.3,0.1,0.5,0.2,0.7c0.1,0.2,0.2,0.4,0.3,0.7H304z M303.4,63.8l-1.7,0.3c-0.6,0.1-1,0.3-1.2,0.5s-0.4,0.5-0.4,0.9
		c0,0.4,0.1,0.6,0.3,0.9c0.2,0.2,0.5,0.3,0.9,0.3c0.6,0,1-0.2,1.4-0.6s0.6-1.1,0.6-1.9V63.8z"/>
	<path class="st0" d="M307.8,57h4.5l2,8.4l1.9-8.4h4.3l-4,12.2h-4.7L307.8,57z"/>
	<path class="st0" d="M321.3,52.1h4v3.2h-4V52.1z M321.3,57h4v12.2h-4V57z"/>
	<path class="st0" d="M327.2,57h3.6l0.3,1.7c0.4-0.6,0.9-1.1,1.6-1.5c0.7-0.4,1.4-0.6,2.3-0.6c2.7,0,4,1.7,4,5.1v7.4h-4v-6.4
		c0-1-0.1-1.6-0.4-2c-0.3-0.4-0.7-0.6-1.3-0.6c-0.3,0-0.6,0.1-0.8,0.2c-0.2,0.1-0.4,0.3-0.6,0.5c-0.2,0.3-0.3,0.6-0.4,1
		s-0.1,0.9-0.1,1.6v5.8h-4V57z"/>
	<path class="st0" d="M342.3,69.1c0.5,0.5,1,0.8,1.7,1.1c0.7,0.3,1.4,0.4,2.1,0.4c0.8,0,1.3-0.2,1.6-0.5c0.3-0.3,0.4-0.8,0.4-1.5
		v-1.2c-0.3,0.4-0.7,0.8-1.2,1.1c-0.5,0.3-1.2,0.4-2,0.4c-0.6,0-1.1-0.1-1.7-0.3c-0.6-0.2-1.1-0.5-1.5-1c-0.4-0.5-0.8-1.1-1.1-1.8
		c-0.3-0.8-0.4-1.7-0.4-2.8c0-1,0.1-1.9,0.4-2.7c0.2-0.8,0.6-1.4,1-2s0.9-1,1.5-1.2c0.6-0.3,1.3-0.4,2-0.4c0.8,0,1.4,0.2,2,0.5
		c0.6,0.3,1,0.8,1.4,1.5L349,57h3.2v11.6c0,0.8-0.1,1.4-0.3,2.1c-0.2,0.6-0.6,1.2-1,1.6c-0.5,0.5-1.1,0.8-1.9,1.1
		c-0.8,0.3-1.7,0.4-2.7,0.4c-0.7,0-1.4-0.1-2-0.2c-0.6-0.1-1.2-0.2-1.7-0.4s-1-0.4-1.4-0.6c-0.4-0.2-0.8-0.4-1.1-0.6L342.3,69.1z
		 M348.2,63c0-0.4,0-0.8-0.1-1.1c-0.1-0.4-0.2-0.7-0.3-1c-0.1-0.3-0.3-0.5-0.6-0.7c-0.2-0.2-0.5-0.3-0.9-0.3c-0.3,0-0.5,0.1-0.7,0.2
		c-0.2,0.1-0.4,0.3-0.6,0.5s-0.3,0.6-0.4,0.9c-0.1,0.4-0.2,0.9-0.2,1.4c0,1,0.2,1.8,0.5,2.3c0.3,0.5,0.8,0.7,1.4,0.7
		c0.6,0,1.1-0.2,1.3-0.7c0.3-0.5,0.4-1.2,0.4-2.1V63z"/>
	<path class="st0" d="M359,57h4v6.7c0,0.8,0.1,1.3,0.4,1.7c0.2,0.4,0.7,0.6,1.2,0.6c0.7,0,1.2-0.2,1.5-0.7s0.5-1.3,0.5-2.4V57h4
		v12.2h-3.8v-1.8c-0.3,0.6-0.8,1.1-1.3,1.5c-0.6,0.4-1.3,0.6-2.3,0.6c-1.5,0-2.5-0.4-3.2-1.2c-0.7-0.8-1-2-1-3.6V57z"/>
	<path class="st0" d="M372.6,57h4v1.6c0.3-0.6,0.7-1,1.2-1.4s1.2-0.6,2.1-0.6c1.4,0,2.5,0.5,3.3,1.6c0.8,1.1,1.3,2.7,1.3,4.8
		c0,1.3-0.2,2.3-0.5,3.2c-0.3,0.8-0.7,1.5-1.2,2s-1,0.8-1.6,1c-0.6,0.2-1.1,0.3-1.7,0.3c-0.6,0-1.2-0.1-1.8-0.3s-1-0.6-1.3-1v5.3h-4
		V57z M376.6,63.2c0,0.4,0,0.8,0.1,1.2c0.1,0.4,0.2,0.7,0.3,1c0.2,0.3,0.4,0.5,0.6,0.6c0.2,0.2,0.5,0.2,0.8,0.2c0.6,0,1-0.3,1.3-0.8
		c0.3-0.5,0.5-1.3,0.5-2.4c0-1.1-0.2-1.9-0.5-2.4s-0.8-0.8-1.4-0.8c-0.3,0-0.6,0.1-0.8,0.3c-0.2,0.2-0.4,0.4-0.6,0.7
		c-0.1,0.3-0.2,0.6-0.3,0.9c-0.1,0.4-0.1,0.7-0.1,1.1V63.2z"/>
	<path class="st0" d="M391.7,59.5h-1.9V57h0.3c0.6,0,1.1-0.1,1.5-0.3c0.4-0.2,0.6-0.5,0.8-0.8c0.2-0.3,0.3-0.7,0.4-1.2
		c0.1-0.4,0.2-0.9,0.3-1.3h2.5V57h2.5v2.6h-2.5v5.7c0,0.4,0.1,0.7,0.2,0.9c0.1,0.2,0.5,0.4,0.9,0.4c0.1,0,0.3,0,0.5,0
		c0.2,0,0.4-0.1,0.6-0.2l0.3,2.8c-0.4,0.2-0.9,0.3-1.3,0.4c-0.4,0.1-0.9,0.1-1.4,0.1c-0.8,0-1.4-0.1-1.9-0.3
		c-0.5-0.2-0.9-0.5-1.2-0.8s-0.5-0.7-0.6-1.2c-0.1-0.5-0.2-1-0.2-1.5V59.5z"/>
	<path class="st0" d="M404.7,69.6c-1,0-1.9-0.2-2.7-0.5c-0.8-0.3-1.4-0.8-1.9-1.4s-0.9-1.3-1.2-2c-0.3-0.8-0.4-1.6-0.4-2.6
		c0-0.9,0.1-1.8,0.4-2.6s0.7-1.5,1.2-2.1c0.5-0.6,1.2-1,1.9-1.4c0.8-0.3,1.7-0.5,2.7-0.5s1.9,0.2,2.7,0.5s1.4,0.8,1.9,1.4
		c0.5,0.6,0.9,1.3,1.2,2.1c0.3,0.8,0.4,1.7,0.4,2.6c0,0.9-0.1,1.8-0.4,2.6c-0.3,0.8-0.7,1.5-1.2,2c-0.5,0.6-1.2,1-1.9,1.4
		C406.6,69.4,405.7,69.6,404.7,69.6z M404.8,66.5c0.7,0,1.2-0.3,1.5-0.9c0.3-0.6,0.4-1.4,0.4-2.5s-0.2-1.9-0.5-2.5s-0.8-0.9-1.5-0.9
		c-0.7,0-1.2,0.3-1.5,0.9c-0.3,0.6-0.5,1.5-0.5,2.5s0.2,1.9,0.5,2.5C403.5,66.2,404,66.5,404.8,66.5z"/>
	<path class="st0" d="M419.8,60.6c-0.4-0.1-0.7-0.3-1-0.5s-0.6-0.4-0.9-0.7c-0.3-0.3-0.5-0.6-0.6-1c-0.2-0.4-0.2-0.7-0.2-1.2
		c0-0.8,0.2-1.5,0.5-2c0.3-0.6,0.8-1,1.3-1.4c0.5-0.4,1.2-0.6,1.9-0.8s1.4-0.3,2.1-0.3c0.7,0,1.4,0.1,2.1,0.3
		c0.7,0.2,1.3,0.5,1.8,0.8s1,0.8,1.3,1.4c0.3,0.6,0.5,1.2,0.5,2c0,0.8-0.3,1.5-0.8,2.1c-0.6,0.6-1.2,1-2,1.2c1,0.2,1.8,0.6,2.4,1.2
		c0.6,0.6,0.9,1.5,0.9,2.6c0,0.9-0.2,1.7-0.6,2.4s-0.9,1.2-1.5,1.6c-0.6,0.4-1.3,0.7-2,0.9c-0.8,0.2-1.5,0.3-2.3,0.3
		c-0.8,0-1.5-0.1-2.3-0.3c-0.8-0.2-1.4-0.5-2-0.9c-0.6-0.4-1.1-1-1.5-1.6c-0.4-0.7-0.6-1.4-0.6-2.4c0-1,0.3-1.9,0.9-2.5
		C417.9,61.1,418.7,60.7,419.8,60.6z M422.8,66.4c0.6,0,1.1-0.2,1.5-0.6s0.6-1,0.6-1.6c0-0.7-0.2-1.2-0.6-1.6
		c-0.4-0.4-0.9-0.6-1.5-0.6c-0.7,0-1.3,0.2-1.6,0.6c-0.4,0.4-0.5,1-0.5,1.6c0,0.6,0.2,1.2,0.6,1.6S422.1,66.4,422.8,66.4z M421,57.5
		c0,0.6,0.2,1,0.5,1.4c0.3,0.4,0.8,0.6,1.2,0.6s0.9-0.2,1.2-0.6c0.3-0.4,0.5-0.9,0.5-1.4c0-0.6-0.2-1-0.5-1.4
		c-0.3-0.4-0.7-0.6-1.3-0.6c-0.6,0-1,0.2-1.3,0.6C421.2,56.5,421,56.9,421,57.5z"/>
	<path class="st0" d="M438.2,57.4c-0.2-0.5-0.5-0.9-0.8-1.2c-0.4-0.3-0.8-0.4-1.2-0.4c-0.3,0-0.6,0.1-0.8,0.2
		c-0.3,0.1-0.6,0.3-0.8,0.6c-0.2,0.3-0.4,0.7-0.6,1.2c-0.2,0.5-0.2,1.2-0.2,2v0.1c0,0,0,0.1,0,0.2c0.3-0.4,0.7-0.8,1.3-1.1
		c0.6-0.3,1.4-0.5,2.3-0.5c0.8,0,1.5,0.1,2.1,0.4s1.2,0.6,1.6,1.1c0.4,0.5,0.8,1,1,1.7c0.2,0.7,0.3,1.4,0.3,2.2
		c0,0.8-0.1,1.5-0.4,2.2c-0.3,0.7-0.6,1.3-1.1,1.8s-1.1,1-1.9,1.3c-0.8,0.3-1.6,0.5-2.6,0.5c-0.9,0-1.7-0.2-2.5-0.5
		c-0.8-0.3-1.5-0.8-2.1-1.4c-0.6-0.6-1.1-1.5-1.5-2.4c-0.4-1-0.6-2.1-0.6-3.4c0-1.7,0.2-3.1,0.6-4.3c0.4-1.2,0.9-2.1,1.6-2.8
		s1.3-1.2,2.1-1.5c0.8-0.3,1.5-0.5,2.3-0.5c0.7,0,1.4,0.1,2,0.3c0.6,0.2,1.1,0.4,1.6,0.7c0.5,0.3,0.8,0.6,1.2,1s0.6,0.8,0.8,1.2
		L438.2,57.4z M436.1,66.6c0.6,0,1-0.3,1.4-0.8c0.3-0.5,0.5-1.1,0.5-1.8c0-0.8-0.2-1.4-0.5-1.9c-0.3-0.5-0.8-0.8-1.3-0.8
		c-0.6,0-1.1,0.3-1.4,0.8c-0.3,0.5-0.5,1.2-0.5,1.9c0,0.8,0.2,1.5,0.5,1.9C435.1,66.4,435.5,66.6,436.1,66.6z"/>
	<path class="st0" d="M447.6,62.2c-0.8,0-1.4-0.1-2-0.4c-0.6-0.3-1.1-0.6-1.5-1.1c-0.4-0.5-0.7-1-0.9-1.7c-0.2-0.6-0.3-1.3-0.3-2.1
		c0-0.7,0.1-1.4,0.3-2c0.2-0.6,0.5-1.2,0.9-1.6s0.9-0.8,1.5-1.1c0.6-0.3,1.2-0.4,2-0.4c0.8,0,1.5,0.1,2.1,0.4
		c0.6,0.3,1.1,0.6,1.5,1.1s0.7,1,0.8,1.6c0.2,0.6,0.3,1.3,0.3,2c0,0.7-0.1,1.4-0.3,2.1c-0.2,0.6-0.5,1.2-0.9,1.7
		c-0.4,0.5-0.9,0.9-1.5,1.2C449.1,62,448.4,62.2,447.6,62.2z M447.6,59.6c0.2,0,0.4-0.1,0.6-0.3c0.1-0.2,0.3-0.4,0.3-0.7
		c0.1-0.3,0.1-0.6,0.2-0.9c0-0.3,0-0.6,0-0.9c0-0.3,0-0.6,0-0.9c0-0.3-0.1-0.6-0.2-0.9c-0.1-0.3-0.2-0.5-0.3-0.6
		c-0.1-0.2-0.3-0.2-0.6-0.2c-0.2,0-0.4,0.1-0.6,0.2c-0.1,0.2-0.3,0.4-0.3,0.6c-0.1,0.3-0.1,0.5-0.2,0.8c0,0.3,0,0.6,0,0.9
		c0,0.3,0,0.6,0,0.9c0,0.3,0.1,0.6,0.2,0.9c0.1,0.3,0.2,0.5,0.3,0.7C447.1,59.5,447.3,59.6,447.6,59.6z M456.7,51.6l2.2,1l-8.4,17
		l-2.2-0.9L456.7,51.6z M459.7,69.4c-0.8,0-1.4-0.1-2-0.4c-0.6-0.3-1.1-0.6-1.5-1.1c-0.4-0.5-0.7-1-0.9-1.7
		c-0.2-0.6-0.3-1.3-0.3-2.1c0-0.7,0.1-1.4,0.3-2s0.5-1.2,0.9-1.6c0.4-0.5,0.9-0.8,1.5-1.1s1.2-0.4,2-0.4c0.8,0,1.5,0.1,2.1,0.4
		s1.1,0.6,1.5,1.1s0.7,1,0.8,1.6s0.3,1.3,0.3,2c0,0.7-0.1,1.4-0.3,2.1c-0.2,0.6-0.5,1.2-0.9,1.7c-0.4,0.5-0.9,0.9-1.5,1.2
		S460.5,69.4,459.7,69.4z M459.7,66.9c0.2,0,0.4-0.1,0.6-0.3s0.3-0.4,0.3-0.7s0.1-0.6,0.2-0.9c0-0.3,0-0.6,0-0.9c0-0.3,0-0.6,0-0.9
		c0-0.3-0.1-0.6-0.2-0.9c-0.1-0.3-0.2-0.5-0.3-0.6c-0.1-0.2-0.3-0.2-0.6-0.2c-0.2,0-0.4,0.1-0.6,0.2c-0.1,0.2-0.3,0.4-0.3,0.6
		s-0.1,0.5-0.2,0.8c0,0.3,0,0.6,0,0.9s0,0.6,0,0.9c0,0.3,0.1,0.6,0.2,0.9s0.2,0.5,0.3,0.7C459.2,66.8,459.4,66.9,459.7,66.9z"/>
	<path class="st0" d="M470.5,57h3.6l0.3,1.7c0.4-0.7,0.8-1.2,1.4-1.5c0.6-0.4,1.3-0.5,2.1-0.5c1,0,1.8,0.2,2.3,0.7
		c0.5,0.4,0.9,0.9,1.2,1.5c0.1-0.3,0.3-0.5,0.5-0.8c0.2-0.3,0.4-0.5,0.7-0.7s0.7-0.4,1.1-0.5s0.9-0.2,1.5-0.2c0.9,0,1.6,0.1,2.1,0.4
		c0.5,0.3,0.9,0.7,1.2,1.1s0.5,1,0.6,1.6c0.1,0.6,0.1,1.2,0.1,1.9v7.5h-4v-6.4c0-0.9-0.1-1.6-0.3-2c-0.2-0.4-0.7-0.7-1.3-0.7
		c-0.2,0-0.4,0-0.6,0.1c-0.2,0.1-0.4,0.2-0.6,0.4s-0.3,0.5-0.4,0.9c-0.1,0.4-0.2,0.9-0.2,1.5v6.1h-4v-6.5c0-0.9-0.1-1.5-0.4-1.9
		c-0.2-0.4-0.6-0.6-1.2-0.6c-0.2,0-0.4,0-0.6,0.1c-0.2,0.1-0.4,0.2-0.6,0.4c-0.2,0.2-0.3,0.5-0.4,1c-0.1,0.4-0.2,1-0.2,1.7v5.8h-4
		V57z"/>
	<path class="st0" d="M496.7,69.6c-1,0-1.9-0.2-2.7-0.5c-0.8-0.3-1.4-0.8-1.9-1.4s-0.9-1.3-1.2-2c-0.3-0.8-0.4-1.6-0.4-2.6
		c0-0.9,0.1-1.8,0.4-2.6s0.7-1.5,1.2-2.1c0.5-0.6,1.2-1,1.9-1.4c0.8-0.3,1.7-0.5,2.7-0.5s1.9,0.2,2.7,0.5s1.4,0.8,1.9,1.4
		c0.5,0.6,0.9,1.3,1.2,2.1c0.3,0.8,0.4,1.7,0.4,2.6c0,0.9-0.1,1.8-0.4,2.6c-0.3,0.8-0.7,1.5-1.2,2c-0.5,0.6-1.2,1-1.9,1.4
		C498.6,69.4,497.7,69.6,496.7,69.6z M496.8,66.5c0.7,0,1.2-0.3,1.5-0.9c0.3-0.6,0.4-1.4,0.4-2.5s-0.2-1.9-0.5-2.5s-0.8-0.9-1.5-0.9
		c-0.7,0-1.2,0.3-1.5,0.9c-0.3,0.6-0.5,1.5-0.5,2.5s0.2,1.9,0.5,2.5C495.5,66.2,496.1,66.5,496.8,66.5z"/>
	<path class="st0" d="M504.2,57h3.6l0.3,2.3c0.4-0.7,0.9-1.4,1.5-1.9s1.6-0.8,2.7-0.8v4.1c-0.3-0.1-0.7-0.1-1.3-0.1
		c-0.3,0-0.6,0-1,0.1c-0.3,0.1-0.6,0.2-0.9,0.4c-0.3,0.2-0.5,0.5-0.7,1c-0.2,0.4-0.3,1-0.3,1.8v5.4h-4V57z"/>
	<path class="st0" d="M516.6,64c0.1,0.9,0.4,1.6,0.9,2s1,0.6,1.6,0.6c0.5,0,1-0.1,1.3-0.3c0.4-0.2,0.7-0.6,1-1l3,1.7
		c-0.6,0.9-1.4,1.6-2.4,2c-1,0.4-2,0.6-3.1,0.6c-1,0-2-0.2-2.8-0.5c-0.8-0.3-1.5-0.8-2-1.4s-1-1.3-1.2-2.1c-0.3-0.8-0.4-1.6-0.4-2.6
		c0-0.9,0.1-1.8,0.4-2.6c0.3-0.8,0.7-1.5,1.2-2.1c0.5-0.6,1.2-1,2-1.4c0.8-0.3,1.6-0.5,2.6-0.5c0.9,0,1.8,0.2,2.5,0.5
		c0.7,0.3,1.4,0.8,1.9,1.4c0.5,0.6,0.9,1.3,1.2,2.1s0.4,1.7,0.4,2.8c0,0.2,0,0.4,0,0.5c0,0.1,0,0.2,0,0.2H516.6z M518.6,59.5
		c-1.2,0-1.8,0.7-2,2.2h3.9c0-0.6-0.2-1.1-0.5-1.6C519.8,59.8,519.3,59.5,518.6,59.5z"/>
	<path class="st0" d="M525.7,64.7h4.4v4.4h-4.4V64.7z"/>
</g>
</svg>
