<?xml version="1.0" encoding="utf-8"?>
<!-- Generator: Adobe Illustrator 22.1.0, SVG Export Plug-In . SVG Version: 6.00 Build 0)  -->
<svg version="1.1" id="Layer_1" xmlns="https://www.w3.org/2000/svg" xmlns:xlink="https://www.w3.org/1999/xlink" x="0px" y="0px"
	 viewBox="0 0 728 90" style="enable-background:new 0 0 728 90;" xml:space="preserve">
<style type="text/css">
	.copy_purpleFill{fill:#662868;}
	.copy_grayFill{fill:#5D6770;}
</style>
<g>
	<path class="copy_purpleFill" d="M191.2,16.2h10.5v2.9H195v3.2h4.6v2.9H195V31h-3.8V16.2z"/>
	<path class="copy_purpleFill" d="M202.7,16.1h3.5v2.8h-3.5V16.1z M202.7,20.3h3.5V31h-3.5V20.3z"/>
	<path class="copy_purpleFill" d="M207.8,20.3h3.2l0.3,1.5c0.3-0.5,0.8-0.9,1.4-1.3c0.6-0.3,1.2-0.5,2-0.5c2.4,0,3.5,1.5,3.5,4.5V31h-3.5v-5.6
		c0-0.8-0.1-1.4-0.4-1.8s-0.6-0.5-1.2-0.5c-0.3,0-0.5,0-0.7,0.1c-0.2,0.1-0.4,0.2-0.5,0.5c-0.2,0.2-0.3,0.5-0.4,0.9
		c-0.1,0.4-0.1,0.8-0.1,1.4v5h-3.5V20.3z"/>
	<path class="copy_purpleFill" d="M226.4,29.5c-0.3,0.5-0.7,1-1.1,1.3c-0.5,0.3-1,0.4-1.7,0.4c-0.6,0-1.2-0.1-1.7-0.4c-0.5-0.2-1-0.6-1.3-1.1
		s-0.7-1.1-0.9-1.8c-0.2-0.7-0.3-1.5-0.3-2.4c0-1,0.1-1.9,0.4-2.6c0.3-0.7,0.6-1.3,1-1.7c0.4-0.4,0.9-0.7,1.4-0.9
		c0.5-0.2,1-0.3,1.5-0.3c0.7,0,1.2,0.1,1.7,0.4c0.4,0.3,0.8,0.6,1,1v-5.2h3.5V31h-3.3V29.5z M226.1,25.5c0-0.3,0-0.7-0.1-1
		c-0.1-0.3-0.1-0.6-0.3-0.8s-0.3-0.4-0.5-0.6c-0.2-0.1-0.5-0.2-0.8-0.2c-0.5,0-0.9,0.2-1.2,0.7s-0.4,1.1-0.4,1.9
		c0,0.9,0.2,1.6,0.5,2.1s0.7,0.8,1.2,0.8c0.3,0,0.5-0.1,0.7-0.2c0.2-0.1,0.4-0.3,0.5-0.6s0.2-0.5,0.3-0.9c0.1-0.3,0.1-0.7,0.1-1.1
		V25.5z"/>
	<path class="copy_purpleFill" d="M240.6,31.4c-0.9,0-1.7-0.1-2.4-0.4c-0.7-0.3-1.2-0.7-1.7-1.2c-0.4-0.5-0.8-1.1-1-1.8s-0.3-1.4-0.3-2.2
		s0.1-1.6,0.4-2.3c0.2-0.7,0.6-1.3,1-1.8c0.5-0.5,1-0.9,1.7-1.2c0.7-0.3,1.4-0.4,2.3-0.4c0.9,0,1.7,0.1,2.3,0.4
		c0.7,0.3,1.2,0.7,1.7,1.2c0.4,0.5,0.8,1.1,1,1.8c0.2,0.7,0.3,1.5,0.3,2.3s-0.1,1.6-0.3,2.2s-0.6,1.3-1,1.8c-0.4,0.5-1,0.9-1.7,1.2
		C242.3,31.2,241.5,31.4,240.6,31.4z M240.7,28.7c0.6,0,1-0.3,1.3-0.8c0.3-0.5,0.4-1.3,0.4-2.2c0-0.9-0.1-1.6-0.4-2.2
		s-0.7-0.8-1.3-0.8s-1,0.3-1.3,0.8c-0.3,0.5-0.4,1.3-0.4,2.2c0,0.9,0.1,1.6,0.4,2.2S240,28.7,240.7,28.7z"/>
	<path class="copy_purpleFill" d="M247.1,20.3h3.5v5.9c0,0.7,0.1,1.2,0.3,1.5c0.2,0.3,0.6,0.5,1.1,0.5c0.6,0,1-0.2,1.3-0.7
		c0.3-0.4,0.5-1.1,0.5-2.1v-5.2h3.5V31H254v-1.6c-0.3,0.6-0.7,1-1.1,1.3c-0.5,0.3-1.2,0.5-2,0.5c-1.3,0-2.2-0.4-2.8-1.1
		c-0.6-0.7-0.9-1.8-0.9-3.2V20.3z"/>
	<path class="copy_purpleFill" d="M259.8,22.6h-1.7v-2.3h0.3c0.5,0,1-0.1,1.3-0.3c0.3-0.2,0.6-0.4,0.7-0.7c0.2-0.3,0.3-0.6,0.4-1
		s0.2-0.8,0.3-1.1h2.2v3.1h2.2v2.3h-2.2v5c0,0.3,0.1,0.6,0.2,0.8s0.4,0.3,0.8,0.3c0.1,0,0.3,0,0.4,0s0.4-0.1,0.6-0.2l0.2,2.5
		c-0.4,0.2-0.8,0.3-1.2,0.3s-0.8,0.1-1.2,0.1c-0.7,0-1.2-0.1-1.6-0.3s-0.8-0.4-1-0.7s-0.4-0.6-0.5-1.1s-0.2-0.9-0.2-1.4V22.6z"/>
	<path class="copy_purpleFill" d="M270.7,16.2h3.5v5.5c0.3-0.5,0.7-0.9,1.2-1.2s1.2-0.5,2.1-0.5c1.2,0,2.1,0.4,2.7,1.2c0.6,0.8,0.9,1.9,0.9,3.4
		V31h-3.5v-5.8c0-0.7-0.1-1.2-0.4-1.6c-0.2-0.4-0.6-0.6-1.2-0.6c-0.5,0-0.9,0.2-1.2,0.6c-0.3,0.4-0.5,1.1-0.5,2.1V31h-3.5V16.2z"/>
	<path class="copy_purpleFill" d="M287.5,31.4c-0.9,0-1.7-0.1-2.4-0.4c-0.7-0.3-1.2-0.7-1.7-1.2c-0.4-0.5-0.8-1.1-1-1.8s-0.3-1.4-0.3-2.2
		s0.1-1.6,0.4-2.3c0.2-0.7,0.6-1.3,1-1.8c0.5-0.5,1-0.9,1.7-1.2c0.7-0.3,1.4-0.4,2.3-0.4c0.9,0,1.7,0.1,2.3,0.4
		c0.7,0.3,1.2,0.7,1.7,1.2c0.4,0.5,0.8,1.1,1,1.8c0.2,0.7,0.3,1.5,0.3,2.3s-0.1,1.6-0.3,2.2s-0.6,1.3-1,1.8c-0.4,0.5-1,0.9-1.7,1.2
		C289.1,31.2,288.4,31.4,287.5,31.4z M287.5,28.7c0.6,0,1-0.3,1.3-0.8c0.3-0.5,0.4-1.3,0.4-2.2c0-0.9-0.1-1.6-0.4-2.2
		s-0.7-0.8-1.3-0.8s-1,0.3-1.3,0.8c-0.3,0.5-0.4,1.3-0.4,2.2c0,0.9,0.1,1.6,0.4,2.2S286.9,28.7,287.5,28.7z"/>
	<path class="copy_purpleFill" d="M292.8,20.3h3.8l1.6,7.3l1.4-7.3h3.7l1.4,7.3l1.6-7.3h3.8L306.5,31h-3.8l-1.3-5.7L300,31h-3.8L292.8,20.3z"/>
	<path class="copy_purpleFill" d="M324.7,28.8c-0.5,0.9-1.2,1.6-2,2c-0.8,0.4-1.8,0.6-2.8,0.6c-1,0-1.8-0.1-2.5-0.4s-1.2-0.7-1.7-1.2
		c-0.4-0.5-0.8-1.1-1-1.8s-0.3-1.4-0.3-2.2c0-0.9,0.1-1.7,0.4-2.4s0.6-1.3,1.1-1.8s1-0.9,1.7-1.1c0.7-0.3,1.4-0.4,2.3-0.4
		c1.1,0,2,0.2,2.8,0.7s1.4,1.1,1.9,2l-2.9,1.4c-0.2-0.5-0.4-0.9-0.8-1.1c-0.3-0.2-0.6-0.3-1-0.3c-0.7,0-1.1,0.3-1.4,0.8
		c-0.3,0.5-0.4,1.2-0.4,2c0,0.3,0,0.7,0.1,1c0.1,0.4,0.2,0.7,0.3,1s0.4,0.6,0.6,0.8c0.3,0.2,0.6,0.3,1,0.3c0.5,0,0.9-0.1,1.2-0.4
		c0.3-0.3,0.5-0.6,0.7-1.1L324.7,28.8z"/>
	<path class="copy_purpleFill" d="M330.2,31.4c-0.9,0-1.7-0.1-2.4-0.4c-0.7-0.3-1.2-0.7-1.7-1.2c-0.4-0.5-0.8-1.1-1-1.8s-0.3-1.4-0.3-2.2
		s0.1-1.6,0.4-2.3c0.2-0.7,0.6-1.3,1-1.8c0.5-0.5,1-0.9,1.7-1.2c0.7-0.3,1.4-0.4,2.3-0.4c0.9,0,1.7,0.1,2.3,0.4
		c0.7,0.3,1.2,0.7,1.7,1.2c0.4,0.5,0.8,1.1,1,1.8c0.2,0.7,0.3,1.5,0.3,2.3s-0.1,1.6-0.3,2.2s-0.6,1.3-1,1.8c-0.4,0.5-1,0.9-1.7,1.2
		C331.9,31.2,331.1,31.4,330.2,31.4z M330.3,28.7c0.6,0,1-0.3,1.3-0.8c0.3-0.5,0.4-1.3,0.4-2.2c0-0.9-0.1-1.6-0.4-2.2
		s-0.7-0.8-1.3-0.8s-1,0.3-1.3,0.8c-0.3,0.5-0.4,1.3-0.4,2.2c0,0.9,0.1,1.6,0.4,2.2S329.6,28.7,330.3,28.7z"/>
	<path class="copy_purpleFill" d="M336.7,20.3h3.2l0.3,1.5c0.3-0.6,0.7-1,1.2-1.3c0.5-0.3,1.1-0.5,1.9-0.5c0.9,0,1.5,0.2,2,0.6
		c0.5,0.4,0.8,0.8,1,1.3c0.1-0.2,0.3-0.5,0.4-0.7s0.4-0.4,0.7-0.6c0.3-0.2,0.6-0.3,1-0.4c0.4-0.1,0.8-0.2,1.3-0.2
		c0.8,0,1.4,0.1,1.8,0.4c0.5,0.3,0.8,0.6,1.1,1c0.3,0.4,0.4,0.9,0.5,1.4c0.1,0.5,0.1,1.1,0.1,1.6V31h-3.5v-5.6
		c0-0.8-0.1-1.4-0.3-1.8c-0.2-0.4-0.6-0.6-1.1-0.6c-0.2,0-0.3,0-0.5,0.1c-0.2,0.1-0.3,0.2-0.5,0.4c-0.1,0.2-0.3,0.4-0.4,0.8
		c-0.1,0.3-0.1,0.8-0.1,1.3V31h-3.5v-5.7c0-0.8-0.1-1.3-0.3-1.7s-0.6-0.6-1.1-0.6c-0.2,0-0.3,0-0.5,0.1c-0.2,0.1-0.3,0.2-0.5,0.4
		c-0.1,0.2-0.3,0.5-0.4,0.9c-0.1,0.4-0.1,0.9-0.1,1.5V31h-3.5V20.3z"/>
	<path class="copy_purpleFill" d="M354.7,20.3h3.5v1.4c0.2-0.5,0.6-0.9,1.1-1.2c0.5-0.3,1.1-0.5,1.8-0.5c1.2,0,2.2,0.5,2.9,1.4
		c0.7,0.9,1.1,2.3,1.1,4.2c0,1.1-0.1,2-0.4,2.8c-0.3,0.7-0.6,1.3-1,1.7c-0.4,0.4-0.9,0.7-1.4,0.9c-0.5,0.2-1,0.3-1.4,0.3
		c-0.5,0-1.1-0.1-1.6-0.3c-0.5-0.2-0.9-0.5-1.1-0.9v4.6h-3.5V20.3z M358.3,25.8c0,0.4,0,0.7,0.1,1c0.1,0.3,0.2,0.6,0.3,0.9
		c0.1,0.2,0.3,0.4,0.5,0.6c0.2,0.1,0.5,0.2,0.7,0.2c0.5,0,0.9-0.2,1.2-0.7c0.3-0.5,0.4-1.1,0.4-2.1s-0.1-1.6-0.4-2.1
		s-0.7-0.7-1.2-0.7c-0.3,0-0.5,0.1-0.7,0.2c-0.2,0.1-0.4,0.3-0.5,0.6c-0.1,0.2-0.2,0.5-0.3,0.8c0,0.3-0.1,0.6-0.1,1V25.8z"/>
	<path class="copy_purpleFill" d="M372.5,31c-0.1-0.2-0.2-0.4-0.2-0.6s-0.1-0.5-0.1-0.7c-0.2,0.4-0.5,0.8-1,1.1c-0.5,0.3-1.1,0.5-1.9,0.5
		c-0.6,0-1.1-0.1-1.5-0.3c-0.4-0.2-0.8-0.4-1.1-0.7s-0.5-0.7-0.7-1.1s-0.2-0.9-0.2-1.4c0-0.5,0.1-1,0.3-1.4c0.2-0.4,0.5-0.7,0.8-1
		c0.4-0.3,0.8-0.5,1.3-0.7s1.1-0.3,1.7-0.4l2.1-0.3v-0.2c0-0.4-0.1-0.7-0.3-0.9c-0.2-0.2-0.6-0.2-1-0.2c-0.7,0-1.2,0.1-1.7,0.4
		c-0.5,0.2-0.9,0.5-1.2,0.8l-1.7-2.3c0.2-0.2,0.5-0.4,0.8-0.6c0.3-0.2,0.7-0.4,1.1-0.5c0.4-0.1,0.9-0.3,1.4-0.4
		c0.5-0.1,1.1-0.1,1.7-0.1c1.6,0,2.7,0.3,3.4,1c0.7,0.7,1,1.7,1,3.1v3.8c0,0.4,0,0.8,0,1.1s0,0.6,0.1,0.8c0,0.2,0.1,0.4,0.1,0.6
		c0.1,0.2,0.1,0.4,0.2,0.6H372.5z M371.9,26.3l-1.4,0.3c-0.5,0.1-0.8,0.2-1.1,0.4c-0.2,0.2-0.3,0.5-0.3,0.8c0,0.3,0.1,0.6,0.3,0.8
		c0.2,0.2,0.5,0.3,0.8,0.3c0.5,0,0.9-0.2,1.2-0.6c0.3-0.4,0.5-0.9,0.5-1.6V26.3z"/>
	<path class="copy_purpleFill" d="M377.1,20.3h3.2l0.3,1.5c0.3-0.5,0.8-0.9,1.4-1.3c0.6-0.3,1.2-0.5,2-0.5c2.4,0,3.5,1.5,3.5,4.5V31h-3.5v-5.6
		c0-0.8-0.1-1.4-0.4-1.8s-0.6-0.5-1.2-0.5c-0.3,0-0.5,0-0.7,0.1c-0.2,0.1-0.4,0.2-0.5,0.5c-0.2,0.2-0.3,0.5-0.4,0.9
		c-0.1,0.4-0.1,0.8-0.1,1.4v5h-3.5V20.3z"/>
	<path class="copy_purpleFill" d="M389,16.1h3.5v2.8H389V16.1z M389,20.3h3.5V31H389V20.3z"/>
	<path class="copy_purpleFill" d="M397.3,26.5c0.1,0.8,0.4,1.4,0.8,1.7c0.4,0.3,0.9,0.5,1.4,0.5c0.4,0,0.8-0.1,1.2-0.3c0.3-0.2,0.6-0.5,0.9-0.9
		l2.6,1.5c-0.5,0.8-1.2,1.4-2.1,1.8s-1.8,0.6-2.8,0.6c-0.9,0-1.7-0.1-2.4-0.4c-0.7-0.3-1.3-0.7-1.8-1.2c-0.5-0.5-0.8-1.1-1.1-1.8
		c-0.2-0.7-0.4-1.4-0.4-2.2c0-0.8,0.1-1.6,0.4-2.3c0.3-0.7,0.6-1.3,1.1-1.8c0.5-0.5,1-0.9,1.7-1.2c0.7-0.3,1.4-0.4,2.3-0.4
		c0.8,0,1.6,0.1,2.2,0.4c0.6,0.3,1.2,0.7,1.6,1.2c0.4,0.5,0.8,1.1,1,1.8c0.2,0.7,0.3,1.5,0.3,2.4c0,0.2,0,0.3,0,0.4
		c0,0.1,0,0.2,0,0.2H397.3z M399.1,22.6c-1,0-1.6,0.6-1.8,1.9h3.4c0-0.5-0.1-1-0.4-1.4C400.1,22.8,399.7,22.6,399.1,22.6z"/>
	<path class="copy_purpleFill" d="M406.3,27.5c0.2,0.2,0.4,0.3,0.6,0.5c0.2,0.2,0.5,0.3,0.8,0.4s0.6,0.2,0.9,0.3s0.6,0.1,0.9,0.1
		c0.3,0,0.5,0,0.8-0.1s0.4-0.3,0.4-0.5c0-0.3-0.1-0.5-0.4-0.6s-0.6-0.3-1-0.4c-0.4-0.1-0.9-0.2-1.4-0.4c-0.5-0.1-0.9-0.3-1.4-0.6
		c-0.4-0.3-0.8-0.6-1-1c-0.3-0.4-0.4-1-0.4-1.6c0-0.6,0.1-1.1,0.4-1.6s0.6-0.8,1-1.1s0.9-0.5,1.4-0.6c0.5-0.1,1.1-0.2,1.7-0.2
		c1,0,1.8,0.1,2.5,0.3c0.7,0.2,1.4,0.5,2,0.9l-1.6,2.4c-0.1-0.1-0.3-0.3-0.5-0.4c-0.2-0.1-0.5-0.2-0.7-0.3c-0.3-0.1-0.6-0.2-0.9-0.3
		c-0.3-0.1-0.6-0.1-0.9-0.1c-0.2,0-0.4,0-0.6,0.1c-0.2,0.1-0.2,0.2-0.2,0.5c0,0.2,0.1,0.4,0.4,0.6c0.3,0.1,0.6,0.3,1,0.4
		c0.4,0.1,0.9,0.3,1.3,0.4c0.5,0.2,0.9,0.4,1.3,0.6c0.4,0.3,0.8,0.6,1,1c0.3,0.4,0.4,0.9,0.4,1.5s-0.1,1.2-0.4,1.6
		c-0.3,0.5-0.6,0.8-1.1,1.1c-0.4,0.3-0.9,0.5-1.5,0.7c-0.5,0.1-1.1,0.2-1.6,0.2c-2,0-3.7-0.5-5-1.5L406.3,27.5z"/>
	<path class="copy_purpleFill" d="M419.5,16.2h3.5V31h-3.5V16.2z"/>
	<path class="copy_purpleFill" d="M424.7,16.1h3.5v2.8h-3.5V16.1z M424.7,20.3h3.5V31h-3.5V20.3z"/>
	<path class="copy_purpleFill" d="M429.9,16.2h3.5v8.1l3.5-3.9h4.3l-4.2,4.1l4.2,6.6h-4l-2.4-4.5l-1.4,1.3V31h-3.5V16.2z"/>
	<path class="copy_purpleFill" d="M444.4,26.5c0.1,0.8,0.4,1.4,0.8,1.7c0.4,0.3,0.9,0.5,1.4,0.5c0.4,0,0.8-0.1,1.2-0.3c0.3-0.2,0.6-0.5,0.9-0.9
		l2.6,1.5c-0.5,0.8-1.2,1.4-2.1,1.8s-1.8,0.6-2.8,0.6c-0.9,0-1.7-0.1-2.4-0.4c-0.7-0.3-1.3-0.7-1.8-1.2c-0.5-0.5-0.8-1.1-1.1-1.8
		c-0.2-0.7-0.4-1.4-0.4-2.2c0-0.8,0.1-1.6,0.4-2.3c0.3-0.7,0.6-1.3,1.1-1.8c0.5-0.5,1-0.9,1.7-1.2c0.7-0.3,1.4-0.4,2.3-0.4
		c0.8,0,1.6,0.1,2.2,0.4c0.6,0.3,1.2,0.7,1.6,1.2c0.4,0.5,0.8,1.1,1,1.8c0.2,0.7,0.3,1.5,0.3,2.4c0,0.2,0,0.3,0,0.4
		c0,0.1,0,0.2,0,0.2H444.4z M446.2,22.6c-1,0-1.6,0.6-1.8,1.9h3.4c0-0.5-0.1-1-0.4-1.4C447.2,22.8,446.7,22.6,446.2,22.6z"/>
	<path class="copy_purpleFill" d="M457.2,32.1c0.3,0.1,0.5,0.2,0.8,0.2c0.3,0.1,0.5,0.1,0.7,0.1c0.3,0,0.6-0.1,0.7-0.2c0.2-0.1,0.3-0.4,0.4-0.7
		L456,20.3h3.8l1.8,7.2l1.8-7.2h3.8L463.5,31c-0.2,0.6-0.4,1.1-0.6,1.6c-0.2,0.5-0.5,0.9-0.8,1.3c-0.3,0.4-0.8,0.6-1.3,0.8
		c-0.5,0.2-1.2,0.3-2,0.3c-0.1,0-0.3,0-0.5,0c-0.2,0-0.4,0-0.6,0c-0.2,0-0.4,0-0.6-0.1s-0.3-0.1-0.5-0.1L457.2,32.1z"/>
	<path class="copy_purpleFill" d="M472.4,31.4c-0.9,0-1.7-0.1-2.4-0.4c-0.7-0.3-1.2-0.7-1.7-1.2c-0.4-0.5-0.8-1.1-1-1.8
		c-0.2-0.7-0.3-1.4-0.3-2.2s0.1-1.6,0.4-2.3c0.2-0.7,0.6-1.3,1-1.8c0.5-0.5,1-0.9,1.7-1.2c0.7-0.3,1.4-0.4,2.3-0.4
		c0.9,0,1.7,0.1,2.3,0.4c0.7,0.3,1.2,0.7,1.7,1.2c0.4,0.5,0.8,1.1,1,1.8c0.2,0.7,0.3,1.5,0.3,2.3s-0.1,1.6-0.3,2.2
		c-0.2,0.7-0.6,1.3-1,1.8c-0.4,0.5-1,0.9-1.7,1.2C474.1,31.2,473.3,31.4,472.4,31.4z M472.5,28.7c0.6,0,1-0.3,1.3-0.8
		s0.4-1.3,0.4-2.2c0-0.9-0.1-1.6-0.4-2.2s-0.7-0.8-1.3-0.8s-1,0.3-1.3,0.8c-0.3,0.5-0.4,1.3-0.4,2.2c0,0.9,0.1,1.6,0.4,2.2
		C471.4,28.4,471.9,28.7,472.5,28.7z"/>
	<path class="copy_purpleFill" d="M478.9,20.3h3.5v5.9c0,0.7,0.1,1.2,0.3,1.5c0.2,0.3,0.6,0.5,1.1,0.5c0.6,0,1-0.2,1.3-0.7
		c0.3-0.4,0.5-1.1,0.5-2.1v-5.2h3.5V31h-3.3v-1.6c-0.3,0.6-0.7,1-1.1,1.3c-0.5,0.3-1.2,0.5-2,0.5c-1.3,0-2.2-0.4-2.8-1.1
		c-0.6-0.7-0.9-1.8-0.9-3.2V20.3z"/>
	<path class="copy_purpleFill" d="M490.8,20.3h3.2l0.3,2c0.3-0.6,0.8-1.2,1.4-1.6c0.6-0.4,1.4-0.7,2.3-0.7v3.6c-0.3-0.1-0.6-0.1-1.1-0.1
		c-0.3,0-0.6,0-0.9,0.1s-0.6,0.2-0.8,0.3c-0.2,0.2-0.4,0.5-0.6,0.8c-0.2,0.4-0.2,0.9-0.2,1.5V31h-3.5V20.3z"/>
	<path class="copy_purpleFill" d="M499.6,27.5c0.2,0.2,0.4,0.3,0.6,0.5c0.2,0.2,0.5,0.3,0.8,0.4s0.6,0.2,0.9,0.3s0.6,0.1,0.9,0.1
		c0.3,0,0.5,0,0.8-0.1s0.4-0.3,0.4-0.5c0-0.3-0.1-0.5-0.4-0.6s-0.6-0.3-1-0.4c-0.4-0.1-0.9-0.2-1.4-0.4c-0.5-0.1-0.9-0.3-1.4-0.6
		c-0.4-0.3-0.8-0.6-1-1c-0.3-0.4-0.4-1-0.4-1.6c0-0.6,0.1-1.1,0.4-1.6s0.6-0.8,1-1.1s0.9-0.5,1.4-0.6c0.5-0.1,1.1-0.2,1.7-0.2
		c1,0,1.8,0.1,2.5,0.3c0.7,0.2,1.4,0.5,2,0.9l-1.6,2.4c-0.1-0.1-0.3-0.3-0.5-0.4c-0.2-0.1-0.5-0.2-0.7-0.3c-0.3-0.1-0.6-0.2-0.9-0.3
		c-0.3-0.1-0.6-0.1-0.9-0.1c-0.2,0-0.4,0-0.6,0.1c-0.2,0.1-0.2,0.2-0.2,0.5c0,0.2,0.1,0.4,0.4,0.6c0.3,0.1,0.6,0.3,1,0.4
		c0.4,0.1,0.9,0.3,1.3,0.4c0.5,0.2,0.9,0.4,1.3,0.6c0.4,0.3,0.8,0.6,1,1c0.3,0.4,0.4,0.9,0.4,1.5s-0.1,1.2-0.4,1.6
		c-0.3,0.5-0.6,0.8-1.1,1.1c-0.4,0.3-0.9,0.5-1.5,0.7c-0.5,0.1-1.1,0.2-1.6,0.2c-2,0-3.7-0.5-5-1.5L499.6,27.5z"/>
</g>
<g>
	<path class="copy_purpleFill" d="M197.4,55c-0.1-0.2-0.2-0.4-0.2-0.6c-0.1-0.3-0.1-0.5-0.1-0.7c-0.2,0.4-0.5,0.8-1,1.1
		c-0.5,0.3-1.1,0.5-1.9,0.5c-0.6,0-1.1-0.1-1.5-0.3c-0.4-0.2-0.8-0.4-1.1-0.7c-0.3-0.3-0.5-0.7-0.7-1.1c-0.2-0.4-0.2-0.9-0.2-1.4
		c0-0.5,0.1-1,0.3-1.4c0.2-0.4,0.5-0.7,0.8-1s0.8-0.5,1.3-0.7s1.1-0.3,1.7-0.4l2.1-0.3v-0.2c0-0.4-0.1-0.7-0.3-0.9s-0.6-0.2-1-0.2
		c-0.7,0-1.2,0.1-1.7,0.4c-0.5,0.2-0.9,0.5-1.2,0.8l-1.7-2.3c0.2-0.2,0.5-0.4,0.8-0.6c0.3-0.2,0.7-0.4,1.1-0.5
		c0.4-0.1,0.9-0.3,1.4-0.4c0.5-0.1,1.1-0.1,1.7-0.1c1.6,0,2.7,0.3,3.4,1c0.7,0.7,1,1.7,1,3.1v3.8c0,0.4,0,0.8,0,1.1
		c0,0.3,0,0.6,0.1,0.8c0,0.2,0.1,0.4,0.1,0.6c0.1,0.2,0.1,0.4,0.2,0.6H197.4z M196.8,50.3l-1.4,0.3c-0.5,0.1-0.8,0.2-1.1,0.4
		c-0.2,0.2-0.3,0.5-0.3,0.8c0,0.3,0.1,0.6,0.3,0.8c0.2,0.2,0.5,0.3,0.8,0.3c0.5,0,0.9-0.2,1.2-0.6c0.3-0.4,0.5-0.9,0.5-1.6V50.3z"/>
	<path class="copy_purpleFill" d="M202.1,44.3h3.2l0.3,2c0.3-0.6,0.8-1.2,1.4-1.6c0.6-0.4,1.4-0.7,2.3-0.7v3.6c-0.3-0.1-0.6-0.1-1.1-0.1
		c-0.3,0-0.6,0-0.9,0.1c-0.3,0-0.6,0.2-0.8,0.3c-0.2,0.2-0.4,0.5-0.6,0.8c-0.2,0.4-0.2,0.9-0.2,1.5V55h-3.5V44.3z"/>
	<path class="copy_purpleFill" d="M212.9,50.5c0.1,0.8,0.4,1.4,0.8,1.7c0.4,0.3,0.9,0.5,1.4,0.5c0.4,0,0.8-0.1,1.2-0.3s0.6-0.5,0.9-0.9l2.6,1.5
		c-0.5,0.8-1.2,1.4-2.1,1.8c-0.8,0.4-1.8,0.6-2.8,0.6c-0.9,0-1.7-0.1-2.4-0.4c-0.7-0.3-1.3-0.7-1.8-1.2c-0.5-0.5-0.8-1.1-1.1-1.8
		c-0.2-0.7-0.4-1.4-0.4-2.2c0-0.8,0.1-1.6,0.4-2.3s0.6-1.3,1.1-1.8s1-0.9,1.7-1.2c0.7-0.3,1.4-0.4,2.3-0.4c0.8,0,1.6,0.1,2.2,0.4
		c0.6,0.3,1.2,0.7,1.6,1.2s0.8,1.1,1,1.8c0.2,0.7,0.3,1.5,0.3,2.4c0,0.2,0,0.3,0,0.4c0,0.1,0,0.2,0,0.2H212.9z M214.7,46.6
		c-1,0-1.6,0.6-1.8,1.9h3.4c0-0.5-0.1-1-0.4-1.4C215.7,46.8,215.2,46.6,214.7,46.6z"/>
	<path class="copy_purpleFill" d="M226.4,51.5c0.2,0.2,0.4,0.3,0.6,0.5c0.2,0.2,0.5,0.3,0.8,0.4c0.3,0.1,0.6,0.2,0.9,0.3
		c0.3,0.1,0.6,0.1,0.9,0.1c0.3,0,0.5,0,0.8-0.1c0.3-0.1,0.4-0.3,0.4-0.5c0-0.3-0.1-0.5-0.4-0.6c-0.3-0.1-0.6-0.3-1-0.4
		c-0.4-0.1-0.9-0.2-1.4-0.4s-0.9-0.3-1.4-0.6s-0.8-0.6-1-1c-0.3-0.4-0.4-1-0.4-1.6c0-0.6,0.1-1.1,0.4-1.6c0.3-0.4,0.6-0.8,1-1.1
		s0.9-0.5,1.4-0.6c0.5-0.1,1.1-0.2,1.7-0.2c1,0,1.8,0.1,2.5,0.3c0.7,0.2,1.4,0.5,2,0.9l-1.6,2.4c-0.1-0.1-0.3-0.3-0.5-0.4
		c-0.2-0.1-0.5-0.2-0.7-0.3c-0.3-0.1-0.6-0.2-0.9-0.3c-0.3-0.1-0.6-0.1-0.9-0.1c-0.2,0-0.4,0-0.6,0.1c-0.2,0.1-0.2,0.2-0.2,0.5
		c0,0.2,0.1,0.4,0.4,0.6c0.3,0.1,0.6,0.3,1,0.4c0.4,0.1,0.9,0.3,1.3,0.4s0.9,0.4,1.3,0.6c0.4,0.3,0.8,0.6,1,1
		c0.3,0.4,0.4,0.9,0.4,1.5c0,0.6-0.1,1.2-0.4,1.6s-0.6,0.8-1.1,1.1c-0.4,0.3-0.9,0.5-1.5,0.7c-0.5,0.1-1.1,0.2-1.6,0.2
		c-2,0-3.7-0.5-5-1.5L226.4,51.5z"/>
	<path class="copy_purpleFill" d="M241.7,55c-0.1-0.2-0.2-0.4-0.2-0.6c-0.1-0.3-0.1-0.5-0.1-0.7c-0.2,0.4-0.5,0.8-1,1.1
		c-0.5,0.3-1.1,0.5-1.9,0.5c-0.6,0-1.1-0.1-1.5-0.3c-0.4-0.2-0.8-0.4-1.1-0.7c-0.3-0.3-0.5-0.7-0.7-1.1c-0.2-0.4-0.2-0.9-0.2-1.4
		c0-0.5,0.1-1,0.3-1.4c0.2-0.4,0.5-0.7,0.8-1s0.8-0.5,1.3-0.7s1.1-0.3,1.7-0.4l2.1-0.3v-0.2c0-0.4-0.1-0.7-0.3-0.9s-0.6-0.2-1-0.2
		c-0.7,0-1.2,0.1-1.7,0.4c-0.5,0.2-0.9,0.5-1.2,0.8l-1.7-2.3c0.2-0.2,0.5-0.4,0.8-0.6c0.3-0.2,0.7-0.4,1.1-0.5
		c0.4-0.1,0.9-0.3,1.4-0.4c0.5-0.1,1.1-0.1,1.7-0.1c1.6,0,2.7,0.3,3.4,1c0.7,0.7,1,1.7,1,3.1v3.8c0,0.4,0,0.8,0,1.1
		c0,0.3,0,0.6,0.1,0.8c0,0.2,0.1,0.4,0.1,0.6c0.1,0.2,0.1,0.4,0.2,0.6H241.7z M241.2,50.3l-1.4,0.3c-0.5,0.1-0.8,0.2-1.1,0.4
		c-0.2,0.2-0.3,0.5-0.3,0.8c0,0.3,0.1,0.6,0.3,0.8c0.2,0.2,0.5,0.3,0.8,0.3c0.5,0,0.9-0.2,1.2-0.6c0.3-0.4,0.5-0.9,0.5-1.6V50.3z"/>
	<path class="copy_purpleFill" d="M245,44.3h3.9l1.7,7.4l1.7-7.4h3.8L252.7,55h-4.1L245,44.3z"/>
	<path class="copy_purpleFill" d="M256.8,40.1h3.5v2.8h-3.5V40.1z M256.8,44.3h3.5V55h-3.5V44.3z"/>
	<path class="copy_purpleFill" d="M262,44.3h3.2l0.3,1.5c0.3-0.5,0.8-0.9,1.4-1.3c0.6-0.3,1.2-0.5,2-0.5c2.4,0,3.5,1.5,3.5,4.5V55h-3.5v-5.6
		c0-0.8-0.1-1.4-0.4-1.8s-0.6-0.5-1.2-0.5c-0.3,0-0.5,0-0.7,0.1s-0.4,0.2-0.5,0.5c-0.2,0.2-0.3,0.5-0.4,0.9s-0.1,0.8-0.1,1.4v5H262
		V44.3z"/>
	<path class="copy_purpleFill" d="M275.2,55c0.4,0.4,0.9,0.7,1.5,1s1.2,0.4,1.9,0.4c0.7,0,1.1-0.1,1.4-0.4s0.4-0.7,0.4-1.3v-1
		c-0.2,0.4-0.6,0.7-1.1,0.9c-0.5,0.3-1,0.4-1.7,0.4c-0.5,0-1-0.1-1.5-0.3c-0.5-0.2-0.9-0.5-1.3-0.9c-0.4-0.4-0.7-1-0.9-1.6
		s-0.4-1.5-0.4-2.5c0-0.9,0.1-1.7,0.3-2.4c0.2-0.7,0.5-1.3,0.9-1.7c0.4-0.5,0.8-0.8,1.4-1.1c0.5-0.2,1.1-0.4,1.7-0.4
		c0.7,0,1.2,0.1,1.7,0.4c0.5,0.3,0.9,0.7,1.2,1.3l0.5-1.4h2.8v10.1c0,0.7-0.1,1.3-0.3,1.8c-0.2,0.6-0.5,1-0.9,1.4
		c-0.4,0.4-1,0.7-1.6,0.9c-0.7,0.2-1.5,0.3-2.4,0.3c-0.6,0-1.2,0-1.7-0.1c-0.5-0.1-1-0.2-1.5-0.4c-0.4-0.1-0.8-0.3-1.2-0.5
		c-0.4-0.2-0.7-0.4-0.9-0.5L275.2,55z M280.4,49.6c0-0.3,0-0.7-0.1-1s-0.1-0.6-0.3-0.8c-0.1-0.2-0.3-0.4-0.5-0.6
		c-0.2-0.2-0.5-0.2-0.8-0.2c-0.2,0-0.4,0-0.6,0.1c-0.2,0.1-0.4,0.2-0.5,0.5s-0.3,0.5-0.4,0.8c-0.1,0.3-0.1,0.7-0.1,1.2
		c0,0.9,0.1,1.6,0.5,2s0.7,0.6,1.2,0.6s0.9-0.2,1.2-0.6s0.4-1,0.4-1.8V49.6z"/>
	<path class="copy_purpleFill" d="M289.8,44.3h3.5v5.9c0,0.7,0.1,1.2,0.3,1.5s0.6,0.5,1.1,0.5c0.6,0,1-0.2,1.3-0.7c0.3-0.4,0.5-1.1,0.5-2.1v-5.2
		h3.5V55h-3.3v-1.6c-0.3,0.6-0.7,1-1.1,1.3c-0.5,0.3-1.2,0.5-2,0.5c-1.3,0-2.2-0.4-2.8-1.1c-0.6-0.7-0.9-1.8-0.9-3.2V44.3z"/>
	<path class="copy_purpleFill" d="M301.7,44.3h3.5v1.4c0.2-0.5,0.6-0.9,1.1-1.2c0.5-0.3,1.1-0.5,1.8-0.5c1.2,0,2.2,0.5,2.9,1.4
		c0.7,0.9,1.1,2.3,1.1,4.2c0,1.1-0.1,2-0.4,2.8c-0.3,0.7-0.6,1.3-1,1.7c-0.4,0.4-0.9,0.7-1.4,0.9c-0.5,0.2-1,0.3-1.4,0.3
		c-0.5,0-1.1-0.1-1.6-0.3c-0.5-0.2-0.9-0.5-1.1-0.9v4.6h-3.5V44.3z M305.2,49.8c0,0.4,0,0.7,0.1,1s0.2,0.6,0.3,0.9
		c0.1,0.2,0.3,0.4,0.5,0.6c0.2,0.1,0.5,0.2,0.7,0.2c0.5,0,0.9-0.2,1.2-0.7c0.3-0.5,0.4-1.1,0.4-2.1c0-0.9-0.1-1.6-0.4-2.1
		s-0.7-0.7-1.2-0.7c-0.3,0-0.5,0.1-0.7,0.2c-0.2,0.1-0.4,0.3-0.5,0.6s-0.2,0.5-0.3,0.8c0,0.3-0.1,0.6-0.1,1V49.8z"/>
	<path class="copy_purpleFill" d="M318.4,46.6h-1.7v-2.3h0.3c0.5,0,1-0.1,1.3-0.3c0.3-0.2,0.6-0.4,0.7-0.7c0.2-0.3,0.3-0.6,0.4-1
		s0.2-0.8,0.3-1.1h2.2v3.1h2.2v2.3h-2.2v5c0,0.3,0.1,0.6,0.2,0.8s0.4,0.3,0.8,0.3c0.1,0,0.3,0,0.4,0c0.2,0,0.4-0.1,0.6-0.2l0.2,2.5
		c-0.4,0.2-0.8,0.3-1.2,0.3c-0.4,0.1-0.8,0.1-1.2,0.1c-0.7,0-1.2-0.1-1.6-0.3s-0.8-0.4-1-0.7s-0.4-0.6-0.5-1.1
		c-0.1-0.4-0.2-0.9-0.2-1.4V46.6z"/>
	<path class="copy_purpleFill" d="M329.8,55.4c-0.9,0-1.7-0.1-2.4-0.4c-0.7-0.3-1.2-0.7-1.7-1.2c-0.4-0.5-0.8-1.1-1-1.8
		c-0.2-0.7-0.3-1.4-0.3-2.2c0-0.8,0.1-1.6,0.4-2.3c0.2-0.7,0.6-1.3,1-1.8c0.5-0.5,1-0.9,1.7-1.2c0.7-0.3,1.4-0.4,2.3-0.4
		c0.9,0,1.7,0.1,2.3,0.4c0.7,0.3,1.2,0.7,1.7,1.2c0.4,0.5,0.8,1.1,1,1.8s0.3,1.5,0.3,2.3c0,0.8-0.1,1.6-0.3,2.2
		c-0.2,0.7-0.6,1.3-1,1.8c-0.4,0.5-1,0.9-1.7,1.2C331.5,55.2,330.7,55.4,329.8,55.4z M329.9,52.7c0.6,0,1-0.3,1.3-0.8
		c0.3-0.5,0.4-1.3,0.4-2.2c0-0.9-0.1-1.6-0.4-2.2s-0.7-0.8-1.3-0.8s-1,0.3-1.3,0.8c-0.3,0.5-0.4,1.3-0.4,2.2c0,0.9,0.1,1.6,0.4,2.2
		C328.8,52.4,329.2,52.7,329.9,52.7z"/>
	<path class="copy_purpleFill" d="M343,47.5c-0.3-0.1-0.6-0.2-0.9-0.4s-0.6-0.4-0.8-0.6c-0.2-0.3-0.4-0.5-0.5-0.8s-0.2-0.6-0.2-1
		c0-0.7,0.1-1.3,0.4-1.8c0.3-0.5,0.7-0.9,1.1-1.2c0.5-0.3,1-0.6,1.6-0.7c0.6-0.2,1.2-0.2,1.9-0.2c0.6,0,1.2,0.1,1.8,0.2
		c0.6,0.2,1.1,0.4,1.6,0.7c0.5,0.3,0.9,0.7,1.2,1.2c0.3,0.5,0.5,1.1,0.5,1.7c0,0.7-0.2,1.3-0.7,1.9c-0.5,0.5-1.1,0.9-1.7,1
		c0.9,0.2,1.6,0.5,2.1,1.1c0.5,0.6,0.8,1.3,0.8,2.3c0,0.8-0.2,1.5-0.5,2.1c-0.3,0.6-0.7,1-1.3,1.4s-1.1,0.6-1.8,0.8
		c-0.7,0.2-1.3,0.3-2,0.3c-0.7,0-1.3-0.1-2-0.3c-0.7-0.2-1.3-0.4-1.8-0.8c-0.5-0.4-0.9-0.8-1.3-1.4s-0.5-1.3-0.5-2.1
		c0-0.9,0.2-1.6,0.7-2.2C341.3,48,342.1,47.6,343,47.5z M345.6,52.6c0.5,0,1-0.2,1.3-0.5c0.4-0.4,0.5-0.8,0.5-1.4
		c0-0.6-0.2-1.1-0.5-1.4c-0.3-0.4-0.8-0.5-1.3-0.5c-0.6,0-1.1,0.2-1.4,0.5c-0.3,0.4-0.5,0.8-0.5,1.4c0,0.5,0.2,1,0.5,1.4
		S345.1,52.6,345.6,52.6z M344.1,44.8c0,0.5,0.1,0.9,0.4,1.2c0.3,0.3,0.7,0.5,1.1,0.5s0.8-0.2,1.1-0.5s0.4-0.8,0.4-1.2
		c0-0.5-0.1-0.9-0.4-1.2c-0.3-0.3-0.7-0.5-1.1-0.5c-0.5,0-0.9,0.2-1.1,0.5C344.2,43.9,344.1,44.3,344.1,44.8z"/>
	<path class="copy_purpleFill" d="M359.2,44.7c-0.2-0.4-0.4-0.8-0.7-1s-0.7-0.4-1.1-0.4c-0.2,0-0.5,0-0.7,0.1s-0.5,0.3-0.7,0.5
		c-0.2,0.3-0.4,0.6-0.5,1.1c-0.1,0.5-0.2,1-0.2,1.8v0.1c0,0,0,0.1,0,0.2c0.2-0.3,0.6-0.7,1.1-1c0.5-0.3,1.2-0.5,2-0.5
		c0.7,0,1.3,0.1,1.8,0.3c0.5,0.2,1,0.5,1.4,0.9c0.4,0.4,0.7,0.9,0.9,1.5c0.2,0.6,0.3,1.2,0.3,1.9c0,0.7-0.1,1.3-0.3,1.9
		c-0.2,0.6-0.6,1.1-1,1.6c-0.4,0.5-1,0.8-1.6,1.1s-1.4,0.4-2.3,0.4c-0.8,0-1.5-0.1-2.2-0.4c-0.7-0.3-1.3-0.7-1.9-1.3
		c-0.5-0.6-1-1.3-1.3-2.1c-0.3-0.8-0.5-1.9-0.5-3c0-1.5,0.2-2.7,0.5-3.7s0.8-1.8,1.4-2.4c0.6-0.6,1.2-1.1,1.9-1.3
		c0.7-0.3,1.3-0.4,2-0.4c0.6,0,1.2,0.1,1.7,0.2c0.5,0.1,1,0.3,1.4,0.6c0.4,0.2,0.7,0.5,1,0.9s0.5,0.7,0.7,1L359.2,44.7z M357.3,52.8
		c0.5,0,0.9-0.2,1.2-0.7c0.3-0.4,0.4-1,0.4-1.6c0-0.7-0.1-1.2-0.4-1.7c-0.3-0.4-0.7-0.7-1.2-0.7c-0.5,0-0.9,0.2-1.2,0.7
		c-0.3,0.5-0.4,1-0.4,1.7c0,0.7,0.2,1.3,0.5,1.7C356.4,52.6,356.8,52.8,357.3,52.8z"/>
	<path class="copy_purpleFill" d="M367.3,48.9c-0.7,0-1.2-0.1-1.8-0.4c-0.5-0.2-0.9-0.6-1.3-1c-0.4-0.4-0.6-0.9-0.8-1.5
		c-0.2-0.6-0.3-1.2-0.3-1.8c0-0.6,0.1-1.2,0.3-1.7s0.5-1,0.8-1.4c0.4-0.4,0.8-0.7,1.3-1s1.1-0.3,1.7-0.3c0.7,0,1.4,0.1,1.9,0.3
		c0.5,0.2,0.9,0.5,1.3,1c0.3,0.4,0.6,0.9,0.7,1.4s0.2,1.1,0.2,1.7c0,0.6-0.1,1.2-0.2,1.8c-0.2,0.6-0.4,1.1-0.7,1.5
		c-0.3,0.4-0.8,0.8-1.3,1S368.1,48.9,367.3,48.9z M367.3,46.7c0.2,0,0.4-0.1,0.5-0.2s0.2-0.3,0.3-0.6c0.1-0.2,0.1-0.5,0.1-0.8
		c0-0.3,0-0.6,0-0.8c0-0.3,0-0.5,0-0.8c0-0.3-0.1-0.5-0.1-0.7c-0.1-0.2-0.2-0.4-0.3-0.5c-0.1-0.1-0.3-0.2-0.5-0.2s-0.4,0.1-0.5,0.2
		c-0.1,0.1-0.2,0.3-0.3,0.5c-0.1,0.2-0.1,0.5-0.1,0.7c0,0.3,0,0.5,0,0.8c0,0.3,0,0.5,0,0.8c0,0.3,0.1,0.5,0.1,0.8
		c0.1,0.2,0.2,0.4,0.3,0.6S367.1,46.7,367.3,46.7z M375.3,39.6l1.9,0.9l-7.3,14.9l-1.9-0.8L375.3,39.6z M377.9,55.3
		c-0.7,0-1.2-0.1-1.8-0.4s-0.9-0.6-1.3-1c-0.4-0.4-0.6-0.9-0.8-1.5c-0.2-0.6-0.3-1.2-0.3-1.8c0-0.6,0.1-1.2,0.3-1.7
		c0.2-0.5,0.5-1,0.8-1.4c0.4-0.4,0.8-0.7,1.3-1c0.5-0.2,1.1-0.3,1.7-0.3c0.7,0,1.4,0.1,1.9,0.3c0.5,0.2,0.9,0.5,1.3,1
		c0.3,0.4,0.6,0.9,0.7,1.4s0.2,1.1,0.2,1.7c0,0.6-0.1,1.2-0.2,1.8c-0.2,0.6-0.4,1.1-0.7,1.5s-0.8,0.8-1.3,1
		C379.3,55.1,378.6,55.3,377.9,55.3z M377.9,53c0.2,0,0.4-0.1,0.5-0.2c0.1-0.2,0.2-0.4,0.3-0.6c0.1-0.2,0.1-0.5,0.1-0.8s0-0.6,0-0.8
		c0-0.3,0-0.5,0-0.8c0-0.3-0.1-0.5-0.1-0.7c-0.1-0.2-0.2-0.4-0.3-0.5c-0.1-0.1-0.3-0.2-0.5-0.2s-0.4,0.1-0.5,0.2
		c-0.1,0.1-0.2,0.3-0.3,0.5c-0.1,0.2-0.1,0.5-0.1,0.7c0,0.3,0,0.5,0,0.8c0,0.3,0,0.5,0,0.8c0,0.3,0.1,0.5,0.1,0.8
		c0.1,0.2,0.2,0.4,0.3,0.6C377.5,53,377.7,53,377.9,53z"/>
	<path class="copy_purpleFill" d="M387.4,44.3h3.2l0.3,1.5c0.3-0.6,0.7-1,1.2-1.3c0.5-0.3,1.1-0.5,1.9-0.5c0.9,0,1.5,0.2,2,0.6
		c0.5,0.4,0.8,0.8,1,1.3c0.1-0.2,0.3-0.5,0.4-0.7c0.2-0.2,0.4-0.4,0.7-0.6c0.3-0.2,0.6-0.3,1-0.4c0.4-0.1,0.8-0.2,1.3-0.2
		c0.8,0,1.4,0.1,1.8,0.4c0.5,0.3,0.8,0.6,1.1,1c0.3,0.4,0.4,0.9,0.5,1.4s0.1,1.1,0.1,1.6V55h-3.5v-5.6c0-0.8-0.1-1.4-0.3-1.8
		c-0.2-0.4-0.6-0.6-1.1-0.6c-0.2,0-0.3,0-0.5,0.1c-0.2,0.1-0.3,0.2-0.5,0.4c-0.1,0.2-0.3,0.4-0.4,0.8c-0.1,0.3-0.1,0.8-0.1,1.3V55
		h-3.5v-5.7c0-0.8-0.1-1.3-0.3-1.7s-0.6-0.6-1.1-0.6c-0.2,0-0.3,0-0.5,0.1c-0.2,0.1-0.3,0.2-0.5,0.4c-0.1,0.2-0.3,0.5-0.4,0.8
		c-0.1,0.4-0.1,0.9-0.1,1.5V55h-3.5V44.3z"/>
	<path class="copy_purpleFill" d="M410.3,55.4c-0.9,0-1.7-0.1-2.4-0.4c-0.7-0.3-1.2-0.7-1.7-1.2c-0.4-0.5-0.8-1.1-1-1.8
		c-0.2-0.7-0.3-1.4-0.3-2.2c0-0.8,0.1-1.6,0.4-2.3c0.2-0.7,0.6-1.3,1-1.8c0.5-0.5,1-0.9,1.7-1.2c0.7-0.3,1.4-0.4,2.3-0.4
		c0.9,0,1.7,0.1,2.3,0.4c0.7,0.3,1.2,0.7,1.7,1.2s0.8,1.1,1,1.8c0.2,0.7,0.3,1.5,0.3,2.3c0,0.8-0.1,1.6-0.3,2.2
		c-0.2,0.7-0.6,1.3-1,1.8s-1,0.9-1.7,1.2C412,55.2,411.2,55.4,410.3,55.4z M410.4,52.7c0.6,0,1-0.3,1.3-0.8c0.3-0.5,0.4-1.3,0.4-2.2
		c0-0.9-0.1-1.6-0.4-2.2s-0.7-0.8-1.3-0.8s-1,0.3-1.3,0.8c-0.3,0.5-0.4,1.3-0.4,2.2c0,0.9,0.1,1.6,0.4,2.2
		C409.3,52.4,409.8,52.7,410.4,52.7z"/>
	<path class="copy_purpleFill" d="M416.9,44.3h3.2l0.3,2c0.3-0.6,0.8-1.2,1.4-1.6c0.6-0.4,1.4-0.7,2.3-0.7v3.6c-0.3-0.1-0.6-0.1-1.1-0.1
		c-0.3,0-0.6,0-0.9,0.1s-0.6,0.2-0.8,0.3c-0.2,0.2-0.4,0.5-0.6,0.8c-0.2,0.4-0.2,0.9-0.2,1.5V55h-3.5V44.3z"/>
	<path class="copy_purpleFill" d="M427.7,50.5c0.1,0.8,0.4,1.4,0.8,1.7c0.4,0.3,0.9,0.5,1.4,0.5c0.4,0,0.8-0.1,1.2-0.3c0.3-0.2,0.6-0.5,0.9-0.9
		l2.6,1.5c-0.5,0.8-1.2,1.4-2.1,1.8c-0.8,0.4-1.8,0.6-2.8,0.6c-0.9,0-1.7-0.1-2.4-0.4c-0.7-0.3-1.3-0.7-1.8-1.2
		c-0.5-0.5-0.8-1.1-1.1-1.8c-0.2-0.7-0.4-1.4-0.4-2.2c0-0.8,0.1-1.6,0.4-2.3s0.6-1.3,1.1-1.8s1-0.9,1.7-1.2c0.7-0.3,1.4-0.4,2.3-0.4
		c0.8,0,1.6,0.1,2.2,0.4c0.6,0.3,1.2,0.7,1.6,1.2c0.4,0.5,0.8,1.1,1,1.8c0.2,0.7,0.3,1.5,0.3,2.4c0,0.2,0,0.3,0,0.4s0,0.2,0,0.2
		H427.7z M429.5,46.6c-1,0-1.6,0.6-1.8,1.9h3.4c0-0.5-0.1-1-0.4-1.4C430.5,46.8,430.1,46.6,429.5,46.6z"/>
	<path class="copy_purpleFill" d="M435.7,51.1h3.9V55h-3.9V51.1z"/>
</g>
<g>
	<path class="copy_grayFill" d="M191.1,65h4.1c2.1,0,3.6,0.5,4.7,1.4c1.1,1,1.6,2.5,1.6,4.6c0,2-0.5,3.5-1.6,4.5c-1.1,1-2.6,1.5-4.5,1.5h-4.2
		V65z M195.2,75.1c0.7,0,1.3-0.1,1.7-0.3s0.8-0.5,1.1-0.9c0.3-0.4,0.5-0.8,0.6-1.3c0.1-0.5,0.2-1,0.2-1.6s-0.1-1.1-0.2-1.6
		c-0.1-0.5-0.3-0.9-0.6-1.3c-0.3-0.4-0.6-0.7-1.1-0.9c-0.5-0.2-1.1-0.3-1.8-0.3h-1.6v8.2H195.2z"/>
	<path class="copy_grayFill" d="M206.7,77.3c-0.7,0-1.3-0.1-1.8-0.3c-0.5-0.2-1-0.6-1.3-1s-0.6-0.9-0.8-1.4s-0.3-1.1-0.3-1.8
		c0-0.6,0.1-1.2,0.3-1.8s0.5-1,0.8-1.4s0.8-0.7,1.3-1c0.5-0.2,1.1-0.3,1.8-0.3s1.3,0.1,1.8,0.3c0.5,0.2,1,0.5,1.3,1
		c0.4,0.4,0.6,0.9,0.8,1.4c0.2,0.5,0.3,1.1,0.3,1.8c0,0.6-0.1,1.2-0.3,1.8c-0.2,0.5-0.4,1-0.8,1.4c-0.4,0.4-0.8,0.7-1.3,1
		C208,77.2,207.4,77.3,206.7,77.3z M206.8,75.5c0.6,0,1-0.3,1.3-0.8c0.3-0.5,0.4-1.2,0.4-2c0-0.8-0.1-1.5-0.4-2
		c-0.3-0.5-0.7-0.8-1.3-0.8c-0.6,0-1,0.3-1.3,0.8s-0.4,1.2-0.4,2c0,0.8,0.1,1.5,0.4,2C205.7,75.3,206.1,75.5,206.8,75.5z"/>
	<path class="copy_grayFill" d="M211.4,68.5h2.5l1.4,6.3l1.3-6.3h2.5l1.3,6.3l1.4-6.3h2.5l-2.7,8.5h-2.5l-1.3-5.3l-1.3,5.3h-2.5L211.4,68.5z"
		/>
	<path class="copy_grayFill" d="M225.5,68.5h2.1l0.2,1.4c0.2-0.4,0.6-0.8,1.1-1.1s1-0.5,1.7-0.5c0.9,0,1.6,0.3,2.1,0.9
		c0.4,0.6,0.7,1.4,0.7,2.6V77h-2.3v-4.8c0-0.7-0.1-1.2-0.4-1.5c-0.2-0.3-0.6-0.5-1.1-0.5c-0.5,0-0.9,0.2-1.2,0.6
		c-0.3,0.4-0.5,1-0.5,2V77h-2.3V68.5z"/>
	<path class="copy_grayFill" d="M235.1,65h2.3v12h-2.3V65z"/>
	<path class="copy_grayFill" d="M243,77.3c-0.7,0-1.3-0.1-1.8-0.3c-0.5-0.2-1-0.6-1.3-1s-0.6-0.9-0.8-1.4s-0.3-1.1-0.3-1.8
		c0-0.6,0.1-1.2,0.3-1.8s0.5-1,0.8-1.4s0.8-0.7,1.3-1c0.5-0.2,1.1-0.3,1.8-0.3s1.3,0.1,1.8,0.3c0.5,0.2,1,0.5,1.3,1
		c0.4,0.4,0.6,0.9,0.8,1.4c0.2,0.5,0.3,1.1,0.3,1.8c0,0.6-0.1,1.2-0.3,1.8c-0.2,0.5-0.4,1-0.8,1.4c-0.4,0.4-0.8,0.7-1.3,1
		C244.3,77.2,243.7,77.3,243,77.3z M243.1,75.5c0.6,0,1-0.3,1.3-0.8c0.3-0.5,0.4-1.2,0.4-2c0-0.8-0.1-1.5-0.4-2
		c-0.3-0.5-0.7-0.8-1.3-0.8c-0.6,0-1,0.3-1.3,0.8s-0.4,1.2-0.4,2c0,0.8,0.1,1.5,0.4,2C242,75.3,242.4,75.5,243.1,75.5z"/>
	<path class="copy_grayFill" d="M253.7,77c-0.1-0.2-0.1-0.3-0.2-0.6c0-0.2-0.1-0.4-0.1-0.6c-0.2,0.4-0.5,0.8-0.9,1.1c-0.4,0.3-0.9,0.4-1.6,0.4
		c-0.9,0-1.6-0.3-2-0.8s-0.7-1.2-0.7-2c0-0.4,0.1-0.8,0.2-1.1s0.4-0.6,0.7-0.8c0.3-0.2,0.6-0.4,1-0.5c0.4-0.1,0.8-0.2,1.3-0.3
		l1.9-0.3v-0.3c0-0.5-0.1-0.8-0.4-1c-0.2-0.2-0.6-0.2-0.9-0.2c-0.6,0-1.1,0.1-1.5,0.3c-0.4,0.2-0.7,0.5-1,0.8l-1.1-1.5
		c0.4-0.3,0.9-0.6,1.5-0.9c0.6-0.3,1.4-0.4,2.4-0.4c1.2,0,2,0.3,2.6,0.8s0.8,1.3,0.8,2.4v3.2c0,0.3,0,0.6,0,0.8s0,0.4,0,0.6
		c0,0.2,0.1,0.3,0.1,0.5c0,0.2,0.1,0.3,0.2,0.5H253.7z M253.3,73l-1.5,0.3c-0.5,0.1-0.9,0.2-1.1,0.4c-0.2,0.2-0.3,0.5-0.3,0.8
		c0,0.3,0.1,0.6,0.3,0.8c0.2,0.2,0.5,0.3,0.9,0.3c0.5,0,0.9-0.2,1.2-0.6s0.5-0.9,0.5-1.5V73z"/>
	<path class="copy_grayFill" d="M262.9,75.7c-0.2,0.5-0.5,0.9-0.9,1.2c-0.4,0.3-0.9,0.4-1.5,0.4c-0.5,0-1-0.1-1.4-0.3s-0.8-0.5-1.1-0.9
		c-0.3-0.4-0.5-0.9-0.7-1.4c-0.2-0.6-0.2-1.2-0.2-1.9c0-0.8,0.1-1.5,0.3-2c0.2-0.6,0.4-1,0.8-1.4c0.3-0.4,0.7-0.6,1.1-0.8
		c0.4-0.2,0.8-0.3,1.3-0.3c0.6,0,1.1,0.1,1.5,0.4s0.7,0.6,0.8,0.9V65h2.3v12h-2.2V75.7z M262.8,72.5c0-0.3,0-0.6-0.1-0.9
		c-0.1-0.3-0.2-0.5-0.3-0.7c-0.1-0.2-0.3-0.4-0.5-0.5c-0.2-0.1-0.5-0.2-0.8-0.2c-0.6,0-1,0.2-1.3,0.7c-0.3,0.5-0.4,1.1-0.4,1.8
		c0,0.8,0.2,1.5,0.5,2c0.3,0.5,0.7,0.7,1.2,0.7c0.3,0,0.5-0.1,0.7-0.2s0.4-0.3,0.5-0.6c0.1-0.2,0.2-0.5,0.3-0.8
		c0.1-0.3,0.1-0.6,0.1-1V72.5z"/>
	<path class="copy_grayFill" d="M271.5,70h-1.4v-1.5h0.3c0.4,0,0.7-0.1,0.9-0.2s0.4-0.3,0.6-0.5c0.1-0.2,0.2-0.5,0.3-0.8
		c0.1-0.3,0.1-0.6,0.2-1h1.4v2.4h1.8V70h-1.8v4.5c0,0.3,0.1,0.6,0.2,0.8c0.1,0.2,0.4,0.3,0.7,0.3c0.1,0,0.2,0,0.4,0
		c0.1,0,0.3-0.1,0.4-0.1l0.2,1.6c-0.3,0.1-0.6,0.2-0.9,0.3c-0.3,0-0.6,0.1-0.9,0.1c-0.5,0-0.9-0.1-1.2-0.2c-0.3-0.1-0.6-0.3-0.7-0.5
		c-0.2-0.2-0.3-0.5-0.4-0.8c-0.1-0.3-0.1-0.6-0.1-1V70z"/>
	<path class="copy_grayFill" d="M276.9,65h2.3v4.8c0.2-0.4,0.5-0.8,1-1.1c0.4-0.3,1-0.5,1.7-0.5c0.9,0,1.6,0.3,2.1,0.9
		c0.4,0.6,0.7,1.5,0.7,2.6V77h-2.3v-4.9c0-0.6-0.1-1.1-0.3-1.4c-0.2-0.3-0.6-0.5-1.1-0.5c-0.5,0-0.9,0.2-1.2,0.6
		c-0.3,0.4-0.5,1-0.5,1.8V77h-2.3V65z"/>
	<path class="copy_grayFill" d="M288.4,73.3c0.1,0.8,0.3,1.4,0.7,1.7c0.4,0.4,0.8,0.5,1.4,0.5c0.8,0,1.4-0.4,1.9-1.1l1.7,1
		c-0.4,0.6-0.9,1.1-1.5,1.4c-0.6,0.3-1.3,0.5-2.2,0.5c-0.7,0-1.3-0.1-1.9-0.3c-0.5-0.2-1-0.5-1.4-1s-0.6-0.9-0.8-1.4
		s-0.3-1.1-0.3-1.8c0-0.6,0.1-1.2,0.3-1.8c0.2-0.6,0.5-1,0.8-1.4c0.4-0.4,0.8-0.7,1.3-1c0.5-0.2,1.1-0.3,1.8-0.3
		c0.6,0,1.2,0.1,1.7,0.3c0.5,0.2,0.9,0.5,1.2,0.9c0.3,0.4,0.6,0.9,0.8,1.4c0.2,0.6,0.3,1.2,0.3,1.8c0,0.1,0,0.3,0,0.3
		c0,0.1,0,0.1,0,0.2H288.4z M290.1,69.9c-0.5,0-0.9,0.2-1.2,0.5c-0.3,0.4-0.5,0.9-0.5,1.5h3.5c0-0.3,0-0.5-0.1-0.8
		c-0.1-0.2-0.2-0.5-0.3-0.6c-0.1-0.2-0.3-0.3-0.5-0.5C290.7,70,290.4,69.9,290.1,69.9z"/>
	<path class="copy_grayFill" d="M307,75.2c-0.4,0.7-0.9,1.2-1.5,1.6c-0.6,0.3-1.4,0.5-2.2,0.5c-0.7,0-1.4-0.1-1.9-0.3c-0.5-0.2-1-0.6-1.3-1
		c-0.3-0.4-0.6-0.9-0.8-1.4c-0.2-0.5-0.2-1.1-0.2-1.8c0-0.7,0.1-1.3,0.3-1.9s0.5-1,0.8-1.4s0.8-0.7,1.3-0.9c0.5-0.2,1.1-0.3,1.8-0.3
		c0.9,0,1.6,0.2,2.2,0.6c0.6,0.4,1.1,0.9,1.5,1.6l-1.9,0.9c-0.2-0.5-0.4-0.8-0.7-1c-0.3-0.2-0.6-0.3-1-0.3c-0.3,0-0.6,0.1-0.8,0.2
		c-0.2,0.1-0.4,0.3-0.6,0.6c-0.2,0.2-0.3,0.5-0.3,0.8c-0.1,0.3-0.1,0.7-0.1,1c0,0.3,0,0.7,0.1,1c0.1,0.3,0.2,0.6,0.3,0.9
		c0.2,0.3,0.4,0.5,0.6,0.7c0.3,0.2,0.6,0.3,1,0.3c0.5,0,0.8-0.1,1.1-0.4s0.5-0.6,0.7-1L307,75.2z"/>
	<path class="copy_grayFill" d="M313.3,77c-0.1-0.2-0.1-0.3-0.2-0.6c0-0.2-0.1-0.4-0.1-0.6c-0.2,0.4-0.5,0.8-0.9,1.1c-0.4,0.3-0.9,0.4-1.6,0.4
		c-0.9,0-1.6-0.3-2-0.8s-0.7-1.2-0.7-2c0-0.4,0.1-0.8,0.2-1.1s0.4-0.6,0.7-0.8c0.3-0.2,0.6-0.4,1-0.5c0.4-0.1,0.8-0.2,1.3-0.3
		l1.9-0.3v-0.3c0-0.5-0.1-0.8-0.4-1c-0.2-0.2-0.6-0.2-0.9-0.2c-0.6,0-1.1,0.1-1.5,0.3c-0.4,0.2-0.7,0.5-1,0.8l-1.1-1.5
		c0.4-0.3,0.9-0.6,1.5-0.9c0.6-0.3,1.4-0.4,2.4-0.4c1.2,0,2,0.3,2.6,0.8s0.8,1.3,0.8,2.4v3.2c0,0.3,0,0.6,0,0.8s0,0.4,0,0.6
		c0,0.2,0.1,0.3,0.1,0.5c0,0.2,0.1,0.3,0.2,0.5H313.3z M312.9,73l-1.5,0.3c-0.5,0.1-0.9,0.2-1.1,0.4c-0.2,0.2-0.3,0.5-0.3,0.8
		c0,0.3,0.1,0.6,0.3,0.8c0.2,0.2,0.5,0.3,0.9,0.3c0.5,0,0.9-0.2,1.2-0.6s0.5-0.9,0.5-1.5V73z"/>
	<path class="copy_grayFill" d="M317.7,74.5c0.1,0.1,0.3,0.3,0.5,0.4c0.2,0.1,0.4,0.3,0.6,0.4c0.2,0.1,0.5,0.2,0.7,0.3
		c0.2,0.1,0.5,0.1,0.8,0.1c0.3,0,0.6-0.1,0.9-0.2c0.3-0.1,0.4-0.3,0.4-0.6c0-0.3-0.1-0.5-0.3-0.6s-0.5-0.3-0.9-0.4
		c-0.3-0.1-0.7-0.2-1.1-0.3s-0.8-0.3-1.1-0.5c-0.3-0.2-0.6-0.5-0.9-0.8c-0.2-0.3-0.3-0.7-0.3-1.3c0-0.5,0.1-0.9,0.3-1.2
		s0.4-0.6,0.8-0.8s0.7-0.4,1.1-0.5c0.4-0.1,0.8-0.2,1.3-0.2c0.7,0,1.3,0.1,1.9,0.3c0.6,0.2,1,0.4,1.5,0.8l-1.1,1.5
		c-0.1-0.1-0.3-0.2-0.4-0.3c-0.2-0.1-0.4-0.2-0.6-0.3c-0.2-0.1-0.4-0.2-0.7-0.2c-0.2-0.1-0.5-0.1-0.7-0.1c-0.3,0-0.5,0.1-0.7,0.2
		s-0.3,0.3-0.3,0.6c0,0.2,0.1,0.4,0.3,0.6s0.5,0.3,0.9,0.4c0.3,0.1,0.7,0.2,1.1,0.4c0.4,0.1,0.8,0.3,1.1,0.5
		c0.3,0.2,0.6,0.5,0.9,0.8c0.2,0.3,0.3,0.7,0.3,1.2c0,0.5-0.1,0.9-0.3,1.2c-0.2,0.4-0.5,0.6-0.8,0.9s-0.7,0.4-1.1,0.5
		c-0.4,0.1-0.8,0.2-1.3,0.2c-1.6,0-2.8-0.4-3.8-1.3L317.7,74.5z"/>
	<path class="copy_grayFill" d="M327.1,73.3c0.1,0.8,0.3,1.4,0.7,1.7c0.4,0.4,0.8,0.5,1.4,0.5c0.8,0,1.4-0.4,1.9-1.1l1.7,1
		c-0.4,0.6-0.9,1.1-1.5,1.4c-0.6,0.3-1.3,0.5-2.2,0.5c-0.7,0-1.3-0.1-1.9-0.3c-0.5-0.2-1-0.5-1.4-1s-0.6-0.9-0.8-1.4
		s-0.3-1.1-0.3-1.8c0-0.6,0.1-1.2,0.3-1.8c0.2-0.6,0.5-1,0.8-1.4c0.4-0.4,0.8-0.7,1.3-1c0.5-0.2,1.1-0.3,1.8-0.3
		c0.6,0,1.2,0.1,1.7,0.3c0.5,0.2,0.9,0.5,1.2,0.9c0.3,0.4,0.6,0.9,0.8,1.4c0.2,0.6,0.3,1.2,0.3,1.8c0,0.1,0,0.3,0,0.3
		c0,0.1,0,0.1,0,0.2H327.1z M328.9,69.9c-0.5,0-0.9,0.2-1.2,0.5c-0.3,0.4-0.5,0.9-0.5,1.5h3.5c0-0.3,0-0.5-0.1-0.8
		c-0.1-0.2-0.2-0.5-0.3-0.6c-0.1-0.2-0.3-0.3-0.5-0.5C329.5,70,329.2,69.9,328.9,69.9z"/>
	<path class="copy_grayFill" d="M338.8,74.5c0.1,0.1,0.3,0.3,0.5,0.4c0.2,0.1,0.4,0.3,0.6,0.4c0.2,0.1,0.5,0.2,0.7,0.3
		c0.2,0.1,0.5,0.1,0.8,0.1c0.3,0,0.6-0.1,0.9-0.2c0.3-0.1,0.4-0.3,0.4-0.6c0-0.3-0.1-0.5-0.3-0.6s-0.5-0.3-0.9-0.4
		c-0.3-0.1-0.7-0.2-1.1-0.3s-0.8-0.3-1.1-0.5c-0.3-0.2-0.6-0.5-0.9-0.8c-0.2-0.3-0.3-0.7-0.3-1.3c0-0.5,0.1-0.9,0.3-1.2
		s0.4-0.6,0.8-0.8s0.7-0.4,1.1-0.5c0.4-0.1,0.8-0.2,1.3-0.2c0.7,0,1.3,0.1,1.9,0.3c0.6,0.2,1,0.4,1.5,0.8l-1.1,1.5
		c-0.1-0.1-0.3-0.2-0.4-0.3c-0.2-0.1-0.4-0.2-0.6-0.3c-0.2-0.1-0.4-0.2-0.7-0.2c-0.2-0.1-0.5-0.1-0.7-0.1c-0.3,0-0.5,0.1-0.7,0.2
		s-0.3,0.3-0.3,0.6c0,0.2,0.1,0.4,0.3,0.6s0.5,0.3,0.9,0.4c0.3,0.1,0.7,0.2,1.1,0.4c0.4,0.1,0.8,0.3,1.1,0.5
		c0.3,0.2,0.6,0.5,0.9,0.8c0.2,0.3,0.3,0.7,0.3,1.2c0,0.5-0.1,0.9-0.3,1.2c-0.2,0.4-0.5,0.6-0.8,0.9s-0.7,0.4-1.1,0.5
		c-0.4,0.1-0.8,0.2-1.3,0.2c-1.6,0-2.8-0.4-3.8-1.3L338.8,74.5z"/>
	<path class="copy_grayFill" d="M346.9,70h-1.4v-1.5h0.3c0.4,0,0.7-0.1,0.9-0.2s0.4-0.3,0.6-0.5c0.1-0.2,0.2-0.5,0.3-0.8
		c0.1-0.3,0.1-0.6,0.2-1h1.4v2.4h1.8V70h-1.8v4.5c0,0.3,0.1,0.6,0.2,0.8c0.1,0.2,0.4,0.3,0.7,0.3c0.1,0,0.2,0,0.4,0
		c0.1,0,0.3-0.1,0.4-0.1l0.2,1.6c-0.3,0.1-0.6,0.2-0.9,0.3c-0.3,0-0.6,0.1-0.9,0.1c-0.5,0-0.9-0.1-1.2-0.2c-0.3-0.1-0.6-0.3-0.7-0.5
		c-0.2-0.2-0.3-0.5-0.4-0.8c-0.1-0.3-0.1-0.6-0.1-1V70z"/>
	<path class="copy_grayFill" d="M352.2,68.5h2.3v4.9c0,1.3,0.4,1.9,1.3,1.9c0.5,0,1-0.2,1.3-0.6c0.3-0.4,0.5-1.1,0.5-1.9v-4.2h2.3V77h-2.2
		v-1.4c-0.2,0.5-0.5,0.9-0.9,1.2c-0.4,0.3-1,0.5-1.7,0.5c-1,0-1.7-0.3-2.2-0.9s-0.7-1.4-0.7-2.5V68.5z"/>
	<path class="copy_grayFill" d="M367.2,75.7c-0.2,0.5-0.5,0.9-0.9,1.2c-0.4,0.3-0.9,0.4-1.5,0.4c-0.5,0-1-0.1-1.4-0.3s-0.8-0.5-1.1-0.9
		c-0.3-0.4-0.5-0.9-0.7-1.4c-0.2-0.6-0.2-1.2-0.2-1.9c0-0.8,0.1-1.5,0.3-2c0.2-0.6,0.4-1,0.8-1.4c0.3-0.4,0.7-0.6,1.1-0.8
		c0.4-0.2,0.8-0.3,1.3-0.3c0.6,0,1.1,0.1,1.5,0.4c0.4,0.3,0.7,0.6,0.8,0.9V65h2.3v12h-2.2V75.7z M367.1,72.5c0-0.3,0-0.6-0.1-0.9
		c-0.1-0.3-0.2-0.5-0.3-0.7c-0.1-0.2-0.3-0.4-0.5-0.5c-0.2-0.1-0.5-0.2-0.8-0.2c-0.6,0-1,0.2-1.3,0.7c-0.3,0.5-0.4,1.1-0.4,1.8
		c0,0.8,0.2,1.5,0.5,2c0.3,0.5,0.7,0.7,1.2,0.7c0.3,0,0.5-0.1,0.7-0.2c0.2-0.1,0.4-0.3,0.5-0.6c0.1-0.2,0.2-0.5,0.3-0.8
		s0.1-0.6,0.1-1V72.5z"/>
	<path class="copy_grayFill" d="M371.3,78.2c0.2,0.1,0.4,0.1,0.6,0.1c0.2,0,0.4,0.1,0.6,0.1c0.3,0,0.5-0.1,0.7-0.2c0.2-0.2,0.3-0.5,0.4-0.9
		l-3-8.8h2.5l1.7,6.2l1.7-6.2h2.5l-2.8,8.2c-0.2,0.5-0.4,1-0.5,1.5c-0.2,0.4-0.4,0.8-0.6,1.1s-0.6,0.5-0.9,0.7
		c-0.4,0.2-0.9,0.2-1.5,0.2c-0.1,0-0.2,0-0.4,0c-0.1,0-0.3,0-0.4,0c-0.1,0-0.3,0-0.4,0c-0.1,0-0.2,0-0.3-0.1L371.3,78.2z"/>
	<path class="copy_grayFill" d="M379.2,74.4h2.6V77h-2.6V74.4z"/>
</g>
</svg>
