<svg version="1.1" id="Layer_1" xmlns="http://www.w3.org/2000/svg" x="0" y="0" viewBox="0 0 73.8 14.5" xml:space="preserve"><style>.copy-whiteFill{fill:#fff}</style><path class="copy-whiteFill" d="M1.8 8.4l.4.4c.1.1.3.2.5.3.2.1.4.2.7.3s.5.1.8.1c.4 0 .7-.1.9-.2s.4-.3.4-.6c0-.2 0-.3-.1-.4-.2-.1-.3-.2-.5-.3-.2-.1-.5-.2-.7-.2-.3-.1-.6-.1-1-.2-.9-.2-1.6-.6-2-1s-.6-1-.6-1.7c0-.4.1-.8.2-1.1.2-.5.4-.8.7-1.1.3-.3.7-.5 1.1-.7.5-.2 1-.2 1.6-.2.7 0 1.4.1 2 .4.6.2 1.2.6 1.6 1.1L6.4 4.7c-.3-.2-.6-.5-1-.7-.3-.2-.8-.2-1.3-.2-.2 0-.4 0-.6.1-.1 0-.2 0-.3.1 0 0-.1.1-.1.2v.2c-.1.3 0 .5.3.6.2.2.6.4 1.2.5.7.2 1.2.4 1.6.5.4.2.8.4 1 .6.3.2.4.5.5.8s.1.6.1 1c0 .5-.1.9-.3 1.3-.2.4-.5.7-.8.9s-.7.5-1.1.6c-.5.1-.9.2-1.4.2-.5 0-.9 0-1.3-.1-.5-.1-.9-.2-1.2-.3-.3-.1-.6-.3-.8-.4-.2-.2-.4-.3-.6-.5l1.5-1.7zM11.7 2h2.1l3.6 9.2h-2.5l-.7-1.9h-3.1l-.7 1.9H8.1L11.7 2zm2 5.6c-.2-.5-.3-.9-.5-1.3s-.3-.9-.5-1.5c-.1.5-.3 1-.4 1.5-.2.4-.3.9-.5 1.4h1.9zM16.3 2h2.5l.6 1.8c.2.6.4 1.2.6 1.7.2.6.4 1.1.5 1.6.2.5.3 1 .4 1.4.1-.4.2-.9.4-1.4s.3-1 .5-1.6c.2-.5.4-1.1.6-1.7L23 2h2.4l-3.6 9.2h-2.1L16.3 2zM26.3 2h6.5v1.8h-4.2v1.7h2.9v1.8h-2.9v2.2h4.3v1.8h-6.6V2zM37 2h2.7c.1.3.2.6.4.9s.3.7.4 1 .3.7.4 1c.1.3.2.6.4.9.1.3.2.5.3.7.1.2.1.4.2.5 0-.1.1-.3.2-.5s.2-.5.3-.7.2-.6.3-.9c.1-.3.3-.7.4-1 .1-.3.3-.7.4-1 .1-.3.3-.6.4-.9h2.6v9.2H44V9.6 7.9 6.4c0-.5 0-.8.1-1-.1.3-.2.6-.4 1s-.4.9-.6 1.5-.5 1.1-.7 1.7c-.2.6-.5 1.1-.7 1.6h-.2c-.2-.6-.5-1.1-.7-1.7-.3-.6-.5-1.1-.7-1.7-.2-.5-.4-1-.6-1.4-.2-.4-.3-.8-.4-1 0 .2 0 .6.1 1V11.2H37V2zM52 11.4c-.6 0-1.2-.1-1.8-.3-.6-.2-1.1-.5-1.5-.9s-.8-.9-1-1.5-.4-1.3-.4-2.1.1-1.5.4-2.1c.3-.6.6-1.1 1-1.5s.9-.7 1.5-.9c.6-.2 1.2-.3 1.8-.3.6 0 1.2.1 1.8.3.6.2 1.1.5 1.5.9.4.4.8.9 1 1.5.3.6.4 1.3.4 2.1s-.1 1.5-.4 2.1c-.3.6-.6 1.1-1 1.5-.4.4-.9.7-1.5.9-.6.2-1.2.3-1.8.3zm0-2c.3 0 .6-.1.9-.2.3-.1.5-.3.7-.5s.3-.5.5-.9.2-.8.2-1.2c0-.9-.2-1.6-.6-2.1-.4-.5-.9-.7-1.6-.7-.7 0-1.2.2-1.5.7-.6.5-.8 1.2-.8 2.1 0 .5.1.9.2 1.2.1.3.3.6.5.9s.4.4.7.5c.2.1.5.2.8.2zM57.7 2h3.8c.5 0 1 0 1.4.1.5.1.9.3 1.2.5.3.2.6.5.8.9.2.4.3.8.3 1.4 0 .4-.1.7-.2 1-.1.3-.3.5-.5.7-.2.2-.5.3-.7.5-.3.1-.5.2-.8.3.2 0 .5.1.7.2.2.1.4.3.5.6l1.8 3.1h-2.7L62.1 9c-.1-.2-.2-.4-.3-.5l-.3-.3c-.1-.1-.2-.1-.4-.1H60v3.1h-2.3V2zm3.7 4.3h.5c.2 0 .3-.1.4-.2s.2-.2.3-.4c.1-.2.1-.4.1-.7 0-.2 0-.4-.1-.6-.1-.2-.2-.3-.3-.4-.1-.1-.3-.1-.4-.2H60.2v2.5h1.2zM66.8 2h6.5v1.8h-4.2v1.7H72v1.8h-2.9v2.2h4.3v1.8h-6.6V2z"/></svg>