<svg version="1.1" id="Layer_1" xmlns="https://www.w3.org/2000/svg" x="0" y="0" viewBox="0 0 336 280" xml:space="preserve"><style>.purpleFill{fill:#662868}.yellowFill{fill:#fdbc40}.orangeFill{fill:#ec7623}</style><path class="purpleFill" d="M36.1 239l-.7 3.8h7.7L33 254.9l-.5 2.8H47l.6-3.8h-8l10-12 .5-2.9zM49.6 250.7c0-7 4.8-12.2 10.8-12.2 3.6 0 5.7 1.8 5.7 4.8 0 4.6-5.2 6.7-11.5 7.4.1 2.2.9 3.4 3 3.4 2 0 3.6-1 4.8-2l2 3.3c-1.5 1.2-3.8 2.7-7.5 2.7-4.8.1-7.3-3-7.3-7.4m5.4-3.2c3.8-.4 6.4-1.7 6.4-3.6 0-1-.6-1.5-1.8-1.5-2.4 0-4 2.4-4.6 5.1M71.6 230h4.9l-5 27.7h-4.9zM79.3 239h5l-3.4 18.7h-5l3.4-18.7zm.3-5.6c0-1.6 1.3-2.9 3-2.9 1.8 0 3 1.3 3 2.9 0 1.6-1.3 3-3 3-1.8 0-3-1.4-3-3M83.4 256.3l2.1-3.4c.9.6 2.2 1.5 4 1.5 1.5 0 2.3-.7 2.3-1.7 0-1.2-1.3-2.1-2.8-3.7-1.4-1.5-2.5-2.9-2.5-5.1 0-3.2 2.5-5.3 6.7-5.3 2.5 0 4.3.7 5.5 1.7l-2.2 3.2c-.6-.5-1.7-1.1-3.2-1.1-1.3 0-2 .5-2 1.6 0 .9 1 1.7 2.4 3.2 1.8 1.8 3.2 3.3 3.2 5.7 0 3.4-2.5 5.5-7.3 5.5-3.3-.2-5.2-1.4-6.2-2.1"/><path transform="rotate(-44.996 112.156 247.286)" class="yellowFill" d="M107.2 245.6h10v3.3h-10z"/><path transform="rotate(-45.001 116.858 233.212)" class="yellowFill" d="M111.9 231.5h10v3.3h-10z"/><path transform="rotate(-45.001 121.555 242.607)" class="yellowFill" d="M119.9 237.6h3.3v10h-3.3z"/><path transform="rotate(-44.996 107.46 237.892)" class="yellowFill" d="M105.8 232.9h3.3v10h-3.3z"/><path transform="rotate(-45.001 116.857 247.304)" class="orangeFill" d="M115.2 242.3h3.3v10h-3.3z"/><path transform="rotate(-45.001 112.16 233.212)" class="orangeFill" d="M110.5 228.2h3.3v10h-3.3z"/><path transform="rotate(-44.996 107.459 242.589)" class="orangeFill" d="M102.5 240.9h10v3.3h-10z"/><path transform="rotate(-45.004 121.55 237.893)" class="orangeFill" d="M116.6 236.2h10v3.3h-10z"/><path class="purpleFill" d="M123.9 247.3l-11.7-2.3 2.3-2.4 11.8 2.4zM114.5 237.9l-11.7-2.3 2.3-2.4 11.8 2.4zM112.2 240.3l-2.4 11.7-2.3-2.4 2.3-11.7zM121.6 230.9l-2.4 11.7-2.3-2.3 2.3-11.8zM97.8 256.4c0-1 .8-1.8 1.8-1.8s1.8.8 1.8 1.8-.8 1.8-1.8 1.8c-.9 0-1.8-.8-1.8-1.8m3.4 0c0-.9-.6-1.5-1.5-1.5s-1.5.6-1.5 1.5.6 1.5 1.5 1.5c.8 0 1.5-.6 1.5-1.5m-2.2-1.1h.7c.5 0 .7.3.7.6s-.2.5-.5.6c.1.1.2.1.3.3l.4.7h-.5l-.5-.7c-.1-.2-.2-.2-.3-.2v.9H99v-2.2zm.6.9c.2 0 .4 0 .4-.3 0-.2-.1-.3-.4-.3h-.3v.6h.3z"/></svg>