<?xml version="1.0" encoding="utf-8"?>
<!-- Generator: Adobe Illustrator 22.1.0, SVG Export Plug-In . SVG Version: 6.00 Build 0)  -->
<svg version="1.1" id="Layer_1" xmlns="https://www.w3.org/2000/svg" xmlns:xlink="https://www.w3.org/1999/xlink" x="0px" y="0px"
	 viewBox="0 0 300 250" style="enable-background:new 0 0 300 250;" xml:space="preserve">
<style type="text/css">
	.copy-purpleFill{fill:#662868;}
	.copy-grayFill{fill:#5D6770;}
</style>
<g>
	<path class="copy-purpleFill" d="M23.7,62.8h11.5v3.1h-7.4v3.5h5.1v3.1h-5.1V79h-4.1V62.8z"/>
	<path class="copy-purpleFill" d="M36.2,62.7h3.9v3.1h-3.9V62.7z M36.2,67.3h3.9V79h-3.9V67.3z"/>
	<path class="copy-purpleFill" d="M41.9,67.3h3.5l0.3,1.6c0.4-0.6,0.9-1,1.5-1.4s1.4-0.6,2.2-0.6c2.6,0,3.9,1.6,3.9,4.9V79h-3.9v-6.2
		c0-0.9-0.1-1.6-0.4-1.9c-0.3-0.4-0.7-0.6-1.3-0.6c-0.3,0-0.5,0-0.8,0.1c-0.2,0.1-0.4,0.3-0.6,0.5c-0.2,0.2-0.3,0.6-0.4,1
		c-0.1,0.4-0.1,0.9-0.1,1.5V79h-3.9V67.3z"/>
	<path class="copy-purpleFill" d="M62.1,77.4c-0.3,0.6-0.7,1.1-1.2,1.4s-1.1,0.5-1.9,0.5c-0.7,0-1.3-0.1-1.9-0.4c-0.6-0.3-1.1-0.7-1.5-1.2
		c-0.4-0.5-0.7-1.2-1-1.9c-0.2-0.8-0.3-1.7-0.3-2.7c0-1.1,0.1-2.1,0.4-2.9c0.3-0.8,0.6-1.4,1.1-1.9c0.4-0.5,0.9-0.8,1.5-1
		c0.6-0.2,1.1-0.3,1.7-0.3c0.7,0,1.3,0.1,1.8,0.4c0.5,0.3,0.9,0.6,1.1,1v-5.7h3.9V79h-3.7V77.4z M61.9,72.9c0-0.4,0-0.7-0.1-1.1
		c-0.1-0.3-0.2-0.6-0.3-0.9c-0.1-0.3-0.3-0.5-0.5-0.6c-0.2-0.2-0.5-0.2-0.8-0.2c-0.6,0-1,0.2-1.3,0.7c-0.3,0.5-0.4,1.2-0.4,2.1
		c0,1,0.2,1.8,0.5,2.3c0.3,0.6,0.8,0.8,1.3,0.8c0.3,0,0.6-0.1,0.8-0.2c0.2-0.2,0.4-0.4,0.5-0.7c0.1-0.3,0.2-0.6,0.3-1
		c0.1-0.4,0.1-0.8,0.1-1.2V72.9z"/>
	<path class="copy-purpleFill" d="M77.7,79.4c-1,0-1.9-0.2-2.6-0.5c-0.7-0.3-1.4-0.7-1.9-1.3c-0.5-0.6-0.9-1.2-1.1-2c-0.2-0.8-0.4-1.6-0.4-2.5
		s0.1-1.7,0.4-2.5c0.3-0.8,0.6-1.4,1.1-2c0.5-0.6,1.1-1,1.8-1.3c0.7-0.3,1.6-0.5,2.6-0.5c1,0,1.8,0.2,2.6,0.5s1.4,0.7,1.9,1.3
		c0.5,0.6,0.9,1.2,1.1,2c0.3,0.8,0.4,1.6,0.4,2.5s-0.1,1.7-0.4,2.5c-0.3,0.8-0.6,1.4-1.1,2c-0.5,0.6-1.1,1-1.9,1.3
		C79.5,79.2,78.7,79.4,77.7,79.4z M77.8,76.4c0.6,0,1.1-0.3,1.4-0.9c0.3-0.6,0.4-1.4,0.4-2.4s-0.2-1.8-0.5-2.4
		c-0.3-0.6-0.8-0.9-1.4-0.9s-1.1,0.3-1.4,0.9c-0.3,0.6-0.5,1.4-0.5,2.4s0.2,1.8,0.5,2.4C76.6,76.1,77.1,76.4,77.8,76.4z"/>
	<path class="copy-purpleFill" d="M84.8,67.3h3.9v6.4c0,0.7,0.1,1.3,0.3,1.7c0.2,0.4,0.6,0.6,1.2,0.6c0.6,0,1.1-0.2,1.4-0.7
		c0.3-0.5,0.5-1.2,0.5-2.3v-5.7H96V79h-3.6v-1.7c-0.3,0.6-0.7,1.1-1.3,1.5s-1.3,0.5-2.2,0.5c-1.4,0-2.4-0.4-3.1-1.2s-1-2-1-3.5V67.3
		z"/>
	<path class="copy-purpleFill" d="M98.7,69.8h-1.9v-2.5h0.3c0.6,0,1.1-0.1,1.4-0.3c0.3-0.2,0.6-0.5,0.8-0.8c0.2-0.3,0.3-0.7,0.4-1.1
		c0.1-0.4,0.2-0.8,0.3-1.2h2.4v3.4h2.4v2.5h-2.4v5.4c0,0.4,0.1,0.6,0.2,0.9c0.1,0.2,0.4,0.3,0.9,0.3c0.1,0,0.3,0,0.5,0
		c0.2,0,0.4-0.1,0.6-0.2l0.3,2.7c-0.4,0.2-0.9,0.3-1.3,0.4c-0.4,0.1-0.9,0.1-1.3,0.1c-0.7,0-1.3-0.1-1.8-0.3
		c-0.5-0.2-0.9-0.4-1.1-0.8c-0.3-0.3-0.5-0.7-0.6-1.2c-0.1-0.5-0.2-0.9-0.2-1.5V69.8z"/>
	<path class="copy-purpleFill" d="M110.6,62.8h3.9v6.1c0.3-0.5,0.7-1,1.3-1.3c0.6-0.4,1.3-0.6,2.3-0.6c1.3,0,2.3,0.4,2.9,1.3s0.9,2.1,0.9,3.7V79
		h-3.9v-6.3c0-0.7-0.1-1.3-0.4-1.7c-0.3-0.4-0.7-0.6-1.3-0.6c-0.6,0-1,0.2-1.4,0.7c-0.4,0.5-0.5,1.2-0.5,2.3V79h-3.9V62.8z"/>
	<path class="copy-purpleFill" d="M129,79.4c-1,0-1.9-0.2-2.6-0.5c-0.7-0.3-1.4-0.7-1.9-1.3c-0.5-0.6-0.9-1.2-1.1-2c-0.2-0.8-0.4-1.6-0.4-2.5
		s0.1-1.7,0.4-2.5c0.3-0.8,0.6-1.4,1.1-2c0.5-0.6,1.1-1,1.8-1.3c0.7-0.3,1.6-0.5,2.6-0.5c1,0,1.8,0.2,2.6,0.5s1.4,0.7,1.9,1.3
		c0.5,0.6,0.9,1.2,1.1,2c0.3,0.8,0.4,1.6,0.4,2.5s-0.1,1.7-0.4,2.5c-0.3,0.8-0.6,1.4-1.1,2c-0.5,0.6-1.1,1-1.9,1.3
		C130.8,79.2,130,79.4,129,79.4z M129.1,76.4c0.6,0,1.1-0.3,1.4-0.9c0.3-0.6,0.4-1.4,0.4-2.4s-0.2-1.8-0.5-2.4
		c-0.3-0.6-0.8-0.9-1.4-0.9s-1.1,0.3-1.4,0.9c-0.3,0.6-0.5,1.4-0.5,2.4s0.2,1.8,0.5,2.4C127.9,76.1,128.4,76.4,129.1,76.4z"/>
	<path class="copy-purpleFill" d="M134.8,67.3h4.2l1.7,8l1.5-8h4.1l1.5,8l1.7-8h4.1L149.8,79h-4.1l-1.5-6.3l-1.5,6.3h-4.1L134.8,67.3z"/>
	<path class="copy-purpleFill" d="M169.7,76.6c-0.6,1-1.3,1.7-2.2,2.1s-1.9,0.7-3.1,0.7c-1,0-1.9-0.2-2.7-0.5c-0.8-0.3-1.4-0.8-1.9-1.3
		c-0.5-0.6-0.8-1.2-1.1-2c-0.2-0.8-0.3-1.6-0.3-2.4c0-0.9,0.1-1.8,0.4-2.6c0.3-0.8,0.7-1.4,1.2-2c0.5-0.5,1.1-1,1.9-1.3
		c0.7-0.3,1.6-0.4,2.5-0.4c1.2,0,2.2,0.2,3.1,0.7s1.6,1.2,2.1,2.2l-3.2,1.5c-0.2-0.6-0.5-0.9-0.8-1.2c-0.3-0.2-0.7-0.4-1.1-0.4
		c-0.7,0-1.2,0.3-1.6,0.9c-0.3,0.6-0.5,1.3-0.5,2.2c0,0.4,0,0.8,0.1,1.1c0.1,0.4,0.2,0.8,0.3,1.1c0.2,0.3,0.4,0.6,0.7,0.8
		c0.3,0.2,0.7,0.3,1.1,0.3c0.5,0,0.9-0.1,1.3-0.4c0.3-0.3,0.6-0.7,0.8-1.2L169.7,76.6z"/>
	<path class="copy-purpleFill" d="M175.7,79.4c-1,0-1.9-0.2-2.6-0.5c-0.7-0.3-1.4-0.7-1.8-1.3c-0.5-0.6-0.9-1.2-1.1-2c-0.2-0.8-0.4-1.6-0.4-2.5
		s0.1-1.7,0.4-2.5s0.6-1.4,1.1-2c0.5-0.6,1.1-1,1.8-1.3s1.6-0.5,2.6-0.5s1.8,0.2,2.6,0.5c0.7,0.3,1.4,0.7,1.8,1.3
		c0.5,0.6,0.9,1.2,1.1,2c0.3,0.8,0.4,1.6,0.4,2.5s-0.1,1.7-0.4,2.5c-0.3,0.8-0.6,1.4-1.1,2c-0.5,0.6-1.1,1-1.8,1.3
		C177.6,79.2,176.7,79.4,175.7,79.4z M175.8,76.4c0.6,0,1.1-0.3,1.4-0.9c0.3-0.6,0.4-1.4,0.4-2.4s-0.2-1.8-0.5-2.4
		c-0.3-0.6-0.8-0.9-1.4-0.9c-0.6,0-1.1,0.3-1.4,0.9c-0.3,0.6-0.5,1.4-0.5,2.4s0.2,1.8,0.5,2.4C174.6,76.1,175.1,76.4,175.8,76.4z"/>
	<path class="copy-purpleFill" d="M182.9,67.3h3.5l0.3,1.6c0.3-0.6,0.8-1.1,1.3-1.5s1.2-0.5,2-0.5c1,0,1.7,0.2,2.2,0.6c0.5,0.4,0.9,0.9,1.1,1.5
		c0.1-0.2,0.3-0.5,0.5-0.7c0.2-0.3,0.4-0.5,0.7-0.7c0.3-0.2,0.6-0.4,1-0.5C196,67,196.5,67,197,67c0.8,0,1.5,0.1,2,0.4
		c0.5,0.3,0.9,0.6,1.2,1.1c0.3,0.5,0.5,1,0.6,1.6c0.1,0.6,0.1,1.2,0.1,1.8V79H197v-6.1c0-0.9-0.1-1.5-0.3-1.9
		c-0.2-0.4-0.6-0.6-1.2-0.6c-0.2,0-0.4,0-0.6,0.1c-0.2,0.1-0.4,0.2-0.5,0.4c-0.2,0.2-0.3,0.5-0.4,0.9s-0.1,0.9-0.1,1.5V79H190v-6.2
		c0-0.8-0.1-1.4-0.3-1.9c-0.2-0.4-0.6-0.6-1.2-0.6c-0.2,0-0.4,0-0.6,0.1c-0.2,0.1-0.4,0.2-0.5,0.4c-0.2,0.2-0.3,0.5-0.4,0.9
		c-0.1,0.4-0.2,0.9-0.2,1.6V79h-3.9V67.3z"/>
	<path class="copy-purpleFill" d="M202.6,67.3h3.9v1.5c0.3-0.5,0.6-1,1.2-1.3c0.5-0.4,1.2-0.5,2-0.5c1.3,0,2.4,0.5,3.2,1.5
		c0.8,1,1.2,2.5,1.2,4.6c0,1.2-0.1,2.2-0.4,3c-0.3,0.8-0.7,1.4-1.1,1.9c-0.4,0.5-0.9,0.8-1.5,1c-0.6,0.2-1.1,0.3-1.6,0.3
		c-0.6,0-1.2-0.1-1.7-0.3c-0.6-0.2-1-0.5-1.2-1V83h-3.9V67.3z M206.5,73.3c0,0.4,0,0.8,0.1,1.1c0.1,0.4,0.2,0.7,0.3,0.9
		c0.2,0.3,0.3,0.5,0.6,0.6c0.2,0.2,0.5,0.2,0.8,0.2c0.5,0,1-0.2,1.3-0.7c0.3-0.5,0.5-1.3,0.5-2.3c0-1-0.2-1.8-0.5-2.3
		c-0.3-0.5-0.8-0.8-1.4-0.8c-0.3,0-0.6,0.1-0.8,0.2c-0.2,0.2-0.4,0.4-0.5,0.6c-0.1,0.3-0.2,0.6-0.3,0.9s-0.1,0.7-0.1,1.1V73.3z"/>
	<path class="copy-purpleFill" d="M222,79c-0.1-0.2-0.2-0.4-0.2-0.7c-0.1-0.3-0.1-0.5-0.1-0.7c-0.2,0.5-0.6,0.9-1.1,1.2
		c-0.5,0.4-1.2,0.5-2.1,0.5c-0.6,0-1.2-0.1-1.7-0.3s-0.9-0.5-1.2-0.8c-0.3-0.3-0.6-0.7-0.7-1.2s-0.3-1-0.3-1.5
		c0-0.6,0.1-1.1,0.3-1.6c0.2-0.4,0.5-0.8,0.9-1.1c0.4-0.3,0.9-0.6,1.4-0.7s1.2-0.3,1.9-0.4l2.3-0.4v-0.3c0-0.5-0.1-0.8-0.4-1
		c-0.3-0.2-0.6-0.3-1.1-0.3c-0.7,0-1.3,0.1-1.8,0.4c-0.5,0.3-1,0.6-1.4,0.9l-1.8-2.6c0.2-0.2,0.5-0.4,0.9-0.6
		c0.4-0.2,0.8-0.4,1.2-0.6c0.5-0.2,1-0.3,1.5-0.4s1.2-0.1,1.9-0.1c1.7,0,3,0.4,3.7,1.1s1.1,1.9,1.1,3.4v4.2c0,0.5,0,0.9,0,1.2
		s0,0.6,0.1,0.9s0.1,0.5,0.1,0.7c0.1,0.2,0.1,0.4,0.3,0.7H222z M221.4,73.8l-1.6,0.3c-0.5,0.1-0.9,0.3-1.2,0.5
		c-0.2,0.2-0.4,0.5-0.4,0.9c0,0.3,0.1,0.6,0.3,0.8c0.2,0.2,0.5,0.3,0.9,0.3c0.5,0,1-0.2,1.4-0.6c0.4-0.4,0.6-1,0.6-1.8V73.8z"/>
	<path class="copy-purpleFill" d="M227.1,67.3h3.5l0.3,1.6c0.4-0.6,0.9-1,1.5-1.4c0.6-0.4,1.4-0.6,2.2-0.6c2.6,0,3.9,1.6,3.9,4.9V79h-3.9v-6.2
		c0-0.9-0.1-1.6-0.4-1.9c-0.3-0.4-0.7-0.6-1.3-0.6c-0.3,0-0.5,0-0.8,0.1s-0.4,0.3-0.6,0.5s-0.3,0.6-0.4,1c-0.1,0.4-0.1,0.9-0.1,1.5
		V79h-3.9V67.3z"/>
	<path class="copy-purpleFill" d="M240.1,62.7h3.9v3.1h-3.9V62.7z M240.1,67.3h3.9V79h-3.9V67.3z"/>
	<path class="copy-purpleFill" d="M249.2,74.1c0.1,0.9,0.4,1.5,0.9,1.9c0.4,0.4,0.9,0.5,1.5,0.5c0.5,0,0.9-0.1,1.3-0.3s0.7-0.5,0.9-1l2.8,1.6
		c-0.6,0.9-1.3,1.5-2.3,2s-1.9,0.6-3,0.6c-1,0-1.9-0.2-2.6-0.5c-0.8-0.3-1.4-0.7-1.9-1.3c-0.5-0.6-0.9-1.2-1.2-2
		c-0.3-0.8-0.4-1.6-0.4-2.4c0-0.9,0.1-1.7,0.4-2.5c0.3-0.8,0.7-1.4,1.2-2c0.5-0.6,1.1-1,1.9-1.3s1.6-0.5,2.5-0.5
		c0.9,0,1.7,0.2,2.4,0.5c0.7,0.3,1.3,0.7,1.8,1.3c0.5,0.6,0.9,1.2,1.1,2s0.4,1.7,0.4,2.7c0,0.2,0,0.4,0,0.5s0,0.2,0,0.2H249.2z
		 M251.1,69.8c-1.1,0-1.7,0.7-1.9,2.1h3.8c0-0.6-0.1-1.1-0.4-1.5S251.7,69.8,251.1,69.8z"/>
	<path class="copy-purpleFill" d="M259,75.1c0.2,0.2,0.4,0.3,0.7,0.5s0.5,0.3,0.9,0.5c0.3,0.1,0.6,0.2,1,0.3c0.3,0.1,0.7,0.1,1,0.1
		c0.3,0,0.6,0,0.8-0.1c0.3-0.1,0.4-0.3,0.4-0.6c0-0.3-0.2-0.5-0.5-0.7c-0.3-0.2-0.7-0.3-1.1-0.4c-0.5-0.1-0.9-0.3-1.5-0.4
		s-1-0.4-1.5-0.6c-0.5-0.3-0.8-0.6-1.1-1.1c-0.3-0.5-0.5-1-0.5-1.8c0-0.7,0.1-1.2,0.4-1.7c0.3-0.5,0.6-0.9,1.1-1.2
		c0.5-0.3,1-0.5,1.6-0.7c0.6-0.2,1.2-0.2,1.9-0.2c1.1,0,2,0.1,2.8,0.4c0.8,0.2,1.5,0.6,2.2,1l-1.8,2.6c-0.2-0.1-0.4-0.3-0.6-0.4
		c-0.2-0.1-0.5-0.3-0.8-0.4s-0.6-0.2-0.9-0.3c-0.3-0.1-0.6-0.1-1-0.1c-0.3,0-0.5,0-0.6,0.1c-0.2,0.1-0.3,0.2-0.3,0.5
		c0,0.3,0.2,0.5,0.5,0.6c0.3,0.2,0.7,0.3,1.1,0.4s0.9,0.3,1.5,0.5c0.5,0.2,1,0.4,1.5,0.7c0.5,0.3,0.8,0.6,1.1,1.1
		c0.3,0.4,0.5,1,0.5,1.7c0,0.7-0.1,1.3-0.4,1.8c-0.3,0.5-0.7,0.9-1.2,1.3c-0.5,0.3-1,0.6-1.6,0.7c-0.6,0.2-1.2,0.2-1.8,0.2
		c-2.2,0-4-0.6-5.4-1.7L259,75.1z"/>
</g>
<g>
	<path class="copy-purpleFill" d="M23.5,86.9h3.9v16.2h-3.9V86.9z"/>
	<path class="copy-purpleFill" d="M29.2,86.8H33v3.1h-3.9V86.8z M29.2,91.4H33v11.7h-3.9V91.4z"/>
	<path class="copy-purpleFill" d="M34.8,86.9h3.9v8.8l3.9-4.3h4.7l-4.6,4.4l4.6,7.3h-4.4l-2.6-4.9l-1.5,1.5v3.4h-3.9V86.9z"/>
	<path class="copy-purpleFill" d="M50.7,98.1c0.1,0.9,0.4,1.5,0.9,1.9c0.4,0.4,0.9,0.5,1.5,0.5c0.5,0,0.9-0.1,1.3-0.3s0.7-0.5,0.9-1l2.8,1.6
		c-0.6,0.9-1.3,1.5-2.3,2c-0.9,0.4-1.9,0.6-3,0.6c-1,0-1.9-0.2-2.6-0.5c-0.8-0.3-1.4-0.7-1.9-1.3c-0.5-0.6-0.9-1.2-1.2-2
		s-0.4-1.6-0.4-2.4c0-0.9,0.1-1.7,0.4-2.5c0.3-0.8,0.7-1.4,1.2-2c0.5-0.6,1.1-1,1.9-1.3s1.6-0.5,2.5-0.5c0.9,0,1.7,0.2,2.4,0.5
		c0.7,0.3,1.3,0.7,1.8,1.3c0.5,0.6,0.9,1.2,1.1,2s0.4,1.7,0.4,2.7c0,0.2,0,0.4,0,0.5c0,0.1,0,0.2,0,0.2H50.7z M52.6,93.9
		c-1.1,0-1.7,0.7-1.9,2.1h3.8c0-0.6-0.1-1.1-0.4-1.5C53.7,94.1,53.3,93.9,52.6,93.9z"/>
	<path class="copy-purpleFill" d="M64.7,104.2c0.3,0.1,0.6,0.2,0.9,0.2c0.3,0.1,0.6,0.1,0.8,0.1c0.4,0,0.6-0.1,0.8-0.2c0.2-0.2,0.3-0.4,0.4-0.8
		l-4.2-12.1h4.2l2,7.9l2-7.9h4.2L71.7,103c-0.2,0.6-0.5,1.2-0.7,1.8c-0.2,0.5-0.5,1-0.9,1.4s-0.8,0.7-1.4,0.9s-1.3,0.3-2.2,0.3
		c-0.1,0-0.3,0-0.5,0c-0.2,0-0.4,0-0.6,0c-0.2,0-0.4,0-0.6-0.1c-0.2,0-0.4-0.1-0.5-0.1L64.7,104.2z"/>
	<path class="copy-purpleFill" d="M81.4,103.5c-1,0-1.9-0.2-2.6-0.5c-0.7-0.3-1.4-0.7-1.9-1.3c-0.5-0.6-0.9-1.2-1.1-2c-0.2-0.8-0.4-1.6-0.4-2.5
		s0.1-1.7,0.4-2.5c0.3-0.8,0.6-1.4,1.1-2c0.5-0.6,1.1-1,1.8-1.3c0.7-0.3,1.6-0.5,2.6-0.5c1,0,1.8,0.2,2.6,0.5s1.4,0.7,1.9,1.3
		c0.5,0.6,0.9,1.2,1.1,2c0.3,0.8,0.4,1.6,0.4,2.5s-0.1,1.7-0.4,2.5c-0.3,0.8-0.6,1.4-1.1,2c-0.5,0.6-1.1,1-1.9,1.3
		C83.2,103.3,82.4,103.5,81.4,103.5z M81.5,100.5c0.6,0,1.1-0.3,1.4-0.9c0.3-0.6,0.4-1.4,0.4-2.4s-0.2-1.8-0.5-2.4
		C82.5,94.3,82,94,81.4,94s-1.1,0.3-1.4,0.9c-0.3,0.6-0.5,1.4-0.5,2.4s0.2,1.8,0.5,2.4C80.3,100.2,80.8,100.5,81.5,100.5z"/>
	<path class="copy-purpleFill" d="M88.5,91.4h3.9v6.4c0,0.7,0.1,1.3,0.3,1.7c0.2,0.4,0.6,0.6,1.2,0.6c0.6,0,1.1-0.2,1.4-0.7
		c0.3-0.5,0.5-1.2,0.5-2.3v-5.7h3.9v11.7h-3.6v-1.7c-0.3,0.6-0.7,1.1-1.3,1.5s-1.3,0.5-2.2,0.5c-1.4,0-2.4-0.4-3.1-1.2s-1-2-1-3.5
		V91.4z"/>
	<path class="copy-purpleFill" d="M101.5,91.4h3.5l0.3,2.2c0.4-0.7,0.8-1.3,1.5-1.8c0.6-0.5,1.5-0.7,2.6-0.7V95c-0.3-0.1-0.7-0.1-1.2-0.1
		c-0.3,0-0.6,0-0.9,0.1s-0.6,0.2-0.9,0.4c-0.3,0.2-0.5,0.5-0.7,0.9c-0.2,0.4-0.3,1-0.3,1.7v5.2h-3.9V91.4z"/>
	<path class="copy-purpleFill" d="M111.2,99.2c0.2,0.2,0.4,0.3,0.7,0.5s0.5,0.3,0.9,0.5c0.3,0.1,0.6,0.2,1,0.3c0.3,0.1,0.7,0.1,1,0.1
		c0.3,0,0.6,0,0.8-0.1c0.3-0.1,0.4-0.3,0.4-0.6c0-0.3-0.2-0.5-0.5-0.7c-0.3-0.2-0.7-0.3-1.1-0.4c-0.5-0.1-0.9-0.3-1.5-0.4
		s-1-0.4-1.5-0.6c-0.5-0.3-0.8-0.6-1.1-1.1s-0.5-1-0.5-1.8c0-0.7,0.1-1.2,0.4-1.7s0.6-0.9,1.1-1.2c0.5-0.3,1-0.5,1.6-0.7
		c0.6-0.2,1.2-0.2,1.9-0.2c1.1,0,2,0.1,2.8,0.4c0.8,0.2,1.5,0.6,2.2,1l-1.8,2.6c-0.2-0.1-0.4-0.3-0.6-0.4c-0.2-0.1-0.5-0.3-0.8-0.4
		c-0.3-0.1-0.6-0.2-0.9-0.3c-0.3-0.1-0.6-0.1-1-0.1c-0.3,0-0.5,0-0.6,0.1c-0.2,0.1-0.3,0.2-0.3,0.5c0,0.3,0.2,0.5,0.5,0.6
		c0.3,0.2,0.7,0.3,1.1,0.4c0.5,0.1,0.9,0.3,1.5,0.5c0.5,0.2,1,0.4,1.5,0.7c0.5,0.3,0.8,0.6,1.1,1.1c0.3,0.4,0.5,1,0.5,1.7
		c0,0.7-0.1,1.3-0.4,1.8s-0.7,0.9-1.2,1.3c-0.5,0.3-1,0.6-1.6,0.7c-0.6,0.2-1.2,0.2-1.8,0.2c-2.2,0-4-0.6-5.4-1.7L111.2,99.2z"/>
	<path class="copy-purpleFill" d="M132.6,103.1c-0.1-0.2-0.2-0.4-0.2-0.7c-0.1-0.3-0.1-0.5-0.1-0.7c-0.2,0.5-0.6,0.9-1.1,1.2s-1.2,0.5-2.1,0.5
		c-0.6,0-1.2-0.1-1.7-0.3c-0.5-0.2-0.9-0.5-1.2-0.8c-0.3-0.3-0.6-0.7-0.7-1.2s-0.3-1-0.3-1.5c0-0.6,0.1-1.1,0.3-1.6
		c0.2-0.4,0.5-0.8,0.9-1.1c0.4-0.3,0.9-0.6,1.4-0.7c0.6-0.2,1.2-0.3,1.9-0.4l2.3-0.4v-0.3c0-0.5-0.1-0.8-0.4-1
		c-0.3-0.2-0.6-0.3-1.1-0.3c-0.7,0-1.3,0.1-1.8,0.4c-0.5,0.3-1,0.6-1.4,0.9l-1.8-2.6c0.2-0.2,0.5-0.4,0.9-0.6
		c0.4-0.2,0.8-0.4,1.2-0.6c0.5-0.2,1-0.3,1.5-0.4s1.2-0.1,1.9-0.1c1.7,0,3,0.4,3.7,1.1c0.7,0.7,1.1,1.9,1.1,3.4v4.2
		c0,0.5,0,0.9,0,1.2c0,0.3,0,0.6,0.1,0.9c0,0.3,0.1,0.5,0.1,0.7c0.1,0.2,0.1,0.4,0.3,0.7H132.6z M132,97.9l-1.6,0.3
		c-0.5,0.1-0.9,0.3-1.2,0.5c-0.2,0.2-0.4,0.5-0.4,0.9c0,0.3,0.1,0.6,0.3,0.8c0.2,0.2,0.5,0.3,0.9,0.3c0.5,0,1-0.2,1.4-0.6
		c0.4-0.4,0.6-1,0.6-1.8V97.9z"/>
	<path class="copy-purpleFill" d="M137.7,91.4h3.5l0.3,2.2c0.4-0.7,0.8-1.3,1.5-1.8c0.6-0.5,1.5-0.7,2.6-0.7V95c-0.3-0.1-0.7-0.1-1.2-0.1
		c-0.3,0-0.6,0-0.9,0.1s-0.6,0.2-0.9,0.4c-0.3,0.2-0.5,0.5-0.7,0.9c-0.2,0.4-0.3,1-0.3,1.7v5.2h-3.9V91.4z"/>
	<path class="copy-purpleFill" d="M149.6,98.1c0.1,0.9,0.4,1.5,0.9,1.9c0.4,0.4,0.9,0.5,1.5,0.5c0.5,0,0.9-0.1,1.3-0.3s0.7-0.5,0.9-1l2.8,1.6
		c-0.6,0.9-1.3,1.5-2.3,2s-1.9,0.6-3,0.6c-1,0-1.9-0.2-2.6-0.5c-0.8-0.3-1.4-0.7-1.9-1.3c-0.5-0.6-0.9-1.2-1.2-2s-0.4-1.6-0.4-2.4
		c0-0.9,0.1-1.7,0.4-2.5c0.3-0.8,0.7-1.4,1.2-2c0.5-0.6,1.1-1,1.9-1.3s1.6-0.5,2.5-0.5c0.9,0,1.7,0.2,2.4,0.5
		c0.7,0.3,1.3,0.7,1.8,1.3c0.5,0.6,0.9,1.2,1.1,2s0.4,1.7,0.4,2.7c0,0.2,0,0.4,0,0.5s0,0.2,0,0.2H149.6z M151.5,93.9
		c-1.1,0-1.7,0.7-1.9,2.1h3.8c0-0.6-0.1-1.1-0.4-1.5S152.2,93.9,151.5,93.9z"/>
	<path class="copy-purpleFill" d="M164.4,99.2c0.2,0.2,0.4,0.3,0.7,0.5s0.5,0.3,0.9,0.5c0.3,0.1,0.6,0.2,1,0.3c0.3,0.1,0.7,0.1,1,0.1
		c0.3,0,0.6,0,0.8-0.1c0.3-0.1,0.4-0.3,0.4-0.6c0-0.3-0.2-0.5-0.5-0.7c-0.3-0.2-0.7-0.3-1.1-0.4c-0.5-0.1-0.9-0.3-1.5-0.4
		s-1-0.4-1.5-0.6c-0.5-0.3-0.8-0.6-1.1-1.1c-0.3-0.5-0.5-1-0.5-1.8c0-0.7,0.1-1.2,0.4-1.7c0.3-0.5,0.6-0.9,1.1-1.2
		c0.5-0.3,1-0.5,1.6-0.7c0.6-0.2,1.2-0.2,1.9-0.2c1.1,0,2,0.1,2.8,0.4c0.8,0.2,1.5,0.6,2.2,1l-1.8,2.6c-0.2-0.1-0.4-0.3-0.6-0.4
		c-0.2-0.1-0.5-0.3-0.8-0.4s-0.6-0.2-0.9-0.3c-0.3-0.1-0.6-0.1-1-0.1c-0.3,0-0.5,0-0.6,0.1c-0.2,0.1-0.3,0.2-0.3,0.5
		c0,0.3,0.2,0.5,0.5,0.6c0.3,0.2,0.7,0.3,1.1,0.4s0.9,0.3,1.5,0.5c0.5,0.2,1,0.4,1.5,0.7c0.5,0.3,0.8,0.6,1.1,1.1
		c0.3,0.4,0.5,1,0.5,1.7c0,0.7-0.1,1.3-0.4,1.8c-0.3,0.5-0.7,0.9-1.2,1.3c-0.5,0.3-1,0.6-1.6,0.7c-0.6,0.2-1.2,0.2-1.8,0.2
		c-2.2,0-4-0.6-5.4-1.7L164.4,99.2z"/>
	<path class="copy-purpleFill" d="M181.1,103.1c-0.1-0.2-0.2-0.4-0.2-0.7c-0.1-0.3-0.1-0.5-0.1-0.7c-0.2,0.5-0.6,0.9-1.1,1.2
		c-0.5,0.4-1.2,0.5-2.1,0.5c-0.6,0-1.2-0.1-1.7-0.3s-0.9-0.5-1.2-0.8c-0.3-0.3-0.6-0.7-0.7-1.2s-0.3-1-0.3-1.5
		c0-0.6,0.1-1.1,0.3-1.6c0.2-0.4,0.5-0.8,0.9-1.1c0.4-0.3,0.9-0.6,1.4-0.7s1.2-0.3,1.9-0.4l2.3-0.4v-0.3c0-0.5-0.1-0.8-0.4-1
		c-0.3-0.2-0.6-0.3-1.1-0.3c-0.7,0-1.3,0.1-1.8,0.4c-0.5,0.3-1,0.6-1.4,0.9l-1.8-2.6c0.2-0.2,0.5-0.4,0.9-0.6
		c0.4-0.2,0.8-0.4,1.2-0.6c0.5-0.2,1-0.3,1.5-0.4s1.2-0.1,1.9-0.1c1.7,0,3,0.4,3.7,1.1s1.1,1.9,1.1,3.4v4.2c0,0.5,0,0.9,0,1.2
		s0,0.6,0.1,0.9s0.1,0.5,0.1,0.7c0.1,0.2,0.1,0.4,0.3,0.7H181.1z M180.5,97.9l-1.6,0.3c-0.5,0.1-0.9,0.3-1.2,0.5
		c-0.2,0.2-0.4,0.5-0.4,0.9c0,0.3,0.1,0.6,0.3,0.8c0.2,0.2,0.5,0.3,0.9,0.3c0.5,0,1-0.2,1.4-0.6c0.4-0.4,0.6-1,0.6-1.8V97.9z"/>
	<path class="copy-purpleFill" d="M184.8,91.4h4.3l1.9,8.1l1.9-8.1h4.1l-3.9,11.7h-4.5L184.8,91.4z"/>
	<path class="copy-purpleFill" d="M197.7,86.8h3.9v3.1h-3.9V86.8z M197.7,91.4h3.9v11.7h-3.9V91.4z"/>
	<path class="copy-purpleFill" d="M203.3,91.4h3.5l0.3,1.6c0.4-0.6,0.9-1,1.5-1.4c0.6-0.4,1.4-0.6,2.2-0.6c2.6,0,3.9,1.6,3.9,4.9v7.1h-3.9v-6.2
		c0-0.9-0.1-1.6-0.4-1.9c-0.3-0.4-0.7-0.6-1.3-0.6c-0.3,0-0.5,0-0.8,0.1s-0.4,0.3-0.6,0.5s-0.3,0.6-0.4,1c-0.1,0.4-0.1,0.9-0.1,1.5
		v5.5h-3.9V91.4z"/>
	<path class="copy-purpleFill" d="M217.8,103c0.4,0.4,1,0.8,1.7,1.1c0.7,0.3,1.3,0.4,2,0.4c0.7,0,1.2-0.2,1.5-0.5c0.3-0.3,0.4-0.8,0.4-1.4v-1.1
		c-0.3,0.4-0.6,0.7-1.1,1c-0.5,0.3-1.1,0.4-1.9,0.4c-0.6,0-1.1-0.1-1.6-0.3c-0.5-0.2-1-0.5-1.5-1s-0.8-1-1-1.8
		c-0.3-0.7-0.4-1.6-0.4-2.7c0-1,0.1-1.8,0.3-2.6c0.2-0.8,0.6-1.4,1-1.9c0.4-0.5,0.9-0.9,1.5-1.2c0.6-0.3,1.2-0.4,1.9-0.4
		c0.7,0,1.3,0.2,1.9,0.5c0.5,0.3,1,0.8,1.3,1.4l0.5-1.6h3.1v11.1c0,0.7-0.1,1.4-0.3,2c-0.2,0.6-0.5,1.1-1,1.6
		c-0.5,0.4-1.1,0.8-1.8,1c-0.7,0.2-1.6,0.4-2.6,0.4c-0.7,0-1.3,0-1.9-0.1c-0.6-0.1-1.1-0.2-1.6-0.4c-0.5-0.2-0.9-0.3-1.3-0.5
		c-0.4-0.2-0.7-0.4-1-0.6L217.8,103z M223.4,97.2c0-0.4,0-0.7-0.1-1.1s-0.1-0.7-0.3-0.9c-0.1-0.3-0.3-0.5-0.5-0.7
		c-0.2-0.2-0.5-0.3-0.9-0.3c-0.2,0-0.5,0-0.7,0.1c-0.2,0.1-0.4,0.3-0.6,0.5c-0.2,0.2-0.3,0.5-0.4,0.9s-0.1,0.8-0.1,1.4
		c0,1,0.2,1.7,0.5,2.2s0.8,0.7,1.4,0.7s1-0.2,1.3-0.7c0.3-0.5,0.4-1.1,0.4-2V97.2z"/>
	<path class="copy-purpleFill" d="M233.8,91.4h3.9v6.4c0,0.7,0.1,1.3,0.3,1.7c0.2,0.4,0.6,0.6,1.2,0.6c0.6,0,1.1-0.2,1.4-0.7
		c0.3-0.5,0.5-1.2,0.5-2.3v-5.7h3.9v11.7h-3.6v-1.7c-0.3,0.6-0.7,1.1-1.3,1.5c-0.5,0.4-1.3,0.5-2.2,0.5c-1.4,0-2.4-0.4-3.1-1.2
		s-1-2-1-3.5V91.4z"/>
	<path class="copy-purpleFill" d="M246.8,91.4h3.9v1.5c0.3-0.5,0.6-1,1.2-1.3c0.5-0.4,1.2-0.5,2-0.5c1.3,0,2.4,0.5,3.2,1.5
		c0.8,1,1.2,2.5,1.2,4.6c0,1.2-0.1,2.2-0.4,3c-0.3,0.8-0.7,1.4-1.1,1.9c-0.4,0.5-0.9,0.8-1.5,1c-0.6,0.2-1.1,0.3-1.6,0.3
		c-0.6,0-1.2-0.1-1.7-0.3c-0.6-0.2-1-0.5-1.2-1v5.1h-3.9V91.4z M250.6,97.4c0,0.4,0,0.8,0.1,1.1c0.1,0.4,0.2,0.7,0.3,0.9
		c0.2,0.3,0.3,0.5,0.6,0.6c0.2,0.2,0.5,0.2,0.8,0.2c0.5,0,1-0.2,1.3-0.7c0.3-0.5,0.5-1.3,0.5-2.3c0-1-0.2-1.8-0.5-2.3
		c-0.3-0.5-0.8-0.8-1.4-0.8c-0.3,0-0.6,0.1-0.8,0.2c-0.2,0.2-0.4,0.4-0.5,0.6c-0.1,0.3-0.2,0.6-0.3,0.9s-0.1,0.7-0.1,1.1V97.4z"/>
</g>
<g>
	<path class="copy-purpleFill" d="M24.4,118h-1.9v-2.5h0.3c0.6,0,1.1-0.1,1.4-0.3c0.3-0.2,0.6-0.5,0.8-0.8c0.2-0.3,0.3-0.7,0.4-1.1
		c0.1-0.4,0.2-0.8,0.3-1.2h2.4v3.4h2.4v2.5h-2.4v5.4c0,0.4,0.1,0.6,0.2,0.9c0.1,0.2,0.4,0.3,0.9,0.3c0.1,0,0.3,0,0.5,0
		c0.2,0,0.4-0.1,0.6-0.2l0.3,2.7c-0.4,0.2-0.9,0.3-1.3,0.4c-0.4,0.1-0.9,0.1-1.3,0.1c-0.7,0-1.3-0.1-1.8-0.3s-0.9-0.4-1.1-0.8
		c-0.3-0.3-0.5-0.7-0.6-1.2c-0.1-0.5-0.2-0.9-0.2-1.5V118z"/>
	<path class="copy-purpleFill" d="M36.8,127.5c-1,0-1.9-0.2-2.6-0.5c-0.7-0.3-1.4-0.7-1.9-1.3s-0.9-1.2-1.1-2c-0.2-0.8-0.4-1.6-0.4-2.5
		s0.1-1.7,0.4-2.5c0.3-0.8,0.6-1.4,1.1-2c0.5-0.6,1.1-1,1.8-1.3c0.7-0.3,1.6-0.5,2.6-0.5c1,0,1.8,0.2,2.6,0.5s1.4,0.7,1.9,1.3
		c0.5,0.6,0.9,1.2,1.1,2c0.3,0.8,0.4,1.6,0.4,2.5s-0.1,1.7-0.4,2.5c-0.3,0.8-0.6,1.4-1.1,2c-0.5,0.6-1.1,1-1.9,1.3
		S37.8,127.5,36.8,127.5z M36.9,124.6c0.6,0,1.1-0.3,1.4-0.9c0.3-0.6,0.4-1.4,0.4-2.4s-0.2-1.8-0.5-2.4c-0.3-0.6-0.8-0.9-1.4-0.9
		s-1.1,0.3-1.4,0.9c-0.3,0.6-0.5,1.4-0.5,2.4s0.2,1.8,0.5,2.4C35.7,124.3,36.2,124.6,36.9,124.6z"/>
	<path class="copy-purpleFill" d="M51.3,118.9c-0.3-0.1-0.7-0.3-1-0.4c-0.3-0.2-0.6-0.4-0.9-0.7c-0.2-0.3-0.4-0.6-0.6-0.9s-0.2-0.7-0.2-1.1
		c0-0.8,0.2-1.4,0.5-1.9c0.3-0.5,0.7-1,1.3-1.3c0.5-0.4,1.1-0.6,1.8-0.8c0.7-0.2,1.3-0.3,2-0.3c0.7,0,1.3,0.1,2,0.3
		c0.7,0.2,1.2,0.4,1.8,0.8c0.5,0.4,1,0.8,1.3,1.3c0.3,0.5,0.5,1.2,0.5,1.9c0,0.8-0.3,1.5-0.8,2c-0.5,0.6-1.2,0.9-1.9,1.1
		c0.9,0.2,1.7,0.6,2.3,1.2s0.9,1.4,0.9,2.5c0,0.9-0.2,1.7-0.5,2.3c-0.4,0.6-0.8,1.1-1.4,1.5c-0.6,0.4-1.2,0.7-1.9,0.9
		c-0.7,0.2-1.4,0.3-2.2,0.3s-1.5-0.1-2.2-0.3s-1.4-0.5-2-0.9c-0.6-0.4-1-0.9-1.4-1.6c-0.4-0.6-0.5-1.4-0.5-2.3c0-1,0.3-1.8,0.8-2.4
		C49.5,119.5,50.3,119.1,51.3,118.9z M54.2,124.5c0.6,0,1-0.2,1.4-0.6s0.6-0.9,0.6-1.6c0-0.6-0.2-1.2-0.6-1.6
		c-0.4-0.4-0.9-0.6-1.5-0.6c-0.7,0-1.2,0.2-1.6,0.6c-0.3,0.4-0.5,0.9-0.5,1.6c0,0.6,0.2,1.1,0.6,1.5S53.5,124.5,54.2,124.5z
		 M52.5,116c0,0.5,0.2,1,0.5,1.4s0.7,0.6,1.2,0.6c0.5,0,0.9-0.2,1.2-0.6c0.3-0.4,0.5-0.8,0.5-1.4c0-0.5-0.2-1-0.5-1.3
		c-0.3-0.4-0.7-0.5-1.2-0.5c-0.5,0-0.9,0.2-1.2,0.5C52.6,115,52.5,115.5,52.5,116z"/>
	<path class="copy-purpleFill" d="M69,115.9c-0.2-0.5-0.4-0.9-0.8-1.1c-0.4-0.3-0.8-0.4-1.1-0.4c-0.3,0-0.5,0.1-0.8,0.2
		c-0.3,0.1-0.5,0.3-0.8,0.6c-0.2,0.3-0.4,0.7-0.6,1.2c-0.1,0.5-0.2,1.1-0.2,1.9v0.1c0,0,0,0.1,0,0.2c0.3-0.4,0.7-0.7,1.2-1.1
		c0.6-0.3,1.3-0.5,2.2-0.5c0.7,0,1.4,0.1,2,0.4c0.6,0.2,1.1,0.6,1.5,1s0.7,1,1,1.6c0.2,0.6,0.3,1.3,0.3,2.1c0,0.7-0.1,1.4-0.4,2.1
		c-0.2,0.7-0.6,1.3-1.1,1.8c-0.5,0.5-1.1,0.9-1.8,1.2c-0.7,0.3-1.6,0.5-2.5,0.5c-0.8,0-1.7-0.1-2.4-0.4s-1.5-0.8-2-1.4
		c-0.6-0.6-1.1-1.4-1.4-2.3c-0.4-0.9-0.5-2-0.5-3.3c0-1.6,0.2-3,0.6-4.1c0.4-1.1,0.9-2,1.5-2.7c0.6-0.7,1.3-1.2,2-1.4
		c0.7-0.3,1.5-0.4,2.2-0.4c0.7,0,1.3,0.1,1.9,0.2c0.6,0.2,1.1,0.4,1.5,0.6c0.4,0.3,0.8,0.6,1.1,0.9s0.6,0.7,0.7,1.1L69,115.9z
		 M66.9,124.7c0.6,0,1-0.2,1.3-0.7c0.3-0.5,0.4-1.1,0.4-1.7c0-0.7-0.2-1.3-0.5-1.8c-0.3-0.5-0.7-0.7-1.3-0.7c-0.6,0-1,0.2-1.3,0.7
		c-0.3,0.5-0.4,1.1-0.4,1.8c0,0.8,0.2,1.4,0.5,1.8S66.4,124.7,66.9,124.7z"/>
	<path class="copy-purpleFill" d="M77.9,120.5c-0.7,0-1.4-0.1-1.9-0.4c-0.6-0.3-1-0.6-1.4-1.1c-0.4-0.5-0.7-1-0.9-1.6c-0.2-0.6-0.3-1.3-0.3-2
		c0-0.7,0.1-1.3,0.3-1.9c0.2-0.6,0.5-1.1,0.9-1.6s0.9-0.8,1.4-1c0.6-0.3,1.2-0.4,1.9-0.4c0.8,0,1.5,0.1,2,0.4c0.6,0.3,1,0.6,1.4,1
		s0.6,1,0.8,1.6c0.2,0.6,0.3,1.2,0.3,1.9c0,0.7-0.1,1.3-0.3,2c-0.2,0.6-0.4,1.2-0.8,1.6s-0.8,0.8-1.4,1.1S78.7,120.5,77.9,120.5z
		 M77.9,118c0.2,0,0.4-0.1,0.5-0.3c0.1-0.2,0.2-0.4,0.3-0.6c0.1-0.3,0.1-0.5,0.2-0.9c0-0.3,0-0.6,0-0.9c0-0.3,0-0.6,0-0.9
		s-0.1-0.6-0.1-0.8c-0.1-0.2-0.2-0.4-0.3-0.6c-0.1-0.2-0.3-0.2-0.6-0.2c-0.2,0-0.4,0.1-0.6,0.2c-0.1,0.2-0.2,0.4-0.3,0.6
		c-0.1,0.2-0.1,0.5-0.1,0.8c0,0.3,0,0.6,0,0.9s0,0.6,0,0.9s0.1,0.6,0.1,0.9c0.1,0.3,0.2,0.5,0.3,0.6C77.5,117.9,77.7,118,77.9,118z
		 M86.7,110.3l2.1,0.9l-8,16.3l-2.1-0.9L86.7,110.3z M89.5,127.4c-0.7,0-1.4-0.1-1.9-0.4c-0.6-0.3-1-0.6-1.4-1.1
		c-0.4-0.5-0.7-1-0.9-1.6c-0.2-0.6-0.3-1.3-0.3-2c0-0.7,0.1-1.3,0.3-1.9c0.2-0.6,0.5-1.1,0.9-1.6c0.4-0.4,0.9-0.8,1.4-1
		c0.6-0.3,1.2-0.4,1.9-0.4c0.8,0,1.5,0.1,2,0.4c0.6,0.3,1,0.6,1.4,1s0.6,1,0.8,1.6c0.2,0.6,0.3,1.2,0.3,1.9c0,0.7-0.1,1.3-0.3,2
		c-0.2,0.6-0.4,1.2-0.8,1.6c-0.4,0.5-0.8,0.8-1.4,1.1C90.9,127.3,90.3,127.4,89.5,127.4z M89.5,125c0.2,0,0.4-0.1,0.5-0.3
		c0.1-0.2,0.2-0.4,0.3-0.6c0.1-0.3,0.1-0.5,0.2-0.9s0-0.6,0-0.9c0-0.3,0-0.6,0-0.9c0-0.3-0.1-0.6-0.1-0.8s-0.2-0.4-0.3-0.6
		c-0.1-0.2-0.3-0.2-0.6-0.2c-0.2,0-0.4,0.1-0.6,0.2c-0.1,0.2-0.2,0.4-0.3,0.6s-0.1,0.5-0.1,0.8s0,0.6,0,0.9c0,0.3,0,0.6,0,0.9
		c0,0.3,0.1,0.6,0.1,0.9c0.1,0.3,0.2,0.5,0.3,0.6C89.1,124.9,89.3,125,89.5,125z"/>
	<path class="copy-purpleFill" d="M99.9,115.5h3.5l0.3,1.6c0.3-0.6,0.8-1.1,1.3-1.5s1.2-0.5,2-0.5c0.9,0,1.7,0.2,2.2,0.6
		c0.5,0.4,0.9,0.9,1.1,1.5c0.1-0.2,0.3-0.5,0.5-0.7c0.2-0.3,0.4-0.5,0.7-0.7c0.3-0.2,0.6-0.4,1-0.5c0.4-0.1,0.9-0.2,1.4-0.2
		c0.8,0,1.5,0.1,2,0.4c0.5,0.3,0.9,0.6,1.2,1.1c0.3,0.5,0.5,1,0.6,1.6c0.1,0.6,0.1,1.2,0.1,1.8v7.2H114v-6.1c0-0.9-0.1-1.5-0.3-1.9
		c-0.2-0.4-0.6-0.6-1.2-0.6c-0.2,0-0.4,0-0.6,0.1c-0.2,0.1-0.4,0.2-0.5,0.4c-0.2,0.2-0.3,0.5-0.4,0.9c-0.1,0.4-0.1,0.9-0.1,1.5v5.9
		h-3.9V121c0-0.8-0.1-1.4-0.3-1.9c-0.2-0.4-0.6-0.6-1.2-0.6c-0.2,0-0.4,0-0.6,0.1c-0.2,0.1-0.4,0.2-0.5,0.4
		c-0.2,0.2-0.3,0.5-0.4,0.9c-0.1,0.4-0.2,0.9-0.2,1.6v5.6h-3.9V115.5z"/>
	<path class="copy-purpleFill" d="M124.9,127.5c-1,0-1.9-0.2-2.6-0.5c-0.7-0.3-1.4-0.7-1.9-1.3s-0.9-1.2-1.1-2c-0.2-0.8-0.4-1.6-0.4-2.5
		s0.1-1.7,0.4-2.5c0.3-0.8,0.6-1.4,1.1-2c0.5-0.6,1.1-1,1.8-1.3c0.7-0.3,1.6-0.5,2.6-0.5c1,0,1.8,0.2,2.6,0.5s1.4,0.7,1.9,1.3
		c0.5,0.6,0.9,1.2,1.1,2c0.3,0.8,0.4,1.6,0.4,2.5s-0.1,1.7-0.4,2.5c-0.3,0.8-0.6,1.4-1.1,2c-0.5,0.6-1.1,1-1.9,1.3
		S125.9,127.5,124.9,127.5z M125,124.6c0.6,0,1.1-0.3,1.4-0.9c0.3-0.6,0.4-1.4,0.4-2.4s-0.2-1.8-0.5-2.4c-0.3-0.6-0.8-0.9-1.4-0.9
		s-1.1,0.3-1.4,0.9c-0.3,0.6-0.5,1.4-0.5,2.4s0.2,1.8,0.5,2.4C123.8,124.3,124.3,124.6,125,124.6z"/>
	<path class="copy-purpleFill" d="M132.1,115.5h3.5l0.3,2.2c0.4-0.7,0.8-1.3,1.5-1.8c0.6-0.5,1.5-0.7,2.6-0.7v3.9c-0.3-0.1-0.7-0.1-1.2-0.1
		c-0.3,0-0.6,0-0.9,0.1s-0.6,0.2-0.9,0.4c-0.3,0.2-0.5,0.5-0.7,0.9c-0.2,0.4-0.3,1-0.3,1.7v5.2h-3.9V115.5z"/>
	<path class="copy-purpleFill" d="M144,122.2c0.1,0.9,0.4,1.5,0.9,1.9c0.4,0.4,0.9,0.5,1.5,0.5c0.5,0,0.9-0.1,1.3-0.3s0.7-0.5,0.9-1l2.8,1.6
		c-0.6,0.9-1.3,1.5-2.3,2c-0.9,0.4-1.9,0.6-3,0.6c-1,0-1.9-0.2-2.6-0.5c-0.8-0.3-1.4-0.7-1.9-1.3c-0.5-0.6-0.9-1.2-1.2-2
		s-0.4-1.6-0.4-2.4c0-0.9,0.1-1.7,0.4-2.5c0.3-0.8,0.7-1.4,1.2-2c0.5-0.6,1.1-1,1.9-1.3s1.6-0.5,2.5-0.5c0.9,0,1.7,0.2,2.4,0.5
		c0.7,0.3,1.3,0.7,1.8,1.3c0.5,0.6,0.8,1.2,1.1,2c0.3,0.8,0.4,1.7,0.4,2.7c0,0.2,0,0.4,0,0.5s0,0.2,0,0.2H144z M145.9,118
		c-1.1,0-1.7,0.7-1.9,2.1h3.8c0-0.6-0.1-1.1-0.4-1.5C147,118.2,146.5,118,145.9,118z"/>
	<path class="copy-purpleFill" d="M152.7,122.9h4.3v4.3h-4.3V122.9z"/>
</g>
<g>
	<path class="copy-grayFill" d="M23.3,139.8h3.6c1.8,0,3.1,0.4,4.1,1.2c0.9,0.8,1.4,2.1,1.4,3.9c0,1.7-0.5,3-1.4,3.9c-0.9,0.9-2.2,1.3-3.9,1.3
		h-3.7V139.8z M26.9,148.6c0.6,0,1.1-0.1,1.5-0.3s0.7-0.5,0.9-0.8c0.2-0.3,0.4-0.7,0.5-1.1c0.1-0.4,0.1-0.9,0.1-1.4
		c0-0.5,0-0.9-0.1-1.3c-0.1-0.4-0.3-0.8-0.5-1.1c-0.2-0.3-0.6-0.6-1-0.8c-0.4-0.2-0.9-0.3-1.5-0.3h-1.4v7.1H26.9z"/>
	<path class="copy-grayFill" d="M36.5,150.4c-0.6,0-1.1-0.1-1.6-0.3c-0.5-0.2-0.8-0.5-1.1-0.8c-0.3-0.4-0.5-0.8-0.7-1.2
		c-0.2-0.5-0.2-1-0.2-1.6c0-0.6,0.1-1.1,0.2-1.6c0.2-0.5,0.4-0.9,0.7-1.2c0.3-0.3,0.7-0.6,1.1-0.8c0.4-0.2,1-0.3,1.6-0.3
		s1.1,0.1,1.6,0.3c0.5,0.2,0.8,0.5,1.1,0.8c0.3,0.4,0.5,0.8,0.7,1.2c0.2,0.5,0.2,1,0.2,1.6c0,0.6-0.1,1.1-0.2,1.6
		c-0.2,0.5-0.4,0.9-0.7,1.2c-0.3,0.4-0.7,0.6-1.1,0.8C37.6,150.3,37.1,150.4,36.5,150.4z M36.6,148.9c0.5,0,0.9-0.2,1.1-0.7
		s0.4-1,0.4-1.7c0-0.7-0.1-1.3-0.4-1.7s-0.6-0.7-1.1-0.7c-0.5,0-0.9,0.2-1.2,0.7s-0.4,1-0.4,1.7c0,0.7,0.1,1.3,0.4,1.7
		S36,148.9,36.6,148.9z"/>
	<path class="copy-grayFill" d="M40.3,142.8h2.2l1.3,5.5l1.1-5.5H47l1.1,5.5l1.2-5.5h2.1l-2.3,7.4H47l-1.1-4.6l-1.1,4.6h-2.2L40.3,142.8z"/>
	<path class="copy-grayFill" d="M52.2,142.8H54l0.2,1.2c0.2-0.4,0.5-0.7,0.9-1c0.4-0.3,0.9-0.4,1.4-0.4c0.8,0,1.4,0.3,1.8,0.8s0.6,1.2,0.6,2.2
		v4.6h-2v-4.1c0-0.6-0.1-1.1-0.3-1.3c-0.2-0.3-0.5-0.4-0.9-0.4c-0.4,0-0.8,0.2-1,0.5c-0.3,0.3-0.4,0.9-0.4,1.7v3.6h-2V142.8z"/>
	<path class="copy-grayFill" d="M60.2,139.8h2v10.4h-2V139.8z"/>
	<path class="copy-grayFill" d="M66.8,150.4c-0.6,0-1.1-0.1-1.6-0.3c-0.5-0.2-0.8-0.5-1.1-0.8c-0.3-0.4-0.5-0.8-0.7-1.2
		c-0.2-0.5-0.2-1-0.2-1.6c0-0.6,0.1-1.1,0.2-1.6c0.2-0.5,0.4-0.9,0.7-1.2c0.3-0.3,0.7-0.6,1.1-0.8c0.4-0.2,1-0.3,1.6-0.3
		s1.1,0.1,1.6,0.3c0.5,0.2,0.8,0.5,1.1,0.8c0.3,0.4,0.5,0.8,0.7,1.2c0.2,0.5,0.2,1,0.2,1.6c0,0.6-0.1,1.1-0.2,1.6
		c-0.2,0.5-0.4,0.9-0.7,1.2c-0.3,0.4-0.7,0.6-1.1,0.8C67.9,150.3,67.4,150.4,66.8,150.4z M66.8,148.9c0.5,0,0.9-0.2,1.1-0.7
		s0.4-1,0.4-1.7c0-0.7-0.1-1.3-0.4-1.7s-0.6-0.7-1.1-0.7c-0.5,0-0.9,0.2-1.2,0.7s-0.4,1-0.4,1.7c0,0.7,0.1,1.3,0.4,1.7
		S66.3,148.9,66.8,148.9z"/>
	<path class="copy-grayFill" d="M75.8,150.2c-0.1-0.1-0.1-0.3-0.1-0.5c0-0.2-0.1-0.4-0.1-0.6c-0.2,0.4-0.4,0.7-0.8,0.9
		c-0.4,0.2-0.8,0.4-1.4,0.4c-0.8,0-1.4-0.2-1.8-0.7c-0.4-0.4-0.6-1-0.6-1.7c0-0.4,0.1-0.7,0.2-1s0.3-0.5,0.6-0.7
		c0.2-0.2,0.5-0.3,0.9-0.4c0.3-0.1,0.7-0.2,1.1-0.3l1.6-0.2v-0.3c0-0.4-0.1-0.7-0.3-0.9c-0.2-0.1-0.5-0.2-0.8-0.2
		c-0.5,0-0.9,0.1-1.3,0.3s-0.6,0.4-0.9,0.7l-1-1.3c0.3-0.3,0.7-0.6,1.3-0.8c0.6-0.2,1.2-0.4,2.1-0.4c1,0,1.8,0.2,2.2,0.7
		c0.5,0.5,0.7,1.1,0.7,2.1v2.8c0,0.3,0,0.5,0,0.7c0,0.2,0,0.4,0,0.5s0,0.3,0.1,0.4c0,0.1,0.1,0.3,0.1,0.4H75.8z M75.4,146.7
		l-1.3,0.2c-0.4,0.1-0.8,0.2-1,0.4c-0.2,0.2-0.3,0.4-0.3,0.7s0.1,0.5,0.3,0.7c0.2,0.2,0.4,0.3,0.7,0.3c0.4,0,0.8-0.2,1.1-0.5
		c0.3-0.3,0.4-0.8,0.4-1.3V146.7z"/>
	<path class="copy-grayFill" d="M83.4,149c-0.2,0.4-0.5,0.8-0.8,1s-0.8,0.4-1.3,0.4c-0.4,0-0.8-0.1-1.2-0.3c-0.4-0.2-0.7-0.4-0.9-0.8
		c-0.3-0.3-0.5-0.7-0.6-1.2c-0.1-0.5-0.2-1-0.2-1.6c0-0.7,0.1-1.3,0.2-1.7c0.2-0.5,0.4-0.9,0.7-1.2s0.6-0.5,0.9-0.7
		c0.4-0.1,0.7-0.2,1.1-0.2c0.5,0,0.9,0.1,1.3,0.3c0.3,0.2,0.6,0.5,0.7,0.8v-3.9h2v10.4h-1.9V149z M83.3,146.2c0-0.3,0-0.5-0.1-0.7
		s-0.1-0.5-0.2-0.6c-0.1-0.2-0.3-0.3-0.4-0.5c-0.2-0.1-0.4-0.2-0.7-0.2c-0.5,0-0.9,0.2-1.1,0.6c-0.2,0.4-0.4,0.9-0.4,1.6
		c0,0.7,0.1,1.3,0.4,1.7c0.3,0.4,0.6,0.6,1.1,0.6c0.2,0,0.5-0.1,0.6-0.2c0.2-0.1,0.3-0.3,0.4-0.5s0.2-0.4,0.2-0.7s0.1-0.6,0.1-0.8
		V146.2z"/>
	<path class="copy-grayFill" d="M90.3,144.1h-1.2v-1.3h0.2c0.3,0,0.6-0.1,0.8-0.2c0.2-0.1,0.4-0.3,0.5-0.4s0.2-0.4,0.3-0.7s0.1-0.5,0.2-0.8
		h1.2v2.1h1.6v1.3h-1.6v3.9c0,0.3,0.1,0.5,0.2,0.7c0.1,0.2,0.3,0.2,0.6,0.2c0.1,0,0.2,0,0.3,0c0.1,0,0.2-0.1,0.4-0.1l0.1,1.4
		c-0.2,0.1-0.5,0.2-0.7,0.2c-0.2,0-0.5,0.1-0.8,0.1c-0.4,0-0.8-0.1-1-0.2c-0.3-0.1-0.5-0.3-0.6-0.5c-0.2-0.2-0.3-0.4-0.3-0.7
		c-0.1-0.3-0.1-0.6-0.1-0.9V144.1z"/>
	<path class="copy-grayFill" d="M94.7,139.8h2v4.1c0.2-0.4,0.5-0.7,0.8-1s0.9-0.4,1.5-0.4c0.8,0,1.4,0.3,1.8,0.8c0.4,0.5,0.6,1.3,0.6,2.2v4.6
		h-2v-4.2c0-0.5-0.1-0.9-0.3-1.2c-0.2-0.3-0.5-0.4-0.9-0.4c-0.4,0-0.8,0.2-1.1,0.5c-0.3,0.4-0.4,0.9-0.4,1.6v3.7h-2V139.8z"/>
	<path class="copy-grayFill" d="M104.3,147c0.1,0.7,0.3,1.2,0.6,1.5c0.3,0.3,0.7,0.5,1.2,0.5c0.7,0,1.2-0.3,1.6-1l1.5,0.8
		c-0.3,0.5-0.8,0.9-1.3,1.2s-1.2,0.4-1.9,0.4c-0.6,0-1.1-0.1-1.6-0.3c-0.5-0.2-0.9-0.5-1.2-0.8c-0.3-0.3-0.6-0.8-0.7-1.2
		s-0.2-1-0.2-1.5c0-0.6,0.1-1.1,0.2-1.6c0.2-0.5,0.4-0.9,0.7-1.2c0.3-0.4,0.7-0.6,1.1-0.8c0.4-0.2,1-0.3,1.5-0.3
		c0.6,0,1.1,0.1,1.5,0.3c0.4,0.2,0.8,0.5,1.1,0.8c0.3,0.3,0.5,0.8,0.7,1.2c0.1,0.5,0.2,1,0.2,1.6c0,0.1,0,0.2,0,0.3
		c0,0.1,0,0.1,0,0.1H104.3z M105.9,144.1c-0.5,0-0.8,0.2-1.1,0.5s-0.4,0.7-0.5,1.3h3c0-0.2,0-0.5-0.1-0.7c-0.1-0.2-0.1-0.4-0.3-0.6
		c-0.1-0.2-0.3-0.3-0.4-0.4C106.3,144.1,106.1,144.1,105.9,144.1z"/>
	<path class="copy-grayFill" d="M119.9,148.6c-0.3,0.6-0.8,1.1-1.3,1.4c-0.5,0.3-1.2,0.4-1.9,0.4c-0.6,0-1.2-0.1-1.6-0.3
		c-0.5-0.2-0.8-0.5-1.1-0.8c-0.3-0.4-0.5-0.8-0.7-1.2c-0.1-0.5-0.2-1-0.2-1.5c0-0.6,0.1-1.1,0.2-1.6s0.4-0.9,0.7-1.2
		c0.3-0.3,0.7-0.6,1.1-0.8s1-0.3,1.5-0.3c0.8,0,1.4,0.2,1.9,0.5c0.5,0.3,0.9,0.8,1.3,1.4l-1.7,0.8c-0.2-0.4-0.4-0.7-0.6-0.9
		c-0.2-0.2-0.5-0.3-0.9-0.3c-0.3,0-0.5,0.1-0.7,0.2c-0.2,0.1-0.4,0.3-0.5,0.5c-0.1,0.2-0.2,0.4-0.3,0.7c-0.1,0.3-0.1,0.6-0.1,0.9
		c0,0.3,0,0.6,0.1,0.9c0.1,0.3,0.1,0.6,0.3,0.8s0.3,0.4,0.5,0.6c0.2,0.2,0.5,0.2,0.8,0.2c0.4,0,0.7-0.1,1-0.3s0.4-0.5,0.6-0.9
		L119.9,148.6z"/>
	<path class="copy-grayFill" d="M125,150.2c-0.1-0.1-0.1-0.3-0.1-0.5c0-0.2-0.1-0.4-0.1-0.6c-0.2,0.4-0.4,0.7-0.8,0.9
		c-0.4,0.2-0.8,0.4-1.4,0.4c-0.8,0-1.4-0.2-1.8-0.7c-0.4-0.4-0.6-1-0.6-1.7c0-0.4,0.1-0.7,0.2-1s0.3-0.5,0.6-0.7
		c0.2-0.2,0.5-0.3,0.9-0.4c0.3-0.1,0.7-0.2,1.1-0.3l1.6-0.2v-0.3c0-0.4-0.1-0.7-0.3-0.9c-0.2-0.1-0.5-0.2-0.8-0.2
		c-0.5,0-0.9,0.1-1.3,0.3s-0.6,0.4-0.9,0.7l-1-1.3c0.3-0.3,0.7-0.6,1.3-0.8c0.6-0.2,1.2-0.4,2.1-0.4c1,0,1.8,0.2,2.2,0.7
		c0.5,0.5,0.7,1.1,0.7,2.1v2.8c0,0.3,0,0.5,0,0.7c0,0.2,0,0.4,0,0.5s0,0.3,0.1,0.4c0,0.1,0.1,0.3,0.1,0.4H125z M124.7,146.7
		l-1.3,0.2c-0.4,0.1-0.8,0.2-1,0.4c-0.2,0.2-0.3,0.4-0.3,0.7s0.1,0.5,0.3,0.7c0.2,0.2,0.4,0.3,0.7,0.3c0.4,0,0.8-0.2,1.1-0.5
		c0.3-0.3,0.4-0.8,0.4-1.3V146.7z"/>
	<path class="copy-grayFill" d="M128.6,148c0.1,0.1,0.3,0.2,0.4,0.4c0.2,0.1,0.3,0.2,0.5,0.3c0.2,0.1,0.4,0.2,0.6,0.2c0.2,0.1,0.4,0.1,0.7,0.1
		c0.3,0,0.5-0.1,0.7-0.2c0.2-0.1,0.3-0.3,0.3-0.6c0-0.2-0.1-0.4-0.3-0.5c-0.2-0.1-0.4-0.2-0.7-0.3c-0.3-0.1-0.6-0.2-1-0.3
		c-0.3-0.1-0.7-0.2-1-0.4c-0.3-0.2-0.5-0.4-0.7-0.7s-0.3-0.6-0.3-1.1c0-0.4,0.1-0.7,0.2-1c0.2-0.3,0.4-0.5,0.7-0.7
		c0.3-0.2,0.6-0.3,0.9-0.4s0.7-0.1,1.1-0.1c0.6,0,1.2,0.1,1.6,0.2c0.5,0.2,0.9,0.4,1.3,0.7l-0.9,1.3c-0.1-0.1-0.2-0.2-0.4-0.3
		c-0.2-0.1-0.3-0.2-0.5-0.2c-0.2-0.1-0.4-0.1-0.6-0.2c-0.2,0-0.4-0.1-0.6-0.1c-0.2,0-0.4,0-0.6,0.1c-0.2,0.1-0.3,0.3-0.3,0.5
		c0,0.2,0.1,0.4,0.3,0.5c0.2,0.1,0.4,0.2,0.7,0.3c0.3,0.1,0.6,0.2,1,0.3c0.3,0.1,0.7,0.2,1,0.4c0.3,0.2,0.5,0.4,0.7,0.7
		s0.3,0.6,0.3,1.1c0,0.4-0.1,0.8-0.3,1.1c-0.2,0.3-0.4,0.6-0.7,0.8c-0.3,0.2-0.6,0.4-1,0.5c-0.4,0.1-0.7,0.1-1.1,0.1
		c-1.3,0-2.4-0.4-3.3-1.1L128.6,148z"/>
	<path class="copy-grayFill" d="M136.5,147c0.1,0.7,0.3,1.2,0.6,1.5c0.3,0.3,0.7,0.5,1.2,0.5c0.7,0,1.2-0.3,1.6-1l1.5,0.8
		c-0.3,0.5-0.8,0.9-1.3,1.2s-1.2,0.4-1.9,0.4c-0.6,0-1.1-0.1-1.6-0.3c-0.5-0.2-0.9-0.5-1.2-0.8c-0.3-0.3-0.6-0.8-0.7-1.2
		s-0.2-1-0.2-1.5c0-0.6,0.1-1.1,0.2-1.6c0.2-0.5,0.4-0.9,0.7-1.2c0.3-0.4,0.7-0.6,1.1-0.8c0.4-0.2,1-0.3,1.5-0.3
		c0.6,0,1.1,0.1,1.5,0.3c0.4,0.2,0.8,0.5,1.1,0.8c0.3,0.3,0.5,0.8,0.7,1.2c0.1,0.5,0.2,1,0.2,1.6c0,0.1,0,0.2,0,0.3
		c0,0.1,0,0.1,0,0.1H136.5z M138,144.1c-0.5,0-0.8,0.2-1.1,0.5s-0.4,0.7-0.5,1.3h3c0-0.2,0-0.5-0.1-0.7c-0.1-0.2-0.1-0.4-0.3-0.6
		c-0.1-0.2-0.3-0.3-0.4-0.4C138.5,144.1,138.2,144.1,138,144.1z"/>
	<path class="copy-grayFill" d="M146,148c0.1,0.1,0.3,0.2,0.4,0.4c0.2,0.1,0.3,0.2,0.5,0.3c0.2,0.1,0.4,0.2,0.6,0.2c0.2,0.1,0.4,0.1,0.7,0.1
		c0.3,0,0.5-0.1,0.7-0.2c0.2-0.1,0.3-0.3,0.3-0.6c0-0.2-0.1-0.4-0.3-0.5c-0.2-0.1-0.4-0.2-0.7-0.3c-0.3-0.1-0.6-0.2-1-0.3
		c-0.3-0.1-0.7-0.2-1-0.4c-0.3-0.2-0.5-0.4-0.7-0.7s-0.3-0.6-0.3-1.1c0-0.4,0.1-0.7,0.2-1c0.2-0.3,0.4-0.5,0.7-0.7
		c0.3-0.2,0.6-0.3,0.9-0.4s0.7-0.1,1.1-0.1c0.6,0,1.2,0.1,1.6,0.2c0.5,0.2,0.9,0.4,1.3,0.7l-0.9,1.3c-0.1-0.1-0.2-0.2-0.4-0.3
		c-0.2-0.1-0.3-0.2-0.5-0.2c-0.2-0.1-0.4-0.1-0.6-0.2c-0.2,0-0.4-0.1-0.6-0.1c-0.2,0-0.4,0-0.6,0.1c-0.2,0.1-0.3,0.3-0.3,0.5
		c0,0.2,0.1,0.4,0.3,0.5c0.2,0.1,0.4,0.2,0.7,0.3c0.3,0.1,0.6,0.2,1,0.3c0.3,0.1,0.7,0.2,1,0.4c0.3,0.2,0.5,0.4,0.7,0.7
		s0.3,0.6,0.3,1.1c0,0.4-0.1,0.8-0.3,1.1c-0.2,0.3-0.4,0.6-0.7,0.8c-0.3,0.2-0.6,0.4-1,0.5c-0.4,0.1-0.7,0.1-1.1,0.1
		c-1.3,0-2.4-0.4-3.3-1.1L146,148z"/>
	<path class="copy-grayFill" d="M152.7,144.1h-1.2v-1.3h0.2c0.3,0,0.6-0.1,0.8-0.2c0.2-0.1,0.4-0.3,0.5-0.4c0.1-0.2,0.2-0.4,0.3-0.7
		c0.1-0.3,0.1-0.5,0.2-0.8h1.2v2.1h1.6v1.3h-1.6v3.9c0,0.3,0.1,0.5,0.2,0.7c0.1,0.2,0.3,0.2,0.6,0.2c0.1,0,0.2,0,0.3,0
		c0.1,0,0.2-0.1,0.4-0.1l0.1,1.4c-0.2,0.1-0.5,0.2-0.7,0.2c-0.2,0-0.5,0.1-0.8,0.1c-0.4,0-0.8-0.1-1-0.2c-0.3-0.1-0.5-0.3-0.6-0.5
		c-0.2-0.2-0.3-0.4-0.3-0.7c-0.1-0.3-0.1-0.6-0.1-0.9V144.1z"/>
	<path class="copy-grayFill" d="M157,142.8h2v4.2c0,1.1,0.4,1.6,1.2,1.6c0.5,0,0.8-0.2,1.1-0.6c0.3-0.4,0.4-0.9,0.4-1.6v-3.7h2v7.4h-1.9v-1.2
		c-0.2,0.4-0.5,0.8-0.8,1s-0.8,0.4-1.5,0.4c-0.9,0-1.5-0.2-1.9-0.7s-0.6-1.2-0.6-2.1V142.8z"/>
	<path class="copy-grayFill" d="M169.7,149c-0.2,0.4-0.5,0.8-0.8,1c-0.3,0.2-0.8,0.4-1.3,0.4c-0.4,0-0.8-0.1-1.2-0.3c-0.4-0.2-0.7-0.4-0.9-0.8
		c-0.3-0.3-0.5-0.7-0.6-1.2c-0.1-0.5-0.2-1-0.2-1.6c0-0.7,0.1-1.3,0.2-1.7s0.4-0.9,0.7-1.2s0.6-0.5,0.9-0.7c0.4-0.1,0.7-0.2,1.1-0.2
		c0.5,0,0.9,0.1,1.3,0.3c0.3,0.2,0.6,0.5,0.7,0.8v-3.9h2v10.4h-1.9V149z M169.6,146.2c0-0.3,0-0.5-0.1-0.7c-0.1-0.2-0.1-0.5-0.2-0.6
		c-0.1-0.2-0.3-0.3-0.4-0.5c-0.2-0.1-0.4-0.2-0.7-0.2c-0.5,0-0.9,0.2-1.1,0.6c-0.2,0.4-0.4,0.9-0.4,1.6c0,0.7,0.1,1.3,0.4,1.7
		c0.3,0.4,0.6,0.6,1.1,0.6c0.2,0,0.5-0.1,0.6-0.2c0.2-0.1,0.3-0.3,0.4-0.5c0.1-0.2,0.2-0.4,0.2-0.7c0.1-0.3,0.1-0.6,0.1-0.8V146.2z"
		/>
	<path class="copy-grayFill" d="M173,151.2c0.2,0,0.3,0.1,0.5,0.1s0.3,0.1,0.5,0.1c0.3,0,0.5-0.1,0.6-0.2c0.1-0.1,0.3-0.4,0.4-0.8l-2.6-7.6
		h2.1l1.5,5.4l1.5-5.4h2.1l-2.5,7.1c-0.2,0.5-0.3,0.9-0.5,1.3c-0.1,0.4-0.3,0.7-0.5,0.9s-0.5,0.4-0.8,0.6c-0.3,0.1-0.7,0.2-1.3,0.2
		c-0.1,0-0.2,0-0.3,0c-0.1,0-0.2,0-0.4,0c-0.1,0-0.2,0-0.4,0c-0.1,0-0.2,0-0.3-0.1L173,151.2z"/>
	<path class="copy-grayFill" d="M179.5,147.9h2.2v2.2h-2.2V147.9z"/>
</g>
</svg>
