<?xml version="1.0" encoding="utf-8"?>
<!-- Generator: Adobe Illustrator 22.1.0, SVG Export Plug-In . SVG Version: 6.00 Build 0)  -->
<svg version="1.1" id="Layer_1" xmlns="https://www.w3.org/2000/svg" xmlns:xlink="https://www.w3.org/1999/xlink" x="0px" y="0px"
	 viewBox="0 0 300 250" style="enable-background:new 0 0 300 250;" xml:space="preserve">
<style type="text/css">
	.copy-purpleFill{fill:#662868;}
</style>
<g>
	<path class="copy-purpleFill" d="M24.7,79.5h-4.6v-3.1h13.3v3.1h-4.6v13.1h-4.1V79.5z"/>
	<path class="copy-purpleFill" d="M38.1,92.9c-1,0-1.9-0.2-2.6-0.5c-0.7-0.3-1.4-0.7-1.9-1.3c-0.5-0.6-0.9-1.2-1.1-2c-0.2-0.8-0.4-1.6-0.4-2.5
		s0.1-1.7,0.4-2.5c0.3-0.8,0.6-1.4,1.1-2c0.5-0.6,1.1-1,1.8-1.3c0.7-0.3,1.6-0.5,2.6-0.5c1,0,1.8,0.2,2.6,0.5s1.4,0.7,1.9,1.3
		c0.5,0.6,0.9,1.2,1.1,2c0.3,0.8,0.4,1.6,0.4,2.5s-0.1,1.7-0.4,2.5c-0.3,0.8-0.6,1.4-1.1,2c-0.5,0.6-1.1,1-1.9,1.3
		C39.9,92.8,39.1,92.9,38.1,92.9z M38.2,90c0.6,0,1.1-0.3,1.4-0.9c0.3-0.6,0.4-1.4,0.4-2.4s-0.2-1.8-0.5-2.4
		c-0.3-0.6-0.8-0.9-1.4-0.9s-1.1,0.3-1.4,0.9c-0.3,0.6-0.5,1.4-0.5,2.4s0.2,1.8,0.5,2.4C37,89.7,37.5,90,38.2,90z"/>
	<path class="copy-purpleFill" d="M52.5,90.9c-0.3,0.6-0.7,1.1-1.2,1.4s-1.1,0.5-1.9,0.5c-0.7,0-1.3-0.1-1.9-0.4c-0.6-0.3-1.1-0.7-1.5-1.2
		c-0.4-0.5-0.7-1.2-1-1.9c-0.2-0.8-0.3-1.7-0.3-2.7c0-1.1,0.1-2.1,0.4-2.9c0.3-0.8,0.6-1.4,1.1-1.9c0.4-0.5,0.9-0.8,1.5-1
		c0.6-0.2,1.1-0.3,1.7-0.3c0.7,0,1.3,0.1,1.8,0.4c0.5,0.3,0.9,0.6,1.1,1v-5.7h3.9v16.2h-3.7V90.9z M52.3,86.5c0-0.4,0-0.7-0.1-1.1
		c-0.1-0.3-0.2-0.6-0.3-0.9c-0.1-0.3-0.3-0.5-0.5-0.6c-0.2-0.2-0.5-0.2-0.8-0.2c-0.6,0-1,0.2-1.3,0.7c-0.3,0.5-0.4,1.2-0.4,2.1
		c0,1,0.2,1.8,0.5,2.3c0.3,0.6,0.8,0.8,1.3,0.8c0.3,0,0.6-0.1,0.8-0.2c0.2-0.2,0.4-0.4,0.5-0.7c0.1-0.3,0.2-0.6,0.3-1
		c0.1-0.4,0.1-0.8,0.1-1.2V86.5z"/>
	<path class="copy-purpleFill" d="M64.9,92.6c-0.1-0.2-0.2-0.4-0.2-0.7c-0.1-0.3-0.1-0.5-0.1-0.7c-0.2,0.5-0.6,0.9-1.1,1.2s-1.2,0.5-2.1,0.5
		c-0.6,0-1.2-0.1-1.7-0.3c-0.5-0.2-0.9-0.5-1.2-0.8c-0.3-0.3-0.6-0.7-0.7-1.2s-0.3-1-0.3-1.5c0-0.6,0.1-1.1,0.3-1.6
		c0.2-0.4,0.5-0.8,0.9-1.1c0.4-0.3,0.9-0.6,1.4-0.7c0.6-0.2,1.2-0.3,1.9-0.4l2.3-0.4v-0.3c0-0.5-0.1-0.8-0.4-1
		c-0.3-0.2-0.6-0.3-1.1-0.3c-0.7,0-1.3,0.1-1.8,0.4c-0.5,0.3-1,0.6-1.4,0.9l-1.8-2.6c0.2-0.2,0.5-0.4,0.9-0.6
		c0.4-0.2,0.8-0.4,1.2-0.6c0.5-0.2,1-0.3,1.5-0.4s1.2-0.1,1.9-0.1c1.7,0,3,0.4,3.7,1.1c0.7,0.7,1.1,1.9,1.1,3.4v4.2
		c0,0.5,0,0.9,0,1.2c0,0.3,0,0.6,0.1,0.9c0,0.3,0.1,0.5,0.1,0.7c0.1,0.2,0.1,0.4,0.3,0.7H64.9z M64.4,87.4l-1.6,0.3
		c-0.5,0.1-0.9,0.3-1.2,0.5c-0.2,0.2-0.4,0.5-0.4,0.9c0,0.3,0.1,0.6,0.3,0.8c0.2,0.2,0.5,0.3,0.9,0.3c0.5,0,1-0.2,1.4-0.6
		c0.4-0.4,0.6-1,0.6-1.8V87.4z"/>
	<path class="copy-purpleFill" d="M70.1,93.7c0.3,0.1,0.6,0.2,0.9,0.2c0.3,0.1,0.6,0.1,0.8,0.1c0.4,0,0.6-0.1,0.8-0.2c0.2-0.2,0.3-0.4,0.4-0.8
		l-4.2-12.1H73l2,7.9l2-7.9h4.2l-4.1,11.6c-0.2,0.6-0.5,1.2-0.7,1.8c-0.2,0.5-0.5,1-0.9,1.4s-0.8,0.7-1.4,0.9s-1.3,0.3-2.2,0.3
		c-0.1,0-0.3,0-0.5,0c-0.2,0-0.4,0-0.6,0c-0.2,0-0.4,0-0.6-0.1c-0.2,0-0.4-0.1-0.5-0.1L70.1,93.7z"/>
	<path class="copy-purpleFill" d="M82.2,83.5c0.4-0.2,0.7-0.4,1-0.6c0.3-0.2,0.5-0.4,0.6-0.6c0.1-0.2,0.2-0.4,0.3-0.7c0-0.2,0.1-0.5,0.1-0.8
		v-0.4h-2v-4.1h4.3v4c0,0.7-0.1,1.3-0.2,1.8c-0.1,0.5-0.3,1-0.6,1.3c-0.3,0.4-0.6,0.7-1.1,1c-0.4,0.3-0.9,0.5-1.5,0.7L82.2,83.5z"/>
	<path class="copy-purpleFill" d="M88.7,88.7c0.2,0.2,0.4,0.3,0.7,0.5s0.5,0.3,0.9,0.5c0.3,0.1,0.6,0.2,1,0.3c0.3,0.1,0.7,0.1,1,0.1
		c0.3,0,0.6,0,0.8-0.1c0.3-0.1,0.4-0.3,0.4-0.6c0-0.3-0.2-0.5-0.5-0.7c-0.3-0.2-0.7-0.3-1.1-0.4c-0.5-0.1-0.9-0.3-1.5-0.4
		s-1-0.4-1.5-0.6c-0.5-0.3-0.8-0.6-1.1-1.1s-0.5-1-0.5-1.8c0-0.7,0.1-1.2,0.4-1.7s0.6-0.9,1.1-1.2c0.5-0.3,1-0.5,1.6-0.7
		c0.6-0.2,1.2-0.2,1.9-0.2c1.1,0,2,0.1,2.8,0.4c0.8,0.2,1.5,0.6,2.2,1l-1.8,2.6c-0.2-0.1-0.4-0.3-0.6-0.4c-0.2-0.1-0.5-0.3-0.8-0.4
		c-0.3-0.1-0.6-0.2-0.9-0.3c-0.3-0.1-0.6-0.1-1-0.1c-0.3,0-0.5,0-0.6,0.1c-0.2,0.1-0.3,0.2-0.3,0.5c0,0.3,0.2,0.5,0.5,0.6
		c0.3,0.2,0.7,0.3,1.1,0.4c0.5,0.1,0.9,0.3,1.5,0.5c0.5,0.2,1,0.4,1.5,0.7c0.5,0.3,0.8,0.6,1.1,1.1c0.3,0.4,0.5,1,0.5,1.7
		c0,0.7-0.1,1.3-0.4,1.8s-0.7,0.9-1.2,1.3c-0.5,0.3-1,0.6-1.6,0.7c-0.6,0.2-1.2,0.2-1.8,0.2c-2.2,0-4-0.6-5.4-1.7L88.7,88.7z"/>
	<path class="copy-purpleFill" d="M103.2,76.3h3.9v16.2h-3.9V76.3z"/>
	<path class="copy-purpleFill" d="M112.3,87.6c0.1,0.9,0.4,1.5,0.9,1.9c0.4,0.4,0.9,0.5,1.5,0.5c0.5,0,0.9-0.1,1.3-0.3s0.7-0.5,0.9-1l2.8,1.6
		c-0.6,0.9-1.3,1.5-2.3,2c-0.9,0.4-1.9,0.6-3,0.6c-1,0-1.9-0.2-2.6-0.5c-0.8-0.3-1.4-0.7-1.9-1.3c-0.5-0.6-0.9-1.2-1.2-2
		s-0.4-1.6-0.4-2.4c0-0.9,0.1-1.7,0.4-2.5c0.3-0.8,0.7-1.4,1.2-2c0.5-0.6,1.1-1,1.9-1.3s1.6-0.5,2.5-0.5c0.9,0,1.7,0.2,2.4,0.5
		c0.7,0.3,1.3,0.7,1.8,1.3c0.5,0.6,0.9,1.2,1.1,2S120,86,120,87c0,0.2,0,0.4,0,0.5c0,0.1,0,0.2,0,0.2H112.3z M114.2,83.4
		c-1.1,0-1.7,0.7-1.9,2.1h3.8c0-0.6-0.1-1.1-0.4-1.5C115.3,83.6,114.8,83.4,114.2,83.4z"/>
	<path class="copy-purpleFill" d="M127.9,92.6c-0.1-0.2-0.2-0.4-0.2-0.7c-0.1-0.3-0.1-0.5-0.1-0.7c-0.2,0.5-0.6,0.9-1.1,1.2s-1.2,0.5-2.1,0.5
		c-0.6,0-1.2-0.1-1.7-0.3c-0.5-0.2-0.9-0.5-1.2-0.8c-0.3-0.3-0.6-0.7-0.7-1.2s-0.3-1-0.3-1.5c0-0.6,0.1-1.1,0.3-1.6
		c0.2-0.4,0.5-0.8,0.9-1.1c0.4-0.3,0.9-0.6,1.4-0.7c0.6-0.2,1.2-0.3,1.9-0.4l2.3-0.4v-0.3c0-0.5-0.1-0.8-0.4-1
		c-0.3-0.2-0.6-0.3-1.1-0.3c-0.7,0-1.3,0.1-1.8,0.4c-0.5,0.3-1,0.6-1.4,0.9l-1.8-2.6c0.2-0.2,0.5-0.4,0.9-0.6
		c0.4-0.2,0.8-0.4,1.2-0.6c0.5-0.2,1-0.3,1.5-0.4s1.2-0.1,1.9-0.1c1.7,0,3,0.4,3.7,1.1c0.7,0.7,1.1,1.9,1.1,3.4v4.2
		c0,0.5,0,0.9,0,1.2c0,0.3,0,0.6,0.1,0.9c0,0.3,0.1,0.5,0.1,0.7c0.1,0.2,0.1,0.4,0.3,0.7H127.9z M127.3,87.4l-1.6,0.3
		c-0.5,0.1-0.9,0.3-1.2,0.5c-0.2,0.2-0.4,0.5-0.4,0.9c0,0.3,0.1,0.6,0.3,0.8c0.2,0.2,0.5,0.3,0.9,0.3c0.5,0,1-0.2,1.4-0.6
		c0.4-0.4,0.6-1,0.6-1.8V87.4z"/>
	<path class="copy-purpleFill" d="M140.1,90.9c-0.3,0.6-0.7,1.1-1.2,1.4s-1.1,0.5-1.9,0.5c-0.7,0-1.3-0.1-1.9-0.4c-0.6-0.3-1.1-0.7-1.5-1.2
		c-0.4-0.5-0.7-1.2-1-1.9c-0.2-0.8-0.3-1.7-0.3-2.7c0-1.1,0.1-2.1,0.4-2.9c0.3-0.8,0.6-1.4,1.1-1.9c0.4-0.5,0.9-0.8,1.5-1
		c0.6-0.2,1.1-0.3,1.7-0.3c0.7,0,1.3,0.1,1.8,0.4c0.5,0.3,0.9,0.6,1.1,1v-5.7h3.9v16.2h-3.7V90.9z M139.8,86.5c0-0.4,0-0.7-0.1-1.1
		c-0.1-0.3-0.2-0.6-0.3-0.9c-0.1-0.3-0.3-0.5-0.5-0.6c-0.2-0.2-0.5-0.2-0.8-0.2c-0.6,0-1,0.2-1.3,0.7c-0.3,0.5-0.4,1.2-0.4,2.1
		c0,1,0.2,1.8,0.5,2.3c0.3,0.6,0.8,0.8,1.3,0.8c0.3,0,0.6-0.1,0.8-0.2c0.2-0.2,0.4-0.4,0.5-0.7c0.1-0.3,0.2-0.6,0.3-1
		c0.1-0.4,0.1-0.8,0.1-1.2V86.5z"/>
	<path class="copy-purpleFill" d="M145.5,76.2h3.9v3.1h-3.9V76.2z M145.5,80.9h3.9v11.7h-3.9V80.9z"/>
	<path class="copy-purpleFill" d="M151.2,80.9h3.5l0.3,1.6c0.4-0.6,0.9-1,1.5-1.4c0.6-0.4,1.4-0.6,2.2-0.6c2.6,0,3.9,1.6,3.9,4.9v7.1h-3.9v-6.2
		c0-0.9-0.1-1.6-0.4-1.9c-0.3-0.4-0.7-0.6-1.3-0.6c-0.3,0-0.5,0-0.8,0.1s-0.4,0.3-0.6,0.5s-0.3,0.6-0.4,1c-0.1,0.4-0.1,0.9-0.1,1.5
		v5.5h-3.9V80.9z"/>
	<path class="copy-purpleFill" d="M165.7,92.5c0.4,0.4,1,0.8,1.7,1.1c0.7,0.3,1.3,0.4,2,0.4c0.7,0,1.2-0.2,1.5-0.5c0.3-0.3,0.4-0.8,0.4-1.4V91
		c-0.3,0.4-0.6,0.7-1.1,1c-0.5,0.3-1.1,0.4-1.9,0.4c-0.6,0-1.1-0.1-1.6-0.3c-0.5-0.2-1-0.5-1.5-1s-0.8-1-1-1.8
		c-0.3-0.7-0.4-1.6-0.4-2.7c0-1,0.1-1.8,0.3-2.6c0.2-0.8,0.6-1.4,1-1.9c0.4-0.5,0.9-0.9,1.5-1.2c0.6-0.3,1.2-0.4,1.9-0.4
		c0.7,0,1.3,0.2,1.9,0.5c0.5,0.3,1,0.8,1.3,1.4l0.5-1.6h3.1v11.1c0,0.7-0.1,1.4-0.3,2c-0.2,0.6-0.5,1.1-1,1.6
		c-0.5,0.4-1.1,0.8-1.8,1c-0.7,0.2-1.6,0.4-2.6,0.4c-0.7,0-1.3,0-1.9-0.1c-0.6-0.1-1.1-0.2-1.6-0.4c-0.5-0.2-0.9-0.3-1.3-0.5
		c-0.4-0.2-0.7-0.4-1-0.6L165.7,92.5z M171.3,86.6c0-0.4,0-0.7-0.1-1.1s-0.1-0.7-0.3-0.9c-0.1-0.3-0.3-0.5-0.5-0.7
		c-0.2-0.2-0.5-0.3-0.9-0.3c-0.2,0-0.5,0-0.7,0.1c-0.2,0.1-0.4,0.3-0.6,0.5c-0.2,0.2-0.3,0.5-0.4,0.9s-0.1,0.8-0.1,1.4
		c0,1,0.2,1.7,0.5,2.2s0.8,0.7,1.4,0.7s1-0.2,1.3-0.7c0.3-0.5,0.4-1.1,0.4-2V86.6z"/>
	<path class="copy-purpleFill" d="M181.7,76.3h3.9v6.1c0.3-0.5,0.7-1,1.3-1.3s1.3-0.6,2.3-0.6c1.3,0,2.3,0.4,2.9,1.3c0.6,0.9,0.9,2.1,0.9,3.7
		v7.1h-3.9v-6.3c0-0.7-0.1-1.3-0.4-1.7c-0.3-0.4-0.7-0.6-1.3-0.6c-0.6,0-1,0.2-1.4,0.7c-0.4,0.5-0.5,1.2-0.5,2.3v5.7h-3.9V76.3z"/>
	<path class="copy-purpleFill" d="M198.1,87.6c0.1,0.9,0.4,1.5,0.9,1.9c0.4,0.4,0.9,0.5,1.5,0.5c0.5,0,0.9-0.1,1.3-0.3s0.7-0.5,0.9-1l2.8,1.6
		c-0.6,0.9-1.3,1.5-2.3,2s-1.9,0.6-3,0.6c-1,0-1.9-0.2-2.6-0.5c-0.8-0.3-1.4-0.7-1.9-1.3c-0.5-0.6-0.9-1.2-1.2-2
		c-0.3-0.8-0.4-1.6-0.4-2.4c0-0.9,0.1-1.7,0.4-2.5c0.3-0.8,0.7-1.4,1.2-2c0.5-0.6,1.1-1,1.9-1.3s1.6-0.5,2.5-0.5
		c0.9,0,1.7,0.2,2.4,0.5c0.7,0.3,1.3,0.7,1.8,1.3c0.5,0.6,0.9,1.2,1.1,2s0.4,1.7,0.4,2.7c0,0.2,0,0.4,0,0.5s0,0.2,0,0.2H198.1z
		 M200,83.4c-1.1,0-1.7,0.7-1.9,2.1h3.8c0-0.6-0.1-1.1-0.4-1.5S200.7,83.4,200,83.4z"/>
	<path class="copy-purpleFill" d="M213.8,92.6c-0.1-0.2-0.2-0.4-0.2-0.7c-0.1-0.3-0.1-0.5-0.1-0.7c-0.2,0.5-0.6,0.9-1.1,1.2
		c-0.5,0.4-1.2,0.5-2.1,0.5c-0.6,0-1.2-0.1-1.7-0.3s-0.9-0.5-1.2-0.8c-0.3-0.3-0.6-0.7-0.7-1.2s-0.3-1-0.3-1.5
		c0-0.6,0.1-1.1,0.3-1.6c0.2-0.4,0.5-0.8,0.9-1.1c0.4-0.3,0.9-0.6,1.4-0.7s1.2-0.3,1.9-0.4l2.3-0.4v-0.3c0-0.5-0.1-0.8-0.4-1
		c-0.3-0.2-0.6-0.3-1.1-0.3c-0.7,0-1.3,0.1-1.8,0.4c-0.5,0.3-1,0.6-1.4,0.9l-1.8-2.6c0.2-0.2,0.5-0.4,0.9-0.6
		c0.4-0.2,0.8-0.4,1.2-0.6c0.5-0.2,1-0.3,1.5-0.4s1.2-0.1,1.9-0.1c1.7,0,3,0.4,3.7,1.1s1.1,1.9,1.1,3.4v4.2c0,0.5,0,0.9,0,1.2
		s0,0.6,0.1,0.9s0.1,0.5,0.1,0.7c0.1,0.2,0.1,0.4,0.3,0.7H213.8z M213.2,87.4l-1.6,0.3c-0.5,0.1-0.9,0.3-1.2,0.5
		c-0.2,0.2-0.4,0.5-0.4,0.9c0,0.3,0.1,0.6,0.3,0.8c0.2,0.2,0.5,0.3,0.9,0.3c0.5,0,1-0.2,1.4-0.6c0.4-0.4,0.6-1,0.6-1.8V87.4z"/>
	<path class="copy-purpleFill" d="M218.9,76.3h3.9v16.2h-3.9V76.3z"/>
	<path class="copy-purpleFill" d="M225.4,83.4h-1.9v-2.5h0.3c0.6,0,1.1-0.1,1.4-0.3c0.3-0.2,0.6-0.5,0.8-0.8c0.2-0.3,0.3-0.7,0.4-1.1
		s0.2-0.8,0.3-1.2h2.4v3.4h2.4v2.5h-2.4v5.4c0,0.4,0.1,0.6,0.2,0.9c0.1,0.2,0.4,0.3,0.9,0.3c0.1,0,0.3,0,0.5,0
		c0.2,0,0.4-0.1,0.6-0.2l0.3,2.7c-0.4,0.2-0.9,0.3-1.3,0.4c-0.4,0.1-0.9,0.1-1.3,0.1c-0.7,0-1.3-0.1-1.8-0.3
		c-0.5-0.2-0.8-0.4-1.1-0.8c-0.3-0.3-0.5-0.7-0.6-1.2c-0.1-0.5-0.2-0.9-0.2-1.5V83.4z"/>
	<path class="copy-purpleFill" d="M232.6,76.3h3.9v6.1c0.3-0.5,0.7-1,1.3-1.3s1.3-0.6,2.3-0.6c1.3,0,2.3,0.4,2.9,1.3c0.6,0.9,0.9,2.1,0.9,3.7
		v7.1H240v-6.3c0-0.7-0.1-1.3-0.4-1.7c-0.3-0.4-0.7-0.6-1.3-0.6c-0.6,0-1,0.2-1.4,0.7c-0.4,0.5-0.5,1.2-0.5,2.3v5.7h-3.9V76.3z"/>
</g>
<g>
	<path class="copy-purpleFill" d="M21.1,105h3.9v1.5c0.3-0.5,0.6-1,1.2-1.3c0.5-0.4,1.2-0.5,2-0.5c1.3,0,2.4,0.5,3.2,1.5c0.8,1,1.2,2.5,1.2,4.6
		c0,1.2-0.1,2.2-0.4,3c-0.3,0.8-0.7,1.4-1.1,1.9c-0.4,0.5-0.9,0.8-1.5,1c-0.6,0.2-1.1,0.3-1.6,0.3c-0.6,0-1.2-0.1-1.7-0.3
		c-0.6-0.2-1-0.5-1.2-1v5.1h-3.9V105z M24.9,110.9c0,0.4,0,0.8,0.1,1.1c0.1,0.4,0.2,0.7,0.3,0.9c0.2,0.3,0.3,0.5,0.6,0.6
		c0.2,0.2,0.5,0.2,0.8,0.2c0.5,0,1-0.2,1.3-0.7c0.3-0.5,0.5-1.3,0.5-2.3c0-1-0.2-1.8-0.5-2.3c-0.3-0.5-0.8-0.8-1.4-0.8
		c-0.3,0-0.6,0.1-0.8,0.2c-0.2,0.2-0.4,0.4-0.5,0.6c-0.1,0.3-0.2,0.6-0.3,0.9c-0.1,0.3-0.1,0.7-0.1,1.1V110.9z"/>
	<path class="copy-purpleFill" d="M33.7,100.4h3.9v16.2h-3.9V100.4z"/>
	<path class="copy-purpleFill" d="M46.4,116.7c-0.1-0.2-0.2-0.4-0.2-0.7c-0.1-0.3-0.1-0.5-0.1-0.7c-0.2,0.5-0.6,0.9-1.1,1.2s-1.2,0.5-2.1,0.5
		c-0.6,0-1.2-0.1-1.7-0.3c-0.5-0.2-0.9-0.5-1.2-0.8c-0.3-0.3-0.6-0.7-0.7-1.2s-0.3-1-0.3-1.5c0-0.6,0.1-1.1,0.3-1.6
		c0.2-0.4,0.5-0.8,0.9-1.1c0.4-0.3,0.9-0.6,1.4-0.7c0.6-0.2,1.2-0.3,1.9-0.4l2.3-0.4v-0.3c0-0.5-0.1-0.8-0.4-1
		c-0.3-0.2-0.6-0.3-1.1-0.3c-0.7,0-1.3,0.1-1.8,0.4c-0.5,0.3-1,0.6-1.4,0.9l-1.8-2.6c0.2-0.2,0.5-0.4,0.9-0.6
		c0.4-0.2,0.8-0.4,1.2-0.6c0.5-0.2,1-0.3,1.5-0.4s1.2-0.1,1.9-0.1c1.7,0,3,0.4,3.7,1.1c0.7,0.7,1.1,1.9,1.1,3.4v4.2
		c0,0.5,0,0.9,0,1.2c0,0.3,0,0.6,0.1,0.9c0,0.3,0.1,0.5,0.1,0.7c0.1,0.2,0.1,0.4,0.3,0.7H46.4z M45.8,111.5l-1.6,0.3
		c-0.5,0.1-0.9,0.3-1.2,0.5c-0.2,0.2-0.4,0.5-0.4,0.9c0,0.3,0.1,0.6,0.3,0.8c0.2,0.2,0.5,0.3,0.9,0.3c0.5,0,1-0.2,1.4-0.6
		c0.4-0.4,0.6-1,0.6-1.8V111.5z"/>
	<path class="copy-purpleFill" d="M51.5,105h3.5l0.3,1.6c0.4-0.6,0.9-1,1.5-1.4s1.4-0.6,2.2-0.6c2.6,0,3.9,1.6,3.9,4.9v7.1h-3.9v-6.2
		c0-0.9-0.1-1.6-0.4-1.9c-0.3-0.4-0.7-0.6-1.3-0.6c-0.3,0-0.5,0-0.8,0.1c-0.2,0.1-0.4,0.3-0.6,0.5c-0.2,0.2-0.3,0.6-0.4,1
		c-0.1,0.4-0.1,0.9-0.1,1.5v5.5h-3.9V105z"/>
	<path class="copy-purpleFill" d="M65.5,112.8c0.2,0.2,0.4,0.3,0.7,0.5s0.5,0.3,0.9,0.5c0.3,0.1,0.6,0.2,1,0.3c0.3,0.1,0.7,0.1,1,0.1
		c0.3,0,0.6,0,0.8-0.1c0.3-0.1,0.4-0.3,0.4-0.6c0-0.3-0.2-0.5-0.5-0.7c-0.3-0.2-0.7-0.3-1.1-0.4c-0.5-0.1-0.9-0.3-1.5-0.4
		s-1-0.4-1.5-0.6c-0.5-0.3-0.8-0.6-1.1-1.1s-0.5-1-0.5-1.8c0-0.7,0.1-1.2,0.4-1.7s0.6-0.9,1.1-1.2c0.5-0.3,1-0.5,1.6-0.7
		c0.6-0.2,1.2-0.2,1.9-0.2c1.1,0,2,0.1,2.8,0.4c0.8,0.2,1.5,0.6,2.2,1l-1.8,2.6c-0.2-0.1-0.4-0.3-0.6-0.4c-0.2-0.1-0.5-0.3-0.8-0.4
		c-0.3-0.1-0.6-0.2-0.9-0.3c-0.3-0.1-0.6-0.1-1-0.1c-0.3,0-0.5,0-0.6,0.1c-0.2,0.1-0.3,0.2-0.3,0.5c0,0.3,0.2,0.5,0.5,0.6
		c0.3,0.2,0.7,0.3,1.1,0.4c0.5,0.1,0.9,0.3,1.5,0.5c0.5,0.2,1,0.4,1.5,0.7c0.5,0.3,0.8,0.6,1.1,1.1c0.3,0.4,0.5,1,0.5,1.7
		c0,0.7-0.1,1.3-0.4,1.8s-0.7,0.9-1.2,1.3c-0.5,0.3-1,0.6-1.6,0.7c-0.6,0.2-1.2,0.2-1.8,0.2c-2.2,0-4-0.6-5.4-1.7L65.5,112.8z"/>
	<path class="copy-purpleFill" d="M87,116.7c-0.1-0.2-0.2-0.4-0.2-0.7c-0.1-0.3-0.1-0.5-0.1-0.7c-0.2,0.5-0.6,0.9-1.1,1.2s-1.2,0.5-2.1,0.5
		c-0.6,0-1.2-0.1-1.7-0.3c-0.5-0.2-0.9-0.5-1.2-0.8c-0.3-0.3-0.6-0.7-0.7-1.2s-0.3-1-0.3-1.5c0-0.6,0.1-1.1,0.3-1.6
		c0.2-0.4,0.5-0.8,0.9-1.1c0.4-0.3,0.9-0.6,1.4-0.7c0.6-0.2,1.2-0.3,1.9-0.4l2.3-0.4v-0.3c0-0.5-0.1-0.8-0.4-1
		c-0.3-0.2-0.6-0.3-1.1-0.3c-0.7,0-1.3,0.1-1.8,0.4c-0.5,0.3-1,0.6-1.4,0.9l-1.8-2.6c0.2-0.2,0.5-0.4,0.9-0.6
		c0.4-0.2,0.8-0.4,1.2-0.6c0.5-0.2,1-0.3,1.5-0.4s1.2-0.1,1.9-0.1c1.7,0,3,0.4,3.7,1.1c0.7,0.7,1.1,1.9,1.1,3.4v4.2
		c0,0.5,0,0.9,0,1.2c0,0.3,0,0.6,0.1,0.9c0,0.3,0.1,0.5,0.1,0.7c0.1,0.2,0.1,0.4,0.3,0.7H87z M86.4,111.5l-1.6,0.3
		c-0.5,0.1-0.9,0.3-1.2,0.5c-0.2,0.2-0.4,0.5-0.4,0.9c0,0.3,0.1,0.6,0.3,0.8c0.2,0.2,0.5,0.3,0.9,0.3c0.5,0,1-0.2,1.4-0.6
		c0.4-0.4,0.6-1,0.6-1.8V111.5z"/>
	<path class="copy-purpleFill" d="M92.1,105h3.5l0.3,1.6c0.4-0.6,0.9-1,1.5-1.4s1.4-0.6,2.2-0.6c2.6,0,3.9,1.6,3.9,4.9v7.1h-3.9v-6.2
		c0-0.9-0.1-1.6-0.4-1.9c-0.3-0.4-0.7-0.6-1.3-0.6c-0.3,0-0.5,0-0.8,0.1c-0.2,0.1-0.4,0.3-0.6,0.5c-0.2,0.2-0.3,0.6-0.4,1
		c-0.1,0.4-0.1,0.9-0.1,1.5v5.5h-3.9V105z"/>
	<path class="copy-purpleFill" d="M112.4,115c-0.3,0.6-0.7,1.1-1.2,1.4s-1.1,0.5-1.9,0.5c-0.7,0-1.3-0.1-1.9-0.4c-0.6-0.3-1.1-0.7-1.5-1.2
		c-0.4-0.5-0.7-1.2-1-1.9c-0.2-0.8-0.3-1.7-0.3-2.7c0-1.1,0.1-2.1,0.4-2.9c0.3-0.8,0.6-1.4,1.1-1.9c0.4-0.5,0.9-0.8,1.5-1
		c0.6-0.2,1.1-0.3,1.7-0.3c0.7,0,1.3,0.1,1.8,0.4c0.5,0.3,0.9,0.6,1.1,1v-5.7h3.9v16.2h-3.7V115z M112.1,110.6c0-0.4,0-0.7-0.1-1.1
		c-0.1-0.3-0.2-0.6-0.3-0.9c-0.1-0.3-0.3-0.5-0.5-0.6c-0.2-0.2-0.5-0.2-0.8-0.2c-0.6,0-1,0.2-1.3,0.7c-0.3,0.5-0.4,1.2-0.4,2.1
		c0,1,0.2,1.8,0.5,2.3c0.3,0.6,0.8,0.8,1.3,0.8c0.3,0,0.6-0.1,0.8-0.2c0.2-0.2,0.4-0.4,0.5-0.7c0.1-0.3,0.2-0.6,0.3-1
		c0.1-0.4,0.1-0.8,0.1-1.2V110.6z"/>
	<path class="copy-purpleFill" d="M126,103.6h-4.6v-3.1h13.3v3.1h-4.6v13.1H126V103.6z"/>
	<path class="copy-purpleFill" d="M135.8,100.4h6.9c0.8,0,1.6,0.1,2.3,0.3c0.8,0.2,1.4,0.5,2,0.9c0.6,0.4,1.1,1,1.4,1.6c0.4,0.7,0.6,1.5,0.6,2.4
		c0,1-0.2,1.9-0.5,2.6c-0.3,0.7-0.8,1.3-1.3,1.7c-0.6,0.4-1.2,0.8-2,1c-0.8,0.2-1.6,0.3-2.5,0.3h-2.8v5.4h-4.1V100.4z M142.1,107.9
		c0.4,0,0.7,0,1-0.1c0.3-0.1,0.6-0.2,0.8-0.4c0.2-0.2,0.4-0.4,0.5-0.7c0.1-0.3,0.2-0.7,0.2-1.2c0-0.4-0.1-0.7-0.2-1
		c-0.1-0.3-0.3-0.5-0.6-0.6c-0.2-0.2-0.5-0.3-0.8-0.3c-0.3-0.1-0.7-0.1-1-0.1h-2.1v4.4H142.1z"/>
	<path class="copy-purpleFill" d="M153.7,100.4h3.7l6.3,16.2h-4.3l-1.1-3.3h-5.5l-1.2,3.3h-4.2L153.7,100.4z M157.1,110.2
		c-0.3-0.8-0.6-1.6-0.8-2.4s-0.6-1.7-0.8-2.7c-0.2,0.9-0.5,1.8-0.8,2.6c-0.3,0.8-0.6,1.6-0.9,2.4H157.1z"/>
	<path class="copy-purpleFill" d="M165.6,112.8c0.2,0.2,0.4,0.3,0.7,0.5s0.5,0.3,0.9,0.5c0.3,0.1,0.6,0.2,1,0.3c0.3,0.1,0.7,0.1,1,0.1
		c0.3,0,0.6,0,0.8-0.1c0.3-0.1,0.4-0.3,0.4-0.6c0-0.3-0.2-0.5-0.5-0.7c-0.3-0.2-0.7-0.3-1.1-0.4c-0.5-0.1-0.9-0.3-1.5-0.4
		s-1-0.4-1.5-0.6c-0.5-0.3-0.8-0.6-1.1-1.1c-0.3-0.5-0.5-1-0.5-1.8c0-0.7,0.1-1.2,0.4-1.7c0.3-0.5,0.6-0.9,1.1-1.2
		c0.5-0.3,1-0.5,1.6-0.7c0.6-0.2,1.2-0.2,1.9-0.2c1.1,0,2,0.1,2.8,0.4c0.8,0.2,1.5,0.6,2.2,1l-1.8,2.6c-0.2-0.1-0.4-0.3-0.6-0.4
		c-0.2-0.1-0.5-0.3-0.8-0.4s-0.6-0.2-0.9-0.3c-0.3-0.1-0.6-0.1-1-0.1c-0.3,0-0.5,0-0.6,0.1c-0.2,0.1-0.3,0.2-0.3,0.5
		c0,0.3,0.2,0.5,0.5,0.6c0.3,0.2,0.7,0.3,1.1,0.4s0.9,0.3,1.5,0.5c0.5,0.2,1,0.4,1.5,0.7c0.5,0.3,0.8,0.6,1.1,1.1
		c0.3,0.4,0.5,1,0.5,1.7c0,0.7-0.1,1.3-0.4,1.8c-0.3,0.5-0.7,0.9-1.2,1.3c-0.5,0.3-1,0.6-1.6,0.7c-0.6,0.2-1.2,0.2-1.8,0.2
		c-2.2,0-4-0.6-5.4-1.7L165.6,112.8z"/>
	<path class="copy-purpleFill" d="M187.1,116.7c-0.1-0.2-0.2-0.4-0.2-0.7c-0.1-0.3-0.1-0.5-0.1-0.7c-0.2,0.5-0.6,0.9-1.1,1.2
		c-0.5,0.4-1.2,0.5-2.1,0.5c-0.6,0-1.2-0.1-1.7-0.3s-0.9-0.5-1.2-0.8c-0.3-0.3-0.6-0.7-0.7-1.2s-0.3-1-0.3-1.5
		c0-0.6,0.1-1.1,0.3-1.6c0.2-0.4,0.5-0.8,0.9-1.1c0.4-0.3,0.9-0.6,1.4-0.7s1.2-0.3,1.9-0.4l2.3-0.4v-0.3c0-0.5-0.1-0.8-0.4-1
		c-0.3-0.2-0.6-0.3-1.1-0.3c-0.7,0-1.3,0.1-1.8,0.4c-0.5,0.3-1,0.6-1.4,0.9l-1.8-2.6c0.2-0.2,0.5-0.4,0.9-0.6
		c0.4-0.2,0.8-0.4,1.2-0.6c0.5-0.2,1-0.3,1.5-0.4s1.2-0.1,1.9-0.1c1.7,0,3,0.4,3.7,1.1s1.1,1.9,1.1,3.4v4.2c0,0.5,0,0.9,0,1.2
		s0,0.6,0.1,0.9s0.1,0.5,0.1,0.7c0.1,0.2,0.1,0.4,0.3,0.7H187.1z M186.5,111.5l-1.6,0.3c-0.5,0.1-0.9,0.3-1.2,0.5
		c-0.2,0.2-0.4,0.5-0.4,0.9c0,0.3,0.1,0.6,0.3,0.8c0.2,0.2,0.5,0.3,0.9,0.3c0.5,0,1-0.2,1.4-0.6c0.4-0.4,0.6-1,0.6-1.8V111.5z"/>
	<path class="copy-purpleFill" d="M192.2,105h3.5l0.3,2.2c0.4-0.7,0.8-1.3,1.5-1.8c0.6-0.5,1.5-0.7,2.6-0.7v3.9c-0.3-0.1-0.7-0.1-1.2-0.1
		c-0.3,0-0.6,0-0.9,0.1c-0.3,0.1-0.6,0.2-0.9,0.4c-0.3,0.2-0.5,0.5-0.7,0.9c-0.2,0.4-0.3,1-0.3,1.7v5.2h-3.9V105z"/>
	<path class="copy-purpleFill" d="M204,111.7c0.1,0.9,0.4,1.5,0.9,1.9c0.4,0.4,0.9,0.5,1.5,0.5c0.5,0,0.9-0.1,1.3-0.3s0.7-0.5,0.9-1l2.8,1.6
		c-0.6,0.9-1.3,1.5-2.3,2s-1.9,0.6-3,0.6c-1,0-1.9-0.2-2.6-0.5c-0.8-0.3-1.4-0.7-1.9-1.3c-0.5-0.6-0.9-1.2-1.2-2
		c-0.3-0.8-0.4-1.6-0.4-2.4c0-0.9,0.1-1.7,0.4-2.5c0.3-0.8,0.7-1.4,1.2-2c0.5-0.6,1.1-1,1.9-1.3s1.6-0.5,2.5-0.5
		c0.9,0,1.7,0.2,2.4,0.5c0.7,0.3,1.3,0.7,1.8,1.3c0.5,0.6,0.9,1.2,1.1,2s0.4,1.7,0.4,2.7c0,0.2,0,0.4,0,0.5s0,0.2,0,0.2H204z
		 M205.9,107.4c-1.1,0-1.7,0.7-1.9,2.1h3.8c0-0.6-0.1-1.1-0.4-1.5S206.6,107.4,205.9,107.4z"/>
</g>
<g>
	<path class="copy-purpleFill" d="M22.1,136.8c0.2,0.2,0.4,0.3,0.7,0.5s0.5,0.3,0.9,0.5s0.6,0.2,1,0.3c0.3,0.1,0.7,0.1,1,0.1
		c0.3,0,0.6,0,0.8-0.1c0.3-0.1,0.4-0.3,0.4-0.6c0-0.3-0.2-0.5-0.5-0.7c-0.3-0.2-0.7-0.3-1.1-0.4c-0.5-0.1-0.9-0.3-1.5-0.4
		c-0.5-0.2-1-0.4-1.5-0.6c-0.5-0.3-0.8-0.6-1.1-1.1s-0.5-1-0.5-1.8c0-0.7,0.1-1.2,0.4-1.7c0.3-0.5,0.6-0.9,1.1-1.2
		c0.5-0.3,1-0.5,1.6-0.7c0.6-0.2,1.2-0.2,1.9-0.2c1.1,0,2,0.1,2.8,0.4c0.8,0.2,1.5,0.6,2.2,1l-1.8,2.6c-0.2-0.1-0.4-0.3-0.6-0.4
		s-0.5-0.3-0.8-0.4c-0.3-0.1-0.6-0.2-0.9-0.3c-0.3-0.1-0.6-0.1-1-0.1c-0.3,0-0.5,0-0.6,0.1c-0.2,0.1-0.3,0.2-0.3,0.5
		c0,0.3,0.2,0.5,0.5,0.6c0.3,0.2,0.7,0.3,1.1,0.4c0.5,0.1,0.9,0.3,1.5,0.5c0.5,0.2,1,0.4,1.5,0.7c0.5,0.3,0.8,0.6,1.1,1.1
		c0.3,0.4,0.5,1,0.5,1.7c0,0.7-0.1,1.3-0.4,1.8s-0.7,0.9-1.2,1.3c-0.5,0.3-1,0.6-1.6,0.7c-0.6,0.2-1.2,0.2-1.8,0.2
		c-2.2,0-4-0.6-5.4-1.7L22.1,136.8z"/>
	<path class="copy-purpleFill" d="M38.8,140.7c-0.1-0.2-0.2-0.4-0.2-0.7c-0.1-0.3-0.1-0.5-0.1-0.7c-0.2,0.5-0.6,0.9-1.1,1.2
		c-0.5,0.4-1.2,0.5-2.1,0.5c-0.6,0-1.2-0.1-1.7-0.3c-0.5-0.2-0.9-0.5-1.2-0.8c-0.3-0.3-0.6-0.7-0.7-1.2s-0.3-1-0.3-1.5
		c0-0.6,0.1-1.1,0.3-1.6c0.2-0.4,0.5-0.8,0.9-1.1s0.9-0.6,1.4-0.7c0.6-0.2,1.2-0.3,1.9-0.4l2.3-0.4v-0.3c0-0.5-0.1-0.8-0.4-1
		c-0.3-0.2-0.6-0.3-1.1-0.3c-0.7,0-1.3,0.1-1.8,0.4c-0.5,0.3-1,0.6-1.4,0.9l-1.8-2.6c0.2-0.2,0.5-0.4,0.9-0.6
		c0.4-0.2,0.8-0.4,1.2-0.6c0.5-0.2,1-0.3,1.5-0.4s1.2-0.1,1.9-0.1c1.7,0,3,0.4,3.7,1.1c0.7,0.7,1.1,1.9,1.1,3.4v4.2
		c0,0.5,0,0.9,0,1.2c0,0.3,0,0.6,0.1,0.9c0,0.3,0.1,0.5,0.1,0.7c0.1,0.2,0.1,0.4,0.3,0.7H38.8z M38.2,135.5l-1.6,0.3
		c-0.5,0.1-0.9,0.3-1.2,0.5c-0.2,0.2-0.4,0.5-0.4,0.9c0,0.3,0.1,0.6,0.3,0.8c0.2,0.2,0.5,0.3,0.9,0.3c0.5,0,1-0.2,1.4-0.6
		c0.4-0.4,0.6-1,0.6-1.8V135.5z"/>
	<path class="copy-purpleFill" d="M42.5,129h4.3l1.9,8.1l1.9-8.1h4.1l-3.9,11.7h-4.5L42.5,129z"/>
	<path class="copy-purpleFill" d="M55.4,124.4h3.9v3.1h-3.9V124.4z M55.4,129h3.9v11.7h-3.9V129z"/>
	<path class="copy-purpleFill" d="M61.1,129h3.5l0.3,1.6c0.4-0.6,0.9-1,1.5-1.4c0.6-0.4,1.4-0.6,2.2-0.6c2.6,0,3.9,1.6,3.9,4.9v7.1h-3.9v-6.2
		c0-0.9-0.1-1.6-0.4-1.9c-0.3-0.4-0.7-0.6-1.3-0.6c-0.3,0-0.5,0-0.8,0.1c-0.2,0.1-0.4,0.3-0.6,0.5c-0.2,0.2-0.3,0.6-0.4,1
		c-0.1,0.4-0.1,0.9-0.1,1.5v5.5h-3.9V129z"/>
	<path class="copy-purpleFill" d="M75.5,140.7c0.4,0.4,1,0.8,1.7,1.1s1.3,0.4,2,0.4c0.7,0,1.2-0.2,1.5-0.5c0.3-0.3,0.4-0.8,0.4-1.4v-1.1
		c-0.3,0.4-0.6,0.7-1.1,1c-0.5,0.3-1.1,0.4-1.9,0.4c-0.6,0-1.1-0.1-1.6-0.3c-0.5-0.2-1-0.5-1.5-1c-0.4-0.5-0.8-1-1-1.8
		c-0.3-0.7-0.4-1.6-0.4-2.7c0-1,0.1-1.8,0.3-2.6c0.2-0.8,0.6-1.4,1-1.9s0.9-0.9,1.5-1.2c0.6-0.3,1.2-0.4,1.9-0.4
		c0.7,0,1.3,0.2,1.9,0.5c0.5,0.3,1,0.8,1.3,1.4L82,129H85v11.1c0,0.7-0.1,1.4-0.3,2c-0.2,0.6-0.5,1.1-1,1.6c-0.5,0.4-1.1,0.8-1.8,1
		s-1.6,0.4-2.6,0.4c-0.7,0-1.3,0-1.9-0.1c-0.6-0.1-1.1-0.2-1.6-0.4c-0.5-0.2-0.9-0.3-1.3-0.5s-0.7-0.4-1-0.6L75.5,140.7z
		 M81.1,134.8c0-0.4,0-0.7-0.1-1.1s-0.1-0.7-0.3-0.9c-0.1-0.3-0.3-0.5-0.5-0.7c-0.2-0.2-0.5-0.3-0.9-0.3c-0.2,0-0.5,0-0.7,0.1
		c-0.2,0.1-0.4,0.3-0.6,0.5c-0.2,0.2-0.3,0.5-0.4,0.9c-0.1,0.4-0.1,0.8-0.1,1.4c0,1,0.2,1.7,0.5,2.2c0.3,0.5,0.8,0.7,1.4,0.7
		s1-0.2,1.3-0.7c0.3-0.5,0.4-1.1,0.4-2V134.8z"/>
	<path class="copy-purpleFill" d="M91.5,129h3.9v6.4c0,0.7,0.1,1.3,0.3,1.7c0.2,0.4,0.6,0.6,1.2,0.6c0.6,0,1.1-0.2,1.4-0.7
		c0.3-0.5,0.5-1.2,0.5-2.3V129h3.9v11.7H99V139c-0.3,0.6-0.7,1.1-1.3,1.5c-0.5,0.4-1.3,0.5-2.2,0.5c-1.4,0-2.4-0.4-3.1-1.2
		s-1-2-1-3.5V129z"/>
	<path class="copy-purpleFill" d="M104.5,129h3.9v1.5c0.3-0.5,0.6-1,1.2-1.3c0.5-0.4,1.2-0.5,2-0.5c1.3,0,2.4,0.5,3.2,1.5s1.2,2.5,1.2,4.6
		c0,1.2-0.1,2.2-0.4,3c-0.3,0.8-0.7,1.4-1.1,1.9s-0.9,0.8-1.5,1c-0.6,0.2-1.1,0.3-1.6,0.3c-0.6,0-1.2-0.1-1.7-0.3
		c-0.6-0.2-1-0.5-1.2-1v5.1h-3.9V129z M108.4,135c0,0.4,0,0.8,0.1,1.1c0.1,0.4,0.2,0.7,0.3,0.9s0.3,0.5,0.6,0.6
		c0.2,0.2,0.5,0.2,0.8,0.2c0.5,0,1-0.2,1.3-0.7s0.5-1.3,0.5-2.3c0-1-0.2-1.8-0.5-2.3c-0.3-0.5-0.8-0.8-1.4-0.8
		c-0.3,0-0.6,0.1-0.8,0.2c-0.2,0.2-0.4,0.4-0.5,0.6c-0.1,0.3-0.2,0.6-0.3,0.9c-0.1,0.3-0.1,0.7-0.1,1.1V135z"/>
	<path class="copy-purpleFill" d="M122.8,131.5h-1.9V129h0.3c0.6,0,1.1-0.1,1.4-0.3c0.3-0.2,0.6-0.5,0.8-0.8c0.2-0.3,0.3-0.7,0.4-1.1
		c0.1-0.4,0.2-0.8,0.3-1.2h2.4v3.4h2.4v2.5h-2.4v5.4c0,0.4,0.1,0.6,0.2,0.9c0.1,0.2,0.4,0.3,0.9,0.3c0.1,0,0.3,0,0.5,0
		c0.2,0,0.4-0.1,0.6-0.2l0.3,2.7c-0.4,0.2-0.9,0.3-1.3,0.4c-0.4,0.1-0.9,0.1-1.3,0.1c-0.7,0-1.3-0.1-1.8-0.3s-0.9-0.4-1.1-0.8
		c-0.3-0.3-0.5-0.7-0.6-1.2c-0.1-0.5-0.2-0.9-0.2-1.5V131.5z"/>
	<path class="copy-purpleFill" d="M135.2,141.1c-1,0-1.9-0.2-2.6-0.5c-0.7-0.3-1.4-0.7-1.9-1.3c-0.5-0.6-0.9-1.2-1.1-2c-0.2-0.8-0.4-1.6-0.4-2.5
		s0.1-1.7,0.4-2.5c0.3-0.8,0.6-1.4,1.1-2c0.5-0.6,1.1-1,1.8-1.3c0.7-0.3,1.6-0.5,2.6-0.5c1,0,1.8,0.2,2.6,0.5
		c0.7,0.3,1.4,0.7,1.9,1.3c0.5,0.6,0.9,1.2,1.1,2c0.3,0.8,0.4,1.6,0.4,2.5s-0.1,1.7-0.4,2.5c-0.3,0.8-0.6,1.4-1.1,2
		c-0.5,0.6-1.1,1-1.9,1.3S136.2,141.1,135.2,141.1z M135.3,138.1c0.6,0,1.1-0.3,1.4-0.9c0.3-0.6,0.4-1.4,0.4-2.4s-0.2-1.8-0.5-2.4
		c-0.3-0.6-0.8-0.9-1.4-0.9s-1.1,0.3-1.4,0.9c-0.3,0.6-0.5,1.4-0.5,2.4s0.2,1.8,0.5,2.4C134.1,137.9,134.6,138.1,135.3,138.1z"/>
	<path class="copy-purpleFill" d="M149.7,132.5c-0.3-0.1-0.7-0.3-1-0.4s-0.6-0.4-0.9-0.7c-0.2-0.3-0.4-0.6-0.6-0.9s-0.2-0.7-0.2-1.1
		c0-0.8,0.2-1.4,0.5-1.9s0.7-1,1.3-1.3c0.5-0.4,1.1-0.6,1.8-0.8c0.7-0.2,1.3-0.3,2-0.3c0.7,0,1.3,0.1,2,0.3s1.2,0.4,1.8,0.8
		c0.5,0.4,1,0.8,1.3,1.3c0.3,0.5,0.5,1.2,0.5,1.9c0,0.8-0.3,1.5-0.8,2c-0.5,0.6-1.2,0.9-1.9,1.1c1,0.2,1.7,0.6,2.3,1.2
		s0.9,1.4,0.9,2.5c0,0.9-0.2,1.7-0.5,2.3c-0.4,0.6-0.8,1.1-1.4,1.5s-1.2,0.7-1.9,0.9c-0.7,0.2-1.4,0.3-2.2,0.3s-1.5-0.1-2.2-0.3
		s-1.4-0.5-2-0.9c-0.6-0.4-1-0.9-1.4-1.6c-0.4-0.6-0.5-1.4-0.5-2.3c0-1,0.3-1.8,0.8-2.4C147.9,133,148.7,132.6,149.7,132.5z
		 M152.6,138c0.6,0,1-0.2,1.4-0.6s0.6-0.9,0.6-1.6c0-0.6-0.2-1.2-0.6-1.6c-0.4-0.4-0.9-0.6-1.5-0.6c-0.7,0-1.2,0.2-1.6,0.6
		s-0.5,0.9-0.5,1.6c0,0.6,0.2,1.1,0.6,1.5C151.4,137.8,151.9,138,152.6,138z M150.9,129.5c0,0.5,0.2,1,0.5,1.4
		c0.3,0.4,0.7,0.6,1.2,0.6s0.9-0.2,1.2-0.6c0.3-0.4,0.5-0.8,0.5-1.4c0-0.5-0.2-1-0.5-1.3c-0.3-0.4-0.7-0.5-1.2-0.5
		c-0.5,0-1,0.2-1.2,0.5C151,128.6,150.9,129,150.9,129.5z"/>
	<path class="copy-purpleFill" d="M167.4,129.4c-0.2-0.5-0.4-0.9-0.8-1.1c-0.4-0.3-0.8-0.4-1.1-0.4c-0.3,0-0.5,0.1-0.8,0.2
		c-0.3,0.1-0.5,0.3-0.8,0.6c-0.2,0.3-0.4,0.7-0.6,1.2s-0.2,1.1-0.2,1.9v0.1c0,0,0,0.1,0,0.2c0.3-0.4,0.7-0.7,1.2-1.1
		c0.6-0.3,1.3-0.5,2.2-0.5c0.7,0,1.4,0.1,2,0.4c0.6,0.2,1.1,0.6,1.5,1c0.4,0.4,0.7,1,1,1.6c0.2,0.6,0.3,1.3,0.3,2.1
		c0,0.7-0.1,1.4-0.4,2.1c-0.2,0.7-0.6,1.3-1.1,1.8c-0.5,0.5-1.1,0.9-1.8,1.2c-0.7,0.3-1.6,0.5-2.5,0.5c-0.8,0-1.7-0.1-2.4-0.4
		c-0.8-0.3-1.5-0.8-2-1.4c-0.6-0.6-1.1-1.4-1.4-2.3c-0.4-0.9-0.5-2-0.5-3.3c0-1.6,0.2-3,0.6-4.1c0.4-1.1,0.9-2,1.5-2.7
		c0.6-0.7,1.3-1.2,2-1.4c0.7-0.3,1.5-0.4,2.2-0.4c0.7,0,1.3,0.1,1.9,0.2c0.6,0.2,1.1,0.4,1.5,0.6c0.4,0.3,0.8,0.6,1.1,0.9
		c0.3,0.4,0.6,0.7,0.7,1.1L167.4,129.4z M165.3,138.3c0.6,0,1-0.2,1.3-0.7c0.3-0.5,0.4-1.1,0.4-1.7c0-0.7-0.2-1.3-0.5-1.8
		s-0.7-0.7-1.3-0.7c-0.6,0-1,0.2-1.3,0.7c-0.3,0.5-0.4,1.1-0.4,1.9c0,0.8,0.2,1.4,0.5,1.8C164.4,138.1,164.8,138.3,165.3,138.3z"/>
	<path class="copy-purpleFill" d="M176.3,134c-0.7,0-1.4-0.1-1.9-0.4c-0.6-0.3-1-0.6-1.4-1.1c-0.4-0.5-0.7-1-0.9-1.6c-0.2-0.6-0.3-1.3-0.3-2
		c0-0.7,0.1-1.3,0.3-1.9c0.2-0.6,0.5-1.1,0.9-1.6s0.9-0.8,1.4-1c0.6-0.3,1.2-0.4,1.9-0.4c0.8,0,1.5,0.1,2,0.4c0.6,0.3,1,0.6,1.4,1
		c0.4,0.4,0.6,1,0.8,1.6c0.2,0.6,0.3,1.2,0.3,1.9c0,0.7-0.1,1.3-0.3,2c-0.2,0.6-0.4,1.2-0.8,1.6c-0.4,0.5-0.8,0.8-1.4,1.1
		C177.8,133.9,177.1,134,176.3,134z M176.3,131.6c0.2,0,0.4-0.1,0.5-0.3c0.1-0.2,0.2-0.4,0.3-0.6c0.1-0.3,0.1-0.5,0.2-0.8
		c0-0.3,0-0.6,0-0.9c0-0.3,0-0.6,0-0.9c0-0.3-0.1-0.6-0.1-0.8c-0.1-0.2-0.2-0.4-0.3-0.6c-0.1-0.2-0.3-0.2-0.6-0.2
		c-0.2,0-0.4,0.1-0.6,0.2c-0.1,0.2-0.2,0.4-0.3,0.6c-0.1,0.2-0.1,0.5-0.1,0.8c0,0.3,0,0.6,0,0.9s0,0.6,0,0.9c0,0.3,0.1,0.6,0.1,0.9
		c0.1,0.3,0.2,0.5,0.3,0.6C175.9,131.5,176.1,131.6,176.3,131.6z M185.1,123.8l2.1,0.9l-8,16.3l-2.1-0.9L185.1,123.8z M187.9,141
		c-0.7,0-1.4-0.1-1.9-0.4c-0.6-0.3-1-0.6-1.4-1.1c-0.4-0.5-0.7-1-0.9-1.6s-0.3-1.3-0.3-2c0-0.7,0.1-1.3,0.3-1.9s0.5-1.1,0.9-1.6
		s0.9-0.8,1.4-1s1.2-0.4,1.9-0.4c0.8,0,1.5,0.1,2,0.4s1,0.6,1.4,1c0.4,0.4,0.6,1,0.8,1.6c0.2,0.6,0.3,1.2,0.3,1.9
		c0,0.7-0.1,1.3-0.3,2s-0.4,1.2-0.8,1.6c-0.4,0.5-0.8,0.8-1.4,1.1C189.3,140.8,188.7,141,187.9,141z M187.9,138.5
		c0.2,0,0.4-0.1,0.5-0.3s0.2-0.4,0.3-0.6c0.1-0.3,0.1-0.5,0.2-0.9c0-0.3,0-0.6,0-0.9c0-0.3,0-0.6,0-0.9s-0.1-0.6-0.1-0.8
		c-0.1-0.2-0.2-0.4-0.3-0.6c-0.1-0.2-0.3-0.2-0.6-0.2s-0.4,0.1-0.6,0.2s-0.2,0.4-0.3,0.6c-0.1,0.2-0.1,0.5-0.1,0.8
		c0,0.3,0,0.6,0,0.9s0,0.6,0,0.9c0,0.3,0.1,0.6,0.1,0.9c0.1,0.3,0.2,0.5,0.3,0.6S187.7,138.5,187.9,138.5z"/>
	<path class="copy-purpleFill" d="M198.3,129h3.5l0.3,1.6c0.3-0.6,0.8-1.1,1.3-1.5c0.5-0.3,1.2-0.5,2-0.5c1,0,1.7,0.2,2.2,0.6
		c0.5,0.4,0.9,0.9,1.1,1.5c0.1-0.2,0.3-0.5,0.5-0.7c0.2-0.3,0.4-0.5,0.7-0.7c0.3-0.2,0.6-0.4,1-0.5c0.4-0.1,0.9-0.2,1.4-0.2
		c0.8,0,1.5,0.1,2,0.4c0.5,0.3,0.9,0.6,1.2,1.1c0.3,0.5,0.5,1,0.6,1.6c0.1,0.6,0.1,1.2,0.1,1.8v7.2h-3.9v-6.1c0-0.9-0.1-1.5-0.3-1.9
		c-0.2-0.4-0.6-0.6-1.2-0.6c-0.2,0-0.4,0-0.6,0.1c-0.2,0.1-0.4,0.2-0.5,0.4s-0.3,0.5-0.4,0.9c-0.1,0.4-0.1,0.9-0.1,1.5v5.9h-3.9
		v-6.2c0-0.8-0.1-1.4-0.3-1.8c-0.2-0.4-0.6-0.6-1.2-0.6c-0.2,0-0.4,0-0.6,0.1c-0.2,0.1-0.4,0.2-0.5,0.4c-0.2,0.2-0.3,0.5-0.4,0.9
		c-0.1,0.4-0.2,0.9-0.2,1.6v5.6h-3.9V129z"/>
	<path class="copy-purpleFill" d="M223.3,141.1c-1,0-1.9-0.2-2.6-0.5s-1.4-0.7-1.8-1.3c-0.5-0.6-0.9-1.2-1.1-2c-0.2-0.8-0.4-1.6-0.4-2.5
		s0.1-1.7,0.4-2.5c0.3-0.8,0.6-1.4,1.1-2c0.5-0.6,1.1-1,1.8-1.3c0.7-0.3,1.6-0.5,2.6-0.5s1.8,0.2,2.6,0.5c0.7,0.3,1.4,0.7,1.8,1.3
		s0.9,1.2,1.1,2c0.3,0.8,0.4,1.6,0.4,2.5s-0.1,1.7-0.4,2.5c-0.3,0.8-0.6,1.4-1.1,2c-0.5,0.6-1.1,1-1.8,1.3
		C225.2,140.9,224.3,141.1,223.3,141.1z M223.4,138.1c0.6,0,1.1-0.3,1.4-0.9c0.3-0.6,0.4-1.4,0.4-2.4s-0.2-1.8-0.5-2.4
		c-0.3-0.6-0.8-0.9-1.4-0.9c-0.6,0-1.1,0.3-1.4,0.9c-0.3,0.6-0.5,1.4-0.5,2.4s0.2,1.8,0.5,2.4C222.2,137.9,222.7,138.1,223.4,138.1z
		"/>
	<path class="copy-purpleFill" d="M230.5,129h3.5l0.3,2.2c0.4-0.7,0.8-1.3,1.5-1.8s1.5-0.7,2.6-0.7v3.9c-0.3-0.1-0.7-0.1-1.2-0.1
		c-0.3,0-0.6,0-0.9,0.1c-0.3,0.1-0.6,0.2-0.9,0.4c-0.3,0.2-0.5,0.5-0.7,0.9c-0.2,0.4-0.3,1-0.3,1.7v5.2h-3.9V129z"/>
	<path class="copy-purpleFill" d="M242.4,135.8c0.1,0.9,0.4,1.5,0.9,1.9c0.4,0.4,0.9,0.5,1.5,0.5c0.5,0,0.9-0.1,1.3-0.3s0.7-0.5,0.9-1l2.8,1.6
		c-0.6,0.9-1.3,1.5-2.3,2c-0.9,0.4-1.9,0.6-3,0.6c-1,0-1.9-0.2-2.6-0.5c-0.8-0.3-1.4-0.7-1.9-1.3c-0.5-0.6-0.9-1.2-1.2-2
		c-0.3-0.8-0.4-1.6-0.4-2.4c0-0.9,0.1-1.7,0.4-2.5c0.3-0.8,0.7-1.4,1.2-2c0.5-0.6,1.1-1,1.9-1.3c0.7-0.3,1.6-0.5,2.5-0.5
		c0.9,0,1.7,0.2,2.4,0.5c0.7,0.3,1.3,0.7,1.8,1.3c0.5,0.6,0.9,1.2,1.1,2s0.4,1.7,0.4,2.7c0,0.2,0,0.4,0,0.5s0,0.2,0,0.2H242.4z
		 M244.3,131.5c-1.1,0-1.7,0.7-1.9,2.1h3.8c0-0.6-0.1-1.1-0.4-1.5C245.4,131.7,245,131.5,244.3,131.5z"/>
	<path class="copy-purpleFill" d="M251.2,136.5h4.3v4.3h-4.3V136.5z"/>
</g>
</svg>
