<?xml version="1.0" encoding="utf-8"?>
<!-- Generator: Adobe Illustrator 22.1.0, SVG Export Plug-In . SVG Version: 6.00 Build 0)  -->
<svg version="1.1" id="Layer_1" xmlns="https://www.w3.org/2000/svg" xmlns:xlink="https://www.w3.org/1999/xlink" x="0px" y="0px"
	 viewBox="0 0 300 250" style="enable-background:new 0 0 300 250;" xml:space="preserve">
<style type="text/css">
	.purpleFill{fill:#662868;}
</style>
<g>
	<path class="purpleFill" d="M24.6,63.6h4.1v10.2c0,1,0.2,1.7,0.7,2.1c0.5,0.4,1.1,0.6,1.9,0.6c0.8,0,1.5-0.2,1.9-0.6
		c0.4-0.4,0.7-1.1,0.7-2.1V63.6H38v10.5c0,0.4,0,0.8-0.1,1.2c0,0.4-0.1,0.9-0.3,1.3c-0.2,0.4-0.4,0.9-0.7,1.3
		c-0.3,0.4-0.7,0.8-1.2,1.1c-0.5,0.3-1.1,0.6-1.9,0.8c-0.7,0.2-1.6,0.3-2.6,0.3c-1,0-1.9-0.1-2.6-0.3c-0.7-0.2-1.3-0.5-1.8-0.8
		c-0.5-0.3-0.9-0.7-1.2-1.1c-0.3-0.4-0.5-0.9-0.7-1.3c-0.2-0.5-0.3-0.9-0.3-1.3c0-0.4-0.1-0.8-0.1-1.2V63.6z"/>
	<path class="purpleFill" d="M40.1,68.1h3.8v1.5c0.3-0.5,0.6-1,1.2-1.3c0.5-0.4,1.2-0.5,2-0.5c1.3,0,2.4,0.5,3.2,1.5c0.8,1,1.2,2.5,1.2,4.5
		c0,1.2-0.1,2.2-0.4,3c-0.3,0.8-0.7,1.4-1.1,1.9c-0.4,0.5-0.9,0.8-1.5,1C47.9,80,47.4,80,46.8,80c-0.6,0-1.1-0.1-1.7-0.3
		s-1-0.5-1.2-1v5h-3.8V68.1z M43.9,74.1c0,0.4,0,0.8,0.1,1.1c0.1,0.4,0.2,0.7,0.3,0.9c0.2,0.3,0.3,0.5,0.6,0.6
		c0.2,0.2,0.5,0.2,0.8,0.2c0.5,0,1-0.2,1.3-0.7c0.3-0.5,0.5-1.2,0.5-2.3c0-1-0.2-1.8-0.5-2.3c-0.3-0.5-0.8-0.8-1.4-0.8
		c-0.3,0-0.6,0.1-0.8,0.2c-0.2,0.2-0.4,0.4-0.5,0.6c-0.1,0.3-0.2,0.6-0.3,0.9c-0.1,0.3-0.1,0.7-0.1,1.1V74.1z"/>
	<path class="purpleFill" d="M54.2,79.7c0.4,0.4,1,0.8,1.7,1.1c0.7,0.3,1.3,0.4,2,0.4c0.7,0,1.2-0.2,1.5-0.5c0.3-0.3,0.4-0.8,0.4-1.4v-1.1
		c-0.3,0.4-0.6,0.7-1.1,1s-1.1,0.4-1.9,0.4c-0.5,0-1.1-0.1-1.6-0.3c-0.5-0.2-1-0.5-1.5-1c-0.4-0.5-0.8-1-1-1.8
		c-0.3-0.7-0.4-1.6-0.4-2.7c0-1,0.1-1.8,0.3-2.6c0.2-0.7,0.5-1.4,1-1.9c0.4-0.5,0.9-0.9,1.5-1.2c0.6-0.3,1.2-0.4,1.9-0.4
		c0.7,0,1.3,0.2,1.9,0.5c0.5,0.3,1,0.8,1.3,1.4l0.5-1.6h3v11c0,0.7-0.1,1.4-0.3,2c-0.2,0.6-0.5,1.1-1,1.6c-0.5,0.4-1.1,0.8-1.8,1
		c-0.7,0.2-1.6,0.4-2.6,0.4c-0.7,0-1.3,0-1.9-0.1c-0.6-0.1-1.1-0.2-1.6-0.4c-0.5-0.2-0.9-0.3-1.3-0.5c-0.4-0.2-0.7-0.4-1-0.6
		L54.2,79.7z M59.7,73.9c0-0.4,0-0.7-0.1-1.1c-0.1-0.3-0.1-0.6-0.3-0.9c-0.1-0.3-0.3-0.5-0.5-0.7C58.6,71.1,58.3,71,58,71
		c-0.2,0-0.5,0-0.7,0.1c-0.2,0.1-0.4,0.3-0.6,0.5c-0.2,0.2-0.3,0.5-0.4,0.9c-0.1,0.4-0.1,0.8-0.1,1.4c0,1,0.2,1.7,0.5,2.2
		c0.3,0.5,0.8,0.7,1.4,0.7c0.6,0,1-0.2,1.3-0.7c0.3-0.5,0.4-1.1,0.4-2V73.9z"/>
	<path class="purpleFill" d="M65.4,68.1h3.5l0.3,2.2c0.4-0.7,0.8-1.3,1.5-1.8c0.6-0.5,1.5-0.7,2.6-0.7v3.9c-0.3-0.1-0.7-0.1-1.2-0.1
		c-0.3,0-0.6,0-0.9,0.1c-0.3,0.1-0.6,0.2-0.9,0.4c-0.3,0.2-0.5,0.5-0.7,0.9c-0.2,0.4-0.3,1-0.3,1.7v5.2h-3.8V68.1z"/>
	<path class="purpleFill" d="M80.7,79.8c-0.1-0.2-0.2-0.4-0.2-0.7s-0.1-0.5-0.1-0.7c-0.2,0.5-0.6,0.9-1.1,1.2c-0.5,0.4-1.2,0.5-2.1,0.5
		c-0.6,0-1.2-0.1-1.6-0.3c-0.5-0.2-0.9-0.5-1.2-0.8c-0.3-0.3-0.6-0.7-0.7-1.2c-0.2-0.5-0.3-1-0.3-1.5c0-0.6,0.1-1.1,0.3-1.5
		c0.2-0.4,0.5-0.8,0.9-1.1s0.9-0.5,1.4-0.7c0.5-0.2,1.2-0.3,1.9-0.4l2.3-0.4v-0.3c0-0.5-0.1-0.8-0.4-1c-0.3-0.2-0.6-0.3-1.1-0.3
		c-0.7,0-1.3,0.1-1.8,0.4s-1,0.6-1.4,0.9l-1.8-2.5c0.2-0.2,0.5-0.4,0.9-0.6s0.8-0.4,1.2-0.5c0.5-0.2,1-0.3,1.5-0.4
		c0.6-0.1,1.2-0.1,1.9-0.1c1.7,0,3,0.4,3.7,1.1c0.7,0.7,1.1,1.8,1.1,3.3v4.1c0,0.5,0,0.9,0,1.2c0,0.3,0,0.6,0.1,0.9s0.1,0.5,0.1,0.7
		c0.1,0.2,0.1,0.4,0.3,0.7H80.7z M80.1,74.6l-1.6,0.3c-0.5,0.1-0.9,0.3-1.2,0.5c-0.2,0.2-0.4,0.5-0.4,0.9c0,0.3,0.1,0.6,0.3,0.8
		c0.2,0.2,0.5,0.3,0.9,0.3c0.5,0,1-0.2,1.4-0.6c0.4-0.4,0.6-1,0.6-1.8V74.6z"/>
	<path class="purpleFill" d="M92.9,78.1c-0.3,0.6-0.7,1.1-1.2,1.4c-0.5,0.3-1.1,0.5-1.9,0.5c-0.7,0-1.3-0.1-1.9-0.4s-1.1-0.7-1.5-1.2
		s-0.7-1.2-1-1.9c-0.2-0.8-0.3-1.7-0.3-2.6c0-1.1,0.1-2.1,0.4-2.9c0.3-0.8,0.6-1.4,1.1-1.9c0.4-0.5,0.9-0.8,1.5-1
		c0.5-0.2,1.1-0.3,1.6-0.3c0.7,0,1.3,0.1,1.8,0.4c0.5,0.3,0.8,0.6,1.1,1v-5.7h3.9v16.2h-3.6V78.1z M92.6,73.7c0-0.4,0-0.7-0.1-1.1
		c-0.1-0.3-0.2-0.6-0.3-0.9c-0.1-0.3-0.3-0.5-0.5-0.6c-0.2-0.2-0.5-0.2-0.8-0.2c-0.6,0-1,0.2-1.3,0.7c-0.3,0.5-0.4,1.2-0.4,2.1
		c0,1,0.2,1.8,0.5,2.3c0.3,0.5,0.8,0.8,1.3,0.8c0.3,0,0.6-0.1,0.8-0.2s0.4-0.4,0.5-0.7c0.1-0.3,0.2-0.6,0.3-1
		c0.1-0.4,0.1-0.8,0.1-1.2V73.7z"/>
	<path class="purpleFill" d="M101.7,74.8c0.1,0.9,0.4,1.5,0.9,1.9c0.4,0.4,0.9,0.5,1.5,0.5c0.5,0,0.9-0.1,1.3-0.3s0.7-0.5,0.9-1l2.8,1.6
		c-0.6,0.9-1.3,1.5-2.2,1.9c-0.9,0.4-1.9,0.6-3,0.6c-1,0-1.9-0.2-2.6-0.5s-1.4-0.7-1.9-1.3c-0.5-0.5-0.9-1.2-1.2-2s-0.4-1.6-0.4-2.4
		c0-0.9,0.1-1.7,0.4-2.5c0.3-0.8,0.7-1.4,1.2-2s1.1-1,1.9-1.3c0.7-0.3,1.6-0.5,2.5-0.5c0.9,0,1.7,0.2,2.4,0.5s1.3,0.7,1.8,1.3
		c0.5,0.6,0.8,1.2,1.1,2s0.4,1.7,0.4,2.6c0,0.2,0,0.4,0,0.5c0,0.1,0,0.2,0,0.2H101.7z M103.6,70.6c-1.1,0-1.7,0.7-1.9,2.1h3.8
		c0-0.6-0.1-1.1-0.4-1.5C104.7,70.8,104.3,70.6,103.6,70.6z"/>
	<path class="purpleFill" d="M115.6,80.9c0.3,0.1,0.6,0.2,0.9,0.2s0.6,0.1,0.8,0.1c0.4,0,0.6-0.1,0.8-0.2c0.2-0.2,0.3-0.4,0.4-0.8
		l-4.2-12.1h4.1l2,7.9l2-7.9h4.1l-4.1,11.6c-0.2,0.6-0.5,1.2-0.7,1.8s-0.5,1-0.9,1.4s-0.8,0.7-1.4,0.9c-0.6,0.2-1.3,0.3-2.2,0.3
		c-0.1,0-0.3,0-0.5,0c-0.2,0-0.4,0-0.6,0c-0.2,0-0.4,0-0.6-0.1c-0.2,0-0.4-0.1-0.5-0.1L115.6,80.9z"/>
	<path class="purpleFill" d="M132.3,80.1c-1,0-1.9-0.2-2.6-0.5s-1.4-0.7-1.8-1.3s-0.9-1.2-1.1-1.9c-0.2-0.7-0.4-1.6-0.4-2.5
		s0.1-1.7,0.4-2.5c0.3-0.8,0.6-1.4,1.1-2c0.5-0.6,1.1-1,1.8-1.3c0.7-0.3,1.6-0.5,2.5-0.5s1.8,0.2,2.6,0.5c0.7,0.3,1.4,0.7,1.8,1.3
		c0.5,0.5,0.9,1.2,1.1,2c0.3,0.8,0.4,1.6,0.4,2.5s-0.1,1.7-0.4,2.5c-0.3,0.7-0.6,1.4-1.1,1.9c-0.5,0.5-1.1,1-1.8,1.3
		C134.1,80,133.3,80.1,132.3,80.1z M132.4,77.2c0.6,0,1.1-0.3,1.4-0.9s0.4-1.4,0.4-2.4c0-1-0.2-1.8-0.5-2.4s-0.8-0.9-1.4-0.9
		s-1.1,0.3-1.4,0.9c-0.3,0.6-0.5,1.4-0.5,2.4c0,1,0.2,1.8,0.5,2.4S131.7,77.2,132.4,77.2z"/>
	<path class="purpleFill" d="M139.4,68.1h3.8v6.4c0,0.7,0.1,1.3,0.3,1.7c0.2,0.4,0.6,0.6,1.2,0.6c0.6,0,1.1-0.2,1.4-0.7
		c0.3-0.5,0.5-1.2,0.5-2.3v-5.6h3.8v11.7h-3.6v-1.7c-0.3,0.6-0.7,1.1-1.2,1.5c-0.5,0.4-1.3,0.5-2.2,0.5c-1.4,0-2.4-0.4-3.1-1.2
		c-0.7-0.8-1-1.9-1-3.5V68.1z"/>
	<path class="purpleFill" d="M152.4,68.1h3.5l0.3,2.2c0.3-0.7,0.8-1.3,1.5-1.8c0.6-0.5,1.5-0.7,2.6-0.7v3.9c-0.3-0.1-0.7-0.1-1.2-0.1
		c-0.3,0-0.6,0-0.9,0.1c-0.3,0.1-0.6,0.2-0.9,0.4c-0.3,0.2-0.5,0.5-0.7,0.9c-0.2,0.4-0.3,1-0.3,1.7v5.2h-3.8V68.1z"/>
</g>
<g>
	<path class="purpleFill" d="M25.5,99.9c0.2,0.2,0.4,0.3,0.7,0.5c0.3,0.2,0.5,0.3,0.8,0.5c0.3,0.1,0.6,0.2,1,0.3c0.3,0.1,0.7,0.1,1,0.1
		c0.3,0,0.6,0,0.8-0.1c0.3-0.1,0.4-0.3,0.4-0.6c0-0.3-0.2-0.5-0.5-0.7c-0.3-0.2-0.7-0.3-1.1-0.4c-0.5-0.1-0.9-0.3-1.5-0.4
		c-0.5-0.2-1-0.4-1.5-0.6s-0.8-0.6-1.1-1.1c-0.3-0.5-0.5-1-0.5-1.8c0-0.7,0.1-1.2,0.4-1.7s0.6-0.9,1.1-1.2c0.5-0.3,1-0.5,1.6-0.7
		c0.6-0.2,1.2-0.2,1.9-0.2c1.1,0,2,0.1,2.8,0.4c0.8,0.2,1.5,0.6,2.2,1l-1.8,2.6c-0.2-0.1-0.4-0.3-0.6-0.4c-0.2-0.1-0.5-0.3-0.8-0.4
		c-0.3-0.1-0.6-0.2-0.9-0.3c-0.3-0.1-0.6-0.1-1-0.1c-0.3,0-0.5,0-0.6,0.1c-0.2,0.1-0.3,0.2-0.3,0.5c0,0.3,0.2,0.5,0.5,0.6
		c0.3,0.2,0.7,0.3,1.1,0.4c0.5,0.1,0.9,0.3,1.5,0.5c0.5,0.2,1,0.4,1.5,0.7c0.5,0.3,0.8,0.6,1.1,1.1c0.3,0.4,0.5,1,0.5,1.7
		c0,0.7-0.1,1.3-0.4,1.8c-0.3,0.5-0.7,0.9-1.2,1.2s-1,0.6-1.6,0.7c-0.6,0.2-1.2,0.2-1.8,0.2c-2.2,0-4-0.5-5.4-1.6L25.5,99.9z"/>
	<path class="purpleFill" d="M42.2,103.8c-0.1-0.2-0.2-0.4-0.2-0.7s-0.1-0.5-0.1-0.7c-0.2,0.5-0.6,0.9-1.1,1.2c-0.5,0.4-1.2,0.5-2.1,0.5
		c-0.6,0-1.2-0.1-1.6-0.3c-0.5-0.2-0.9-0.5-1.2-0.8c-0.3-0.3-0.6-0.7-0.7-1.2c-0.2-0.5-0.3-1-0.3-1.5c0-0.6,0.1-1.1,0.3-1.5
		c0.2-0.4,0.5-0.8,0.9-1.1s0.9-0.5,1.4-0.7c0.5-0.2,1.2-0.3,1.9-0.4l2.3-0.4v-0.3c0-0.5-0.1-0.8-0.4-1c-0.3-0.2-0.6-0.3-1.1-0.3
		c-0.7,0-1.3,0.1-1.8,0.4s-1,0.6-1.4,0.9l-1.8-2.5c0.2-0.2,0.5-0.4,0.9-0.6s0.8-0.4,1.2-0.5c0.5-0.2,1-0.3,1.5-0.4
		c0.6-0.1,1.2-0.1,1.9-0.1c1.7,0,3,0.4,3.7,1.1c0.7,0.7,1.1,1.8,1.1,3.3v4.1c0,0.5,0,0.9,0,1.2c0,0.3,0,0.6,0.1,0.9s0.1,0.5,0.1,0.7
		c0.1,0.2,0.1,0.4,0.3,0.7H42.2z M41.6,98.6L40,98.9c-0.5,0.1-0.9,0.3-1.2,0.5c-0.2,0.2-0.4,0.5-0.4,0.9c0,0.3,0.1,0.6,0.3,0.8
		c0.2,0.2,0.5,0.3,0.9,0.3c0.5,0,1-0.2,1.4-0.6c0.4-0.4,0.6-1,0.6-1.8V98.6z"/>
	<path class="purpleFill" d="M45.8,92.1h4.3l1.9,8.1l1.9-8.1H58l-3.8,11.7h-4.5L45.8,92.1z"/>
	<path class="purpleFill" d="M58.6,87.5h3.8v3.1h-3.8V87.5z M58.6,92.1h3.8v11.7h-3.8V92.1z"/>
	<path class="purpleFill" d="M64.3,92.1h3.5l0.3,1.6c0.4-0.5,0.8-1,1.5-1.4c0.6-0.4,1.4-0.6,2.2-0.6c2.6,0,3.8,1.6,3.8,4.9v7.1h-3.8v-6.1
		c0-0.9-0.1-1.6-0.4-1.9c-0.3-0.4-0.7-0.6-1.3-0.6c-0.3,0-0.5,0-0.8,0.1c-0.2,0.1-0.4,0.3-0.6,0.5c-0.2,0.2-0.3,0.6-0.4,1
		c-0.1,0.4-0.1,0.9-0.1,1.5v5.5h-3.8V92.1z"/>
	<path class="purpleFill" d="M78.7,103.7c0.4,0.4,1,0.8,1.7,1.1c0.7,0.3,1.3,0.4,2,0.4c0.7,0,1.2-0.2,1.5-0.5c0.3-0.3,0.4-0.8,0.4-1.4v-1.1
		c-0.3,0.4-0.6,0.7-1.1,1s-1.1,0.4-1.9,0.4c-0.5,0-1.1-0.1-1.6-0.3c-0.5-0.2-1-0.5-1.5-1c-0.4-0.5-0.8-1-1-1.8
		c-0.3-0.7-0.4-1.6-0.4-2.7c0-1,0.1-1.8,0.3-2.6c0.2-0.7,0.5-1.4,1-1.9c0.4-0.5,0.9-0.9,1.5-1.2c0.6-0.3,1.2-0.4,1.9-0.4
		c0.7,0,1.3,0.2,1.9,0.5c0.5,0.3,1,0.8,1.3,1.4l0.5-1.6h3v11c0,0.7-0.1,1.4-0.3,2c-0.2,0.6-0.5,1.1-1,1.6c-0.5,0.4-1.1,0.8-1.8,1
		c-0.7,0.2-1.6,0.4-2.6,0.4c-0.7,0-1.3,0-1.9-0.1c-0.6-0.1-1.1-0.2-1.6-0.4c-0.5-0.2-0.9-0.3-1.3-0.5c-0.4-0.2-0.7-0.4-1-0.6
		L78.7,103.7z M84.3,97.9c0-0.4,0-0.7-0.1-1.1c-0.1-0.3-0.1-0.6-0.3-0.9c-0.1-0.3-0.3-0.5-0.5-0.7c-0.2-0.2-0.5-0.3-0.8-0.3
		c-0.2,0-0.5,0-0.7,0.1c-0.2,0.1-0.4,0.3-0.6,0.5c-0.2,0.2-0.3,0.5-0.4,0.9c-0.1,0.4-0.1,0.8-0.1,1.4c0,1,0.2,1.7,0.5,2.2
		c0.3,0.5,0.8,0.7,1.4,0.7c0.6,0,1-0.2,1.3-0.7c0.3-0.5,0.4-1.1,0.4-2V97.9z"/>
	<path class="purpleFill" d="M91,99.9c0.2,0.2,0.4,0.3,0.7,0.5c0.3,0.2,0.5,0.3,0.8,0.5c0.3,0.1,0.6,0.2,1,0.3c0.3,0.1,0.7,0.1,1,0.1
		c0.3,0,0.6,0,0.8-0.1c0.3-0.1,0.4-0.3,0.4-0.6c0-0.3-0.2-0.5-0.5-0.7c-0.3-0.2-0.7-0.3-1.1-0.4c-0.5-0.1-0.9-0.3-1.5-0.4
		c-0.5-0.2-1-0.4-1.5-0.6s-0.8-0.6-1.1-1.1c-0.3-0.5-0.5-1-0.5-1.8c0-0.7,0.1-1.2,0.4-1.7s0.6-0.9,1.1-1.2c0.5-0.3,1-0.5,1.6-0.7
		c0.6-0.2,1.2-0.2,1.9-0.2c1.1,0,2,0.1,2.8,0.4c0.8,0.2,1.5,0.6,2.2,1l-1.8,2.6c-0.2-0.1-0.4-0.3-0.6-0.4c-0.2-0.1-0.5-0.3-0.8-0.4
		c-0.3-0.1-0.6-0.2-0.9-0.3c-0.3-0.1-0.6-0.1-1-0.1c-0.3,0-0.5,0-0.6,0.1c-0.2,0.1-0.3,0.2-0.3,0.5c0,0.3,0.2,0.5,0.5,0.6
		c0.3,0.2,0.7,0.3,1.1,0.4c0.5,0.1,0.9,0.3,1.5,0.5c0.5,0.2,1,0.4,1.5,0.7c0.5,0.3,0.8,0.6,1.1,1.1c0.3,0.4,0.5,1,0.5,1.7
		c0,0.7-0.1,1.3-0.4,1.8c-0.3,0.5-0.7,0.9-1.2,1.2s-1,0.6-1.6,0.7c-0.6,0.2-1.2,0.2-1.8,0.2c-2.2,0-4-0.5-5.4-1.6L91,99.9z"/>
	<path class="purpleFill" d="M104.5,92.1h4.1l1.7,8l1.5-8h4.1l1.5,8l1.7-8h4.1l-3.8,11.7h-4.1l-1.5-6.3l-1.5,6.3h-4.1L104.5,92.1z"/>
	<path class="purpleFill" d="M123.9,87.5h3.8v3.1h-3.8V87.5z M123.9,92.1h3.8v11.7h-3.8V92.1z"/>
	<path class="purpleFill" d="M130.5,94.6h-1.9v-2.5h0.3c0.6,0,1.1-0.1,1.4-0.3c0.3-0.2,0.6-0.5,0.8-0.8c0.2-0.3,0.3-0.7,0.4-1.1
		c0.1-0.4,0.2-0.8,0.3-1.2h2.4v3.4h2.4v2.5h-2.4v5.4c0,0.4,0.1,0.6,0.2,0.9c0.1,0.2,0.4,0.3,0.9,0.3c0.1,0,0.3,0,0.5,0
		c0.2,0,0.4-0.1,0.6-0.2l0.3,2.7c-0.4,0.2-0.9,0.3-1.3,0.4c-0.4,0.1-0.9,0.1-1.3,0.1c-0.7,0-1.3-0.1-1.8-0.3
		c-0.5-0.2-0.8-0.4-1.1-0.8c-0.3-0.3-0.5-0.7-0.6-1.2s-0.2-0.9-0.2-1.5V94.6z"/>
	<path class="purpleFill" d="M137.6,87.6h3.8v6c0.3-0.5,0.7-1,1.3-1.3c0.6-0.4,1.3-0.5,2.2-0.5c1.3,0,2.3,0.4,2.9,1.3s0.9,2.1,0.9,3.7v7
		H145v-6.3c0-0.7-0.1-1.3-0.4-1.7c-0.3-0.4-0.7-0.6-1.3-0.6c-0.6,0-1,0.2-1.4,0.7c-0.4,0.5-0.5,1.2-0.5,2.3v5.7h-3.8V87.6z"/>
</g>
<g>
	<path class="purpleFill" d="M39.3,124.2c-0.8,1.4-1.8,2.4-3,3s-2.5,1-4.2,1c-1.4,0-2.6-0.2-3.6-0.6c-1-0.4-1.9-1-2.6-1.8
		c-0.7-0.7-1.2-1.6-1.6-2.7c-0.4-1-0.5-2.2-0.5-3.4c0-1.3,0.2-2.4,0.5-3.4c0.4-1,0.9-1.9,1.6-2.7c0.7-0.7,1.6-1.3,2.6-1.7
		c1-0.4,2.2-0.6,3.5-0.6c1.5,0,2.8,0.3,4,0.8s2.2,1.5,3.1,2.9l-3.9,2c-0.3-0.7-0.7-1.2-1.3-1.5c-0.6-0.4-1.2-0.5-1.9-0.5
		c-0.7,0-1.2,0.1-1.7,0.4c-0.5,0.3-0.9,0.6-1.2,1c-0.3,0.4-0.5,1-0.7,1.5c-0.2,0.6-0.2,1.2-0.2,1.9c0,0.7,0.1,1.3,0.3,1.9
		c0.2,0.6,0.4,1.1,0.7,1.5c0.3,0.4,0.7,0.8,1.2,1.1c0.5,0.3,1,0.4,1.7,0.4c0.7,0,1.3-0.2,1.9-0.5s1-1,1.4-1.9L39.3,124.2z"/>
	<path class="purpleFill" d="M40.5,111.6h3.8v16.2h-3.8V111.6z"/>
	<path class="purpleFill" d="M53.1,127.8c-0.1-0.2-0.2-0.4-0.2-0.7c-0.1-0.3-0.1-0.5-0.1-0.7c-0.2,0.5-0.6,0.9-1.1,1.2
		c-0.5,0.4-1.2,0.5-2.1,0.5c-0.6,0-1.2-0.1-1.6-0.3c-0.5-0.2-0.9-0.5-1.2-0.8c-0.3-0.3-0.6-0.7-0.7-1.2c-0.2-0.5-0.3-1-0.3-1.5
		c0-0.6,0.1-1.1,0.3-1.5c0.2-0.4,0.5-0.8,0.9-1.1s0.9-0.5,1.4-0.7c0.5-0.2,1.2-0.3,1.9-0.4l2.3-0.4V120c0-0.5-0.1-0.8-0.4-1
		c-0.3-0.2-0.6-0.3-1.1-0.3c-0.7,0-1.3,0.1-1.8,0.4s-1,0.6-1.4,0.9l-1.8-2.5c0.2-0.2,0.5-0.4,0.9-0.6s0.8-0.4,1.2-0.5
		c0.5-0.2,1-0.3,1.5-0.4c0.6-0.1,1.2-0.1,1.9-0.1c1.7,0,3,0.4,3.7,1.1c0.7,0.7,1.1,1.8,1.1,3.3v4.1c0,0.5,0,0.9,0,1.2
		c0,0.3,0,0.6,0.1,0.9s0.1,0.5,0.1,0.7c0.1,0.2,0.1,0.4,0.3,0.7H53.1z M52.5,122.6l-1.6,0.3c-0.5,0.1-0.9,0.3-1.2,0.5
		c-0.2,0.2-0.4,0.5-0.4,0.9c0,0.3,0.1,0.6,0.3,0.8c0.2,0.2,0.5,0.3,0.9,0.3c0.5,0,1-0.2,1.4-0.6c0.4-0.4,0.6-1,0.6-1.8V122.6z"/>
	<path class="purpleFill" d="M58.2,111.5H62v3.1h-3.8V111.5z M58.2,116.1H62v11.7h-3.8V116.1z"/>
	<path class="purpleFill" d="M63.8,116.1h3.5l0.3,1.6c0.3-0.6,0.8-1.1,1.3-1.5c0.5-0.3,1.2-0.5,2-0.5c0.9,0,1.7,0.2,2.2,0.6
		c0.5,0.4,0.9,0.9,1.1,1.5c0.1-0.2,0.3-0.5,0.5-0.7c0.2-0.3,0.4-0.5,0.7-0.7c0.3-0.2,0.6-0.4,1-0.5c0.4-0.1,0.9-0.2,1.4-0.2
		c0.8,0,1.5,0.1,2,0.4c0.5,0.3,0.9,0.6,1.2,1.1c0.3,0.5,0.5,1,0.5,1.5c0.1,0.6,0.1,1.2,0.1,1.8v7.2h-3.8v-6.1c0-0.9-0.1-1.5-0.3-1.9
		c-0.2-0.4-0.6-0.6-1.2-0.6c-0.2,0-0.4,0-0.6,0.1c-0.2,0.1-0.4,0.2-0.5,0.4c-0.2,0.2-0.3,0.5-0.4,0.8c-0.1,0.4-0.1,0.9-0.1,1.5v5.8
		h-3.8v-6.2c0-0.8-0.1-1.4-0.3-1.8c-0.2-0.4-0.6-0.6-1.2-0.6c-0.2,0-0.4,0-0.6,0.1c-0.2,0.1-0.4,0.2-0.5,0.4
		c-0.2,0.2-0.3,0.5-0.4,0.9c-0.1,0.4-0.2,0.9-0.2,1.6v5.6h-3.8V116.1z"/>
	<path class="purpleFill" d="M83.7,111.6h6.9c0.8,0,1.6,0.1,2.3,0.3c0.8,0.2,1.4,0.5,2,0.9c0.6,0.4,1.1,0.9,1.4,1.6s0.5,1.5,0.5,2.4
		c0,1-0.2,1.9-0.5,2.6s-0.8,1.3-1.3,1.7s-1.2,0.8-2,1c-0.8,0.2-1.6,0.3-2.5,0.3h-2.8v5.4h-4.1V111.6z M89.9,119.1c0.4,0,0.7,0,1-0.1
		c0.3-0.1,0.6-0.2,0.8-0.4c0.2-0.2,0.4-0.4,0.5-0.7c0.1-0.3,0.2-0.7,0.2-1.2c0-0.4-0.1-0.7-0.2-1c-0.1-0.3-0.3-0.5-0.6-0.6
		c-0.2-0.2-0.5-0.3-0.8-0.3s-0.6-0.1-1-0.1h-2.1v4.4H89.9z"/>
	<path class="purpleFill" d="M104.6,127.8c-0.1-0.2-0.2-0.4-0.2-0.7c-0.1-0.3-0.1-0.5-0.1-0.7c-0.2,0.5-0.6,0.9-1.1,1.2
		c-0.5,0.4-1.2,0.5-2.1,0.5c-0.6,0-1.2-0.1-1.6-0.3c-0.5-0.2-0.9-0.5-1.2-0.8c-0.3-0.3-0.6-0.7-0.7-1.2c-0.2-0.5-0.3-1-0.3-1.5
		c0-0.6,0.1-1.1,0.3-1.5c0.2-0.4,0.5-0.8,0.9-1.1s0.9-0.5,1.4-0.7c0.5-0.2,1.2-0.3,1.9-0.4l2.3-0.4V120c0-0.5-0.1-0.8-0.4-1
		c-0.3-0.2-0.6-0.3-1.1-0.3c-0.7,0-1.3,0.1-1.8,0.4s-1,0.6-1.4,0.9l-1.8-2.5c0.2-0.2,0.5-0.4,0.9-0.6s0.8-0.4,1.2-0.5
		c0.5-0.2,1-0.3,1.5-0.4c0.6-0.1,1.2-0.1,1.9-0.1c1.7,0,3,0.4,3.7,1.1c0.7,0.7,1.1,1.8,1.1,3.3v4.1c0,0.5,0,0.9,0,1.2
		c0,0.3,0,0.6,0.1,0.9s0.1,0.5,0.1,0.7c0.1,0.2,0.1,0.4,0.3,0.7H104.6z M104,122.6l-1.6,0.3c-0.5,0.1-0.9,0.3-1.2,0.5
		c-0.2,0.2-0.4,0.5-0.4,0.9c0,0.3,0.1,0.6,0.3,0.8c0.2,0.2,0.5,0.3,0.9,0.3c0.5,0,1-0.2,1.4-0.6c0.4-0.4,0.6-1,0.6-1.8V122.6z"/>
	<path class="purpleFill" d="M110.6,123.9c0.2,0.2,0.4,0.3,0.7,0.5c0.3,0.2,0.5,0.3,0.8,0.5c0.3,0.1,0.6,0.2,1,0.3c0.3,0.1,0.7,0.1,1,0.1
		c0.3,0,0.6,0,0.8-0.1c0.3-0.1,0.4-0.3,0.4-0.6c0-0.3-0.2-0.5-0.5-0.7c-0.3-0.2-0.7-0.3-1.1-0.4c-0.5-0.1-0.9-0.3-1.5-0.4
		c-0.5-0.2-1-0.4-1.5-0.6s-0.8-0.6-1.1-1.1c-0.3-0.5-0.5-1-0.5-1.8c0-0.7,0.1-1.2,0.4-1.7s0.6-0.9,1.1-1.2c0.5-0.3,1-0.5,1.6-0.7
		c0.6-0.2,1.2-0.2,1.9-0.2c1.1,0,2,0.1,2.8,0.4c0.8,0.2,1.5,0.6,2.2,1l-1.8,2.6c-0.2-0.1-0.4-0.3-0.6-0.4c-0.2-0.1-0.5-0.3-0.8-0.4
		c-0.3-0.1-0.6-0.2-0.9-0.3c-0.3-0.1-0.6-0.1-1-0.1c-0.3,0-0.5,0-0.6,0.1c-0.2,0.1-0.3,0.2-0.3,0.5c0,0.3,0.2,0.5,0.5,0.6
		c0.3,0.2,0.7,0.3,1.1,0.4c0.5,0.1,0.9,0.3,1.5,0.5c0.5,0.2,1,0.4,1.5,0.7c0.5,0.3,0.8,0.6,1.1,1.1c0.3,0.4,0.5,1,0.5,1.7
		c0,0.7-0.1,1.3-0.4,1.8c-0.3,0.5-0.7,0.9-1.2,1.2c-0.5,0.3-1,0.6-1.6,0.7s-1.2,0.2-1.8,0.2c-2.2,0-4-0.5-5.4-1.6L110.6,123.9z"/>
	<path class="purpleFill" d="M121.2,123.9c0.2,0.2,0.4,0.3,0.7,0.5c0.3,0.2,0.5,0.3,0.8,0.5c0.3,0.1,0.6,0.2,1,0.3c0.3,0.1,0.7,0.1,1,0.1
		c0.3,0,0.6,0,0.8-0.1c0.3-0.1,0.4-0.3,0.4-0.6c0-0.3-0.2-0.5-0.5-0.7c-0.3-0.2-0.7-0.3-1.1-0.4c-0.5-0.1-0.9-0.3-1.5-0.4
		c-0.5-0.2-1-0.4-1.5-0.6s-0.8-0.6-1.1-1.1c-0.3-0.5-0.5-1-0.5-1.8c0-0.7,0.1-1.2,0.4-1.7s0.6-0.9,1.1-1.2c0.5-0.3,1-0.5,1.6-0.7
		c0.6-0.2,1.2-0.2,1.9-0.2c1.1,0,2,0.1,2.8,0.4c0.8,0.2,1.5,0.6,2.2,1l-1.8,2.6c-0.2-0.1-0.4-0.3-0.6-0.4c-0.2-0.1-0.5-0.3-0.8-0.4
		c-0.3-0.1-0.6-0.2-0.9-0.3c-0.3-0.1-0.6-0.1-1-0.1c-0.3,0-0.5,0-0.6,0.1c-0.2,0.1-0.3,0.2-0.3,0.5c0,0.3,0.2,0.5,0.5,0.6
		c0.3,0.2,0.7,0.3,1.1,0.4c0.5,0.1,0.9,0.3,1.5,0.5c0.5,0.2,1,0.4,1.5,0.7c0.5,0.3,0.8,0.6,1.1,1.1c0.3,0.4,0.5,1,0.5,1.7
		c0,0.7-0.1,1.3-0.4,1.8c-0.3,0.5-0.7,0.9-1.2,1.2c-0.5,0.3-1,0.6-1.6,0.7s-1.2,0.2-1.8,0.2c-2.2,0-4-0.5-5.4-1.6L121.2,123.9z"/>
</g>
</svg>
