<?xml version="1.0" encoding="utf-8"?>
<!-- Generator: Adobe Illustrator 22.1.0, SVG Export Plug-In . SVG Version: 6.00 Build 0)  -->
<svg version="1.1" id="Layer_1" xmlns="https://www.w3.org/2000/svg" xmlns:xlink="https://www.w3.org/1999/xlink" x="0px" y="0px"
	 viewBox="0 0 300 250" style="enable-background:new 0 0 300 250;" xml:space="preserve">
<style type="text/css">
.purpleFill{fill:#662868;}
</style>
<g>
	<path class="purpleFill" d="M23.2,98.3c0.1,0.2,0.3,0.4,0.6,0.6c0.3,0.2,0.6,0.4,0.9,0.6s0.8,0.3,1.2,0.5c0.5,0.1,0.9,0.2,1.4,0.2
		c0.7,0,1.3-0.1,1.7-0.4c0.4-0.2,0.6-0.6,0.6-1c0-0.3-0.1-0.6-0.3-0.8c-0.2-0.2-0.4-0.4-0.8-0.5c-0.4-0.1-0.8-0.3-1.3-0.4
		c-0.5-0.1-1.1-0.3-1.8-0.4c-1.6-0.4-2.8-1-3.5-1.8c-0.7-0.8-1.1-1.8-1.1-3c0-0.7,0.1-1.4,0.4-2c0.3-0.6,0.7-1.2,1.2-1.7
		s1.2-0.9,2-1.2c0.8-0.3,1.7-0.4,2.8-0.4c1.2,0,2.4,0.2,3.6,0.6c1.1,0.4,2.1,1.1,2.9,2l-2.8,2.6c-0.4-0.5-1-0.9-1.6-1.2
		c-0.7-0.3-1.4-0.5-2.3-0.5c-0.4,0-0.7,0-1,0.1s-0.5,0.2-0.6,0.3c-0.1,0.1-0.2,0.2-0.3,0.4c-0.1,0.2-0.1,0.3-0.1,0.4
		c0,0.4,0.2,0.7,0.6,1c0.4,0.3,1.1,0.6,2.2,0.9c1.2,0.3,2.2,0.6,2.9,1s1.4,0.7,1.8,1.1s0.8,0.9,0.9,1.4c0.2,0.5,0.3,1.1,0.3,1.7
		c0,0.9-0.2,1.6-0.5,2.3c-0.4,0.7-0.8,1.2-1.4,1.6c-0.6,0.4-1.3,0.8-2.1,1c-0.8,0.2-1.7,0.3-2.5,0.3c-0.9,0-1.6-0.1-2.4-0.2
		c-0.7-0.1-1.4-0.3-1.9-0.6s-1.1-0.5-1.5-0.8c-0.4-0.3-0.8-0.6-1-0.9L23.2,98.3z"/>
	<path class="purpleFill" d="M35.3,91.5h3.9V98c0,0.7,0.1,1.3,0.3,1.7c0.2,0.4,0.6,0.6,1.2,0.6c0.6,0,1.1-0.2,1.4-0.7
		c0.3-0.5,0.5-1.2,0.5-2.3v-5.7h3.9v11.7h-3.6v-1.7c-0.3,0.6-0.7,1.1-1.3,1.5c-0.5,0.4-1.3,0.5-2.2,0.5c-1.4,0-2.4-0.4-3.1-1.2
		c-0.7-0.8-1-2-1-3.5V91.5z"/>
	<path class="purpleFill" d="M48.3,91.5h3.5l0.3,2.2c0.4-0.7,0.8-1.3,1.5-1.8c0.6-0.5,1.5-0.7,2.6-0.7v3.9C55.8,95,55.4,95,54.8,95
		c-0.3,0-0.6,0-0.9,0.1c-0.3,0.1-0.6,0.2-0.9,0.4c-0.3,0.2-0.5,0.5-0.7,0.9c-0.2,0.4-0.3,1-0.3,1.7v5.2h-3.9V91.5z"/>
	<path class="purpleFill" d="M60.2,98.3c0.1,0.9,0.4,1.5,0.9,1.9s0.9,0.5,1.5,0.5c0.5,0,0.9-0.1,1.3-0.3c0.4-0.2,0.7-0.5,0.9-1l2.9,1.6
		c-0.6,0.9-1.3,1.5-2.3,2c-0.9,0.4-1.9,0.6-3,0.6c-1,0-1.9-0.2-2.6-0.5c-0.8-0.3-1.4-0.7-1.9-1.3c-0.5-0.6-0.9-1.2-1.2-2
		c-0.3-0.8-0.4-1.6-0.4-2.4c0-0.9,0.1-1.7,0.4-2.5c0.3-0.8,0.7-1.4,1.2-2c0.5-0.6,1.1-1,1.9-1.3c0.7-0.3,1.6-0.5,2.5-0.5
		c0.9,0,1.7,0.2,2.4,0.5c0.7,0.3,1.3,0.7,1.8,1.3c0.5,0.6,0.9,1.2,1.1,2c0.3,0.8,0.4,1.7,0.4,2.7c0,0.2,0,0.4,0,0.5
		c0,0.1,0,0.2,0,0.2H60.2z M62.1,94c-1.1,0-1.7,0.7-1.9,2.1h3.8c0-0.6-0.1-1.1-0.4-1.5C63.2,94.2,62.7,94,62.1,94z"/>
	<path class="purpleFill" d="M68.9,106.3c0.4-0.2,0.7-0.4,1-0.6s0.5-0.4,0.6-0.6c0.1-0.2,0.2-0.4,0.3-0.7c0-0.2,0.1-0.5,0.1-0.8v-0.4h-2V99
		h4.3v4.2c0,0.7-0.1,1.3-0.2,1.9c-0.1,0.5-0.3,1-0.6,1.3s-0.6,0.7-1.1,1c-0.4,0.3-0.9,0.5-1.5,0.7L68.9,106.3z"/>
	<path class="purpleFill" d="M80,104.4c0.3,0.1,0.6,0.2,0.9,0.2c0.3,0.1,0.6,0.1,0.8,0.1c0.4,0,0.6-0.1,0.8-0.2c0.2-0.2,0.3-0.4,0.4-0.8
		l-4.2-12.1h4.2l2,7.9l2-7.9h4.2L87,103.1c-0.2,0.6-0.5,1.2-0.7,1.8c-0.2,0.5-0.5,1-0.9,1.4c-0.4,0.4-0.8,0.7-1.4,0.9
		c-0.6,0.2-1.3,0.3-2.2,0.3c-0.1,0-0.3,0-0.5,0s-0.4,0-0.6,0c-0.2,0-0.4,0-0.6-0.1s-0.4-0.1-0.5-0.1L80,104.4z"/>
	<path class="purpleFill" d="M96.8,103.6c-1,0-1.9-0.2-2.6-0.5c-0.7-0.3-1.4-0.7-1.9-1.3c-0.5-0.6-0.9-1.2-1.1-2c-0.2-0.8-0.4-1.6-0.4-2.5
		c0-0.9,0.1-1.7,0.4-2.5c0.3-0.8,0.6-1.4,1.1-2c0.5-0.6,1.1-1,1.9-1.3c0.7-0.3,1.6-0.5,2.6-0.5s1.8,0.2,2.6,0.5
		c0.7,0.3,1.4,0.7,1.9,1.3s0.9,1.2,1.1,2c0.3,0.8,0.4,1.6,0.4,2.5c0,0.9-0.1,1.7-0.4,2.5c-0.3,0.8-0.6,1.4-1.1,2
		c-0.5,0.6-1.1,1-1.9,1.3C98.6,103.4,97.7,103.6,96.8,103.6z M96.9,100.6c0.6,0,1.1-0.3,1.4-0.9c0.3-0.6,0.4-1.4,0.4-2.4
		c0-1-0.2-1.8-0.5-2.4s-0.8-0.9-1.4-0.9s-1.1,0.3-1.4,0.9s-0.5,1.4-0.5,2.4c0,1,0.2,1.8,0.5,2.4C95.7,100.4,96.2,100.6,96.9,100.6z"
		/>
	<path class="purpleFill" d="M103.9,91.5h3.9V98c0,0.7,0.1,1.3,0.3,1.7c0.2,0.4,0.6,0.6,1.2,0.6c0.6,0,1.1-0.2,1.4-0.7
		c0.3-0.5,0.5-1.2,0.5-2.3v-5.7h3.9v11.7h-3.6v-1.7c-0.3,0.6-0.7,1.1-1.3,1.5c-0.5,0.4-1.3,0.5-2.2,0.5c-1.4,0-2.4-0.4-3.1-1.2
		c-0.7-0.8-1-2-1-3.5V91.5z"/>
	<path class="purpleFill" d="M116.9,94.1c0.4-0.2,0.7-0.4,1-0.6c0.3-0.2,0.5-0.4,0.6-0.6c0.1-0.2,0.2-0.4,0.3-0.7c0-0.2,0.1-0.5,0.1-0.8
		v-0.4h-2V87h4.3v4c0,0.7-0.1,1.3-0.2,1.9c-0.1,0.5-0.3,1-0.6,1.3c-0.3,0.4-0.6,0.7-1.1,1c-0.4,0.3-0.9,0.5-1.5,0.7L116.9,94.1z"/>
	<path class="purpleFill" d="M122.5,91.5h3.5l0.3,2.2c0.4-0.7,0.8-1.3,1.5-1.8c0.6-0.5,1.5-0.7,2.6-0.7v3.9c-0.3-0.1-0.7-0.1-1.2-0.1
		c-0.3,0-0.6,0-0.9,0.1c-0.3,0.1-0.6,0.2-0.9,0.4c-0.3,0.2-0.5,0.5-0.7,0.9c-0.2,0.4-0.3,1-0.3,1.7v5.2h-3.9V91.5z"/>
	<path class="purpleFill" d="M134.4,98.3c0.1,0.9,0.4,1.5,0.9,1.9s0.9,0.5,1.5,0.5c0.5,0,0.9-0.1,1.3-0.3c0.4-0.2,0.7-0.5,0.9-1l2.9,1.6
		c-0.6,0.9-1.3,1.5-2.3,2c-0.9,0.4-1.9,0.6-3,0.6c-1,0-1.9-0.2-2.6-0.5c-0.8-0.3-1.4-0.7-1.9-1.3c-0.5-0.6-0.9-1.2-1.2-2
		c-0.3-0.8-0.4-1.6-0.4-2.4c0-0.9,0.1-1.7,0.4-2.5c0.3-0.8,0.7-1.4,1.2-2c0.5-0.6,1.1-1,1.9-1.3c0.7-0.3,1.6-0.5,2.5-0.5
		c0.9,0,1.7,0.2,2.4,0.5c0.7,0.3,1.3,0.7,1.8,1.3c0.5,0.6,0.9,1.2,1.1,2c0.3,0.8,0.4,1.7,0.4,2.7c0,0.2,0,0.4,0,0.5
		c0,0.1,0,0.2,0,0.2H134.4z M136.3,94c-1.1,0-1.7,0.7-1.9,2.1h3.8c0-0.6-0.1-1.1-0.4-1.5C137.4,94.2,136.9,94,136.3,94z"/>
	<path class="purpleFill" d="M149.2,99.3c0.2,0.2,0.4,0.3,0.7,0.5c0.3,0.2,0.5,0.3,0.9,0.5c0.3,0.1,0.6,0.2,1,0.3c0.3,0.1,0.7,0.1,1,0.1
		c0.3,0,0.6,0,0.8-0.1c0.3-0.1,0.4-0.3,0.4-0.6c0-0.3-0.2-0.5-0.5-0.7c-0.3-0.2-0.7-0.3-1.1-0.4c-0.5-0.1-0.9-0.3-1.5-0.4
		c-0.5-0.2-1-0.4-1.5-0.6c-0.5-0.3-0.8-0.6-1.1-1.1c-0.3-0.5-0.5-1-0.5-1.8c0-0.7,0.1-1.2,0.4-1.7c0.3-0.5,0.6-0.9,1.1-1.2
		c0.5-0.3,1-0.5,1.6-0.7c0.6-0.2,1.2-0.2,1.9-0.2c1.1,0,2,0.1,2.8,0.4c0.8,0.2,1.5,0.6,2.2,1l-1.8,2.6c-0.2-0.1-0.4-0.3-0.6-0.4
		c-0.2-0.1-0.5-0.3-0.8-0.4c-0.3-0.1-0.6-0.2-0.9-0.3c-0.3-0.1-0.6-0.1-1-0.1c-0.3,0-0.5,0-0.6,0.1c-0.2,0.1-0.3,0.2-0.3,0.5
		c0,0.3,0.2,0.5,0.5,0.6s0.7,0.3,1.1,0.4c0.5,0.1,0.9,0.3,1.5,0.5c0.5,0.2,1,0.4,1.5,0.7c0.5,0.3,0.8,0.6,1.1,1.1
		c0.3,0.4,0.5,1,0.5,1.7s-0.1,1.3-0.4,1.8c-0.3,0.5-0.7,0.9-1.2,1.3c-0.5,0.3-1,0.6-1.6,0.7c-0.6,0.2-1.2,0.2-1.8,0.2
		c-2.2,0-4-0.6-5.4-1.7L149.2,99.3z"/>
	<path class="purpleFill" d="M165.9,103.2c-0.1-0.2-0.2-0.4-0.2-0.7c-0.1-0.3-0.1-0.5-0.1-0.7c-0.2,0.5-0.6,0.9-1.1,1.2
		c-0.5,0.4-1.2,0.5-2.1,0.5c-0.6,0-1.2-0.1-1.7-0.3s-0.9-0.5-1.2-0.8c-0.3-0.3-0.6-0.7-0.7-1.2s-0.3-1-0.3-1.5
		c0-0.6,0.1-1.1,0.3-1.6s0.5-0.8,0.9-1.1c0.4-0.3,0.9-0.6,1.4-0.7c0.6-0.2,1.2-0.3,1.9-0.4l2.3-0.4v-0.3c0-0.5-0.1-0.8-0.4-1
		c-0.3-0.2-0.6-0.3-1.1-0.3c-0.7,0-1.3,0.1-1.9,0.4c-0.5,0.3-1,0.6-1.4,0.9l-1.8-2.6c0.2-0.2,0.5-0.4,0.9-0.6s0.8-0.4,1.2-0.6
		c0.5-0.2,1-0.3,1.5-0.4s1.2-0.1,1.9-0.1c1.7,0,3,0.4,3.7,1.1c0.7,0.7,1.1,1.9,1.1,3.4v4.2c0,0.5,0,0.9,0,1.2c0,0.3,0,0.6,0.1,0.9
		s0.1,0.5,0.1,0.7s0.1,0.4,0.3,0.7H165.9z M165.3,98l-1.6,0.3c-0.5,0.1-0.9,0.3-1.2,0.5c-0.2,0.2-0.4,0.5-0.4,0.9
		c0,0.3,0.1,0.6,0.3,0.8s0.5,0.3,0.9,0.3c0.5,0,1-0.2,1.4-0.6c0.4-0.4,0.6-1,0.6-1.8V98z"/>
	<path class="purpleFill" d="M169.6,91.5h4.3l1.9,8.1l1.9-8.1h4.1l-3.9,11.7h-4.5L169.6,91.5z"/>
	<path class="purpleFill" d="M182.5,86.9h3.9v3.1h-3.9V86.9z M182.5,91.5h3.9v11.7h-3.9V91.5z"/>
	<path class="purpleFill" d="M188.2,91.5h3.5l0.3,1.6c0.4-0.6,0.9-1,1.5-1.4c0.6-0.4,1.4-0.6,2.2-0.6c2.6,0,3.9,1.6,3.9,4.9v7.1h-3.9v-6.2
		c0-0.9-0.1-1.6-0.4-1.9c-0.3-0.4-0.7-0.6-1.3-0.6c-0.3,0-0.5,0-0.8,0.1c-0.2,0.1-0.4,0.3-0.6,0.5c-0.2,0.2-0.3,0.6-0.4,1
		c-0.1,0.4-0.1,0.9-0.1,1.5v5.5h-3.9V91.5z"/>
	<path class="purpleFill" d="M202.7,103.2c0.4,0.4,1,0.8,1.7,1.1c0.7,0.3,1.3,0.4,2,0.4c0.7,0,1.2-0.2,1.5-0.5c0.3-0.3,0.4-0.8,0.4-1.4
		v-1.1c-0.3,0.4-0.6,0.7-1.2,1c-0.5,0.3-1.1,0.4-1.9,0.4c-0.6,0-1.1-0.1-1.6-0.3c-0.5-0.2-1-0.5-1.5-1c-0.4-0.5-0.8-1-1-1.8
		c-0.3-0.7-0.4-1.6-0.4-2.7c0-1,0.1-1.8,0.3-2.6c0.2-0.8,0.6-1.4,1-1.9c0.4-0.5,0.9-0.9,1.5-1.2c0.6-0.3,1.2-0.4,1.9-0.4
		c0.7,0,1.3,0.2,1.9,0.5c0.5,0.3,1,0.8,1.3,1.4l0.5-1.6h3.1v11.1c0,0.7-0.1,1.4-0.3,2c-0.2,0.6-0.5,1.1-1,1.6s-1.1,0.8-1.8,1
		c-0.7,0.2-1.6,0.4-2.6,0.4c-0.7,0-1.3-0.1-1.9-0.1c-0.6-0.1-1.1-0.2-1.6-0.4c-0.5-0.2-0.9-0.3-1.3-0.5c-0.4-0.2-0.7-0.4-1-0.6
		L202.7,103.2z M208.3,97.3c0-0.4,0-0.7-0.1-1.1c-0.1-0.3-0.1-0.7-0.3-0.9c-0.1-0.3-0.3-0.5-0.5-0.7c-0.2-0.2-0.5-0.3-0.9-0.3
		c-0.2,0-0.5,0-0.7,0.1c-0.2,0.1-0.4,0.3-0.6,0.5s-0.3,0.5-0.4,0.9s-0.1,0.8-0.1,1.4c0,1,0.2,1.7,0.5,2.2c0.3,0.5,0.8,0.7,1.4,0.7
		s1-0.2,1.3-0.7s0.4-1.1,0.4-2V97.3z"/>
	<path class="purpleFill" d="M213.7,99h4.3v4.3h-4.3V99z"/>
</g>
<g>
	<path class="purpleFill" d="M21.3,111.1h7.5c0.7,0,1.4,0.1,2,0.3c0.7,0.2,1.2,0.4,1.7,0.8c0.5,0.4,0.9,0.8,1.2,1.4c0.3,0.6,0.5,1.2,0.5,2
		c0,0.4-0.1,0.8-0.2,1.2c-0.1,0.4-0.4,0.8-0.6,1.1c-0.3,0.3-0.6,0.6-1,0.9s-0.8,0.4-1.2,0.5c1.1,0.2,2,0.6,2.6,1.2
		c0.6,0.6,1,1.5,1,2.6c0,0.9-0.2,1.6-0.5,2.2s-0.7,1-1.3,1.3c-0.5,0.3-1.1,0.5-1.8,0.7c-0.7,0.1-1.4,0.2-2.1,0.2h-7.9V111.1z
		 M27.6,117.6c0.9,0,1.5-0.1,1.8-0.4c0.3-0.3,0.5-0.7,0.5-1.3c0-0.5-0.1-0.9-0.4-1.2c-0.3-0.3-0.8-0.4-1.5-0.4h-2.5v3.4H27.6z
		 M28.5,124.2c0.4,0,0.7,0,1-0.1c0.3-0.1,0.5-0.2,0.6-0.4c0.1-0.2,0.2-0.3,0.3-0.6s0.1-0.4,0.1-0.7c0-0.5-0.2-1-0.5-1.3
		c-0.4-0.3-0.9-0.5-1.6-0.5h-2.8v3.5H28.5z"/>
	<path class="purpleFill" d="M36.1,115.6h3.9v6.4c0,0.7,0.1,1.3,0.3,1.7c0.2,0.4,0.6,0.6,1.2,0.6c0.6,0,1.1-0.2,1.4-0.7
		c0.3-0.5,0.5-1.2,0.5-2.3v-5.7h3.9v11.7h-3.6v-1.7c-0.3,0.6-0.7,1.1-1.3,1.5c-0.5,0.4-1.3,0.5-2.2,0.5c-1.4,0-2.4-0.4-3.1-1.2
		c-0.7-0.8-1-2-1-3.5V115.6z"/>
	<path class="purpleFill" d="M50,118.1h-1.9v-2.5h0.3c0.6,0,1.1-0.1,1.4-0.3c0.3-0.2,0.6-0.5,0.8-0.8c0.2-0.3,0.3-0.7,0.4-1.1
		c0.1-0.4,0.2-0.8,0.3-1.2h2.4v3.5h2.4v2.5h-2.4v5.4c0,0.4,0.1,0.6,0.2,0.9s0.4,0.3,0.9,0.3c0.1,0,0.3,0,0.5,0
		c0.2,0,0.4-0.1,0.6-0.2l0.3,2.7c-0.4,0.2-0.9,0.3-1.3,0.4s-0.9,0.1-1.3,0.1c-0.7,0-1.3-0.1-1.8-0.3c-0.5-0.2-0.9-0.4-1.1-0.8
		c-0.3-0.3-0.5-0.7-0.6-1.2c-0.1-0.5-0.2-0.9-0.2-1.5V118.1z"/>
	<path class="purpleFill" d="M61.9,115.6h3.5l0.3,1.6c0.4-0.6,0.9-1,1.5-1.4c0.6-0.4,1.4-0.6,2.2-0.6c2.6,0,3.9,1.6,3.9,4.9v7.1h-3.9v-6.2
		c0-0.9-0.1-1.6-0.4-1.9c-0.3-0.4-0.7-0.6-1.3-0.6c-0.3,0-0.5,0-0.8,0.1s-0.4,0.3-0.6,0.5c-0.2,0.2-0.3,0.6-0.4,1
		c-0.1,0.4-0.1,0.9-0.1,1.5v5.5h-3.9V115.6z"/>
	<path class="purpleFill" d="M80.3,127.7c-1,0-1.9-0.2-2.6-0.5c-0.7-0.3-1.4-0.7-1.9-1.3c-0.5-0.6-0.9-1.2-1.1-2c-0.2-0.8-0.4-1.6-0.4-2.5
		c0-0.9,0.1-1.7,0.4-2.5c0.3-0.8,0.6-1.4,1.1-2c0.5-0.6,1.1-1,1.9-1.3c0.7-0.3,1.6-0.5,2.6-0.5s1.8,0.2,2.6,0.5
		c0.7,0.3,1.4,0.7,1.9,1.3s0.9,1.2,1.1,2c0.3,0.8,0.4,1.6,0.4,2.5c0,0.9-0.1,1.7-0.4,2.5c-0.3,0.8-0.6,1.4-1.1,2s-1.1,1-1.9,1.3
		C82.2,127.5,81.3,127.7,80.3,127.7z M80.4,124.8c0.6,0,1.1-0.3,1.4-0.9c0.3-0.6,0.4-1.4,0.4-2.4c0-1-0.2-1.8-0.5-2.4
		s-0.8-0.9-1.4-0.9s-1.1,0.3-1.4,0.9s-0.5,1.4-0.5,2.4c0,1,0.2,1.8,0.5,2.4C79.2,124.5,79.7,124.8,80.4,124.8z"/>
	<path class="purpleFill" d="M88.2,118.1h-1.9v-2.5h0.3c0.6,0,1.1-0.1,1.4-0.3c0.3-0.2,0.6-0.5,0.8-0.8c0.2-0.3,0.3-0.7,0.4-1.1
		c0.1-0.4,0.2-0.8,0.3-1.2H92v3.5h2.4v2.5H92v5.4c0,0.4,0.1,0.6,0.2,0.9s0.4,0.3,0.9,0.3c0.1,0,0.3,0,0.5,0c0.2,0,0.4-0.1,0.6-0.2
		l0.3,2.7c-0.4,0.2-0.9,0.3-1.3,0.4s-0.9,0.1-1.3,0.1c-0.7,0-1.3-0.1-1.8-0.3c-0.5-0.2-0.9-0.4-1.1-0.8c-0.3-0.3-0.5-0.7-0.6-1.2
		c-0.1-0.5-0.2-0.9-0.2-1.5V118.1z"/>
	<path class="purpleFill" d="M107.1,126.2c-0.3,0.4-0.6,0.8-1.1,1c-0.5,0.2-1,0.4-1.7,0.4c-0.6,0-1.2-0.1-1.8-0.3c-0.6-0.2-1.1-0.6-1.5-1
		c-0.4-0.5-0.8-1.1-1.1-1.9c-0.3-0.8-0.4-1.7-0.4-2.9c0-2,0.4-3.6,1.3-4.6c0.8-1.1,2-1.6,3.4-1.6c0.7,0,1.3,0.1,1.9,0.4
		c0.6,0.3,1,0.8,1.4,1.5l0.5-1.6h3v15.7h-3.9V126.2z M107.1,121.4c0-0.9-0.1-1.7-0.4-2.2c-0.3-0.5-0.7-0.8-1.3-0.8
		c-0.6,0-1.1,0.3-1.4,0.8c-0.3,0.5-0.4,1.3-0.4,2.1c0,1.1,0.2,1.9,0.5,2.4c0.3,0.5,0.8,0.7,1.3,0.7c0.6,0,1-0.2,1.3-0.7
		c0.3-0.5,0.4-1.2,0.4-2.1V121.4z"/>
	<path class="purpleFill" d="M112.7,115.6h3.9v6.4c0,0.7,0.1,1.3,0.3,1.7c0.2,0.4,0.6,0.6,1.2,0.6c0.6,0,1.1-0.2,1.4-0.7
		c0.3-0.5,0.5-1.2,0.5-2.3v-5.7h3.9v11.7h-3.6v-1.7c-0.3,0.6-0.7,1.1-1.3,1.5c-0.5,0.4-1.3,0.5-2.2,0.5c-1.4,0-2.4-0.4-3.1-1.2
		c-0.7-0.8-1-2-1-3.5V115.6z"/>
	<path class="purpleFill" d="M125.8,111h3.9v3.1h-3.9V111z M125.8,115.6h3.9v11.7h-3.9V115.6z"/>
	<path class="purpleFill" d="M132.3,118.1h-1.9v-2.5h0.3c0.6,0,1.1-0.1,1.4-0.3c0.3-0.2,0.6-0.5,0.8-0.8c0.2-0.3,0.3-0.7,0.4-1.1
		c0.1-0.4,0.2-0.8,0.3-1.2h2.4v3.5h2.4v2.5h-2.4v5.4c0,0.4,0.1,0.6,0.2,0.9s0.4,0.3,0.9,0.3c0.1,0,0.3,0,0.5,0
		c0.2,0,0.4-0.1,0.6-0.2l0.3,2.7c-0.4,0.2-0.9,0.3-1.3,0.4s-0.9,0.1-1.3,0.1c-0.7,0-1.3-0.1-1.8-0.3c-0.5-0.2-0.9-0.4-1.1-0.8
		c-0.3-0.3-0.5-0.7-0.6-1.2c-0.1-0.5-0.2-0.9-0.2-1.5V118.1z"/>
	<path class="purpleFill" d="M142.9,122.4c0.1,0.9,0.4,1.5,0.9,1.9s0.9,0.5,1.5,0.5c0.5,0,0.9-0.1,1.3-0.3c0.4-0.2,0.7-0.5,0.9-1l2.9,1.6
		c-0.6,0.9-1.3,1.5-2.3,2c-0.9,0.4-1.9,0.6-3,0.6c-1,0-1.9-0.2-2.6-0.5c-0.8-0.3-1.4-0.7-1.9-1.3s-0.9-1.2-1.2-2
		c-0.3-0.8-0.4-1.6-0.4-2.4c0-0.9,0.1-1.7,0.4-2.5c0.3-0.8,0.7-1.4,1.2-2c0.5-0.6,1.1-1,1.9-1.3c0.7-0.3,1.6-0.5,2.5-0.5
		c0.9,0,1.7,0.2,2.4,0.5c0.7,0.3,1.3,0.7,1.8,1.3c0.5,0.6,0.9,1.2,1.1,2c0.3,0.8,0.4,1.7,0.4,2.7c0,0.2,0,0.4,0,0.5
		c0,0.1,0,0.2,0,0.2H142.9z M144.8,118.1c-1.1,0-1.7,0.7-1.9,2.1h3.8c0-0.6-0.1-1.1-0.4-1.5C145.9,118.3,145.4,118.1,144.8,118.1z"
		/>
	<path class="purpleFill" d="M160,122.4c0.1,0.9,0.4,1.5,0.9,1.9c0.4,0.4,0.9,0.5,1.5,0.5c0.5,0,0.9-0.1,1.3-0.3s0.7-0.5,0.9-1l2.9,1.6
		c-0.6,0.9-1.3,1.5-2.3,2s-1.9,0.6-3,0.6c-1,0-1.9-0.2-2.6-0.5c-0.8-0.3-1.4-0.7-1.9-1.3s-0.9-1.2-1.2-2c-0.3-0.8-0.4-1.6-0.4-2.4
		c0-0.9,0.1-1.7,0.4-2.5c0.3-0.8,0.7-1.4,1.2-2s1.1-1,1.9-1.3c0.7-0.3,1.6-0.5,2.5-0.5c0.9,0,1.7,0.2,2.4,0.5s1.3,0.7,1.8,1.3
		c0.5,0.6,0.9,1.2,1.1,2c0.3,0.8,0.4,1.7,0.4,2.7c0,0.2,0,0.4,0,0.5c0,0.1,0,0.2,0,0.2H160z M161.9,118.1c-1.1,0-1.7,0.7-1.9,2.1
		h3.8c0-0.6-0.1-1.1-0.4-1.5C163,118.3,162.5,118.1,161.9,118.1z"/>
	<path class="purpleFill" d="M168.9,115.6h3.5l0.3,1.6c0.4-0.6,0.9-1,1.5-1.4c0.6-0.4,1.4-0.6,2.2-0.6c2.6,0,3.9,1.6,3.9,4.9v7.1h-3.9v-6.2
		c0-0.9-0.1-1.6-0.4-1.9c-0.3-0.4-0.7-0.6-1.3-0.6c-0.3,0-0.5,0-0.8,0.1c-0.2,0.1-0.4,0.3-0.6,0.5c-0.2,0.2-0.3,0.6-0.4,1
		c-0.1,0.4-0.1,0.9-0.1,1.5v5.5h-3.9V115.6z"/>
	<path class="purpleFill" d="M187.3,127.7c-1,0-1.9-0.2-2.6-0.5c-0.7-0.3-1.4-0.7-1.9-1.3c-0.5-0.6-0.9-1.2-1.1-2c-0.2-0.8-0.4-1.6-0.4-2.5
		c0-0.9,0.1-1.7,0.4-2.5s0.6-1.4,1.1-2c0.5-0.6,1.1-1,1.9-1.3c0.7-0.3,1.6-0.5,2.6-0.5s1.8,0.2,2.6,0.5c0.7,0.3,1.4,0.7,1.9,1.3
		c0.5,0.6,0.9,1.2,1.1,2c0.3,0.8,0.4,1.6,0.4,2.5c0,0.9-0.1,1.7-0.4,2.5c-0.3,0.8-0.6,1.4-1.1,2c-0.5,0.6-1.1,1-1.9,1.3
		C189.2,127.5,188.3,127.7,187.3,127.7z M187.4,124.8c0.6,0,1.1-0.3,1.4-0.9c0.3-0.6,0.4-1.4,0.4-2.4c0-1-0.2-1.8-0.5-2.4
		c-0.3-0.6-0.8-0.9-1.4-0.9c-0.6,0-1.1,0.3-1.4,0.9s-0.5,1.4-0.5,2.4c0,1,0.2,1.8,0.5,2.4C186.2,124.5,186.7,124.8,187.4,124.8z"/>
	<path class="purpleFill" d="M194.5,115.6h3.9v6.4c0,0.7,0.1,1.3,0.3,1.7c0.2,0.4,0.6,0.6,1.2,0.6c0.6,0,1.1-0.2,1.4-0.7
		c0.3-0.5,0.5-1.2,0.5-2.3v-5.7h3.9v11.7H202v-1.7c-0.3,0.6-0.7,1.1-1.3,1.5c-0.5,0.4-1.3,0.5-2.2,0.5c-1.4,0-2.4-0.4-3.1-1.2
		c-0.7-0.8-1-2-1-3.5V115.6z"/>
	<path class="purpleFill" d="M208.9,127.3c0.4,0.4,1,0.8,1.7,1.1c0.7,0.3,1.3,0.4,2,0.4c0.7,0,1.2-0.2,1.5-0.5c0.3-0.3,0.4-0.8,0.4-1.4
		v-1.1c-0.3,0.4-0.6,0.7-1.2,1c-0.5,0.3-1.1,0.4-1.9,0.4c-0.6,0-1.1-0.1-1.6-0.3c-0.5-0.2-1-0.5-1.5-1c-0.4-0.5-0.8-1-1-1.8
		c-0.3-0.7-0.4-1.6-0.4-2.7c0-1,0.1-1.8,0.3-2.6c0.2-0.8,0.6-1.4,1-1.9c0.4-0.5,0.9-0.9,1.5-1.2c0.6-0.3,1.2-0.4,1.9-0.4
		c0.7,0,1.3,0.2,1.9,0.5c0.5,0.3,1,0.8,1.3,1.4l0.5-1.6h3.1v11.1c0,0.7-0.1,1.4-0.3,2c-0.2,0.6-0.5,1.1-1,1.6
		c-0.5,0.4-1.1,0.8-1.8,1s-1.6,0.4-2.6,0.4c-0.7,0-1.3,0-1.9-0.1c-0.6-0.1-1.1-0.2-1.6-0.4s-0.9-0.3-1.3-0.5c-0.4-0.2-0.7-0.4-1-0.6
		L208.9,127.3z M214.6,121.4c0-0.4,0-0.7-0.1-1.1c-0.1-0.3-0.1-0.7-0.3-0.9c-0.1-0.3-0.3-0.5-0.5-0.7c-0.2-0.2-0.5-0.3-0.9-0.3
		c-0.2,0-0.5,0-0.7,0.1c-0.2,0.1-0.4,0.3-0.6,0.5s-0.3,0.5-0.4,0.9s-0.1,0.8-0.1,1.4c0,1,0.2,1.7,0.5,2.2c0.3,0.5,0.8,0.7,1.4,0.7
		s1-0.2,1.3-0.7s0.4-1.1,0.4-2V121.4z"/>
	<path class="purpleFill" d="M220.2,111.1h3.9v6.1c0.3-0.5,0.7-1,1.3-1.3s1.3-0.6,2.3-0.6c1.3,0,2.3,0.4,2.9,1.3s0.9,2.1,0.9,3.7v7.1h-3.9
		V121c0-0.7-0.1-1.3-0.4-1.7c-0.3-0.4-0.7-0.6-1.3-0.6c-0.6,0-1,0.2-1.4,0.7c-0.4,0.5-0.5,1.2-0.5,2.3v5.7h-3.9V111.1z"/>
	<path class="purpleFill" d="M233.3,123.1h4.3v4.3h-4.3V123.1z"/>
</g>
</svg>
