<?xml version="1.0" encoding="utf-8"?>
<!-- Generator: Adobe Illustrator 22.1.0, SVG Export Plug-In . SVG Version: 6.00 Build 0)  -->
<svg version="1.1" id="Layer_1" xmlns="http://www.w3.org/2000/svg" xmlns:xlink="http://www.w3.org/1999/xlink" x="0px" y="0px"
	 viewBox="0 0 728 90" style="enable-background:new 0 0 728 90;" xml:space="preserve">
<style type="text/css">
	.copy-purpleFill{fill:#662868;}
</style>
<g>
	<path class="copy-purpleFill" d="M204,33.5c0.2,0.3,0.4,0.5,0.8,0.8s0.7,0.5,1.2,0.8c0.5,0.2,1,0.4,1.6,0.6c0.6,0.2,1.2,0.2,1.8,0.2
		c0.9,0,1.6-0.1,2.1-0.4c0.5-0.3,0.8-0.7,0.8-1.2c0-0.4-0.1-0.7-0.3-1c-0.2-0.3-0.6-0.5-1-0.7c-0.4-0.2-1-0.3-1.6-0.5
		c-0.6-0.1-1.4-0.3-2.2-0.5c-2-0.5-3.5-1.3-4.4-2.3c-0.9-1-1.3-2.3-1.3-3.8c0-0.9,0.2-1.7,0.5-2.5s0.9-1.5,1.6-2.1
		c0.7-0.6,1.5-1.1,2.6-1.5s2.2-0.6,3.6-0.6c1.6,0,3.1,0.3,4.5,0.8c1.4,0.5,2.6,1.4,3.6,2.5l-3.5,3.2c-0.5-0.6-1.2-1.1-2.1-1.6
		c-0.8-0.4-1.8-0.6-2.9-0.6c-0.5,0-0.9,0-1.2,0.1c-0.3,0.1-0.6,0.2-0.8,0.4s-0.3,0.3-0.4,0.5c-0.1,0.2-0.1,0.4-0.1,0.6
		c0,0.5,0.2,0.9,0.7,1.3c0.5,0.4,1.4,0.7,2.7,1.1c1.5,0.4,2.7,0.8,3.7,1.2s1.7,0.9,2.3,1.4c0.6,0.5,0.9,1.1,1.2,1.7
		c0.2,0.6,0.3,1.3,0.3,2.1c0,1.1-0.2,2-0.7,2.9c-0.5,0.8-1.1,1.5-1.8,2.1c-0.8,0.6-1.7,1-2.7,1.2c-1,0.3-2.1,0.4-3.2,0.4
		c-1.1,0-2.1-0.1-3-0.3c-0.9-0.2-1.7-0.4-2.5-0.7s-1.4-0.6-1.9-1c-0.5-0.4-1-0.8-1.3-1.2L204,33.5z"/>
	<path class="copy-purpleFill" d="M219.2,25h4.9v8.1c0,0.9,0.1,1.6,0.4,2.1c0.3,0.5,0.8,0.7,1.5,0.7c0.8,0,1.4-0.3,1.8-0.9
		c0.4-0.6,0.6-1.6,0.6-2.9V25h4.9v14.8h-4.6v-2.2c-0.4,0.8-0.9,1.4-1.6,1.8s-1.6,0.7-2.8,0.7c-1.8,0-3.1-0.5-3.9-1.5
		c-0.8-1-1.2-2.5-1.2-4.4V25z"/>
	<path class="copy-purpleFill" d="M235.6,25h4.4l0.3,2.7c0.4-0.9,1.1-1.6,1.9-2.2c0.8-0.6,1.9-0.9,3.2-0.9v5c-0.3-0.1-0.9-0.1-1.5-0.1
		c-0.4,0-0.8,0-1.2,0.1c-0.4,0.1-0.8,0.2-1.1,0.5c-0.3,0.3-0.6,0.6-0.8,1.2s-0.3,1.2-0.3,2.1v6.5h-4.9V25z"/>
	<path class="copy-purpleFill" d="M250.7,33.5c0.2,1.1,0.5,1.9,1.1,2.4c0.6,0.5,1.2,0.7,1.9,0.7c0.6,0,1.2-0.1,1.6-0.4c0.5-0.3,0.8-0.7,1.2-1.2
		l3.6,2c-0.7,1.1-1.7,1.9-2.8,2.5c-1.2,0.5-2.4,0.8-3.8,0.8c-1.3,0-2.4-0.2-3.3-0.6c-1-0.4-1.8-0.9-2.4-1.6
		c-0.7-0.7-1.2-1.5-1.5-2.5c-0.3-1-0.5-2-0.5-3.1c0-1.1,0.2-2.2,0.5-3.1c0.3-1,0.8-1.8,1.5-2.5c0.6-0.7,1.4-1.2,2.4-1.6
		c0.9-0.4,2-0.6,3.2-0.6c1.1,0,2.2,0.2,3,0.6c0.9,0.4,1.6,0.9,2.2,1.6c0.6,0.7,1.1,1.6,1.4,2.6c0.3,1,0.5,2.1,0.5,3.3
		c0,0.3,0,0.5,0,0.6c0,0.1,0,0.2,0,0.2H250.7z M253.1,28.1c-1.4,0-2.2,0.9-2.4,2.7h4.8c0-0.7-0.2-1.4-0.6-1.9
		C254.5,28.4,253.9,28.1,253.1,28.1z"/>
	<path class="copy-purpleFill" d="M261.7,43.6c0.5-0.2,0.9-0.5,1.3-0.7c0.3-0.2,0.6-0.5,0.8-0.8c0.2-0.3,0.3-0.6,0.4-0.9s0.1-0.6,0.1-1v-0.5
		h-2.5v-5.4h5.4v5.3c0,0.9-0.1,1.7-0.3,2.3c-0.2,0.6-0.4,1.2-0.8,1.7c-0.4,0.5-0.8,0.9-1.3,1.2c-0.5,0.3-1.2,0.7-1.9,0.9L261.7,43.6
		z"/>
	<path class="copy-purpleFill" d="M275.7,41.2c0.3,0.1,0.7,0.2,1.1,0.3c0.4,0.1,0.7,0.1,1,0.1c0.4,0,0.8-0.1,1-0.3c0.2-0.2,0.4-0.5,0.6-1
		L274.1,25h5.2l2.6,9.9l2.5-9.9h5.2l-5.1,14.7c-0.3,0.8-0.6,1.6-0.9,2.2s-0.7,1.3-1.1,1.8c-0.5,0.5-1.1,0.9-1.8,1.2
		c-0.7,0.3-1.6,0.4-2.8,0.4c-0.2,0-0.4,0-0.7,0c-0.3,0-0.5,0-0.8,0s-0.6,0-0.8-0.1c-0.3,0-0.5-0.1-0.6-0.1L275.7,41.2z"/>
	<path class="copy-purpleFill" d="M296.8,40.2c-1.3,0-2.4-0.2-3.3-0.6c-0.9-0.4-1.7-0.9-2.3-1.6c-0.6-0.7-1.1-1.5-1.4-2.5
		c-0.3-0.9-0.5-2-0.5-3.1c0-1.1,0.2-2.2,0.5-3.1s0.8-1.8,1.4-2.5c0.6-0.7,1.4-1.3,2.3-1.7c0.9-0.4,2-0.6,3.2-0.6
		c1.2,0,2.3,0.2,3.2,0.6c0.9,0.4,1.7,0.9,2.3,1.6c0.6,0.7,1.1,1.5,1.4,2.5c0.3,1,0.5,2,0.5,3.1c0,1.1-0.2,2.2-0.5,3.1
		c-0.3,0.9-0.8,1.8-1.4,2.5s-1.4,1.2-2.3,1.6C299.1,40,298,40.2,296.8,40.2z M296.9,36.5c0.8,0,1.4-0.4,1.8-1.1
		c0.4-0.7,0.5-1.7,0.5-3s-0.2-2.3-0.6-3c-0.4-0.8-1-1.1-1.8-1.1s-1.4,0.4-1.8,1.1s-0.6,1.8-0.6,3s0.2,2.3,0.6,3
		C295.4,36.1,296,36.5,296.9,36.5z"/>
	<path class="copy-purpleFill" d="M305.8,25h4.9v8.1c0,0.9,0.1,1.6,0.4,2.1c0.3,0.5,0.8,0.7,1.5,0.7c0.8,0,1.4-0.3,1.8-0.9
		c0.4-0.6,0.6-1.6,0.6-2.9V25h4.9v14.8h-4.6v-2.2c-0.4,0.8-0.9,1.4-1.6,1.8s-1.6,0.7-2.8,0.7c-1.8,0-3.1-0.5-3.9-1.5
		c-0.8-1-1.2-2.5-1.2-4.4V25z"/>
	<path class="copy-purpleFill" d="M322.2,28.2c0.5-0.2,0.9-0.5,1.3-0.7s0.6-0.5,0.8-0.8c0.2-0.3,0.3-0.6,0.4-0.9c0.1-0.3,0.1-0.6,0.1-1v-0.5
		h-2.5v-5.1h5.4v5.1c0,0.9-0.1,1.7-0.3,2.3c-0.2,0.6-0.4,1.2-0.8,1.7s-0.8,0.9-1.3,1.2c-0.5,0.3-1.2,0.7-1.9,0.9L322.2,28.2z"/>
	<path class="copy-purpleFill" d="M329.2,25h4.4l0.3,2.7c0.4-0.9,1.1-1.6,1.9-2.2c0.8-0.6,1.9-0.9,3.2-0.9v5c-0.3-0.1-0.9-0.1-1.5-0.1
		c-0.4,0-0.8,0-1.2,0.1c-0.4,0.1-0.8,0.2-1.1,0.5c-0.3,0.3-0.6,0.6-0.8,1.2s-0.3,1.2-0.3,2.1v6.5h-4.9V25z"/>
	<path class="copy-purpleFill" d="M344.2,33.5c0.2,1.1,0.5,1.9,1.1,2.4c0.6,0.5,1.2,0.7,1.9,0.7c0.6,0,1.2-0.1,1.6-0.4c0.5-0.3,0.8-0.7,1.2-1.2
		l3.6,2c-0.7,1.1-1.7,1.9-2.8,2.5c-1.2,0.5-2.4,0.8-3.8,0.8c-1.3,0-2.4-0.2-3.3-0.6c-1-0.4-1.8-0.9-2.4-1.6
		c-0.7-0.7-1.2-1.5-1.5-2.5c-0.3-1-0.5-2-0.5-3.1c0-1.1,0.2-2.2,0.5-3.1c0.3-1,0.8-1.8,1.5-2.5c0.6-0.7,1.4-1.2,2.4-1.6
		c0.9-0.4,2-0.6,3.2-0.6c1.1,0,2.2,0.2,3,0.6c0.9,0.4,1.6,0.9,2.2,1.6c0.6,0.7,1.1,1.6,1.4,2.6c0.3,1,0.5,2.1,0.5,3.3
		c0,0.3,0,0.5,0,0.6c0,0.1,0,0.2,0,0.2H344.2z M346.6,28.1c-1.4,0-2.2,0.9-2.4,2.7h4.8c0-0.7-0.2-1.4-0.6-1.9
		C348,28.4,347.5,28.1,346.6,28.1z"/>
	<path class="copy-purpleFill" d="M362.8,34.8c0.2,0.2,0.5,0.4,0.8,0.7c0.3,0.2,0.7,0.4,1.1,0.6c0.4,0.2,0.8,0.3,1.2,0.4
		c0.4,0.1,0.9,0.2,1.3,0.2c0.3,0,0.7-0.1,1.1-0.2c0.4-0.1,0.5-0.4,0.5-0.7c0-0.3-0.2-0.6-0.6-0.8c-0.4-0.2-0.9-0.4-1.4-0.6
		c-0.6-0.2-1.2-0.3-1.9-0.5c-0.7-0.2-1.3-0.5-1.9-0.8c-0.6-0.3-1-0.8-1.4-1.4c-0.4-0.6-0.6-1.3-0.6-2.2c0-0.8,0.2-1.6,0.5-2.2
		c0.3-0.6,0.8-1.1,1.4-1.5c0.6-0.4,1.2-0.7,2-0.9s1.5-0.3,2.3-0.3c1.3,0,2.5,0.2,3.5,0.5c1,0.3,1.9,0.7,2.7,1.3l-2.2,3.2
		c-0.2-0.2-0.4-0.3-0.8-0.5c-0.3-0.2-0.7-0.3-1-0.5s-0.8-0.3-1.2-0.3s-0.8-0.1-1.2-0.1c-0.3,0-0.6,0.1-0.8,0.2
		c-0.2,0.1-0.3,0.3-0.3,0.6c0,0.3,0.2,0.6,0.6,0.8s0.9,0.4,1.4,0.6s1.2,0.4,1.9,0.6c0.7,0.2,1.3,0.5,1.9,0.9c0.6,0.4,1,0.8,1.4,1.4
		c0.4,0.6,0.6,1.3,0.6,2.1c0,0.9-0.2,1.6-0.6,2.2c-0.4,0.6-0.9,1.2-1.5,1.6c-0.6,0.4-1.3,0.7-2,0.9c-0.8,0.2-1.5,0.3-2.2,0.3
		c-2.8,0-5.1-0.7-6.8-2.1L362.8,34.8z"/>
	<path class="copy-purpleFill" d="M383.9,39.7c-0.1-0.2-0.2-0.5-0.3-0.8c-0.1-0.3-0.1-0.7-0.2-0.9c-0.3,0.6-0.7,1.1-1.4,1.6
		c-0.6,0.5-1.5,0.7-2.7,0.7c-0.8,0-1.5-0.1-2.1-0.4c-0.6-0.2-1.1-0.6-1.5-1c-0.4-0.4-0.7-0.9-0.9-1.5c-0.2-0.6-0.3-1.2-0.3-1.9
		c0-0.8,0.1-1.4,0.4-2s0.6-1,1.1-1.4s1.1-0.7,1.8-0.9c0.7-0.2,1.5-0.4,2.3-0.6l3-0.5v-0.3c0-0.6-0.2-1-0.5-1.2
		c-0.3-0.2-0.8-0.3-1.3-0.3c-0.9,0-1.7,0.2-2.3,0.5c-0.6,0.3-1.2,0.7-1.7,1.2l-2.3-3.2c0.3-0.3,0.7-0.5,1.1-0.8
		c0.5-0.3,1-0.5,1.6-0.7c0.6-0.2,1.2-0.4,1.9-0.5c0.7-0.1,1.5-0.2,2.3-0.2c2.2,0,3.7,0.5,4.7,1.4c0.9,0.9,1.4,2.3,1.4,4.2v5.2
		c0,0.6,0,1.1,0,1.5c0,0.4,0,0.8,0.1,1.1c0,0.3,0.1,0.6,0.2,0.9c0.1,0.3,0.2,0.5,0.3,0.8H383.9z M383.2,33.2l-2,0.4
		c-0.7,0.1-1.2,0.3-1.5,0.6c-0.3,0.3-0.5,0.6-0.5,1.1c0,0.4,0.1,0.8,0.4,1.1c0.3,0.3,0.6,0.4,1.1,0.4c0.7,0,1.3-0.3,1.7-0.8
		s0.7-1.3,0.7-2.3V33.2z"/>
	<path class="copy-purpleFill" d="M388.5,25h5.5l2.4,10.2l2.3-10.2h5.2l-4.9,14.8h-5.7L388.5,25z"/>
	<path class="copy-purpleFill" d="M404.8,19.1h4.9V23h-4.9V19.1z M404.8,25h4.9v14.8h-4.9V25z"/>
	<path class="copy-purpleFill" d="M412,25h4.4l0.4,2.1c0.4-0.7,1.1-1.3,1.9-1.8c0.8-0.5,1.7-0.7,2.7-0.7c3.2,0,4.9,2.1,4.9,6.2v9h-4.9V32
		c0-1.2-0.2-2-0.5-2.5c-0.3-0.5-0.9-0.7-1.6-0.7c-0.3,0-0.7,0.1-1,0.2c-0.3,0.1-0.5,0.3-0.8,0.7s-0.4,0.7-0.5,1.2
		c-0.1,0.5-0.2,1.1-0.2,1.9v7H412V25z"/>
	<path class="copy-purpleFill" d="M430.2,39.7c0.6,0.6,1.3,1,2.1,1.3c0.8,0.3,1.7,0.5,2.6,0.5c0.9,0,1.6-0.2,1.9-0.6c0.3-0.4,0.5-1,0.5-1.8v-1.4
		c-0.3,0.5-0.8,0.9-1.4,1.3c-0.6,0.3-1.4,0.5-2.4,0.5c-0.7,0-1.4-0.1-2.1-0.4c-0.7-0.2-1.3-0.6-1.8-1.2c-0.5-0.6-1-1.3-1.3-2.2
		c-0.3-0.9-0.5-2.1-0.5-3.4c0-1.2,0.1-2.3,0.4-3.3s0.7-1.7,1.2-2.4c0.5-0.7,1.1-1.2,1.9-1.5c0.7-0.3,1.5-0.5,2.4-0.5
		c0.9,0,1.7,0.2,2.4,0.6c0.7,0.4,1.2,1,1.7,1.8l0.6-2h3.9v14c0,0.9-0.1,1.7-0.4,2.5c-0.3,0.8-0.7,1.4-1.3,2c-0.6,0.6-1.3,1-2.2,1.3
		c-0.9,0.3-2,0.5-3.3,0.5c-0.9,0-1.7-0.1-2.4-0.2c-0.7-0.1-1.4-0.3-2-0.5c-0.6-0.2-1.2-0.4-1.7-0.7c-0.5-0.3-0.9-0.5-1.3-0.7
		L430.2,39.7z M437.3,32.2c0-0.5,0-0.9-0.1-1.3c-0.1-0.4-0.2-0.8-0.3-1.2c-0.2-0.3-0.4-0.6-0.7-0.8c-0.3-0.2-0.6-0.3-1.1-0.3
		c-0.3,0-0.6,0.1-0.9,0.2s-0.5,0.3-0.7,0.6c-0.2,0.3-0.4,0.7-0.5,1.1c-0.1,0.5-0.2,1-0.2,1.7c0,1.2,0.2,2.1,0.6,2.7s1,0.9,1.7,0.9
		c0.7,0,1.3-0.3,1.6-0.9s0.5-1.4,0.5-2.5V32.2z"/>
	<path class="copy-purpleFill" d="M444.2,34.4h5.4v5.4h-5.4V34.4z"/>
</g>
<g>
	<path class="copy-purpleFill" d="M201.6,50.4h9.5c0.9,0,1.7,0.1,2.5,0.3c0.8,0.2,1.6,0.5,2.2,1c0.6,0.5,1.2,1,1.6,1.7c0.4,0.7,0.6,1.6,0.6,2.5
		c0,0.5-0.1,1-0.3,1.5c-0.2,0.5-0.4,0.9-0.8,1.4c-0.3,0.4-0.7,0.8-1.2,1.1c-0.5,0.3-1,0.5-1.5,0.6c1.4,0.3,2.5,0.8,3.3,1.6
		c0.8,0.8,1.2,1.9,1.2,3.3c0,1.1-0.2,2.1-0.6,2.8c-0.4,0.7-0.9,1.3-1.6,1.7s-1.4,0.7-2.3,0.8c-0.9,0.1-1.7,0.2-2.7,0.2h-10V50.4z
		 M209.6,58.6c1.1,0,1.9-0.2,2.3-0.5c0.4-0.4,0.6-0.9,0.6-1.7c0-0.6-0.2-1.1-0.6-1.5s-1-0.5-1.9-0.5h-3.1v4.2H209.6z M210.7,66.9
		c0.5,0,0.9-0.1,1.2-0.2c0.3-0.1,0.6-0.3,0.8-0.5c0.2-0.2,0.3-0.4,0.4-0.7s0.1-0.6,0.1-0.8c0-0.7-0.2-1.2-0.7-1.6
		c-0.5-0.4-1.1-0.6-2.1-0.6h-3.5v4.4H210.7z"/>
	<path class="copy-purpleFill" d="M220.2,56.1h4.9v8.1c0,0.9,0.1,1.6,0.4,2.1s0.8,0.7,1.5,0.7c0.8,0,1.4-0.3,1.8-0.9c0.4-0.6,0.6-1.6,0.6-2.9
		v-7.1h4.9v14.8h-4.6v-2.2c-0.4,0.8-0.9,1.4-1.6,1.8c-0.7,0.5-1.6,0.7-2.8,0.7c-1.8,0-3.1-0.5-3.9-1.5c-0.8-1-1.2-2.5-1.2-4.4V56.1z
		"/>
	<path class="copy-purpleFill" d="M237.8,59.2h-2.3v-3.1h0.4c0.8,0,1.3-0.1,1.8-0.4s0.8-0.6,1-1c0.2-0.4,0.4-0.9,0.5-1.4c0.1-0.5,0.2-1,0.4-1.6
		h3.1v4.4h3v3.1h-3v6.8c0,0.4,0.1,0.8,0.3,1.1c0.2,0.3,0.6,0.4,1.1,0.4c0.2,0,0.3,0,0.6,0c0.2,0,0.5-0.1,0.8-0.2l0.3,3.4
		c-0.5,0.2-1.1,0.4-1.6,0.5c-0.5,0.1-1.1,0.1-1.7,0.1c-0.9,0-1.7-0.1-2.3-0.3c-0.6-0.2-1.1-0.6-1.4-1c-0.3-0.4-0.6-0.9-0.7-1.5
		s-0.2-1.2-0.2-1.9V59.2z"/>
	<path class="copy-purpleFill" d="M252.8,56.1h4.4l0.4,2.1c0.4-0.7,1.1-1.3,1.9-1.8s1.7-0.7,2.7-0.7c3.2,0,4.9,2.1,4.9,6.2v9h-4.9v-7.8
		c0-1.2-0.2-2-0.5-2.5c-0.3-0.5-0.9-0.7-1.6-0.7c-0.3,0-0.7,0.1-1,0.2s-0.5,0.3-0.8,0.7c-0.2,0.3-0.4,0.7-0.5,1.2
		c-0.1,0.5-0.2,1.1-0.2,1.9v7h-4.9V56.1z"/>
	<path class="copy-purpleFill" d="M276,71.3c-1.3,0-2.4-0.2-3.3-0.6c-0.9-0.4-1.7-0.9-2.3-1.6c-0.6-0.7-1.1-1.5-1.4-2.5c-0.3-0.9-0.5-2-0.5-3.1
		s0.2-2.2,0.5-3.1s0.8-1.8,1.4-2.5s1.4-1.3,2.3-1.7c0.9-0.4,2-0.6,3.2-0.6c1.2,0,2.3,0.2,3.2,0.6c0.9,0.4,1.7,0.9,2.3,1.6
		s1.1,1.5,1.4,2.5c0.3,1,0.5,2,0.5,3.1s-0.2,2.2-0.5,3.1c-0.3,0.9-0.8,1.8-1.4,2.5c-0.6,0.7-1.4,1.2-2.3,1.6
		C278.3,71.1,277.2,71.3,276,71.3z M276.1,67.6c0.8,0,1.4-0.4,1.8-1.1c0.4-0.7,0.5-1.7,0.5-3s-0.2-2.3-0.6-3c-0.4-0.8-1-1.1-1.8-1.1
		s-1.4,0.4-1.8,1.1c-0.4,0.8-0.6,1.8-0.6,3s0.2,2.3,0.6,3C274.6,67.2,275.2,67.6,276.1,67.6z"/>
	<path class="copy-purpleFill" d="M285.9,59.2h-2.3v-3.1h0.4c0.8,0,1.3-0.1,1.8-0.4s0.8-0.6,1-1c0.2-0.4,0.4-0.9,0.5-1.4c0.1-0.5,0.2-1,0.4-1.6
		h3.1v4.4h3v3.1h-3v6.8c0,0.4,0.1,0.8,0.3,1.1c0.2,0.3,0.6,0.4,1.1,0.4c0.2,0,0.3,0,0.6,0c0.2,0,0.5-0.1,0.8-0.2l0.3,3.4
		c-0.5,0.2-1.1,0.4-1.6,0.5c-0.5,0.1-1.1,0.1-1.7,0.1c-0.9,0-1.7-0.1-2.3-0.3c-0.6-0.2-1.1-0.6-1.4-1c-0.3-0.4-0.6-0.9-0.7-1.5
		s-0.2-1.2-0.2-1.9V59.2z"/>
	<path class="copy-purpleFill" d="M309.8,69.5c-0.3,0.6-0.8,1-1.4,1.3c-0.6,0.3-1.3,0.5-2.2,0.5c-0.8,0-1.5-0.1-2.2-0.4s-1.3-0.7-1.9-1.3
		c-0.6-0.6-1-1.4-1.3-2.4c-0.3-1-0.5-2.2-0.5-3.6c0-2.6,0.5-4.5,1.6-5.8c1.1-1.3,2.5-2,4.3-2c0.9,0,1.6,0.2,2.3,0.5
		c0.7,0.3,1.3,1,1.7,1.9l0.7-2h3.8v19.8h-4.9V69.5z M309.8,63.4c0-1.2-0.2-2.1-0.6-2.8c-0.4-0.7-0.9-1-1.7-1c-0.8,0-1.4,0.3-1.7,1
		c-0.3,0.7-0.5,1.6-0.5,2.7c0,1.4,0.2,2.3,0.6,3c0.4,0.6,1,0.9,1.7,0.9c0.7,0,1.2-0.3,1.6-0.9c0.4-0.6,0.6-1.5,0.6-2.7V63.4z"/>
	<path class="copy-purpleFill" d="M316.9,56.1h4.9v8.1c0,0.9,0.1,1.6,0.4,2.1s0.8,0.7,1.5,0.7c0.8,0,1.4-0.3,1.8-0.9c0.4-0.6,0.6-1.6,0.6-2.9
		v-7.1h4.9v14.8h-4.6v-2.2c-0.4,0.8-0.9,1.4-1.6,1.8c-0.7,0.5-1.6,0.7-2.8,0.7c-1.8,0-3.1-0.5-3.9-1.5c-0.8-1-1.2-2.5-1.2-4.4V56.1z
		"/>
	<path class="copy-purpleFill" d="M333.3,50.2h4.9v3.9h-4.9V50.2z M333.3,56.1h4.9v14.8h-4.9V56.1z"/>
	<path class="copy-purpleFill" d="M341.6,59.2h-2.3v-3.1h0.4c0.8,0,1.3-0.1,1.8-0.4s0.8-0.6,1-1c0.2-0.4,0.4-0.9,0.5-1.4c0.1-0.5,0.2-1,0.4-1.6
		h3.1v4.4h3v3.1h-3v6.8c0,0.4,0.1,0.8,0.3,1.1c0.2,0.3,0.6,0.4,1.1,0.4c0.2,0,0.3,0,0.6,0c0.2,0,0.5-0.1,0.8-0.2l0.3,3.4
		c-0.5,0.2-1.1,0.4-1.6,0.5c-0.5,0.1-1.1,0.1-1.7,0.1c-0.9,0-1.7-0.1-2.3-0.3c-0.6-0.2-1.1-0.6-1.4-1c-0.3-0.4-0.6-0.9-0.7-1.5
		s-0.2-1.2-0.2-1.9V59.2z"/>
	<path class="copy-purpleFill" d="M354.8,64.6c0.2,1.1,0.5,1.9,1.1,2.4c0.6,0.5,1.2,0.7,1.9,0.7c0.6,0,1.2-0.1,1.6-0.4c0.5-0.3,0.8-0.7,1.2-1.2
		l3.6,2c-0.7,1.1-1.7,1.9-2.8,2.5c-1.2,0.5-2.4,0.8-3.8,0.8c-1.3,0-2.4-0.2-3.3-0.6c-1-0.4-1.8-0.9-2.4-1.6
		c-0.7-0.7-1.2-1.5-1.5-2.5c-0.3-1-0.5-2-0.5-3.1c0-1.1,0.2-2.2,0.5-3.1s0.8-1.8,1.5-2.5c0.6-0.7,1.4-1.2,2.4-1.6
		c0.9-0.4,2-0.6,3.2-0.6c1.1,0,2.2,0.2,3,0.6c0.9,0.4,1.6,0.9,2.2,1.6c0.6,0.7,1.1,1.6,1.4,2.6c0.3,1,0.5,2.1,0.5,3.3
		c0,0.3,0,0.5,0,0.6s0,0.2,0,0.2H354.8z M357.2,59.2c-1.4,0-2.2,0.9-2.4,2.7h4.8c0-0.7-0.2-1.4-0.6-1.9
		C358.6,59.5,358,59.2,357.2,59.2z"/>
	<path class="copy-purpleFill" d="M376.4,64.6c0.2,1.1,0.5,1.9,1.1,2.4c0.6,0.5,1.2,0.7,1.9,0.7c0.6,0,1.2-0.1,1.6-0.4c0.5-0.3,0.8-0.7,1.2-1.2
		l3.6,2c-0.7,1.1-1.7,1.9-2.8,2.5c-1.2,0.5-2.4,0.8-3.8,0.8c-1.3,0-2.4-0.2-3.3-0.6c-1-0.4-1.8-0.9-2.4-1.6
		c-0.7-0.7-1.2-1.5-1.5-2.5c-0.3-1-0.5-2-0.5-3.1c0-1.1,0.2-2.2,0.5-3.1s0.8-1.8,1.5-2.5s1.4-1.2,2.4-1.6c0.9-0.4,2-0.6,3.2-0.6
		c1.1,0,2.2,0.2,3,0.6c0.9,0.4,1.6,0.9,2.2,1.6c0.6,0.7,1.1,1.6,1.4,2.6c0.3,1,0.5,2.1,0.5,3.3c0,0.3,0,0.5,0,0.6s0,0.2,0,0.2H376.4
		z M378.8,59.2c-1.4,0-2.2,0.9-2.4,2.7h4.8c0-0.7-0.2-1.4-0.6-1.9C380.2,59.5,379.6,59.2,378.8,59.2z"/>
	<path class="copy-purpleFill" d="M387.7,56.1h4.4l0.4,2.1c0.4-0.7,1.1-1.3,1.9-1.8c0.8-0.5,1.7-0.7,2.7-0.7c3.2,0,4.9,2.1,4.9,6.2v9h-4.9v-7.8
		c0-1.2-0.2-2-0.5-2.5c-0.3-0.5-0.9-0.7-1.6-0.7c-0.3,0-0.7,0.1-1,0.2s-0.5,0.3-0.8,0.7s-0.4,0.7-0.5,1.2s-0.2,1.1-0.2,1.9v7h-4.9
		V56.1z"/>
	<path class="copy-purpleFill" d="M410.9,71.3c-1.3,0-2.4-0.2-3.3-0.6c-0.9-0.4-1.7-0.9-2.3-1.6c-0.6-0.7-1.1-1.5-1.4-2.5
		c-0.3-0.9-0.5-2-0.5-3.1s0.2-2.2,0.5-3.1s0.8-1.8,1.4-2.5s1.4-1.3,2.3-1.7c0.9-0.4,2-0.6,3.2-0.6s2.3,0.2,3.2,0.6
		c0.9,0.4,1.7,0.9,2.3,1.6c0.6,0.7,1.1,1.5,1.4,2.5s0.5,2,0.5,3.1s-0.2,2.2-0.5,3.1c-0.3,0.9-0.8,1.8-1.4,2.5
		c-0.6,0.7-1.4,1.2-2.3,1.6C413.2,71.1,412.1,71.3,410.9,71.3z M411,67.6c0.8,0,1.4-0.4,1.8-1.1c0.4-0.7,0.5-1.7,0.5-3
		s-0.2-2.3-0.6-3c-0.4-0.8-1-1.1-1.8-1.1c-0.8,0-1.4,0.4-1.8,1.1c-0.4,0.8-0.6,1.8-0.6,3s0.2,2.3,0.6,3
		C409.5,67.2,410.1,67.6,411,67.6z"/>
	<path class="copy-purpleFill" d="M419.9,56.1h4.9v8.1c0,0.9,0.1,1.6,0.4,2.1s0.8,0.7,1.5,0.7c0.8,0,1.4-0.3,1.8-0.9c0.4-0.6,0.6-1.6,0.6-2.9
		v-7.1h4.9v14.8h-4.6v-2.2c-0.4,0.8-0.9,1.4-1.6,1.8c-0.7,0.5-1.6,0.7-2.8,0.7c-1.8,0-3.1-0.5-3.9-1.5c-0.8-1-1.2-2.5-1.2-4.4V56.1z
		"/>
	<path class="copy-purpleFill" d="M438.1,70.8c0.6,0.6,1.3,1,2.1,1.3c0.8,0.3,1.7,0.5,2.6,0.5c0.9,0,1.6-0.2,1.9-0.6c0.3-0.4,0.5-1,0.5-1.8v-1.4
		c-0.3,0.5-0.8,0.9-1.4,1.3c-0.6,0.3-1.4,0.5-2.4,0.5c-0.7,0-1.4-0.1-2.1-0.4c-0.7-0.2-1.3-0.6-1.8-1.2c-0.5-0.6-1-1.3-1.3-2.2
		c-0.3-0.9-0.5-2.1-0.5-3.4c0-1.2,0.1-2.3,0.4-3.3c0.3-0.9,0.7-1.7,1.2-2.4c0.5-0.7,1.1-1.2,1.9-1.5c0.7-0.3,1.5-0.5,2.4-0.5
		c0.9,0,1.7,0.2,2.4,0.6s1.2,1,1.7,1.8l0.6-2h3.9v14c0,0.9-0.1,1.7-0.4,2.5c-0.3,0.8-0.7,1.4-1.3,2s-1.3,1-2.2,1.3s-2,0.5-3.3,0.5
		c-0.9,0-1.7-0.1-2.4-0.2c-0.7-0.1-1.4-0.3-2-0.5c-0.6-0.2-1.2-0.4-1.7-0.7c-0.5-0.3-0.9-0.5-1.3-0.7L438.1,70.8z M445.2,63.4
		c0-0.5,0-0.9-0.1-1.3c-0.1-0.4-0.2-0.8-0.3-1.2s-0.4-0.6-0.7-0.8c-0.3-0.2-0.6-0.3-1.1-0.3c-0.3,0-0.6,0.1-0.9,0.2
		s-0.5,0.3-0.7,0.6c-0.2,0.3-0.4,0.7-0.5,1.1c-0.1,0.5-0.2,1-0.2,1.7c0,1.2,0.2,2.1,0.6,2.7s1,0.9,1.7,0.9c0.7,0,1.3-0.3,1.6-0.9
		s0.5-1.4,0.5-2.5V63.4z"/>
	<path class="copy-purpleFill" d="M452.4,50.4h4.9V58c0.4-0.7,0.9-1.2,1.7-1.7c0.7-0.5,1.7-0.7,2.8-0.7c1.7,0,2.9,0.5,3.7,1.6
		c0.8,1.1,1.2,2.6,1.2,4.7v8.9h-4.9v-8c0-0.9-0.2-1.6-0.5-2.2c-0.3-0.5-0.9-0.8-1.6-0.8c-0.7,0-1.3,0.3-1.7,0.9
		c-0.4,0.6-0.7,1.5-0.7,2.9v7.2h-4.9V50.4z"/>
	<path class="copy-purpleFill" d="M468.8,65.5h5.4v5.4h-5.4V65.5z"/>
</g>
</svg>
