<?xml version="1.0" encoding="utf-8"?>
<!-- Generator: Adobe Illustrator 22.1.0, SVG Export Plug-In . SVG Version: 6.00 Build 0)  -->
<svg version="1.1" id="Layer_1" xmlns="https://www.w3.org/2000/svg" xmlns:xlink="https://www.w3.org/1999/xlink" x="0px" y="0px"
	 viewBox="0 0 728 90" style="enable-background:new 0 0 728 90;" xml:space="preserve">
<style type="text/css">
	.copy-purpleFill{fill:#662868;}
</style>
<g>
	<path class="copy-purpleFill" d="M203.3,19h5.2v12.9c0,1.3,0.3,2.2,0.9,2.7s1.4,0.8,2.4,0.8c1,0,1.8-0.3,2.4-0.8c0.6-0.5,0.8-1.4,0.8-2.6V19
		h5.2v13.3c0,0.5,0,1-0.1,1.5s-0.2,1.1-0.4,1.7c-0.2,0.6-0.5,1.1-0.8,1.7c-0.4,0.5-0.9,1-1.5,1.4c-0.6,0.4-1.4,0.7-2.3,1
		c-0.9,0.3-2,0.4-3.3,0.4c-1.3,0-2.4-0.1-3.3-0.4c-0.9-0.3-1.7-0.6-2.3-1c-0.6-0.4-1.1-0.9-1.5-1.4c-0.4-0.5-0.7-1.1-0.9-1.7
		c-0.2-0.6-0.3-1.1-0.4-1.7c-0.1-0.6-0.1-1.1-0.1-1.5V19z"/>
	<path class="copy-purpleFill" d="M222.8,24.7h4.9v1.9c0.3-0.7,0.8-1.2,1.5-1.7c0.6-0.5,1.5-0.7,2.5-0.7c1.6,0,3,0.6,4,1.9
		c1,1.3,1.5,3.2,1.5,5.8c0,1.5-0.2,2.8-0.6,3.8c-0.4,1-0.8,1.8-1.4,2.4c-0.6,0.6-1.2,1-1.9,1.3c-0.7,0.2-1.4,0.4-2,0.4
		c-0.7,0-1.5-0.1-2.2-0.4c-0.7-0.3-1.2-0.7-1.6-1.2v6.4h-4.9V24.7z M227.7,32.2c0,0.5,0,1,0.1,1.4c0.1,0.5,0.2,0.8,0.4,1.2
		c0.2,0.3,0.4,0.6,0.7,0.8c0.3,0.2,0.6,0.3,1,0.3c0.7,0,1.2-0.3,1.6-0.9c0.4-0.6,0.6-1.6,0.6-2.9s-0.2-2.2-0.6-2.9
		c-0.4-0.6-1-1-1.7-1c-0.4,0-0.7,0.1-1,0.3c-0.3,0.2-0.5,0.5-0.7,0.8c-0.2,0.3-0.3,0.7-0.4,1.1c-0.1,0.4-0.1,0.9-0.1,1.3V32.2z"/>
	<path class="copy-purpleFill" d="M240.6,39.4c0.6,0.6,1.3,1,2.1,1.3c0.8,0.3,1.7,0.5,2.6,0.5c0.9,0,1.6-0.2,1.9-0.6c0.3-0.4,0.5-1,0.5-1.8v-1.4
		c-0.3,0.5-0.8,0.9-1.5,1.3c-0.6,0.3-1.4,0.5-2.4,0.5c-0.7,0-1.4-0.1-2.1-0.4c-0.7-0.2-1.3-0.6-1.8-1.2c-0.5-0.6-1-1.3-1.3-2.2
		c-0.3-0.9-0.5-2.1-0.5-3.4c0-1.2,0.1-2.3,0.4-3.3c0.3-0.9,0.7-1.7,1.2-2.4c0.5-0.7,1.1-1.2,1.9-1.5s1.5-0.5,2.4-0.5
		c0.9,0,1.7,0.2,2.4,0.6c0.7,0.4,1.2,1,1.7,1.8l0.6-2h3.9v14c0,0.9-0.1,1.7-0.4,2.5c-0.3,0.8-0.7,1.4-1.3,2c-0.6,0.6-1.3,1-2.2,1.3
		c-0.9,0.3-2,0.5-3.3,0.5c-0.9,0-1.7-0.1-2.4-0.2c-0.7-0.1-1.4-0.3-2-0.5c-0.6-0.2-1.2-0.4-1.7-0.7c-0.5-0.3-0.9-0.5-1.3-0.7
		L240.6,39.4z M247.7,32c0-0.5,0-0.9-0.1-1.3c-0.1-0.4-0.2-0.8-0.3-1.2c-0.2-0.3-0.4-0.6-0.7-0.8c-0.3-0.2-0.6-0.3-1.1-0.3
		c-0.3,0-0.6,0.1-0.9,0.2c-0.3,0.1-0.5,0.3-0.7,0.6c-0.2,0.3-0.4,0.7-0.5,1.1c-0.1,0.5-0.2,1-0.2,1.7c0,1.2,0.2,2.1,0.6,2.7
		c0.4,0.6,1,0.9,1.7,0.9c0.7,0,1.3-0.3,1.6-0.9s0.5-1.4,0.5-2.5V32z"/>
	<path class="copy-purpleFill" d="M254.9,24.7h4.4l0.3,2.7c0.4-0.9,1.1-1.6,1.9-2.2c0.8-0.6,1.9-0.9,3.2-0.9v5c-0.3-0.1-0.9-0.1-1.5-0.1
		c-0.4,0-0.8,0-1.2,0.1c-0.4,0.1-0.8,0.2-1.1,0.5c-0.3,0.3-0.6,0.6-0.8,1.2s-0.3,1.2-0.3,2.1v6.5h-4.9V24.7z"/>
	<path class="copy-purpleFill" d="M274.3,39.4c-0.1-0.2-0.2-0.5-0.3-0.8c-0.1-0.3-0.1-0.7-0.2-0.9c-0.3,0.6-0.7,1.1-1.4,1.6
		c-0.6,0.5-1.5,0.7-2.7,0.7c-0.8,0-1.5-0.1-2.1-0.4c-0.6-0.2-1.1-0.6-1.5-1c-0.4-0.4-0.7-0.9-0.9-1.5c-0.2-0.6-0.3-1.2-0.3-1.9
		c0-0.8,0.1-1.4,0.4-2c0.3-0.6,0.6-1,1.1-1.4c0.5-0.4,1.1-0.7,1.8-0.9s1.5-0.4,2.3-0.6l3-0.5v-0.3c0-0.6-0.2-1-0.5-1.2
		c-0.3-0.2-0.8-0.3-1.3-0.3c-0.9,0-1.7,0.2-2.3,0.5c-0.6,0.3-1.2,0.7-1.7,1.2l-2.3-3.2c0.3-0.3,0.7-0.5,1.1-0.8
		c0.5-0.3,1-0.5,1.6-0.7c0.6-0.2,1.2-0.4,1.9-0.5c0.7-0.1,1.5-0.2,2.3-0.2c2.2,0,3.7,0.5,4.7,1.4c0.9,0.9,1.4,2.3,1.4,4.2v5.2
		c0,0.6,0,1.1,0,1.5c0,0.4,0,0.8,0.1,1.1c0,0.3,0.1,0.6,0.2,0.9c0.1,0.3,0.2,0.5,0.3,0.8H274.3z M273.5,32.9l-2,0.4
		c-0.7,0.1-1.2,0.3-1.5,0.6c-0.3,0.3-0.5,0.6-0.5,1.1c0,0.4,0.1,0.8,0.4,1.1c0.3,0.3,0.6,0.4,1.1,0.4c0.7,0,1.3-0.3,1.7-0.8
		c0.5-0.5,0.7-1.3,0.7-2.3V32.9z"/>
	<path class="copy-purpleFill" d="M289.6,37.4c-0.4,0.8-0.9,1.3-1.5,1.7c-0.6,0.4-1.4,0.6-2.4,0.6c-0.9,0-1.7-0.2-2.4-0.5
		c-0.7-0.3-1.3-0.8-1.9-1.5s-0.9-1.5-1.2-2.5c-0.3-1-0.4-2.1-0.4-3.3c0-1.4,0.2-2.7,0.5-3.6c0.3-1,0.8-1.7,1.4-2.3
		c0.6-0.6,1.2-1,1.9-1.3c0.7-0.3,1.4-0.4,2.1-0.4c0.9,0,1.7,0.2,2.3,0.5c0.6,0.4,1.1,0.8,1.4,1.3V19h4.9v20.5h-4.6V37.4z
		 M289.3,31.8c0-0.5,0-0.9-0.1-1.3c-0.1-0.4-0.2-0.8-0.4-1.1c-0.2-0.3-0.4-0.6-0.7-0.8c-0.3-0.2-0.6-0.3-1.1-0.3
		c-0.7,0-1.3,0.3-1.7,0.9c-0.4,0.6-0.6,1.5-0.6,2.7c0,1.3,0.2,2.3,0.7,3c0.4,0.7,1,1,1.7,1c0.4,0,0.7-0.1,1-0.3
		c0.3-0.2,0.5-0.5,0.7-0.8s0.3-0.8,0.4-1.2c0.1-0.5,0.1-1,0.1-1.5V31.8z"/>
	<path class="copy-purpleFill" d="M300.9,33.2c0.2,1.1,0.5,1.9,1.1,2.4c0.6,0.5,1.2,0.7,1.9,0.7c0.6,0,1.2-0.1,1.6-0.4c0.5-0.3,0.8-0.7,1.2-1.2
		l3.6,2c-0.7,1.1-1.7,1.9-2.8,2.5c-1.2,0.5-2.4,0.8-3.8,0.8c-1.3,0-2.4-0.2-3.3-0.6c-1-0.4-1.8-0.9-2.4-1.6
		c-0.7-0.7-1.2-1.5-1.5-2.5c-0.3-1-0.5-2-0.5-3.1c0-1.1,0.2-2.2,0.5-3.1c0.3-1,0.8-1.8,1.5-2.5c0.6-0.7,1.4-1.2,2.4-1.6
		c0.9-0.4,2-0.6,3.2-0.6c1.1,0,2.2,0.2,3,0.6c0.9,0.4,1.6,0.9,2.2,1.6c0.6,0.7,1.1,1.6,1.4,2.6c0.3,1,0.5,2.1,0.5,3.3
		c0,0.3,0,0.5,0,0.6c0,0.1,0,0.2,0,0.2H300.9z M303.3,27.8c-1.4,0-2.2,0.9-2.4,2.7h4.8c0-0.7-0.2-1.4-0.6-1.9
		C304.7,28.1,304.1,27.8,303.3,27.8z"/>
	<path class="copy-purpleFill" d="M318.4,40.9c0.3,0.1,0.7,0.2,1.1,0.3c0.4,0.1,0.7,0.1,1,0.1c0.4,0,0.8-0.1,1-0.3c0.2-0.2,0.4-0.5,0.6-1
		l-5.3-15.3h5.2l2.6,9.9l2.5-9.9h5.2l-5.1,14.7c-0.3,0.8-0.6,1.6-0.9,2.2s-0.7,1.3-1.1,1.8c-0.5,0.5-1.1,0.9-1.8,1.2
		c-0.7,0.3-1.6,0.4-2.8,0.4c-0.2,0-0.4,0-0.7,0c-0.3,0-0.5,0-0.8,0c-0.3,0-0.6,0-0.8-0.1c-0.3,0-0.5-0.1-0.6-0.1L318.4,40.9z"/>
	<path class="copy-purpleFill" d="M339.6,39.9c-1.3,0-2.4-0.2-3.3-0.6c-0.9-0.4-1.7-0.9-2.3-1.6c-0.6-0.7-1.1-1.5-1.4-2.5
		c-0.3-0.9-0.5-2-0.5-3.1c0-1.1,0.2-2.2,0.5-3.1s0.8-1.8,1.4-2.5c0.6-0.7,1.4-1.3,2.3-1.7c0.9-0.4,2-0.6,3.2-0.6
		c1.2,0,2.3,0.2,3.2,0.6c0.9,0.4,1.7,0.9,2.3,1.6c0.6,0.7,1.1,1.5,1.4,2.5c0.3,1,0.5,2,0.5,3.1c0,1.1-0.2,2.2-0.5,3.1
		c-0.3,0.9-0.8,1.8-1.4,2.5s-1.4,1.2-2.3,1.6C341.9,39.7,340.8,39.9,339.6,39.9z M339.7,36.2c0.8,0,1.4-0.4,1.8-1.1
		c0.4-0.7,0.5-1.7,0.5-3s-0.2-2.3-0.6-3c-0.4-0.8-1-1.1-1.8-1.1s-1.4,0.4-1.8,1.1s-0.6,1.8-0.6,3s0.2,2.3,0.6,3
		C338.1,35.8,338.8,36.2,339.7,36.2z"/>
	<path class="copy-purpleFill" d="M348.5,24.7h4.9v8.1c0,0.9,0.1,1.6,0.4,2.1c0.3,0.5,0.8,0.7,1.5,0.7c0.8,0,1.4-0.3,1.8-0.9
		c0.4-0.6,0.6-1.6,0.6-2.9v-7.1h4.9v14.8h-4.6v-2.2c-0.4,0.8-0.9,1.4-1.6,1.8s-1.6,0.7-2.8,0.7c-1.8,0-3.1-0.5-3.9-1.5
		c-0.8-1-1.2-2.5-1.2-4.4V24.7z"/>
	<path class="copy-purpleFill" d="M364.9,24.7h4.4l0.3,2.7c0.4-0.9,1.1-1.6,1.9-2.2c0.8-0.6,1.9-0.9,3.2-0.9v5c-0.3-0.1-0.9-0.1-1.5-0.1
		c-0.4,0-0.8,0-1.2,0.1s-0.8,0.2-1.1,0.5c-0.3,0.3-0.6,0.6-0.8,1.2c-0.2,0.5-0.3,1.2-0.3,2.1v6.5h-4.9V24.7z"/>
	<path class="copy-purpleFill" d="M383.2,34.5c0.2,0.2,0.5,0.4,0.8,0.7c0.3,0.2,0.7,0.4,1.1,0.6c0.4,0.2,0.8,0.3,1.2,0.4
		c0.4,0.1,0.9,0.2,1.3,0.2c0.3,0,0.7-0.1,1.1-0.2c0.4-0.1,0.5-0.4,0.5-0.7c0-0.3-0.2-0.6-0.6-0.8c-0.4-0.2-0.9-0.4-1.4-0.6
		c-0.6-0.2-1.2-0.3-1.9-0.5c-0.7-0.2-1.3-0.5-1.9-0.8c-0.6-0.3-1-0.8-1.4-1.4c-0.4-0.6-0.6-1.3-0.6-2.2c0-0.8,0.2-1.6,0.5-2.2
		c0.3-0.6,0.8-1.1,1.4-1.5c0.6-0.4,1.2-0.7,2-0.9s1.5-0.3,2.3-0.3c1.3,0,2.5,0.2,3.5,0.5c1,0.3,1.9,0.7,2.7,1.3l-2.2,3.2
		c-0.2-0.2-0.4-0.3-0.8-0.5c-0.3-0.2-0.7-0.3-1-0.5s-0.8-0.3-1.2-0.3s-0.8-0.1-1.2-0.1c-0.3,0-0.6,0.1-0.8,0.2
		c-0.2,0.1-0.3,0.3-0.3,0.6c0,0.3,0.2,0.6,0.6,0.8c0.4,0.2,0.9,0.4,1.4,0.6c0.6,0.2,1.2,0.4,1.9,0.6c0.7,0.2,1.3,0.5,1.9,0.9
		c0.6,0.4,1,0.8,1.4,1.4c0.4,0.6,0.6,1.3,0.6,2.1c0,0.9-0.2,1.6-0.6,2.2c-0.4,0.6-0.9,1.2-1.5,1.6c-0.6,0.4-1.3,0.7-2,0.9
		c-0.8,0.2-1.5,0.3-2.2,0.3c-2.8,0-5.1-0.7-6.8-2.1L383.2,34.5z"/>
	<path class="copy-purpleFill" d="M404.3,39.4c-0.1-0.2-0.2-0.5-0.3-0.8c-0.1-0.3-0.1-0.7-0.2-0.9c-0.3,0.6-0.7,1.1-1.4,1.6
		c-0.6,0.5-1.5,0.7-2.7,0.7c-0.8,0-1.5-0.1-2.1-0.4c-0.6-0.2-1.1-0.6-1.5-1c-0.4-0.4-0.7-0.9-0.9-1.5c-0.2-0.6-0.3-1.2-0.3-1.9
		c0-0.8,0.1-1.4,0.4-2s0.6-1,1.1-1.4s1.1-0.7,1.8-0.9c0.7-0.2,1.5-0.4,2.3-0.6l3-0.5v-0.3c0-0.6-0.2-1-0.5-1.2
		c-0.3-0.2-0.8-0.3-1.3-0.3c-0.9,0-1.7,0.2-2.3,0.5c-0.6,0.3-1.2,0.7-1.7,1.2l-2.3-3.2c0.3-0.3,0.7-0.5,1.1-0.8
		c0.5-0.3,1-0.5,1.6-0.7c0.6-0.2,1.2-0.4,1.9-0.5c0.7-0.1,1.5-0.2,2.3-0.2c2.2,0,3.7,0.5,4.7,1.4c0.9,0.9,1.4,2.3,1.4,4.2v5.2
		c0,0.6,0,1.1,0,1.5c0,0.4,0,0.8,0.1,1.1c0,0.3,0.1,0.6,0.2,0.9c0.1,0.3,0.2,0.5,0.3,0.8H404.3z M403.6,32.9l-2,0.4
		c-0.7,0.1-1.2,0.3-1.5,0.6c-0.3,0.3-0.5,0.6-0.5,1.1c0,0.4,0.1,0.8,0.4,1.1c0.3,0.3,0.6,0.4,1.1,0.4c0.7,0,1.3-0.3,1.7-0.8
		s0.7-1.3,0.7-2.3V32.9z"/>
	<path class="copy-purpleFill" d="M408.9,24.7h5.5l2.4,10.2l2.3-10.2h5.2l-4.9,14.8h-5.7L408.9,24.7z"/>
	<path class="copy-purpleFill" d="M425.2,18.8h4.9v3.9h-4.9V18.8z M425.2,24.7h4.9v14.8h-4.9V24.7z"/>
	<path class="copy-purpleFill" d="M432.4,24.7h4.4l0.4,2.1c0.4-0.7,1.1-1.3,1.9-1.8c0.8-0.5,1.7-0.7,2.7-0.7c3.2,0,4.9,2.1,4.9,6.2v9h-4.9v-7.8
		c0-1.2-0.2-2-0.5-2.5c-0.3-0.5-0.9-0.7-1.6-0.7c-0.3,0-0.7,0.1-1,0.2c-0.3,0.1-0.5,0.3-0.8,0.7s-0.4,0.7-0.5,1.2
		c-0.1,0.5-0.2,1.1-0.2,1.9v7h-4.9V24.7z"/>
	<path class="copy-purpleFill" d="M450.6,39.4c0.6,0.6,1.3,1,2.1,1.3c0.8,0.3,1.7,0.5,2.6,0.5c0.9,0,1.6-0.2,1.9-0.6c0.3-0.4,0.5-1,0.5-1.8v-1.4
		c-0.3,0.5-0.8,0.9-1.4,1.3c-0.6,0.3-1.4,0.5-2.4,0.5c-0.7,0-1.4-0.1-2.1-0.4c-0.7-0.2-1.3-0.6-1.8-1.2c-0.5-0.6-1-1.3-1.3-2.2
		c-0.3-0.9-0.5-2.1-0.5-3.4c0-1.2,0.1-2.3,0.4-3.3s0.7-1.7,1.2-2.4c0.5-0.7,1.1-1.2,1.9-1.5c0.7-0.3,1.5-0.5,2.4-0.5
		c0.9,0,1.7,0.2,2.4,0.6c0.7,0.4,1.2,1,1.7,1.8l0.6-2h3.9v14c0,0.9-0.1,1.7-0.4,2.5c-0.3,0.8-0.7,1.4-1.3,2c-0.6,0.6-1.3,1-2.2,1.3
		c-0.9,0.3-2,0.5-3.3,0.5c-0.9,0-1.7-0.1-2.4-0.2c-0.7-0.1-1.4-0.3-2-0.5c-0.6-0.2-1.2-0.4-1.7-0.7c-0.5-0.3-0.9-0.5-1.3-0.7
		L450.6,39.4z M457.7,32c0-0.5,0-0.9-0.1-1.3c-0.1-0.4-0.2-0.8-0.3-1.2c-0.2-0.3-0.4-0.6-0.7-0.8c-0.3-0.2-0.6-0.3-1.1-0.3
		c-0.3,0-0.6,0.1-0.9,0.2s-0.5,0.3-0.7,0.6c-0.2,0.3-0.4,0.7-0.5,1.1c-0.1,0.5-0.2,1-0.2,1.7c0,1.2,0.2,2.1,0.6,2.7s1,0.9,1.7,0.9
		c0.7,0,1.3-0.3,1.6-0.9s0.5-1.4,0.5-2.5V32z"/>
	<path class="copy-purpleFill" d="M466.2,34.5c0.2,0.2,0.5,0.4,0.8,0.7c0.3,0.2,0.7,0.4,1.1,0.6c0.4,0.2,0.8,0.3,1.2,0.4
		c0.4,0.1,0.9,0.2,1.3,0.2c0.3,0,0.7-0.1,1.1-0.2c0.4-0.1,0.5-0.4,0.5-0.7c0-0.3-0.2-0.6-0.6-0.8c-0.4-0.2-0.9-0.4-1.4-0.6
		c-0.6-0.2-1.2-0.3-1.9-0.5c-0.7-0.2-1.3-0.5-1.9-0.8c-0.6-0.3-1-0.8-1.4-1.4c-0.4-0.6-0.6-1.3-0.6-2.2c0-0.8,0.2-1.6,0.5-2.2
		c0.3-0.6,0.8-1.1,1.4-1.5c0.6-0.4,1.2-0.7,2-0.9s1.5-0.3,2.3-0.3c1.3,0,2.5,0.2,3.5,0.5c1,0.3,1.9,0.7,2.7,1.3l-2.2,3.2
		c-0.2-0.2-0.4-0.3-0.8-0.5c-0.3-0.2-0.7-0.3-1-0.5s-0.8-0.3-1.2-0.3s-0.8-0.1-1.2-0.1c-0.3,0-0.6,0.1-0.8,0.2
		c-0.2,0.1-0.3,0.3-0.3,0.6c0,0.3,0.2,0.6,0.6,0.8c0.4,0.2,0.9,0.4,1.4,0.6c0.6,0.2,1.2,0.4,1.9,0.6c0.7,0.2,1.3,0.5,1.9,0.9
		c0.6,0.4,1,0.8,1.4,1.4c0.4,0.6,0.6,1.3,0.6,2.1c0,0.9-0.2,1.6-0.6,2.2c-0.4,0.6-0.9,1.2-1.5,1.6c-0.6,0.4-1.3,0.7-2,0.9
		c-0.8,0.2-1.5,0.3-2.2,0.3c-2.8,0-5.1-0.7-6.8-2.1L466.2,34.5z"/>
</g>
<g>
	<path class="copy-purpleFill" d="M201.7,55.7h5.2l2.2,10.1l1.9-10.1h5.2l1.9,10.1l2.1-10.1h5.2l-4.8,14.8h-5.2l-1.9-7.9l-1.9,7.9h-5.2
		L201.7,55.7z"/>
	<path class="copy-purpleFill" d="M226.3,49.8h4.9v3.9h-4.9V49.8z M226.3,55.7h4.9v14.8h-4.9V55.7z"/>
	<path class="copy-purpleFill" d="M234.6,58.8h-2.3v-3.1h0.4c0.8,0,1.3-0.1,1.8-0.4s0.8-0.6,1-1c0.2-0.4,0.4-0.9,0.5-1.4c0.1-0.5,0.2-1,0.4-1.6
		h3.1v4.4h3v3.1h-3v6.8c0,0.4,0.1,0.8,0.3,1.1c0.2,0.3,0.6,0.4,1.1,0.4c0.2,0,0.3,0,0.6,0c0.2,0,0.5-0.1,0.8-0.2l0.3,3.4
		c-0.5,0.2-1.1,0.4-1.6,0.5c-0.5,0.1-1.1,0.1-1.7,0.1c-0.9,0-1.7-0.1-2.3-0.3c-0.6-0.2-1.1-0.6-1.4-1c-0.3-0.4-0.6-0.9-0.7-1.5
		s-0.2-1.2-0.2-1.9V58.8z"/>
	<path class="copy-purpleFill" d="M243.7,50h4.9v7.7c0.4-0.7,0.9-1.2,1.7-1.7s1.7-0.7,2.8-0.7c1.7,0,2.9,0.5,3.7,1.6c0.8,1.1,1.2,2.6,1.2,4.7
		v8.9h-4.9v-8c0-0.9-0.2-1.6-0.5-2.2c-0.3-0.5-0.9-0.8-1.6-0.8c-0.7,0-1.3,0.3-1.7,0.9c-0.4,0.6-0.7,1.5-0.7,2.9v7.2h-4.9V50z"/>
	<path class="copy-purpleFill" d="M285,65.9c-1,1.8-2.3,3-3.7,3.8c-1.5,0.8-3.2,1.2-5.3,1.2c-1.7,0-3.2-0.3-4.5-0.8c-1.3-0.5-2.4-1.3-3.3-2.2
		c-0.9-0.9-1.5-2.1-2-3.4c-0.4-1.3-0.7-2.7-0.7-4.3c0-1.6,0.2-3,0.7-4.3c0.5-1.3,1.1-2.4,2-3.4c0.9-0.9,2-1.7,3.3-2.2
		c1.3-0.5,2.8-0.8,4.4-0.8c1.9,0,3.6,0.3,5.1,1s2.8,1.9,4,3.6l-5,2.5c-0.4-0.8-0.9-1.5-1.6-1.9c-0.7-0.5-1.5-0.7-2.4-0.7
		c-0.9,0-1.6,0.2-2.2,0.5c-0.6,0.3-1.1,0.8-1.5,1.3c-0.4,0.6-0.7,1.2-0.9,2c-0.2,0.8-0.3,1.6-0.3,2.4c0,0.9,0.1,1.6,0.3,2.4
		c0.2,0.7,0.5,1.4,0.9,2c0.4,0.6,0.9,1,1.5,1.3s1.3,0.5,2.1,0.5c0.9,0,1.7-0.2,2.3-0.7c0.7-0.5,1.3-1.2,1.7-2.3L285,65.9z"/>
	<path class="copy-purpleFill" d="M286.4,50h4.9v20.5h-4.9V50z"/>
	<path class="copy-purpleFill" d="M302.4,70.4c-0.1-0.2-0.2-0.5-0.3-0.8c-0.1-0.3-0.1-0.7-0.2-0.9c-0.3,0.6-0.7,1.1-1.4,1.6
		c-0.6,0.5-1.5,0.7-2.7,0.7c-0.8,0-1.5-0.1-2.1-0.4c-0.6-0.2-1.1-0.6-1.5-1c-0.4-0.4-0.7-0.9-0.9-1.5c-0.2-0.6-0.3-1.2-0.3-1.9
		c0-0.8,0.1-1.4,0.4-2c0.3-0.6,0.6-1,1.1-1.4c0.5-0.4,1.1-0.7,1.8-0.9s1.5-0.4,2.3-0.6l3-0.5v-0.3c0-0.6-0.2-1-0.5-1.2
		s-0.8-0.3-1.3-0.3c-0.9,0-1.7,0.2-2.3,0.5c-0.6,0.3-1.2,0.7-1.7,1.2l-2.3-3.2c0.3-0.3,0.7-0.5,1.1-0.8c0.5-0.3,1-0.5,1.6-0.7
		s1.2-0.4,1.9-0.5c0.7-0.1,1.5-0.2,2.3-0.2c2.2,0,3.7,0.5,4.7,1.4c0.9,0.9,1.4,2.3,1.4,4.2v5.2c0,0.6,0,1.1,0,1.5
		c0,0.4,0,0.8,0.1,1.1c0,0.3,0.1,0.6,0.2,0.9c0.1,0.3,0.2,0.5,0.3,0.8H302.4z M301.6,63.9l-2,0.4c-0.7,0.1-1.2,0.3-1.5,0.6
		c-0.3,0.3-0.5,0.6-0.5,1.1c0,0.4,0.1,0.8,0.4,1.1c0.3,0.3,0.6,0.4,1.1,0.4c0.7,0,1.3-0.3,1.7-0.8c0.5-0.5,0.7-1.3,0.7-2.3V63.9z"/>
	<path class="copy-purpleFill" d="M308.8,49.8h4.9v3.9h-4.9V49.8z M308.8,55.7h4.9v14.8h-4.9V55.7z"/>
	<path class="copy-purpleFill" d="M316,55.7h4.4l0.4,2.1c0.4-0.8,1-1.4,1.7-1.8c0.7-0.4,1.5-0.7,2.6-0.7c1.2,0,2.1,0.3,2.8,0.8
		c0.7,0.5,1.1,1.1,1.4,1.8c0.2-0.3,0.4-0.6,0.6-0.9c0.2-0.3,0.5-0.6,0.9-0.9c0.4-0.3,0.8-0.5,1.3-0.6c0.5-0.2,1.1-0.2,1.8-0.2
		c1,0,1.9,0.2,2.5,0.5c0.6,0.3,1.1,0.8,1.5,1.4c0.3,0.6,0.6,1.2,0.7,2c0.1,0.7,0.2,1.5,0.2,2.3v9.1h-4.9v-7.7c0-1.1-0.1-1.9-0.4-2.5
		c-0.3-0.5-0.8-0.8-1.5-0.8c-0.2,0-0.5,0-0.7,0.1c-0.3,0.1-0.5,0.2-0.7,0.5c-0.2,0.3-0.4,0.6-0.5,1.1s-0.2,1.1-0.2,1.9v7.4h-4.9
		v-7.8c0-1-0.1-1.8-0.4-2.3c-0.3-0.5-0.8-0.8-1.5-0.8c-0.2,0-0.5,0-0.7,0.1c-0.3,0.1-0.5,0.3-0.7,0.5s-0.4,0.7-0.5,1.2
		c-0.1,0.5-0.2,1.2-0.2,2v7H316V55.7z"/>
	<path class="copy-purpleFill" d="M341.1,50h8.7c1,0,2,0.1,2.9,0.3s1.8,0.6,2.6,1.1c0.8,0.5,1.4,1.2,1.8,2c0.5,0.8,0.7,1.8,0.7,3
		c0,1.3-0.2,2.4-0.6,3.3c-0.4,0.9-1,1.6-1.7,2.2c-0.7,0.6-1.6,1-2.5,1.2c-1,0.2-2,0.4-3.1,0.4h-3.5v6.9h-5.2V50z M349,59.5
		c0.5,0,0.9,0,1.3-0.1c0.4-0.1,0.7-0.2,1-0.4c0.3-0.2,0.5-0.5,0.7-0.9s0.2-0.9,0.2-1.5c0-0.5-0.1-0.9-0.3-1.2
		c-0.2-0.3-0.4-0.6-0.7-0.8s-0.7-0.3-1.1-0.4c-0.4-0.1-0.8-0.1-1.2-0.1h-2.6v5.5H349z"/>
	<path class="copy-purpleFill" d="M367.6,70.4c-0.1-0.2-0.2-0.5-0.3-0.8c-0.1-0.3-0.1-0.7-0.2-0.9c-0.3,0.6-0.7,1.1-1.4,1.6
		c-0.6,0.5-1.5,0.7-2.7,0.7c-0.8,0-1.5-0.1-2.1-0.4c-0.6-0.2-1.1-0.6-1.5-1c-0.4-0.4-0.7-0.9-0.9-1.5c-0.2-0.6-0.3-1.2-0.3-1.9
		c0-0.8,0.1-1.4,0.4-2c0.3-0.6,0.6-1,1.1-1.4c0.5-0.4,1.1-0.7,1.8-0.9s1.5-0.4,2.3-0.6l3-0.5v-0.3c0-0.6-0.2-1-0.5-1.2
		c-0.3-0.2-0.8-0.3-1.3-0.3c-0.9,0-1.7,0.2-2.3,0.5c-0.6,0.3-1.2,0.7-1.7,1.2l-2.3-3.2c0.3-0.3,0.7-0.5,1.1-0.8
		c0.5-0.3,1-0.5,1.6-0.7s1.2-0.4,1.9-0.5c0.7-0.1,1.5-0.2,2.3-0.2c2.2,0,3.7,0.5,4.7,1.4c0.9,0.9,1.4,2.3,1.4,4.2v5.2
		c0,0.6,0,1.1,0,1.5s0,0.8,0.1,1.1c0,0.3,0.1,0.6,0.2,0.9c0.1,0.3,0.2,0.5,0.3,0.8H367.6z M366.9,63.9l-2,0.4
		c-0.7,0.1-1.2,0.3-1.5,0.6c-0.3,0.3-0.5,0.6-0.5,1.1c0,0.4,0.1,0.8,0.4,1.1c0.3,0.3,0.6,0.4,1.1,0.4c0.7,0,1.3-0.3,1.7-0.8
		c0.5-0.5,0.7-1.3,0.7-2.3V63.9z"/>
	<path class="copy-purpleFill" d="M375.2,65.5c0.2,0.2,0.5,0.4,0.8,0.7c0.3,0.2,0.7,0.4,1.1,0.6s0.8,0.3,1.2,0.4c0.4,0.1,0.9,0.2,1.3,0.2
		c0.3,0,0.7-0.1,1.1-0.2c0.4-0.1,0.5-0.4,0.5-0.7c0-0.3-0.2-0.6-0.6-0.8s-0.9-0.4-1.4-0.6c-0.6-0.2-1.2-0.3-1.9-0.5
		s-1.3-0.5-1.9-0.8c-0.6-0.3-1-0.8-1.4-1.4c-0.4-0.6-0.6-1.3-0.6-2.2c0-0.8,0.2-1.6,0.5-2.2c0.3-0.6,0.8-1.1,1.4-1.5s1.2-0.7,2-0.9
		c0.8-0.2,1.5-0.3,2.3-0.3c1.3,0,2.5,0.2,3.5,0.5c1,0.3,1.9,0.7,2.7,1.3l-2.2,3.2c-0.2-0.2-0.4-0.3-0.8-0.5c-0.3-0.2-0.7-0.3-1-0.5
		c-0.4-0.1-0.8-0.3-1.2-0.3s-0.8-0.1-1.2-0.1c-0.3,0-0.6,0.1-0.8,0.2s-0.3,0.3-0.3,0.6c0,0.3,0.2,0.6,0.6,0.8
		c0.4,0.2,0.9,0.4,1.4,0.6c0.6,0.2,1.2,0.4,1.9,0.6s1.3,0.5,1.9,0.9c0.6,0.4,1,0.8,1.4,1.4c0.4,0.6,0.6,1.3,0.6,2.1
		s-0.2,1.6-0.6,2.2c-0.4,0.6-0.9,1.2-1.5,1.6c-0.6,0.4-1.3,0.7-2,0.9s-1.5,0.3-2.2,0.3c-2.8,0-5.1-0.7-6.8-2.1L375.2,65.5z"/>
	<path class="copy-purpleFill" d="M388.6,65.5c0.2,0.2,0.5,0.4,0.8,0.7c0.3,0.2,0.7,0.4,1.1,0.6s0.8,0.3,1.2,0.4c0.4,0.1,0.9,0.2,1.3,0.2
		c0.3,0,0.7-0.1,1.1-0.2c0.4-0.1,0.5-0.4,0.5-0.7c0-0.3-0.2-0.6-0.6-0.8s-0.9-0.4-1.4-0.6c-0.6-0.2-1.2-0.3-1.9-0.5
		s-1.3-0.5-1.9-0.8c-0.6-0.3-1-0.8-1.4-1.4c-0.4-0.6-0.6-1.3-0.6-2.2c0-0.8,0.2-1.6,0.5-2.2c0.3-0.6,0.8-1.1,1.4-1.5s1.2-0.7,2-0.9
		c0.8-0.2,1.5-0.3,2.3-0.3c1.3,0,2.5,0.2,3.5,0.5c1,0.3,1.9,0.7,2.7,1.3l-2.2,3.2c-0.2-0.2-0.4-0.3-0.8-0.5c-0.3-0.2-0.7-0.3-1-0.5
		c-0.4-0.1-0.8-0.3-1.2-0.3s-0.8-0.1-1.2-0.1c-0.3,0-0.6,0.1-0.8,0.2s-0.3,0.3-0.3,0.6c0,0.3,0.2,0.6,0.6,0.8
		c0.4,0.2,0.9,0.4,1.4,0.6c0.6,0.2,1.2,0.4,1.9,0.6s1.3,0.5,1.9,0.9c0.6,0.4,1,0.8,1.4,1.4c0.4,0.6,0.6,1.3,0.6,2.1
		s-0.2,1.6-0.6,2.2c-0.4,0.6-0.9,1.2-1.5,1.6c-0.6,0.4-1.3,0.7-2,0.9s-1.5,0.3-2.2,0.3c-2.8,0-5.1-0.7-6.8-2.1L388.6,65.5z"/>
	<path class="copy-purpleFill" d="M400.3,65.1h5.4v5.4h-5.4V65.1z"/>
</g>
</svg>
