<?xml version="1.0" encoding="utf-8"?>
<!-- Generator: Adobe Illustrator 22.1.0, SVG Export Plug-In . SVG Version: 6.00 Build 0)  -->
<svg version="1.1" id="Layer_1" xmlns="http://www.w3.org/2000/svg" xmlns:xlink="http://www.w3.org/1999/xlink" x="0px" y="0px"
	 viewBox="0 0 73.2 9.6" style="enable-background:new 0 0 73.2 9.6;" xml:space="preserve">
<style type="text/css">
	.st0{fill:#FFFFFF;}
</style>
<g>
	<path class="st0" d="M1.6,6.6c0.1,0.1,0.2,0.2,0.3,0.4C2,7.1,2.2,7.2,2.4,7.3s0.4,0.2,0.7,0.3s0.5,0.1,0.8,0.1
		c0.4,0,0.7-0.1,0.9-0.2c0.2-0.1,0.3-0.3,0.3-0.5c0-0.2,0-0.3-0.1-0.4C5,6.4,4.8,6.3,4.6,6.2C4.4,6.1,4.2,6,3.9,6
		c-0.3-0.1-0.6-0.1-1-0.2c-0.9-0.2-1.6-0.6-2-1C0.5,4.2,0.3,3.7,0.3,3c0-0.4,0.1-0.8,0.2-1.1c0.2-0.4,0.4-0.7,0.7-0.9
		c0.3-0.3,0.7-0.5,1.1-0.7C2.9,0.1,3.4,0,4,0c0.7,0,1.4,0.1,2,0.4C6.7,0.6,7.2,1,7.6,1.5L6.1,2.9C5.8,2.7,5.5,2.4,5.2,2.2
		S4.4,1.9,3.9,1.9C3.6,1.9,3.5,2,3.3,2C3.2,2,3.1,2.1,3,2.2C2.9,2.2,2.8,2.3,2.8,2.4c0,0.1,0,0.2,0,0.2c0,0.2,0.1,0.4,0.3,0.6
		c0.2,0.2,0.6,0.3,1.2,0.5C5,3.9,5.5,4.1,6,4.3s0.8,0.4,1,0.6c0.3,0.2,0.4,0.5,0.5,0.8s0.1,0.6,0.1,1c0,0.5-0.1,0.9-0.3,1.3
		C7.1,8.3,6.9,8.6,6.5,8.8C6.2,9.1,5.8,9.3,5.3,9.4C4.9,9.5,4.4,9.6,3.9,9.6c-0.5,0-0.9,0-1.3-0.1C2.1,9.4,1.8,9.3,1.4,9.2
		C1.1,9,0.8,8.9,0.6,8.7C0.4,8.5,0.2,8.4,0,8.2L1.6,6.6z"/>
	<path class="st0" d="M11.4,0.2h2.1l3.6,9.2h-2.5L14,7.5h-3.1l-0.7,1.9H7.8L11.4,0.2z M13.4,5.7c-0.2-0.5-0.3-0.9-0.5-1.3
		c-0.2-0.4-0.3-0.9-0.5-1.5c-0.1,0.5-0.3,1-0.4,1.5c-0.2,0.4-0.3,0.9-0.5,1.4H13.4z"/>
	<path class="st0" d="M16,0.2h2.5c0.2,0.6,0.4,1.2,0.6,1.8c0.2,0.6,0.4,1.2,0.6,1.7c0.2,0.6,0.4,1.1,0.5,1.6c0.2,0.5,0.3,1,0.4,1.4
		c0.1-0.4,0.2-0.9,0.4-1.4c0.2-0.5,0.3-1,0.5-1.6C21.8,3.1,22,2.6,22.2,2c0.2-0.6,0.4-1.2,0.6-1.8h2.4l-3.6,9.2h-2.1L16,0.2z"/>
	<path class="st0" d="M26,0.2h6.5V2h-4.2v1.7h2.9v1.8h-2.9v2.2h4.3v1.8H26V0.2z"/>
	<path class="st0" d="M36.7,0.2h2.7c0.1,0.3,0.2,0.6,0.4,0.9c0.1,0.3,0.3,0.7,0.4,1c0.1,0.3,0.3,0.7,0.4,1c0.1,0.3,0.2,0.6,0.4,0.9
		c0.1,0.3,0.2,0.5,0.3,0.7c0.1,0.2,0.1,0.4,0.2,0.5c0-0.1,0.1-0.3,0.2-0.5s0.2-0.5,0.3-0.7s0.2-0.6,0.3-0.9c0.1-0.3,0.3-0.7,0.4-1
		s0.3-0.7,0.4-1c0.1-0.3,0.3-0.6,0.4-0.9h2.6v9.2h-2.2c0-0.5,0-1,0-1.6c0-0.6,0-1.1,0-1.7c0-0.5,0-1,0-1.5s0-0.8,0.1-1
		c-0.1,0.3-0.2,0.6-0.4,1s-0.4,0.9-0.6,1.5c-0.2,0.5-0.5,1.1-0.7,1.7c-0.2,0.6-0.5,1.1-0.7,1.6h-0.2c-0.2-0.6-0.5-1.1-0.7-1.7
		C40.2,7.1,40,6.5,39.8,6s-0.4-1-0.6-1.4c-0.2-0.4-0.3-0.8-0.4-1c0,0.2,0,0.6,0.1,1s0,1,0,1.5c0,0.6,0,1.1,0,1.7c0,0.6,0,1.1,0,1.6
		h-2.2V0.2z"/>
	<path class="st0" d="M51.7,9.6c-0.6,0-1.2-0.1-1.8-0.3c-0.6-0.2-1.1-0.5-1.5-0.9c-0.4-0.4-0.8-0.9-1-1.5S47,5.6,47,4.8
		s0.1-1.5,0.4-2.1c0.3-0.6,0.6-1.1,1-1.5s0.9-0.7,1.5-0.9C50.5,0.1,51.1,0,51.7,0c0.6,0,1.2,0.1,1.8,0.3C54,0.5,54.5,0.8,55,1.2
		c0.4,0.4,0.8,0.9,1,1.5s0.4,1.3,0.4,2.1S56.2,6.4,56,6.9c-0.3,0.6-0.6,1.1-1,1.5c-0.4,0.4-0.9,0.7-1.5,0.9
		C52.9,9.5,52.3,9.6,51.7,9.6z M51.7,7.6c0.3,0,0.6-0.1,0.9-0.2c0.3-0.1,0.5-0.3,0.7-0.5s0.3-0.5,0.5-0.9s0.2-0.8,0.2-1.2
		c0-0.9-0.2-1.6-0.6-2.1C52.8,2.3,52.3,2,51.6,2c-0.7,0-1.2,0.2-1.5,0.7c-0.4,0.5-0.6,1.2-0.6,2.1c0,0.5,0.1,0.9,0.2,1.2
		c0.1,0.3,0.3,0.6,0.5,0.9s0.4,0.4,0.7,0.5C51.1,7.5,51.4,7.6,51.7,7.6z"/>
	<path class="st0" d="M57.5,0.2h3.8c0.5,0,1,0,1.4,0.1c0.5,0.1,0.9,0.3,1.2,0.5c0.3,0.2,0.6,0.5,0.8,0.9S65,2.6,65,3.1
		c0,0.4-0.1,0.7-0.2,1s-0.3,0.5-0.5,0.7c-0.2,0.2-0.5,0.3-0.7,0.5S63,5.4,62.8,5.5c0.2,0,0.5,0.1,0.7,0.2c0.2,0.1,0.4,0.3,0.5,0.6
		l1.8,3.1H63l-1.1-2.2c-0.1-0.2-0.2-0.4-0.3-0.5c-0.1-0.1-0.2-0.2-0.3-0.3c-0.1-0.1-0.2-0.1-0.4-0.1c-0.1,0-0.3,0-0.5,0h-0.6v3.1
		h-2.3V0.2z M61.1,4.4c0.2,0,0.3,0,0.5,0c0.2,0,0.3-0.1,0.4-0.2c0.1-0.1,0.2-0.2,0.3-0.4c0.1-0.2,0.1-0.4,0.1-0.7
		c0-0.2,0-0.4-0.1-0.6S62.2,2.3,62,2.2C61.9,2.1,61.7,2,61.6,2s-0.3,0-0.4,0h-1.3v2.5H61.1z"/>
	<path class="st0" d="M66.5,0.2H73V2h-4.2v1.7h2.9v1.8h-2.9v2.2h4.3v1.8h-6.6V0.2z"/>
</g>
</svg>
