<?xml version="1.0" encoding="utf-8"?>
<!-- Generator: Adobe Illustrator 22.1.0, SVG Export Plug-In . SVG Version: 6.00 Build 0)  -->
<svg version="1.1" id="Layer_1" xmlns="http://www.w3.org/2000/svg" xmlns:xlink="http://www.w3.org/1999/xlink" x="0px" y="0px"
	 viewBox="0 0 336 280" style="enable-background:new 0 0 336 280;" xml:space="preserve">
<style type="text/css">
	.st0{fill:#662868;}
	.st1{fill:#5D6770;}
</style>
<g>
	<path class="st0" d="M30,101.5c-1,0-2-0.2-2.9-0.5c-0.9-0.3-1.7-0.8-2.4-1.4c-0.7-0.6-1.3-1.4-1.7-2.4c-0.4-1-0.6-2.1-0.6-3.5
		c0-1.3,0.2-2.5,0.6-3.5c0.4-1,1-1.8,1.7-2.4s1.5-1.1,2.4-1.4c0.9-0.3,1.9-0.5,2.9-0.5c1,0,2,0.2,2.9,0.5c0.9,0.3,1.7,0.8,2.4,1.4
		c0.7,0.6,1.3,1.5,1.7,2.4c0.4,1,0.6,2.1,0.6,3.5c0,1.3-0.2,2.5-0.6,3.5c-0.4,1-1,1.8-1.7,2.4c-0.7,0.6-1.5,1.1-2.4,1.4
		C31.9,101.3,30.9,101.5,30,101.5z M30,98.2c0.5,0,1-0.1,1.4-0.3c0.4-0.2,0.8-0.4,1.1-0.8s0.6-0.8,0.7-1.4c0.2-0.6,0.3-1.2,0.3-2
		c0-1.5-0.3-2.6-1-3.3c-0.7-0.8-1.5-1.2-2.6-1.2c-1.1,0-1.9,0.4-2.5,1.2c-0.6,0.8-0.9,1.9-0.9,3.3c0,0.8,0.1,1.5,0.3,2
		c0.2,0.6,0.5,1,0.8,1.4c0.3,0.4,0.7,0.6,1.1,0.8C29.1,98.1,29.5,98.2,30,98.2z"/>
	<path class="st0" d="M38.7,90.4h3.2l0.3,1.5c0.3-0.5,0.8-0.9,1.4-1.3s1.3-0.5,2-0.5c2.4,0,3.6,1.5,3.6,4.5v6.6h-3.6v-5.7
		c0-0.8-0.1-1.4-0.4-1.8c-0.3-0.3-0.6-0.5-1.2-0.5c-0.3,0-0.5,0-0.7,0.1c-0.2,0.1-0.4,0.3-0.5,0.5c-0.2,0.2-0.3,0.5-0.4,0.9
		c-0.1,0.4-0.1,0.8-0.1,1.4v5.1h-3.6V90.4z"/>
	<path class="st0" d="M50.7,86.2h3.6v14.9h-3.6V86.2z"/>
	<path class="st0" d="M56.2,102.2c0.3,0.1,0.5,0.2,0.8,0.2c0.3,0.1,0.5,0.1,0.7,0.1c0.3,0,0.6-0.1,0.8-0.2c0.2-0.1,0.3-0.4,0.4-0.8
		L55,90.4h3.8l1.9,7.2l1.8-7.2h3.8l-3.7,10.7c-0.2,0.6-0.4,1.1-0.6,1.6c-0.2,0.5-0.5,0.9-0.8,1.3c-0.3,0.4-0.8,0.6-1.3,0.8
		c-0.5,0.2-1.2,0.3-2,0.3c-0.1,0-0.3,0-0.5,0c-0.2,0-0.4,0-0.6,0c-0.2,0-0.4,0-0.6-0.1c-0.2,0-0.3-0.1-0.5-0.1L56.2,102.2z"/>
	<path class="st0" d="M71,98.2l7.6-9.2h-7.1v-2.9H83v2.9l-7.6,9.2h7.8v2.9H71V98.2z"/>
	<path class="st0" d="M87.3,96.6c0.1,0.8,0.4,1.4,0.8,1.7c0.4,0.3,0.9,0.5,1.4,0.5c0.5,0,0.8-0.1,1.2-0.3c0.3-0.2,0.6-0.5,0.9-0.9
		l2.6,1.5c-0.5,0.8-1.2,1.4-2.1,1.8s-1.8,0.6-2.8,0.6c-0.9,0-1.7-0.1-2.4-0.4c-0.7-0.3-1.3-0.7-1.8-1.2S84.2,98.7,84,98
		c-0.2-0.7-0.4-1.4-0.4-2.3c0-0.8,0.1-1.6,0.4-2.3s0.6-1.3,1.1-1.8c0.5-0.5,1-0.9,1.7-1.2c0.7-0.3,1.4-0.4,2.3-0.4
		c0.8,0,1.6,0.1,2.2,0.4c0.6,0.3,1.2,0.7,1.6,1.2s0.8,1.1,1,1.9s0.3,1.5,0.3,2.4c0,0.2,0,0.3,0,0.4c0,0.1,0,0.2,0,0.2H87.3z
		 M89,92.6c-1,0-1.6,0.6-1.8,1.9h3.5c0-0.5-0.1-1-0.4-1.4S89.6,92.6,89,92.6z"/>
	<path class="st0" d="M95.5,86.2h3.6v14.9h-3.6V86.2z"/>
	<path class="st0" d="M100.7,86.1h3.6v2.8h-3.6V86.1z M100.7,90.4h3.6v10.8h-3.6V90.4z"/>
	<path class="st0" d="M106.9,97.6c0.2,0.2,0.4,0.3,0.6,0.5c0.2,0.2,0.5,0.3,0.8,0.4c0.3,0.1,0.6,0.2,0.9,0.3
		c0.3,0.1,0.6,0.1,0.9,0.1c0.3,0,0.5,0,0.8-0.1c0.3-0.1,0.4-0.3,0.4-0.5c0-0.3-0.1-0.5-0.4-0.6s-0.6-0.3-1-0.4
		c-0.4-0.1-0.9-0.2-1.4-0.4c-0.5-0.1-0.9-0.3-1.4-0.6c-0.4-0.3-0.8-0.6-1-1c-0.3-0.4-0.4-1-0.4-1.6c0-0.6,0.1-1.1,0.4-1.6
		c0.3-0.5,0.6-0.8,1-1.1s0.9-0.5,1.5-0.6c0.5-0.1,1.1-0.2,1.7-0.2c1,0,1.8,0.1,2.6,0.3c0.7,0.2,1.4,0.5,2,1l-1.6,2.4
		c-0.1-0.1-0.3-0.3-0.5-0.4c-0.2-0.1-0.5-0.2-0.8-0.3c-0.3-0.1-0.6-0.2-0.9-0.3c-0.3-0.1-0.6-0.1-0.9-0.1c-0.2,0-0.4,0-0.6,0.1
		c-0.2,0.1-0.2,0.2-0.2,0.5c0,0.2,0.1,0.4,0.4,0.6c0.3,0.1,0.6,0.3,1,0.4c0.4,0.1,0.9,0.3,1.4,0.4c0.5,0.2,0.9,0.4,1.4,0.6
		c0.4,0.3,0.8,0.6,1,1c0.3,0.4,0.4,0.9,0.4,1.5s-0.1,1.2-0.4,1.6c-0.3,0.5-0.6,0.8-1.1,1.2c-0.4,0.3-0.9,0.5-1.5,0.7
		s-1.1,0.2-1.6,0.2c-2,0-3.7-0.5-5-1.5L106.9,97.6z"/>
	<path class="st0" d="M130.1,98.9c-0.5,0.9-1.2,1.6-2,2s-1.8,0.6-2.8,0.6c-1,0-1.8-0.1-2.5-0.4c-0.7-0.3-1.3-0.7-1.7-1.2
		c-0.4-0.5-0.8-1.1-1-1.8s-0.3-1.4-0.3-2.2c0-0.9,0.1-1.7,0.4-2.4s0.6-1.3,1.1-1.8c0.5-0.5,1-0.9,1.7-1.2c0.7-0.3,1.4-0.4,2.3-0.4
		c1.1,0,2.1,0.2,2.8,0.7c0.8,0.5,1.4,1.1,2,2l-2.9,1.4c-0.2-0.5-0.5-0.9-0.8-1.1s-0.6-0.3-1-0.3c-0.7,0-1.1,0.3-1.4,0.8
		s-0.4,1.2-0.4,2.1c0,0.3,0,0.7,0.1,1.1s0.2,0.7,0.3,1c0.1,0.3,0.4,0.6,0.6,0.8c0.3,0.2,0.6,0.3,1.1,0.3c0.5,0,0.9-0.1,1.2-0.4
		c0.3-0.3,0.6-0.6,0.8-1.1L130.1,98.9z"/>
	<path class="st0" d="M130.9,86.2h3.6v5.6c0.3-0.5,0.7-0.9,1.2-1.2c0.5-0.3,1.2-0.5,2.1-0.5c1.2,0,2.1,0.4,2.7,1.2
		c0.6,0.8,0.9,1.9,0.9,3.4v6.5h-3.6v-5.8c0-0.7-0.1-1.2-0.4-1.6c-0.2-0.4-0.6-0.6-1.2-0.6c-0.5,0-0.9,0.2-1.2,0.6
		c-0.3,0.4-0.5,1.1-0.5,2.1v5.2h-3.6V86.2z"/>
	<path class="st0" d="M146.1,96.6c0.1,0.8,0.4,1.4,0.8,1.7c0.4,0.3,0.9,0.5,1.4,0.5c0.5,0,0.8-0.1,1.2-0.3c0.3-0.2,0.6-0.5,0.9-0.9
		l2.6,1.5c-0.5,0.8-1.2,1.4-2.1,1.8c-0.8,0.4-1.8,0.6-2.8,0.6c-0.9,0-1.7-0.1-2.4-0.4c-0.7-0.3-1.3-0.7-1.8-1.2s-0.8-1.1-1.1-1.8
		c-0.2-0.7-0.4-1.4-0.4-2.3c0-0.8,0.1-1.6,0.4-2.3c0.3-0.7,0.6-1.3,1.1-1.8c0.5-0.5,1-0.9,1.7-1.2c0.7-0.3,1.4-0.4,2.3-0.4
		c0.8,0,1.6,0.1,2.2,0.4c0.6,0.3,1.2,0.7,1.6,1.2c0.4,0.5,0.8,1.1,1,1.9s0.3,1.5,0.3,2.4c0,0.2,0,0.3,0,0.4c0,0.1,0,0.2,0,0.2H146.1
		z M147.8,92.6c-1,0-1.6,0.6-1.8,1.9h3.5c0-0.5-0.1-1-0.4-1.4S148.4,92.6,147.8,92.6z"/>
	<path class="st0" d="M164.1,98.9c-0.5,0.9-1.2,1.6-2,2s-1.8,0.6-2.8,0.6c-1,0-1.8-0.1-2.5-0.4s-1.3-0.7-1.7-1.2
		c-0.4-0.5-0.8-1.1-1-1.8c-0.2-0.7-0.3-1.4-0.3-2.2c0-0.9,0.1-1.7,0.4-2.4c0.3-0.7,0.6-1.3,1.1-1.8c0.5-0.5,1-0.9,1.7-1.2
		c0.7-0.3,1.4-0.4,2.3-0.4c1.1,0,2.1,0.2,2.8,0.7c0.8,0.5,1.4,1.1,2,2l-2.9,1.4c-0.2-0.5-0.5-0.9-0.8-1.1s-0.6-0.3-1-0.3
		c-0.7,0-1.1,0.3-1.4,0.8c-0.3,0.5-0.4,1.2-0.4,2.1c0,0.3,0,0.7,0.1,1.1c0.1,0.4,0.2,0.7,0.3,1c0.1,0.3,0.4,0.6,0.6,0.8
		c0.3,0.2,0.6,0.3,1.1,0.3c0.5,0,0.9-0.1,1.2-0.4c0.3-0.3,0.6-0.6,0.8-1.1L164.1,98.9z"/>
	<path class="st0" d="M164.9,86.2h3.6v8.1l3.6-4h4.3l-4.2,4.1l4.2,6.7h-4l-2.4-4.5l-1.4,1.4v3.2h-3.6V86.2z"/>
	<path class="st0" d="M177.9,97.6c0.2,0.2,0.4,0.3,0.6,0.5c0.2,0.2,0.5,0.3,0.8,0.4c0.3,0.1,0.6,0.2,0.9,0.3
		c0.3,0.1,0.6,0.1,0.9,0.1c0.3,0,0.5,0,0.8-0.1c0.3-0.1,0.4-0.3,0.4-0.5c0-0.3-0.1-0.5-0.4-0.6c-0.3-0.1-0.6-0.3-1-0.4
		c-0.4-0.1-0.9-0.2-1.4-0.4c-0.5-0.1-0.9-0.3-1.4-0.6c-0.4-0.3-0.8-0.6-1-1c-0.3-0.4-0.4-1-0.4-1.6c0-0.6,0.1-1.1,0.4-1.6
		c0.3-0.5,0.6-0.8,1-1.1s0.9-0.5,1.5-0.6c0.5-0.1,1.1-0.2,1.7-0.2c1,0,1.8,0.1,2.6,0.3c0.7,0.2,1.4,0.5,2,1l-1.6,2.4
		c-0.1-0.1-0.3-0.3-0.5-0.4c-0.2-0.1-0.5-0.2-0.8-0.3c-0.3-0.1-0.6-0.2-0.9-0.3s-0.6-0.1-0.9-0.1c-0.2,0-0.4,0-0.6,0.1
		c-0.2,0.1-0.2,0.2-0.2,0.5c0,0.2,0.1,0.4,0.4,0.6c0.3,0.1,0.6,0.3,1,0.4c0.4,0.1,0.9,0.3,1.4,0.4c0.5,0.2,0.9,0.4,1.4,0.6
		c0.4,0.3,0.8,0.6,1,1c0.3,0.4,0.4,0.9,0.4,1.5s-0.1,1.2-0.4,1.6c-0.3,0.5-0.6,0.8-1.1,1.2c-0.4,0.3-0.9,0.5-1.5,0.7
		s-1.1,0.2-1.6,0.2c-2,0-3.7-0.5-5-1.5L177.9,97.6z"/>
	<path class="st0" d="M192.1,92.6h-1.8v-2.3h1.6c-0.1-0.4-0.2-0.7-0.2-1s-0.1-0.6-0.1-0.8c0-0.4,0-0.7,0.1-1.1
		c0.1-0.3,0.3-0.6,0.5-0.9s0.6-0.5,1.1-0.6c0.5-0.1,1-0.2,1.7-0.2c0.6,0,1.1,0,1.6,0.1s0.8,0.2,1.2,0.3l-0.5,2.6
		c-0.2-0.1-0.4-0.2-0.7-0.2c-0.3-0.1-0.5-0.1-0.7-0.1c-0.2,0-0.4,0-0.6,0.1c-0.2,0.1-0.2,0.3-0.2,0.5c0,0.2,0,0.5,0.1,0.7
		c0.1,0.2,0.1,0.4,0.2,0.5h2.1v2.3h-2v8.5h-3.6V92.6z"/>
	<path class="st0" d="M203.2,101.5c-0.9,0-1.7-0.1-2.4-0.4s-1.2-0.7-1.7-1.2s-0.8-1.1-1-1.8c-0.2-0.7-0.3-1.4-0.3-2.3
		c0-0.8,0.1-1.6,0.4-2.3c0.2-0.7,0.6-1.3,1-1.8c0.5-0.5,1-0.9,1.7-1.2c0.7-0.3,1.5-0.4,2.3-0.4s1.7,0.1,2.4,0.4
		c0.7,0.3,1.2,0.7,1.7,1.2c0.5,0.5,0.8,1.1,1,1.8s0.3,1.5,0.3,2.3c0,0.8-0.1,1.6-0.3,2.3c-0.2,0.7-0.6,1.3-1,1.8s-1,0.9-1.7,1.2
		S204.1,101.5,203.2,101.5z M203.3,98.8c0.6,0,1-0.3,1.3-0.8c0.3-0.5,0.4-1.3,0.4-2.2c0-0.9-0.1-1.6-0.4-2.2
		c-0.3-0.5-0.7-0.8-1.3-0.8s-1,0.3-1.3,0.8c-0.3,0.5-0.4,1.3-0.4,2.2c0,0.9,0.1,1.6,0.4,2.2C202.2,98.5,202.6,98.8,203.3,98.8z"/>
	<path class="st0" d="M209.8,90.4h3.2l0.3,2c0.3-0.6,0.8-1.2,1.4-1.6c0.6-0.4,1.4-0.7,2.4-0.7v3.6c-0.3-0.1-0.6-0.1-1.1-0.1
		c-0.3,0-0.6,0-0.9,0.1s-0.6,0.2-0.8,0.3c-0.2,0.2-0.4,0.5-0.6,0.8s-0.2,0.9-0.2,1.5v4.8h-3.6V90.4z"/>
	<path class="st0" d="M228.6,101.1c-0.1-0.2-0.2-0.4-0.2-0.6c-0.1-0.3-0.1-0.5-0.1-0.7c-0.2,0.4-0.5,0.8-1,1.1
		c-0.5,0.3-1.1,0.5-1.9,0.5c-0.6,0-1.1-0.1-1.5-0.3c-0.4-0.2-0.8-0.4-1.1-0.7c-0.3-0.3-0.5-0.7-0.7-1.1c-0.2-0.4-0.2-0.9-0.2-1.4
		c0-0.5,0.1-1,0.3-1.4c0.2-0.4,0.5-0.7,0.8-1s0.8-0.5,1.3-0.7c0.5-0.2,1.1-0.3,1.7-0.4l2.2-0.3v-0.2c0-0.5-0.1-0.8-0.3-0.9
		c-0.2-0.2-0.6-0.2-1-0.2c-0.7,0-1.2,0.1-1.7,0.4c-0.5,0.2-0.9,0.5-1.3,0.8l-1.7-2.3c0.2-0.2,0.5-0.4,0.8-0.6
		c0.3-0.2,0.7-0.4,1.1-0.5s0.9-0.3,1.4-0.4c0.5-0.1,1.1-0.1,1.7-0.1c1.6,0,2.7,0.3,3.4,1c0.7,0.7,1,1.7,1,3.1V98c0,0.5,0,0.8,0,1.1
		c0,0.3,0,0.6,0.1,0.8s0.1,0.4,0.1,0.6c0.1,0.2,0.1,0.4,0.2,0.6H228.6z M228,96.4l-1.5,0.3c-0.5,0.1-0.9,0.2-1.1,0.4
		c-0.2,0.2-0.3,0.5-0.3,0.8c0,0.3,0.1,0.6,0.3,0.8s0.5,0.3,0.8,0.3c0.5,0,0.9-0.2,1.3-0.6c0.3-0.4,0.5-0.9,0.5-1.6V96.4z"/>
	<path class="st0" d="M242.9,98.9c-0.5,0.9-1.2,1.6-2,2s-1.8,0.6-2.8,0.6c-1,0-1.8-0.1-2.5-0.4s-1.3-0.7-1.7-1.2
		c-0.4-0.5-0.8-1.1-1-1.8c-0.2-0.7-0.3-1.4-0.3-2.2c0-0.9,0.1-1.7,0.4-2.4c0.3-0.7,0.6-1.3,1.1-1.8c0.5-0.5,1-0.9,1.7-1.2
		c0.7-0.3,1.4-0.4,2.3-0.4c1.1,0,2.1,0.2,2.8,0.7c0.8,0.5,1.4,1.1,2,2l-2.9,1.4c-0.2-0.5-0.5-0.9-0.8-1.1s-0.6-0.3-1-0.3
		c-0.7,0-1.1,0.3-1.4,0.8c-0.3,0.5-0.4,1.2-0.4,2.1c0,0.3,0,0.7,0.1,1.1c0.1,0.4,0.2,0.7,0.3,1c0.1,0.3,0.4,0.6,0.6,0.8
		c0.3,0.2,0.6,0.3,1.1,0.3c0.5,0,0.9-0.1,1.2-0.4c0.3-0.3,0.6-0.6,0.8-1.1L242.9,98.9z"/>
	<path class="st0" d="M253.3,98.9c-0.5,0.9-1.2,1.6-2,2s-1.8,0.6-2.8,0.6c-1,0-1.8-0.1-2.5-0.4s-1.3-0.7-1.7-1.2
		c-0.4-0.5-0.8-1.1-1-1.8c-0.2-0.7-0.3-1.4-0.3-2.2c0-0.9,0.1-1.7,0.4-2.4c0.3-0.7,0.6-1.3,1.1-1.8c0.5-0.5,1-0.9,1.7-1.2
		c0.7-0.3,1.4-0.4,2.3-0.4c1.1,0,2.1,0.2,2.8,0.7c0.8,0.5,1.4,1.1,2,2l-2.9,1.4c-0.2-0.5-0.5-0.9-0.8-1.1s-0.6-0.3-1-0.3
		c-0.7,0-1.1,0.3-1.4,0.8c-0.3,0.5-0.4,1.2-0.4,2.1c0,0.3,0,0.7,0.1,1.1c0.1,0.4,0.2,0.7,0.3,1c0.1,0.3,0.4,0.6,0.6,0.8
		c0.3,0.2,0.6,0.3,1.1,0.3c0.5,0,0.9-0.1,1.2-0.4c0.3-0.3,0.6-0.6,0.8-1.1L253.3,98.9z"/>
	<path class="st0" d="M254.1,90.4h3.6v5.9c0,0.7,0.1,1.2,0.3,1.5c0.2,0.3,0.6,0.5,1.1,0.5c0.6,0,1-0.2,1.3-0.7
		c0.3-0.4,0.5-1.1,0.5-2.1v-5.2h3.5v10.8H261v-1.6c-0.3,0.6-0.7,1-1.2,1.3c-0.5,0.3-1.2,0.5-2.1,0.5c-1.3,0-2.2-0.4-2.8-1.1
		s-0.9-1.8-0.9-3.2V90.4z"/>
	<path class="st0" d="M266,90.4h3.2l0.3,2c0.3-0.6,0.8-1.2,1.4-1.6c0.6-0.4,1.4-0.7,2.4-0.7v3.6c-0.3-0.1-0.6-0.1-1.1-0.1
		c-0.3,0-0.6,0-0.9,0.1s-0.6,0.2-0.8,0.3c-0.2,0.2-0.4,0.5-0.6,0.8s-0.2,0.9-0.2,1.5v4.8H266V90.4z"/>
	<path class="st0" d="M280.2,101.1c-0.1-0.2-0.2-0.4-0.2-0.6c-0.1-0.3-0.1-0.5-0.1-0.7c-0.2,0.4-0.5,0.8-1,1.1
		c-0.5,0.3-1.1,0.5-1.9,0.5c-0.6,0-1.1-0.1-1.5-0.3c-0.4-0.2-0.8-0.4-1.1-0.7c-0.3-0.3-0.5-0.7-0.7-1.1c-0.2-0.4-0.2-0.9-0.2-1.4
		c0-0.5,0.1-1,0.3-1.4c0.2-0.4,0.5-0.7,0.8-1s0.8-0.5,1.3-0.7c0.5-0.2,1.1-0.3,1.7-0.4l2.2-0.3v-0.2c0-0.5-0.1-0.8-0.3-0.9
		c-0.2-0.2-0.6-0.2-1-0.2c-0.7,0-1.2,0.1-1.7,0.4c-0.5,0.2-0.9,0.5-1.3,0.8l-1.7-2.3c0.2-0.2,0.5-0.4,0.8-0.6
		c0.3-0.2,0.7-0.4,1.1-0.5s0.9-0.3,1.4-0.4c0.5-0.1,1.1-0.1,1.7-0.1c1.6,0,2.7,0.3,3.4,1c0.7,0.7,1,1.7,1,3.1V98c0,0.5,0,0.8,0,1.1
		c0,0.3,0,0.6,0.1,0.8s0.1,0.4,0.1,0.6c0.1,0.2,0.1,0.4,0.2,0.6H280.2z M279.7,96.4l-1.5,0.3c-0.5,0.1-0.9,0.2-1.1,0.4
		c-0.2,0.2-0.3,0.5-0.3,0.8c0,0.3,0.1,0.6,0.3,0.8s0.5,0.3,0.8,0.3c0.5,0,0.9-0.2,1.3-0.6c0.3-0.4,0.5-0.9,0.5-1.6V96.4z"/>
	<path class="st0" d="M294.6,98.9c-0.5,0.9-1.2,1.6-2,2s-1.8,0.6-2.8,0.6c-1,0-1.8-0.1-2.5-0.4s-1.3-0.7-1.7-1.2
		c-0.4-0.5-0.8-1.1-1-1.8c-0.2-0.7-0.3-1.4-0.3-2.2c0-0.9,0.1-1.7,0.4-2.4c0.3-0.7,0.6-1.3,1.1-1.8c0.5-0.5,1-0.9,1.7-1.2
		c0.7-0.3,1.4-0.4,2.3-0.4c1.1,0,2.1,0.2,2.8,0.7c0.8,0.5,1.4,1.1,2,2l-2.9,1.4c-0.2-0.5-0.5-0.9-0.8-1.1s-0.6-0.3-1-0.3
		c-0.7,0-1.1,0.3-1.4,0.8c-0.3,0.5-0.4,1.2-0.4,2.1c0,0.3,0,0.7,0.1,1.1c0.1,0.4,0.2,0.7,0.3,1c0.1,0.3,0.4,0.6,0.6,0.8
		c0.3,0.2,0.6,0.3,1.1,0.3c0.5,0,0.9-0.1,1.2-0.4c0.3-0.3,0.6-0.6,0.8-1.1L294.6,98.9z"/>
	<path class="st0" d="M295.5,102.2c0.3,0.1,0.5,0.2,0.8,0.2c0.3,0.1,0.5,0.1,0.7,0.1c0.3,0,0.6-0.1,0.8-0.2c0.2-0.1,0.3-0.4,0.4-0.8
		l-3.9-11.1h3.8l1.9,7.2l1.8-7.2h3.8l-3.7,10.7c-0.2,0.6-0.4,1.1-0.6,1.6c-0.2,0.5-0.5,0.9-0.8,1.3s-0.8,0.6-1.3,0.8
		c-0.5,0.2-1.2,0.3-2,0.3c-0.1,0-0.3,0-0.5,0c-0.2,0-0.4,0-0.6,0c-0.2,0-0.4,0-0.6-0.1c-0.2,0-0.3-0.1-0.5-0.1L295.5,102.2z"/>
	<path class="st0" d="M305.4,97.2h3.9v3.9h-3.9V97.2z"/>
</g>
<g>
	<path class="st1" d="M30.8,118.4c-0.3,0.5-0.7,0.9-1.2,1.2c-0.5,0.3-1.2,0.5-2,0.5c-0.9,0-1.6-0.1-2.3-0.4
		c-0.6-0.3-1.2-0.7-1.6-1.2c-0.4-0.5-0.8-1.1-1-1.8c-0.2-0.7-0.3-1.5-0.3-2.3c0-0.8,0.1-1.6,0.4-2.3c0.2-0.7,0.6-1.3,1-1.8
		c0.5-0.5,1-0.9,1.7-1.2c0.7-0.3,1.4-0.4,2.3-0.4c1,0,1.9,0.2,2.7,0.6c0.8,0.4,1.5,1,2,1.8l-2.2,1.1c-0.1-0.2-0.2-0.5-0.4-0.7
		c-0.2-0.2-0.4-0.4-0.6-0.5c-0.2-0.1-0.5-0.2-0.7-0.3c-0.3-0.1-0.5-0.1-0.8-0.1c-0.5,0-0.9,0.1-1.3,0.3c-0.4,0.2-0.7,0.5-0.9,0.8
		c-0.2,0.3-0.4,0.7-0.5,1.2c-0.1,0.5-0.2,0.9-0.2,1.5s0.1,1,0.2,1.5s0.3,0.9,0.6,1.2c0.2,0.3,0.6,0.6,0.9,0.8
		c0.4,0.2,0.8,0.3,1.2,0.3c0.5,0,0.9-0.1,1.2-0.2c0.3-0.2,0.6-0.3,0.8-0.6c0.2-0.2,0.4-0.5,0.5-0.7c0.1-0.3,0.2-0.5,0.2-0.8v-0.2H28
		v-1.7h4.5v6h-1.4L30.8,118.4z"/>
	<path class="st1" d="M35.8,116.4c0.1,0.7,0.3,1.3,0.6,1.6c0.3,0.3,0.8,0.5,1.3,0.5c0.7,0,1.3-0.3,1.7-1l1.6,0.9
		c-0.4,0.6-0.8,1-1.4,1.3s-1.2,0.4-2,0.4c-0.6,0-1.2-0.1-1.7-0.3c-0.5-0.2-0.9-0.5-1.2-0.9c-0.3-0.4-0.6-0.8-0.8-1.3s-0.3-1-0.3-1.6
		c0-0.6,0.1-1.1,0.3-1.7c0.2-0.5,0.4-1,0.7-1.3c0.3-0.4,0.7-0.7,1.2-0.9c0.5-0.2,1-0.3,1.6-0.3c0.6,0,1.1,0.1,1.6,0.3
		c0.5,0.2,0.8,0.5,1.1,0.9c0.3,0.4,0.5,0.8,0.7,1.3c0.2,0.5,0.2,1.1,0.2,1.7c0,0.1,0,0.2,0,0.3c0,0.1,0,0.1,0,0.1H35.8z M37.4,113.3
		c-0.5,0-0.9,0.2-1.1,0.5c-0.3,0.3-0.4,0.8-0.5,1.4H39c0-0.2,0-0.5-0.1-0.7c-0.1-0.2-0.2-0.4-0.3-0.6c-0.1-0.2-0.3-0.3-0.5-0.4
		C37.9,113.4,37.7,113.3,37.4,113.3z"/>
	<path class="st1" d="M42.6,113.4h-1.3V112h0.2c0.4,0,0.6-0.1,0.8-0.2c0.2-0.1,0.4-0.3,0.5-0.5c0.1-0.2,0.2-0.4,0.3-0.7
		c0.1-0.3,0.1-0.6,0.2-0.9h1.3v2.2h1.7v1.4h-1.7v4.1c0,0.3,0.1,0.6,0.2,0.7c0.1,0.2,0.3,0.2,0.7,0.2c0.1,0,0.2,0,0.3,0
		c0.1,0,0.3-0.1,0.4-0.1l0.2,1.5c-0.3,0.1-0.5,0.2-0.8,0.2c-0.3,0-0.5,0.1-0.8,0.1c-0.4,0-0.8-0.1-1.1-0.2c-0.3-0.1-0.5-0.3-0.7-0.5
		c-0.2-0.2-0.3-0.5-0.4-0.7c-0.1-0.3-0.1-0.6-0.1-0.9V113.4z"/>
	<path class="st1" d="M60.1,117.4c-0.5,0.9-1.2,1.6-1.9,2c-0.7,0.4-1.7,0.7-2.8,0.7c-0.9,0-1.7-0.1-2.3-0.4s-1.2-0.7-1.7-1.2
		c-0.5-0.5-0.8-1.1-1-1.8s-0.3-1.5-0.3-2.3c0-0.8,0.1-1.6,0.4-2.3c0.2-0.7,0.6-1.3,1-1.8c0.5-0.5,1-0.9,1.7-1.2
		c0.7-0.3,1.4-0.4,2.3-0.4c1,0,1.9,0.2,2.6,0.5c0.8,0.4,1.4,1,2,1.9l-2.2,1.1c-0.2-0.5-0.6-0.9-1-1.1c-0.4-0.3-0.9-0.4-1.5-0.4
		c-0.5,0-0.9,0.1-1.3,0.3c-0.4,0.2-0.7,0.5-0.9,0.8c-0.2,0.3-0.4,0.7-0.6,1.2c-0.1,0.5-0.2,0.9-0.2,1.5s0.1,1,0.2,1.5
		s0.3,0.9,0.6,1.2s0.6,0.6,1,0.8c0.4,0.2,0.8,0.3,1.3,0.3c0.6,0,1.1-0.1,1.5-0.4s0.8-0.7,1-1.3L60.1,117.4z"/>
	<path class="st1" d="M61.1,108.8h2.1v11h-2.1V108.8z"/>
	<path class="st1" d="M69.4,119.8c-0.1-0.1-0.1-0.3-0.1-0.5c0-0.2-0.1-0.4-0.1-0.6c-0.2,0.4-0.4,0.7-0.8,1c-0.4,0.3-0.9,0.4-1.5,0.4
		c-0.8,0-1.4-0.2-1.9-0.7c-0.4-0.5-0.7-1.1-0.7-1.8c0-0.4,0.1-0.8,0.2-1c0.1-0.3,0.3-0.5,0.6-0.7c0.3-0.2,0.6-0.4,0.9-0.5
		c0.4-0.1,0.8-0.2,1.2-0.3l1.7-0.3v-0.3c0-0.5-0.1-0.8-0.3-0.9c-0.2-0.1-0.5-0.2-0.9-0.2c-0.5,0-1,0.1-1.3,0.3
		c-0.4,0.2-0.7,0.4-0.9,0.7l-1-1.4c0.3-0.3,0.8-0.6,1.4-0.8c0.6-0.2,1.3-0.4,2.2-0.4c1.1,0,1.9,0.2,2.4,0.7c0.5,0.5,0.7,1.2,0.7,2.2
		v2.9c0,0.3,0,0.6,0,0.8c0,0.2,0,0.4,0,0.6c0,0.2,0.1,0.3,0.1,0.5c0,0.1,0.1,0.3,0.2,0.5H69.4z M69,116.1l-1.4,0.2
		c-0.5,0.1-0.8,0.2-1,0.4c-0.2,0.2-0.3,0.4-0.3,0.7s0.1,0.6,0.3,0.8s0.4,0.3,0.8,0.3c0.4,0,0.8-0.2,1.1-0.5c0.3-0.3,0.5-0.8,0.5-1.4
		V116.1z"/>
	<path class="st1" d="M72.6,108.9h2.1v1.7h-2.1V108.9z M72.6,112h2.1v7.8h-2.1V112z"/>
	<path class="st1" d="M76.1,112H78l0.2,1.3c0.2-0.5,0.5-0.8,0.9-1.1c0.4-0.3,0.8-0.4,1.4-0.4c0.6,0,1.1,0.2,1.5,0.5
		c0.3,0.3,0.6,0.7,0.7,1.1c0.1-0.2,0.2-0.4,0.3-0.6c0.1-0.2,0.3-0.4,0.5-0.5c0.2-0.1,0.4-0.3,0.7-0.3c0.3-0.1,0.6-0.1,1-0.1
		c0.5,0,0.9,0.1,1.3,0.3c0.3,0.2,0.6,0.4,0.8,0.7s0.3,0.6,0.4,1s0.1,0.8,0.1,1.2v4.9h-2.1v-4.3c0-0.6-0.1-1.1-0.3-1.4
		c-0.2-0.3-0.5-0.5-0.9-0.5c-0.2,0-0.3,0-0.5,0.1c-0.2,0.1-0.3,0.2-0.4,0.4c-0.1,0.2-0.2,0.4-0.3,0.7c-0.1,0.3-0.1,0.6-0.1,1v4h-2.1
		v-4.4c0-1.2-0.4-1.8-1.2-1.8c-0.2,0-0.3,0-0.5,0.1c-0.2,0.1-0.3,0.2-0.4,0.4c-0.1,0.2-0.2,0.4-0.3,0.7c-0.1,0.3-0.1,0.7-0.1,1.1
		v3.9h-2.1V112z"/>
	<path class="st1" d="M89.1,108.8h4.3c0.5,0,1.1,0.1,1.6,0.2c0.5,0.1,0.9,0.3,1.3,0.6c0.4,0.3,0.7,0.6,0.9,1.1
		c0.2,0.4,0.3,1,0.3,1.6c0,0.7-0.1,1.2-0.3,1.7c-0.2,0.5-0.5,0.8-0.9,1.1c-0.4,0.3-0.8,0.5-1.3,0.6c-0.5,0.1-1,0.2-1.6,0.2h-2v4
		h-2.3V108.8z M93,114.1c0.3,0,0.6,0,0.8-0.1c0.2-0.1,0.5-0.2,0.6-0.3c0.2-0.1,0.3-0.3,0.4-0.6c0.1-0.2,0.1-0.5,0.1-0.9
		c0-0.3-0.1-0.6-0.2-0.8c-0.1-0.2-0.3-0.4-0.4-0.5c-0.2-0.1-0.4-0.2-0.7-0.3s-0.5-0.1-0.8-0.1h-1.7v3.5H93z"/>
	<path class="st1" d="M102.9,119.8c-0.1-0.1-0.1-0.3-0.1-0.5c0-0.2-0.1-0.4-0.1-0.6c-0.2,0.4-0.4,0.7-0.8,1
		c-0.4,0.3-0.9,0.4-1.5,0.4c-0.8,0-1.4-0.2-1.9-0.7c-0.4-0.5-0.7-1.1-0.7-1.8c0-0.4,0.1-0.8,0.2-1c0.1-0.3,0.3-0.5,0.6-0.7
		c0.3-0.2,0.6-0.4,0.9-0.5c0.4-0.1,0.8-0.2,1.2-0.3l1.7-0.3v-0.3c0-0.5-0.1-0.8-0.3-0.9c-0.2-0.1-0.5-0.2-0.9-0.2
		c-0.5,0-1,0.1-1.3,0.3c-0.4,0.2-0.7,0.4-0.9,0.7l-1-1.4c0.3-0.3,0.8-0.6,1.4-0.8c0.6-0.2,1.3-0.4,2.2-0.4c1.1,0,1.9,0.2,2.4,0.7
		c0.5,0.5,0.7,1.2,0.7,2.2v2.9c0,0.3,0,0.6,0,0.8c0,0.2,0,0.4,0,0.6c0,0.2,0.1,0.3,0.1,0.5c0,0.1,0.1,0.3,0.2,0.5H102.9z
		 M102.5,116.1l-1.4,0.2c-0.5,0.1-0.8,0.2-1,0.4c-0.2,0.2-0.3,0.4-0.3,0.7s0.1,0.6,0.3,0.8s0.4,0.3,0.8,0.3c0.4,0,0.8-0.2,1.1-0.5
		c0.3-0.3,0.5-0.8,0.5-1.4V116.1z"/>
	<path class="st1" d="M106.6,117.5c0.1,0.1,0.3,0.3,0.4,0.4s0.4,0.2,0.6,0.3c0.2,0.1,0.4,0.2,0.6,0.2s0.5,0.1,0.7,0.1
		c0.3,0,0.5-0.1,0.8-0.2c0.2-0.1,0.4-0.3,0.4-0.6c0-0.2-0.1-0.4-0.3-0.6c-0.2-0.1-0.5-0.3-0.8-0.4s-0.7-0.2-1-0.3
		c-0.4-0.1-0.7-0.2-1-0.4c-0.3-0.2-0.6-0.4-0.8-0.7c-0.2-0.3-0.3-0.7-0.3-1.2c0-0.4,0.1-0.8,0.3-1.1c0.2-0.3,0.4-0.6,0.7-0.8
		c0.3-0.2,0.6-0.4,1-0.4c0.4-0.1,0.8-0.1,1.2-0.1c0.7,0,1.2,0.1,1.7,0.2c0.5,0.2,1,0.4,1.4,0.7l-1,1.4c-0.1-0.1-0.2-0.2-0.4-0.3
		c-0.2-0.1-0.3-0.2-0.5-0.3c-0.2-0.1-0.4-0.1-0.6-0.2c-0.2,0-0.4-0.1-0.6-0.1c-0.2,0-0.4,0.1-0.6,0.2c-0.2,0.1-0.3,0.3-0.3,0.5
		c0,0.2,0.1,0.4,0.3,0.5c0.2,0.1,0.5,0.2,0.8,0.4c0.3,0.1,0.6,0.2,1,0.3c0.4,0.1,0.7,0.3,1,0.4c0.3,0.2,0.6,0.4,0.8,0.7
		c0.2,0.3,0.3,0.7,0.3,1.1c0,0.4-0.1,0.8-0.3,1.1s-0.4,0.6-0.7,0.8s-0.6,0.4-1,0.5c-0.4,0.1-0.8,0.2-1.2,0.2c-1.4,0-2.6-0.4-3.4-1.2
		L106.6,117.5z"/>
	<path class="st1" d="M113.6,117.5c0.1,0.1,0.3,0.3,0.4,0.4s0.4,0.2,0.6,0.3c0.2,0.1,0.4,0.2,0.6,0.2s0.5,0.1,0.7,0.1
		c0.3,0,0.5-0.1,0.8-0.2c0.2-0.1,0.4-0.3,0.4-0.6c0-0.2-0.1-0.4-0.3-0.6c-0.2-0.1-0.5-0.3-0.8-0.4s-0.7-0.2-1-0.3
		c-0.4-0.1-0.7-0.2-1-0.4c-0.3-0.2-0.6-0.4-0.8-0.7c-0.2-0.3-0.3-0.7-0.3-1.2c0-0.4,0.1-0.8,0.3-1.1c0.2-0.3,0.4-0.6,0.7-0.8
		c0.3-0.2,0.6-0.4,1-0.4c0.4-0.1,0.8-0.1,1.2-0.1c0.7,0,1.2,0.1,1.7,0.2c0.5,0.2,1,0.4,1.4,0.7l-1,1.4c-0.1-0.1-0.2-0.2-0.4-0.3
		c-0.2-0.1-0.3-0.2-0.5-0.3c-0.2-0.1-0.4-0.1-0.6-0.2c-0.2,0-0.4-0.1-0.6-0.1c-0.2,0-0.4,0.1-0.6,0.2c-0.2,0.1-0.3,0.3-0.3,0.5
		c0,0.2,0.1,0.4,0.3,0.5c0.2,0.1,0.5,0.2,0.8,0.4c0.3,0.1,0.6,0.2,1,0.3c0.4,0.1,0.7,0.3,1,0.4c0.3,0.2,0.6,0.4,0.8,0.7
		c0.2,0.3,0.3,0.7,0.3,1.1c0,0.4-0.1,0.8-0.3,1.1s-0.4,0.6-0.7,0.8s-0.6,0.4-1,0.5c-0.4,0.1-0.8,0.2-1.2,0.2c-1.4,0-2.6-0.4-3.4-1.2
		L113.6,117.5z"/>
</g>
<g>
	<path class="st1" d="M120.4,117.5h2.4v2.4h-2.4V117.5z"/>
	<path class="st1" d="M135.4,118.4c-0.3,0.5-0.7,0.9-1.2,1.2c-0.5,0.3-1.2,0.5-2,0.5c-0.9,0-1.6-0.1-2.3-0.4s-1.2-0.7-1.6-1.2
		c-0.4-0.5-0.8-1.1-1-1.8c-0.2-0.7-0.3-1.5-0.3-2.3c0-0.8,0.1-1.6,0.4-2.3c0.2-0.7,0.6-1.3,1-1.8c0.5-0.5,1-0.9,1.7-1.2
		c0.7-0.3,1.4-0.4,2.3-0.4c1,0,1.9,0.2,2.7,0.6s1.5,1,2,1.8l-2.2,1.1c-0.1-0.2-0.2-0.5-0.4-0.7c-0.2-0.2-0.4-0.4-0.6-0.5
		s-0.5-0.2-0.7-0.3c-0.3-0.1-0.5-0.1-0.8-0.1c-0.5,0-0.9,0.1-1.3,0.3c-0.4,0.2-0.7,0.5-0.9,0.8c-0.2,0.3-0.4,0.7-0.5,1.2
		c-0.1,0.5-0.2,0.9-0.2,1.5s0.1,1,0.2,1.5s0.3,0.9,0.6,1.2c0.2,0.3,0.6,0.6,0.9,0.8c0.4,0.2,0.8,0.3,1.2,0.3c0.5,0,0.9-0.1,1.2-0.2
		s0.6-0.3,0.8-0.6c0.2-0.2,0.4-0.5,0.5-0.7c0.1-0.3,0.2-0.5,0.2-0.8v-0.2h-2.4v-1.7h4.5v6h-1.4L135.4,118.4z"/>
	<path class="st1" d="M140.5,116.4c0.1,0.7,0.3,1.3,0.6,1.6c0.3,0.3,0.8,0.5,1.3,0.5c0.7,0,1.3-0.3,1.7-1l1.6,0.9
		c-0.4,0.6-0.8,1-1.4,1.3s-1.2,0.4-2,0.4c-0.6,0-1.2-0.1-1.7-0.3c-0.5-0.2-0.9-0.5-1.2-0.9c-0.3-0.4-0.6-0.8-0.8-1.3
		c-0.2-0.5-0.3-1-0.3-1.6c0-0.6,0.1-1.1,0.3-1.7c0.2-0.5,0.4-1,0.7-1.3c0.3-0.4,0.7-0.7,1.2-0.9c0.5-0.2,1-0.3,1.6-0.3
		c0.6,0,1.1,0.1,1.6,0.3c0.5,0.2,0.8,0.5,1.1,0.9s0.5,0.8,0.7,1.3c0.2,0.5,0.2,1.1,0.2,1.7c0,0.1,0,0.2,0,0.3c0,0.1,0,0.1,0,0.1
		H140.5z M142.1,113.3c-0.5,0-0.9,0.2-1.1,0.5s-0.4,0.8-0.5,1.4h3.2c0-0.2,0-0.5-0.1-0.7c-0.1-0.2-0.2-0.4-0.3-0.6
		c-0.1-0.2-0.3-0.3-0.5-0.4S142.3,113.3,142.1,113.3z"/>
	<path class="st1" d="M147.2,113.4h-1.3V112h0.2c0.4,0,0.6-0.1,0.8-0.2s0.4-0.3,0.5-0.5c0.1-0.2,0.2-0.4,0.3-0.7
		c0.1-0.3,0.1-0.6,0.2-0.9h1.3v2.2h1.7v1.4h-1.7v4.1c0,0.3,0.1,0.6,0.2,0.7c0.1,0.2,0.3,0.2,0.7,0.2c0.1,0,0.2,0,0.3,0
		c0.1,0,0.3-0.1,0.4-0.1l0.2,1.5c-0.3,0.1-0.5,0.2-0.8,0.2c-0.3,0-0.5,0.1-0.8,0.1c-0.4,0-0.8-0.1-1.1-0.2c-0.3-0.1-0.5-0.3-0.7-0.5
		c-0.2-0.2-0.3-0.5-0.4-0.7c-0.1-0.3-0.1-0.6-0.1-0.9V113.4z"/>
	<path class="st1" d="M155,112h1.9l0.2,1.3c0.2-0.5,0.5-0.8,0.9-1.1c0.4-0.3,0.8-0.4,1.4-0.4c0.6,0,1.1,0.2,1.5,0.5
		c0.3,0.3,0.6,0.7,0.7,1.1c0.1-0.2,0.2-0.4,0.3-0.6s0.3-0.4,0.5-0.5c0.2-0.1,0.4-0.3,0.7-0.3c0.3-0.1,0.6-0.1,1-0.1
		c0.5,0,0.9,0.1,1.3,0.3s0.6,0.4,0.8,0.7c0.2,0.3,0.3,0.6,0.4,1c0.1,0.4,0.1,0.8,0.1,1.2v4.9h-2.1v-4.3c0-0.6-0.1-1.1-0.3-1.4
		c-0.2-0.3-0.5-0.5-0.9-0.5c-0.2,0-0.3,0-0.5,0.1c-0.2,0.1-0.3,0.2-0.4,0.4c-0.1,0.2-0.2,0.4-0.3,0.7c-0.1,0.3-0.1,0.6-0.1,1v4h-2.1
		v-4.4c0-1.2-0.4-1.8-1.2-1.8c-0.2,0-0.3,0-0.5,0.1c-0.2,0.1-0.3,0.2-0.4,0.4c-0.1,0.2-0.2,0.4-0.3,0.7c-0.1,0.3-0.1,0.7-0.1,1.1
		v3.9H155V112z"/>
	<path class="st1" d="M171.3,120.1c-0.6,0-1.2-0.1-1.7-0.3c-0.5-0.2-0.9-0.5-1.2-0.9c-0.3-0.4-0.6-0.8-0.7-1.3s-0.2-1.1-0.2-1.6
		s0.1-1.1,0.2-1.6c0.2-0.5,0.4-0.9,0.7-1.3s0.7-0.7,1.2-0.9c0.5-0.2,1-0.3,1.6-0.3s1.2,0.1,1.7,0.3c0.5,0.2,0.9,0.5,1.2,0.9
		c0.3,0.4,0.6,0.8,0.7,1.3c0.2,0.5,0.2,1.1,0.2,1.6s-0.1,1.1-0.2,1.6s-0.4,0.9-0.7,1.3c-0.3,0.4-0.7,0.7-1.2,0.9
		C172.5,120,172,120.1,171.3,120.1z M171.4,118.4c0.5,0,0.9-0.2,1.2-0.7c0.3-0.5,0.4-1.1,0.4-1.8c0-0.7-0.1-1.3-0.4-1.8
		c-0.3-0.5-0.7-0.7-1.2-0.7c-0.6,0-1,0.2-1.2,0.7c-0.3,0.5-0.4,1.1-0.4,1.8c0,0.7,0.1,1.4,0.4,1.8
		C170.4,118.2,170.8,118.4,171.4,118.4z"/>
	<path class="st1" d="M176.2,112h1.9l0.2,1.5c0.2-0.5,0.6-0.9,1-1.3c0.4-0.3,1-0.5,1.7-0.5v2.2c-0.1,0-0.2,0-0.3,0
		c-0.1,0-0.2,0-0.4,0c-0.2,0-0.5,0-0.7,0.1s-0.4,0.2-0.6,0.3c-0.2,0.2-0.3,0.4-0.5,0.7s-0.2,0.7-0.2,1.1v3.7h-2.1V112z"/>
	<path class="st1" d="M183.3,116.4c0.1,0.7,0.3,1.3,0.6,1.6c0.3,0.3,0.8,0.5,1.3,0.5c0.7,0,1.3-0.3,1.7-1l1.6,0.9
		c-0.4,0.6-0.8,1-1.4,1.3s-1.2,0.4-2,0.4c-0.6,0-1.2-0.1-1.7-0.3c-0.5-0.2-0.9-0.5-1.2-0.9c-0.3-0.4-0.6-0.8-0.8-1.3
		c-0.2-0.5-0.3-1-0.3-1.6c0-0.6,0.1-1.1,0.3-1.7c0.2-0.5,0.4-1,0.7-1.3c0.3-0.4,0.7-0.7,1.2-0.9c0.5-0.2,1-0.3,1.6-0.3
		c0.6,0,1.1,0.1,1.6,0.3c0.5,0.2,0.8,0.5,1.1,0.9s0.5,0.8,0.7,1.3c0.2,0.5,0.2,1.1,0.2,1.7c0,0.1,0,0.2,0,0.3c0,0.1,0,0.1,0,0.1
		H183.3z M184.9,113.3c-0.5,0-0.9,0.2-1.1,0.5s-0.4,0.8-0.5,1.4h3.2c0-0.2,0-0.5-0.1-0.7c-0.1-0.2-0.2-0.4-0.3-0.6
		c-0.1-0.2-0.3-0.3-0.5-0.4S185.2,113.3,184.9,113.3z"/>
	<path class="st1" d="M193.4,117.5c0.1,0.1,0.3,0.3,0.4,0.4c0.2,0.1,0.4,0.2,0.6,0.3c0.2,0.1,0.4,0.2,0.6,0.2
		c0.2,0.1,0.5,0.1,0.7,0.1c0.3,0,0.5-0.1,0.8-0.2c0.2-0.1,0.4-0.3,0.4-0.6c0-0.2-0.1-0.4-0.3-0.6c-0.2-0.1-0.5-0.3-0.8-0.4
		c-0.3-0.1-0.7-0.2-1-0.3c-0.4-0.1-0.7-0.2-1-0.4s-0.6-0.4-0.8-0.7c-0.2-0.3-0.3-0.7-0.3-1.2c0-0.4,0.1-0.8,0.3-1.1
		c0.2-0.3,0.4-0.6,0.7-0.8c0.3-0.2,0.6-0.4,1-0.4c0.4-0.1,0.8-0.1,1.2-0.1c0.7,0,1.2,0.1,1.7,0.2c0.5,0.2,1,0.4,1.4,0.7l-1,1.4
		c-0.1-0.1-0.2-0.2-0.4-0.3c-0.2-0.1-0.3-0.2-0.5-0.3c-0.2-0.1-0.4-0.1-0.6-0.2c-0.2,0-0.4-0.1-0.6-0.1c-0.2,0-0.5,0.1-0.6,0.2
		s-0.3,0.3-0.3,0.5c0,0.2,0.1,0.4,0.3,0.5s0.5,0.2,0.8,0.4c0.3,0.1,0.6,0.2,1,0.3c0.4,0.1,0.7,0.3,1,0.4c0.3,0.2,0.6,0.4,0.8,0.7
		c0.2,0.3,0.3,0.7,0.3,1.1c0,0.4-0.1,0.8-0.3,1.1c-0.2,0.3-0.4,0.6-0.7,0.8c-0.3,0.2-0.6,0.4-1,0.5c-0.4,0.1-0.8,0.2-1.2,0.2
		c-1.4,0-2.6-0.4-3.4-1.2L193.4,117.5z"/>
	<path class="st1" d="M204.7,119.8c-0.1-0.1-0.1-0.3-0.1-0.5c0-0.2-0.1-0.4-0.1-0.6c-0.2,0.4-0.4,0.7-0.8,1
		c-0.4,0.3-0.9,0.4-1.5,0.4c-0.8,0-1.4-0.2-1.9-0.7c-0.4-0.5-0.7-1.1-0.7-1.8c0-0.4,0.1-0.8,0.2-1c0.1-0.3,0.3-0.5,0.6-0.7
		c0.3-0.2,0.6-0.4,0.9-0.5c0.4-0.1,0.8-0.2,1.2-0.3l1.7-0.3v-0.3c0-0.5-0.1-0.8-0.3-0.9s-0.5-0.2-0.9-0.2c-0.5,0-1,0.1-1.3,0.3
		c-0.4,0.2-0.7,0.4-0.9,0.7l-1-1.4c0.3-0.3,0.8-0.6,1.4-0.8c0.6-0.2,1.3-0.4,2.2-0.4c1.1,0,1.9,0.2,2.4,0.7c0.5,0.5,0.7,1.2,0.7,2.2
		v2.9c0,0.3,0,0.6,0,0.8c0,0.2,0,0.4,0,0.6c0,0.2,0.1,0.3,0.1,0.5c0,0.1,0.1,0.3,0.2,0.5H204.7z M204.4,116.1l-1.4,0.2
		c-0.5,0.1-0.8,0.2-1,0.4c-0.2,0.2-0.3,0.4-0.3,0.7s0.1,0.6,0.3,0.8s0.4,0.3,0.8,0.3c0.4,0,0.8-0.2,1.1-0.5c0.3-0.3,0.5-0.8,0.5-1.4
		V116.1z"/>
	<path class="st1" d="M207.1,112h2.4l1.5,5.8l1.5-5.8h2.3l-2.6,7.8h-2.5L207.1,112z"/>
	<path class="st1" d="M215.4,108.9h2.1v1.7h-2.1V108.9z M215.4,112h2.1v7.8h-2.1V112z"/>
	<path class="st1" d="M219,112h1.9l0.2,1.3c0.2-0.4,0.5-0.8,1-1.1c0.4-0.3,0.9-0.4,1.5-0.4c0.9,0,1.5,0.3,1.9,0.8
		c0.4,0.5,0.6,1.3,0.6,2.4v4.9h-2.1v-4.4c0-0.7-0.1-1.1-0.3-1.4c-0.2-0.3-0.5-0.4-1-0.4c-0.4,0-0.8,0.2-1.1,0.5s-0.4,1-0.4,1.8v3.9
		H219V112z"/>
	<path class="st1" d="M228.3,120.1c0.3,0.3,0.7,0.5,1.1,0.7s0.9,0.3,1.4,0.3c0.6,0,1-0.2,1.2-0.5c0.2-0.3,0.3-0.7,0.3-1.2v-1
		c-0.2,0.3-0.4,0.6-0.8,0.9s-0.8,0.3-1.4,0.3c-0.4,0-0.8-0.1-1.2-0.2c-0.4-0.1-0.7-0.4-1-0.7s-0.5-0.7-0.7-1.2
		c-0.2-0.5-0.2-1.1-0.2-1.7c0-0.6,0.1-1.2,0.2-1.7s0.4-0.9,0.6-1.3s0.6-0.6,1-0.8c0.4-0.2,0.8-0.3,1.3-0.3c0.5,0,1,0.1,1.4,0.4
		c0.4,0.2,0.7,0.6,0.9,1.1l0.3-1.2h1.7v7.4c0,0.5-0.1,0.9-0.2,1.3c-0.1,0.4-0.3,0.8-0.6,1.1c-0.3,0.3-0.7,0.5-1.1,0.7
		c-0.5,0.2-1,0.3-1.7,0.3c-0.8,0-1.6-0.1-2.2-0.3c-0.6-0.2-1.1-0.5-1.5-0.7L228.3,120.1z M232.3,115.7c0-0.3,0-0.5-0.1-0.8
		s-0.1-0.5-0.2-0.7c-0.1-0.2-0.3-0.4-0.5-0.5c-0.2-0.1-0.4-0.2-0.7-0.2c-0.5,0-0.8,0.2-1.1,0.6s-0.4,1-0.4,1.7
		c0,0.7,0.1,1.2,0.4,1.6c0.2,0.4,0.6,0.6,1.2,0.6c0.5,0,0.9-0.2,1.1-0.6s0.4-0.9,0.4-1.5V115.7z"/>
	<path class="st1" d="M236.3,117.5c0.1,0.1,0.3,0.3,0.4,0.4c0.2,0.1,0.4,0.2,0.6,0.3c0.2,0.1,0.4,0.2,0.6,0.2
		c0.2,0.1,0.5,0.1,0.7,0.1c0.3,0,0.5-0.1,0.8-0.2c0.2-0.1,0.4-0.3,0.4-0.6c0-0.2-0.1-0.4-0.3-0.6c-0.2-0.1-0.5-0.3-0.8-0.4
		c-0.3-0.1-0.7-0.2-1-0.3c-0.4-0.1-0.7-0.2-1-0.4s-0.6-0.4-0.8-0.7c-0.2-0.3-0.3-0.7-0.3-1.2c0-0.4,0.1-0.8,0.3-1.1
		c0.2-0.3,0.4-0.6,0.7-0.8c0.3-0.2,0.6-0.4,1-0.4c0.4-0.1,0.8-0.1,1.2-0.1c0.7,0,1.2,0.1,1.7,0.2c0.5,0.2,1,0.4,1.4,0.7l-1,1.4
		c-0.1-0.1-0.2-0.2-0.4-0.3c-0.2-0.1-0.3-0.2-0.5-0.3c-0.2-0.1-0.4-0.1-0.6-0.2c-0.2,0-0.4-0.1-0.6-0.1c-0.2,0-0.5,0.1-0.6,0.2
		s-0.3,0.3-0.3,0.5c0,0.2,0.1,0.4,0.3,0.5s0.5,0.2,0.8,0.4c0.3,0.1,0.6,0.2,1,0.3c0.4,0.1,0.7,0.3,1,0.4c0.3,0.2,0.6,0.4,0.8,0.7
		c0.2,0.3,0.3,0.7,0.3,1.1c0,0.4-0.1,0.8-0.3,1.1c-0.2,0.3-0.4,0.6-0.7,0.8c-0.3,0.2-0.6,0.4-1,0.5c-0.4,0.1-0.8,0.2-1.2,0.2
		c-1.4,0-2.6-0.4-3.4-1.2L236.3,117.5z"/>
	<path class="st1" d="M242.7,117.5h2.4v2.4h-2.4V117.5z"/>
</g>
</svg>
