<?xml version="1.0" encoding="utf-8"?>
<!-- Generator: Adobe Illustrator 22.1.0, SVG Export Plug-In . SVG Version: 6.00 Build 0)  -->
<svg version="1.1" id="Layer_1" xmlns="https://www.w3.org/2000/svg" xmlns:xlink="https://www.w3.org/1999/xlink" x="0px" y="0px"
	 viewBox="0 0 336 280" style="enable-background:new 0 0 336 280;" xml:space="preserve">
<style type="text/css">
	.copy_purpleFill{fill:#662868;}
</style>
<g>
	<path class="copy_purpleFill" d="M41.5,177.9c-1,1.7-2.2,2.9-3.5,3.6c-1.4,0.8-3,1.1-5,1.1c-1.6,0-3.1-0.3-4.3-0.8c-1.2-0.5-2.3-1.2-3.1-2.1
		c-0.8-0.9-1.5-2-1.9-3.2c-0.4-1.2-0.6-2.6-0.6-4.1c0-1.5,0.2-2.9,0.7-4.1s1.1-2.3,1.9-3.2c0.8-0.9,1.9-1.6,3.1-2.1
		c1.2-0.5,2.6-0.7,4.2-0.7c1.8,0,3.4,0.3,4.8,1s2.7,1.8,3.8,3.4l-4.7,2.4c-0.4-0.8-0.9-1.4-1.5-1.8c-0.7-0.4-1.4-0.6-2.3-0.6
		c-0.8,0-1.5,0.2-2.1,0.5c-0.6,0.3-1,0.7-1.4,1.2c-0.4,0.5-0.7,1.1-0.8,1.8s-0.3,1.5-0.3,2.3c0,0.8,0.1,1.6,0.3,2.3
		c0.2,0.7,0.5,1.3,0.9,1.8c0.4,0.5,0.9,0.9,1.5,1.3s1.2,0.5,2,0.5c0.8,0,1.6-0.2,2.2-0.7c0.7-0.4,1.2-1.2,1.6-2.2L41.5,177.9z"/>
	<path class="copy_purpleFill" d="M42.6,168.3h4.1l0.3,2.6c0.4-0.8,1-1.5,1.8-2.1c0.8-0.6,1.8-0.9,3.1-0.9v4.7c-0.3-0.1-0.8-0.1-1.5-0.1
		c-0.4,0-0.7,0-1.1,0.1c-0.4,0.1-0.7,0.2-1,0.5c-0.3,0.2-0.6,0.6-0.8,1.1c-0.2,0.5-0.3,1.2-0.3,2v6.2h-4.6V168.3z"/>
	<path class="copy_purpleFill" d="M60.9,182.2c-0.1-0.2-0.2-0.5-0.3-0.8c-0.1-0.3-0.1-0.6-0.2-0.9c-0.3,0.5-0.7,1-1.3,1.5
		c-0.6,0.4-1.4,0.6-2.5,0.6c-0.7,0-1.4-0.1-2-0.3c-0.6-0.2-1-0.5-1.4-0.9c-0.4-0.4-0.7-0.9-0.9-1.4c-0.2-0.5-0.3-1.1-0.3-1.8
		c0-0.7,0.1-1.3,0.4-1.8c0.2-0.5,0.6-1,1.1-1.3s1-0.7,1.7-0.9c0.7-0.2,1.4-0.4,2.2-0.5l2.8-0.4v-0.3c0-0.6-0.2-1-0.5-1.2
		c-0.3-0.2-0.7-0.3-1.3-0.3c-0.9,0-1.6,0.2-2.2,0.5c-0.6,0.3-1.2,0.7-1.6,1.1l-2.2-3c0.3-0.2,0.7-0.5,1.1-0.7s0.9-0.5,1.5-0.7
		c0.5-0.2,1.2-0.3,1.8-0.5c0.7-0.1,1.4-0.2,2.2-0.2c2.1,0,3.5,0.4,4.4,1.3c0.9,0.9,1.3,2.2,1.3,4v5c0,0.6,0,1.1,0,1.5
		c0,0.4,0,0.7,0.1,1c0,0.3,0.1,0.6,0.2,0.8s0.2,0.5,0.3,0.8H60.9z M60.2,176.1l-1.9,0.4c-0.6,0.1-1.1,0.3-1.4,0.6
		c-0.3,0.2-0.4,0.6-0.4,1c0,0.4,0.1,0.7,0.4,1c0.2,0.3,0.6,0.4,1.1,0.4c0.6,0,1.2-0.2,1.6-0.7c0.4-0.5,0.7-1.2,0.7-2.1V176.1z"/>
	<path class="copy_purpleFill" d="M66.5,179l7.2-7.3h-7v-3.4h12.4v3.3l-7.4,7.3h7.8v3.4H66.5V179z"/>
	<path class="copy_purpleFill" d="M81.6,183.6c0.3,0.1,0.7,0.2,1,0.3s0.7,0.1,1,0.1c0.4,0,0.7-0.1,1-0.3c0.2-0.2,0.4-0.5,0.5-1l-5-14.4h5
		l2.4,9.4l2.4-9.4h5l-4.8,13.9c-0.3,0.8-0.5,1.5-0.8,2.1c-0.3,0.6-0.6,1.2-1.1,1.7c-0.4,0.5-1,0.8-1.7,1.1c-0.7,0.3-1.5,0.4-2.6,0.4
		c-0.2,0-0.4,0-0.6,0s-0.5,0-0.8,0c-0.3,0-0.5,0-0.8-0.1c-0.2,0-0.4-0.1-0.6-0.1L81.6,183.6z"/>
	<path class="copy_purpleFill" d="M94.3,185.9c0.5-0.2,0.9-0.4,1.2-0.7s0.5-0.5,0.7-0.7c0.2-0.3,0.3-0.5,0.3-0.8s0.1-0.6,0.1-1v-0.5h-2.3v-5.1
		h5.1v5c0,0.9-0.1,1.6-0.2,2.2c-0.2,0.6-0.4,1.1-0.8,1.6c-0.3,0.5-0.8,0.8-1.3,1.2c-0.5,0.3-1.1,0.6-1.8,0.9L94.3,185.9z"/>
	<path class="copy_purpleFill" d="M107.2,168.3h4.1l0.3,2.6c0.4-0.8,1-1.5,1.8-2.1c0.8-0.6,1.8-0.9,3.1-0.9v4.7c-0.3-0.1-0.8-0.1-1.5-0.1
		c-0.4,0-0.7,0-1.1,0.1c-0.4,0.1-0.7,0.2-1,0.5c-0.3,0.2-0.6,0.6-0.8,1.1c-0.2,0.5-0.3,1.2-0.3,2v6.2h-4.6V168.3z"/>
	<path class="copy_purpleFill" d="M117.6,162.8h4.6v3.7h-4.6V162.8z M117.6,168.3h4.6v13.9h-4.6V168.3z"/>
	<path class="copy_purpleFill" d="M126.1,182.2c0.5,0.5,1.2,0.9,2,1.3c0.8,0.3,1.6,0.5,2.4,0.5c0.9,0,1.5-0.2,1.8-0.6c0.3-0.4,0.5-0.9,0.5-1.7
		v-1.3c-0.3,0.5-0.8,0.9-1.4,1.2c-0.6,0.3-1.4,0.5-2.3,0.5c-0.7,0-1.3-0.1-2-0.3c-0.6-0.2-1.2-0.6-1.7-1.1c-0.5-0.5-0.9-1.2-1.2-2.1
		s-0.5-1.9-0.5-3.2c0-1.2,0.1-2.2,0.4-3.1s0.7-1.7,1.1-2.3c0.5-0.6,1.1-1.1,1.8-1.4s1.4-0.5,2.3-0.5c0.9,0,1.6,0.2,2.2,0.5
		c0.6,0.4,1.2,0.9,1.6,1.7l0.6-1.9h3.6v13.2c0,0.9-0.1,1.6-0.4,2.4s-0.6,1.3-1.2,1.9c-0.5,0.5-1.3,0.9-2.1,1.2
		c-0.9,0.3-1.9,0.4-3.1,0.4c-0.8,0-1.6-0.1-2.3-0.2c-0.7-0.1-1.3-0.3-1.9-0.5c-0.6-0.2-1.1-0.4-1.6-0.6s-0.9-0.5-1.2-0.7
		L126.1,182.2z M132.8,175.2c0-0.4,0-0.9-0.1-1.3c-0.1-0.4-0.2-0.8-0.3-1.1c-0.2-0.3-0.4-0.6-0.6-0.8s-0.6-0.3-1-0.3
		c-0.3,0-0.6,0.1-0.8,0.2c-0.3,0.1-0.5,0.3-0.7,0.6c-0.2,0.3-0.3,0.6-0.5,1.1c-0.1,0.4-0.2,1-0.2,1.6c0,1.2,0.2,2,0.6,2.6
		c0.4,0.5,0.9,0.8,1.6,0.8c0.7,0,1.2-0.3,1.5-0.8s0.5-1.3,0.5-2.4V175.2z"/>
	<path class="copy_purpleFill" d="M139.5,162.9h4.6v7.2c0.3-0.6,0.9-1.1,1.6-1.6c0.7-0.4,1.6-0.7,2.7-0.7c1.6,0,2.8,0.5,3.5,1.5
		c0.7,1,1.1,2.5,1.1,4.4v8.4h-4.6v-7.6c0-0.9-0.2-1.6-0.5-2c-0.3-0.5-0.8-0.7-1.5-0.7c-0.7,0-1.2,0.3-1.6,0.8s-0.6,1.4-0.6,2.7v6.8
		h-4.6V162.9z"/>
	<path class="copy_purpleFill" d="M156.1,171.2h-2.2v-3h0.4c0.7,0,1.3-0.1,1.7-0.4s0.7-0.6,1-0.9c0.2-0.4,0.4-0.8,0.5-1.3c0.1-0.5,0.2-1,0.4-1.5
		h2.9v4.1h2.9v3h-2.9v6.5c0,0.4,0.1,0.8,0.2,1c0.2,0.3,0.5,0.4,1.1,0.4c0.1,0,0.3,0,0.5,0c0.2,0,0.5-0.1,0.7-0.2l0.3,3.2
		c-0.5,0.2-1,0.3-1.5,0.4c-0.5,0.1-1,0.1-1.6,0.1c-0.9,0-1.6-0.1-2.1-0.3c-0.6-0.2-1-0.5-1.3-0.9c-0.3-0.4-0.6-0.8-0.7-1.4
		c-0.1-0.5-0.2-1.1-0.2-1.8V171.2z"/>
	<path class="copy_purpleFill" d="M168.3,175.4c0-0.2,0-0.3,0-0.5c0-0.1,0-0.3,0-0.3c0-0.3,0-0.7,0.1-0.9c0.1-0.3,0.2-0.5,0.3-0.8
		c0.1-0.2,0.3-0.4,0.4-0.6c0.2-0.2,0.3-0.3,0.4-0.4c0.4-0.4,0.8-0.7,1.2-1s0.8-0.6,1.1-0.9c0.3-0.3,0.5-0.6,0.7-0.9s0.3-0.7,0.3-1.1
		c0-0.6-0.2-1.1-0.6-1.4c-0.4-0.3-0.9-0.5-1.5-0.5c-0.7,0-1.3,0.2-1.8,0.6c-0.4,0.4-0.8,1-1.1,1.7l-4-1.6c0.5-1.4,1.4-2.4,2.7-3.1
		c1.2-0.7,2.8-1.1,4.6-1.1c2.3,0,4.1,0.5,5.3,1.4c1.2,1,1.8,2.2,1.8,3.8c0,0.3,0,0.6-0.1,0.9c-0.1,0.3-0.2,0.7-0.4,1
		c-0.2,0.3-0.4,0.7-0.7,1.1s-0.7,0.7-1.2,1.1c-0.3,0.2-0.6,0.4-0.9,0.6c-0.3,0.2-0.6,0.4-0.9,0.7c-0.3,0.2-0.6,0.5-0.8,0.8
		c-0.2,0.3-0.4,0.6-0.5,0.9c0,0.1-0.1,0.2-0.1,0.3c0,0.1,0,0.2,0,0.3H168.3z M167.9,177.2h5.1v5.1h-5.1V177.2z"/>
</g>
</svg>
