<?xml version="1.0" encoding="utf-8"?>
<!-- Generator: Adobe Illustrator 22.1.0, SVG Export Plug-In . SVG Version: 6.00 Build 0)  -->
<svg version="1.1" id="Layer_1" xmlns="http://www.w3.org/2000/svg" xmlns:xlink="http://www.w3.org/1999/xlink" x="0px" y="0px"
	 viewBox="0 0 336 280" style="enable-background:new 0 0 336 280;" xml:space="preserve">
<style type="text/css">
	.st0{fill:#662868;}
</style>
<g>
	<path class="st0" d="M32.8,110.9c-1.3,0-2.6-0.2-3.8-0.6c-1.2-0.4-2.2-1-3.1-1.8c-0.9-0.8-1.6-1.9-2.1-3.1
		c-0.5-1.3-0.8-2.8-0.8-4.5c0-1.7,0.3-3.2,0.8-4.5c0.5-1.3,1.2-2.3,2.1-3.2c0.9-0.8,1.9-1.5,3.1-1.9c1.2-0.4,2.4-0.6,3.8-0.6
		c1.3,0,2.6,0.2,3.8,0.6c1.2,0.4,2.2,1,3.1,1.8c0.9,0.8,1.6,1.9,2.2,3.2s0.8,2.8,0.8,4.5c0,1.7-0.3,3.2-0.8,4.5
		c-0.5,1.3-1.3,2.3-2.2,3.1c-0.9,0.8-2,1.4-3.1,1.8C35.4,110.7,34.1,110.9,32.8,110.9z M32.8,106.6c0.6,0,1.2-0.1,1.8-0.3
		c0.6-0.2,1-0.6,1.5-1s0.7-1.1,1-1.8c0.2-0.7,0.3-1.6,0.3-2.6c0-1.9-0.4-3.3-1.3-4.3s-2-1.5-3.4-1.5c-1.4,0-2.5,0.5-3.3,1.5
		c-0.8,1-1.2,2.5-1.2,4.3c0,1,0.1,1.9,0.4,2.6c0.3,0.7,0.6,1.3,1,1.8c0.4,0.5,0.9,0.8,1.5,1C31.7,106.5,32.3,106.6,32.8,106.6z"/>
	<path class="st0" d="M45.3,99.5h-2.2v-3h0.4c0.7,0,1.3-0.1,1.7-0.4c0.4-0.2,0.7-0.6,1-0.9c0.2-0.4,0.4-0.8,0.5-1.3
		c0.1-0.5,0.2-1,0.4-1.5h2.9v4.1h2.9v3h-2.9v6.5c0,0.4,0.1,0.8,0.2,1c0.2,0.3,0.5,0.4,1.1,0.4c0.1,0,0.3,0,0.5,0
		c0.2,0,0.5-0.1,0.7-0.2l0.3,3.2c-0.5,0.2-1,0.3-1.5,0.4c-0.5,0.1-1,0.1-1.6,0.1c-0.9,0-1.6-0.1-2.1-0.3c-0.6-0.2-1-0.5-1.3-0.9
		s-0.6-0.8-0.7-1.4c-0.1-0.5-0.2-1.1-0.2-1.8V99.5z"/>
	<path class="st0" d="M53.9,91.1h4.6v7.2c0.3-0.6,0.9-1.1,1.6-1.6c0.7-0.4,1.6-0.7,2.7-0.7c1.6,0,2.8,0.5,3.5,1.5
		c0.7,1,1.1,2.5,1.1,4.4v8.4h-4.6v-7.6c0-0.9-0.2-1.6-0.5-2c-0.3-0.5-0.8-0.7-1.5-0.7c-0.7,0-1.2,0.3-1.6,0.8s-0.6,1.4-0.6,2.7v6.8
		h-4.6V91.1z"/>
	<path class="st0" d="M73.5,104.6c0.2,1.1,0.5,1.8,1,2.3c0.5,0.4,1.1,0.6,1.8,0.6c0.6,0,1.1-0.1,1.5-0.4c0.4-0.3,0.8-0.6,1.1-1.2
		l3.4,1.9c-0.7,1.1-1.6,1.8-2.7,2.3c-1.1,0.5-2.3,0.7-3.6,0.7c-1.2,0-2.2-0.2-3.1-0.6c-0.9-0.4-1.7-0.9-2.3-1.5
		c-0.6-0.7-1.1-1.4-1.4-2.3c-0.3-0.9-0.5-1.9-0.5-2.9c0-1.1,0.2-2,0.5-3s0.8-1.7,1.4-2.4c0.6-0.7,1.4-1.2,2.2-1.5
		c0.9-0.4,1.9-0.6,3-0.6c1.1,0,2,0.2,2.9,0.5c0.8,0.4,1.5,0.9,2.1,1.5c0.6,0.7,1,1.5,1.3,2.4c0.3,0.9,0.5,2,0.5,3.2
		c0,0.3,0,0.4,0,0.6c0,0.1,0,0.2,0,0.2H73.5z M75.7,99.5c-1.3,0-2.1,0.8-2.3,2.5h4.5c0-0.7-0.2-1.3-0.5-1.8
		C77,99.7,76.5,99.5,75.7,99.5z"/>
	<path class="st0" d="M84.1,96.5h4.1l0.3,2.6c0.4-0.8,1-1.5,1.8-2.1c0.8-0.6,1.8-0.9,3.1-0.9v4.7c-0.3-0.1-0.8-0.1-1.5-0.1
		c-0.4,0-0.7,0-1.1,0.1s-0.7,0.2-1,0.5c-0.3,0.2-0.6,0.6-0.8,1.1c-0.2,0.5-0.3,1.2-0.3,2v6.2h-4.6V96.5z"/>
	<path class="st0" d="M112.9,107.6c-0.7,1.2-1.6,2-2.6,2.6s-2.3,0.8-3.7,0.8c-1.2,0-2.3-0.2-3.2-0.6c-0.9-0.4-1.6-0.9-2.2-1.6
		c-0.6-0.7-1-1.4-1.3-2.3c-0.3-0.9-0.4-1.9-0.4-2.9c0-1.1,0.2-2.2,0.5-3.1c0.3-0.9,0.8-1.7,1.4-2.4s1.3-1.1,2.2-1.5
		c0.9-0.3,1.9-0.5,3-0.5c1.4,0,2.7,0.3,3.7,0.9s1.9,1.5,2.5,2.6l-3.8,1.8c-0.3-0.7-0.6-1.1-1-1.4c-0.4-0.3-0.8-0.4-1.3-0.4
		c-0.9,0-1.5,0.3-1.8,1c-0.4,0.7-0.6,1.6-0.6,2.7c0,0.4,0,0.9,0.1,1.4c0.1,0.5,0.2,0.9,0.4,1.3c0.2,0.4,0.5,0.7,0.8,1
		c0.3,0.3,0.8,0.4,1.4,0.4c0.6,0,1.1-0.2,1.5-0.5c0.4-0.3,0.7-0.8,1-1.4L112.9,107.6z"/>
	<path class="st0" d="M120,110.9c-1.2,0-2.2-0.2-3.1-0.6c-0.9-0.4-1.6-0.9-2.2-1.5c-0.6-0.7-1-1.4-1.3-2.3c-0.3-0.9-0.4-1.9-0.4-2.9
		s0.2-2,0.5-2.9c0.3-0.9,0.8-1.7,1.4-2.4c0.6-0.7,1.3-1.2,2.2-1.6c0.9-0.4,1.9-0.6,3-0.6c1.1,0,2.2,0.2,3.1,0.6
		c0.9,0.4,1.6,0.9,2.2,1.5c0.6,0.7,1,1.4,1.3,2.4s0.5,1.9,0.5,3s-0.2,2-0.5,2.9c-0.3,0.9-0.7,1.7-1.3,2.3c-0.6,0.7-1.3,1.2-2.2,1.5
		C122.2,110.7,121.2,110.9,120,110.9z M120.1,107.4c0.8,0,1.3-0.3,1.7-1s0.5-1.6,0.5-2.8s-0.2-2.1-0.6-2.8s-0.9-1.1-1.7-1.1
		c-0.8,0-1.3,0.4-1.7,1.1c-0.4,0.7-0.5,1.7-0.5,2.8s0.2,2.1,0.6,2.8C118.7,107,119.3,107.4,120.1,107.4z"/>
	<path class="st0" d="M128.6,96.5h4.1l0.4,1.9c0.4-0.7,0.9-1.3,1.6-1.7c0.6-0.4,1.5-0.6,2.4-0.6c1.1,0,2,0.3,2.6,0.8
		c0.6,0.5,1.1,1.1,1.3,1.7c0.2-0.3,0.4-0.6,0.6-0.9c0.2-0.3,0.5-0.6,0.8-0.8c0.3-0.2,0.8-0.4,1.2-0.6c0.5-0.1,1.1-0.2,1.7-0.2
		c1,0,1.8,0.2,2.4,0.5c0.6,0.3,1.1,0.8,1.4,1.3c0.3,0.5,0.5,1.2,0.7,1.8c0.1,0.7,0.2,1.4,0.2,2.1v8.6h-4.6v-7.3c0-1-0.1-1.8-0.4-2.3
		c-0.3-0.5-0.7-0.8-1.4-0.8c-0.2,0-0.4,0-0.7,0.1s-0.5,0.2-0.6,0.5c-0.2,0.2-0.3,0.6-0.5,1s-0.2,1-0.2,1.8v7H137v-7.4
		c0-1-0.1-1.7-0.4-2.2c-0.3-0.5-0.7-0.7-1.4-0.7c-0.2,0-0.4,0-0.7,0.1c-0.2,0.1-0.5,0.3-0.6,0.5c-0.2,0.3-0.4,0.6-0.5,1.1
		c-0.1,0.5-0.2,1.1-0.2,1.9v6.7h-4.6V96.5z"/>
	<path class="st0" d="M152,96.5h4.6v1.8c0.3-0.6,0.8-1.2,1.4-1.6c0.6-0.4,1.4-0.6,2.4-0.6c1.6,0,2.8,0.6,3.8,1.8
		c1,1.2,1.5,3,1.5,5.4c0,1.5-0.2,2.7-0.5,3.6c-0.3,0.9-0.8,1.7-1.3,2.3s-1.1,1-1.8,1.2c-0.7,0.2-1.3,0.3-1.9,0.3
		c-0.7,0-1.4-0.1-2-0.4c-0.7-0.3-1.2-0.6-1.5-1.2v6H152V96.5z M156.6,103.6c0,0.5,0,0.9,0.1,1.4c0.1,0.4,0.2,0.8,0.4,1.1
		c0.2,0.3,0.4,0.6,0.7,0.7c0.3,0.2,0.6,0.3,1,0.3c0.6,0,1.1-0.3,1.5-0.9c0.4-0.6,0.5-1.5,0.5-2.7c0-1.2-0.2-2.1-0.6-2.7
		c-0.4-0.6-0.9-0.9-1.6-0.9c-0.4,0-0.7,0.1-1,0.3c-0.3,0.2-0.5,0.4-0.6,0.8c-0.2,0.3-0.3,0.7-0.3,1.1c-0.1,0.4-0.1,0.8-0.1,1.3
		V103.6z"/>
	<path class="st0" d="M175.1,110.5c-0.1-0.2-0.2-0.5-0.3-0.8c-0.1-0.3-0.1-0.6-0.2-0.9c-0.3,0.5-0.7,1-1.3,1.5
		c-0.6,0.4-1.4,0.6-2.5,0.6c-0.7,0-1.4-0.1-2-0.3c-0.6-0.2-1-0.5-1.4-0.9c-0.4-0.4-0.7-0.9-0.9-1.4c-0.2-0.5-0.3-1.1-0.3-1.8
		c0-0.7,0.1-1.3,0.4-1.8c0.2-0.5,0.6-1,1.1-1.3c0.5-0.4,1-0.7,1.7-0.9c0.7-0.2,1.4-0.4,2.2-0.5l2.8-0.4v-0.3c0-0.6-0.2-1-0.5-1.2
		c-0.3-0.2-0.7-0.3-1.3-0.3c-0.9,0-1.6,0.2-2.2,0.5c-0.6,0.3-1.2,0.7-1.6,1.1l-2.2-3c0.3-0.2,0.7-0.5,1.1-0.7
		c0.4-0.2,0.9-0.5,1.5-0.7c0.5-0.2,1.2-0.3,1.8-0.5c0.7-0.1,1.4-0.2,2.2-0.2c2.1,0,3.5,0.4,4.4,1.3c0.9,0.9,1.3,2.2,1.3,4v5
		c0,0.6,0,1.1,0,1.5c0,0.4,0,0.7,0.1,1c0,0.3,0.1,0.6,0.2,0.8s0.2,0.5,0.3,0.8H175.1z M174.4,104.3l-1.9,0.4
		c-0.6,0.1-1.1,0.3-1.4,0.6c-0.3,0.2-0.4,0.6-0.4,1c0,0.4,0.1,0.7,0.4,1c0.2,0.3,0.6,0.4,1.1,0.4c0.6,0,1.2-0.2,1.6-0.7
		s0.7-1.2,0.7-2.1V104.3z"/>
	<path class="st0" d="M181.2,96.5h4.1l0.4,1.9c0.4-0.7,1-1.2,1.8-1.7c0.8-0.5,1.6-0.7,2.6-0.7c3.1,0,4.6,2,4.6,5.9v8.5H190v-7.3
		c0-1.1-0.2-1.9-0.5-2.3c-0.3-0.4-0.8-0.7-1.5-0.7c-0.3,0-0.6,0.1-0.9,0.2s-0.5,0.3-0.7,0.6s-0.4,0.7-0.5,1.1
		c-0.1,0.5-0.2,1.1-0.2,1.8v6.6h-4.6V96.5z"/>
	<path class="st0" d="M196.7,91h4.6v3.7h-4.6V91z M196.7,96.5h4.6v13.9h-4.6V96.5z"/>
	<path class="st0" d="M207.5,104.6c0.2,1.1,0.5,1.8,1,2.3c0.5,0.4,1.1,0.6,1.8,0.6c0.6,0,1.1-0.1,1.5-0.4c0.4-0.3,0.8-0.6,1.1-1.2
		l3.4,1.9c-0.7,1.1-1.6,1.8-2.7,2.3c-1.1,0.5-2.3,0.7-3.6,0.7c-1.2,0-2.2-0.2-3.1-0.6c-0.9-0.4-1.7-0.9-2.3-1.5
		c-0.6-0.7-1.1-1.4-1.4-2.3c-0.3-0.9-0.5-1.9-0.5-2.9c0-1.1,0.2-2,0.5-3c0.3-0.9,0.8-1.7,1.4-2.4c0.6-0.7,1.4-1.2,2.2-1.5
		c0.9-0.4,1.9-0.6,3-0.6c1.1,0,2,0.2,2.9,0.5c0.8,0.4,1.5,0.9,2.1,1.5c0.6,0.7,1,1.5,1.3,2.4c0.3,0.9,0.5,2,0.5,3.2
		c0,0.3,0,0.4,0,0.6c0,0.1,0,0.2,0,0.2H207.5z M209.8,99.5c-1.3,0-2.1,0.8-2.3,2.5h4.5c0-0.7-0.2-1.3-0.5-1.8
		C211.1,99.7,210.6,99.5,209.8,99.5z"/>
	<path class="st0" d="M219.2,105.8c0.2,0.2,0.5,0.4,0.8,0.6c0.3,0.2,0.6,0.4,1,0.6c0.4,0.2,0.8,0.3,1.2,0.4c0.4,0.1,0.8,0.2,1.2,0.2
		c0.3,0,0.7-0.1,1-0.2c0.3-0.1,0.5-0.3,0.5-0.7c0-0.3-0.2-0.6-0.5-0.8c-0.4-0.2-0.8-0.4-1.4-0.5c-0.5-0.2-1.1-0.3-1.8-0.5
		s-1.2-0.4-1.8-0.8c-0.5-0.3-1-0.8-1.4-1.3c-0.4-0.5-0.5-1.2-0.5-2.1c0-0.8,0.2-1.5,0.5-2.1c0.3-0.6,0.8-1.1,1.3-1.4
		c0.5-0.4,1.2-0.7,1.9-0.8c0.7-0.2,1.5-0.3,2.2-0.3c1.3,0,2.4,0.1,3.3,0.4c0.9,0.3,1.8,0.7,2.6,1.2l-2.1,3.1
		c-0.2-0.2-0.4-0.3-0.7-0.5c-0.3-0.2-0.6-0.3-1-0.5c-0.4-0.1-0.7-0.2-1.1-0.3s-0.8-0.1-1.1-0.1c-0.3,0-0.6,0.1-0.8,0.2
		c-0.2,0.1-0.3,0.3-0.3,0.6c0,0.3,0.2,0.6,0.5,0.7c0.4,0.2,0.8,0.4,1.4,0.5c0.5,0.2,1.1,0.4,1.8,0.6s1.2,0.5,1.8,0.8s1,0.8,1.4,1.3
		c0.4,0.5,0.5,1.2,0.5,2s-0.2,1.5-0.5,2.1c-0.4,0.6-0.8,1.1-1.4,1.5c-0.6,0.4-1.2,0.7-1.9,0.9c-0.7,0.2-1.4,0.3-2.1,0.3
		c-2.6,0-4.8-0.7-6.5-2L219.2,105.8z"/>
	<path class="st0" d="M245.1,108.5c-0.4,0.7-0.8,1.3-1.5,1.6s-1.4,0.6-2.3,0.6c-0.8,0-1.6-0.2-2.3-0.5c-0.7-0.3-1.3-0.8-1.8-1.4
		s-0.9-1.4-1.1-2.3c-0.3-0.9-0.4-2-0.4-3.2c0-1.4,0.2-2.5,0.5-3.4c0.3-0.9,0.8-1.7,1.3-2.2s1.1-1,1.8-1.2c0.7-0.2,1.3-0.4,2-0.4
		c0.9,0,1.6,0.2,2.2,0.5c0.6,0.3,1,0.8,1.3,1.2v-6.8h4.6v19.3h-4.4V108.5z M244.8,103.2c0-0.4,0-0.9-0.1-1.3
		c-0.1-0.4-0.2-0.8-0.4-1.1c-0.2-0.3-0.4-0.6-0.6-0.8c-0.3-0.2-0.6-0.3-1-0.3c-0.7,0-1.2,0.3-1.6,0.9c-0.4,0.6-0.5,1.4-0.5,2.5
		c0,1.2,0.2,2.1,0.6,2.8c0.4,0.7,0.9,1,1.6,1c0.4,0,0.7-0.1,0.9-0.3c0.3-0.2,0.5-0.5,0.6-0.8s0.3-0.7,0.4-1.2
		c0.1-0.4,0.1-0.9,0.1-1.4V103.2z"/>
	<path class="st0" d="M258,110.9c-1.2,0-2.2-0.2-3.1-0.6c-0.9-0.4-1.6-0.9-2.2-1.5c-0.6-0.7-1-1.4-1.3-2.3c-0.3-0.9-0.4-1.9-0.4-2.9
		s0.2-2,0.5-2.9c0.3-0.9,0.8-1.7,1.4-2.4c0.6-0.7,1.3-1.2,2.2-1.6c0.9-0.4,1.9-0.6,3-0.6c1.1,0,2.2,0.2,3.1,0.6
		c0.9,0.4,1.6,0.9,2.2,1.5s1,1.4,1.3,2.4c0.3,0.9,0.5,1.9,0.5,3s-0.2,2-0.5,2.9c-0.3,0.9-0.7,1.7-1.3,2.3c-0.6,0.7-1.3,1.2-2.2,1.5
		C260.2,110.7,259.2,110.9,258,110.9z M258.1,107.4c0.8,0,1.3-0.3,1.7-1s0.5-1.6,0.5-2.8s-0.2-2.1-0.6-2.8s-0.9-1.1-1.7-1.1
		s-1.3,0.4-1.7,1.1s-0.5,1.7-0.5,2.8s0.2,2.1,0.6,2.8S257.3,107.4,258.1,107.4z"/>
	<path class="st0" d="M266.6,96.5h4.1l0.4,1.9c0.4-0.7,1-1.2,1.8-1.7c0.8-0.5,1.6-0.7,2.6-0.7c3.1,0,4.6,2,4.6,5.9v8.5h-4.6v-7.3
		c0-1.1-0.2-1.9-0.5-2.3c-0.3-0.4-0.8-0.7-1.5-0.7c-0.3,0-0.6,0.1-0.9,0.2s-0.5,0.3-0.7,0.6s-0.4,0.7-0.5,1.1
		c-0.1,0.5-0.2,1.1-0.2,1.8v6.6h-4.6V96.5z"/>
	<path class="st0" d="M281.5,99.6c0.5-0.2,0.9-0.4,1.2-0.7c0.3-0.2,0.5-0.5,0.7-0.7c0.2-0.3,0.3-0.5,0.3-0.8s0.1-0.6,0.1-1V96h-2.3
		v-4.8h5.1v4.8c0,0.9-0.1,1.6-0.2,2.2c-0.2,0.6-0.4,1.1-0.8,1.6c-0.3,0.5-0.8,0.8-1.3,1.2c-0.5,0.3-1.1,0.6-1.8,0.9L281.5,99.6z"/>
	<path class="st0" d="M290,99.5h-2.2v-3h0.4c0.7,0,1.3-0.1,1.7-0.4c0.4-0.2,0.7-0.6,1-0.9c0.2-0.4,0.4-0.8,0.5-1.3s0.2-1,0.4-1.5
		h2.9v4.1h2.9v3h-2.9v6.5c0,0.4,0.1,0.8,0.2,1c0.2,0.3,0.5,0.4,1.1,0.4c0.1,0,0.3,0,0.5,0c0.2,0,0.5-0.1,0.7-0.2l0.3,3.2
		c-0.5,0.2-1,0.3-1.5,0.4c-0.5,0.1-1,0.1-1.6,0.1c-0.9,0-1.6-0.1-2.1-0.3c-0.6-0.2-1-0.5-1.3-0.9c-0.3-0.4-0.6-0.8-0.7-1.4
		c-0.1-0.5-0.2-1.1-0.2-1.8V99.5z"/>
</g>
<g>
	<path class="st0" d="M36.4,138.9c-0.7,1.2-1.6,2-2.6,2.6c-1.1,0.5-2.3,0.8-3.7,0.8c-1.2,0-2.3-0.2-3.2-0.6
		c-0.9-0.4-1.6-0.9-2.2-1.6c-0.6-0.7-1-1.4-1.3-2.3c-0.3-0.9-0.4-1.9-0.4-2.9c0-1.1,0.2-2.2,0.5-3.1c0.3-0.9,0.8-1.7,1.4-2.4
		s1.3-1.1,2.2-1.5c0.9-0.3,1.9-0.5,3-0.5c1.4,0,2.7,0.3,3.7,0.9s1.9,1.5,2.5,2.6l-3.8,1.8c-0.3-0.7-0.6-1.1-1-1.4
		c-0.4-0.3-0.8-0.4-1.3-0.4c-0.9,0-1.5,0.3-1.8,1c-0.4,0.7-0.6,1.6-0.6,2.7c0,0.4,0,0.9,0.1,1.4c0.1,0.5,0.2,0.9,0.4,1.3
		c0.2,0.4,0.5,0.7,0.8,1c0.3,0.3,0.8,0.4,1.4,0.4c0.6,0,1.1-0.2,1.5-0.5c0.4-0.3,0.7-0.8,1-1.4L36.4,138.9z"/>
	<path class="st0" d="M37.5,122.4h4.6v7.2c0.3-0.6,0.9-1.1,1.6-1.6c0.7-0.4,1.6-0.7,2.7-0.7c1.6,0,2.8,0.5,3.5,1.5
		c0.7,1,1.1,2.5,1.1,4.4v8.4h-4.6v-7.6c0-0.9-0.2-1.6-0.5-2c-0.3-0.5-0.8-0.7-1.5-0.7c-0.7,0-1.2,0.3-1.6,0.8s-0.6,1.4-0.6,2.7v6.8
		h-4.6V122.4z"/>
	<path class="st0" d="M57,135.9c0.2,1.1,0.5,1.8,1,2.3c0.5,0.4,1.1,0.6,1.8,0.6c0.6,0,1.1-0.1,1.5-0.4c0.4-0.3,0.8-0.6,1.1-1.2
		l3.4,1.9c-0.7,1.1-1.6,1.8-2.7,2.3c-1.1,0.5-2.3,0.7-3.6,0.7c-1.2,0-2.2-0.2-3.1-0.6c-0.9-0.4-1.7-0.9-2.3-1.5
		c-0.6-0.7-1.1-1.4-1.4-2.3c-0.3-0.9-0.5-1.9-0.5-2.9c0-1.1,0.2-2,0.5-3s0.8-1.7,1.4-2.4c0.6-0.7,1.4-1.2,2.2-1.5
		c0.9-0.4,1.9-0.6,3-0.6c1.1,0,2,0.2,2.9,0.5c0.8,0.4,1.5,0.9,2.1,1.5c0.6,0.7,1,1.5,1.3,2.4c0.3,0.9,0.5,2,0.5,3.2
		c0,0.3,0,0.4,0,0.6c0,0.1,0,0.2,0,0.2H57z M59.3,130.8c-1.3,0-2.1,0.8-2.3,2.5h4.5c0-0.7-0.2-1.3-0.5-1.8
		C60.6,131,60.1,130.8,59.3,130.8z"/>
	<path class="st0" d="M80.5,138.9c-0.7,1.2-1.6,2-2.6,2.6c-1.1,0.5-2.3,0.8-3.7,0.8c-1.2,0-2.3-0.2-3.2-0.6
		c-0.9-0.4-1.6-0.9-2.2-1.6c-0.6-0.7-1-1.4-1.3-2.3c-0.3-0.9-0.4-1.9-0.4-2.9c0-1.1,0.2-2.2,0.5-3.1c0.3-0.9,0.8-1.7,1.4-2.4
		s1.3-1.1,2.2-1.5c0.9-0.3,1.9-0.5,3-0.5c1.4,0,2.7,0.3,3.7,0.9s1.9,1.5,2.5,2.6l-3.8,1.8c-0.3-0.7-0.6-1.1-1-1.4
		c-0.4-0.3-0.8-0.4-1.3-0.4c-0.9,0-1.5,0.3-1.8,1c-0.4,0.7-0.6,1.6-0.6,2.7c0,0.4,0,0.9,0.1,1.4c0.1,0.5,0.2,0.9,0.4,1.3
		c0.2,0.4,0.5,0.7,0.8,1c0.3,0.3,0.8,0.4,1.4,0.4c0.6,0,1.1-0.2,1.5-0.5c0.4-0.3,0.7-0.8,1-1.4L80.5,138.9z"/>
	<path class="st0" d="M81.6,122.4h4.6v10.5l4.6-5.1h5.6l-5.5,5.3l5.4,8.7h-5.2l-3.1-5.9l-1.8,1.8v4.1h-4.6V122.4z"/>
	<path class="st0" d="M104.1,130.8h-2.3v-3h2.1c-0.1-0.5-0.2-0.9-0.3-1.3s-0.1-0.8-0.1-1.1c0-0.5,0.1-1,0.2-1.4
		c0.1-0.4,0.4-0.8,0.7-1.1c0.3-0.3,0.8-0.6,1.4-0.8c0.6-0.2,1.3-0.3,2.3-0.3c0.8,0,1.5,0,2,0.1c0.6,0.1,1.1,0.2,1.6,0.4l-0.7,3.4
		c-0.2-0.1-0.5-0.2-0.9-0.3c-0.4-0.1-0.7-0.1-1-0.1c-0.3,0-0.6,0.1-0.8,0.2c-0.2,0.1-0.3,0.3-0.3,0.7c0,0.3,0,0.6,0.1,0.9
		c0.1,0.3,0.2,0.5,0.3,0.7h2.7v3h-2.6v11h-4.6V130.8z"/>
	<path class="st0" d="M118.5,142.2c-1.2,0-2.2-0.2-3.1-0.6c-0.9-0.4-1.6-0.9-2.2-1.5c-0.6-0.7-1-1.4-1.3-2.3
		c-0.3-0.9-0.4-1.9-0.4-2.9s0.2-2,0.5-2.9c0.3-0.9,0.8-1.7,1.4-2.4c0.6-0.7,1.3-1.2,2.2-1.6c0.9-0.4,1.9-0.6,3-0.6
		c1.1,0,2.2,0.2,3.1,0.6c0.9,0.4,1.6,0.9,2.2,1.5c0.6,0.7,1,1.4,1.3,2.4s0.5,1.9,0.5,3s-0.2,2-0.5,2.9c-0.3,0.9-0.7,1.7-1.3,2.3
		c-0.6,0.7-1.3,1.2-2.2,1.5C120.7,142,119.6,142.2,118.5,142.2z M118.6,138.7c0.8,0,1.3-0.3,1.7-1s0.5-1.6,0.5-2.8s-0.2-2.1-0.6-2.8
		s-0.9-1.1-1.7-1.1c-0.8,0-1.3,0.4-1.7,1.1c-0.4,0.7-0.5,1.7-0.5,2.8s0.2,2.1,0.6,2.8C117.2,138.3,117.8,138.7,118.6,138.7z"/>
	<path class="st0" d="M127,127.8h4.1l0.3,2.6c0.4-0.8,1-1.5,1.8-2.1c0.8-0.6,1.8-0.9,3.1-0.9v4.7c-0.3-0.1-0.8-0.1-1.5-0.1
		c-0.4,0-0.7,0-1.1,0.1s-0.7,0.2-1,0.5c-0.3,0.2-0.6,0.6-0.8,1.1c-0.2,0.5-0.3,1.2-0.3,2v6.2H127V127.8z"/>
	<path class="st0" d="M151.3,141.8c-0.1-0.2-0.2-0.5-0.3-0.8c-0.1-0.3-0.1-0.6-0.2-0.9c-0.3,0.5-0.7,1-1.3,1.5
		c-0.6,0.4-1.4,0.6-2.5,0.6c-0.7,0-1.4-0.1-2-0.3c-0.6-0.2-1-0.5-1.4-0.9c-0.4-0.4-0.7-0.9-0.9-1.4c-0.2-0.5-0.3-1.1-0.3-1.8
		c0-0.7,0.1-1.3,0.4-1.8c0.2-0.5,0.6-1,1.1-1.3c0.5-0.4,1-0.7,1.7-0.9c0.7-0.2,1.4-0.4,2.2-0.5l2.8-0.4v-0.3c0-0.6-0.2-1-0.5-1.2
		c-0.3-0.2-0.7-0.3-1.3-0.3c-0.9,0-1.6,0.2-2.2,0.5c-0.6,0.3-1.2,0.7-1.6,1.1l-2.2-3c0.3-0.2,0.7-0.5,1.1-0.7
		c0.4-0.2,0.9-0.5,1.5-0.7c0.5-0.2,1.2-0.3,1.8-0.5c0.7-0.1,1.4-0.2,2.2-0.2c2.1,0,3.5,0.4,4.4,1.3c0.9,0.9,1.3,2.2,1.3,4v5
		c0,0.6,0,1.1,0,1.5c0,0.4,0,0.7,0.1,1c0,0.3,0.1,0.6,0.2,0.8s0.2,0.5,0.3,0.8H151.3z M150.6,135.6l-1.9,0.4
		c-0.6,0.1-1.1,0.3-1.4,0.6c-0.3,0.2-0.4,0.6-0.4,1c0,0.4,0.1,0.7,0.4,1c0.2,0.3,0.6,0.4,1.1,0.4c0.6,0,1.2-0.2,1.6-0.7
		c0.4-0.5,0.7-1.2,0.7-2.1V135.6z"/>
	<path class="st0" d="M169.9,138.9c-0.7,1.2-1.6,2-2.6,2.6c-1.1,0.5-2.3,0.8-3.7,0.8c-1.2,0-2.3-0.2-3.2-0.6
		c-0.9-0.4-1.6-0.9-2.2-1.6c-0.6-0.7-1-1.4-1.3-2.3c-0.3-0.9-0.4-1.9-0.4-2.9c0-1.1,0.2-2.2,0.5-3.1c0.3-0.9,0.8-1.7,1.4-2.4
		s1.3-1.1,2.2-1.5c0.9-0.3,1.9-0.5,3-0.5c1.4,0,2.7,0.3,3.7,0.9s1.9,1.5,2.5,2.6l-3.8,1.8c-0.3-0.7-0.6-1.1-1-1.4
		c-0.4-0.3-0.8-0.4-1.3-0.4c-0.9,0-1.5,0.3-1.8,1c-0.4,0.7-0.6,1.6-0.6,2.7c0,0.4,0,0.9,0.1,1.4c0.1,0.5,0.2,0.9,0.4,1.3
		c0.2,0.4,0.5,0.7,0.8,1c0.3,0.3,0.8,0.4,1.4,0.4c0.6,0,1.1-0.2,1.5-0.5c0.4-0.3,0.7-0.8,1-1.4L169.9,138.9z"/>
	<path class="st0" d="M183.4,138.9c-0.7,1.2-1.6,2-2.6,2.6c-1.1,0.5-2.3,0.8-3.7,0.8c-1.2,0-2.3-0.2-3.2-0.6
		c-0.9-0.4-1.6-0.9-2.2-1.6c-0.6-0.7-1-1.4-1.3-2.3c-0.3-0.9-0.4-1.9-0.4-2.9c0-1.1,0.2-2.2,0.5-3.1c0.3-0.9,0.8-1.7,1.4-2.4
		c0.6-0.6,1.3-1.1,2.2-1.5c0.9-0.3,1.9-0.5,3-0.5c1.4,0,2.7,0.3,3.7,0.9c1,0.6,1.9,1.5,2.5,2.6l-3.8,1.8c-0.3-0.7-0.6-1.1-1-1.4
		c-0.4-0.3-0.8-0.4-1.3-0.4c-0.9,0-1.5,0.3-1.8,1s-0.6,1.6-0.6,2.7c0,0.4,0,0.9,0.1,1.4c0.1,0.5,0.2,0.9,0.4,1.3
		c0.2,0.4,0.5,0.7,0.8,1c0.3,0.3,0.8,0.4,1.4,0.4c0.6,0,1.1-0.2,1.5-0.5c0.4-0.3,0.7-0.8,1-1.4L183.4,138.9z"/>
	<path class="st0" d="M184.4,127.8h4.6v7.7c0,0.9,0.1,1.5,0.4,2c0.3,0.4,0.7,0.7,1.4,0.7c0.7,0,1.3-0.3,1.7-0.8s0.6-1.5,0.6-2.7
		v-6.7h4.6v13.9h-4.3v-2.1c-0.4,0.7-0.9,1.3-1.5,1.7s-1.5,0.6-2.7,0.6c-1.7,0-2.9-0.5-3.7-1.4s-1.2-2.3-1.2-4.1V127.8z"/>
	<path class="st0" d="M199.9,127.8h4.1l0.3,2.6c0.4-0.8,1-1.5,1.8-2.1c0.8-0.6,1.8-0.9,3.1-0.9v4.7c-0.3-0.1-0.8-0.1-1.5-0.1
		c-0.4,0-0.7,0-1.1,0.1s-0.7,0.2-1,0.5c-0.3,0.2-0.6,0.6-0.8,1.1c-0.2,0.5-0.3,1.2-0.3,2v6.2h-4.6V127.8z"/>
	<path class="st0" d="M218.2,141.8c-0.1-0.2-0.2-0.5-0.3-0.8c-0.1-0.3-0.1-0.6-0.2-0.9c-0.3,0.5-0.7,1-1.3,1.5
		c-0.6,0.4-1.4,0.6-2.5,0.6c-0.7,0-1.4-0.1-2-0.3c-0.6-0.2-1-0.5-1.4-0.9c-0.4-0.4-0.7-0.9-0.9-1.4c-0.2-0.5-0.3-1.1-0.3-1.8
		c0-0.7,0.1-1.3,0.4-1.8c0.2-0.5,0.6-1,1.1-1.3c0.5-0.4,1-0.7,1.7-0.9c0.7-0.2,1.4-0.4,2.2-0.5l2.8-0.4v-0.3c0-0.6-0.2-1-0.5-1.2
		c-0.3-0.2-0.7-0.3-1.3-0.3c-0.9,0-1.6,0.2-2.2,0.5c-0.6,0.3-1.2,0.7-1.6,1.1l-2.2-3c0.3-0.2,0.7-0.5,1.1-0.7
		c0.4-0.2,0.9-0.5,1.5-0.7c0.5-0.2,1.2-0.3,1.8-0.5c0.7-0.1,1.4-0.2,2.2-0.2c2.1,0,3.5,0.4,4.4,1.3c0.9,0.9,1.3,2.2,1.3,4v5
		c0,0.6,0,1.1,0,1.5c0,0.4,0,0.7,0.1,1c0,0.3,0.1,0.6,0.2,0.8s0.2,0.5,0.3,0.8H218.2z M217.5,135.6l-1.9,0.4
		c-0.6,0.1-1.1,0.3-1.4,0.6c-0.3,0.2-0.4,0.6-0.4,1c0,0.4,0.1,0.7,0.4,1c0.2,0.3,0.6,0.4,1.1,0.4c0.6,0,1.2-0.2,1.6-0.7
		s0.7-1.2,0.7-2.1V135.6z"/>
	<path class="st0" d="M236.8,138.9c-0.7,1.2-1.6,2-2.6,2.6c-1.1,0.5-2.3,0.8-3.7,0.8c-1.2,0-2.3-0.2-3.2-0.6
		c-0.9-0.4-1.6-0.9-2.2-1.6c-0.6-0.7-1-1.4-1.3-2.3c-0.3-0.9-0.4-1.9-0.4-2.9c0-1.1,0.2-2.2,0.5-3.1c0.3-0.9,0.8-1.7,1.4-2.4
		c0.6-0.6,1.3-1.1,2.2-1.5c0.9-0.3,1.9-0.5,3-0.5c1.4,0,2.7,0.3,3.7,0.9c1,0.6,1.9,1.5,2.5,2.6l-3.8,1.8c-0.3-0.7-0.6-1.1-1-1.4
		c-0.4-0.3-0.8-0.4-1.3-0.4c-0.9,0-1.5,0.3-1.8,1s-0.6,1.6-0.6,2.7c0,0.4,0,0.9,0.1,1.4c0.1,0.5,0.2,0.9,0.4,1.3
		c0.2,0.4,0.5,0.7,0.8,1c0.3,0.3,0.8,0.4,1.4,0.4c0.6,0,1.1-0.2,1.5-0.5c0.4-0.3,0.7-0.8,1-1.4L236.8,138.9z"/>
	<path class="st0" d="M238.1,143.1c0.3,0.1,0.7,0.2,1,0.3c0.4,0.1,0.7,0.1,1,0.1c0.4,0,0.7-0.1,1-0.3s0.4-0.5,0.5-1l-5-14.4h5
		l2.4,9.4l2.4-9.4h5l-4.8,13.9c-0.3,0.8-0.5,1.5-0.8,2.1c-0.3,0.6-0.6,1.2-1.1,1.7c-0.4,0.5-1,0.8-1.7,1.1c-0.7,0.3-1.5,0.4-2.6,0.4
		c-0.2,0-0.4,0-0.6,0c-0.2,0-0.5,0-0.8,0s-0.5,0-0.8-0.1c-0.2,0-0.4-0.1-0.6-0.1L238.1,143.1z"/>
	<path class="st0" d="M250.8,136.7h5.1v5.1h-5.1V136.7z"/>
</g>
</svg>
