<?xml version="1.0" encoding="utf-8"?>
<!-- Generator: Adobe Illustrator 22.1.0, SVG Export Plug-In . SVG Version: 6.00 Build 0)  -->
<svg version="1.1" id="Layer_1" xmlns="http://www.w3.org/2000/svg" xmlns:xlink="http://www.w3.org/1999/xlink" x="0px" y="0px"
	 viewBox="0 0 102.7 9.2" style="enable-background:new 0 0 102.7 9.2;" xml:space="preserve">
<style type="text/css">
	.copy_whiteFill{fill:#FFFFFF;}
</style>
<g>
	<path class="copy_whiteFill" d="M3.4,0.2h2L8.9,9H6.5L5.9,7.2h-3L2.3,9H0L3.4,0.2z M5.3,5.5C5.1,5.1,5,4.6,4.8,4.2C4.7,3.8,4.5,3.3,4.4,2.8
		C4.3,3.3,4.1,3.8,4,4.2C3.8,4.6,3.7,5,3.5,5.5H5.3z"/>
	<path class="copy_whiteFill" d="M17.2,7c-0.4,0.8-1,1.3-1.6,1.7c-0.6,0.3-1.4,0.5-2.3,0.5c-0.7,0-1.4-0.1-2-0.3c-0.6-0.2-1-0.5-1.4-1
		C9.5,7.5,9.3,7,9.1,6.4C8.9,5.9,8.8,5.3,8.8,4.6c0-0.7,0.1-1.3,0.3-1.9c0.2-0.6,0.5-1,0.9-1.4c0.4-0.4,0.8-0.7,1.4-0.9
		C11.9,0.1,12.5,0,13.3,0c0.8,0,1.5,0.1,2.2,0.4s1.2,0.8,1.7,1.6L15,3.1c-0.2-0.4-0.4-0.6-0.7-0.8s-0.6-0.3-1-0.3
		c-0.4,0-0.7,0.1-0.9,0.2c-0.3,0.1-0.5,0.3-0.6,0.6c-0.2,0.2-0.3,0.5-0.4,0.8c-0.1,0.3-0.1,0.7-0.1,1c0,0.4,0,0.7,0.1,1
		c0.1,0.3,0.2,0.6,0.4,0.8s0.4,0.4,0.7,0.6s0.6,0.2,0.9,0.2c0.4,0,0.7-0.1,1-0.3c0.3-0.2,0.5-0.5,0.7-1L17.2,7z"/>
	<path class="copy_whiteFill" d="M26,7c-0.4,0.8-1,1.3-1.6,1.7C23.8,9,23,9.2,22.2,9.2c-0.7,0-1.4-0.1-2-0.3c-0.6-0.2-1-0.5-1.4-1
		c-0.4-0.4-0.7-0.9-0.9-1.5c-0.2-0.6-0.3-1.2-0.3-1.8c0-0.7,0.1-1.3,0.3-1.9c0.2-0.6,0.5-1,0.9-1.4c0.4-0.4,0.8-0.7,1.4-0.9
		C20.8,0.1,21.4,0,22.1,0c0.8,0,1.5,0.1,2.2,0.4S25.5,1.2,26,2l-2.1,1.1c-0.2-0.4-0.4-0.6-0.7-0.8s-0.6-0.3-1-0.3
		c-0.4,0-0.7,0.1-0.9,0.2c-0.3,0.1-0.5,0.3-0.6,0.6c-0.2,0.2-0.3,0.5-0.4,0.8c-0.1,0.3-0.1,0.7-0.1,1c0,0.4,0,0.7,0.1,1
		c0.1,0.3,0.2,0.6,0.4,0.8S21,6.9,21.2,7s0.6,0.2,0.9,0.2c0.4,0,0.7-0.1,1-0.3c0.3-0.2,0.5-0.5,0.7-1L26,7z"/>
	<path class="copy_whiteFill" d="M27,0.2h2.2v5.6c0,0.5,0.1,0.9,0.4,1.2s0.6,0.3,1,0.3c0.4,0,0.8-0.1,1-0.3s0.4-0.6,0.4-1.1V0.2h2.2v5.7
		c0,0.2,0,0.4,0,0.7c0,0.2-0.1,0.5-0.2,0.7C34,7.5,33.9,7.8,33.7,8c-0.2,0.2-0.4,0.4-0.6,0.6c-0.3,0.2-0.6,0.3-1,0.4
		c-0.4,0.1-0.9,0.2-1.4,0.2s-1-0.1-1.4-0.2c-0.4-0.1-0.7-0.3-1-0.4C28,8.4,27.7,8.2,27.6,8c-0.2-0.2-0.3-0.5-0.4-0.7
		s-0.1-0.5-0.2-0.7c0-0.2,0-0.5,0-0.7V0.2z"/>
	<path class="copy_whiteFill" d="M35.8,0.2h3.6c0.5,0,0.9,0,1.4,0.1c0.4,0.1,0.8,0.2,1.2,0.5c0.3,0.2,0.6,0.5,0.8,0.9S43,2.4,43,3
		c0,0.4-0.1,0.7-0.2,0.9c-0.1,0.3-0.3,0.5-0.5,0.7c-0.2,0.2-0.4,0.3-0.7,0.4s-0.5,0.2-0.8,0.2c0.2,0,0.4,0.1,0.6,0.2
		c0.2,0.1,0.4,0.3,0.5,0.6l1.7,3H41L40,6.9c-0.1-0.2-0.2-0.3-0.3-0.5s-0.2-0.2-0.3-0.3C39.2,6.1,39.1,6.1,39,6c-0.1,0-0.3,0-0.4,0
		H38v3h-2.2V0.2z M39.3,4.3c0.1,0,0.3,0,0.5,0c0.2,0,0.3-0.1,0.4-0.2c0.1-0.1,0.2-0.2,0.3-0.4c0.1-0.2,0.1-0.4,0.1-0.6
		c0-0.2,0-0.4-0.1-0.6c-0.1-0.1-0.2-0.3-0.3-0.3S39.9,2,39.7,1.9s-0.3,0-0.4,0H38v2.4H39.3z"/>
	<path class="copy_whiteFill" d="M47.2,0.2h2L52.6,9h-2.4l-0.6-1.8h-3L46.1,9h-2.3L47.2,0.2z M49.1,5.5c-0.1-0.4-0.3-0.9-0.4-1.3
		c-0.1-0.4-0.3-0.9-0.4-1.4c-0.1,0.5-0.3,1-0.4,1.4c-0.2,0.4-0.3,0.9-0.5,1.3H49.1z"/>
	<path class="copy_whiteFill" d="M60.9,7c-0.4,0.8-1,1.3-1.6,1.7C58.7,9,58,9.2,57.1,9.2c-0.7,0-1.4-0.1-2-0.3c-0.6-0.2-1-0.5-1.4-1
		C53.3,7.5,53,7,52.8,6.4c-0.2-0.6-0.3-1.2-0.3-1.8c0-0.7,0.1-1.3,0.3-1.9c0.2-0.6,0.5-1,0.9-1.4c0.4-0.4,0.8-0.7,1.4-0.9
		C55.7,0.1,56.3,0,57,0c0.8,0,1.5,0.1,2.2,0.4s1.2,0.8,1.7,1.6l-2.1,1.1c-0.2-0.4-0.4-0.6-0.7-0.8s-0.6-0.3-1-0.3
		c-0.4,0-0.7,0.1-0.9,0.2c-0.3,0.1-0.5,0.3-0.6,0.6c-0.2,0.2-0.3,0.5-0.4,0.8c-0.1,0.3-0.1,0.7-0.1,1c0,0.4,0,0.7,0.1,1
		c0.1,0.3,0.2,0.6,0.4,0.8s0.4,0.4,0.7,0.6s0.6,0.2,0.9,0.2c0.4,0,0.7-0.1,1-0.3c0.3-0.2,0.5-0.5,0.7-1L60.9,7z"/>
	<path class="copy_whiteFill" d="M64,5.1l-3.2-4.9h2.6l1.8,3.2L67,0.2h2.6l-3.3,4.9V9H64V5.1z"/>
	<path class="copy_whiteFill" d="M72.9,0.2h3.7c0.4,0,0.9,0,1.3,0.1c0.4,0.1,0.8,0.3,1.1,0.5s0.6,0.5,0.8,0.9C80,2.1,80.1,2.5,80.1,3
		c0,0.6-0.1,1-0.3,1.4c-0.2,0.4-0.4,0.7-0.7,0.9c-0.3,0.2-0.7,0.4-1.1,0.5C77.6,6,77.2,6,76.7,6h-1.5v3h-2.2V0.2z M76.4,4.3
		c0.2,0,0.4,0,0.5,0s0.3-0.1,0.4-0.2c0.1-0.1,0.2-0.2,0.3-0.4c0.1-0.2,0.1-0.4,0.1-0.6c0-0.2,0-0.4-0.1-0.5
		c-0.1-0.1-0.2-0.3-0.3-0.3S77,2,76.9,1.9c-0.2,0-0.4-0.1-0.5-0.1h-1.1v2.4H76.4z"/>
	<path class="copy_whiteFill" d="M82.9,0.2h2L88.3,9H86l-0.6-1.8h-3L81.7,9h-2.3L82.9,0.2z M84.8,5.5c-0.1-0.4-0.3-0.9-0.4-1.3
		c-0.1-0.4-0.3-0.9-0.4-1.4c-0.1,0.5-0.3,1-0.4,1.4C83.3,4.6,83.1,5,83,5.5H84.8z"/>
	<path class="copy_whiteFill" d="M90.1,5.1l-3.2-4.9h2.6l1.8,3.2l1.8-3.2h2.6l-3.3,4.9V9h-2.3V5.1z"/>
	<path class="copy_whiteFill" d="M96.9,6.3c0.1,0.1,0.2,0.2,0.3,0.3c0.1,0.1,0.3,0.2,0.5,0.3s0.4,0.2,0.7,0.2s0.5,0.1,0.8,0.1
		c0.4,0,0.7-0.1,0.9-0.2c0.2-0.1,0.3-0.3,0.3-0.5c0-0.2,0-0.3-0.1-0.4c-0.1-0.1-0.2-0.2-0.4-0.3c-0.2-0.1-0.4-0.1-0.7-0.2
		c-0.3-0.1-0.6-0.1-1-0.2c-0.9-0.2-1.5-0.5-1.9-1c-0.4-0.4-0.6-1-0.6-1.6c0-0.4,0.1-0.7,0.2-1.1c0.1-0.3,0.4-0.6,0.7-0.9
		s0.7-0.5,1.1-0.6S98.7,0,99.2,0c0.7,0,1.3,0.1,1.9,0.3c0.6,0.2,1.1,0.6,1.6,1.1l-1.5,1.4c-0.2-0.3-0.5-0.5-0.9-0.7
		c-0.4-0.2-0.8-0.3-1.2-0.3c-0.2,0-0.4,0-0.5,0.1c-0.1,0-0.2,0.1-0.3,0.2s-0.1,0.1-0.2,0.2s0,0.2,0,0.2c0,0.2,0.1,0.4,0.3,0.6
		s0.6,0.3,1.2,0.5c0.6,0.2,1.2,0.3,1.6,0.5s0.7,0.4,1,0.6s0.4,0.5,0.5,0.7c0.1,0.3,0.1,0.6,0.1,0.9c0,0.5-0.1,0.9-0.3,1.2
		s-0.5,0.7-0.8,0.9c-0.3,0.2-0.7,0.4-1.1,0.5c-0.4,0.1-0.9,0.2-1.4,0.2c-0.5,0-0.9,0-1.3-0.1c-0.4-0.1-0.7-0.2-1.1-0.3
		c-0.3-0.1-0.6-0.3-0.8-0.4S95.6,8,95.4,7.8L96.9,6.3z"/>
</g>
</svg>
