<svg version="1.1" id="Layer_1" xmlns="https://www.w3.org/2000/svg" x="0" y="0" viewBox="0 0 300 250" xml:space="preserve"><style>.copy-purpleFill{fill:#662868}</style><path class="copy-purpleFill" d="M23.7 63.8h4.1V74c0 1 .2 1.7.7 2.1.5.4 1.1.6 1.9.6.8 0 1.5-.2 1.9-.6S33 75 33 74V63.8h4.1v10.5c0 .4 0 .8-.1 1.2 0 .4-.1.9-.3 1.3-.2.4-.4.9-.7 1.3-.3.4-.7.8-1.2 1.1-.5.3-1.1.6-1.9.8-.7.2-1.6.3-2.6.3s-1.9-.1-2.6-.3c-.7-.2-1.3-.5-1.8-.8-.5-.3-.9-.7-1.2-1.1s-.5-.9-.7-1.3c-.2-.5-.3-.9-.3-1.3s-.1-.8-.1-1.2V63.8zM39.2 68.3H43v1.5c.3-.5.6-1 1.2-1.3.5-.4 1.2-.5 2-.5 1.3 0 2.4.5 3.2 1.5.8 1 1.2 2.5 1.2 4.6 0 1.2-.1 2.2-.4 3-.3.8-.7 1.4-1.1 1.9-.4.5-.9.8-1.5 1-.6.2-1.1.3-1.6.3-.6 0-1.2-.1-1.7-.3-.6-.2-1-.5-1.2-1v5h-3.9V68.3zm3.8 6c0 .4 0 .8.1 1.1.1.4.2.7.3.9.2.3.3.5.6.6.2.2.5.2.8.2.5 0 1-.2 1.3-.7.3-.5.5-1.3.5-2.3 0-1-.2-1.8-.5-2.3-.3-.5-.8-.8-1.4-.8-.3 0-.6.1-.8.2-.2.2-.4.4-.5.6l-.3.9c0 .6-.1.9-.1 1.3v.3zM53.3 80c.4.4 1 .8 1.7 1.1.7.3 1.3.4 2 .4s1.2-.2 1.5-.5.4-.8.4-1.4v-1.1c-.3.4-.6.7-1.1 1-.5.3-1.1.4-1.9.4-.6 0-1.1-.1-1.6-.3-.5-.2-1-.5-1.5-1s-.8-1-1-1.8c-.3-.7-.4-1.6-.4-2.7 0-1 .1-1.8.3-2.6.2-.8.6-1.4 1-1.9s.9-.9 1.5-1.2c.6-.3 1.2-.4 1.9-.4s1.3.2 1.9.5c.5.3 1 .8 1.3 1.4l.5-1.6h3.1v11.1c0 .7-.1 1.4-.3 2-.2.6-.5 1.1-1 1.6-.5.4-1.1.8-1.8 1-.7.2-1.6.4-2.6.4-.7 0-1.3 0-1.9-.1-.6-.1-1.1-.2-1.6-.4s-.9-.3-1.3-.5-.7-.4-1-.6l1.9-2.8zm5.6-5.9c0-.4 0-.7-.1-1.1s-.1-.7-.3-.9c-.1-.3-.3-.5-.5-.7-.2-.2-.5-.3-.9-.3-.2 0-.5 0-.7.1-.2.1-.4.3-.6.5-.2.2-.3.5-.4.9s-.1.8-.1 1.4c0 1 .2 1.7.5 2.2.3.5.8.7 1.4.7s1-.2 1.3-.7c.3-.5.4-1.1.4-2v-.1zM64.6 68.3h3.5l.3 2.2c.4-.7.8-1.3 1.5-1.8.6-.5 1.5-.7 2.6-.7v3.9c-.3-.1-.7-.1-1.2-.1-.3 0-.6 0-.9.1s-.6.2-.9.4c-.3.2-.5.5-.7.9-.2.4-.3 1-.3 1.7V80h-3.9V68.3zM80 80c-.1-.2-.2-.4-.2-.7-.1-.3-.1-.5-.1-.7-.2.5-.6.9-1.1 1.2s-1.2.5-2.1.5c-.6 0-1.2-.1-1.7-.3-.5-.2-.9-.5-1.2-.8-.3-.3-.6-.7-.7-1.2s-.3-1-.3-1.5c0-.6.1-1.1.3-1.6.2-.4.5-.8.9-1.1.4-.3.9-.6 1.4-.7.6-.2 1.2-.3 1.9-.4l2.3-.4V72c0-.5-.1-.8-.4-1-.3-.2-.6-.3-1.1-.3-.7 0-1.3.1-1.8.4-.5.3-1 .6-1.4.9l-1.8-2.6c.2-.2.5-.4.9-.6l1.2-.6c.5-.2 1-.3 1.5-.4s1.2-.1 1.9-.1c1.7 0 3 .4 3.7 1.1.7.7 1.1 1.9 1.1 3.4v5.4c0 .3 0 .6.1.9 0 .3.1.5.1.7.1.2.1.4.3.7H80zm-.6-5.2l-1.6.3c-.5.1-.9.3-1.2.5-.2.2-.4.5-.4.9 0 .3.1.6.3.8.2.2.5.3.9.3.5 0 1-.2 1.4-.6.4-.4.6-1 .6-1.8v-.4zM92.1 78.4c-.3.6-.7 1.1-1.2 1.4s-1.1.5-1.9.5c-.7 0-1.3-.1-1.9-.4-.6-.3-1.1-.7-1.5-1.2-.4-.5-.7-1.2-1-1.9-.2-.8-.3-1.7-.3-2.7 0-1.1.1-2.1.4-2.9.3-.8.6-1.4 1.1-1.9.4-.5.9-.8 1.5-1 .6-.2 1.1-.3 1.7-.3.7 0 1.3.1 1.8.4.5.3.9.6 1.1 1v-5.7h3.9V80h-3.7v-1.6zm-.2-4.5c0-.4 0-.7-.1-1.1l-.3-.9c-.1-.3-.3-.5-.5-.6-.2-.2-.5-.2-.8-.2-.6 0-1 .2-1.3.7-.3.5-.4 1.2-.4 2.1 0 1 .2 1.8.5 2.3.3.6.8.8 1.3.8.3 0 .6-.1.8-.2.2-.2.4-.4.5-.7.1-.3.2-.6.3-1 .1-.4.1-.8.1-1.2zM101 75.1c.1.9.4 1.5.9 1.9.4.4.9.5 1.5.5.5 0 .9-.1 1.3-.3s.7-.5.9-1l2.8 1.6c-.6.9-1.3 1.5-2.3 2-.9.4-1.9.6-3 .6-1 0-1.9-.2-2.6-.5-.8-.3-1.4-.7-1.9-1.3-.5-.6-.9-1.2-1.2-2s-.4-1.5-.4-2.4c0-.9.1-1.7.4-2.5.3-.8.7-1.4 1.2-2 .5-.6 1.1-1 1.9-1.3s1.6-.5 2.5-.5c.9 0 1.7.2 2.4.5s1.3.7 1.8 1.3c.5.6.9 1.2 1.1 2s.4 1.7.4 2.7v.7H101zm1.9-4.3c-1.1 0-1.7.7-1.9 2.1h3.8c0-.6-.1-1.1-.4-1.5-.4-.4-.8-.6-1.5-.6zM114.9 81.2c.3.1.6.2.9.2.3.1.6.1.8.1.4 0 .6-.1.8-.2.2-.2.3-.4.4-.8l-4.2-12.1h4.2l2 7.9 2-7.9h4.2L121.9 80c-.2.6-.5 1.2-.7 1.8-.2.5-.5 1-.9 1.4s-.8.7-1.4.9-1.3.3-2.2.3h-1.1c-.2 0-.4 0-.6-.1-.2 0-.4-.1-.5-.1l.4-3zM131.7 80.4c-1 0-1.9-.2-2.6-.5-.7-.3-1.4-.7-1.9-1.3-.5-.6-.9-1.2-1.1-2-.2-.8-.4-1.6-.4-2.5s.1-1.7.4-2.5c.3-.8.6-1.4 1.1-2 .5-.6 1.1-1 1.8-1.3.7-.3 1.6-.5 2.6-.5s1.8.2 2.6.5 1.4.7 1.9 1.3c.5.6.9 1.2 1.1 2 .3.8.4 1.6.4 2.5s-.1 1.7-.4 2.5c-.3.8-.6 1.4-1.1 2-.5.6-1.1 1-1.9 1.3-.7.3-1.5.5-2.5.5zm.1-3c.6 0 1.1-.3 1.4-.9.3-.6.4-1.4.4-2.4s-.2-1.8-.5-2.4c-.3-.6-.8-.9-1.4-.9s-1.1.3-1.4.9c-.3.6-.5 1.4-.5 2.4s.2 1.8.5 2.4c.3.6.8.9 1.5.9zM138.8 68.3h3.9v6.4c0 .7.1 1.3.3 1.7.2.4.6.6 1.2.6s1.1-.2 1.4-.7c.3-.5.5-1.2.5-2.3v-5.7h3.9V80h-3.6v-1.7c-.3.6-.7 1.1-1.3 1.5s-1.3.5-2.2.5c-1.4 0-2.4-.4-3.1-1.2s-1-2-1-3.5v-7.3zM151.8 68.3h3.5l.3 2.2c.4-.7.8-1.3 1.5-1.8.6-.5 1.5-.7 2.6-.7v3.9c-.3-.1-.7-.1-1.2-.1-.3 0-.6 0-.9.1-.3.1-.6.2-.9.4-.3.2-.5.5-.7.9-.2.4-.3 1-.3 1.7V80h-3.9V68.3z"/><g><path class="copy-purpleFill" d="M24.5 100.2c.2.2.4.3.7.5s.5.3.9.5c.3.1.6.2 1 .3.3.1.7.1 1 .1.3 0 .6 0 .8-.1.3-.1.4-.3.4-.6s-.2-.5-.5-.7c-.3-.2-.7-.3-1.1-.4-.5-.1-.9-.3-1.5-.4s-1-.4-1.5-.6c-.5-.3-.8-.6-1.1-1.1s-.5-1-.5-1.8c0-.7.1-1.2.4-1.7s.6-.9 1.1-1.2c.5-.3 1-.5 1.6-.7.6-.2 1.2-.2 1.9-.2 1.1 0 2 .1 2.8.4.8.2 1.5.6 2.2 1L31.3 96c-.2-.1-.4-.3-.6-.4-.2-.1-.5-.3-.8-.4l-.9-.3c-.3-.1-.6-.1-1-.1-.3 0-.5 0-.6.1-.2.1-.3.2-.3.5s.2.5.5.6c.3.2.7.3 1.1.4.5.1.9.3 1.5.5.5.2 1 .4 1.5.7.5.3.8.6 1.1 1.1.3.4.5 1 .5 1.7s-.1 1.3-.4 1.8-.7.9-1.2 1.3c-.5.3-1 .6-1.6.7-.6.2-1.2.2-1.8.2-2.2 0-4-.6-5.4-1.7l1.6-2.5zM41.3 104.1c-.1-.2-.2-.4-.2-.7-.1-.3-.1-.5-.1-.7-.2.5-.6.9-1.1 1.2s-1.2.5-2.1.5c-.6 0-1.2-.1-1.7-.3-.5-.2-.9-.5-1.2-.8-.3-.3-.6-.7-.7-1.2s-.3-1-.3-1.5c0-.6.1-1.1.3-1.6.2-.4.5-.8.9-1.1.4-.3.9-.6 1.4-.7.6-.2 1.2-.3 1.9-.4l2.3-.4v-.3c0-.5-.1-.8-.4-1-.3 0-.6-.1-1.1-.1-.7 0-1.3.1-1.8.4-.5.3-1 .6-1.4.9l-1.8-2.6c.2-.2.5-.4.9-.6l1.2-.6c.5-.2 1-.3 1.5-.4s1.2-.1 1.9-.1c1.7 0 3 .4 3.7 1.1.7.7 1.1 1.9 1.1 3.4v5.4c0 .3 0 .6.1.9 0 .3.1.5.1.7.1.2.1.4.3.7h-3.7zm-.6-5.2l-1.6.3c-.5.1-.9.3-1.2.5-.2.2-.4.5-.4.9 0 .3.1.6.3.8.2.2.5.3.9.3.5 0 1-.2 1.4-.6.4-.4.6-1 .6-1.8v-.4zM44.9 92.4h4.3l1.9 8.1 1.9-8.1h4.1l-3.9 11.7h-4.5l-3.8-11.7zM57.8 87.8h3.9v3.1h-3.9v-3.1zm0 4.6h3.9v11.7h-3.9V92.4zM63.5 92.4H67l.3 1.6c.4-.6.9-1 1.5-1.4s1.4-.6 2.2-.6c2.6 0 3.9 1.6 3.9 4.9v7.1H71v-6.2c0-.9-.1-1.6-.4-1.9-.3-.4-.7-.6-1.3-.6-.3 0-.5 0-.8.1-.2.1-.4.3-.6.5-.2.2-.3.6-.4 1-.1.4-.1.9-.1 1.5v5.5h-3.9V92.4zM78 104c.4.4 1 .8 1.7 1.1.7.3 1.3.4 2 .4s1.2-.2 1.5-.5.4-.8.4-1.4v-1.1c-.3.4-.6.7-1.1 1-.5.3-1.1.4-1.9.4-.6 0-1.1-.1-1.6-.3-.5-.2-1-.5-1.5-1s-.8-1-1-1.8c-.3-.7-.4-1.6-.4-2.7 0-1 .1-1.8.3-2.6.2-.8.6-1.4 1-1.9s.9-.9 1.5-1.2c.6-.3 1.2-.4 1.9-.4s1.3.2 1.9.5c.5.3 1 .8 1.3 1.4l.5-1.6h3.1v11.1c0 .7-.1 1.4-.3 2-.2.6-.5 1.1-1 1.6-.5.4-1.1.8-1.8 1-.7.2-1.6.4-2.6.4-.7 0-1.3 0-1.9-.1-.6-.1-1.1-.2-1.6-.4s-.9-.3-1.3-.5-.7-.4-1-.6L78 104zm5.6-5.8c0-.4 0-.7-.1-1.1s-.1-.7-.3-.9c-.1-.3-.3-.5-.5-.7-.2-.2-.5-.3-.9-.3-.2 0-.5 0-.7.1-.2.1-.4.3-.6.5-.2.2-.3.5-.4.9s-.1.9-.1 1.5c0 1 .2 1.7.5 2.2.3.5.8.7 1.4.7s1-.2 1.3-.7c.3-.5.4-1.1.4-2v-.2zM90.3 100.2c.2.2.4.3.7.5s.5.3.9.5c.3.1.6.2 1 .3.3.1.7.1 1 .1.3 0 .6 0 .8-.1.3-.1.4-.3.4-.6s-.2-.5-.5-.7c-.3-.2-.7-.3-1.1-.4-.5-.1-.9-.3-1.5-.4s-1-.4-1.5-.6c-.5-.3-.8-.6-1.1-1.1s-.5-1-.5-1.8c0-.7.1-1.2.4-1.7s.6-.9 1.1-1.2c.5-.3 1-.5 1.6-.7.6-.2 1.2-.2 1.9-.2 1.1 0 2 .1 2.8.4.8.2 1.5.6 2.2 1L97 96c-.2-.1-.4-.3-.6-.4-.2-.1-.5-.3-.8-.4-.3-.1-.6-.2-.9-.2-.3-.1-.6-.1-1-.1-.3 0-.5 0-.6.1-.2.1-.3.2-.3.5s.2.5.5.6c.3.2.7.3 1.1.4.5.1.9.3 1.5.5.5.2 1 .4 1.5.7.5.3.8.6 1.1 1.1.3.4.5 1 .5 1.7s-.1 1.3-.4 1.8-.7.9-1.2 1.3c-.5.3-1 .6-1.6.7-.6.2-1.2.2-1.8.2-2.2 0-4-.6-5.4-1.7l1.7-2.6zM103.8 92.4h4.2l1.7 8 1.5-8h4.1l1.5 8 1.7-8h4.1l-3.8 11.7h-4.1l-1.5-6.3-1.5 6.3h-4.1l-3.8-11.7zM123.3 87.8h3.9v3.1h-3.9v-3.1zm0 4.6h3.9v11.7h-3.9V92.4zM129.9 94.9H128v-2.5h.3c.6 0 1.1-.1 1.4-.3.3-.2.6-.5.8-.8.2-.3.3-.7.4-1.1l.3-1.2h2.4v3.4h2.4v2.5h-2.4v5.4c0 .4.1.6.2.9.1.2.4.3.9.3h.5c.2 0 .4-.1.6-.2l.3 2.7c-.4.2-.9.3-1.3.4-.4.1-.9.1-1.3.1-.7 0-1.3-.1-1.8-.3-.5-.2-.9-.4-1.1-.8-.3-.3-.5-.7-.6-1.2-.1-.5-.2-.9-.2-1.5v-5.8zM137 87.9h3.9V94c.3-.5.7-1 1.3-1.3.6-.4 1.3-.6 2.3-.6 1.3 0 2.3.4 2.9 1.3s.9 2.1.9 3.7v7.1h-3.9v-6.3c0-.7-.1-1.3-.4-1.7-.3-.4-.7-.6-1.3-.6-.6 0-1 .2-1.4.7-.4.5-.5 1.2-.5 2.3v5.7H137V87.9z"/></g><g><path class="copy-purpleFill" d="M38.4 124.5c-.8 1.4-1.8 2.4-3 3s-2.6 1-4.2 1c-1.4 0-2.6-.2-3.6-.6-1-.4-1.9-1-2.6-1.8-.7-.8-1.2-1.6-1.6-2.7-.4-1-.5-2.2-.5-3.4 0-1.3.2-2.4.6-3.4s.9-1.9 1.6-2.7c.7-.7 1.6-1.3 2.6-1.7 1-.4 2.2-.6 3.5-.6 1.5 0 2.8.3 4 .8 1.2.5 2.2 1.5 3.1 2.9l-4 2c-.3-.7-.7-1.2-1.3-1.5-.6-.4-1.2-.5-1.9-.5s-1.3.1-1.7.4c-.5.3-.9.6-1.2 1s-.5 1-.7 1.6c-.2.6-.2 1.2-.2 1.9s.1 1.3.3 1.9c.2.6.4 1.1.7 1.6s.7.8 1.2 1.1c.5.3 1 .4 1.7.4s1.3-.2 1.9-.6c.6-.4 1-1 1.4-1.9l3.9 1.8zM39.6 111.9h3.9v16.2h-3.9v-16.2zM52.2 128.2c-.1-.2-.2-.4-.2-.7-.1-.3-.1-.5-.1-.7-.2.5-.6.9-1.1 1.2-.5.4-1.2.5-2.1.5-.6 0-1.2-.1-1.7-.3-.5-.2-.9-.5-1.2-.8-.3-.3-.6-.7-.7-1.2-.2-.5-.3-1-.3-1.5 0-.6.1-1.1.3-1.6.2-.4.5-.8.9-1.1.4-.3.9-.6 1.4-.7.6-.2 1.2-.3 1.9-.4l2.3-.4v-.3c0-.5-.1-.8-.4-1-.3-.2-.6-.3-1.1-.3-.7 0-1.3.1-1.8.4-.5.3-1 .6-1.4.9l-1.8-2.6c.2-.2.5-.4.9-.6l1.2-.6c.5-.2 1-.3 1.5-.4s1.2-.1 1.9-.1c1.7 0 3 .4 3.7 1.1.7.7 1.1 1.9 1.1 3.4v5.4c0 .3 0 .6.1.9 0 .3.1.5.1.7.1.2.1.4.3.7h-3.7zm-.6-5.2l-1.6.3c-.5.1-.9.3-1.2.5-.2.2-.4.5-.4.9 0 .3.1.6.3.8.2.2.5.3.9.3.5 0 1-.2 1.4-.6.4-.4.6-1 .6-1.8v-.4zM57.3 111.8h3.9v3.1h-3.9v-3.1zm0 4.7h3.9v11.7h-3.9v-11.7zM63 116.5h3.5l.3 1.6c.3-.6.8-1.1 1.3-1.5s1.2-.5 2-.5c.9 0 1.7.2 2.2.6.5.4.9.9 1.1 1.5.1-.2.3-.5.5-.7.2-.3.4-.5.7-.7.3-.2.6-.4 1-.5.4-.1.9-.2 1.4-.2.8 0 1.5.1 2 .4.5.3.9.6 1.2 1.1.3.5.5 1 .6 1.6.1.6.1 1.2.1 1.8v7.2H77v-6.1c0-.9-.1-1.5-.3-1.9-.2-.4-.6-.6-1.2-.6-.2 0-.4 0-.6.1-.2.1-.4.2-.5.4-.2.2-.3.5-.4.9-.1.4-.1.9-.1 1.5v5.9H70V122c0-.8-.1-1.4-.3-1.9-.2-.4-.6-.6-1.2-.6-.2 0-.4 0-.6.1-.2.1-.4.2-.5.4-.2.2-.3.5-.4.9-.1.4-.2.9-.2 1.6v5.6H63v-11.6zM82.9 111.9h6.9c.8 0 1.6.1 2.3.3.8.2 1.4.5 2 .9.6.4 1.1 1 1.4 1.6.4.7.6 1.5.6 2.4 0 1-.2 1.9-.5 2.6-.3.7-.8 1.3-1.3 1.7-.6.4-1.2.8-2 1-.8.2-1.6.3-2.5.3H87v5.4h-4.1v-16.2zm6.3 7.6c.4 0 .7 0 1-.1.3-.1.6-.2.8-.4.2-.2.4-.4.5-.7.1-.3.2-.7.2-1.2 0-.4-.1-.7-.2-1-.1-.3-.3-.5-.6-.6-.2-.2-.5-.3-.8-.3-.3-.1-.7-.1-1-.1H87v4.4h2.2zM103.9 128.2c-.1-.2-.2-.4-.2-.7-.1-.3-.1-.5-.1-.7-.2.5-.6.9-1.1 1.2-.5.4-1.2.5-2.1.5-.6 0-1.2-.1-1.7-.3-.5-.2-.9-.5-1.2-.8-.3-.3-.6-.7-.7-1.2-.2-.5-.3-1-.3-1.5 0-.6.1-1.1.3-1.6.2-.4.5-.8.9-1.1.4-.3.9-.6 1.4-.7.6-.2 1.2-.3 1.9-.4l2.3-.4v-.3c0-.5-.1-.8-.4-1-.3-.2-.6-.3-1.1-.3-.7 0-1.3.1-1.8.4-.5.3-1 .6-1.4.9l-1.8-2.6c.2-.2.5-.4.9-.6l1.2-.6c.5-.2 1-.3 1.5-.4s1.2-.1 1.9-.1c1.7 0 3 .4 3.7 1.1.7.7 1.1 1.9 1.1 3.4v5.4c0 .3 0 .6.1.9 0 .3.1.5.1.7.1.2.1.4.3.7h-3.7zm-.6-5.2l-1.6.3c-.5.1-.9.3-1.2.5-.2.2-.4.5-.4.9 0 .3.1.6.3.8.2.2.5.3.9.3.5 0 1-.2 1.4-.6.4-.4.6-1 .6-1.8v-.4zM109.9 124.3c.2.2.4.3.7.5s.5.3.9.5c.3.1.6.2 1 .3.3.1.7.1 1 .1.3 0 .6 0 .8-.1.3-.1.4-.3.4-.6s-.2-.5-.5-.7c-.3-.2-.7-.3-1.1-.4-.5-.1-.9-.3-1.5-.4s-1-.4-1.5-.6c-.5-.3-.8-.6-1.1-1.1s-.5-1-.5-1.8c0-.7.1-1.2.4-1.7s.6-.9 1.1-1.2c.5-.3 1-.5 1.6-.7.6-.2 1.2-.2 1.9-.2 1.1 0 2 .1 2.8.4.8.2 1.5.6 2.2 1l-1.8 2.6c-.2-.1-.4-.3-.6-.4-.2-.1-.5-.3-.8-.4l-.9-.3c-.3-.1-.6-.1-1-.1-.3 0-.5 0-.6.1-.2.1-.3.2-.3.5s.2.5.5.6c.3.2.7.3 1.1.4.5.1.9.3 1.5.5.5.2 1 .4 1.5.7.5.3.8.6 1.1 1.1.3.4.5 1 .5 1.7s-.1 1.3-.4 1.8c-.3.5-.7.9-1.2 1.3-.5.3-1 .6-1.6.7-.6.2-1.2.2-1.8.2-2.2 0-4-.6-5.4-1.7l1.6-2.6zM120.6 124.3c.2.2.4.3.7.5s.5.3.9.5c.3.1.6.2 1 .3.3.1.7.1 1 .1.3 0 .6 0 .8-.1.3-.1.4-.3.4-.6s-.2-.5-.5-.7c-.3-.2-.7-.3-1.1-.4-.5-.1-.9-.3-1.5-.4s-1-.4-1.5-.6c-.5-.3-.8-.6-1.1-1.1s-.5-1-.5-1.8c0-.7.1-1.2.4-1.7s.6-.9 1.1-1.2c.5-.3 1-.5 1.6-.7.6-.2 1.2-.2 1.9-.2 1.1 0 2 .1 2.8.4.8.2 1.5.6 2.2 1l-1.8 2.6c-.2-.1-.4-.3-.6-.4-.2-.1-.5-.3-.8-.4l-.9-.3c-.3-.1-.6-.1-1-.1-.3 0-.5 0-.6.1-.2.1-.3.2-.3.5s.2.5.5.6c.3.2.7.3 1.1.4.5.1.9.3 1.5.5.5.2 1 .4 1.5.7.5.3.8.6 1.1 1.1.3.4.5 1 .5 1.7s-.1 1.3-.4 1.8c-.3.5-.7.9-1.2 1.3-.5.3-1 .6-1.6.7-.6.2-1.2.2-1.8.2-2.2 0-4-.6-5.4-1.7l1.6-2.6z"/></g><g><path class="copy-purpleFill" d="M131.4 123.9h4.3v4.3h-4.3v-4.3z"/></g></svg>