<?xml version="1.0" encoding="utf-8"?>
<!-- Generator: Adobe Illustrator 22.1.0, SVG Export Plug-In . SVG Version: 6.00 Build 0)  -->
<svg version="1.1" id="Layer_1" xmlns="https://www.w3.org/2000/svg" xmlns:xlink="https://www.w3.org/1999/xlink" x="0px" y="0px"
	 viewBox="0 0 336 280" style="enable-background:new 0 0 336 280;" xml:space="preserve">
<style type="text/css">
	.copy_purpleFill{fill:#662868;}
</style>
<g>
	<path class="copy_purpleFill" d="M26.7,91.2h-4.8v-3.3h14v3.3h-4.8V105h-4.4V91.2z"/>
	<path class="copy_purpleFill" d="M40.8,105.4c-1,0-2-0.2-2.7-0.5c-0.8-0.3-1.4-0.8-1.9-1.4c-0.5-0.6-0.9-1.3-1.2-2.1c-0.3-0.8-0.4-1.7-0.4-2.6
		c0-0.9,0.1-1.8,0.4-2.6c0.3-0.8,0.7-1.5,1.2-2.1c0.5-0.6,1.2-1,1.9-1.4s1.7-0.5,2.7-0.5c1,0,1.9,0.2,2.7,0.5
		c0.8,0.3,1.4,0.8,1.9,1.4c0.5,0.6,0.9,1.3,1.2,2.1c0.3,0.8,0.4,1.7,0.4,2.6c0,0.9-0.1,1.8-0.4,2.6c-0.3,0.8-0.7,1.5-1.2,2.1
		c-0.5,0.6-1.2,1-1.9,1.4C42.7,105.2,41.8,105.4,40.8,105.4z M40.9,102.3c0.7,0,1.2-0.3,1.5-0.9s0.4-1.4,0.4-2.5
		c0-1-0.2-1.9-0.5-2.5c-0.3-0.6-0.8-0.9-1.5-0.9s-1.2,0.3-1.5,0.9c-0.3,0.6-0.5,1.5-0.5,2.5c0,1,0.2,1.9,0.5,2.5
		C39.6,102,40.2,102.3,40.9,102.3z"/>
	<path class="copy_purpleFill" d="M56,103.3c-0.3,0.6-0.7,1.1-1.3,1.5c-0.5,0.3-1.2,0.5-2,0.5c-0.7,0-1.4-0.1-2-0.4c-0.6-0.3-1.1-0.7-1.5-1.2
		c-0.4-0.5-0.8-1.2-1-2s-0.4-1.7-0.4-2.8c0-1.2,0.1-2.2,0.4-3c0.3-0.8,0.7-1.5,1.1-2c0.5-0.5,1-0.9,1.6-1.1c0.6-0.2,1.2-0.3,1.7-0.3
		c0.8,0,1.4,0.1,1.9,0.4c0.5,0.3,0.9,0.7,1.1,1.1v-6h4.1V105H56V103.3z M55.7,98.6c0-0.4,0-0.8-0.1-1.1c-0.1-0.4-0.2-0.7-0.3-1
		c-0.1-0.3-0.3-0.5-0.6-0.7c-0.2-0.2-0.5-0.2-0.9-0.2c-0.6,0-1.1,0.3-1.4,0.8c-0.3,0.5-0.5,1.3-0.5,2.2c0,1.1,0.2,1.9,0.5,2.5
		c0.4,0.6,0.8,0.9,1.4,0.9c0.3,0,0.6-0.1,0.8-0.3c0.2-0.2,0.4-0.4,0.6-0.7s0.2-0.6,0.3-1c0.1-0.4,0.1-0.8,0.1-1.3V98.6z"/>
	<path class="copy_purpleFill" d="M69.1,105c-0.1-0.2-0.2-0.4-0.2-0.7c-0.1-0.3-0.1-0.5-0.1-0.8c-0.2,0.5-0.6,0.9-1.1,1.3
		c-0.5,0.4-1.3,0.6-2.2,0.6c-0.7,0-1.2-0.1-1.7-0.3c-0.5-0.2-0.9-0.5-1.3-0.8c-0.3-0.4-0.6-0.8-0.8-1.3c-0.2-0.5-0.3-1-0.3-1.6
		c0-0.6,0.1-1.2,0.3-1.6s0.5-0.9,0.9-1.2c0.4-0.3,0.9-0.6,1.5-0.8c0.6-0.2,1.2-0.3,2-0.5l2.5-0.4v-0.3c0-0.5-0.1-0.9-0.4-1
		c-0.3-0.2-0.6-0.3-1.1-0.3c-0.8,0-1.4,0.1-1.9,0.4c-0.5,0.3-1,0.6-1.4,1l-1.9-2.7c0.3-0.2,0.6-0.4,1-0.6c0.4-0.2,0.8-0.4,1.3-0.6
		c0.5-0.2,1-0.3,1.6-0.4c0.6-0.1,1.2-0.2,2-0.2c1.8,0,3.1,0.4,3.9,1.2c0.8,0.8,1.2,2,1.2,3.5v4.4c0,0.5,0,0.9,0,1.3
		c0,0.3,0,0.6,0.1,0.9c0,0.3,0.1,0.5,0.2,0.7c0.1,0.2,0.2,0.4,0.3,0.7H69.1z M68.4,99.5l-1.7,0.3c-0.6,0.1-1,0.3-1.2,0.5
		c-0.3,0.2-0.4,0.5-0.4,0.9c0,0.4,0.1,0.6,0.3,0.9c0.2,0.2,0.5,0.4,0.9,0.4c0.6,0,1-0.2,1.4-0.7c0.4-0.4,0.6-1.1,0.6-1.9V99.5z"/>
	<path class="copy_purpleFill" d="M74.5,106.2c0.3,0.1,0.6,0.2,0.9,0.2c0.3,0.1,0.6,0.1,0.8,0.1c0.4,0,0.7-0.1,0.9-0.3c0.2-0.2,0.4-0.5,0.5-0.9
		l-4.4-12.7h4.4l2.1,8.3l2.1-8.3h4.4l-4.3,12.2c-0.2,0.7-0.5,1.3-0.7,1.9c-0.2,0.6-0.6,1.1-0.9,1.5c-0.4,0.4-0.9,0.7-1.5,1
		c-0.6,0.2-1.4,0.4-2.3,0.4c-0.1,0-0.3,0-0.5,0c-0.2,0-0.4,0-0.7,0c-0.2,0-0.5,0-0.7-0.1c-0.2,0-0.4-0.1-0.5-0.1L74.5,106.2z"/>
	<path class="copy_purpleFill" d="M87.2,95.4c0.4-0.2,0.8-0.4,1.1-0.6s0.5-0.4,0.6-0.6c0.2-0.2,0.3-0.5,0.3-0.7c0-0.3,0.1-0.5,0.1-0.8v-0.4h-2.1
		v-4.3h4.5v4.3c0,0.8-0.1,1.4-0.2,1.9c-0.1,0.5-0.4,1-0.7,1.4s-0.7,0.7-1.1,1c-0.5,0.3-1,0.5-1.6,0.8L87.2,95.4z"/>
	<path class="copy_purpleFill" d="M94,100.9c0.2,0.2,0.4,0.4,0.7,0.5c0.3,0.2,0.6,0.4,0.9,0.5c0.3,0.1,0.7,0.3,1,0.4c0.4,0.1,0.7,0.1,1.1,0.1
		c0.3,0,0.6,0,0.9-0.1s0.4-0.3,0.4-0.6c0-0.3-0.2-0.5-0.5-0.7c-0.3-0.2-0.7-0.3-1.2-0.5c-0.5-0.1-1-0.3-1.6-0.4
		c-0.6-0.2-1.1-0.4-1.6-0.7s-0.9-0.7-1.2-1.1c-0.3-0.5-0.5-1.1-0.5-1.9c0-0.7,0.1-1.3,0.4-1.8c0.3-0.5,0.7-0.9,1.2-1.3
		c0.5-0.3,1-0.6,1.7-0.7s1.3-0.2,2-0.2c1.1,0,2.1,0.1,2.9,0.4c0.8,0.3,1.6,0.6,2.3,1.1l-1.9,2.7c-0.2-0.1-0.4-0.3-0.6-0.4
		s-0.5-0.3-0.9-0.4s-0.6-0.2-1-0.3c-0.3-0.1-0.7-0.1-1-0.1c-0.3,0-0.5,0-0.7,0.1c-0.2,0.1-0.3,0.3-0.3,0.5c0,0.3,0.2,0.5,0.5,0.7
		c0.3,0.2,0.7,0.3,1.2,0.5c0.5,0.2,1,0.3,1.5,0.5c0.6,0.2,1.1,0.4,1.5,0.7c0.5,0.3,0.9,0.7,1.2,1.1c0.3,0.5,0.5,1.1,0.5,1.8
		s-0.2,1.3-0.5,1.9c-0.3,0.5-0.7,1-1.2,1.3c-0.5,0.3-1.1,0.6-1.7,0.8c-0.6,0.2-1.2,0.3-1.9,0.3c-2.3,0-4.2-0.6-5.7-1.7L94,100.9z"/>
	<path class="copy_purpleFill" d="M109.3,87.9h4.1V105h-4.1V87.9z"/>
	<path class="copy_purpleFill" d="M118.9,99.8c0.1,1,0.4,1.6,0.9,2s1,0.6,1.6,0.6c0.5,0,1-0.1,1.3-0.3c0.4-0.2,0.7-0.6,1-1l3,1.7
		c-0.6,0.9-1.4,1.6-2.4,2.1c-1,0.4-2,0.7-3.2,0.7c-1,0-2-0.2-2.8-0.5s-1.5-0.8-2-1.4c-0.5-0.6-1-1.3-1.2-2.1
		c-0.3-0.8-0.4-1.7-0.4-2.6c0-0.9,0.1-1.8,0.4-2.6c0.3-0.8,0.7-1.5,1.2-2.1s1.2-1,2-1.4s1.7-0.5,2.6-0.5c1,0,1.8,0.2,2.5,0.5
		c0.7,0.3,1.4,0.8,1.9,1.4c0.5,0.6,0.9,1.3,1.2,2.1c0.3,0.8,0.4,1.8,0.4,2.8c0,0.2,0,0.4,0,0.5c0,0.1,0,0.2,0,0.2H118.9z
		 M120.9,95.3c-1.2,0-1.8,0.7-2,2.2h4c0-0.6-0.2-1.1-0.5-1.6C122.1,95.5,121.6,95.3,120.9,95.3z"/>
	<path class="copy_purpleFill" d="M135.4,105c-0.1-0.2-0.2-0.4-0.2-0.7c-0.1-0.3-0.1-0.5-0.1-0.8c-0.2,0.5-0.6,0.9-1.1,1.3
		c-0.5,0.4-1.3,0.6-2.2,0.6c-0.7,0-1.2-0.1-1.7-0.3c-0.5-0.2-0.9-0.5-1.3-0.8c-0.3-0.4-0.6-0.8-0.8-1.3c-0.2-0.5-0.3-1-0.3-1.6
		c0-0.6,0.1-1.2,0.3-1.6s0.5-0.9,0.9-1.2c0.4-0.3,0.9-0.6,1.5-0.8c0.6-0.2,1.2-0.3,2-0.5l2.5-0.4v-0.3c0-0.5-0.1-0.9-0.4-1
		c-0.3-0.2-0.6-0.3-1.1-0.3c-0.8,0-1.4,0.1-1.9,0.4c-0.5,0.3-1,0.6-1.4,1l-1.9-2.7c0.3-0.2,0.6-0.4,1-0.6c0.4-0.2,0.8-0.4,1.3-0.6
		c0.5-0.2,1-0.3,1.6-0.4c0.6-0.1,1.2-0.2,2-0.2c1.8,0,3.1,0.4,3.9,1.2c0.8,0.8,1.2,2,1.2,3.5v4.4c0,0.5,0,0.9,0,1.3
		c0,0.3,0,0.6,0.1,0.9c0,0.3,0.1,0.5,0.2,0.7c0.1,0.2,0.2,0.4,0.3,0.7H135.4z M134.7,99.5l-1.7,0.3c-0.6,0.1-1,0.3-1.2,0.5
		c-0.3,0.2-0.4,0.5-0.4,0.9c0,0.4,0.1,0.6,0.3,0.9c0.2,0.2,0.5,0.4,0.9,0.4c0.6,0,1-0.2,1.4-0.7c0.4-0.4,0.6-1.1,0.6-1.9V99.5z"/>
	<path class="copy_purpleFill" d="M148.2,103.3c-0.3,0.6-0.7,1.1-1.3,1.5c-0.5,0.3-1.2,0.5-2,0.5c-0.7,0-1.4-0.1-2-0.4c-0.6-0.3-1.1-0.7-1.5-1.2
		c-0.4-0.5-0.8-1.2-1-2s-0.4-1.7-0.4-2.8c0-1.2,0.1-2.2,0.4-3c0.3-0.8,0.7-1.5,1.1-2c0.5-0.5,1-0.9,1.6-1.1c0.6-0.2,1.2-0.3,1.7-0.3
		c0.8,0,1.4,0.1,1.9,0.4c0.5,0.3,0.9,0.7,1.1,1.1v-6h4.1V105h-3.8V103.3z M147.9,98.6c0-0.4,0-0.8-0.1-1.1c-0.1-0.4-0.2-0.7-0.3-1
		c-0.1-0.3-0.3-0.5-0.6-0.7c-0.2-0.2-0.5-0.2-0.9-0.2c-0.6,0-1.1,0.3-1.4,0.8c-0.3,0.5-0.5,1.3-0.5,2.2c0,1.1,0.2,1.9,0.5,2.5
		c0.4,0.6,0.8,0.9,1.4,0.9c0.3,0,0.6-0.1,0.8-0.3c0.2-0.2,0.4-0.4,0.6-0.7s0.2-0.6,0.3-1c0.1-0.4,0.1-0.8,0.1-1.3V98.6z"/>
	<path class="copy_purpleFill" d="M153.9,87.8h4.1V91h-4.1V87.8z M153.9,92.7h4.1V105h-4.1V92.7z"/>
	<path class="copy_purpleFill" d="M159.9,92.7h3.7l0.3,1.7c0.4-0.6,0.9-1.1,1.6-1.5s1.4-0.6,2.3-0.6c2.7,0,4.1,1.7,4.1,5.2v7.5h-4.1v-6.5
		c0-1-0.1-1.6-0.4-2c-0.3-0.4-0.7-0.6-1.3-0.6c-0.3,0-0.6,0.1-0.8,0.2c-0.2,0.1-0.5,0.3-0.6,0.5c-0.2,0.3-0.3,0.6-0.4,1
		c-0.1,0.4-0.1,1-0.1,1.6v5.8h-4.1V92.7z"/>
	<path class="copy_purpleFill" d="M175.1,104.9c0.5,0.5,1.1,0.8,1.8,1.1c0.7,0.3,1.4,0.4,2.1,0.4c0.8,0,1.3-0.2,1.6-0.5c0.3-0.3,0.4-0.8,0.4-1.5
		v-1.2c-0.3,0.4-0.7,0.8-1.2,1.1c-0.5,0.3-1.2,0.4-2,0.4c-0.6,0-1.2-0.1-1.7-0.3s-1.1-0.5-1.5-1s-0.8-1.1-1.1-1.9
		c-0.3-0.8-0.4-1.7-0.4-2.8c0-1,0.1-1.9,0.4-2.7s0.6-1.5,1-2c0.4-0.5,1-1,1.6-1.2c0.6-0.3,1.3-0.4,2-0.4c0.8,0,1.4,0.2,2,0.5
		c0.6,0.3,1,0.8,1.4,1.5l0.5-1.7h3.2v11.7c0,0.8-0.1,1.5-0.3,2.1c-0.2,0.6-0.6,1.2-1.1,1.7c-0.5,0.5-1.1,0.8-1.9,1.1
		s-1.7,0.4-2.8,0.4c-0.7,0-1.4-0.1-2-0.2c-0.6-0.1-1.2-0.2-1.7-0.4s-1-0.4-1.4-0.6c-0.4-0.2-0.8-0.4-1.1-0.6L175.1,104.9z M181,98.7
		c0-0.4,0-0.8-0.1-1.1s-0.2-0.7-0.3-1c-0.1-0.3-0.3-0.5-0.6-0.7c-0.2-0.2-0.5-0.3-0.9-0.3c-0.3,0-0.5,0.1-0.7,0.2
		c-0.2,0.1-0.4,0.3-0.6,0.5c-0.2,0.2-0.3,0.6-0.4,0.9c-0.1,0.4-0.2,0.9-0.2,1.4c0,1,0.2,1.8,0.5,2.3c0.3,0.5,0.8,0.7,1.4,0.7
		s1.1-0.2,1.4-0.7c0.3-0.5,0.4-1.2,0.4-2.1V98.7z"/>
	<path class="copy_purpleFill" d="M192,87.9h4.1v6.4c0.3-0.5,0.8-1,1.4-1.4c0.6-0.4,1.4-0.6,2.4-0.6c1.4,0,2.4,0.4,3.1,1.3c0.7,0.9,1,2.2,1,3.9
		v7.4h-4.1v-6.7c0-0.8-0.1-1.4-0.4-1.8s-0.7-0.6-1.4-0.6c-0.6,0-1.1,0.2-1.4,0.7c-0.4,0.5-0.6,1.3-0.6,2.4v6H192V87.9z"/>
	<path class="copy_purpleFill" d="M209.3,99.8c0.1,1,0.4,1.6,0.9,2c0.5,0.4,1,0.6,1.6,0.6c0.5,0,1-0.1,1.3-0.3c0.4-0.2,0.7-0.6,1-1l3,1.7
		c-0.6,0.9-1.4,1.6-2.4,2.1c-1,0.4-2,0.7-3.2,0.7c-1,0-2-0.2-2.8-0.5c-0.8-0.3-1.5-0.8-2-1.4c-0.5-0.6-1-1.3-1.2-2.1
		c-0.3-0.8-0.4-1.7-0.4-2.6c0-0.9,0.1-1.8,0.4-2.6c0.3-0.8,0.7-1.5,1.2-2.1s1.2-1,2-1.4c0.8-0.3,1.7-0.5,2.6-0.5
		c1,0,1.8,0.2,2.5,0.5c0.7,0.3,1.4,0.8,1.9,1.4c0.5,0.6,0.9,1.3,1.2,2.1c0.3,0.8,0.4,1.8,0.4,2.8c0,0.2,0,0.4,0,0.5s0,0.2,0,0.2
		H209.3z M211.3,95.3c-1.2,0-1.8,0.7-2,2.2h4c0-0.6-0.2-1.1-0.5-1.6C212.5,95.5,212,95.3,211.3,95.3z"/>
	<path class="copy_purpleFill" d="M225.7,105c-0.1-0.2-0.2-0.4-0.2-0.7c-0.1-0.3-0.1-0.5-0.1-0.8c-0.2,0.5-0.6,0.9-1.1,1.3
		c-0.5,0.4-1.3,0.6-2.2,0.6c-0.7,0-1.2-0.1-1.7-0.3c-0.5-0.2-0.9-0.5-1.3-0.8s-0.6-0.8-0.8-1.3c-0.2-0.5-0.3-1-0.3-1.6
		c0-0.6,0.1-1.2,0.3-1.6c0.2-0.5,0.5-0.9,0.9-1.2c0.4-0.3,0.9-0.6,1.5-0.8c0.6-0.2,1.2-0.3,2-0.5l2.5-0.4v-0.3c0-0.5-0.1-0.9-0.4-1
		c-0.3-0.2-0.6-0.3-1.1-0.3c-0.8,0-1.4,0.1-1.9,0.4c-0.5,0.3-1,0.6-1.4,1l-1.9-2.7c0.3-0.2,0.6-0.4,1-0.6c0.4-0.2,0.8-0.4,1.3-0.6
		c0.5-0.2,1-0.3,1.6-0.4c0.6-0.1,1.2-0.2,2-0.2c1.8,0,3.1,0.4,3.9,1.2s1.2,2,1.2,3.5v4.4c0,0.5,0,0.9,0,1.3c0,0.3,0,0.6,0.1,0.9
		c0,0.3,0.1,0.5,0.2,0.7c0.1,0.2,0.2,0.4,0.3,0.7H225.7z M225.1,99.5l-1.7,0.3c-0.6,0.1-1,0.3-1.2,0.5c-0.3,0.2-0.4,0.5-0.4,0.9
		c0,0.4,0.1,0.6,0.3,0.9c0.2,0.2,0.5,0.4,0.9,0.4c0.6,0,1-0.2,1.4-0.7c0.4-0.4,0.6-1.1,0.6-1.9V99.5z"/>
	<path class="copy_purpleFill" d="M231.1,87.9h4.1V105h-4.1V87.9z"/>
	<path class="copy_purpleFill" d="M238,95.3h-2v-2.6h0.3c0.6,0,1.1-0.1,1.5-0.3c0.4-0.2,0.6-0.5,0.8-0.8c0.2-0.3,0.4-0.7,0.4-1.2
		c0.1-0.4,0.2-0.9,0.3-1.3h2.6v3.6h2.5v2.6h-2.5v5.7c0,0.4,0.1,0.7,0.2,0.9c0.1,0.2,0.5,0.4,0.9,0.4c0.1,0,0.3,0,0.5,0
		c0.2,0,0.4-0.1,0.7-0.2l0.3,2.9c-0.5,0.2-0.9,0.3-1.4,0.4c-0.5,0.1-0.9,0.1-1.4,0.1c-0.8,0-1.4-0.1-1.9-0.3
		c-0.5-0.2-0.9-0.5-1.2-0.8c-0.3-0.3-0.5-0.7-0.6-1.2s-0.2-1-0.2-1.6V95.3z"/>
	<path class="copy_purpleFill" d="M245.6,87.9h4.1v6.4c0.3-0.5,0.8-1,1.4-1.4c0.6-0.4,1.4-0.6,2.4-0.6c1.4,0,2.4,0.4,3.1,1.3
		c0.7,0.9,1,2.2,1,3.9v7.4h-4.1v-6.7c0-0.8-0.1-1.4-0.4-1.8s-0.7-0.6-1.4-0.6c-0.6,0-1.1,0.2-1.4,0.7c-0.4,0.5-0.6,1.3-0.6,2.4v6
		h-4.1V87.9z"/>
</g>
<g>
	<path class="copy_purpleFill" d="M22.9,118h4.1v1.6c0.3-0.6,0.7-1,1.2-1.4c0.5-0.4,1.2-0.6,2.1-0.6c1.4,0,2.5,0.5,3.3,1.6
		c0.9,1.1,1.3,2.7,1.3,4.8c0,1.3-0.2,2.4-0.5,3.2c-0.3,0.8-0.7,1.5-1.2,2c-0.5,0.5-1,0.9-1.6,1.1c-0.6,0.2-1.1,0.3-1.7,0.3
		c-0.6,0-1.2-0.1-1.8-0.3s-1-0.6-1.3-1v5.3h-4.1V118z M26.9,124.3c0,0.4,0,0.8,0.1,1.2c0.1,0.4,0.2,0.7,0.4,1
		c0.2,0.3,0.4,0.5,0.6,0.7c0.2,0.2,0.5,0.2,0.8,0.2c0.6,0,1-0.3,1.3-0.8c0.3-0.5,0.5-1.3,0.5-2.4c0-1.1-0.2-1.9-0.5-2.4
		c-0.3-0.5-0.8-0.8-1.4-0.8c-0.3,0-0.6,0.1-0.8,0.3c-0.2,0.2-0.4,0.4-0.6,0.7c-0.1,0.3-0.2,0.6-0.3,1c-0.1,0.4-0.1,0.7-0.1,1.1
		V124.3z"/>
	<path class="copy_purpleFill" d="M36.2,113.3h4.1v17.1h-4.1V113.3z"/>
	<path class="copy_purpleFill" d="M49.5,130.3c-0.1-0.2-0.2-0.4-0.2-0.7c-0.1-0.3-0.1-0.5-0.1-0.8c-0.2,0.5-0.6,0.9-1.1,1.3
		c-0.5,0.4-1.3,0.6-2.2,0.6c-0.7,0-1.2-0.1-1.7-0.3c-0.5-0.2-0.9-0.5-1.3-0.8c-0.3-0.4-0.6-0.8-0.8-1.3c-0.2-0.5-0.3-1-0.3-1.6
		c0-0.6,0.1-1.2,0.3-1.6s0.5-0.9,0.9-1.2c0.4-0.3,0.9-0.6,1.5-0.8c0.6-0.2,1.2-0.3,2-0.5l2.5-0.4v-0.3c0-0.5-0.1-0.9-0.4-1
		c-0.3-0.2-0.6-0.3-1.1-0.3c-0.8,0-1.4,0.1-1.9,0.4c-0.5,0.3-1,0.6-1.4,1l-1.9-2.7c0.3-0.2,0.6-0.4,1-0.6c0.4-0.2,0.8-0.4,1.3-0.6
		c0.5-0.2,1-0.3,1.6-0.4c0.6-0.1,1.2-0.2,2-0.2c1.8,0,3.1,0.4,3.9,1.2c0.8,0.8,1.2,2,1.2,3.5v4.4c0,0.5,0,0.9,0,1.3
		c0,0.3,0,0.6,0.1,0.9c0,0.3,0.1,0.5,0.2,0.7c0.1,0.2,0.2,0.4,0.3,0.7H49.5z M48.9,124.9l-1.7,0.3c-0.6,0.1-1,0.3-1.2,0.5
		c-0.3,0.2-0.4,0.5-0.4,0.9c0,0.4,0.1,0.6,0.3,0.9c0.2,0.2,0.5,0.4,0.9,0.4c0.6,0,1-0.2,1.4-0.7c0.4-0.4,0.6-1.1,0.6-1.9V124.9z"/>
	<path class="copy_purpleFill" d="M54.9,118h3.7l0.3,1.7c0.4-0.6,0.9-1.1,1.6-1.5s1.4-0.6,2.3-0.6c2.7,0,4.1,1.7,4.1,5.2v7.5h-4.1v-6.5
		c0-1-0.1-1.6-0.4-2c-0.3-0.4-0.7-0.6-1.3-0.6c-0.3,0-0.6,0.1-0.8,0.2c-0.2,0.1-0.5,0.3-0.6,0.5c-0.2,0.3-0.3,0.6-0.4,1
		c-0.1,0.4-0.1,1-0.1,1.6v5.8h-4.1V118z"/>
	<path class="copy_purpleFill" d="M69.7,126.2c0.2,0.2,0.4,0.4,0.7,0.5c0.3,0.2,0.6,0.4,0.9,0.5c0.3,0.1,0.7,0.3,1,0.4c0.4,0.1,0.7,0.1,1.1,0.1
		c0.3,0,0.6,0,0.9-0.1s0.4-0.3,0.4-0.6c0-0.3-0.2-0.5-0.5-0.7c-0.3-0.2-0.7-0.3-1.2-0.5c-0.5-0.1-1-0.3-1.6-0.4
		c-0.6-0.2-1.1-0.4-1.6-0.7s-0.9-0.7-1.2-1.1c-0.3-0.5-0.5-1.1-0.5-1.9c0-0.7,0.1-1.3,0.4-1.8c0.3-0.5,0.7-0.9,1.2-1.3
		c0.5-0.3,1-0.6,1.7-0.7s1.3-0.2,2-0.2c1.1,0,2.1,0.1,2.9,0.4c0.8,0.3,1.6,0.6,2.3,1.1l-1.9,2.7c-0.2-0.1-0.4-0.3-0.6-0.4
		s-0.5-0.3-0.9-0.4s-0.6-0.2-1-0.3c-0.3-0.1-0.7-0.1-1-0.1c-0.3,0-0.5,0-0.7,0.1c-0.2,0.1-0.3,0.3-0.3,0.5c0,0.3,0.2,0.5,0.5,0.7
		c0.3,0.2,0.7,0.3,1.2,0.5c0.5,0.2,1,0.3,1.5,0.5c0.6,0.2,1.1,0.4,1.5,0.7c0.5,0.3,0.9,0.7,1.2,1.1c0.3,0.5,0.5,1.1,0.5,1.8
		s-0.2,1.3-0.5,1.9c-0.3,0.5-0.7,1-1.2,1.3c-0.5,0.3-1.1,0.6-1.7,0.8c-0.6,0.2-1.2,0.3-1.9,0.3c-2.3,0-4.2-0.6-5.7-1.7L69.7,126.2z"
		/>
	<path class="copy_purpleFill" d="M92.3,130.3c-0.1-0.2-0.2-0.4-0.2-0.7c-0.1-0.3-0.1-0.5-0.1-0.8c-0.2,0.5-0.6,0.9-1.1,1.3
		c-0.5,0.4-1.3,0.6-2.2,0.6c-0.7,0-1.2-0.1-1.7-0.3c-0.5-0.2-0.9-0.5-1.3-0.8c-0.3-0.4-0.6-0.8-0.8-1.3c-0.2-0.5-0.3-1-0.3-1.6
		c0-0.6,0.1-1.2,0.3-1.6s0.5-0.9,0.9-1.2c0.4-0.3,0.9-0.6,1.5-0.8c0.6-0.2,1.2-0.3,2-0.5l2.5-0.4v-0.3c0-0.5-0.1-0.9-0.4-1
		c-0.3-0.2-0.6-0.3-1.1-0.3c-0.8,0-1.4,0.1-1.9,0.4c-0.5,0.3-1,0.6-1.4,1l-1.9-2.7c0.3-0.2,0.6-0.4,1-0.6c0.4-0.2,0.8-0.4,1.3-0.6
		c0.5-0.2,1-0.3,1.6-0.4c0.6-0.1,1.2-0.2,2-0.2c1.8,0,3.1,0.4,3.9,1.2c0.8,0.8,1.2,2,1.2,3.5v4.4c0,0.5,0,0.9,0,1.3
		c0,0.3,0,0.6,0.1,0.9c0,0.3,0.1,0.5,0.2,0.7c0.1,0.2,0.2,0.4,0.3,0.7H92.3z M91.7,124.9l-1.7,0.3c-0.6,0.1-1,0.3-1.2,0.5
		c-0.3,0.2-0.4,0.5-0.4,0.9c0,0.4,0.1,0.6,0.3,0.9c0.2,0.2,0.5,0.4,0.9,0.4c0.6,0,1-0.2,1.4-0.7c0.4-0.4,0.6-1.1,0.6-1.9V124.9z"/>
	<path class="copy_purpleFill" d="M97.7,118h3.7l0.3,1.7c0.4-0.6,0.9-1.1,1.6-1.5s1.4-0.6,2.3-0.6c2.7,0,4.1,1.7,4.1,5.2v7.5h-4.1v-6.5
		c0-1-0.1-1.6-0.4-2c-0.3-0.4-0.7-0.6-1.3-0.6c-0.3,0-0.6,0.1-0.8,0.2c-0.2,0.1-0.5,0.3-0.6,0.5c-0.2,0.3-0.3,0.6-0.4,1
		c-0.1,0.4-0.1,1-0.1,1.6v5.8h-4.1V118z"/>
	<path class="copy_purpleFill" d="M119,128.6c-0.3,0.6-0.7,1.1-1.3,1.5c-0.5,0.3-1.2,0.5-2,0.5c-0.7,0-1.4-0.1-2-0.4c-0.6-0.3-1.1-0.7-1.5-1.2
		c-0.4-0.5-0.8-1.2-1-2s-0.4-1.7-0.4-2.8c0-1.2,0.1-2.2,0.4-3c0.3-0.8,0.7-1.5,1.1-2c0.5-0.5,1-0.9,1.6-1.1c0.6-0.2,1.2-0.3,1.7-0.3
		c0.8,0,1.4,0.1,1.9,0.4c0.5,0.3,0.9,0.7,1.1,1.1v-6h4.1v17.1H119V128.6z M118.7,123.9c0-0.4,0-0.8-0.1-1.1c-0.1-0.4-0.2-0.7-0.3-1
		c-0.1-0.3-0.3-0.5-0.6-0.7c-0.2-0.2-0.5-0.2-0.9-0.2c-0.6,0-1.1,0.3-1.4,0.8c-0.3,0.5-0.5,1.3-0.5,2.2c0,1.1,0.2,1.9,0.5,2.5
		c0.4,0.6,0.8,0.9,1.4,0.9c0.3,0,0.6-0.1,0.8-0.3c0.2-0.2,0.4-0.4,0.6-0.7s0.2-0.6,0.3-1c0.1-0.4,0.1-0.8,0.1-1.3V123.9z"/>
	<path class="copy_purpleFill" d="M133.3,116.5h-4.8v-3.3h14v3.3h-4.8v13.8h-4.4V116.5z"/>
	<path class="copy_purpleFill" d="M143.7,113.3h7.3c0.8,0,1.7,0.1,2.5,0.3c0.8,0.2,1.5,0.5,2.1,0.9c0.6,0.4,1.1,1,1.5,1.7
		c0.4,0.7,0.6,1.5,0.6,2.5c0,1.1-0.2,2-0.5,2.8s-0.8,1.3-1.4,1.8c-0.6,0.5-1.3,0.8-2.1,1s-1.7,0.3-2.6,0.3H148v5.7h-4.4V113.3z
		 M150.3,121.2c0.4,0,0.7,0,1.1-0.1c0.3-0.1,0.6-0.2,0.8-0.4c0.2-0.2,0.4-0.4,0.6-0.7c0.1-0.3,0.2-0.7,0.2-1.2c0-0.4-0.1-0.7-0.2-1
		c-0.2-0.3-0.4-0.5-0.6-0.7c-0.3-0.2-0.5-0.3-0.9-0.4c-0.3-0.1-0.7-0.1-1-0.1H148v4.6H150.3z"/>
	<path class="copy_purpleFill" d="M162.5,113.3h3.9l6.7,17.1h-4.6l-1.2-3.5h-5.8l-1.2,3.5h-4.4L162.5,113.3z M166.1,123.6
		c-0.3-0.9-0.6-1.7-0.9-2.5s-0.6-1.7-0.9-2.8c-0.2,1-0.5,1.9-0.8,2.7c-0.3,0.8-0.6,1.7-0.9,2.6H166.1z"/>
	<path class="copy_purpleFill" d="M175,126.2c0.2,0.2,0.4,0.4,0.7,0.5c0.3,0.2,0.6,0.4,0.9,0.5c0.3,0.1,0.7,0.3,1,0.4c0.4,0.1,0.7,0.1,1.1,0.1
		c0.3,0,0.6,0,0.9-0.1c0.3-0.1,0.4-0.3,0.4-0.6c0-0.3-0.2-0.5-0.5-0.7s-0.7-0.3-1.2-0.5c-0.5-0.1-1-0.3-1.6-0.4s-1.1-0.4-1.6-0.7
		s-0.9-0.7-1.2-1.1s-0.5-1.1-0.5-1.9c0-0.7,0.1-1.3,0.4-1.8s0.7-0.9,1.2-1.3c0.5-0.3,1-0.6,1.7-0.7s1.3-0.2,2-0.2
		c1.1,0,2.1,0.1,2.9,0.4c0.8,0.3,1.6,0.6,2.3,1.1l-1.9,2.7c-0.2-0.1-0.4-0.3-0.6-0.4c-0.3-0.1-0.5-0.3-0.9-0.4s-0.6-0.2-1-0.3
		c-0.3-0.1-0.7-0.1-1-0.1c-0.3,0-0.5,0-0.7,0.1c-0.2,0.1-0.3,0.3-0.3,0.5c0,0.3,0.2,0.5,0.5,0.7c0.3,0.2,0.7,0.3,1.2,0.5
		c0.5,0.2,1,0.3,1.5,0.5c0.6,0.2,1.1,0.4,1.5,0.7s0.9,0.7,1.2,1.1c0.3,0.5,0.5,1.1,0.5,1.8s-0.2,1.3-0.5,1.9c-0.3,0.5-0.7,1-1.2,1.3
		s-1.1,0.6-1.7,0.8c-0.6,0.2-1.2,0.3-1.9,0.3c-2.3,0-4.2-0.6-5.7-1.7L175,126.2z"/>
	<path class="copy_purpleFill" d="M197.6,130.3c-0.1-0.2-0.2-0.4-0.2-0.7c-0.1-0.3-0.1-0.5-0.1-0.8c-0.2,0.5-0.6,0.9-1.1,1.3
		c-0.5,0.4-1.3,0.6-2.2,0.6c-0.7,0-1.2-0.1-1.7-0.3c-0.5-0.2-0.9-0.5-1.3-0.8s-0.6-0.8-0.8-1.3c-0.2-0.5-0.3-1-0.3-1.6
		c0-0.6,0.1-1.2,0.3-1.6c0.2-0.5,0.5-0.9,0.9-1.2c0.4-0.3,0.9-0.6,1.5-0.8c0.6-0.2,1.2-0.3,2-0.5l2.5-0.4v-0.3c0-0.5-0.1-0.9-0.4-1
		c-0.3-0.2-0.6-0.3-1.1-0.3c-0.8,0-1.4,0.1-1.9,0.4c-0.5,0.3-1,0.6-1.4,1l-1.9-2.7c0.3-0.2,0.6-0.4,1-0.6c0.4-0.2,0.8-0.4,1.3-0.6
		c0.5-0.2,1-0.3,1.6-0.4c0.6-0.1,1.2-0.2,2-0.2c1.8,0,3.1,0.4,3.9,1.2s1.2,2,1.2,3.5v4.4c0,0.5,0,0.9,0,1.3c0,0.3,0,0.6,0.1,0.9
		c0,0.3,0.1,0.5,0.2,0.7c0.1,0.2,0.2,0.4,0.3,0.7H197.6z M197,124.9l-1.7,0.3c-0.6,0.1-1,0.3-1.2,0.5c-0.3,0.2-0.4,0.5-0.4,0.9
		c0,0.4,0.1,0.6,0.3,0.9c0.2,0.2,0.5,0.4,0.9,0.4c0.6,0,1-0.2,1.4-0.7c0.4-0.4,0.6-1.1,0.6-1.9V124.9z"/>
	<path class="copy_purpleFill" d="M203,118h3.7l0.3,2.3c0.4-0.7,0.9-1.4,1.6-1.9c0.7-0.5,1.6-0.8,2.7-0.8v4.1c-0.3-0.1-0.7-0.1-1.3-0.1
		c-0.3,0-0.6,0-1,0.1c-0.3,0.1-0.6,0.2-0.9,0.4s-0.5,0.5-0.7,1c-0.2,0.4-0.3,1-0.3,1.8v5.4H203V118z"/>
	<path class="copy_purpleFill" d="M215.5,125.1c0.1,1,0.4,1.6,0.9,2c0.5,0.4,1,0.6,1.6,0.6c0.5,0,1-0.1,1.3-0.3c0.4-0.2,0.7-0.6,1-1l3,1.7
		c-0.6,0.9-1.4,1.6-2.4,2.1c-1,0.4-2,0.7-3.2,0.7c-1,0-2-0.2-2.8-0.5c-0.8-0.3-1.5-0.8-2-1.4c-0.5-0.6-1-1.3-1.2-2.1
		c-0.3-0.8-0.4-1.7-0.4-2.6c0-0.9,0.1-1.8,0.4-2.6c0.3-0.8,0.7-1.5,1.2-2.1s1.2-1,2-1.4c0.8-0.3,1.7-0.5,2.6-0.5
		c1,0,1.8,0.2,2.5,0.5c0.7,0.3,1.4,0.8,1.9,1.4c0.5,0.6,0.9,1.3,1.2,2.1c0.3,0.8,0.4,1.8,0.4,2.8c0,0.2,0,0.4,0,0.5s0,0.2,0,0.2
		H215.5z M217.5,120.6c-1.2,0-1.8,0.7-2,2.2h4c0-0.6-0.2-1.1-0.5-1.6C218.6,120.9,218.2,120.6,217.5,120.6z"/>
</g>
<g>
	<path class="copy_purpleFill" d="M24,151.6c0.2,0.2,0.4,0.4,0.7,0.5c0.3,0.2,0.6,0.4,0.9,0.5c0.3,0.1,0.7,0.3,1,0.4c0.4,0.1,0.7,0.1,1.1,0.1
		c0.3,0,0.6,0,0.9-0.1s0.4-0.3,0.4-0.6c0-0.3-0.2-0.5-0.5-0.7c-0.3-0.2-0.7-0.3-1.2-0.5c-0.5-0.1-1-0.3-1.6-0.4
		c-0.6-0.2-1.1-0.4-1.6-0.7c-0.5-0.3-0.9-0.7-1.2-1.1c-0.3-0.5-0.5-1.1-0.5-1.9c0-0.7,0.1-1.3,0.4-1.8c0.3-0.5,0.7-0.9,1.2-1.3
		c0.5-0.3,1-0.6,1.7-0.7c0.6-0.2,1.3-0.2,2-0.2c1.1,0,2.1,0.1,2.9,0.4c0.8,0.3,1.6,0.6,2.3,1.1l-1.9,2.7c-0.2-0.1-0.4-0.3-0.6-0.4
		c-0.3-0.1-0.5-0.3-0.9-0.4c-0.3-0.1-0.6-0.2-1-0.3c-0.3-0.1-0.7-0.1-1-0.1c-0.3,0-0.5,0-0.7,0.1c-0.2,0.1-0.3,0.3-0.3,0.5
		c0,0.3,0.2,0.5,0.5,0.7c0.3,0.2,0.7,0.3,1.2,0.5s1,0.3,1.5,0.5s1.1,0.4,1.5,0.7c0.5,0.3,0.9,0.7,1.2,1.1c0.3,0.5,0.5,1.1,0.5,1.8
		c0,0.7-0.2,1.3-0.5,1.9s-0.7,1-1.2,1.3c-0.5,0.3-1.1,0.6-1.7,0.8c-0.6,0.2-1.2,0.3-1.9,0.3c-2.3,0-4.2-0.6-5.7-1.7L24,151.6z"/>
	<path class="copy_purpleFill" d="M41.6,155.7c-0.1-0.2-0.2-0.4-0.2-0.7c-0.1-0.3-0.1-0.5-0.1-0.8c-0.2,0.5-0.6,0.9-1.1,1.3
		c-0.5,0.4-1.3,0.6-2.2,0.6c-0.7,0-1.2-0.1-1.7-0.3c-0.5-0.2-0.9-0.5-1.3-0.8c-0.3-0.4-0.6-0.8-0.8-1.3c-0.2-0.5-0.3-1-0.3-1.6
		c0-0.6,0.1-1.2,0.3-1.6c0.2-0.5,0.5-0.8,0.9-1.2c0.4-0.3,0.9-0.6,1.5-0.8c0.6-0.2,1.2-0.3,2-0.5l2.5-0.4v-0.3c0-0.5-0.1-0.9-0.4-1
		s-0.6-0.3-1.1-0.3c-0.8,0-1.4,0.1-1.9,0.4c-0.5,0.3-1,0.6-1.4,1l-1.9-2.7c0.3-0.2,0.6-0.4,1-0.6c0.4-0.2,0.8-0.4,1.3-0.6
		c0.5-0.2,1-0.3,1.6-0.4c0.6-0.1,1.2-0.2,2-0.2c1.8,0,3.1,0.4,3.9,1.2c0.8,0.8,1.2,2,1.2,3.5v4.4c0,0.5,0,0.9,0,1.3
		c0,0.3,0,0.6,0.1,0.9c0,0.3,0.1,0.5,0.2,0.7c0.1,0.2,0.2,0.4,0.3,0.7H41.6z M41,150.2l-1.7,0.3c-0.6,0.1-1,0.3-1.2,0.5
		c-0.3,0.2-0.4,0.5-0.4,0.9c0,0.4,0.1,0.6,0.3,0.9c0.2,0.2,0.5,0.4,0.9,0.4c0.6,0,1-0.2,1.4-0.7c0.4-0.4,0.6-1.1,0.6-1.9V150.2z"/>
	<path class="copy_purpleFill" d="M45.5,143.3H50l2,8.5l2-8.5h4.4l-4.1,12.3h-4.8L45.5,143.3z"/>
	<path class="copy_purpleFill" d="M59,138.5h4.1v3.2H59V138.5z M59,143.3h4.1v12.3H59V143.3z"/>
	<path class="copy_purpleFill" d="M65,143.3h3.7l0.3,1.7c0.4-0.6,0.9-1.1,1.6-1.5s1.4-0.6,2.3-0.6c2.7,0,4.1,1.7,4.1,5.2v7.5h-4.1v-6.5
		c0-1-0.1-1.6-0.4-2c-0.3-0.4-0.7-0.6-1.3-0.6c-0.3,0-0.6,0.1-0.8,0.2c-0.2,0.1-0.5,0.3-0.6,0.5c-0.2,0.3-0.3,0.6-0.4,1
		c-0.1,0.4-0.1,1-0.1,1.6v5.8H65V143.3z"/>
	<path class="copy_purpleFill" d="M80.2,155.6c0.5,0.5,1.1,0.8,1.8,1.1c0.7,0.3,1.4,0.4,2.1,0.4c0.8,0,1.3-0.2,1.6-0.5c0.3-0.3,0.4-0.8,0.4-1.5
		V154c-0.3,0.4-0.7,0.8-1.2,1.1s-1.2,0.4-2,0.4c-0.6,0-1.2-0.1-1.7-0.3c-0.6-0.2-1.1-0.5-1.5-1c-0.5-0.5-0.8-1.1-1.1-1.9
		c-0.3-0.8-0.4-1.7-0.4-2.8c0-1,0.1-1.9,0.4-2.7c0.2-0.8,0.6-1.5,1-2c0.4-0.5,1-1,1.6-1.2s1.3-0.4,2-0.4c0.8,0,1.4,0.2,2,0.5
		c0.6,0.3,1,0.8,1.4,1.5l0.5-1.7h3.2V155c0,0.8-0.1,1.5-0.3,2.1c-0.2,0.6-0.6,1.2-1.1,1.7c-0.5,0.5-1.1,0.8-1.9,1.1
		c-0.8,0.3-1.7,0.4-2.8,0.4c-0.7,0-1.4-0.1-2-0.2c-0.6-0.1-1.2-0.2-1.7-0.4c-0.5-0.2-1-0.4-1.4-0.6c-0.4-0.2-0.8-0.4-1.1-0.6
		L80.2,155.6z M86.1,149.4c0-0.4,0-0.8-0.1-1.1c-0.1-0.4-0.2-0.7-0.3-1c-0.1-0.3-0.3-0.5-0.6-0.7c-0.2-0.2-0.5-0.3-0.9-0.3
		c-0.3,0-0.5,0.1-0.7,0.2c-0.2,0.1-0.4,0.3-0.6,0.5c-0.2,0.2-0.3,0.6-0.4,0.9c-0.1,0.4-0.2,0.9-0.2,1.4c0,1,0.2,1.8,0.5,2.3
		c0.3,0.5,0.8,0.7,1.4,0.7s1.1-0.2,1.4-0.7c0.3-0.5,0.4-1.2,0.4-2.1V149.4z"/>
	<path class="copy_purpleFill" d="M97,143.3h4.1v6.8c0,0.8,0.1,1.4,0.4,1.8c0.2,0.4,0.7,0.6,1.3,0.6c0.7,0,1.2-0.2,1.5-0.8
		c0.3-0.5,0.5-1.3,0.5-2.4v-5.9h4.1v12.3H105v-1.8c-0.3,0.6-0.8,1.2-1.3,1.5c-0.6,0.4-1.3,0.6-2.4,0.6c-1.5,0-2.5-0.4-3.2-1.3
		c-0.7-0.8-1-2.1-1-3.7V143.3z"/>
	<path class="copy_purpleFill" d="M110.7,143.3h4.1v1.6c0.3-0.6,0.7-1,1.2-1.4c0.5-0.4,1.2-0.6,2.1-0.6c1.4,0,2.5,0.5,3.3,1.6s1.3,2.7,1.3,4.8
		c0,1.3-0.2,2.4-0.5,3.2c-0.3,0.8-0.7,1.5-1.2,2c-0.5,0.5-1,0.9-1.6,1.1c-0.6,0.2-1.1,0.3-1.7,0.3c-0.6,0-1.2-0.1-1.8-0.3
		s-1-0.6-1.3-1v5.3h-4.1V143.3z M114.8,149.6c0,0.4,0,0.8,0.1,1.2c0.1,0.4,0.2,0.7,0.4,1c0.2,0.3,0.4,0.5,0.6,0.7
		c0.2,0.2,0.5,0.2,0.8,0.2c0.6,0,1-0.3,1.3-0.8c0.3-0.5,0.5-1.3,0.5-2.4c0-1.1-0.2-1.9-0.5-2.4c-0.3-0.5-0.8-0.8-1.4-0.8
		c-0.3,0-0.6,0.1-0.8,0.3c-0.2,0.2-0.4,0.4-0.6,0.7c-0.1,0.3-0.2,0.6-0.3,1c-0.1,0.4-0.1,0.7-0.1,1.1V149.6z"/>
	<path class="copy_purpleFill" d="M130,146h-2v-2.6h0.3c0.6,0,1.1-0.1,1.5-0.3c0.4-0.2,0.6-0.5,0.8-0.8c0.2-0.3,0.4-0.7,0.4-1.2s0.2-0.9,0.3-1.3
		h2.6v3.6h2.5v2.6H134v5.7c0,0.4,0.1,0.7,0.2,0.9c0.1,0.2,0.5,0.4,0.9,0.4c0.1,0,0.3,0,0.5,0c0.2,0,0.4-0.1,0.7-0.2l0.3,2.9
		c-0.5,0.2-0.9,0.3-1.4,0.4c-0.5,0.1-0.9,0.1-1.4,0.1c-0.8,0-1.4-0.1-1.9-0.3c-0.5-0.2-0.9-0.5-1.2-0.8s-0.5-0.7-0.6-1.2
		c-0.1-0.5-0.2-1-0.2-1.6V146z"/>
	<path class="copy_purpleFill" d="M143.1,156c-1,0-2-0.2-2.7-0.5c-0.8-0.3-1.4-0.8-1.9-1.4c-0.5-0.6-0.9-1.3-1.2-2.1c-0.3-0.8-0.4-1.7-0.4-2.6
		c0-0.9,0.1-1.8,0.4-2.6c0.3-0.8,0.7-1.5,1.2-2.1c0.5-0.6,1.2-1,1.9-1.4c0.8-0.3,1.7-0.5,2.7-0.5c1,0,1.9,0.2,2.7,0.5
		c0.8,0.3,1.4,0.8,1.9,1.4c0.5,0.6,0.9,1.3,1.2,2.1c0.3,0.8,0.4,1.7,0.4,2.6c0,0.9-0.1,1.8-0.4,2.6c-0.3,0.8-0.7,1.5-1.2,2.1
		c-0.5,0.6-1.2,1-1.9,1.4C145,155.9,144.1,156,143.1,156z M143.2,152.9c0.7,0,1.2-0.3,1.5-0.9c0.3-0.6,0.4-1.4,0.4-2.5
		s-0.2-1.9-0.5-2.5s-0.8-0.9-1.5-0.9s-1.2,0.3-1.5,0.9c-0.3,0.6-0.5,1.5-0.5,2.5s0.2,1.9,0.5,2.5
		C141.9,152.6,142.4,152.9,143.2,152.9z"/>
	<path class="copy_purpleFill" d="M158.3,147c-0.4-0.1-0.7-0.3-1-0.5c-0.3-0.2-0.6-0.4-0.9-0.7c-0.3-0.3-0.5-0.6-0.6-1c-0.2-0.4-0.2-0.7-0.2-1.2
		c0-0.8,0.2-1.5,0.5-2c0.3-0.6,0.8-1,1.3-1.4c0.5-0.4,1.2-0.6,1.9-0.8c0.7-0.2,1.4-0.3,2.1-0.3c0.7,0,1.4,0.1,2.1,0.3
		c0.7,0.2,1.3,0.5,1.9,0.8c0.6,0.4,1,0.9,1.4,1.4s0.5,1.2,0.5,2c0,0.8-0.3,1.6-0.8,2.1c-0.6,0.6-1.2,1-2,1.2c1,0.2,1.8,0.6,2.4,1.2
		c0.6,0.6,0.9,1.5,0.9,2.6c0,1-0.2,1.8-0.6,2.4c-0.4,0.7-0.9,1.2-1.5,1.6c-0.6,0.4-1.3,0.7-2,0.9c-0.8,0.2-1.5,0.3-2.3,0.3
		c-0.8,0-1.5-0.1-2.3-0.3c-0.8-0.2-1.5-0.5-2.1-0.9c-0.6-0.4-1.1-1-1.5-1.6c-0.4-0.7-0.6-1.5-0.6-2.4c0-1,0.3-1.9,0.9-2.6
		S157.2,147.2,158.3,147z M161.3,152.8c0.6,0,1.1-0.2,1.5-0.6s0.6-1,0.6-1.7c0-0.7-0.2-1.2-0.6-1.6s-0.9-0.6-1.5-0.6
		c-0.7,0-1.3,0.2-1.6,0.6s-0.5,1-0.5,1.6c0,0.6,0.2,1.2,0.6,1.6C160.1,152.6,160.6,152.8,161.3,152.8z M159.6,143.9
		c0,0.6,0.2,1,0.5,1.4c0.3,0.4,0.8,0.6,1.3,0.6s0.9-0.2,1.3-0.6c0.3-0.4,0.5-0.9,0.5-1.4c0-0.6-0.2-1-0.5-1.4
		c-0.3-0.4-0.8-0.6-1.3-0.6c-0.6,0-1,0.2-1.3,0.6C159.7,142.9,159.6,143.3,159.6,143.9z"/>
	<path class="copy_purpleFill" d="M176.9,143.8c-0.2-0.5-0.5-0.9-0.8-1.2s-0.8-0.4-1.2-0.4c-0.3,0-0.6,0.1-0.8,0.2c-0.3,0.1-0.6,0.3-0.8,0.6
		c-0.2,0.3-0.4,0.7-0.6,1.2c-0.2,0.5-0.2,1.2-0.2,2v0.1c0,0,0,0.1,0,0.2c0.3-0.4,0.7-0.8,1.3-1.1s1.4-0.5,2.3-0.5
		c0.8,0,1.5,0.1,2.1,0.4s1.2,0.6,1.6,1.1c0.4,0.5,0.8,1,1,1.7s0.4,1.4,0.4,2.2c0,0.8-0.1,1.5-0.4,2.2s-0.6,1.3-1.1,1.9
		s-1.1,1-1.9,1.3c-0.8,0.3-1.6,0.5-2.7,0.5c-0.9,0-1.7-0.2-2.6-0.5s-1.5-0.8-2.2-1.5c-0.6-0.7-1.1-1.5-1.5-2.4
		c-0.4-1-0.6-2.1-0.6-3.5c0-1.7,0.2-3.1,0.6-4.3c0.4-1.2,0.9-2.1,1.6-2.8c0.6-0.7,1.4-1.2,2.1-1.5c0.8-0.3,1.5-0.5,2.3-0.5
		c0.7,0,1.4,0.1,2,0.3c0.6,0.2,1.1,0.4,1.6,0.7c0.5,0.3,0.9,0.6,1.2,1c0.3,0.4,0.6,0.8,0.8,1.2L176.9,143.8z M174.7,153.1
		c0.6,0,1.1-0.3,1.4-0.8s0.5-1.1,0.5-1.8c0-0.8-0.2-1.4-0.5-1.9c-0.3-0.5-0.8-0.8-1.4-0.8c-0.6,0-1.1,0.3-1.4,0.8
		c-0.3,0.5-0.5,1.2-0.5,1.9c0,0.8,0.2,1.5,0.5,1.9C173.7,152.9,174.2,153.1,174.7,153.1z"/>
	<path class="copy_purpleFill" d="M186.3,148.6c-0.8,0-1.4-0.1-2-0.4s-1.1-0.7-1.5-1.1s-0.7-1.1-0.9-1.7c-0.2-0.7-0.3-1.4-0.3-2.1
		c0-0.7,0.1-1.4,0.3-2c0.2-0.6,0.5-1.2,0.9-1.6s0.9-0.8,1.5-1.1c0.6-0.3,1.2-0.4,2-0.4c0.8,0,1.6,0.1,2.2,0.4s1.1,0.6,1.5,1.1
		c0.4,0.5,0.7,1,0.8,1.6c0.2,0.6,0.3,1.3,0.3,2c0,0.7-0.1,1.4-0.3,2.1c-0.2,0.7-0.5,1.2-0.9,1.7c-0.4,0.5-0.9,0.9-1.5,1.2
		S187.1,148.6,186.3,148.6z M186.3,146c0.2,0,0.4-0.1,0.6-0.3c0.1-0.2,0.3-0.4,0.3-0.7c0.1-0.3,0.1-0.6,0.2-0.9c0-0.3,0-0.6,0-0.9
		c0-0.3,0-0.6,0-0.9c0-0.3-0.1-0.6-0.2-0.9c-0.1-0.3-0.2-0.5-0.3-0.6c-0.1-0.2-0.3-0.2-0.6-0.2s-0.4,0.1-0.6,0.2
		c-0.1,0.2-0.3,0.4-0.3,0.6c-0.1,0.3-0.1,0.5-0.2,0.8c0,0.3,0,0.6,0,0.9c0,0.3,0,0.6,0,1c0,0.3,0.1,0.6,0.2,0.9
		c0.1,0.3,0.2,0.5,0.3,0.7C185.9,145.9,186.1,146,186.3,146z M195.5,137.9l2.2,1l-8.4,17.1l-2.2-0.9L195.5,137.9z M198.5,155.9
		c-0.8,0-1.4-0.1-2-0.4c-0.6-0.3-1.1-0.7-1.5-1.1c-0.4-0.5-0.7-1.1-0.9-1.7c-0.2-0.7-0.3-1.4-0.3-2.1c0-0.7,0.1-1.4,0.3-2
		s0.5-1.2,0.9-1.6c0.4-0.5,0.9-0.8,1.5-1.1c0.6-0.3,1.2-0.4,2-0.4c0.8,0,1.6,0.1,2.2,0.4c0.6,0.3,1.1,0.6,1.5,1.1
		c0.4,0.5,0.7,1,0.8,1.6s0.3,1.3,0.3,2c0,0.7-0.1,1.4-0.3,2.1c-0.2,0.7-0.5,1.2-0.9,1.7s-0.9,0.9-1.5,1.2
		C200,155.8,199.3,155.9,198.5,155.9z M198.5,153.4c0.2,0,0.4-0.1,0.6-0.3c0.1-0.2,0.3-0.4,0.3-0.7s0.1-0.6,0.2-0.9
		c0-0.3,0-0.6,0-0.9c0-0.3,0-0.6,0-0.9s-0.1-0.6-0.2-0.9c-0.1-0.3-0.2-0.5-0.3-0.6c-0.1-0.2-0.3-0.2-0.6-0.2s-0.4,0.1-0.6,0.2
		c-0.1,0.2-0.3,0.4-0.3,0.6c-0.1,0.3-0.1,0.5-0.2,0.8c0,0.3,0,0.6,0,0.9c0,0.3,0,0.6,0,1s0.1,0.6,0.2,0.9c0.1,0.3,0.2,0.5,0.3,0.7
		C198.1,153.3,198.2,153.4,198.5,153.4z"/>
	<path class="copy_purpleFill" d="M209.4,143.3h3.7l0.3,1.7c0.4-0.7,0.8-1.2,1.4-1.5c0.6-0.4,1.3-0.5,2.2-0.5c1,0,1.8,0.2,2.3,0.7
		c0.5,0.4,0.9,1,1.2,1.5c0.1-0.3,0.3-0.5,0.5-0.8c0.2-0.3,0.4-0.5,0.8-0.7c0.3-0.2,0.7-0.4,1.1-0.5c0.4-0.1,0.9-0.2,1.5-0.2
		c0.9,0,1.6,0.1,2.1,0.4c0.5,0.3,0.9,0.7,1.2,1.1s0.5,1,0.6,1.6c0.1,0.6,0.1,1.2,0.1,1.9v7.6h-4.1v-6.4c0-0.9-0.1-1.6-0.4-2
		c-0.2-0.4-0.7-0.7-1.3-0.7c-0.2,0-0.4,0-0.6,0.1s-0.4,0.2-0.6,0.4c-0.2,0.2-0.3,0.5-0.4,0.9c-0.1,0.4-0.2,0.9-0.2,1.5v6.2h-4.1
		v-6.5c0-0.9-0.1-1.5-0.4-1.9c-0.2-0.4-0.7-0.6-1.2-0.6c-0.2,0-0.4,0-0.6,0.1c-0.2,0.1-0.4,0.2-0.6,0.4c-0.2,0.2-0.3,0.6-0.4,1
		c-0.1,0.4-0.2,1-0.2,1.7v5.9h-4.1V143.3z"/>
	<path class="copy_purpleFill" d="M235.8,156c-1,0-2-0.2-2.7-0.5c-0.8-0.3-1.4-0.8-1.9-1.4c-0.5-0.6-0.9-1.3-1.2-2.1c-0.3-0.8-0.4-1.7-0.4-2.6
		c0-0.9,0.1-1.8,0.4-2.6c0.3-0.8,0.7-1.5,1.2-2.1c0.5-0.6,1.2-1,1.9-1.4c0.8-0.3,1.7-0.5,2.7-0.5s1.9,0.2,2.7,0.5
		c0.8,0.3,1.4,0.8,1.9,1.4c0.5,0.6,0.9,1.3,1.2,2.1c0.3,0.8,0.4,1.7,0.4,2.6c0,0.9-0.1,1.8-0.4,2.6c-0.3,0.8-0.7,1.5-1.2,2.1
		c-0.5,0.6-1.2,1-1.9,1.4C237.7,155.9,236.8,156,235.8,156z M235.9,152.9c0.7,0,1.2-0.3,1.5-0.9c0.3-0.6,0.4-1.4,0.4-2.5
		s-0.2-1.9-0.5-2.5s-0.8-0.9-1.5-0.9c-0.7,0-1.2,0.3-1.5,0.9s-0.5,1.5-0.5,2.5s0.2,1.9,0.5,2.5C234.6,152.6,235.2,152.9,235.9,152.9
		z"/>
	<path class="copy_purpleFill" d="M243.3,143.3h3.7l0.3,2.3c0.4-0.7,0.9-1.4,1.6-1.9s1.6-0.8,2.7-0.8v4.1c-0.3-0.1-0.7-0.1-1.3-0.1
		c-0.3,0-0.6,0-1,0.1c-0.3,0.1-0.6,0.2-0.9,0.4s-0.5,0.5-0.7,1c-0.2,0.4-0.3,1-0.3,1.8v5.4h-4.1V143.3z"/>
	<path class="copy_purpleFill" d="M255.9,150.5c0.1,1,0.4,1.6,0.9,2c0.5,0.4,1,0.6,1.6,0.6c0.5,0,1-0.1,1.3-0.3s0.7-0.6,1-1l3,1.7
		c-0.6,0.9-1.4,1.6-2.4,2.1c-1,0.4-2,0.7-3.2,0.7c-1,0-2-0.2-2.8-0.5c-0.8-0.3-1.5-0.8-2-1.4c-0.5-0.6-1-1.3-1.2-2.1
		s-0.4-1.7-0.4-2.6c0-0.9,0.1-1.8,0.4-2.6c0.3-0.8,0.7-1.5,1.2-2.1c0.5-0.6,1.2-1,2-1.4c0.8-0.3,1.7-0.5,2.6-0.5
		c1,0,1.8,0.2,2.5,0.5c0.7,0.3,1.4,0.8,1.9,1.4c0.5,0.6,0.9,1.3,1.2,2.1c0.3,0.8,0.4,1.8,0.4,2.8c0,0.2,0,0.4,0,0.5
		c0,0.1,0,0.2,0,0.2H255.9z M257.9,146c-1.2,0-1.8,0.7-2,2.2h4c0-0.6-0.2-1.1-0.5-1.6C259.1,146.2,258.6,146,257.9,146z"/>
	<path class="copy_purpleFill" d="M265.1,151.2h4.5v4.5h-4.5V151.2z"/>
</g>
</svg>
