<?xml version="1.0" encoding="utf-8"?>
<!-- Generator: Adobe Illustrator 22.1.0, SVG Export Plug-In . SVG Version: 6.00 Build 0)  -->
<svg version="1.1" id="Layer_1" xmlns="http://www.w3.org/2000/svg" xmlns:xlink="http://www.w3.org/1999/xlink" x="0px" y="0px"
	 viewBox="0 0 336 280" style="enable-background:new 0 0 336 280;" xml:space="preserve">
<style type="text/css">
	.st0{fill:#662868;}
	.st1{fill:#5D6770;}
</style>
<g>
	<path class="st0" d="M20,99.7h12.1v3.3h-7.7v3.7h5.3v3.3h-5.3v6.8H20V99.7z"/>
	<path class="st0" d="M33.2,99.6h4.1v3.2h-4.1V99.6z M33.2,104.5h4.1v12.3h-4.1V104.5z"/>
	<path class="st0" d="M39.2,104.5h3.7l0.3,1.7c0.4-0.6,0.9-1.1,1.6-1.5s1.4-0.6,2.3-0.6c2.7,0,4.1,1.7,4.1,5.2v7.5H47v-6.5
		c0-1-0.1-1.6-0.4-2c-0.3-0.4-0.7-0.6-1.3-0.6c-0.3,0-0.6,0.1-0.8,0.2c-0.2,0.1-0.5,0.3-0.6,0.5c-0.2,0.3-0.3,0.6-0.4,1
		c-0.1,0.4-0.1,1-0.1,1.6v5.8h-4.1V104.5z"/>
	<path class="st0" d="M60.5,115.1c-0.3,0.6-0.7,1.1-1.3,1.5c-0.5,0.3-1.2,0.5-2,0.5c-0.7,0-1.4-0.1-2-0.4c-0.6-0.3-1.1-0.7-1.5-1.2
		c-0.4-0.5-0.8-1.2-1-2s-0.4-1.7-0.4-2.8c0-1.2,0.1-2.2,0.4-3c0.3-0.8,0.7-1.5,1.1-2c0.5-0.5,1-0.9,1.6-1.1c0.6-0.2,1.2-0.3,1.7-0.3
		c0.8,0,1.4,0.1,1.9,0.4c0.5,0.3,0.9,0.7,1.1,1.1v-6h4.1v17.1h-3.8V115.1z M60.2,110.4c0-0.4,0-0.8-0.1-1.1c-0.1-0.4-0.2-0.7-0.3-1
		c-0.1-0.3-0.3-0.5-0.6-0.7c-0.2-0.2-0.5-0.2-0.9-0.2c-0.6,0-1.1,0.3-1.4,0.8c-0.3,0.5-0.5,1.3-0.5,2.2c0,1.1,0.2,1.9,0.5,2.5
		c0.4,0.6,0.8,0.9,1.4,0.9c0.3,0,0.6-0.1,0.8-0.3c0.2-0.2,0.4-0.4,0.6-0.7s0.2-0.6,0.3-1c0.1-0.4,0.1-0.8,0.1-1.3V110.4z"/>
	<path class="st0" d="M76.9,117.2c-1,0-2-0.2-2.7-0.5c-0.8-0.3-1.4-0.8-1.9-1.4c-0.5-0.6-0.9-1.3-1.2-2.1c-0.3-0.8-0.4-1.7-0.4-2.6
		c0-0.9,0.1-1.8,0.4-2.6c0.3-0.8,0.7-1.5,1.2-2.1c0.5-0.6,1.2-1,1.9-1.4s1.7-0.5,2.7-0.5c1,0,1.9,0.2,2.7,0.5
		c0.8,0.3,1.4,0.8,1.9,1.4c0.5,0.6,0.9,1.3,1.2,2.1c0.3,0.8,0.4,1.7,0.4,2.6c0,0.9-0.1,1.8-0.4,2.6c-0.3,0.8-0.7,1.5-1.2,2.1
		c-0.5,0.6-1.2,1-1.9,1.4C78.8,117,77.9,117.2,76.9,117.2z M76.9,114.1c0.7,0,1.2-0.3,1.5-0.9s0.4-1.4,0.4-2.5c0-1-0.2-1.9-0.5-2.5
		c-0.3-0.6-0.8-0.9-1.5-0.9s-1.2,0.3-1.5,0.9c-0.3,0.6-0.5,1.5-0.5,2.5c0,1,0.2,1.9,0.5,2.5C75.7,113.8,76.2,114.1,76.9,114.1z"/>
	<path class="st0" d="M84.3,104.5h4.1v6.8c0,0.8,0.1,1.4,0.4,1.8s0.7,0.6,1.3,0.6c0.7,0,1.2-0.2,1.5-0.7c0.3-0.5,0.5-1.3,0.5-2.4
		v-5.9h4.1v12.3h-3.8V115c-0.3,0.6-0.8,1.2-1.3,1.5c-0.6,0.4-1.3,0.6-2.4,0.6c-1.5,0-2.5-0.4-3.2-1.3c-0.7-0.8-1-2.1-1-3.7V104.5z"
		/>
	<path class="st0" d="M99,107.1h-2v-2.6h0.3c0.6,0,1.1-0.1,1.5-0.3c0.4-0.2,0.6-0.5,0.8-0.8c0.2-0.3,0.4-0.7,0.4-1.2
		c0.1-0.4,0.2-0.9,0.3-1.3h2.6v3.6h2.5v2.6H103v5.7c0,0.4,0.1,0.7,0.2,0.9c0.1,0.2,0.5,0.4,0.9,0.4c0.1,0,0.3,0,0.5,0
		c0.2,0,0.4-0.1,0.7-0.2l0.3,2.9c-0.5,0.2-0.9,0.3-1.4,0.4c-0.5,0.1-0.9,0.1-1.4,0.1c-0.8,0-1.4-0.1-1.9-0.3
		c-0.5-0.2-0.9-0.5-1.2-0.8c-0.3-0.3-0.5-0.7-0.6-1.2s-0.2-1-0.2-1.6V107.1z"/>
	<path class="st0" d="M111.5,99.7h4.1v6.4c0.3-0.5,0.8-1,1.4-1.4c0.6-0.4,1.4-0.6,2.4-0.6c1.4,0,2.4,0.4,3.1,1.3
		c0.7,0.9,1,2.2,1,3.9v7.4h-4.1v-6.7c0-0.8-0.1-1.4-0.4-1.8s-0.7-0.6-1.4-0.6c-0.6,0-1.1,0.2-1.4,0.7c-0.4,0.5-0.6,1.3-0.6,2.4v6
		h-4.1V99.7z"/>
	<path class="st0" d="M130.9,117.2c-1,0-2-0.2-2.7-0.5c-0.8-0.3-1.4-0.8-1.9-1.4c-0.5-0.6-0.9-1.3-1.2-2.1c-0.3-0.8-0.4-1.7-0.4-2.6
		c0-0.9,0.1-1.8,0.4-2.6c0.3-0.8,0.7-1.5,1.2-2.1c0.5-0.6,1.2-1,1.9-1.4s1.7-0.5,2.7-0.5c1,0,1.9,0.2,2.7,0.5
		c0.8,0.3,1.4,0.8,1.9,1.4c0.5,0.6,0.9,1.3,1.2,2.1c0.3,0.8,0.4,1.7,0.4,2.6c0,0.9-0.1,1.8-0.4,2.6c-0.3,0.8-0.7,1.5-1.2,2.1
		c-0.5,0.6-1.2,1-1.9,1.4C132.8,117,131.9,117.2,130.9,117.2z M130.9,114.1c0.7,0,1.2-0.3,1.5-0.9s0.4-1.4,0.4-2.5
		c0-1-0.2-1.9-0.5-2.5c-0.3-0.6-0.8-0.9-1.5-0.9s-1.2,0.3-1.5,0.9c-0.3,0.6-0.5,1.5-0.5,2.5c0,1,0.2,1.9,0.5,2.5
		C129.7,113.8,130.2,114.1,130.9,114.1z"/>
	<path class="st0" d="M137,104.5h4.4l1.8,8.4l1.6-8.4h4.3l1.6,8.4l1.8-8.4h4.4l-4,12.3h-4.4l-1.5-6.6l-1.5,6.6h-4.4L137,104.5z"/>
	<path class="st0" d="M173.7,114.2c-0.6,1-1.4,1.8-2.3,2.3s-2,0.7-3.2,0.7c-1.1,0-2-0.2-2.8-0.5c-0.8-0.3-1.4-0.8-1.9-1.4
		c-0.5-0.6-0.9-1.3-1.1-2.1c-0.2-0.8-0.4-1.6-0.4-2.5c0-1,0.1-1.9,0.4-2.7c0.3-0.8,0.7-1.5,1.2-2.1s1.2-1,2-1.3
		c0.8-0.3,1.6-0.5,2.6-0.5c1.3,0,2.4,0.3,3.3,0.8s1.6,1.3,2.2,2.3l-3.3,1.6c-0.2-0.6-0.5-1-0.9-1.2c-0.4-0.2-0.7-0.4-1.2-0.4
		c-0.8,0-1.3,0.3-1.6,0.9c-0.3,0.6-0.5,1.4-0.5,2.4c0,0.4,0,0.8,0.1,1.2s0.2,0.8,0.4,1.2c0.2,0.4,0.4,0.6,0.7,0.9
		c0.3,0.2,0.7,0.4,1.2,0.4c0.5,0,1-0.1,1.3-0.4s0.6-0.7,0.9-1.2L173.7,114.2z"/>
	<path class="st0" d="M180,117.2c-1,0-2-0.2-2.7-0.5c-0.8-0.3-1.4-0.8-1.9-1.4c-0.5-0.6-0.9-1.3-1.2-2.1c-0.3-0.8-0.4-1.7-0.4-2.6
		c0-0.9,0.1-1.8,0.4-2.6c0.3-0.8,0.7-1.5,1.2-2.1c0.5-0.6,1.2-1,1.9-1.4c0.8-0.3,1.7-0.5,2.7-0.5s1.9,0.2,2.7,0.5s1.4,0.8,1.9,1.4
		c0.5,0.6,0.9,1.3,1.2,2.1c0.3,0.8,0.4,1.7,0.4,2.6c0,0.9-0.1,1.8-0.4,2.6c-0.3,0.8-0.7,1.5-1.2,2.1c-0.5,0.6-1.2,1-1.9,1.4
		S181,117.2,180,117.2z M180.1,114.1c0.7,0,1.2-0.3,1.5-0.9c0.3-0.6,0.4-1.4,0.4-2.5c0-1-0.2-1.9-0.5-2.5c-0.3-0.6-0.8-0.9-1.5-0.9
		c-0.7,0-1.2,0.3-1.5,0.9c-0.3,0.6-0.5,1.5-0.5,2.5c0,1,0.2,1.9,0.5,2.5C178.8,113.8,179.4,114.1,180.1,114.1z"/>
	<path class="st0" d="M187.6,104.5h3.7l0.3,1.7c0.4-0.7,0.8-1.2,1.4-1.5s1.3-0.5,2.2-0.5c1,0,1.8,0.2,2.3,0.7c0.5,0.4,0.9,1,1.2,1.5
		c0.1-0.3,0.3-0.5,0.5-0.8s0.4-0.5,0.8-0.7c0.3-0.2,0.7-0.4,1.1-0.5c0.4-0.1,0.9-0.2,1.5-0.2c0.9,0,1.6,0.1,2.1,0.4
		c0.5,0.3,0.9,0.7,1.2,1.1s0.5,1,0.6,1.6s0.1,1.2,0.1,1.9v7.6h-4.1v-6.4c0-0.9-0.1-1.6-0.4-2c-0.2-0.4-0.7-0.7-1.3-0.7
		c-0.2,0-0.4,0-0.6,0.1c-0.2,0.1-0.4,0.2-0.6,0.4c-0.2,0.2-0.3,0.5-0.4,0.9c-0.1,0.4-0.2,0.9-0.2,1.5v6.2H195v-6.5
		c0-0.9-0.1-1.5-0.4-1.9c-0.2-0.4-0.7-0.6-1.2-0.6c-0.2,0-0.4,0-0.6,0.1c-0.2,0.1-0.4,0.2-0.6,0.4c-0.2,0.2-0.3,0.6-0.4,1
		c-0.1,0.4-0.2,1-0.2,1.7v5.9h-4.1V104.5z"/>
	<path class="st0" d="M208.3,104.5h4.1v1.6c0.3-0.6,0.7-1,1.2-1.4c0.5-0.4,1.2-0.6,2.1-0.6c1.4,0,2.5,0.5,3.3,1.6
		c0.9,1.1,1.3,2.7,1.3,4.8c0,1.3-0.2,2.4-0.5,3.2c-0.3,0.8-0.7,1.5-1.2,2c-0.5,0.5-1,0.9-1.6,1.1c-0.6,0.2-1.1,0.3-1.7,0.3
		c-0.6,0-1.2-0.1-1.8-0.3c-0.6-0.2-1-0.6-1.3-1v5.3h-4.1V104.5z M212.4,110.8c0,0.4,0,0.8,0.1,1.2c0.1,0.4,0.2,0.7,0.4,1
		c0.2,0.3,0.4,0.5,0.6,0.7c0.2,0.2,0.5,0.2,0.8,0.2c0.6,0,1-0.3,1.3-0.8s0.5-1.3,0.5-2.4c0-1.1-0.2-1.9-0.5-2.4
		c-0.3-0.5-0.8-0.8-1.4-0.8c-0.3,0-0.6,0.1-0.8,0.3c-0.2,0.2-0.4,0.4-0.6,0.7c-0.1,0.3-0.2,0.6-0.3,1s-0.1,0.7-0.1,1.1V110.8z"/>
	<path class="st0" d="M228.7,116.8c-0.1-0.2-0.2-0.4-0.2-0.7c-0.1-0.3-0.1-0.5-0.1-0.8c-0.2,0.5-0.6,0.9-1.1,1.3
		c-0.5,0.4-1.3,0.6-2.2,0.6c-0.7,0-1.2-0.1-1.7-0.3c-0.5-0.2-0.9-0.5-1.3-0.8s-0.6-0.8-0.8-1.3c-0.2-0.5-0.3-1-0.3-1.6
		c0-0.6,0.1-1.2,0.3-1.6c0.2-0.5,0.5-0.9,0.9-1.2c0.4-0.3,0.9-0.6,1.5-0.8c0.6-0.2,1.2-0.3,2-0.5l2.5-0.4v-0.3c0-0.5-0.1-0.9-0.4-1
		c-0.3-0.2-0.6-0.3-1.1-0.3c-0.8,0-1.4,0.1-1.9,0.4c-0.5,0.3-1,0.6-1.4,1l-1.9-2.7c0.3-0.2,0.6-0.4,1-0.6c0.4-0.2,0.8-0.4,1.3-0.6
		c0.5-0.2,1-0.3,1.6-0.4c0.6-0.1,1.2-0.2,2-0.2c1.8,0,3.1,0.4,3.9,1.2s1.2,2,1.2,3.5v4.4c0,0.5,0,0.9,0,1.3c0,0.3,0,0.6,0.1,0.9
		c0,0.3,0.1,0.5,0.2,0.7c0.1,0.2,0.2,0.4,0.3,0.7H228.7z M228.1,111.3l-1.7,0.3c-0.6,0.1-1,0.3-1.2,0.5c-0.3,0.2-0.4,0.5-0.4,0.9
		c0,0.4,0.1,0.6,0.3,0.9c0.2,0.2,0.5,0.4,0.9,0.4c0.6,0,1-0.2,1.4-0.7c0.4-0.4,0.6-1.1,0.6-1.9V111.3z"/>
	<path class="st0" d="M234.1,104.5h3.7l0.3,1.7c0.4-0.6,0.9-1.1,1.6-1.5c0.7-0.4,1.4-0.6,2.3-0.6c2.7,0,4.1,1.7,4.1,5.2v7.5h-4.1
		v-6.5c0-1-0.1-1.6-0.4-2c-0.3-0.4-0.7-0.6-1.3-0.6c-0.3,0-0.6,0.1-0.8,0.2c-0.2,0.1-0.5,0.3-0.6,0.5c-0.2,0.3-0.3,0.6-0.4,1
		c-0.1,0.4-0.1,1-0.1,1.6v5.8h-4.1V104.5z"/>
	<path class="st0" d="M247.8,99.6h4.1v3.2h-4.1V99.6z M247.8,104.5h4.1v12.3h-4.1V104.5z"/>
	<path class="st0" d="M257.3,111.6c0.1,1,0.4,1.6,0.9,2c0.5,0.4,1,0.6,1.6,0.6c0.5,0,1-0.1,1.3-0.3c0.4-0.2,0.7-0.6,1-1l3,1.7
		c-0.6,0.9-1.4,1.6-2.4,2.1c-1,0.4-2,0.7-3.2,0.7c-1,0-2-0.2-2.8-0.5c-0.8-0.3-1.5-0.8-2-1.4c-0.5-0.6-1-1.3-1.2-2.1
		c-0.3-0.8-0.4-1.7-0.4-2.6c0-0.9,0.1-1.8,0.4-2.6c0.3-0.8,0.7-1.5,1.2-2.1s1.2-1,2-1.4c0.8-0.3,1.7-0.5,2.6-0.5
		c1,0,1.8,0.2,2.5,0.5c0.7,0.3,1.4,0.8,1.9,1.4c0.5,0.6,0.9,1.3,1.2,2.1c0.3,0.8,0.4,1.8,0.4,2.8c0,0.2,0,0.4,0,0.5s0,0.2,0,0.2
		H257.3z M259.3,107.1c-1.2,0-1.8,0.7-2,2.2h4c0-0.6-0.2-1.1-0.5-1.6C260.5,107.3,260,107.1,259.3,107.1z"/>
	<path class="st0" d="M267.6,112.7c0.2,0.2,0.4,0.4,0.7,0.5c0.3,0.2,0.6,0.4,0.9,0.5c0.3,0.1,0.7,0.3,1,0.4c0.4,0.1,0.7,0.1,1.1,0.1
		c0.3,0,0.6,0,0.9-0.1c0.3-0.1,0.4-0.3,0.4-0.6c0-0.3-0.2-0.5-0.5-0.7s-0.7-0.3-1.2-0.5c-0.5-0.1-1-0.3-1.6-0.4s-1.1-0.4-1.6-0.7
		s-0.9-0.7-1.2-1.1s-0.5-1.1-0.5-1.9c0-0.7,0.1-1.3,0.4-1.8s0.7-0.9,1.2-1.3c0.5-0.3,1-0.6,1.7-0.7s1.3-0.2,2-0.2
		c1.1,0,2.1,0.1,2.9,0.4c0.8,0.3,1.6,0.6,2.3,1.1l-1.9,2.7c-0.2-0.1-0.4-0.3-0.6-0.4c-0.3-0.1-0.5-0.3-0.9-0.4s-0.6-0.2-1-0.3
		c-0.3-0.1-0.7-0.1-1-0.1c-0.3,0-0.5,0-0.7,0.1c-0.2,0.1-0.3,0.3-0.3,0.5c0,0.3,0.2,0.5,0.5,0.7c0.3,0.2,0.7,0.3,1.2,0.5
		c0.5,0.2,1,0.3,1.5,0.5c0.6,0.2,1.1,0.4,1.5,0.7s0.9,0.7,1.2,1.1c0.3,0.5,0.5,1.1,0.5,1.8s-0.2,1.3-0.5,1.9c-0.3,0.5-0.7,1-1.2,1.3
		s-1.1,0.6-1.7,0.8c-0.6,0.2-1.2,0.3-1.9,0.3c-2.3,0-4.2-0.6-5.7-1.7L267.6,112.7z"/>
</g>
<g>
	<path class="st0" d="M19.8,125.1h4.1v17.1h-4.1V125.1z"/>
	<path class="st0" d="M25.8,124.9h4.1v3.2h-4.1V124.9z M25.8,129.8h4.1v12.3h-4.1V129.8z"/>
	<path class="st0" d="M31.7,125.1h4.1v9.3l4.1-4.5h5l-4.8,4.7l4.8,7.6h-4.6l-2.8-5.2l-1.6,1.5v3.6h-4.1V125.1z"/>
	<path class="st0" d="M48.4,136.9c0.1,1,0.4,1.6,0.9,2s1,0.6,1.6,0.6c0.5,0,1-0.1,1.3-0.3c0.4-0.2,0.7-0.6,1-1l3,1.7
		c-0.6,0.9-1.4,1.6-2.4,2.1c-1,0.4-2,0.7-3.2,0.7c-1,0-2-0.2-2.8-0.5c-0.8-0.3-1.5-0.8-2-1.4c-0.5-0.6-1-1.3-1.2-2.1
		c-0.3-0.8-0.4-1.7-0.4-2.6c0-0.9,0.1-1.8,0.4-2.6c0.3-0.8,0.7-1.5,1.2-2.1s1.2-1,2-1.4s1.7-0.5,2.6-0.5c1,0,1.8,0.2,2.5,0.5
		c0.7,0.3,1.4,0.8,1.9,1.4c0.5,0.6,0.9,1.3,1.2,2.1c0.3,0.8,0.4,1.8,0.4,2.8c0,0.2,0,0.4,0,0.5c0,0.1,0,0.2,0,0.2H48.4z M50.5,132.4
		c-1.2,0-1.8,0.7-2,2.2h4c0-0.6-0.2-1.1-0.5-1.6C51.6,132.6,51.1,132.4,50.5,132.4z"/>
	<path class="st0" d="M63.1,143.3c0.3,0.1,0.6,0.2,0.9,0.2c0.3,0.1,0.6,0.1,0.8,0.1c0.4,0,0.7-0.1,0.9-0.3s0.4-0.5,0.5-0.9
		l-4.4-12.7h4.4l2.1,8.3l2.1-8.3h4.4l-4.3,12.2c-0.2,0.7-0.5,1.3-0.7,1.9c-0.2,0.6-0.6,1.1-0.9,1.5c-0.4,0.4-0.9,0.7-1.5,1
		c-0.6,0.2-1.4,0.4-2.3,0.4c-0.1,0-0.3,0-0.5,0c-0.2,0-0.4,0-0.7,0c-0.2,0-0.5,0-0.7-0.1c-0.2,0-0.4-0.1-0.5-0.1L63.1,143.3z"/>
	<path class="st0" d="M80.8,142.5c-1,0-2-0.2-2.7-0.5c-0.8-0.3-1.4-0.8-1.9-1.4c-0.5-0.6-0.9-1.3-1.2-2.1c-0.3-0.8-0.4-1.7-0.4-2.6
		c0-0.9,0.1-1.8,0.4-2.6c0.3-0.8,0.7-1.5,1.2-2.1c0.5-0.6,1.2-1,1.9-1.4s1.7-0.5,2.7-0.5c1,0,1.9,0.2,2.7,0.5
		c0.8,0.3,1.4,0.8,1.9,1.4c0.5,0.6,0.9,1.3,1.2,2.1c0.3,0.8,0.4,1.7,0.4,2.6c0,0.9-0.1,1.8-0.4,2.6c-0.3,0.8-0.7,1.5-1.2,2.1
		c-0.5,0.6-1.2,1-1.9,1.4C82.7,142.3,81.8,142.5,80.8,142.5z M80.8,139.4c0.7,0,1.2-0.3,1.5-0.9s0.4-1.4,0.4-2.5
		c0-1-0.2-1.9-0.5-2.5c-0.3-0.6-0.8-0.9-1.5-0.9s-1.2,0.3-1.5,0.9c-0.3,0.6-0.5,1.5-0.5,2.5c0,1,0.2,1.9,0.5,2.5
		C79.6,139.1,80.1,139.4,80.8,139.4z"/>
	<path class="st0" d="M88.2,129.8h4.1v6.8c0,0.8,0.1,1.4,0.4,1.8s0.7,0.6,1.3,0.6c0.7,0,1.2-0.2,1.5-0.7c0.3-0.5,0.5-1.3,0.5-2.4
		v-5.9h4.1v12.3h-3.8v-1.8c-0.3,0.6-0.8,1.2-1.3,1.5c-0.6,0.4-1.3,0.6-2.4,0.6c-1.5,0-2.5-0.4-3.2-1.3c-0.7-0.8-1-2.1-1-3.7V129.8z"
		/>
	<path class="st0" d="M101.9,129.8h3.7l0.3,2.3c0.4-0.7,0.9-1.4,1.6-1.9c0.7-0.5,1.6-0.8,2.7-0.8v4.1c-0.3-0.1-0.7-0.1-1.3-0.1
		c-0.3,0-0.6,0-1,0.1c-0.3,0.1-0.6,0.2-0.9,0.4c-0.3,0.2-0.5,0.5-0.7,1c-0.2,0.4-0.3,1-0.3,1.8v5.4h-4.1V129.8z"/>
	<path class="st0" d="M112,138c0.2,0.2,0.4,0.4,0.7,0.5c0.3,0.2,0.6,0.4,0.9,0.5c0.3,0.1,0.7,0.3,1,0.4c0.4,0.1,0.7,0.1,1.1,0.1
		c0.3,0,0.6,0,0.9-0.1s0.4-0.3,0.4-0.6c0-0.3-0.2-0.5-0.5-0.7c-0.3-0.2-0.7-0.3-1.2-0.5c-0.5-0.1-1-0.3-1.6-0.4
		c-0.6-0.2-1.1-0.4-1.6-0.7s-0.9-0.7-1.2-1.1c-0.3-0.5-0.5-1.1-0.5-1.9c0-0.7,0.1-1.3,0.4-1.8c0.3-0.5,0.7-0.9,1.2-1.3
		c0.5-0.3,1-0.6,1.7-0.7s1.3-0.2,2-0.2c1.1,0,2.1,0.1,2.9,0.4c0.8,0.3,1.6,0.6,2.3,1.1l-1.9,2.7c-0.2-0.1-0.4-0.3-0.6-0.4
		s-0.5-0.3-0.9-0.4s-0.6-0.2-1-0.3c-0.3-0.1-0.7-0.1-1-0.1c-0.3,0-0.5,0-0.7,0.1c-0.2,0.1-0.3,0.3-0.3,0.5c0,0.3,0.2,0.5,0.5,0.7
		c0.3,0.2,0.7,0.3,1.2,0.5c0.5,0.2,1,0.3,1.5,0.5c0.6,0.2,1.1,0.4,1.5,0.7c0.5,0.3,0.9,0.7,1.2,1.1c0.3,0.5,0.5,1.1,0.5,1.8
		s-0.2,1.3-0.5,1.9c-0.3,0.5-0.7,1-1.2,1.3c-0.5,0.3-1.1,0.6-1.7,0.8c-0.6,0.2-1.2,0.3-1.9,0.3c-2.3,0-4.2-0.6-5.7-1.7L112,138z"/>
	<path class="st0" d="M134.6,142.1c-0.1-0.2-0.2-0.4-0.2-0.7c-0.1-0.3-0.1-0.5-0.1-0.8c-0.2,0.5-0.6,0.9-1.1,1.3
		c-0.5,0.4-1.3,0.6-2.2,0.6c-0.7,0-1.2-0.1-1.7-0.3c-0.5-0.2-0.9-0.5-1.3-0.8c-0.3-0.4-0.6-0.8-0.8-1.3c-0.2-0.5-0.3-1-0.3-1.6
		c0-0.6,0.1-1.2,0.3-1.6s0.5-0.9,0.9-1.2c0.4-0.3,0.9-0.6,1.5-0.8c0.6-0.2,1.2-0.3,2-0.5l2.5-0.4v-0.3c0-0.5-0.1-0.9-0.4-1
		c-0.3-0.2-0.6-0.3-1.1-0.3c-0.8,0-1.4,0.1-1.9,0.4c-0.5,0.3-1,0.6-1.4,1l-1.9-2.7c0.3-0.2,0.6-0.4,1-0.6c0.4-0.2,0.8-0.4,1.3-0.6
		c0.5-0.2,1-0.3,1.6-0.4c0.6-0.1,1.2-0.2,2-0.2c1.8,0,3.1,0.4,3.9,1.2c0.8,0.8,1.2,2,1.2,3.5v4.4c0,0.5,0,0.9,0,1.3
		c0,0.3,0,0.6,0.1,0.9c0,0.3,0.1,0.5,0.2,0.7c0.1,0.2,0.2,0.4,0.3,0.7H134.6z M134,136.7l-1.7,0.3c-0.6,0.1-1,0.3-1.2,0.5
		c-0.3,0.2-0.4,0.5-0.4,0.9c0,0.4,0.1,0.6,0.3,0.9c0.2,0.2,0.5,0.4,0.9,0.4c0.6,0,1-0.2,1.4-0.7c0.4-0.4,0.6-1.1,0.6-1.9V136.7z"/>
	<path class="st0" d="M140,129.8h3.7l0.3,2.3c0.4-0.7,0.9-1.4,1.6-1.9c0.7-0.5,1.6-0.8,2.7-0.8v4.1c-0.3-0.1-0.7-0.1-1.3-0.1
		c-0.3,0-0.6,0-1,0.1c-0.3,0.1-0.6,0.2-0.9,0.4c-0.3,0.2-0.5,0.5-0.7,1c-0.2,0.4-0.3,1-0.3,1.8v5.4H140V129.8z"/>
	<path class="st0" d="M152.5,136.9c0.1,1,0.4,1.6,0.9,2s1,0.6,1.6,0.6c0.5,0,1-0.1,1.3-0.3c0.4-0.2,0.7-0.6,1-1l3,1.7
		c-0.6,0.9-1.4,1.6-2.4,2.1c-1,0.4-2,0.7-3.2,0.7c-1,0-2-0.2-2.8-0.5c-0.8-0.3-1.5-0.8-2-1.4c-0.5-0.6-1-1.3-1.2-2.1
		c-0.3-0.8-0.4-1.7-0.4-2.6c0-0.9,0.1-1.8,0.4-2.6c0.3-0.8,0.7-1.5,1.2-2.1s1.2-1,2-1.4s1.7-0.5,2.6-0.5c1,0,1.8,0.2,2.5,0.5
		c0.7,0.3,1.4,0.8,1.9,1.4c0.5,0.6,0.9,1.3,1.2,2.1c0.3,0.8,0.4,1.8,0.4,2.8c0,0.2,0,0.4,0,0.5s0,0.2,0,0.2H152.5z M154.5,132.4
		c-1.2,0-1.8,0.7-2,2.2h4c0-0.6-0.2-1.1-0.5-1.6C155.7,132.6,155.2,132.4,154.5,132.4z"/>
	<path class="st0" d="M168,138c0.2,0.2,0.4,0.4,0.7,0.5c0.3,0.2,0.6,0.4,0.9,0.5c0.3,0.1,0.7,0.3,1,0.4c0.4,0.1,0.7,0.1,1.1,0.1
		c0.3,0,0.6,0,0.9-0.1c0.3-0.1,0.4-0.3,0.4-0.6c0-0.3-0.2-0.5-0.5-0.7s-0.7-0.3-1.2-0.5c-0.5-0.1-1-0.3-1.6-0.4s-1.1-0.4-1.6-0.7
		s-0.9-0.7-1.2-1.1s-0.5-1.1-0.5-1.9c0-0.7,0.1-1.3,0.4-1.8s0.7-0.9,1.2-1.3c0.5-0.3,1-0.6,1.7-0.7s1.3-0.2,2-0.2
		c1.1,0,2.1,0.1,2.9,0.4c0.8,0.3,1.6,0.6,2.3,1.1l-1.9,2.7c-0.2-0.1-0.4-0.3-0.6-0.4c-0.3-0.1-0.5-0.3-0.9-0.4s-0.6-0.2-1-0.3
		c-0.3-0.1-0.7-0.1-1-0.1c-0.3,0-0.5,0-0.7,0.1c-0.2,0.1-0.3,0.3-0.3,0.5c0,0.3,0.2,0.5,0.5,0.7c0.3,0.2,0.7,0.3,1.2,0.5
		c0.5,0.2,1,0.3,1.5,0.5c0.6,0.2,1.1,0.4,1.5,0.7s0.9,0.7,1.2,1.1c0.3,0.5,0.5,1.1,0.5,1.8s-0.2,1.3-0.5,1.9c-0.3,0.5-0.7,1-1.2,1.3
		s-1.1,0.6-1.7,0.8c-0.6,0.2-1.2,0.3-1.9,0.3c-2.3,0-4.2-0.6-5.7-1.7L168,138z"/>
	<path class="st0" d="M185.7,142.1c-0.1-0.2-0.2-0.4-0.2-0.7s-0.1-0.5-0.1-0.8c-0.2,0.5-0.6,0.9-1.1,1.3c-0.5,0.4-1.3,0.6-2.2,0.6
		c-0.7,0-1.2-0.1-1.7-0.3c-0.5-0.2-0.9-0.5-1.3-0.8c-0.3-0.4-0.6-0.8-0.8-1.3c-0.2-0.5-0.3-1-0.3-1.6c0-0.6,0.1-1.2,0.3-1.6
		c0.2-0.5,0.5-0.9,0.9-1.2c0.4-0.3,0.9-0.6,1.5-0.8c0.6-0.2,1.2-0.3,2-0.5l2.5-0.4v-0.3c0-0.5-0.1-0.9-0.4-1
		c-0.3-0.2-0.6-0.3-1.1-0.3c-0.8,0-1.4,0.1-1.9,0.4c-0.5,0.3-1,0.6-1.4,1l-1.9-2.7c0.3-0.2,0.6-0.4,1-0.6c0.4-0.2,0.8-0.4,1.3-0.6
		c0.5-0.2,1-0.3,1.6-0.4c0.6-0.1,1.2-0.2,2-0.2c1.8,0,3.1,0.4,3.9,1.2s1.2,2,1.2,3.5v4.4c0,0.5,0,0.9,0,1.3c0,0.3,0,0.6,0.1,0.9
		c0,0.3,0.1,0.5,0.2,0.7s0.2,0.4,0.3,0.7H185.7z M185,136.7l-1.7,0.3c-0.6,0.1-1,0.3-1.2,0.5c-0.3,0.2-0.4,0.5-0.4,0.9
		c0,0.4,0.1,0.6,0.3,0.9c0.2,0.2,0.5,0.4,0.9,0.4c0.6,0,1-0.2,1.4-0.7c0.4-0.4,0.6-1.1,0.6-1.9V136.7z"/>
	<path class="st0" d="M189.5,129.8h4.5l2,8.5l2-8.5h4.4l-4.1,12.3h-4.8L189.5,129.8z"/>
	<path class="st0" d="M203.1,124.9h4.1v3.2h-4.1V124.9z M203.1,129.8h4.1v12.3h-4.1V129.8z"/>
	<path class="st0" d="M209,129.8h3.7l0.3,1.7c0.4-0.6,0.9-1.1,1.6-1.5c0.7-0.4,1.4-0.6,2.3-0.6c2.7,0,4.1,1.7,4.1,5.2v7.5h-4.1v-6.5
		c0-1-0.1-1.6-0.4-2c-0.3-0.4-0.7-0.6-1.3-0.6c-0.3,0-0.6,0.1-0.8,0.2c-0.2,0.1-0.5,0.3-0.6,0.5c-0.2,0.3-0.3,0.6-0.4,1
		c-0.1,0.4-0.1,1-0.1,1.6v5.8H209V129.8z"/>
	<path class="st0" d="M224.3,142.1c0.5,0.5,1.1,0.8,1.8,1.1c0.7,0.3,1.4,0.4,2.1,0.4c0.8,0,1.3-0.2,1.6-0.5c0.3-0.3,0.4-0.8,0.4-1.5
		v-1.2c-0.3,0.4-0.7,0.8-1.2,1.1c-0.5,0.3-1.2,0.4-2,0.4c-0.6,0-1.2-0.1-1.7-0.3c-0.6-0.2-1.1-0.5-1.5-1s-0.8-1.1-1.1-1.9
		c-0.3-0.8-0.4-1.7-0.4-2.8c0-1,0.1-1.9,0.4-2.7s0.6-1.5,1-2c0.4-0.5,1-1,1.6-1.2c0.6-0.3,1.3-0.4,2-0.4c0.8,0,1.4,0.2,2,0.5
		c0.6,0.3,1,0.8,1.4,1.5l0.5-1.7h3.2v11.7c0,0.8-0.1,1.5-0.3,2.1s-0.6,1.2-1.1,1.7c-0.5,0.5-1.1,0.8-1.9,1.1s-1.7,0.4-2.8,0.4
		c-0.7,0-1.4-0.1-2-0.2c-0.6-0.1-1.2-0.2-1.7-0.4c-0.5-0.2-1-0.4-1.4-0.6c-0.4-0.2-0.8-0.4-1.1-0.6L224.3,142.1z M230.2,135.9
		c0-0.4,0-0.8-0.1-1.1s-0.2-0.7-0.3-1c-0.1-0.3-0.3-0.5-0.6-0.7c-0.2-0.2-0.5-0.3-0.9-0.3c-0.3,0-0.5,0.1-0.7,0.2
		c-0.2,0.1-0.4,0.3-0.6,0.5c-0.2,0.2-0.3,0.6-0.4,0.9c-0.1,0.4-0.2,0.9-0.2,1.4c0,1,0.2,1.8,0.5,2.3c0.3,0.5,0.8,0.7,1.4,0.7
		s1.1-0.2,1.4-0.7c0.3-0.5,0.4-1.2,0.4-2.1V135.9z"/>
	<path class="st0" d="M241.1,129.8h4.1v6.8c0,0.8,0.1,1.4,0.4,1.8s0.7,0.6,1.3,0.6c0.7,0,1.2-0.2,1.5-0.7c0.3-0.5,0.5-1.3,0.5-2.4
		v-5.9h4.1v12.3H249v-1.8c-0.3,0.6-0.8,1.2-1.3,1.5c-0.6,0.4-1.3,0.6-2.4,0.6c-1.5,0-2.5-0.4-3.2-1.3c-0.7-0.8-1-2.1-1-3.7V129.8z"
		/>
	<path class="st0" d="M254.8,129.8h4.1v1.6c0.3-0.6,0.7-1,1.2-1.4c0.5-0.4,1.2-0.6,2.1-0.6c1.4,0,2.5,0.5,3.3,1.6
		c0.9,1.1,1.3,2.7,1.3,4.8c0,1.3-0.2,2.4-0.5,3.2c-0.3,0.8-0.7,1.5-1.2,2c-0.5,0.5-1,0.9-1.6,1.1c-0.6,0.2-1.1,0.3-1.7,0.3
		c-0.6,0-1.2-0.1-1.8-0.3c-0.6-0.2-1-0.6-1.3-1v5.3h-4.1V129.8z M258.8,136.1c0,0.4,0,0.8,0.1,1.2c0.1,0.4,0.2,0.7,0.4,1
		c0.2,0.3,0.4,0.5,0.6,0.7c0.2,0.2,0.5,0.2,0.8,0.2c0.6,0,1-0.3,1.3-0.8s0.5-1.3,0.5-2.4c0-1.1-0.2-1.9-0.5-2.4
		c-0.3-0.5-0.8-0.8-1.4-0.8c-0.3,0-0.6,0.1-0.8,0.3c-0.2,0.2-0.4,0.4-0.6,0.7c-0.1,0.3-0.2,0.6-0.3,1s-0.1,0.7-0.1,1.1V136.1z"/>
</g>
<g>
	<path class="st0" d="M20.7,157.8h-2v-2.6h0.3c0.6,0,1.1-0.1,1.5-0.3c0.4-0.2,0.6-0.5,0.8-0.8c0.2-0.3,0.4-0.7,0.4-1.2
		s0.2-0.9,0.3-1.3h2.6v3.6h2.5v2.6h-2.5v5.7c0,0.4,0.1,0.7,0.2,0.9c0.1,0.2,0.5,0.4,0.9,0.4c0.1,0,0.3,0,0.5,0
		c0.2,0,0.4-0.1,0.7-0.2l0.3,2.9c-0.5,0.2-0.9,0.3-1.4,0.4c-0.5,0.1-0.9,0.1-1.4,0.1c-0.8,0-1.4-0.1-1.9-0.3
		c-0.5-0.2-0.9-0.5-1.2-0.8s-0.5-0.7-0.6-1.2c-0.1-0.5-0.2-1-0.2-1.6V157.8z"/>
	<path class="st0" d="M33.8,167.9c-1,0-2-0.2-2.7-0.5c-0.8-0.3-1.4-0.8-1.9-1.4c-0.5-0.6-0.9-1.3-1.2-2.1c-0.3-0.8-0.4-1.7-0.4-2.6
		c0-0.9,0.1-1.8,0.4-2.6c0.3-0.8,0.7-1.5,1.2-2.1c0.5-0.6,1.2-1,1.9-1.4c0.8-0.3,1.7-0.5,2.7-0.5c1,0,1.9,0.2,2.7,0.5
		c0.8,0.3,1.4,0.8,1.9,1.4c0.5,0.6,0.9,1.3,1.2,2.1c0.3,0.8,0.4,1.7,0.4,2.6c0,0.9-0.1,1.8-0.4,2.6c-0.3,0.8-0.7,1.5-1.2,2.1
		c-0.5,0.6-1.2,1-1.9,1.4C35.8,167.7,34.9,167.9,33.8,167.9z M33.9,164.8c0.7,0,1.2-0.3,1.5-0.9c0.3-0.6,0.4-1.4,0.4-2.5
		s-0.2-1.9-0.5-2.5s-0.8-0.9-1.5-0.9s-1.2,0.3-1.5,0.9c-0.3,0.6-0.5,1.5-0.5,2.5s0.2,1.9,0.5,2.5C32.7,164.5,33.2,164.8,33.9,164.8z
		"/>
	<path class="st0" d="M49,158.8c-0.4-0.1-0.7-0.3-1-0.5c-0.3-0.2-0.6-0.4-0.9-0.7c-0.3-0.3-0.5-0.6-0.6-1c-0.2-0.4-0.2-0.7-0.2-1.2
		c0-0.8,0.2-1.5,0.5-2c0.3-0.6,0.8-1,1.3-1.4c0.5-0.4,1.2-0.6,1.9-0.8c0.7-0.2,1.4-0.3,2.1-0.3c0.7,0,1.4,0.1,2.1,0.3
		c0.7,0.2,1.3,0.5,1.9,0.8c0.6,0.4,1,0.9,1.4,1.4s0.5,1.2,0.5,2c0,0.8-0.3,1.6-0.8,2.1c-0.6,0.6-1.2,1-2,1.2c1,0.2,1.8,0.6,2.4,1.2
		c0.6,0.6,0.9,1.5,0.9,2.6c0,1-0.2,1.8-0.6,2.4c-0.4,0.7-0.9,1.2-1.5,1.6c-0.6,0.4-1.3,0.7-2,0.9c-0.8,0.2-1.5,0.3-2.3,0.3
		c-0.8,0-1.5-0.1-2.3-0.3c-0.8-0.2-1.5-0.5-2.1-0.9c-0.6-0.4-1.1-1-1.5-1.6c-0.4-0.7-0.6-1.5-0.6-2.4c0-1,0.3-1.9,0.9-2.6
		S48,159,49,158.8z M52.1,164.6c0.6,0,1.1-0.2,1.5-0.6s0.6-1,0.6-1.7c0-0.7-0.2-1.2-0.6-1.6s-0.9-0.6-1.5-0.6
		c-0.7,0-1.3,0.2-1.6,0.6s-0.5,1-0.5,1.6c0,0.6,0.2,1.2,0.6,1.6C50.9,164.4,51.4,164.6,52.1,164.6z M50.3,155.7c0,0.6,0.2,1,0.5,1.4
		c0.3,0.4,0.8,0.6,1.3,0.6s0.9-0.2,1.3-0.6c0.3-0.4,0.5-0.9,0.5-1.4c0-0.6-0.2-1-0.5-1.4c-0.3-0.4-0.8-0.6-1.3-0.6
		c-0.6,0-1,0.2-1.3,0.6C50.5,154.7,50.3,155.2,50.3,155.7z"/>
	<path class="st0" d="M67.6,155.6c-0.2-0.5-0.5-0.9-0.8-1.2S66,154,65.6,154c-0.3,0-0.6,0.1-0.8,0.2c-0.3,0.1-0.6,0.3-0.8,0.6
		c-0.2,0.3-0.4,0.7-0.6,1.2c-0.2,0.5-0.2,1.2-0.2,2v0.1c0,0,0,0.1,0,0.2c0.3-0.4,0.7-0.8,1.3-1.1c0.6-0.3,1.4-0.5,2.3-0.5
		c0.8,0,1.5,0.1,2.1,0.4s1.2,0.6,1.6,1.1c0.4,0.5,0.8,1,1,1.7c0.2,0.7,0.4,1.4,0.4,2.2c0,0.8-0.1,1.5-0.4,2.2
		c-0.3,0.7-0.6,1.3-1.1,1.9s-1.1,1-1.9,1.3s-1.6,0.5-2.7,0.5c-0.9,0-1.7-0.2-2.6-0.5c-0.8-0.3-1.5-0.8-2.2-1.5
		c-0.6-0.7-1.1-1.5-1.5-2.4c-0.4-1-0.6-2.1-0.6-3.5c0-1.7,0.2-3.1,0.6-4.3c0.4-1.2,0.9-2.1,1.6-2.8c0.6-0.7,1.4-1.2,2.1-1.5
		c0.8-0.3,1.5-0.5,2.3-0.5c0.7,0,1.4,0.1,2,0.3c0.6,0.2,1.1,0.4,1.6,0.7s0.9,0.6,1.2,1c0.3,0.4,0.6,0.8,0.8,1.2L67.6,155.6z
		 M65.4,164.9c0.6,0,1.1-0.3,1.4-0.8s0.5-1.1,0.5-1.8c0-0.8-0.2-1.4-0.5-1.9c-0.3-0.5-0.8-0.8-1.4-0.8c-0.6,0-1.1,0.3-1.4,0.8
		c-0.3,0.5-0.5,1.2-0.5,1.9c0,0.8,0.2,1.5,0.5,1.9C64.5,164.7,64.9,164.9,65.4,164.9z"/>
	<path class="st0" d="M77.1,160.4c-0.8,0-1.4-0.1-2-0.4s-1.1-0.7-1.5-1.1s-0.7-1.1-0.9-1.7c-0.2-0.7-0.3-1.4-0.3-2.1
		c0-0.7,0.1-1.4,0.3-2c0.2-0.6,0.5-1.2,0.9-1.6s0.9-0.8,1.5-1.1c0.6-0.3,1.2-0.4,2-0.4c0.8,0,1.6,0.1,2.2,0.4
		c0.6,0.3,1.1,0.6,1.5,1.1c0.4,0.5,0.7,1,0.8,1.6c0.2,0.6,0.3,1.3,0.3,2c0,0.7-0.1,1.4-0.3,2.1c-0.2,0.7-0.5,1.2-0.9,1.7
		c-0.4,0.5-0.9,0.9-1.5,1.2C78.6,160.3,77.9,160.4,77.1,160.4z M77.1,157.8c0.2,0,0.4-0.1,0.6-0.3c0.1-0.2,0.3-0.4,0.3-0.7
		c0.1-0.3,0.1-0.6,0.2-0.9s0-0.6,0-0.9c0-0.3,0-0.6,0-0.9c0-0.3-0.1-0.6-0.2-0.9c-0.1-0.3-0.2-0.5-0.3-0.6c-0.1-0.2-0.3-0.2-0.6-0.2
		s-0.4,0.1-0.6,0.2c-0.1,0.2-0.3,0.4-0.3,0.6c-0.1,0.3-0.1,0.5-0.2,0.8c0,0.3,0,0.6,0,0.9c0,0.3,0,0.6,0,1c0,0.3,0.1,0.6,0.2,0.9
		c0.1,0.3,0.2,0.5,0.3,0.7C76.6,157.8,76.8,157.8,77.1,157.8z M86.3,149.7l2.2,1l-8.4,17.1l-2.2-0.9L86.3,149.7z M89.2,167.7
		c-0.8,0-1.4-0.1-2-0.4c-0.6-0.3-1.1-0.7-1.5-1.1c-0.4-0.5-0.7-1.1-0.9-1.7c-0.2-0.7-0.3-1.4-0.3-2.1c0-0.7,0.1-1.4,0.3-2
		s0.5-1.2,0.9-1.6c0.4-0.5,0.9-0.8,1.5-1.1c0.6-0.3,1.2-0.4,2-0.4c0.8,0,1.6,0.1,2.2,0.4c0.6,0.3,1.1,0.6,1.5,1.1
		c0.4,0.5,0.7,1,0.8,1.6c0.2,0.6,0.3,1.3,0.3,2c0,0.7-0.1,1.4-0.3,2.1c-0.2,0.7-0.5,1.2-0.9,1.7c-0.4,0.5-0.9,0.9-1.5,1.2
		C90.8,167.6,90.1,167.7,89.2,167.7z M89.2,165.2c0.2,0,0.4-0.1,0.6-0.3c0.1-0.2,0.3-0.4,0.3-0.7c0.1-0.3,0.1-0.6,0.2-0.9
		c0-0.3,0-0.6,0-0.9c0-0.3,0-0.6,0-0.9s-0.1-0.6-0.2-0.9c-0.1-0.3-0.2-0.5-0.3-0.6s-0.3-0.2-0.6-0.2s-0.4,0.1-0.6,0.2
		c-0.1,0.2-0.3,0.4-0.3,0.6c-0.1,0.3-0.1,0.5-0.2,0.8c0,0.3,0,0.6,0,0.9c0,0.3,0,0.6,0,1c0,0.3,0.1,0.6,0.2,0.9
		c0.1,0.3,0.2,0.5,0.3,0.7C88.8,165.1,89,165.2,89.2,165.2z"/>
	<path class="st0" d="M100.2,155.2h3.7l0.3,1.7c0.4-0.7,0.8-1.2,1.4-1.5c0.6-0.4,1.3-0.5,2.2-0.5c1,0,1.8,0.2,2.3,0.7
		c0.5,0.4,0.9,1,1.2,1.5c0.1-0.3,0.3-0.5,0.5-0.8c0.2-0.3,0.4-0.5,0.7-0.7c0.3-0.2,0.7-0.4,1.1-0.5c0.4-0.1,0.9-0.2,1.5-0.2
		c0.9,0,1.6,0.1,2.1,0.4c0.5,0.3,0.9,0.7,1.2,1.1c0.3,0.5,0.5,1,0.6,1.6c0.1,0.6,0.1,1.2,0.1,1.9v7.6H115v-6.4c0-0.9-0.1-1.6-0.4-2
		c-0.2-0.4-0.7-0.7-1.3-0.7c-0.2,0-0.4,0-0.6,0.1s-0.4,0.2-0.6,0.4c-0.2,0.2-0.3,0.5-0.4,0.9c-0.1,0.4-0.2,0.9-0.2,1.5v6.2h-4.1
		v-6.5c0-0.9-0.1-1.5-0.4-1.9c-0.2-0.4-0.7-0.6-1.2-0.6c-0.2,0-0.4,0-0.6,0.1c-0.2,0.1-0.4,0.2-0.6,0.4s-0.3,0.6-0.4,1
		c-0.1,0.4-0.2,1-0.2,1.7v5.9h-4.1V155.2z"/>
	<path class="st0" d="M126.6,167.9c-1,0-2-0.2-2.7-0.5c-0.8-0.3-1.4-0.8-1.9-1.4c-0.5-0.6-0.9-1.3-1.2-2.1c-0.3-0.8-0.4-1.7-0.4-2.6
		c0-0.9,0.1-1.8,0.4-2.6c0.3-0.8,0.7-1.5,1.2-2.1c0.5-0.6,1.2-1,1.9-1.4c0.8-0.3,1.7-0.5,2.7-0.5c1,0,1.9,0.2,2.7,0.5
		c0.8,0.3,1.4,0.8,1.9,1.4c0.5,0.6,0.9,1.3,1.2,2.1c0.3,0.8,0.4,1.7,0.4,2.6c0,0.9-0.1,1.8-0.4,2.6c-0.3,0.8-0.7,1.5-1.2,2.1
		c-0.5,0.6-1.2,1-1.9,1.4C128.5,167.7,127.6,167.9,126.6,167.9z M126.6,164.8c0.7,0,1.2-0.3,1.5-0.9c0.3-0.6,0.4-1.4,0.4-2.5
		s-0.2-1.9-0.5-2.5s-0.8-0.9-1.5-0.9s-1.2,0.3-1.5,0.9c-0.3,0.6-0.5,1.5-0.5,2.5s0.2,1.9,0.5,2.5
		C125.4,164.5,125.9,164.8,126.6,164.8z"/>
	<path class="st0" d="M134.1,155.2h3.7l0.3,2.3c0.4-0.7,0.9-1.4,1.6-1.9s1.6-0.8,2.7-0.8v4.1c-0.3-0.1-0.7-0.1-1.3-0.1
		c-0.3,0-0.6,0-1,0.1c-0.3,0.1-0.6,0.2-0.9,0.4c-0.3,0.2-0.5,0.5-0.7,1c-0.2,0.4-0.3,1-0.3,1.8v5.4h-4.1V155.2z"/>
	<path class="st0" d="M146.6,162.3c0.1,1,0.4,1.6,0.9,2s1,0.6,1.6,0.6c0.5,0,1-0.1,1.3-0.3s0.7-0.6,1-1l3,1.7
		c-0.6,0.9-1.4,1.6-2.4,2.1c-1,0.4-2,0.7-3.2,0.7c-1,0-2-0.2-2.8-0.5c-0.8-0.3-1.5-0.8-2-1.4c-0.5-0.6-1-1.3-1.2-2.1
		c-0.3-0.8-0.4-1.7-0.4-2.6c0-0.9,0.1-1.8,0.4-2.6c0.3-0.8,0.7-1.5,1.2-2.1c0.5-0.6,1.2-1,2-1.4c0.8-0.3,1.7-0.5,2.6-0.5
		c1,0,1.8,0.2,2.5,0.5c0.7,0.3,1.4,0.8,1.9,1.4c0.5,0.6,0.9,1.3,1.2,2.1c0.3,0.8,0.4,1.8,0.4,2.8c0,0.2,0,0.4,0,0.5
		c0,0.1,0,0.2,0,0.2H146.6z M148.6,157.8c-1.2,0-1.8,0.7-2,2.2h4c0-0.6-0.2-1.1-0.5-1.6C149.8,158,149.3,157.8,148.6,157.8z"/>
	<path class="st0" d="M155.8,163h4.5v4.5h-4.5V163z"/>
</g>
<g>
	<path class="st1" d="M19.6,180.8h3.7c1.9,0,3.3,0.4,4.3,1.3s1.4,2.3,1.4,4.2c0,1.8-0.5,3.2-1.5,4.1c-1,0.9-2.4,1.4-4.1,1.4h-3.9
		V180.8z M23.4,190c0.6,0,1.2-0.1,1.6-0.3c0.4-0.2,0.7-0.5,1-0.8c0.2-0.3,0.4-0.7,0.5-1.2s0.1-0.9,0.1-1.4s0-1-0.1-1.4
		c-0.1-0.4-0.3-0.8-0.5-1.2s-0.6-0.6-1-0.8c-0.4-0.2-1-0.3-1.6-0.3h-1.5v7.5H23.4z"/>
	<path class="st1" d="M33.5,191.9c-0.6,0-1.2-0.1-1.7-0.3c-0.5-0.2-0.9-0.5-1.2-0.9c-0.3-0.4-0.6-0.8-0.7-1.3
		c-0.2-0.5-0.2-1-0.2-1.6c0-0.6,0.1-1.1,0.2-1.6c0.2-0.5,0.4-0.9,0.7-1.3c0.3-0.4,0.7-0.7,1.2-0.9c0.5-0.2,1-0.3,1.6-0.3
		s1.2,0.1,1.6,0.3c0.5,0.2,0.9,0.5,1.2,0.9s0.6,0.8,0.7,1.3c0.2,0.5,0.2,1,0.2,1.6c0,0.6-0.1,1.1-0.2,1.6c-0.2,0.5-0.4,0.9-0.7,1.3
		c-0.3,0.4-0.7,0.7-1.2,0.9C34.7,191.8,34.1,191.9,33.5,191.9z M33.6,190.3c0.5,0,0.9-0.2,1.2-0.7c0.3-0.5,0.4-1.1,0.4-1.8
		c0-0.7-0.1-1.3-0.4-1.8c-0.3-0.5-0.7-0.7-1.2-0.7c-0.5,0-1,0.2-1.2,0.7s-0.4,1.1-0.4,1.8c0,0.7,0.1,1.3,0.4,1.8
		C32.6,190.1,33,190.3,33.6,190.3z"/>
	<path class="st1" d="M37.5,183.9h2.3l1.3,5.8l1.2-5.8h2.3l1.2,5.8l1.3-5.8h2.3l-2.4,7.8h-2.3l-1.2-4.8l-1.2,4.8h-2.3L37.5,183.9z"
		/>
	<path class="st1" d="M50,183.9h1.9l0.2,1.3c0.2-0.4,0.5-0.8,1-1c0.4-0.3,0.9-0.4,1.5-0.4c0.8,0,1.5,0.3,1.9,0.8
		c0.4,0.5,0.6,1.3,0.6,2.3v4.9H55v-4.3c0-0.7-0.1-1.1-0.3-1.4c-0.2-0.3-0.5-0.4-1-0.4c-0.4,0-0.8,0.2-1.1,0.5
		c-0.3,0.4-0.4,1-0.4,1.8v3.8H50V183.9z"/>
	<path class="st1" d="M58.4,180.8h2.1v10.9h-2.1V180.8z"/>
	<path class="st1" d="M65.4,191.9c-0.6,0-1.2-0.1-1.7-0.3c-0.5-0.2-0.9-0.5-1.2-0.9c-0.3-0.4-0.6-0.8-0.7-1.3
		c-0.2-0.5-0.2-1-0.2-1.6c0-0.6,0.1-1.1,0.2-1.6c0.2-0.5,0.4-0.9,0.7-1.3c0.3-0.4,0.7-0.7,1.2-0.9c0.5-0.2,1-0.3,1.6-0.3
		s1.2,0.1,1.6,0.3c0.5,0.2,0.9,0.5,1.2,0.9s0.6,0.8,0.7,1.3c0.2,0.5,0.2,1,0.2,1.6c0,0.6-0.1,1.1-0.2,1.6c-0.2,0.5-0.4,0.9-0.7,1.3
		c-0.3,0.4-0.7,0.7-1.2,0.9C66.5,191.8,66,191.9,65.4,191.9z M65.4,190.3c0.5,0,0.9-0.2,1.2-0.7c0.3-0.5,0.4-1.1,0.4-1.8
		c0-0.7-0.1-1.3-0.4-1.8c-0.3-0.5-0.7-0.7-1.2-0.7c-0.5,0-1,0.2-1.2,0.7s-0.4,1.1-0.4,1.8c0,0.7,0.1,1.3,0.4,1.8
		C64.4,190.1,64.8,190.3,65.4,190.3z"/>
	<path class="st1" d="M74.8,191.7c-0.1-0.1-0.1-0.3-0.1-0.5s-0.1-0.4-0.1-0.6c-0.2,0.4-0.4,0.7-0.8,1c-0.4,0.3-0.9,0.4-1.5,0.4
		c-0.8,0-1.4-0.2-1.9-0.7c-0.4-0.5-0.7-1.1-0.7-1.8c0-0.4,0.1-0.7,0.2-1c0.1-0.3,0.3-0.5,0.6-0.7c0.3-0.2,0.6-0.4,0.9-0.5
		c0.4-0.1,0.8-0.2,1.2-0.3l1.7-0.3v-0.3c0-0.5-0.1-0.8-0.3-0.9c-0.2-0.1-0.5-0.2-0.9-0.2c-0.5,0-1,0.1-1.3,0.3s-0.7,0.4-0.9,0.7
		l-1-1.4c0.3-0.3,0.8-0.6,1.4-0.8c0.6-0.2,1.3-0.4,2.2-0.4c1.1,0,1.9,0.2,2.3,0.7c0.5,0.5,0.7,1.2,0.7,2.2v2.9c0,0.3,0,0.6,0,0.8
		c0,0.2,0,0.4,0,0.5s0.1,0.3,0.1,0.5c0,0.1,0.1,0.3,0.2,0.4H74.8z M74.5,188l-1.3,0.2c-0.5,0.1-0.8,0.2-1,0.4
		c-0.2,0.2-0.3,0.4-0.3,0.7c0,0.3,0.1,0.5,0.3,0.8c0.2,0.2,0.4,0.3,0.8,0.3c0.4,0,0.8-0.2,1.1-0.5s0.5-0.8,0.5-1.4V188z"/>
	<path class="st1" d="M82.9,190.4c-0.2,0.5-0.5,0.8-0.9,1.1s-0.8,0.4-1.4,0.4c-0.5,0-0.9-0.1-1.3-0.3c-0.4-0.2-0.7-0.5-1-0.8
		c-0.3-0.4-0.5-0.8-0.6-1.3c-0.1-0.5-0.2-1.1-0.2-1.7c0-0.7,0.1-1.3,0.3-1.8c0.2-0.5,0.4-0.9,0.7-1.3s0.6-0.6,1-0.7
		c0.4-0.2,0.8-0.2,1.2-0.2c0.5,0,1,0.1,1.4,0.3s0.6,0.5,0.8,0.8v-4.1h2.1v10.9h-2V190.4z M82.8,187.5c0-0.3,0-0.5-0.1-0.8
		c-0.1-0.3-0.1-0.5-0.3-0.7c-0.1-0.2-0.3-0.4-0.5-0.5c-0.2-0.1-0.4-0.2-0.7-0.2c-0.5,0-0.9,0.2-1.1,0.6c-0.2,0.4-0.4,1-0.4,1.7
		c0,0.8,0.1,1.4,0.4,1.8c0.3,0.4,0.7,0.7,1.1,0.7c0.3,0,0.5-0.1,0.7-0.2c0.2-0.1,0.3-0.3,0.5-0.5c0.1-0.2,0.2-0.5,0.3-0.7
		c0.1-0.3,0.1-0.6,0.1-0.9V187.5z"/>
	<path class="st1" d="M90.1,185.3h-1.3v-1.4h0.2c0.4,0,0.6-0.1,0.8-0.2s0.4-0.3,0.5-0.5c0.1-0.2,0.2-0.4,0.3-0.7s0.1-0.6,0.2-0.9
		h1.3v2.2h1.6v1.4h-1.6v4.1c0,0.3,0.1,0.5,0.2,0.7s0.3,0.2,0.7,0.2c0.1,0,0.2,0,0.3,0c0.1,0,0.3-0.1,0.4-0.1l0.2,1.5
		c-0.3,0.1-0.5,0.2-0.8,0.2s-0.5,0.1-0.8,0.1c-0.4,0-0.8-0.1-1.1-0.2c-0.3-0.1-0.5-0.3-0.7-0.5c-0.2-0.2-0.3-0.5-0.4-0.7
		c-0.1-0.3-0.1-0.6-0.1-0.9V185.3z"/>
	<path class="st1" d="M94.7,180.8h2.1v4.4c0.2-0.4,0.5-0.7,0.9-1c0.4-0.3,0.9-0.4,1.5-0.4c0.9,0,1.5,0.3,1.9,0.8
		c0.4,0.6,0.6,1.3,0.6,2.4v4.8h-2.1v-4.5c0-0.5-0.1-1-0.3-1.3c-0.2-0.3-0.5-0.4-1-0.4c-0.5,0-0.8,0.2-1.1,0.6
		c-0.3,0.4-0.4,0.9-0.4,1.7v3.9h-2.1V180.8z"/>
	<path class="st1" d="M104.9,188.3c0.1,0.7,0.3,1.2,0.6,1.6c0.3,0.3,0.8,0.5,1.3,0.5c0.7,0,1.3-0.3,1.7-1l1.6,0.9
		c-0.4,0.6-0.8,1-1.4,1.3s-1.2,0.4-2,0.4c-0.6,0-1.2-0.1-1.7-0.3c-0.5-0.2-0.9-0.5-1.2-0.9c-0.3-0.4-0.6-0.8-0.8-1.3
		c-0.2-0.5-0.3-1-0.3-1.6c0-0.6,0.1-1.1,0.3-1.6c0.2-0.5,0.4-0.9,0.7-1.3c0.3-0.4,0.7-0.7,1.2-0.9c0.5-0.2,1-0.3,1.6-0.3
		c0.6,0,1.1,0.1,1.6,0.3c0.4,0.2,0.8,0.5,1.1,0.9s0.5,0.8,0.7,1.3s0.2,1.1,0.2,1.7c0,0.1,0,0.2,0,0.3c0,0.1,0,0.1,0,0.1H104.9z
		 M106.5,185.2c-0.5,0-0.9,0.2-1.1,0.5s-0.4,0.8-0.5,1.4h3.1c0-0.2,0-0.5-0.1-0.7c-0.1-0.2-0.2-0.4-0.3-0.6
		c-0.1-0.2-0.3-0.3-0.5-0.4S106.7,185.2,106.5,185.2z"/>
	<path class="st1" d="M121.3,190c-0.4,0.7-0.8,1.1-1.4,1.4s-1.2,0.5-2,0.5c-0.7,0-1.2-0.1-1.7-0.3c-0.5-0.2-0.9-0.5-1.2-0.9
		c-0.3-0.4-0.5-0.8-0.7-1.3c-0.1-0.5-0.2-1-0.2-1.6c0-0.6,0.1-1.2,0.3-1.7c0.2-0.5,0.4-0.9,0.7-1.3s0.7-0.7,1.2-0.9s1-0.3,1.6-0.3
		c0.8,0,1.5,0.2,2,0.5c0.5,0.3,1,0.8,1.4,1.4l-1.7,0.9c-0.2-0.4-0.4-0.7-0.6-0.9c-0.3-0.2-0.6-0.3-0.9-0.3c-0.3,0-0.6,0.1-0.8,0.2
		s-0.4,0.3-0.5,0.5c-0.1,0.2-0.2,0.5-0.3,0.8c-0.1,0.3-0.1,0.6-0.1,1c0,0.3,0,0.6,0.1,0.9c0.1,0.3,0.2,0.6,0.3,0.8
		c0.1,0.2,0.3,0.5,0.6,0.6c0.2,0.2,0.5,0.2,0.9,0.2c0.4,0,0.8-0.1,1-0.3c0.3-0.2,0.5-0.5,0.6-0.9L121.3,190z"/>
	<path class="st1" d="M126.7,191.7c-0.1-0.1-0.1-0.3-0.1-0.5s-0.1-0.4-0.1-0.6c-0.2,0.4-0.4,0.7-0.8,1c-0.4,0.3-0.9,0.4-1.5,0.4
		c-0.8,0-1.4-0.2-1.9-0.7c-0.4-0.5-0.7-1.1-0.7-1.8c0-0.4,0.1-0.7,0.2-1c0.1-0.3,0.3-0.5,0.6-0.7c0.3-0.2,0.6-0.4,0.9-0.5
		c0.4-0.1,0.8-0.2,1.2-0.3l1.7-0.3v-0.3c0-0.5-0.1-0.8-0.3-0.9c-0.2-0.1-0.5-0.2-0.9-0.2c-0.5,0-1,0.1-1.3,0.3s-0.7,0.4-0.9,0.7
		l-1-1.4c0.3-0.3,0.8-0.6,1.4-0.8c0.6-0.2,1.3-0.4,2.2-0.4c1.1,0,1.9,0.2,2.3,0.7c0.5,0.5,0.7,1.2,0.7,2.2v2.9c0,0.3,0,0.6,0,0.8
		c0,0.2,0,0.4,0,0.5s0.1,0.3,0.1,0.5c0,0.1,0.1,0.3,0.2,0.4H126.7z M126.3,188l-1.3,0.2c-0.5,0.1-0.8,0.2-1,0.4
		c-0.2,0.2-0.3,0.4-0.3,0.7c0,0.3,0.1,0.5,0.3,0.8c0.2,0.2,0.4,0.3,0.8,0.3c0.4,0,0.8-0.2,1.1-0.5s0.5-0.8,0.5-1.4V188z"/>
	<path class="st1" d="M130.4,189.4c0.1,0.1,0.3,0.3,0.4,0.4c0.2,0.1,0.4,0.2,0.6,0.3c0.2,0.1,0.4,0.2,0.6,0.2
		c0.2,0.1,0.5,0.1,0.7,0.1c0.3,0,0.5-0.1,0.8-0.2c0.2-0.1,0.4-0.3,0.4-0.6c0-0.2-0.1-0.4-0.3-0.6c-0.2-0.1-0.5-0.3-0.8-0.4
		c-0.3-0.1-0.6-0.2-1-0.3c-0.4-0.1-0.7-0.2-1-0.4s-0.6-0.4-0.8-0.7c-0.2-0.3-0.3-0.7-0.3-1.2c0-0.4,0.1-0.8,0.3-1.1
		c0.2-0.3,0.4-0.6,0.7-0.8s0.6-0.3,1-0.4s0.8-0.1,1.2-0.1c0.6,0,1.2,0.1,1.7,0.2c0.5,0.2,1,0.4,1.3,0.7l-1,1.4
		c-0.1-0.1-0.2-0.2-0.4-0.3c-0.2-0.1-0.3-0.2-0.5-0.3s-0.4-0.1-0.6-0.2c-0.2,0-0.4-0.1-0.6-0.1c-0.2,0-0.4,0.1-0.6,0.2
		c-0.2,0.1-0.3,0.3-0.3,0.5c0,0.2,0.1,0.4,0.3,0.5s0.5,0.2,0.8,0.4c0.3,0.1,0.6,0.2,1,0.3c0.4,0.1,0.7,0.3,1,0.4s0.6,0.4,0.8,0.7
		c0.2,0.3,0.3,0.7,0.3,1.1c0,0.4-0.1,0.8-0.3,1.1c-0.2,0.3-0.4,0.6-0.7,0.8s-0.6,0.4-1,0.5c-0.4,0.1-0.8,0.2-1.1,0.2
		c-1.4,0-2.6-0.4-3.4-1.2L130.4,189.4z"/>
	<path class="st1" d="M138.7,188.3c0.1,0.7,0.3,1.2,0.6,1.6c0.3,0.3,0.8,0.5,1.3,0.5c0.7,0,1.3-0.3,1.7-1l1.6,0.9
		c-0.4,0.6-0.8,1-1.4,1.3s-1.2,0.4-2,0.4c-0.6,0-1.2-0.1-1.7-0.3c-0.5-0.2-0.9-0.5-1.2-0.9c-0.3-0.4-0.6-0.8-0.8-1.3
		c-0.2-0.5-0.3-1-0.3-1.6c0-0.6,0.1-1.1,0.3-1.6c0.2-0.5,0.4-0.9,0.7-1.3c0.3-0.4,0.7-0.7,1.2-0.9c0.5-0.2,1-0.3,1.6-0.3
		c0.6,0,1.1,0.1,1.6,0.3c0.4,0.2,0.8,0.5,1.1,0.9s0.5,0.8,0.7,1.3s0.2,1.1,0.2,1.7c0,0.1,0,0.2,0,0.3c0,0.1,0,0.1,0,0.1H138.7z
		 M140.3,185.2c-0.5,0-0.9,0.2-1.1,0.5s-0.4,0.8-0.5,1.4h3.1c0-0.2,0-0.5-0.1-0.7c-0.1-0.2-0.2-0.4-0.3-0.6
		c-0.1-0.2-0.3-0.3-0.5-0.4S140.6,185.2,140.3,185.2z"/>
	<path class="st1" d="M148.7,189.4c0.1,0.1,0.3,0.3,0.4,0.4c0.2,0.1,0.4,0.2,0.6,0.3c0.2,0.1,0.4,0.2,0.6,0.2
		c0.2,0.1,0.5,0.1,0.7,0.1c0.3,0,0.5-0.1,0.8-0.2c0.2-0.1,0.4-0.3,0.4-0.6c0-0.2-0.1-0.4-0.3-0.6c-0.2-0.1-0.5-0.3-0.8-0.4
		c-0.3-0.1-0.6-0.2-1-0.3c-0.4-0.1-0.7-0.2-1-0.4s-0.6-0.4-0.8-0.7c-0.2-0.3-0.3-0.7-0.3-1.2c0-0.4,0.1-0.8,0.3-1.1
		c0.2-0.3,0.4-0.6,0.7-0.8s0.6-0.3,1-0.4s0.8-0.1,1.2-0.1c0.6,0,1.2,0.1,1.7,0.2c0.5,0.2,1,0.4,1.3,0.7l-1,1.4
		c-0.1-0.1-0.2-0.2-0.4-0.3c-0.2-0.1-0.3-0.2-0.5-0.3s-0.4-0.1-0.6-0.2c-0.2,0-0.4-0.1-0.6-0.1c-0.2,0-0.4,0.1-0.6,0.2
		c-0.2,0.1-0.3,0.3-0.3,0.5c0,0.2,0.1,0.4,0.3,0.5s0.5,0.2,0.8,0.4c0.3,0.1,0.6,0.2,1,0.3c0.4,0.1,0.7,0.3,1,0.4s0.6,0.4,0.8,0.7
		c0.2,0.3,0.3,0.7,0.3,1.1c0,0.4-0.1,0.8-0.3,1.1c-0.2,0.3-0.4,0.6-0.7,0.8s-0.6,0.4-1,0.5c-0.4,0.1-0.8,0.2-1.1,0.2
		c-1.4,0-2.6-0.4-3.4-1.2L148.7,189.4z"/>
	<path class="st1" d="M155.8,185.3h-1.3v-1.4h0.2c0.4,0,0.6-0.1,0.8-0.2s0.4-0.3,0.5-0.5c0.1-0.2,0.2-0.4,0.3-0.7s0.1-0.6,0.2-0.9
		h1.3v2.2h1.6v1.4h-1.6v4.1c0,0.3,0.1,0.5,0.2,0.7s0.3,0.2,0.7,0.2c0.1,0,0.2,0,0.3,0c0.1,0,0.3-0.1,0.4-0.1l0.2,1.5
		c-0.3,0.1-0.5,0.2-0.8,0.2s-0.5,0.1-0.8,0.1c-0.4,0-0.8-0.1-1.1-0.2c-0.3-0.1-0.5-0.3-0.7-0.5c-0.2-0.2-0.3-0.5-0.4-0.7
		c-0.1-0.3-0.1-0.6-0.1-0.9V185.3z"/>
	<path class="st1" d="M160.3,183.9h2.1v4.4c0,1.2,0.4,1.7,1.2,1.7c0.5,0,0.9-0.2,1.2-0.6s0.4-1,0.4-1.7v-3.9h2.1v7.8h-2v-1.3
		c-0.2,0.4-0.5,0.8-0.8,1.1c-0.4,0.3-0.9,0.4-1.5,0.4c-0.9,0-1.6-0.3-2-0.8c-0.4-0.5-0.6-1.3-0.6-2.3V183.9z"/>
	<path class="st1" d="M173.7,190.4c-0.2,0.5-0.5,0.8-0.9,1.1s-0.8,0.4-1.4,0.4c-0.5,0-0.9-0.1-1.3-0.3c-0.4-0.2-0.7-0.5-1-0.8
		c-0.3-0.4-0.5-0.8-0.6-1.3c-0.1-0.5-0.2-1.1-0.2-1.7c0-0.7,0.1-1.3,0.3-1.8c0.2-0.5,0.4-0.9,0.7-1.3s0.6-0.6,1-0.7
		c0.4-0.2,0.8-0.2,1.2-0.2c0.5,0,1,0.1,1.4,0.3c0.4,0.2,0.6,0.5,0.8,0.8v-4.1h2.1v10.9h-2V190.4z M173.6,187.5c0-0.3,0-0.5-0.1-0.8
		s-0.1-0.5-0.3-0.7c-0.1-0.2-0.3-0.4-0.5-0.5c-0.2-0.1-0.4-0.2-0.7-0.2c-0.5,0-0.9,0.2-1.1,0.6c-0.2,0.4-0.4,1-0.4,1.7
		c0,0.8,0.1,1.4,0.4,1.8c0.3,0.4,0.7,0.7,1.1,0.7c0.3,0,0.5-0.1,0.7-0.2c0.2-0.1,0.3-0.3,0.5-0.5c0.1-0.2,0.2-0.5,0.3-0.7
		c0.1-0.3,0.1-0.6,0.1-0.9V187.5z"/>
	<path class="st1" d="M177.1,192.8c0.2,0.1,0.3,0.1,0.5,0.1s0.3,0.1,0.5,0.1c0.3,0,0.5-0.1,0.6-0.2c0.1-0.2,0.3-0.4,0.4-0.8l-2.7-8
		h2.3l1.5,5.7l1.5-5.7h2.3l-2.6,7.5c-0.2,0.5-0.3,0.9-0.5,1.3c-0.2,0.4-0.3,0.7-0.6,1c-0.2,0.3-0.5,0.5-0.9,0.6
		c-0.3,0.1-0.8,0.2-1.3,0.2c-0.1,0-0.2,0-0.3,0c-0.1,0-0.2,0-0.4,0c-0.1,0-0.3,0-0.4,0c-0.1,0-0.2,0-0.3-0.1L177.1,192.8z"/>
	<path class="st1" d="M184,189.3h2.3v2.4H184V189.3z"/>
</g>
</svg>
