<?xml version="1.0" encoding="utf-8"?>
<!-- Generator: Adobe Illustrator 22.1.0, SVG Export Plug-In . SVG Version: 6.00 Build 0)  -->
<svg version="1.1" id="Layer_1" xmlns="https://www.w3.org/2000/svg" xmlns:xlink="https://www.w3.org/1999/xlink" x="0px" y="0px"
	 viewBox="0 0 73.8 14.5" style="enable-background:new 0 0 73.8 14.5;" xml:space="preserve">
<style type="text/css">
	.copy_whiteFill{fill:#FFFFFF;}
</style>
<g>
	<path class="copy_whiteFill" d="M1.8,8.4C1.9,8.5,2,8.6,2.2,8.8C2.3,8.9,2.5,9,2.7,9.1c0.2,0.1,0.4,0.2,0.7,0.3s0.5,0.1,0.8,0.1
		c0.4,0,0.7-0.1,0.9-0.2S5.5,9,5.5,8.7c0-0.2,0-0.3-0.1-0.4C5.2,8.2,5.1,8.1,4.9,8C4.7,7.9,4.4,7.8,4.2,7.8c-0.3-0.1-0.6-0.1-1-0.2
		c-0.9-0.2-1.6-0.6-2-1s-0.6-1-0.6-1.7c0-0.4,0.1-0.8,0.2-1.1C1,3.3,1.2,3,1.5,2.7c0.3-0.3,0.7-0.5,1.1-0.7c0.5-0.2,1-0.2,1.6-0.2
		c0.7,0,1.4,0.1,2,0.4c0.6,0.2,1.2,0.6,1.6,1.1L6.4,4.7C6.1,4.5,5.8,4.2,5.4,4C5.1,3.8,4.6,3.8,4.1,3.8c-0.2,0-0.4,0-0.6,0.1
		C3.4,3.9,3.3,3.9,3.2,4C3.2,4,3.1,4.1,3.1,4.2c0,0.1,0,0.2,0,0.2C3,4.7,3.1,4.9,3.4,5C3.6,5.2,4,5.4,4.6,5.5
		c0.7,0.2,1.2,0.4,1.6,0.5c0.4,0.2,0.8,0.4,1,0.6c0.3,0.2,0.4,0.5,0.5,0.8s0.1,0.6,0.1,1c0,0.5-0.1,0.9-0.3,1.3
		c-0.2,0.4-0.5,0.7-0.8,0.9S6,11.1,5.6,11.2c-0.5,0.1-0.9,0.2-1.4,0.2c-0.5,0-0.9,0-1.3-0.1C2.4,11.2,2,11.1,1.7,11
		c-0.3-0.1-0.6-0.3-0.8-0.4c-0.2-0.2-0.4-0.3-0.6-0.5L1.8,8.4z"/>
	<path class="copy_whiteFill" d="M11.7,2h2.1l3.6,9.2h-2.5l-0.7-1.9h-3.1l-0.7,1.9H8.1L11.7,2z M13.7,7.6c-0.2-0.5-0.3-0.9-0.5-1.3
		s-0.3-0.9-0.5-1.5c-0.1,0.5-0.3,1-0.4,1.5c-0.2,0.4-0.3,0.9-0.5,1.4H13.7z"/>
	<path class="copy_whiteFill" d="M16.3,2h2.5c0.2,0.6,0.4,1.2,0.6,1.8C19.6,4.4,19.8,5,20,5.5c0.2,0.6,0.4,1.1,0.5,1.6c0.2,0.5,0.3,1,0.4,1.4
		c0.1-0.4,0.2-0.9,0.4-1.4s0.3-1,0.5-1.6C22,5,22.2,4.4,22.4,3.8S22.8,2.6,23,2h2.4l-3.6,9.2h-2.1L16.3,2z"/>
	<path class="copy_whiteFill" d="M26.3,2h6.5v1.8h-4.2v1.7h2.9v1.8h-2.9v2.2h4.3v1.8h-6.6V2z"/>
	<path class="copy_whiteFill" d="M37,2h2.7c0.1,0.3,0.2,0.6,0.4,0.9s0.3,0.7,0.4,1s0.3,0.7,0.4,1c0.1,0.3,0.2,0.6,0.4,0.9
		c0.1,0.3,0.2,0.5,0.3,0.7c0.1,0.2,0.1,0.4,0.2,0.5c0-0.1,0.1-0.3,0.2-0.5c0.1-0.2,0.2-0.5,0.3-0.7s0.2-0.6,0.3-0.9
		c0.1-0.3,0.3-0.7,0.4-1c0.1-0.3,0.3-0.7,0.4-1c0.1-0.3,0.3-0.6,0.4-0.9h2.6v9.2H44c0-0.5,0-1,0-1.6c0-0.6,0-1.1,0-1.7
		c0-0.5,0-1,0-1.5c0-0.5,0-0.8,0.1-1c-0.1,0.3-0.2,0.6-0.4,1s-0.4,0.9-0.6,1.5S42.6,9,42.4,9.6c-0.2,0.6-0.5,1.1-0.7,1.6h-0.2
		c-0.2-0.6-0.5-1.1-0.7-1.7c-0.3-0.6-0.5-1.1-0.7-1.7c-0.2-0.5-0.4-1-0.6-1.4c-0.2-0.4-0.3-0.8-0.4-1c0,0.2,0,0.6,0.1,1
		c0,0.5,0,1,0,1.5c0,0.6,0,1.1,0,1.7c0,0.6,0,1.1,0,1.6H37V2z"/>
	<path class="copy_whiteFill" d="M52,11.4c-0.6,0-1.2-0.1-1.8-0.3c-0.6-0.2-1.1-0.5-1.5-0.9s-0.8-0.9-1-1.5s-0.4-1.3-0.4-2.1
		c0-0.8,0.1-1.5,0.4-2.1c0.3-0.6,0.6-1.1,1-1.5s0.9-0.7,1.5-0.9c0.6-0.2,1.2-0.3,1.8-0.3c0.6,0,1.2,0.1,1.8,0.3
		c0.6,0.2,1.1,0.5,1.5,0.9c0.4,0.4,0.8,0.9,1,1.5c0.3,0.6,0.4,1.3,0.4,2.1c0,0.8-0.1,1.5-0.4,2.1c-0.3,0.6-0.6,1.1-1,1.5
		c-0.4,0.4-0.9,0.7-1.5,0.9C53.2,11.3,52.6,11.4,52,11.4z M52,9.4c0.3,0,0.6-0.1,0.9-0.2c0.3-0.1,0.5-0.3,0.7-0.5s0.3-0.5,0.5-0.9
		s0.2-0.8,0.2-1.2c0-0.9-0.2-1.6-0.6-2.1c-0.4-0.5-0.9-0.7-1.6-0.7c-0.7,0-1.2,0.2-1.5,0.7C50,5,49.8,5.7,49.8,6.6
		c0,0.5,0.1,0.9,0.2,1.2c0.1,0.3,0.3,0.6,0.5,0.9s0.4,0.4,0.7,0.5C51.4,9.3,51.7,9.4,52,9.4z"/>
	<path class="copy_whiteFill" d="M57.7,2h3.8c0.5,0,1,0,1.4,0.1c0.5,0.1,0.9,0.3,1.2,0.5c0.3,0.2,0.6,0.5,0.8,0.9c0.2,0.4,0.3,0.8,0.3,1.4
		c0,0.4-0.1,0.7-0.2,1c-0.1,0.3-0.3,0.5-0.5,0.7c-0.2,0.2-0.5,0.3-0.7,0.5c-0.3,0.1-0.5,0.2-0.8,0.3c0.2,0,0.5,0.1,0.7,0.2
		c0.2,0.1,0.4,0.3,0.5,0.6l1.8,3.1h-2.7L62.1,9c-0.1-0.2-0.2-0.4-0.3-0.5c-0.1-0.1-0.2-0.2-0.3-0.3c-0.1-0.1-0.2-0.1-0.4-0.1
		c-0.1,0-0.3,0-0.5,0h-0.6v3.1h-2.3V2z M61.4,6.3c0.2,0,0.3,0,0.5,0c0.2,0,0.3-0.1,0.4-0.2s0.2-0.2,0.3-0.4c0.1-0.2,0.1-0.4,0.1-0.7
		c0-0.2,0-0.4-0.1-0.6c-0.1-0.2-0.2-0.3-0.3-0.4c-0.1-0.1-0.3-0.1-0.4-0.2c-0.2,0-0.3,0-0.4,0h-1.3v2.5H61.4z"/>
	<path class="copy_whiteFill" d="M66.8,2h6.5v1.8h-4.2v1.7H72v1.8h-2.9v2.2h4.3v1.8h-6.6V2z"/>
</g>
</svg>
