<?xml version="1.0" encoding="utf-8"?>
<!-- Generator: Adobe Illustrator 22.1.0, SVG Export Plug-In . SVG Version: 6.00 Build 0)  -->
<svg version="1.1" id="Layer_1" xmlns="http://www.w3.org/2000/svg" xmlns:xlink="http://www.w3.org/1999/xlink" x="0px" y="0px"
	 viewBox="0 0 336 280" style="enable-background:new 0 0 336 280;" xml:space="preserve">
<style type="text/css">
	.st0{fill:#662868;}
	.st1{fill:#FDBC40;}
	.st2{fill:#EC7623;}
</style>
<polygon class="st0" points="36.1,239 35.4,242.8 43.1,242.8 33,254.9 32.5,257.7 47,257.7 47.6,253.9 39.6,253.9 49.6,241.9 
	50.1,239 "/>
<path class="st0" d="M49.6,250.7c0-7,4.8-12.2,10.8-12.2c3.6,0,5.7,1.8,5.7,4.8c0,4.6-5.2,6.7-11.5,7.4c0.1,2.2,0.9,3.4,3,3.4
	c2,0,3.6-1,4.8-2l2,3.3c-1.5,1.2-3.8,2.7-7.5,2.7C52.1,258.2,49.6,255.1,49.6,250.7 M55,247.5c3.8-0.4,6.4-1.7,6.4-3.6
	c0-1-0.6-1.5-1.8-1.5C57.2,242.4,55.6,244.8,55,247.5"/>
<polygon class="st0" points="71.6,230 76.5,230 71.5,257.7 66.6,257.7 "/>
<path class="st0" d="M79.3,239h5l-3.4,18.7h-5L79.3,239z M79.6,233.4c0-1.6,1.3-2.9,3-2.9c1.8,0,3,1.3,3,2.9c0,1.6-1.3,3-3,3
	C80.8,236.4,79.6,235,79.6,233.4"/>
<path class="st0" d="M83.4,256.3l2.1-3.4c0.9,0.6,2.2,1.5,4,1.5c1.5,0,2.3-0.7,2.3-1.7c0-1.2-1.3-2.1-2.8-3.7
	c-1.4-1.5-2.5-2.9-2.5-5.1c0-3.2,2.5-5.3,6.7-5.3c2.5,0,4.3,0.7,5.5,1.7l-2.2,3.2c-0.6-0.5-1.7-1.1-3.2-1.1c-1.3,0-2,0.5-2,1.6
	c0,0.9,1,1.7,2.4,3.2c1.8,1.8,3.2,3.3,3.2,5.7c0,3.4-2.5,5.5-7.3,5.5C86.3,258.2,84.4,257,83.4,256.3"/>
<rect x="107.2" y="245.6" transform="matrix(0.7072 -0.7071 0.7071 0.7072 -142.0097 151.7256)" class="st1" width="10" height="3.3"/>
<rect x="111.9" y="231.5" transform="matrix(0.7071 -0.7071 0.7071 0.7071 -130.6768 150.9379)" class="st1" width="10" height="3.3"/>
<rect x="119.9" y="237.6" transform="matrix(0.7071 -0.7071 0.7071 0.7071 -135.9439 157.0107)" class="st1" width="3.3" height="10"/>
<rect x="105.8" y="232.9" transform="matrix(0.7072 -0.7071 0.7071 0.7072 -136.7431 145.6539)" class="st1" width="3.3" height="10"/>
<rect x="115.2" y="242.3" transform="matrix(0.7071 -0.7071 0.7071 0.7071 -140.6411 155.0652)" class="st2" width="3.3" height="10"/>
<rect x="110.5" y="228.2" transform="matrix(0.7071 -0.7071 0.7071 0.7071 -132.0527 147.6167)" class="st2" width="3.3" height="10"/>
<rect x="102.5" y="240.9" transform="matrix(0.7072 -0.7071 0.7071 0.7072 -140.064 147.0291)" class="st2" width="10" height="3.3"/>
<rect x="116.6" y="236.2" transform="matrix(0.7071 -0.7072 0.7072 0.7071 -132.6284 155.653)" class="st2" width="10" height="3.3"/>
<polygon class="st0" points="123.9,247.3 112.2,245 114.5,242.6 126.3,245 "/>
<polygon class="st0" points="114.5,237.9 102.8,235.6 105.1,233.2 116.9,235.6 "/>
<polygon class="st0" points="112.2,240.3 109.8,252 107.5,249.6 109.8,237.9 "/>
<polygon class="st0" points="121.6,230.9 119.2,242.6 116.9,240.3 119.2,228.5 "/>
<path class="st0" d="M97.8,256.4c0-1,0.8-1.8,1.8-1.8c1,0,1.8,0.8,1.8,1.8s-0.8,1.8-1.8,1.8C98.7,258.2,97.8,257.4,97.8,256.4
	 M101.2,256.4c0-0.9-0.6-1.5-1.5-1.5c-0.9,0-1.5,0.6-1.5,1.5c0,0.9,0.6,1.5,1.5,1.5C100.5,257.9,101.2,257.3,101.2,256.4 M99,255.3
	h0.7c0.5,0,0.7,0.3,0.7,0.6c0,0.3-0.2,0.5-0.5,0.6c0.1,0.1,0.2,0.1,0.3,0.3l0.4,0.7h-0.5l-0.5-0.7c-0.1-0.2-0.2-0.2-0.3-0.2v0.9H99
	V255.3z M99.6,256.2c0.2,0,0.4,0,0.4-0.3c0-0.2-0.1-0.3-0.4-0.3h-0.3v0.6H99.6z"/>
</svg>
