<svg version="1.1" id="Layer_1" xmlns="https://www.w3.org/2000/svg" x="0" y="0" viewBox="0 0 336 280" xml:space="preserve"><style>.copy_purpleFill{fill:#662868}.copy_grayFill{fill:#5d6770}</style><path class="copy_purpleFill" d="M20 99.7h12.1v3.3h-7.7v3.7h5.3v3.3h-5.3v6.8H20V99.7zM33.2 99.6h4.1v3.2h-4.1v-3.2zm0 4.9h4.1v12.3h-4.1v-12.3zM39.2 104.5h3.7l.3 1.7c.4-.6.9-1.1 1.6-1.5s1.4-.6 2.3-.6c2.7 0 4.1 1.7 4.1 5.2v7.5H47v-6.5c0-1-.1-1.6-.4-2-.3-.4-.7-.6-1.3-.6-.3 0-.6.1-.8.2-.2.1-.5.3-.6.5-.2.3-.3.6-.4 1-.1.4-.1 1-.1 1.6v5.8h-4.1v-12.3zM60.5 115.1c-.3.6-.7 1.1-1.3 1.5-.5.3-1.2.5-2 .5-.7 0-1.4-.1-2-.4-.6-.3-1.1-.7-1.5-1.2-.4-.5-.8-1.2-1-2s-.4-1.7-.4-2.8c0-1.2.1-2.2.4-3 .3-.8.7-1.5 1.1-2 .5-.5 1-.9 1.6-1.1.6-.2 1.2-.3 1.7-.3.8 0 1.4.1 1.9.4.5.3.9.7 1.1 1.1v-6h4.1v17.1h-3.8v-1.8zm-.3-4.7c0-.4 0-.8-.1-1.1-.1-.4-.2-.7-.3-1-.1-.3-.3-.5-.6-.7-.2-.2-.5-.2-.9-.2-.6 0-1.1.3-1.4.8-.3.5-.5 1.3-.5 2.2 0 1.1.2 1.9.5 2.5.4.6.8.9 1.4.9.3 0 .6-.1.8-.3.2-.2.4-.4.6-.7s.2-.6.3-1c.1-.4.1-.8.1-1.3v-.1zM76.9 117.2c-1 0-2-.2-2.7-.5-.8-.3-1.4-.8-1.9-1.4-.5-.6-.9-1.3-1.2-2.1-.3-.8-.4-1.7-.4-2.6 0-.9.1-1.8.4-2.6.3-.8.7-1.5 1.2-2.1.5-.6 1.2-1 1.9-1.4s1.7-.5 2.7-.5c1 0 1.9.2 2.7.5.8.3 1.4.8 1.9 1.4.5.6.9 1.3 1.2 2.1.3.8.4 1.7.4 2.6 0 .9-.1 1.8-.4 2.6-.3.8-.7 1.5-1.2 2.1-.5.6-1.2 1-1.9 1.4-.8.3-1.7.5-2.7.5zm0-3.1c.7 0 1.2-.3 1.5-.9s.4-1.4.4-2.5c0-1-.2-1.9-.5-2.5-.3-.6-.8-.9-1.5-.9s-1.2.3-1.5.9c-.3.6-.5 1.5-.5 2.5s.2 1.9.5 2.5c.4.6.9.9 1.6.9zM84.3 104.5h4.1v6.8c0 .8.1 1.4.4 1.8s.7.6 1.3.6c.7 0 1.2-.2 1.5-.7.3-.5.5-1.3.5-2.4v-5.9h4.1V117h-3.8v-2c-.3.6-.8 1.2-1.3 1.5-.6.4-1.3.6-2.4.6-1.5 0-2.5-.4-3.2-1.3-.7-.8-1-2.1-1-3.7v-7.6zM99 107.1h-2v-2.6h.3c.6 0 1.1-.1 1.5-.3.4-.2.6-.5.8-.8.2-.3.4-.7.4-1.2.1-.4.2-.9.3-1.3h2.6v3.6h2.5v2.6H103v5.7c0 .4.1.7.2.9.1.2.5.4.9.4h.5c.2 0 .4-.1.7-.2l.3 2.9c-.5.2-.9.3-1.4.4-.5.1-.9.1-1.4.1-.8 0-1.4-.1-1.9-.3-.5-.2-.9-.5-1.2-.8-.3-.3-.5-.7-.6-1.2s-.2-1-.2-1.6v-6.3zM111.5 99.7h4.1v6.4c.3-.5.8-1 1.4-1.4.6-.4 1.4-.6 2.4-.6 1.4 0 2.4.4 3.1 1.3.7.9 1 2.2 1 3.9v7.4h-4.1V110c0-.8-.1-1.4-.4-1.8s-.7-.6-1.4-.6c-.6 0-1.1.2-1.4.7-.4.5-.6 1.3-.6 2.4v6h-4.1v-17zM130.9 117.2c-1 0-2-.2-2.7-.5-.8-.3-1.4-.8-1.9-1.4-.5-.6-.9-1.3-1.2-2.1-.3-.8-.4-1.7-.4-2.6 0-.9.1-1.8.4-2.6.3-.8.7-1.5 1.2-2.1.5-.6 1.2-1 1.9-1.4s1.7-.5 2.7-.5c1 0 1.9.2 2.7.5.8.3 1.4.8 1.9 1.4.5.6.9 1.3 1.2 2.1.3.8.4 1.7.4 2.6 0 .9-.1 1.8-.4 2.6-.3.8-.7 1.5-1.2 2.1-.5.6-1.2 1-1.9 1.4-.8.3-1.7.5-2.7.5zm0-3.1c.7 0 1.2-.3 1.5-.9s.4-1.4.4-2.5c0-1-.2-1.9-.5-2.5-.3-.6-.8-.9-1.5-.9s-1.2.3-1.5.9c-.3.6-.5 1.5-.5 2.5s.2 1.9.5 2.5c.4.6.9.9 1.6.9zM137 104.5h4.4l1.8 8.4 1.6-8.4h4.3l1.6 8.4 1.8-8.4h4.4l-4 12.3h-4.4l-1.5-6.6-1.5 6.6h-4.4l-4.1-12.3zM173.7 114.2c-.6 1-1.4 1.8-2.3 2.3s-2 .7-3.2.7c-1.1 0-2-.2-2.8-.5-.8-.3-1.4-.8-1.9-1.4-.5-.6-.9-1.3-1.1-2.1-.2-.8-.4-1.6-.4-2.5 0-1 .1-1.9.4-2.7.3-.8.7-1.5 1.2-2.1s1.2-1 2-1.3c.8-.3 1.6-.5 2.6-.5 1.3 0 2.4.3 3.3.8s1.6 1.3 2.2 2.3l-3.3 1.6c-.2-.6-.5-1-.9-1.2-.4-.2-.7-.4-1.2-.4-.8 0-1.3.3-1.6.9-.3.6-.5 1.4-.5 2.4 0 .4 0 .8.1 1.2s.2.8.4 1.2c.2.4.4.6.7.9.3.2.7.4 1.2.4s1-.1 1.3-.4.6-.7.9-1.2l2.9 1.6zM180 117.2c-1 0-2-.2-2.7-.5-.8-.3-1.4-.8-1.9-1.4-.5-.6-.9-1.3-1.2-2.1-.3-.8-.4-1.7-.4-2.6 0-.9.1-1.8.4-2.6.3-.8.7-1.5 1.2-2.1.5-.6 1.2-1 1.9-1.4.8-.3 1.7-.5 2.7-.5s1.9.2 2.7.5 1.4.8 1.9 1.4c.5.6.9 1.3 1.2 2.1.3.8.4 1.7.4 2.6 0 .9-.1 1.8-.4 2.6-.3.8-.7 1.5-1.2 2.1-.5.6-1.2 1-1.9 1.4s-1.7.5-2.7.5zm.1-3.1c.7 0 1.2-.3 1.5-.9.3-.6.4-1.4.4-2.5 0-1-.2-1.9-.5-2.5-.3-.6-.8-.9-1.5-.9s-1.2.3-1.5.9c-.3.6-.5 1.5-.5 2.5s.2 1.9.5 2.5c.3.6.9.9 1.6.9zM187.6 104.5h3.7l.3 1.7c.4-.7.8-1.2 1.4-1.5s1.3-.5 2.2-.5c1 0 1.8.2 2.3.7.5.4.9 1 1.2 1.5.1-.3.3-.5.5-.8s.4-.5.8-.7c.3-.2.7-.4 1.1-.5.4-.1.9-.2 1.5-.2.9 0 1.6.1 2.1.4.5.3.9.7 1.2 1.1s.5 1 .6 1.6.1 1.2.1 1.9v7.6h-4.1v-6.4c0-.9-.1-1.6-.4-2-.2-.4-.7-.7-1.3-.7-.2 0-.4 0-.6.1-.2.1-.4.2-.6.4-.2.2-.3.5-.4.9-.1.4-.2.9-.2 1.5v6.2h-4v-6.5c0-.9-.1-1.5-.4-1.9-.2-.4-.7-.6-1.2-.6-.2 0-.4 0-.6.1-.2.1-.4.2-.6.4-.2.2-.3.6-.4 1-.1.4-.2 1-.2 1.7v5.9h-4.1v-12.4zM208.3 104.5h4.1v1.6c.3-.6.7-1 1.2-1.4.5-.4 1.2-.6 2.1-.6 1.4 0 2.5.5 3.3 1.6.9 1.1 1.3 2.7 1.3 4.8 0 1.3-.2 2.4-.5 3.2-.3.8-.7 1.5-1.2 2s-1 .9-1.6 1.1c-.6.2-1.1.3-1.7.3-.6 0-1.2-.1-1.8-.3-.6-.2-1-.6-1.3-1v5.3h-4.1v-16.6zm4.1 6.3c0 .4 0 .8.1 1.2.1.4.2.7.4 1 .2.3.4.5.6.7.2.2.5.2.8.2.6 0 1-.3 1.3-.8s.5-1.3.5-2.4c0-1.1-.2-1.9-.5-2.4s-.8-.8-1.4-.8c-.3 0-.6.1-.8.3-.2.2-.4.4-.6.7-.1.3-.2.6-.3 1s-.1.7-.1 1.1v.2zM228.7 116.8c-.1-.2-.2-.4-.2-.7-.1-.3-.1-.5-.1-.8-.2.5-.6.9-1.1 1.3-.5.4-1.3.6-2.2.6-.7 0-1.2-.1-1.7-.3-.5-.2-.9-.5-1.3-.8s-.6-.8-.8-1.3c-.2-.5-.3-1-.3-1.6 0-.6.1-1.2.3-1.6.2-.5.5-.9.9-1.2.4-.3.9-.6 1.5-.8.6-.2 1.2-.3 2-.5l2.5-.4v-.3c0-.5-.1-.9-.4-1-.3-.2-.6-.3-1.1-.3-.8 0-1.4.1-1.9.4-.5.3-1 .6-1.4 1l-1.9-2.7c.3-.2.6-.4 1-.6.4-.2.8-.4 1.3-.6.5-.2 1-.3 1.6-.4.6-.1 1.2-.2 2-.2 1.8 0 3.1.4 3.9 1.2s1.2 2 1.2 3.5v5.7c0 .3 0 .6.1.9 0 .3.1.5.2.7.1.2.2.4.3.7h-4.4zm-.6-5.5l-1.7.3c-.6.1-1 .3-1.2.5-.3.2-.4.5-.4.9s.1.6.3.9c.2.2.5.4.9.4.6 0 1-.2 1.4-.7.4-.4.6-1.1.6-1.9v-.4zM234.1 104.5h3.7l.3 1.7c.4-.6.9-1.1 1.6-1.5.7-.4 1.4-.6 2.3-.6 2.7 0 4.1 1.7 4.1 5.2v7.5H242v-6.5c0-1-.1-1.6-.4-2-.3-.4-.7-.6-1.3-.6-.3 0-.6.1-.8.2-.2.1-.5.3-.6.5-.2.3-.3.6-.4 1-.1.4-.1 1-.1 1.6v5.8h-4.1v-12.3zM247.8 99.6h4.1v3.2h-4.1v-3.2zm0 4.9h4.1v12.3h-4.1v-12.3zM257.3 111.6c.1 1 .4 1.6.9 2 .5.4 1 .6 1.6.6.5 0 1-.1 1.3-.3.4-.2.7-.6 1-1l3 1.7c-.6.9-1.4 1.6-2.4 2.1-1 .4-2 .7-3.2.7-1 0-2-.2-2.8-.5-.8-.3-1.5-.8-2-1.4-.5-.6-1-1.3-1.2-2.1-.3-.8-.4-1.7-.4-2.6 0-.9.1-1.8.4-2.6.3-.8.7-1.5 1.2-2.1s1.2-1 2-1.4c.8-.3 1.7-.5 2.6-.5 1 0 1.8.2 2.5.5s1.4.8 1.9 1.4c.5.6.9 1.3 1.2 2.1.3.8.4 1.8.4 2.8v.7h-8zm2-4.5c-1.2 0-1.8.7-2 2.2h4c0-.6-.2-1.1-.5-1.6-.3-.4-.8-.6-1.5-.6zM267.6 112.7c.2.2.4.4.7.5.3.2.6.4.9.5.3.1.7.3 1 .4.4.1.7.1 1.1.1.3 0 .6 0 .9-.1.3-.1.4-.3.4-.6s-.2-.5-.5-.7-.7-.3-1.2-.5c-.5-.1-1-.3-1.6-.4s-1.1-.4-1.6-.7-.9-.7-1.2-1.1-.5-1.1-.5-1.9c0-.7.1-1.3.4-1.8s.7-.9 1.2-1.3c.5-.3 1-.6 1.7-.7s1.3-.2 2-.2c1.1 0 2.1.1 2.9.4.8.3 1.6.6 2.3 1.1l-1.9 2.7c-.2-.1-.4-.3-.6-.4-.3-.1-.5-.3-.9-.4s-.6-.2-1-.3c-.3-.1-.7-.1-1-.1-.3 0-.5 0-.7.1-.2.1-.3.3-.3.5 0 .3.2.5.5.7.3.2.7.3 1.2.5s1 .3 1.5.5c.6.2 1.1.4 1.5.7s.9.7 1.2 1.1c.3.5.5 1.1.5 1.8s-.2 1.3-.5 1.9c-.3.5-.7 1-1.2 1.3s-1.1.6-1.7.8c-.6.2-1.2.3-1.9.3-2.3 0-4.2-.6-5.7-1.7l2.1-3z"/><g><path class="copy_purpleFill" d="M19.8 125.1h4.1v17.1h-4.1v-17.1zM25.8 124.9h4.1v3.2h-4.1v-3.2zm0 4.9h4.1v12.3h-4.1v-12.3zM31.7 125.1h4.1v9.3l4.1-4.5h5l-4.8 4.7 4.8 7.6h-4.6l-2.8-5.2-1.6 1.5v3.6h-4.1v-17z"/><path class="copy_purpleFill" d="M48.4 136.9c.1 1 .4 1.6.9 2s1 .6 1.6.6c.5 0 1-.1 1.3-.3.4-.2.7-.6 1-1l3 1.7c-.6.9-1.4 1.6-2.4 2.1-1 .4-2 .7-3.2.7-1 0-2-.2-2.8-.5-.8-.3-1.5-.8-2-1.4-.5-.6-1-1.3-1.2-2.1-.3-.8-.4-1.7-.4-2.6 0-.9.1-1.8.4-2.6.3-.8.7-1.5 1.2-2.1s1.2-1 2-1.4 1.7-.5 2.6-.5c1 0 1.8.2 2.5.5s1.4.8 1.9 1.4c.5.6.9 1.3 1.2 2.1.3.8.4 1.8.4 2.8v.7h-8zm2.1-4.5c-1.2 0-1.8.7-2 2.2h4c0-.6-.2-1.1-.5-1.6-.4-.4-.9-.6-1.5-.6zM63.1 143.3c.3.1.6.2.9.2.3.1.6.1.8.1.4 0 .7-.1.9-.3s.4-.5.5-.9l-4.4-12.7h4.4l2.1 8.3 2.1-8.3h4.4l-4.3 12.2c-.2.7-.5 1.3-.7 1.9-.2.6-.6 1.1-.9 1.5-.4.4-.9.7-1.5 1-.6.2-1.4.4-2.3.4h-1.2c-.2 0-.5 0-.7-.1-.2 0-.4-.1-.5-.1l.4-3.2zM80.8 142.5c-1 0-2-.2-2.7-.5-.8-.3-1.4-.8-1.9-1.4-.5-.6-.9-1.3-1.2-2.1-.3-.8-.4-1.7-.4-2.6 0-.9.1-1.8.4-2.6.3-.8.7-1.5 1.2-2.1.5-.6 1.2-1 1.9-1.4s1.7-.5 2.7-.5c1 0 1.9.2 2.7.5.8.3 1.4.8 1.9 1.4.5.6.9 1.3 1.2 2.1.3.8.4 1.7.4 2.6 0 .9-.1 1.8-.4 2.6-.3.8-.7 1.5-1.2 2.1-.5.6-1.2 1-1.9 1.4-.8.3-1.7.5-2.7.5zm0-3.1c.7 0 1.2-.3 1.5-.9s.4-1.4.4-2.5c0-1-.2-1.9-.5-2.5-.3-.6-.8-.9-1.5-.9s-1.2.3-1.5.9c-.3.6-.5 1.5-.5 2.5s.2 1.9.5 2.5c.4.6.9.9 1.6.9zM88.2 129.8h4.1v6.8c0 .8.1 1.4.4 1.8s.7.6 1.3.6c.7 0 1.2-.2 1.5-.7.3-.5.5-1.3.5-2.4V130h4.1v12.3h-3.8v-1.8c-.3.6-.8 1.2-1.3 1.5-.6.4-1.3.6-2.4.6-1.5 0-2.5-.4-3.2-1.3-.7-.8-1-2.1-1-3.7v-7.8zM101.9 129.8h3.7l.3 2.3c.4-.7.9-1.4 1.6-1.9.7-.5 1.6-.8 2.7-.8v4.1c-.3-.1-.7-.1-1.3-.1-.3 0-.6 0-1 .1-.3.1-.6.2-.9.4-.3.2-.5.5-.7 1-.2.4-.3 1-.3 1.8v5.4h-4.1v-12.3zM112 138c.2.2.4.4.7.5.3.2.6.4.9.5.3.1.7.3 1 .4.4.1.7.1 1.1.1.3 0 .6 0 .9-.1s.4-.3.4-.6-.2-.5-.5-.7c-.3-.2-.7-.3-1.2-.5-.5-.1-1-.3-1.6-.4-.6-.2-1.1-.4-1.6-.7s-.9-.7-1.2-1.1c-.3-.5-.5-1.1-.5-1.9 0-.7.1-1.3.4-1.8.3-.5.7-.9 1.2-1.3.5-.3 1-.6 1.7-.7s1.3-.2 2-.2c1.1 0 2.1.1 2.9.4.8.3 1.6.6 2.3 1.1l-1.9 2.7c-.2-.1-.4-.3-.6-.4s-.5-.3-.9-.4-.6-.2-1-.3c-.3-.1-.7-.1-1-.1-.3 0-.5 0-.7.1-.2.1-.3.3-.3.5 0 .3.2.5.5.7.3.2.7.3 1.2.5s1 .3 1.5.5c.6.2 1.1.4 1.5.7.5.3.9.7 1.2 1.1.3.5.5 1.1.5 1.8s-.2 1.3-.5 1.9c-.3.5-.7 1-1.2 1.3-.5.3-1.1.6-1.7.8-.6.2-1.2.3-1.9.3-2.3 0-4.2-.6-5.7-1.7l2.1-3zM134.6 142.1c-.1-.2-.2-.4-.2-.7-.1-.3-.1-.5-.1-.8-.2.5-.6.9-1.1 1.3-.5.4-1.3.6-2.2.6-.7 0-1.2-.1-1.7-.3-.5-.2-.9-.5-1.3-.8-.3-.4-.6-.8-.8-1.3-.2-.5-.3-1-.3-1.6 0-.6.1-1.2.3-1.6s.5-.9.9-1.2c.4-.3.9-.6 1.5-.8.6-.2 1.2-.3 2-.5l2.5-.4v-.3c0-.5-.1-.9-.4-1-.3-.2-.6-.3-1.1-.3-.8 0-1.4.1-1.9.4-.5.3-1 .6-1.4 1l-1.9-2.7c.3-.2.6-.4 1-.6.4-.2.8-.4 1.3-.6.5-.2 1-.3 1.6-.4.6-.1 1.2-.2 2-.2 1.8 0 3.1.4 3.9 1.2.8.8 1.2 2 1.2 3.5v5.7c0 .3 0 .6.1.9 0 .3.1.5.2.7.1.2.2.4.3.7h-4.4zm-.6-5.4l-1.7.3c-.6.1-1 .3-1.2.5-.3.2-.4.5-.4.9s.1.6.3.9c.2.2.5.4.9.4.6 0 1-.2 1.4-.7.4-.4.6-1.1.6-1.9v-.4zM140 129.8h3.7l.3 2.3c.4-.7.9-1.4 1.6-1.9.7-.5 1.6-.8 2.7-.8v4.1c-.3-.1-.7-.1-1.3-.1-.3 0-.6 0-1 .1-.3.1-.6.2-.9.4-.3.2-.5.5-.7 1-.2.4-.3 1-.3 1.8v5.4H140v-12.3zM152.5 136.9c.1 1 .4 1.6.9 2s1 .6 1.6.6c.5 0 1-.1 1.3-.3.4-.2.7-.6 1-1l3 1.7c-.6.9-1.4 1.6-2.4 2.1-1 .4-2 .7-3.2.7-1 0-2-.2-2.8-.5-.8-.3-1.5-.8-2-1.4-.5-.6-1-1.3-1.2-2.1-.3-.8-.4-1.7-.4-2.6 0-.9.1-1.8.4-2.6.3-.8.7-1.5 1.2-2.1s1.2-1 2-1.4 1.7-.5 2.6-.5c1 0 1.8.2 2.5.5s1.4.8 1.9 1.4c.5.6.9 1.3 1.2 2.1.3.8.4 1.8.4 2.8v.7h-8zm2-4.5c-1.2 0-1.8.7-2 2.2h4c0-.6-.2-1.1-.5-1.6-.3-.4-.8-.6-1.5-.6zM168 138c.2.2.4.4.7.5.3.2.6.4.9.5.3.1.7.3 1 .4.4.1.7.1 1.1.1.3 0 .6 0 .9-.1.3-.1.4-.3.4-.6s-.2-.5-.5-.7-.7-.3-1.2-.5c-.5-.1-1-.3-1.6-.4s-1.1-.4-1.6-.7-.9-.7-1.2-1.1-.5-1.1-.5-1.9c0-.7.1-1.3.4-1.8s.7-.9 1.2-1.3c.5-.3 1-.6 1.7-.7s1.3-.2 2-.2c1.1 0 2.1.1 2.9.4.8.3 1.6.6 2.3 1.1l-1.9 2.7c-.2-.1-.4-.3-.6-.4-.3-.1-.5-.3-.9-.4s-.6-.2-1-.3c-.3-.1-.7-.1-1-.1-.3 0-.5 0-.7.1-.2.1-.3.3-.3.5 0 .3.2.5.5.7.3.2.7.3 1.2.5s1 .3 1.5.5c.6.2 1.1.4 1.5.7s.9.7 1.2 1.1c.3.5.5 1.1.5 1.8s-.2 1.3-.5 1.9c-.3.5-.7 1-1.2 1.3s-1.1.6-1.7.8c-.6.2-1.2.3-1.9.3-2.3 0-4.2-.6-5.7-1.7l2.1-3zM185.7 142.1c-.1-.2-.2-.4-.2-.7s-.1-.5-.1-.8c-.2.5-.6.9-1.1 1.3-.5.4-1.3.6-2.2.6-.7 0-1.2-.1-1.7-.3-.5-.2-.9-.5-1.3-.8-.3-.4-.6-.8-.8-1.3-.2-.5-.3-1-.3-1.6 0-.6.1-1.2.3-1.6.2-.5.5-.9.9-1.2.4-.3.9-.6 1.5-.8.6-.2 1.2-.3 2-.5l2.5-.4v-.3c0-.5-.1-.9-.4-1-.3-.2-.6-.3-1.1-.3-.8 0-1.4.1-1.9.4-.5.3-1 .6-1.4 1l-1.9-2.7c.3-.2.6-.4 1-.6.4-.2.8-.4 1.3-.6.5-.2 1-.3 1.6-.4.6-.1 1.2-.2 2-.2 1.8 0 3.1.4 3.9 1.2s1.2 2 1.2 3.5v5.7c0 .3 0 .6.1.9 0 .3.1.5.2.7s.2.4.3.7h-4.4zm-.7-5.4l-1.7.3c-.6.1-1 .3-1.2.5-.3.2-.4.5-.4.9s.1.6.3.9c.2.2.5.4.9.4.6 0 1-.2 1.4-.7.4-.4.6-1.1.6-1.9v-.4zM189.5 129.8h4.5l2 8.5 2-8.5h4.4l-4.1 12.3h-4.8l-4-12.3zM203.1 124.9h4.1v3.2h-4.1v-3.2zm0 4.9h4.1v12.3h-4.1v-12.3zM209 129.8h3.7l.3 1.7c.4-.6.9-1.1 1.6-1.5.7-.4 1.4-.6 2.3-.6 2.7 0 4.1 1.7 4.1 5.2v7.5h-4.1v-6.5c0-1-.1-1.6-.4-2-.3-.4-.7-.6-1.3-.6-.3 0-.6.1-.8.2-.2.1-.5.3-.6.5-.2.3-.3.6-.4 1-.1.4-.1 1-.1 1.6v5.8H209v-12.3zM224.3 142.1c.5.5 1.1.8 1.8 1.1.7.3 1.4.4 2.1.4.8 0 1.3-.2 1.6-.5.3-.3.4-.8.4-1.5v-1.2c-.3.4-.7.8-1.2 1.1-.5.3-1.2.4-2 .4-.6 0-1.2-.1-1.7-.3-.6-.2-1.1-.5-1.5-1s-.8-1.1-1.1-1.9c-.3-.8-.4-1.7-.4-2.8 0-1 .1-1.9.4-2.7s.6-1.5 1-2 1-1 1.6-1.2c.6-.3 1.3-.4 2-.4.8 0 1.4.2 2 .5.6.3 1 .8 1.4 1.5l.5-1.7h3.2v11.7c0 .8-.1 1.5-.3 2.1s-.6 1.2-1.1 1.7c-.5.5-1.1.8-1.9 1.1s-1.7.4-2.8.4c-.7 0-1.4-.1-2-.2-.6-.1-1.2-.2-1.7-.4s-1-.4-1.4-.6c-.4-.2-.8-.4-1.1-.6l2.2-3zm5.9-6.2c0-.4 0-.8-.1-1.1s-.2-.7-.3-1c-.1-.3-.3-.5-.6-.7-.2-.2-.5-.3-.9-.3-.3 0-.5.1-.7.2-.2.1-.4.3-.6.5-.2.2-.3.6-.4.9-.1.4-.2.9-.2 1.4 0 1 .2 1.8.5 2.3.3.5.8.7 1.4.7s1.1-.2 1.4-.7c.3-.5.4-1.2.4-2.1v-.1zM241.1 129.8h4.1v6.8c0 .8.1 1.4.4 1.8s.7.6 1.3.6c.7 0 1.2-.2 1.5-.7.3-.5.5-1.3.5-2.4V130h4.1v12.3h-4v-1.8c-.3.6-.8 1.2-1.3 1.5-.6.4-1.3.6-2.4.6-1.5 0-2.5-.4-3.2-1.3-.7-.8-1-2.1-1-3.7v-7.8zM254.8 129.8h4.1v1.6c.3-.6.7-1 1.2-1.4.5-.4 1.2-.6 2.1-.6 1.4 0 2.5.5 3.3 1.6.9 1.1 1.3 2.7 1.3 4.8 0 1.3-.2 2.4-.5 3.2-.3.8-.7 1.5-1.2 2s-1 .9-1.6 1.1c-.6.2-1.1.3-1.7.3-.6 0-1.2-.1-1.8-.3-.6-.2-1-.6-1.3-1v5.3h-4.1v-16.6zm4 6.3c0 .4 0 .8.1 1.2.1.4.2.7.4 1 .2.3.4.5.6.7.2.2.5.2.8.2.6 0 1-.3 1.3-.8s.5-1.3.5-2.4c0-1.1-.2-1.9-.5-2.4s-.8-.8-1.4-.8c-.3 0-.6.1-.8.3-.2.2-.4.4-.6.7-.1.3-.2.6-.3 1s-.1.7-.1 1.1v.2z"/></g><g><path class="copy_purpleFill" d="M20.7 157.8h-2v-2.6h.3c.6 0 1.1-.1 1.5-.3.4-.2.6-.5.8-.8.2-.3.4-.7.4-1.2s.2-.9.3-1.3h2.6v3.6h2.5v2.6h-2.5v5.7c0 .4.1.7.2.9.1.2.5.4.9.4h.5c.2 0 .4-.1.7-.2l.3 2.9c-.5.2-.9.3-1.4.4-.5.1-.9.1-1.4.1-.8 0-1.4-.1-1.9-.3-.5-.2-.9-.5-1.2-.8s-.5-.7-.6-1.2c-.1-.5-.2-1-.2-1.6v-6.3zM33.8 167.9c-1 0-2-.2-2.7-.5-.8-.3-1.4-.8-1.9-1.4-.5-.6-.9-1.3-1.2-2.1-.3-.8-.4-1.7-.4-2.6 0-.9.1-1.8.4-2.6.3-.8.7-1.5 1.2-2.1.5-.6 1.2-1 1.9-1.4.8-.3 1.7-.5 2.7-.5 1 0 1.9.2 2.7.5.8.3 1.4.8 1.9 1.4.5.6.9 1.3 1.2 2.1.3.8.4 1.7.4 2.6 0 .9-.1 1.8-.4 2.6-.3.8-.7 1.5-1.2 2.1-.5.6-1.2 1-1.9 1.4-.7.3-1.6.5-2.7.5zm.1-3.1c.7 0 1.2-.3 1.5-.9.3-.6.4-1.4.4-2.5s-.2-1.9-.5-2.5-.8-.9-1.5-.9-1.2.3-1.5.9c-.3.6-.5 1.5-.5 2.5s.2 1.9.5 2.5c.4.6.9.9 1.6.9zM49 158.8c-.4-.1-.7-.3-1-.5-.3-.2-.6-.4-.9-.7-.3-.3-.5-.6-.6-1-.2-.4-.2-.7-.2-1.2 0-.8.2-1.5.5-2 .3-.6.8-1 1.3-1.4.5-.4 1.2-.6 1.9-.8.7-.2 1.4-.3 2.1-.3.7 0 1.4.1 2.1.3.7.2 1.3.5 1.9.8.6.4 1 .9 1.4 1.4s.5 1.2.5 2-.3 1.6-.8 2.1c-.6.6-1.2 1-2 1.2 1 .2 1.8.6 2.4 1.2.6.6.9 1.5.9 2.6 0 1-.2 1.8-.6 2.4-.4.7-.9 1.2-1.5 1.6-.6.4-1.3.7-2 .9-.8.2-1.5.3-2.3.3-.8 0-1.5-.1-2.3-.3-.8-.2-1.5-.5-2.1-.9-.6-.4-1.1-1-1.5-1.6-.4-.7-.6-1.5-.6-2.4 0-1 .3-1.9.9-2.6s1.5-.9 2.5-1.1zm3.1 5.8c.6 0 1.1-.2 1.5-.6s.6-1 .6-1.7-.2-1.2-.6-1.6-.9-.6-1.5-.6c-.7 0-1.3.2-1.6.6s-.5 1-.5 1.6c0 .6.2 1.2.6 1.6.3.5.8.7 1.5.7zm-1.8-8.9c0 .6.2 1 .5 1.4.3.4.8.6 1.3.6s.9-.2 1.3-.6c.3-.4.5-.9.5-1.4 0-.6-.2-1-.5-1.4-.3-.4-.8-.6-1.3-.6-.6 0-1 .2-1.3.6-.3.4-.5.9-.5 1.4zM67.6 155.6c-.2-.5-.5-.9-.8-1.2s-.8-.4-1.2-.4c-.3 0-.6.1-.8.2-.3.1-.6.3-.8.6-.2.3-.4.7-.6 1.2-.2.5-.2 1.2-.2 2V158.3c.3-.4.7-.8 1.3-1.1.6-.3 1.4-.5 2.3-.5.8 0 1.5.1 2.1.4s1.2.6 1.6 1.1c.4.5.8 1 1 1.7.2.7.4 1.4.4 2.2 0 .8-.1 1.5-.4 2.2-.3.7-.6 1.3-1.1 1.9s-1.1 1-1.9 1.3-1.6.5-2.7.5c-.9 0-1.7-.2-2.6-.5-.8-.3-1.5-.8-2.2-1.5-.6-.7-1.1-1.5-1.5-2.4-.4-1-.6-2.1-.6-3.5 0-1.7.2-3.1.6-4.3.4-1.2.9-2.1 1.6-2.8.6-.7 1.4-1.2 2.1-1.5.8-.3 1.5-.5 2.3-.5.7 0 1.4.1 2 .3.6.2 1.1.4 1.6.7s.9.6 1.2 1c.3.4.6.8.8 1.2l-3.5 1.4zm-2.2 9.3c.6 0 1.1-.3 1.4-.8s.5-1.1.5-1.8c0-.8-.2-1.4-.5-1.9s-.8-.8-1.4-.8c-.6 0-1.1.3-1.4.8-.3.5-.5 1.2-.5 1.9 0 .8.2 1.5.5 1.9.5.5.9.7 1.4.7zM77.1 160.4c-.8 0-1.4-.1-2-.4s-1.1-.7-1.5-1.1-.7-1.1-.9-1.7c-.2-.7-.3-1.4-.3-2.1 0-.7.1-1.4.3-2 .2-.6.5-1.2.9-1.6s.9-.8 1.5-1.1c.6-.3 1.2-.4 2-.4s1.6.1 2.2.4c.6.3 1.1.6 1.5 1.1.4.5.7 1 .8 1.6.2.6.3 1.3.3 2s-.1 1.4-.3 2.1c-.2.7-.5 1.2-.9 1.7s-.9.9-1.5 1.2c-.6.2-1.3.3-2.1.3zm0-2.6c.2 0 .4-.1.6-.3.1-.2.3-.4.3-.7.1-.3.1-.6.2-.9s0-.6 0-.9v-.9c0-.3-.1-.6-.2-.9-.1-.3-.2-.5-.3-.6-.1-.2-.3-.2-.6-.2s-.4.1-.6.2c-.1.2-.3.4-.3.6-.1.3-.1.5-.2.8v1.9c0 .3.1.6.2.9.1.3.2.5.3.7.1.3.3.3.6.3zm9.2-8.1l2.2 1-8.4 17.1-2.2-.9 8.4-17.2zm2.9 18c-.8 0-1.4-.1-2-.4-.6-.3-1.1-.7-1.5-1.1-.4-.5-.7-1.1-.9-1.7-.2-.7-.3-1.4-.3-2.1 0-.7.1-1.4.3-2s.5-1.2.9-1.6c.4-.5.9-.8 1.5-1.1.6-.3 1.2-.4 2-.4s1.6.1 2.2.4c.6.3 1.1.6 1.5 1.1.4.5.7 1 .8 1.6.2.6.3 1.3.3 2s-.1 1.4-.3 2.1c-.2.7-.5 1.2-.9 1.7s-.9.9-1.5 1.2c-.5.2-1.2.3-2.1.3zm0-2.5c.2 0 .4-.1.6-.3.1-.2.3-.4.3-.7.1-.3.1-.6.2-.9v-.9-.9c0-.3-.1-.6-.2-.9-.1-.3-.2-.5-.3-.6s-.3-.2-.6-.2-.4.1-.6.2c-.1.2-.3.4-.3.6-.1.3-.1.5-.2.8v1.9c0 .3.1.6.2.9.1.3.2.5.3.7.2.2.4.3.6.3zM100.2 155.2h3.7l.3 1.7c.4-.7.8-1.2 1.4-1.5.6-.4 1.3-.5 2.2-.5 1 0 1.8.2 2.3.7.5.4.9 1 1.2 1.5.1-.3.3-.5.5-.8.2-.3.4-.5.7-.7.3-.2.7-.4 1.1-.5.4-.1.9-.2 1.5-.2.9 0 1.6.1 2.1.4.5.3.9.7 1.2 1.1.3.5.5 1 .6 1.6.1.6.1 1.2.1 1.9v7.6H115v-6.4c0-.9-.1-1.6-.4-2-.2-.4-.7-.7-1.3-.7-.2 0-.4 0-.6.1s-.4.2-.6.4c-.2.2-.3.5-.4.9-.1.4-.2.9-.2 1.5v6.2h-4.1V161c0-.9-.1-1.5-.4-1.9-.2-.4-.7-.6-1.2-.6-.2 0-.4 0-.6.1-.2.1-.4.2-.6.4s-.3.6-.4 1c-.1.4-.2 1-.2 1.7v5.9h-4.1v-12.4zM126.6 167.9c-1 0-2-.2-2.7-.5-.8-.3-1.4-.8-1.9-1.4-.5-.6-.9-1.3-1.2-2.1-.3-.8-.4-1.7-.4-2.6 0-.9.1-1.8.4-2.6.3-.8.7-1.5 1.2-2.1.5-.6 1.2-1 1.9-1.4.8-.3 1.7-.5 2.7-.5 1 0 1.9.2 2.7.5.8.3 1.4.8 1.9 1.4.5.6.9 1.3 1.2 2.1.3.8.4 1.7.4 2.6 0 .9-.1 1.8-.4 2.6-.3.8-.7 1.5-1.2 2.1-.5.6-1.2 1-1.9 1.4-.8.3-1.7.5-2.7.5zm0-3.1c.7 0 1.2-.3 1.5-.9.3-.6.4-1.4.4-2.5s-.2-1.9-.5-2.5-.8-.9-1.5-.9-1.2.3-1.5.9c-.3.6-.5 1.5-.5 2.5s.2 1.9.5 2.5c.4.6.9.9 1.6.9zM134.1 155.2h3.7l.3 2.3c.4-.7.9-1.4 1.6-1.9s1.6-.8 2.7-.8v4.1c-.3-.1-.7-.1-1.3-.1-.3 0-.6 0-1 .1-.3.1-.6.2-.9.4-.3.2-.5.5-.7 1-.2.4-.3 1-.3 1.8v5.4h-4.1v-12.3zM146.6 162.3c.1 1 .4 1.6.9 2s1 .6 1.6.6c.5 0 1-.1 1.3-.3s.7-.6 1-1l3 1.7c-.6.9-1.4 1.6-2.4 2.1-1 .4-2 .7-3.2.7-1 0-2-.2-2.8-.5-.8-.3-1.5-.8-2-1.4-.5-.6-1-1.3-1.2-2.1-.3-.8-.4-1.7-.4-2.6 0-.9.1-1.8.4-2.6.3-.8.7-1.5 1.2-2.1.5-.6 1.2-1 2-1.4.8-.3 1.7-.5 2.6-.5 1 0 1.8.2 2.5.5s1.4.8 1.9 1.4c.5.6.9 1.3 1.2 2.1.3.8.4 1.8.4 2.8v.7h-8zm2-4.5c-1.2 0-1.8.7-2 2.2h4c0-.6-.2-1.1-.5-1.6-.3-.4-.8-.6-1.5-.6zM155.8 163h4.5v4.5h-4.5V163z"/></g><g><path class="copy_grayFill" d="M19.6 180.8h3.7c1.9 0 3.3.4 4.3 1.3s1.4 2.3 1.4 4.2c0 1.8-.5 3.2-1.5 4.1-1 .9-2.4 1.4-4.1 1.4h-3.9v-11zm3.8 9.2c.6 0 1.2-.1 1.6-.3.4-.2.7-.5 1-.8.2-.3.4-.7.5-1.2s.1-.9.1-1.4 0-1-.1-1.4c-.1-.4-.3-.8-.5-1.2s-.6-.6-1-.8c-.4-.2-1-.3-1.6-.3h-1.5v7.5h1.5zM33.5 191.9c-.6 0-1.2-.1-1.7-.3-.5-.2-.9-.5-1.2-.9-.3-.4-.6-.8-.7-1.3-.2-.5-.2-1-.2-1.6 0-.6.1-1.1.2-1.6.2-.5.4-.9.7-1.3.3-.4.7-.7 1.2-.9.5-.2 1-.3 1.6-.3s1.2.1 1.6.3c.5.2.9.5 1.2.9s.6.8.7 1.3c.2.5.2 1 .2 1.6 0 .6-.1 1.1-.2 1.6-.2.5-.4.9-.7 1.3-.3.4-.7.7-1.2.9-.3.2-.9.3-1.5.3zm.1-1.6c.5 0 .9-.2 1.2-.7.3-.5.4-1.1.4-1.8s-.1-1.3-.4-1.8c-.3-.5-.7-.7-1.2-.7s-1 .2-1.2.7-.4 1.1-.4 1.8.1 1.3.4 1.8c.2.5.6.7 1.2.7zM37.5 183.9h2.3l1.3 5.8 1.2-5.8h2.3l1.2 5.8 1.3-5.8h2.3l-2.4 7.8h-2.3l-1.2-4.8-1.2 4.8H40l-2.5-7.8zM50 183.9h1.9l.2 1.3c.2-.4.5-.8 1-1 .4-.3.9-.4 1.5-.4.8 0 1.5.3 1.9.8.4.5.6 1.3.6 2.3v4.9H55v-4.3c0-.7-.1-1.1-.3-1.4-.2-.3-.5-.4-1-.4-.4 0-.8.2-1.1.5-.3.4-.4 1-.4 1.8v3.8H50v-7.9zM58.4 180.8h2.1v10.9h-2.1v-10.9zM65.4 191.9c-.6 0-1.2-.1-1.7-.3-.5-.2-.9-.5-1.2-.9-.3-.4-.6-.8-.7-1.3-.2-.5-.2-1-.2-1.6 0-.6.1-1.1.2-1.6.2-.5.4-.9.7-1.3.3-.4.7-.7 1.2-.9.5-.2 1-.3 1.6-.3s1.2.1 1.6.3c.5.2.9.5 1.2.9s.6.8.7 1.3c.2.5.2 1 .2 1.6 0 .6-.1 1.1-.2 1.6-.2.5-.4.9-.7 1.3-.3.4-.7.7-1.2.9-.4.2-.9.3-1.5.3zm0-1.6c.5 0 .9-.2 1.2-.7.3-.5.4-1.1.4-1.8s-.1-1.3-.4-1.8c-.3-.5-.7-.7-1.2-.7s-1 .2-1.2.7-.4 1.1-.4 1.8.1 1.3.4 1.8c.2.5.6.7 1.2.7zM74.8 191.7c-.1-.1-.1-.3-.1-.5s-.1-.4-.1-.6c-.2.4-.4.7-.8 1-.4.3-.9.4-1.5.4-.8 0-1.4-.2-1.9-.7-.4-.5-.7-1.1-.7-1.8 0-.4.1-.7.2-1 .1-.3.3-.5.6-.7.3-.2.6-.4.9-.5l1.2-.3 1.7-.3v-.3c0-.5-.1-.8-.3-.9-.2-.1-.5-.2-.9-.2-.5 0-1 .1-1.3.3s-.7.4-.9.7l-1-1.4c.3-.3.8-.6 1.4-.8.6-.2 1.3-.4 2.2-.4 1.1 0 1.9.2 2.3.7.5.5.7 1.2.7 2.2v4.2c0 .1.1.3.1.5 0 .1.1.3.2.4h-2zm-.3-3.7l-1.3.2c-.5.1-.8.2-1 .4-.2.2-.3.4-.3.7 0 .3.1.5.3.8.2.2.4.3.8.3s.8-.2 1.1-.5.5-.8.5-1.4v-.5zM82.9 190.4c-.2.5-.5.8-.9 1.1s-.8.4-1.4.4c-.5 0-.9-.1-1.3-.3-.4-.2-.7-.5-1-.8-.3-.4-.5-.8-.6-1.3-.1-.5-.2-1.1-.2-1.7 0-.7.1-1.3.3-1.8.2-.5.4-.9.7-1.3s.6-.6 1-.7c.4-.2.8-.2 1.2-.2.5 0 1 .1 1.4.3s.6.5.8.8v-4.1H85v10.9h-2v-1.3zm-.1-2.9c0-.3 0-.5-.1-.8-.1-.3-.1-.5-.3-.7-.1-.2-.3-.4-.5-.5-.2-.1-.4-.2-.7-.2-.5 0-.9.2-1.1.6-.2.4-.4 1-.4 1.7 0 .8.1 1.4.4 1.8.3.4.7.7 1.1.7.3 0 .5-.1.7-.2.2-.1.3-.3.5-.5.1-.2.2-.5.3-.7.1-.3.1-.6.1-.9v-.3zM90.1 185.3h-1.3v-1.4h.2c.4 0 .6-.1.8-.2s.4-.3.5-.5c.1-.2.2-.4.3-.7s.1-.6.2-.9h1.3v2.2h1.6v1.4h-1.6v4.1c0 .3.1.5.2.7s.3.2.7.2h.3c.1 0 .3-.1.4-.1l.2 1.5c-.3.1-.5.2-.8.2s-.5.1-.8.1c-.4 0-.8-.1-1.1-.2-.3-.1-.5-.3-.7-.5-.2-.2-.3-.5-.4-.7-.1-.3-.1-.6-.1-.9v-4.3zM94.7 180.8h2.1v4.4c.2-.4.5-.7.9-1 .4-.3.9-.4 1.5-.4.9 0 1.5.3 1.9.8.4.6.6 1.3.6 2.4v4.8h-2.1v-4.5c0-.5-.1-1-.3-1.3-.2-.3-.5-.4-1-.4s-.8.2-1.1.6c-.3.4-.4.9-.4 1.7v3.9h-2.1v-11zM104.9 188.3c.1.7.3 1.2.6 1.6.3.3.8.5 1.3.5.7 0 1.3-.3 1.7-1l1.6.9c-.4.6-.8 1-1.4 1.3s-1.2.4-2 .4c-.6 0-1.2-.1-1.7-.3-.5-.2-.9-.5-1.2-.9-.3-.4-.6-.8-.8-1.3-.2-.5-.3-1-.3-1.6 0-.6.1-1.1.3-1.6.2-.5.4-.9.7-1.3.3-.4.7-.7 1.2-.9.5-.2 1-.3 1.6-.3.6 0 1.1.1 1.6.3.4.2.8.5 1.1.9s.5.8.7 1.3.2 1.1.2 1.7v.4h-5.2zm1.6-3.1c-.5 0-.9.2-1.1.5s-.4.8-.5 1.4h3.1c0-.2 0-.5-.1-.7l-.3-.6c-.1-.2-.3-.3-.5-.4s-.4-.2-.6-.2zM121.3 190c-.4.7-.8 1.1-1.4 1.4s-1.2.5-2 .5c-.7 0-1.2-.1-1.7-.3-.5-.2-.9-.5-1.2-.9-.3-.4-.5-.8-.7-1.3-.1-.5-.2-1-.2-1.6 0-.6.1-1.2.3-1.7.2-.5.4-.9.7-1.3s.7-.7 1.2-.9 1-.3 1.6-.3c.8 0 1.5.2 2 .5s1 .8 1.4 1.4l-1.7.9c-.2-.4-.4-.7-.6-.9-.3-.2-.6-.3-.9-.3-.3 0-.6.1-.8.2s-.4.3-.5.5c-.1.2-.2.5-.3.8-.1.3-.1.6-.1 1 0 .3 0 .6.1.9.1.3.2.6.3.8.1.2.3.5.6.6.2.2.5.2.9.2s.8-.1 1-.3c.3-.2.5-.5.6-.9l1.4 1zM126.7 191.7c-.1-.1-.1-.3-.1-.5s-.1-.4-.1-.6c-.2.4-.4.7-.8 1-.4.3-.9.4-1.5.4-.8 0-1.4-.2-1.9-.7-.4-.5-.7-1.1-.7-1.8 0-.4.1-.7.2-1 .1-.3.3-.5.6-.7.3-.2.6-.4.9-.5l1.2-.3 1.7-.3v-.3c0-.5-.1-.8-.3-.9-.2-.1-.5-.2-.9-.2-.5 0-1 .1-1.3.3s-.7.4-.9.7l-1-1.4c.3-.3.8-.6 1.4-.8.6-.2 1.3-.4 2.2-.4 1.1 0 1.9.2 2.3.7.5.5.7 1.2.7 2.2v4.2c0 .1.1.3.1.5 0 .1.1.3.2.4h-2zm-.4-3.7l-1.3.2c-.5.1-.8.2-1 .4-.2.2-.3.4-.3.7 0 .3.1.5.3.8.2.2.4.3.8.3s.8-.2 1.1-.5.5-.8.5-1.4v-.5zM130.4 189.4l.4.4.6.3c.2.1.4.2.6.2.2.1.5.1.7.1.3 0 .5-.1.8-.2.2-.1.4-.3.4-.6 0-.2-.1-.4-.3-.6-.2-.1-.5-.3-.8-.4-.3-.1-.6-.2-1-.3-.4-.1-.7-.2-1-.4s-.6-.4-.8-.7c-.2-.3-.3-.7-.3-1.2 0-.4.1-.8.3-1.1.2-.3.4-.6.7-.8s.6-.3 1-.4.8-.1 1.2-.1c.6 0 1.2.1 1.7.2.5.2 1 .4 1.3.7l-1 1.4c-.1-.1-.2-.2-.4-.3-.2-.1-.3-.2-.5-.3s-.4-.1-.6-.2c-.2 0-.4-.1-.6-.1-.2 0-.4.1-.6.2-.2.1-.3.3-.3.5s.1.4.3.5.5.2.8.4c.3.1.6.2 1 .3.4.1.7.3 1 .4s.6.4.8.7c.2.3.3.7.3 1.1 0 .4-.1.8-.3 1.1-.2.3-.4.6-.7.8s-.6.4-1 .5c-.4.1-.8.2-1.1.2-1.4 0-2.6-.4-3.4-1.2l.8-1.1zM138.7 188.3c.1.7.3 1.2.6 1.6.3.3.8.5 1.3.5.7 0 1.3-.3 1.7-1l1.6.9c-.4.6-.8 1-1.4 1.3s-1.2.4-2 .4c-.6 0-1.2-.1-1.7-.3-.5-.2-.9-.5-1.2-.9-.3-.4-.6-.8-.8-1.3-.2-.5-.3-1-.3-1.6 0-.6.1-1.1.3-1.6.2-.5.4-.9.7-1.3.3-.4.7-.7 1.2-.9.5-.2 1-.3 1.6-.3.6 0 1.1.1 1.6.3.4.2.8.5 1.1.9s.5.8.7 1.3.2 1.1.2 1.7v.4h-5.2zm1.6-3.1c-.5 0-.9.2-1.1.5s-.4.8-.5 1.4h3.1c0-.2 0-.5-.1-.7l-.3-.6c-.1-.2-.3-.3-.5-.4s-.3-.2-.6-.2zM148.7 189.4l.4.4.6.3c.2.1.4.2.6.2.2.1.5.1.7.1.3 0 .5-.1.8-.2.2-.1.4-.3.4-.6 0-.2-.1-.4-.3-.6-.2-.1-.5-.3-.8-.4-.3-.1-.6-.2-1-.3-.4-.1-.7-.2-1-.4s-.6-.4-.8-.7c-.2-.3-.3-.7-.3-1.2 0-.4.1-.8.3-1.1.2-.3.4-.6.7-.8s.6-.3 1-.4.8-.1 1.2-.1c.6 0 1.2.1 1.7.2.5.2 1 .4 1.3.7l-1 1.4c-.1-.1-.2-.2-.4-.3-.2-.1-.3-.2-.5-.3s-.4-.1-.6-.2c-.2 0-.4-.1-.6-.1-.2 0-.4.1-.6.2-.2.1-.3.3-.3.5s.1.4.3.5.5.2.8.4c.3.1.6.2 1 .3.4.1.7.3 1 .4s.6.4.8.7c.2.3.3.7.3 1.1 0 .4-.1.8-.3 1.1-.2.3-.4.6-.7.8s-.6.4-1 .5c-.4.1-.8.2-1.1.2-1.4 0-2.6-.4-3.4-1.2l.8-1.1zM155.8 185.3h-1.3v-1.4h.2c.4 0 .6-.1.8-.2s.4-.3.5-.5c.1-.2.2-.4.3-.7s.1-.6.2-.9h1.3v2.2h1.6v1.4h-1.6v4.1c0 .3.1.5.2.7s.3.2.7.2h.3c.1 0 .3-.1.4-.1l.2 1.5c-.3.1-.5.2-.8.2s-.5.1-.8.1c-.4 0-.8-.1-1.1-.2-.3-.1-.5-.3-.7-.5-.2-.2-.3-.5-.4-.7-.1-.3-.1-.6-.1-.9v-4.3zM160.3 183.9h2.1v4.4c0 1.2.4 1.7 1.2 1.7.5 0 .9-.2 1.2-.6s.4-1 .4-1.7v-3.9h2.1v7.8h-2v-1.3c-.2.4-.5.8-.8 1.1-.4.3-.9.4-1.5.4-.9 0-1.6-.3-2-.8-.4-.5-.6-1.3-.6-2.3v-4.8zM173.7 190.4c-.2.5-.5.8-.9 1.1s-.8.4-1.4.4c-.5 0-.9-.1-1.3-.3-.4-.2-.7-.5-1-.8-.3-.4-.5-.8-.6-1.3-.1-.5-.2-1.1-.2-1.7 0-.7.1-1.3.3-1.8.2-.5.4-.9.7-1.3s.6-.6 1-.7c.4-.2.8-.2 1.2-.2.5 0 1 .1 1.4.3.4.2.6.5.8.8v-4.1h2.1v10.9h-2v-1.3zm-.1-2.9c0-.3 0-.5-.1-.8s-.1-.5-.3-.7c-.1-.2-.3-.4-.5-.5-.2-.1-.4-.2-.7-.2-.5 0-.9.2-1.1.6-.2.4-.4 1-.4 1.7 0 .8.1 1.4.4 1.8.3.4.7.7 1.1.7.3 0 .5-.1.7-.2.2-.1.3-.3.5-.5.1-.2.2-.5.3-.7.1-.3.1-.6.1-.9v-.3zM177.1 192.8c.2.1.3.1.5.1s.3.1.5.1c.3 0 .5-.1.6-.2.1-.2.3-.4.4-.8l-2.7-8h2.3l1.5 5.7 1.5-5.7h2.3l-2.6 7.5c-.2.5-.3.9-.5 1.3s-.3.7-.6 1c-.2.3-.5.5-.9.6-.3.1-.8.2-1.3.2H177c-.1 0-.2 0-.3-.1l.4-1.7zM184 189.3h2.3v2.4H184v-2.4z"/></g></svg>