<svg version="1.1" id="Layer_1" xmlns="https://www.w3.org/2000/svg" x="0" y="0" viewBox="0 0 300 250" xml:space="preserve"><style>.copy-purpleFill{fill:#662868}</style><path class="copy-purpleFill" d="M23.2 98.2c.1.2.3.4.6.6l.9.6c.4.2.8.3 1.2.5.5.1.9.2 1.4.2.7 0 1.3-.1 1.7-.4.4-.2.6-.6.6-1 0-.3-.1-.6-.3-.8-.2-.2-.4-.4-.8-.5-.4-.1-.8-.3-1.3-.4-.5-.1-1.1-.3-1.8-.4-1.6-.4-2.8-1-3.5-1.8-.6-.8-.9-1.8-.9-3 0-.7.1-1.4.4-2 .3-.6.7-1.2 1.2-1.7s1.2-.9 2-1.2c.8-.3 1.7-.4 2.8-.4 1.2 0 2.4.2 3.6.6 1.1.4 2.1 1.1 2.9 2l-2.8 2.6c-.4-.5-1-.9-1.6-1.2s-1.4-.5-2.3-.5c-.4 0-.7 0-1 .1-.3.1-.5.2-.6.3-.1.1-.2.2-.3.4-.1.2-.1.3-.1.4 0 .4.2.7.6 1 .4.3 1.1.6 2.1.9 1.2.3 2.1.6 2.9 1 .8.3 1.4.7 1.8 1.1.4.4.8.9.9 1.4.2.5.3 1.1.3 1.7 0 .9-.2 1.6-.5 2.3-.4.7-.8 1.2-1.4 1.6-.6.4-1.3.8-2.1 1-.8.2-1.7.3-2.5.3-.9 0-1.6-.1-2.4-.2-.7-.1-1.4-.3-1.9-.6-.6-.2-1.1-.5-1.5-.8-.4-.3-.8-.6-1-.9l2.7-2.8zM35.2 91.4h3.9v6.4c0 .7.1 1.3.3 1.7.2.4.6.6 1.2.6s1.1-.2 1.4-.7c.3-.5.5-1.2.5-2.3v-5.7h3.9v11.7h-3.6v-1.7c-.3.6-.7 1.1-1.3 1.5s-1.3.5-2.2.5c-1.4 0-2.4-.4-3.1-1.2s-1-2-1-3.5v-7.3zM48.2 91.4h3.5l.3 2.2c.4-.7.8-1.3 1.5-1.8.6-.5 1.5-.7 2.6-.7V95c-.3-.1-.7-.1-1.2-.1-.3 0-.6 0-.9.1s-.6.2-.9.4c-.3.2-.5.5-.7.9-.2.4-.3 1-.3 1.7v5.2h-3.9V91.4zM60.1 98.2c.1.9.4 1.5.9 1.9.4.4.9.5 1.5.5.5 0 .9-.1 1.3-.3s.7-.5.9-1l2.8 1.6c-.6.9-1.3 1.5-2.3 2-.9.4-1.9.6-3 .6-1 0-1.9-.2-2.6-.5-.8-.3-1.4-.7-1.9-1.3-.5-.6-.9-1.2-1.2-2s-.4-1.6-.4-2.4c0-.9.1-1.7.4-2.5.3-.8.7-1.4 1.2-2 .5-.6 1.1-1 1.9-1.3s1.6-.5 2.5-.5c.9 0 1.7.2 2.4.5s1.3.7 1.8 1.3c.5.6.9 1.2 1.1 2s.4 1.7.4 2.7v.7h-7.7zm1.9-4.3c-1.1 0-1.7.7-1.9 2.1h3.8c0-.6-.1-1.1-.4-1.5-.4-.4-.8-.6-1.5-.6zM68.9 106.2c.4-.2.7-.4 1-.6.3-.2.5-.4.6-.6.1-.2.2-.4.3-.7s.1-.5.1-.8v-.4h-2v-4.3h4.3v4.2c0 .7-.1 1.3-.2 1.8s-.3 1-.6 1.3c-.3.4-.6.7-1.1 1s-.9.5-1.5.7l-.9-1.6zM79.9 104.3c.3.1.6.2.9.2.3.1.6.1.8.1.4 0 .6-.1.8-.2.2-.2.3-.4.4-.8l-4.2-12.1h4.2l2 7.9 2-7.9H91L86.9 103c-.2.6-.5 1.2-.7 1.8-.2.5-.5 1-.9 1.4s-.8.7-1.4.9-1.3.3-2.2.3h-1.1c-.2 0-.4 0-.6-.1-.2 0-.4-.1-.5-.1l.4-2.9zM96.7 103.5c-1 0-1.9-.2-2.6-.5-.7-.3-1.4-.7-1.9-1.3-.5-.6-.9-1.2-1.1-2-.2-.8-.4-1.6-.4-2.5s.1-1.7.4-2.5c.3-.8.6-1.4 1.1-2 .5-.6 1.1-1 1.8-1.3.7-.3 1.6-.5 2.6-.5s1.8.2 2.6.5 1.4.7 1.9 1.3c.5.6.9 1.2 1.1 2 .3.8.4 1.6.4 2.5s-.1 1.7-.4 2.5c-.3.8-.6 1.4-1.1 2-.5.6-1.1 1-1.9 1.3-.7.3-1.6.5-2.5.5zm.1-3c.6 0 1.1-.3 1.4-.9.3-.6.4-1.4.4-2.4s-.2-1.8-.5-2.4c-.3-.6-.8-.9-1.4-.9s-1.1.3-1.4.9c-.3.6-.5 1.4-.5 2.4s.2 1.8.5 2.4c.3.6.8.9 1.5.9zM103.8 91.4h3.9v6.4c0 .7.1 1.3.3 1.7.2.4.6.6 1.2.6s1.1-.2 1.4-.7c.3-.5.5-1.2.5-2.3v-5.7h3.9v11.7h-3.6v-1.7c-.3.6-.7 1.1-1.3 1.5s-1.3.5-2.2.5c-1.4 0-2.4-.4-3.1-1.2s-1-2-1-3.5v-7.3zM116.8 94c.4-.2.7-.4 1-.6.3-.2.5-.4.6-.6.1-.2.2-.4.3-.7 0-.2.1-.5.1-.8V91h-2v-4.1h4.3v4c0 .7-.1 1.3-.2 1.8s-.3 1-.6 1.3c-.3.4-.6.7-1.1 1-.4.3-.9.5-1.5.7l-.9-1.7zM122.4 91.4h3.5l.3 2.2c.4-.7.8-1.3 1.5-1.8.6-.5 1.5-.7 2.6-.7V95c-.3-.1-.7-.1-1.2-.1-.3 0-.6 0-.9.1s-.6.2-.9.4c-.3.2-.5.5-.7.9-.2.4-.3 1-.3 1.7v5.2h-3.9V91.4zM134.3 98.2c.1.9.4 1.5.9 1.9.4.4.9.5 1.5.5.5 0 .9-.1 1.3-.3s.7-.5.9-1l2.8 1.6c-.6.9-1.3 1.5-2.3 2-.9.4-1.9.6-3 .6-1 0-1.9-.2-2.6-.5-.8-.3-1.4-.7-1.9-1.3-.5-.6-.9-1.2-1.2-2s-.4-1.6-.4-2.4c0-.9.1-1.7.4-2.5.3-.8.7-1.4 1.2-2 .5-.6 1.1-1 1.9-1.3s1.6-.5 2.5-.5c.9 0 1.7.2 2.4.5s1.3.7 1.8 1.3c.5.6.9 1.2 1.1 2s.4 1.7.4 2.7v.7h-7.7zm1.9-4.3c-1.1 0-1.7.7-1.9 2.1h3.8c0-.6-.1-1.1-.4-1.5-.4-.4-.9-.6-1.5-.6zM149 99.2c.2.2.4.3.7.5s.5.3.9.5c.3.1.6.2 1 .3.3.1.7.1 1 .1.3 0 .6 0 .8-.1s.4-.3.4-.6-.2-.5-.5-.7c-.3-.2-.7-.3-1.1-.4-.5-.1-.9-.3-1.5-.4l-1.5-.6c-.5-.3-.8-.6-1.1-1.1s-.5-1-.5-1.8c0-.7.1-1.2.4-1.7s.6-.9 1.1-1.2c.5-.3 1-.5 1.6-.7.6-.2 1.2-.2 1.9-.2 1.1 0 2 .1 2.8.4.8.2 1.5.6 2.2 1l-1.8 2.6c-.2-.1-.4-.3-.6-.4-.2-.1-.5-.3-.8-.4l-.9-.3c-.3-.1-.6-.1-1-.1-.3 0-.5 0-.6.1-.2.1-.3.2-.3.5s.2.5.5.6c.3.2.7.3 1.1.4.5.1.9.3 1.5.5.5.2 1 .4 1.5.7.5.3.8.6 1.1 1.1.3.4.5 1 .5 1.7s-.2 1.3-.4 1.8c-.3.5-.7.9-1.2 1.3-.5.3-1 .6-1.6.7-.6.2-1.2.2-1.8.2-2.2 0-4-.6-5.4-1.7l1.6-2.6zM165.8 103.1c-.1-.2-.2-.4-.2-.7-.1-.3-.1-.5-.1-.7-.2.5-.6.9-1.1 1.2-.5.4-1.2.5-2.1.5-.6 0-1.2-.1-1.7-.3s-.9-.5-1.2-.8c-.3-.3-.6-.7-.7-1.2s-.3-1-.3-1.5c0-.6.1-1.1.3-1.6.2-.4.5-.8.9-1.1.4-.3.9-.6 1.4-.7s1.2-.3 1.9-.4l2.3-.4v-.3c0-.5-.1-.8-.4-1-.3-.2-.6-.3-1.1-.3-.7 0-1.3.1-1.8.4-.5.3-1 .6-1.4.9l-1.8-2.6c.2-.2.5-.4.9-.6l1.2-.6c.5-.2 1-.3 1.5-.4s1.2-.1 1.9-.1c1.7 0 3 .4 3.7 1.1s1.1 1.9 1.1 3.4v5.4c0 .3 0 .6.1.9s.1.5.1.7c.1.2.1.4.3.7h-3.7zm-.6-5.2l-1.6.3c-.5.1-.9.3-1.2.5-.2.2-.4.5-.4.9 0 .3.1.6.3.8.2.2.5.3.9.3.5 0 1-.2 1.4-.6.4-.4.6-1 .6-1.8v-.4zM169.4 91.4h4.3l1.9 8.1 1.9-8.1h4.1l-3.9 11.7h-4.5l-3.8-11.7zM182.3 86.8h3.9v3.1h-3.9v-3.1zm0 4.6h3.9v11.7h-3.9V91.4zM188 91.4h3.5l.3 1.6c.4-.6.9-1 1.5-1.4.6-.4 1.4-.6 2.2-.6 2.6 0 3.9 1.6 3.9 4.9v7.1h-3.9v-6c0-.9-.1-1.6-.4-1.9-.3-.4-.7-.6-1.3-.6-.3 0-.5 0-.8.1s-.4.3-.6.5-.3.6-.4 1c-.1.4-.1.9-.1 1.5v5.5H188V91.4zM202.5 103.1c.4.4 1 .8 1.7 1.1.7.3 1.3.4 2 .4s1.2-.2 1.5-.5c.3-.3.4-.8.4-1.4v-1.1c-.3.4-.6.7-1.1 1-.5.3-1.1.4-1.9.4-.6 0-1.1-.1-1.6-.3-.5-.2-1-.5-1.5-1s-.8-1-1-1.8c-.3-.7-.4-1.6-.4-2.7 0-1 .1-1.8.3-2.6.2-.8.6-1.4 1-1.9s.9-.9 1.5-1.2c.6-.3 1.2-.4 1.9-.4s1.3.2 1.9.5c.5.3 1 .8 1.3 1.4l.5-1.6h3.1v11.1c0 .7-.1 1.4-.3 2-.2.6-.5 1.1-1 1.6-.5.4-1.1.8-1.8 1-.7.2-1.6.4-2.6.4-.7 0-1.3 0-1.9-.1-.6-.1-1.1-.2-1.6-.4s-.9-.3-1.3-.5-.7-.4-1-.6l1.9-2.8zm5.6-5.9c0-.4 0-.7-.1-1.1s-.1-.7-.3-.9c-.1-.3-.3-.5-.5-.7-.2-.2-.5-.3-.9-.3-.2 0-.5 0-.7.1-.2.1-.4.3-.6.5-.2.2-.3.5-.4.9s-.1.8-.1 1.4c0 1 .2 1.7.5 2.2s.8.7 1.4.7 1-.2 1.3-.7c.3-.5.4-1.1.4-2v-.1zM213.5 98.9h4.3v4.3h-4.3v-4.3z"/><g><path class="copy-purpleFill" d="M21.3 111h7.5c.7 0 1.4.1 2 .3.7.2 1.2.4 1.7.8s.9.8 1.2 1.4c.3.6.5 1.2.5 2 0 .4-.1.8-.2 1.2-.1.4-.4.8-.6 1.1-.3.3-.6.6-1 .9-.4.2-.8.4-1.2.5 1.1.2 2 .6 2.6 1.2s1 1.5 1 2.6c0 .9-.2 1.6-.5 2.2-.3.6-.7 1-1.3 1.3-.5.3-1.1.5-1.8.7-.7.1-1.4.2-2.1.2h-7.9V111zm6.3 6.5c.9 0 1.5-.1 1.8-.4.3-.3.5-.7.5-1.3 0-.5-.1-.9-.4-1.2-.3-.3-.8-.4-1.5-.4h-2.5v3.4h2.1zm.9 6.6c.4 0 .7 0 1-.1.3-.1.5-.2.6-.4.1-.2.2-.3.3-.6.1-.2.1-.4.1-.7 0-.5-.2-1-.5-1.3-.4-.3-.9-.5-1.6-.5h-2.8v3.5h2.9zM36 115.5h3.9v6.4c0 .7.1 1.3.3 1.7.2.4.6.6 1.2.6s1.1-.2 1.4-.7c.3-.5.5-1.2.5-2.3v-5.7h3.9v11.7h-3.6v-1.7c-.3.6-.7 1.1-1.3 1.5-.5.4-1.3.5-2.2.5-1.4 0-2.4-.4-3.1-1.2-.7-.8-1-2-1-3.5v-7.3zM49.9 118H48v-2.5h.3c.6 0 1.1-.1 1.4-.3.3-.2.6-.5.8-.8.2-.3.3-.7.4-1.1l.3-1.2h2.4v3.4H56v2.5h-2.4v5.4c0 .4.1.6.2.9.1.2.4.3.9.3h.5c.2 0 .4-.1.6-.2l.3 2.7c-.4.2-.9.3-1.3.4-.4.1-.9.1-1.3.1-.7 0-1.3-.1-1.8-.3s-.9-.4-1.1-.8c-.3-.3-.5-.7-.6-1.2-.1-.5-.2-.9-.2-1.5V118zM61.9 115.5h3.5l.3 1.6c.4-.6.9-1 1.5-1.4s1.4-.6 2.2-.6c2.6 0 3.9 1.6 3.9 4.9v7.1h-3.9V121c0-.9-.1-1.6-.4-1.9-.3-.4-.7-.6-1.3-.6-.3 0-.5 0-.8.1-.2.1-.4.3-.6.5-.2.2-.3.6-.4 1-.1.4-.1.9-.1 1.5v5.5h-3.9v-11.6zM80.3 127.6c-1 0-1.9-.2-2.6-.5-.7-.3-1.4-.7-1.9-1.3s-.9-1.2-1.1-2c-.2-.8-.4-1.6-.4-2.5s.1-1.7.4-2.5c.3-.8.6-1.4 1.1-2 .5-.6 1.1-1 1.8-1.3.7-.3 1.6-.5 2.6-.5s1.8.2 2.6.5 1.4.7 1.9 1.3c.5.6.9 1.2 1.1 2 .3.8.4 1.6.4 2.5s-.1 1.7-.4 2.5c-.3.8-.6 1.4-1.1 2-.5.6-1.1 1-1.9 1.3s-1.6.5-2.5.5zm0-3c.6 0 1.1-.3 1.4-.9.3-.6.4-1.4.4-2.4s-.2-1.8-.5-2.4c-.3-.6-.8-.9-1.4-.9s-1.1.3-1.4.9c-.3.6-.5 1.4-.5 2.4s.2 1.8.5 2.4c.3.6.8.9 1.5.9zM88.1 118h-1.9v-2.5h.3c.6 0 1.1-.1 1.4-.3.3-.2.6-.5.8-.8.2-.3.3-.7.4-1.1l.3-1.2h2.4v3.4h2.4v2.5h-2.4v5.4c0 .4.1.6.2.9.1.2.4.3.9.3h.5c.2 0 .4-.1.6-.2l.3 2.7c-.4.2-.9.3-1.3.4-.4.1-.9.1-1.3.1-.7 0-1.3-.1-1.8-.3s-.9-.4-1.1-.8c-.3-.3-.5-.7-.6-1.2-.1-.5-.2-.9-.2-1.5V118zM107 126.1c-.3.4-.6.8-1.1 1-.5.2-1 .4-1.7.4-.6 0-1.2-.1-1.8-.3-.6-.2-1.1-.6-1.5-1-.4-.5-.8-1.1-1.1-1.9s-.4-1.7-.4-2.9c0-2 .4-3.6 1.3-4.6.8-1 2-1.6 3.4-1.6.7 0 1.3.1 1.9.4.6.3 1 .8 1.4 1.5l.5-1.6h3v15.7H107v-5.1zm0-4.8c0-.9-.1-1.7-.4-2.2-.3-.5-.7-.8-1.3-.8-.6 0-1.1.3-1.4.8-.3.5-.4 1.2-.4 2.1 0 1.1.2 1.9.5 2.4s.8.7 1.3.7c.6 0 1-.2 1.3-.7s.4-1.2.4-2.1v-.2zM112.6 115.5h3.9v6.4c0 .7.1 1.3.3 1.7.2.4.6.6 1.2.6s1.1-.2 1.4-.7c.3-.5.5-1.2.5-2.3v-5.7h3.9v11.7h-3.6v-1.7c-.3.6-.7 1.1-1.3 1.5-.5.4-1.3.5-2.2.5-1.4 0-2.4-.4-3.1-1.2-.7-.8-1-2-1-3.5v-7.3zM125.6 110.9h3.9v3.1h-3.9v-3.1zm0 4.6h3.9v11.7h-3.9v-11.7zM132.2 118h-1.9v-2.5h.3c.6 0 1.1-.1 1.4-.3.3-.2.6-.5.8-.8.2-.3.3-.7.4-1.1l.3-1.2h2.4v3.4h2.4v2.5H136v5.4c0 .4.1.6.2.9.1.2.4.3.9.3h.5c.2 0 .4-.1.6-.2l.3 2.7c-.4.2-.9.3-1.3.4-.4.1-.9.1-1.3.1-.7 0-1.3-.1-1.8-.3s-.9-.4-1.1-.8c-.3-.3-.5-.7-.6-1.2-.1-.5-.2-.9-.2-1.5V118zM142.7 122.3c.1.9.4 1.5.9 1.9.4.4.9.5 1.5.5.5 0 .9-.1 1.3-.3s.7-.5.9-1l2.8 1.6c-.6.9-1.3 1.5-2.3 2-.9.4-1.9.6-3 .6-1 0-1.9-.2-2.6-.5-.8-.3-1.4-.7-1.9-1.3-.5-.6-.9-1.2-1.2-2s-.4-1.6-.4-2.4c0-.9.1-1.7.4-2.5.3-.8.7-1.4 1.2-2 .5-.6 1.1-1 1.9-1.3s1.6-.5 2.5-.5c.9 0 1.7.2 2.4.5s1.3.7 1.8 1.3c.5.6.9 1.2 1.1 2s.4 1.7.4 2.7v.7h-7.7zm1.9-4.3c-1.1 0-1.7.7-1.9 2.1h3.8c0-.6-.1-1.1-.4-1.5-.4-.4-.8-.6-1.5-.6zM159.8 122.3c.1.9.4 1.5.9 1.9.4.4.9.5 1.5.5.5 0 .9-.1 1.3-.3s.7-.5.9-1l2.8 1.6c-.6.9-1.3 1.5-2.3 2-.9.4-1.9.6-3 .6-1 0-1.9-.2-2.6-.5-.8-.3-1.4-.7-1.9-1.3-.5-.6-.9-1.2-1.2-2-.3-.8-.4-1.6-.4-2.4 0-.9.1-1.7.4-2.5.3-.8.7-1.4 1.2-2 .5-.6 1.1-1 1.9-1.3s1.6-.5 2.5-.5c.9 0 1.7.2 2.4.5s1.3.7 1.8 1.3c.5.6.9 1.2 1.1 2s.4 1.7.4 2.7v.7h-7.7zm1.9-4.3c-1.1 0-1.7.7-1.9 2.1h3.8c0-.6-.1-1.1-.4-1.5s-.8-.6-1.5-.6zM168.8 115.5h3.5l.3 1.6c.4-.6.9-1 1.5-1.4.6-.4 1.4-.6 2.2-.6 2.6 0 3.9 1.6 3.9 4.9v7.1h-3.9V121c0-.9-.1-1.6-.4-1.9-.3-.4-.7-.6-1.3-.6-.3 0-.5 0-.8.1s-.4.3-.6.5-.3.6-.4 1c-.1.4-.1.9-.1 1.5v5.5h-3.9v-11.6zM187.1 127.6c-1 0-1.9-.2-2.6-.5s-1.4-.7-1.8-1.3-.9-1.2-1.1-2c-.2-.8-.4-1.6-.4-2.5s.1-1.7.4-2.5.6-1.4 1.1-2c.5-.6 1.1-1 1.8-1.3s1.6-.5 2.6-.5 1.8.2 2.6.5c.7.3 1.4.7 1.8 1.3.5.6.9 1.2 1.1 2 .3.8.4 1.6.4 2.5s-.1 1.7-.4 2.5c-.3.8-.6 1.4-1.1 2s-1.1 1-1.8 1.3c-.7.3-1.6.5-2.6.5zm.1-3c.6 0 1.1-.3 1.4-.9.3-.6.4-1.4.4-2.4s-.2-1.8-.5-2.4c-.3-.6-.8-.9-1.4-.9-.6 0-1.1.3-1.4.9-.3.6-.5 1.4-.5 2.4s.2 1.8.5 2.4c.3.6.8.9 1.5.9zM194.2 115.5h3.9v6.4c0 .7.1 1.3.3 1.7.2.4.6.6 1.2.6s1.1-.2 1.4-.7c.3-.5.5-1.2.5-2.3v-5.7h3.9v11.7h-3.6v-1.7c-.3.6-.7 1.1-1.3 1.5-.5.4-1.3.5-2.2.5-1.4 0-2.4-.4-3.1-1.2-.7-.8-1-2-1-3.5v-7.3zM208.7 127.1c.4.4 1 .8 1.7 1.1s1.3.4 2 .4 1.2-.2 1.5-.5c.3-.3.4-.8.4-1.4v-1.1c-.3.4-.6.7-1.1 1-.5.3-1.1.4-1.9.4-.6 0-1.1-.1-1.6-.3s-1-.5-1.5-1-.8-1-1-1.8c-.3-.7-.4-1.6-.4-2.7 0-1 .1-1.8.3-2.6.2-.8.6-1.4 1-1.9s.9-.9 1.5-1.2c.6-.3 1.2-.4 1.9-.4s1.3.2 1.9.5c.5.3 1 .8 1.3 1.4l.5-1.6h3.1v11.1c0 .7-.1 1.4-.3 2s-.5 1.1-1 1.6c-.5.4-1.1.8-1.8 1-.7.2-1.6.4-2.6.4-.7 0-1.3 0-1.9-.1s-1.1-.2-1.6-.4-.9-.3-1.3-.5-.7-.4-1-.6l1.9-2.8zm5.6-5.8c0-.4 0-.7-.1-1.1s-.1-.7-.3-.9c-.1-.3-.3-.5-.5-.7-.2-.2-.5-.3-.9-.3-.2 0-.5 0-.7.1-.2.1-.4.3-.6.5-.2.2-.3.5-.4.9s-.1.8-.1 1.4c0 1 .2 1.7.5 2.2s.8.7 1.4.7 1-.2 1.3-.7c.3-.5.4-1.1.4-2v-.1zM220 111h3.9v6.1c.3-.5.7-1 1.3-1.3s1.3-.6 2.3-.6c1.3 0 2.3.4 2.9 1.3.6.9.9 2.1.9 3.7v7.1h-3.9V121c0-.7-.1-1.3-.4-1.7-.3-.4-.7-.6-1.3-.6-.6 0-1 .2-1.4.7-.4.5-.5 1.2-.5 2.3v5.7H220V111zM233 122.9h4.3v4.3H233v-4.3z"/></g></svg>