<svg version="1.1" id="Layer_1" xmlns="https://www.w3.org/2000/svg" x="0" y="0" viewBox="0 0 300 250" xml:space="preserve"><style>.copy-purpleFill{fill:#662868}.copy-grayFill{fill:#5d6770}</style><path class="copy-purpleFill" d="M31.2 79c-.9 0-1.8-.1-2.6-.4-.8-.3-1.6-.7-2.2-1.3-.6-.6-1.1-1.3-1.5-2.2-.4-.9-.6-1.9-.6-3.2 0-1.2.2-2.3.6-3.2.4-.9.9-1.6 1.5-2.2.6-.6 1.4-1 2.2-1.3.8-.3 1.7-.4 2.6-.4.9 0 1.8.1 2.6.4.8.3 1.6.7 2.2 1.3.6.6 1.1 1.3 1.5 2.2.4.9.6 2 .6 3.2 0 1.2-.2 2.3-.6 3.2-.4.9-.9 1.6-1.5 2.2-.6.6-1.4 1-2.2 1.3s-1.7.4-2.6.4zm0-3c.4 0 .9-.1 1.3-.2.4-.2.7-.4 1-.7.3-.3.5-.8.7-1.3.2-.5.2-1.1.2-1.8 0-1.3-.3-2.3-.9-3.1-.6-.7-1.4-1.1-2.4-1.1s-1.7.4-2.3 1.1c-.6.7-.8 1.7-.8 3.1 0 .7.1 1.3.3 1.8.2.5.4.9.7 1.3s.6.6 1 .7.8.2 1.2.2zM39.3 68.9h2.9l.3 1.4c.3-.5.7-.9 1.3-1.2.5-.3 1.1-.5 1.8-.5 2.2 0 3.2 1.4 3.2 4.1v6h-3.2v-5.2c0-.8-.1-1.3-.3-1.6-.2-.3-.6-.5-1.1-.5-.2 0-.4 0-.6.1-.2.1-.4.2-.5.4-.1.2-.3.5-.3.8-.1.3-.1.8-.1 1.3v4.6h-3.2v-9.7zM50.2 65.1h3.2v13.6h-3.2V65.1zM55.1 79.6c.2.1.5.1.7.2.3.1.5.1.7.1.3 0 .5-.1.7-.2.2-.1.3-.4.4-.7l-3.5-10.2h3.5l1.7 6.6 1.7-6.6h3.5L61 78.6l-.6 1.5c-.2.4-.4.8-.8 1.2-.3.3-.7.6-1.2.8-.5.2-1.1.3-1.8.3h-1.4c-.2 0-.3 0-.4-.1l.3-2.7zM68.7 76l7-8.3h-6.4v-2.6h10.4v2.6l-7 8.3h7.1v2.6h-11V76zM83.6 74.5c.1.8.4 1.3.7 1.6.4.3.8.5 1.3.5.4 0 .8-.1 1.1-.3.3-.2.6-.5.8-.8l2.4 1.3c-.5.7-1.1 1.3-1.9 1.6-.8.3-1.6.5-2.5.5-.8 0-1.6-.1-2.2-.4-.6-.3-1.2-.6-1.6-1.1-.4-.5-.8-1-1-1.6-.2-.6-.3-1.3-.3-2.1 0-.7.1-1.4.3-2.1.2-.6.6-1.2 1-1.7s1-.8 1.6-1.1c.6-.3 1.3-.4 2.1-.4s1.4.1 2 .4c.6.3 1.1.6 1.5 1.1s.7 1 .9 1.7c.2.7.3 1.4.3 2.2V74.4h-6.5zm1.6-3.6c-.9 0-1.5.6-1.6 1.8h3.2c0-.5-.1-.9-.4-1.3-.3-.3-.7-.5-1.2-.5zM91.1 65.1h3.2v13.6h-3.2V65.1zM95.8 65H99v2.6h-3.2V65zm0 3.9H99v9.8h-3.2v-9.8zM101.5 75.4c.2.1.3.3.5.4.2.1.4.3.7.4.3.1.5.2.8.3.3.1.6.1.8.1.2 0 .5 0 .7-.1.2-.1.4-.2.4-.5 0-.2-.1-.4-.4-.5-.3-.1-.6-.3-1-.4-.4-.1-.8-.2-1.2-.4-.5-.1-.9-.3-1.2-.5-.4-.2-.7-.5-1-.9s-.4-.9-.4-1.5.1-1 .3-1.4c.2-.4.5-.7.9-1 .4-.3.8-.5 1.3-.6.5-.1 1-.2 1.6-.2.9 0 1.7.1 2.3.3.7.2 1.3.5 1.8.9l-1.5 2.2c-.1-.1-.3-.2-.5-.3-.2-.1-.4-.2-.7-.3-.3-.1-.5-.2-.8-.2-.3-.1-.5-.1-.8-.1-.2 0-.4 0-.5.1-.1.1-.2.2-.2.4s.1.4.4.5c.3.1.6.3 1 .4s.8.3 1.2.4c.4.1.9.3 1.2.6s.7.5 1 .9c.3.4.4.8.4 1.4s-.1 1.1-.4 1.5c-.3.4-.6.8-1 1.1-.4.3-.9.5-1.4.6-.5.1-1 .2-1.5.2-1.9 0-3.4-.5-4.5-1.4l1.7-2.4zM122.6 76.6c-.5.8-1.1 1.4-1.9 1.8-.8.4-1.6.5-2.6.5-.9 0-1.6-.1-2.3-.4-.6-.3-1.1-.6-1.6-1.1-.4-.5-.7-1-.9-1.6-.2-.6-.3-1.3-.3-2 0-.8.1-1.5.3-2.2.2-.6.6-1.2 1-1.7s.9-.8 1.6-1.1c.6-.2 1.3-.4 2.1-.4 1 0 1.9.2 2.6.6.7.4 1.3 1 1.8 1.8l-2.7 1.3c-.2-.5-.4-.8-.7-1-.3-.2-.6-.3-.9-.3-.6 0-1 .2-1.3.7-.3.5-.4 1.1-.4 1.9 0 .3 0 .6.1 1 .1.3.1.6.3.9.1.3.3.5.6.7.2.2.6.3 1 .3s.8-.1 1.1-.4c.3-.2.5-.6.7-1l2.4 1.7zM123.4 65.1h3.2v5.1c.2-.4.6-.8 1.1-1.1.5-.3 1.1-.5 1.9-.5 1.1 0 1.9.4 2.5 1.1.5.7.8 1.8.8 3.1v5.9h-3.2v-5.3c0-.6-.1-1.1-.3-1.4-.2-.3-.6-.5-1.1-.5-.5 0-.8.2-1.1.6-.3.4-.4 1-.4 1.9v4.8h-3.2V65.1zM137.2 74.5c.1.8.4 1.3.7 1.6s.8.5 1.3.5c.4 0 .8-.1 1.1-.3.3-.2.6-.5.8-.8l2.4 1.3c-.5.7-1.1 1.3-1.9 1.6-.8.3-1.6.5-2.5.5-.8 0-1.6-.1-2.2-.4-.6-.3-1.2-.6-1.6-1.1-.4-.5-.8-1-1-1.6-.2-.6-.3-1.3-.3-2.1 0-.7.1-1.4.3-2.1.2-.6.6-1.2 1-1.7s1-.8 1.6-1.1c.6-.3 1.3-.4 2.1-.4s1.4.1 2 .4c.6.3 1.1.6 1.5 1.1.4.5.7 1 .9 1.7.2.7.3 1.4.3 2.2V74.4h-6.5zm1.6-3.6c-.9 0-1.5.6-1.6 1.8h3.2c0-.5-.1-.9-.4-1.3-.3-.3-.7-.5-1.2-.5zM153.6 76.6c-.5.8-1.1 1.4-1.9 1.8-.8.4-1.6.5-2.6.5-.9 0-1.6-.1-2.3-.4-.6-.3-1.1-.6-1.6-1.1-.4-.5-.7-1-.9-1.6-.2-.6-.3-1.3-.3-2 0-.8.1-1.5.3-2.2.2-.6.6-1.2 1-1.7s.9-.8 1.6-1.1c.6-.2 1.3-.4 2.1-.4 1 0 1.9.2 2.6.6.7.4 1.3 1 1.8 1.8l-2.7 1.3c-.2-.5-.4-.8-.7-1-.3-.2-.6-.3-.9-.3-.6 0-1 .2-1.3.7-.3.5-.4 1.1-.4 1.9 0 .3 0 .6.1 1 .1.3.1.6.3.9.1.3.3.5.6.7.2.2.6.3 1 .3s.8-.1 1.1-.4c.3-.2.5-.6.7-1l2.4 1.7zM154.4 65.1h3.2v7.4l3.3-3.6h4l-3.9 3.7 3.8 6.1h-3.7l-2.2-4.1-1.3 1.2v2.9h-3.2V65.1z"/><path class="copy-purpleFill" d="M166.2 75.4c.2.1.3.3.5.4.2.1.4.3.7.4.3.1.5.2.8.3.3.1.6.1.8.1.2 0 .5 0 .7-.1.2-.1.4-.2.4-.5 0-.2-.1-.4-.4-.5-.3-.1-.6-.3-1-.4-.4-.1-.8-.2-1.2-.4-.4-.1-.9-.3-1.2-.5-.4-.2-.7-.5-1-.9s-.4-.9-.4-1.5.1-1 .3-1.4c.2-.4.5-.7.9-1 .4-.3.8-.5 1.3-.6.5-.1 1-.2 1.6-.2.9 0 1.7.1 2.3.3s1.3.5 1.8.9l-1.5 2.2c-.1-.1-.3-.2-.5-.3-.2-.1-.4-.2-.7-.3-.3-.1-.5-.2-.8-.2-.3-.1-.5-.1-.8-.1-.2 0-.4 0-.5.1-.1.1-.2.2-.2.4s.1.4.4.5c.3.1.6.3 1 .4s.8.3 1.2.4c.4.1.9.3 1.2.6.4.2.7.5 1 .9.3.4.4.8.4 1.4s-.1 1.1-.4 1.5c-.2.4-.6.8-1 1.1-.4.3-.9.5-1.4.6-.5.1-1 .2-1.5.2-1.9 0-3.4-.5-4.5-1.4l1.7-2.4zM179.2 70.9h-1.6v-2.1h1.5c-.1-.3-.2-.6-.2-.9 0-.3-.1-.5-.1-.7 0-.3 0-.7.1-1 .1-.3.3-.6.5-.8.2-.2.6-.4 1-.5.4-.1.9-.2 1.6-.2.6 0 1 0 1.4.1.4.1.8.2 1.1.3l-.5 2.4c-.2-.1-.4-.2-.6-.2-.3-.1-.5-.1-.7-.1-.2 0-.4 0-.5.1-.1.1-.2.2-.2.5 0 .2 0 .4.1.6.1.2.1.3.2.5h1.9V71h-1.8v7.7h-3.3v-7.8zM189.3 79c-.8 0-1.6-.1-2.2-.4-.6-.3-1.1-.6-1.6-1.1-.4-.5-.7-1-.9-1.6-.2-.6-.3-1.3-.3-2.1s.1-1.4.3-2.1c.2-.6.5-1.2 1-1.7.4-.5.9-.8 1.6-1.1.6-.3 1.3-.4 2.1-.4s1.5.1 2.1.4c.6.3 1.1.6 1.6 1.1.4.5.7 1 .9 1.7.2.6.3 1.3.3 2.1s-.1 1.4-.3 2.1c-.2.6-.5 1.2-.9 1.6-.4.5-.9.8-1.6 1.1-.6.2-1.3.4-2.1.4zm0-2.5c.5 0 .9-.2 1.2-.7.2-.5.4-1.1.4-2s-.1-1.5-.4-2c-.3-.5-.7-.8-1.2-.8s-.9.3-1.2.8c-.3.5-.4 1.2-.4 2s.1 1.5.4 2c.2.5.7.7 1.2.7zM195.3 68.9h2.9l.2 1.8c.3-.6.7-1.1 1.2-1.5.5-.4 1.2-.6 2.1-.6v3.3c-.2-.1-.6-.1-1-.1-.3 0-.5 0-.8.1-.3 0-.5.2-.7.3-.2.2-.4.4-.6.8-.1.3-.2.8-.2 1.4v4.3h-3.2v-9.8zM212.4 78.7c-.1-.1-.1-.3-.2-.6-.1-.2-.1-.4-.1-.6-.2.4-.5.7-.9 1-.4.3-1 .5-1.8.5-.5 0-1-.1-1.4-.2-.4-.2-.7-.4-1-.7-.3-.3-.5-.6-.6-1-.1-.4-.2-.8-.2-1.3s.1-.9.3-1.3c.2-.4.4-.7.8-.9.3-.3.7-.5 1.2-.6.5-.2 1-.3 1.6-.4l2-.3v-.2c0-.4-.1-.7-.3-.8-.2-.1-.5-.2-.9-.2-.6 0-1.1.1-1.6.3-.4.2-.8.5-1.1.8l-1.5-2.1c.2-.2.5-.3.8-.5.3-.2.6-.3 1-.5.4-.1.8-.2 1.3-.3.5-.1 1-.1 1.6-.1 1.5 0 2.5.3 3.1.9.6.6.9 1.6.9 2.8v4.5c0 .3 0 .5.1.7 0 .2.1.4.1.6.1.2.1.4.2.5h-3.4zm-.5-4.4l-1.3.3c-.4.1-.8.2-1 .4-.2.2-.3.4-.3.7 0 .3.1.5.3.7.2.2.4.3.7.3.4 0 .8-.2 1.1-.5.3-.3.5-.8.5-1.5v-.4zM225.5 76.6c-.5.8-1.1 1.4-1.9 1.8-.8.4-1.6.5-2.6.5-.9 0-1.6-.1-2.3-.4-.6-.3-1.1-.6-1.6-1.1-.4-.5-.7-1-.9-1.6-.2-.6-.3-1.3-.3-2 0-.8.1-1.5.3-2.2.2-.6.6-1.2 1-1.7s.9-.8 1.6-1.1c.6-.2 1.3-.4 2.1-.4 1 0 1.9.2 2.6.6.7.4 1.3 1 1.8 1.8l-2.7 1.3c-.2-.5-.4-.8-.7-1-.3-.2-.6-.3-.9-.3-.6 0-1 .2-1.3.7-.3.5-.4 1.1-.4 1.9 0 .3 0 .6.1 1 .1.3.1.6.3.9.1.3.3.5.6.7.2.2.6.3 1 .3s.8-.1 1.1-.4c.3-.2.5-.6.7-1l2.4 1.7z"/><path class="copy-purpleFill" d="M235 76.6c-.5.8-1.1 1.4-1.9 1.8-.8.4-1.6.5-2.6.5-.9 0-1.6-.1-2.3-.4-.6-.3-1.1-.6-1.6-1.1-.4-.5-.7-1-.9-1.6-.2-.6-.3-1.3-.3-2 0-.8.1-1.5.3-2.2.2-.6.6-1.2 1-1.7s.9-.8 1.6-1.1c.6-.2 1.3-.4 2.1-.4 1 0 1.9.2 2.6.6.7.4 1.3 1 1.8 1.8l-2.7 1.3c-.2-.5-.4-.8-.7-1-.3-.2-.6-.3-.9-.3-.6 0-1 .2-1.3.7-.3.5-.4 1.1-.4 1.9 0 .3 0 .6.1 1 .1.3.1.6.3.9.1.3.3.5.6.7.2.2.6.3 1 .3s.8-.1 1.1-.4c.3-.2.5-.6.7-1l2.4 1.7zM235.7 68.9h3.2v5.4c0 .6.1 1.1.3 1.4.2.3.5.5 1 .5s.9-.2 1.2-.6c.3-.4.4-1 .4-1.9V69h3.2v9.8h-3v-1.4c-.3.5-.6.9-1.1 1.2-.4.3-1.1.5-1.9.5-1.2 0-2-.3-2.6-1-.6-.7-.8-1.6-.8-2.9v-6.3zM246.6 68.9h2.9l.2 1.8c.3-.6.7-1.1 1.2-1.5.5-.4 1.2-.6 2.1-.6v3.3c-.2-.1-.6-.1-1-.1-.3 0-.5 0-.8.1-.3 0-.5.2-.7.3-.2.2-.4.4-.6.8-.1.3-.2.8-.2 1.4v4.3h-3.2v-9.8zM259.5 78.7c-.1-.1-.1-.3-.2-.6-.1-.2-.1-.4-.1-.6-.2.4-.5.7-.9 1-.4.3-1 .5-1.8.5-.5 0-1-.1-1.4-.2-.4-.2-.7-.4-1-.7-.3-.3-.5-.6-.6-1-.1-.4-.2-.8-.2-1.3s.1-.9.3-1.3c.2-.4.4-.7.8-.9.3-.3.7-.5 1.2-.6.5-.2 1-.3 1.6-.4l2-.3v-.2c0-.4-.1-.7-.3-.8-.2-.1-.5-.2-.9-.2-.6 0-1.1.1-1.6.3-.4.2-.8.5-1.1.8l-1.5-2.1c.2-.2.5-.3.8-.5.3-.2.6-.3 1-.5.4-.1.8-.2 1.3-.3.5-.1 1-.1 1.6-.1 1.5 0 2.5.3 3.1.9.6.6.9 1.6.9 2.8v4.5c0 .3 0 .5.1.7 0 .2.1.4.1.6.1.2.1.4.2.5h-3.4zm-.5-4.4l-1.3.3c-.4.1-.8.2-1 .4-.2.2-.3.4-.3.7 0 .3.1.5.3.7.2.2.4.3.7.3.4 0 .8-.2 1.1-.5.3-.3.5-.8.5-1.5v-.4zM272.6 76.6c-.5.8-1.1 1.4-1.9 1.8-.8.4-1.6.5-2.6.5-.9 0-1.6-.1-2.3-.4-.6-.3-1.1-.6-1.6-1.1-.4-.5-.7-1-.9-1.6-.2-.6-.3-1.3-.3-2 0-.8.1-1.5.3-2.2.2-.6.6-1.2 1-1.7s.9-.8 1.6-1.1c.6-.2 1.3-.4 2.1-.4 1 0 1.9.2 2.6.6.7.4 1.3 1 1.8 1.8l-2.7 1.3c-.2-.5-.4-.8-.7-1-.3-.2-.6-.3-.9-.3-.6 0-1 .2-1.3.7-.3.5-.4 1.1-.4 1.9 0 .3 0 .6.1 1 .1.3.1.6.3.9.1.3.3.5.6.7.2.2.6.3 1 .3s.8-.1 1.1-.4c.3-.2.5-.6.7-1l2.4 1.7zM273.5 79.6c.2.1.5.1.7.2.3.1.5.1.7.1.3 0 .5-.1.7-.2.2-.1.3-.4.4-.7l-3.5-10.2h3.5l1.7 6.6 1.7-6.6h3.5l-3.4 9.8-.6 1.5c-.2.4-.4.8-.8 1.2s-.7.6-1.2.8c-.5.2-1.1.3-1.8.3h-1.4c-.2 0-.3 0-.4-.1l.2-2.7zM282.4 75.1h3.6v3.6h-3.6v-3.6z"/><g><path class="copy-grayFill" d="M32.3 94.9c-.2.5-.6.8-1.1 1.2-.5.3-1.1.5-1.9.5-.8 0-1.5-.1-2.1-.4-.6-.3-1.1-.7-1.6-1.1-.4-.5-.7-1.1-1-1.7-.2-.7-.3-1.4-.3-2.2 0-.8.1-1.5.3-2.2.2-.7.6-1.2 1-1.7s1-.9 1.6-1.1c.6-.3 1.3-.4 2.1-.4.9 0 1.8.2 2.6.6.8.4 1.4 1 1.9 1.7l-2.1 1c-.1-.2-.2-.4-.4-.6-.2-.2-.4-.3-.6-.5-.2-.1-.5-.2-.7-.3-.3-.1-.5-.1-.7-.1-.5 0-.9.1-1.2.3-.3.2-.6.4-.9.8-.2.3-.4.7-.5 1.1-.1.4-.2.9-.2 1.4 0 .5.1 1 .2 1.4.1.4.3.8.5 1.1.2.3.5.6.9.8.3.2.7.3 1.2.3.4 0 .8-.1 1.2-.2.3-.1.6-.3.8-.5.2-.2.4-.5.5-.7.1-.3.1-.5.1-.7v-.2h-2.2v-1.6H34v5.7h-1.3l-.4-1.7zM37.1 93c.1.7.3 1.2.6 1.5.3.3.7.5 1.2.5.7 0 1.2-.3 1.6-1l1.5.8c-.3.5-.8 1-1.3 1.2-.5.3-1.2.4-1.9.4-.6 0-1.2-.1-1.6-.3-.5-.2-.9-.5-1.2-.8-.3-.3-.6-.8-.7-1.2-.2-.5-.2-1-.2-1.5 0-.6.1-1.1.2-1.6.2-.5.4-.9.7-1.3.3-.4.7-.6 1.1-.8.4-.2 1-.3 1.5-.3.6 0 1.1.1 1.5.3.4.2.8.5 1.1.8.3.3.5.8.7 1.3.1.5.2 1 .2 1.6v.4h-5zm1.5-2.9c-.5 0-.8.2-1.1.5-.3.3-.4.7-.5 1.3h3c0-.2 0-.5-.1-.7-.1-.2-.1-.4-.3-.6-.1-.2-.3-.3-.5-.4 0-.1-.2-.1-.5-.1zM43.5 90.1h-1.2v-1.3h.2c.3 0 .6-.1.8-.2.2-.1.4-.3.5-.4.1-.2.2-.4.3-.7.1-.3.1-.5.2-.8h1.3v2.1H47v1.3h-1.6V94c0 .3.1.5.2.7.1.2.3.2.6.2h.3c.1 0 .2-.1.4-.1l.1 1.4c-.2.1-.5.2-.7.2-.3 0-.5.1-.8.1-.4 0-.8-.1-1-.2-.3-.1-.5-.3-.6-.5-.2-.2-.3-.4-.3-.7-.1-.3-.1-.6-.1-.9v-4.1zM60.1 94c-.5.9-1.1 1.5-1.8 1.9-.7.4-1.6.6-2.6.6-.8 0-1.6-.1-2.2-.4-.6-.3-1.2-.7-1.6-1.1-.4-.5-.8-1.1-1-1.7-.2-.7-.3-1.4-.3-2.2 0-.8.1-1.5.3-2.2.2-.7.6-1.2 1-1.7s1-.9 1.6-1.1c.6-.3 1.4-.4 2.2-.4.9 0 1.8.2 2.5.5s1.4.9 1.9 1.8L58 89c-.2-.5-.5-.8-.9-1.1-.4-.3-.9-.4-1.4-.4-.5 0-.9.1-1.2.3-.4.2-.6.4-.9.8-.2.3-.4.7-.5 1.1-.1.4-.2.9-.2 1.4 0 .5.1 1 .2 1.4.1.4.3.8.6 1.1.2.3.5.6.9.8.4.2.8.3 1.2.3.6 0 1-.1 1.4-.4.4-.3.7-.7 1-1.3l1.9 1zM61.1 85.8h2v10.4h-2V85.8zM68.9 96.3c-.1-.1-.1-.3-.1-.5s-.1-.4-.1-.6c-.2.4-.4.7-.8.9-.4.2-.8.4-1.4.4-.8 0-1.4-.2-1.8-.7-.4-.4-.6-1-.6-1.7 0-.4.1-.7.2-1 .1-.3.3-.5.6-.7.2-.2.5-.3.9-.5.3-.1.7-.2 1.2-.3l1.6-.3V91c0-.4-.1-.7-.3-.9-.2-.1-.5-.2-.8-.2-.5 0-.9.1-1.3.3-.3.2-.6.4-.9.7l-1-1.3c.3-.3.7-.6 1.3-.8.6-.2 1.3-.4 2.1-.4 1 0 1.8.2 2.2.7.5.5.7 1.1.7 2.1v4c0 .2 0 .3.1.4 0 .1.1.3.1.4h-1.9zm-.3-3.5l-1.3.2c-.4.1-.8.2-1 .4-.2.2-.3.4-.3.7 0 .3.1.5.3.7.2.2.4.3.7.3.4 0 .8-.2 1.1-.5.3-.3.5-.8.5-1.3v-.5zM72 85.9h2v1.6h-2v-1.6zm0 2.9h2v7.4h-2v-7.4zM75.3 88.8h1.8l.2 1.2c.2-.4.5-.8.8-1 .4-.3.8-.4 1.3-.4.6 0 1.1.1 1.4.4.3.3.6.6.7 1 .1-.2.2-.4.3-.5l.5-.5c.2-.1.4-.2.7-.3.3-.1.6-.1.9-.1.5 0 .9.1 1.2.3.3.2.5.4.7.7.2.3.3.6.3.9.1.4.1.7.1 1.1v4.7h-2v-4.1c0-.6-.1-1-.3-1.3-.2-.3-.5-.4-.9-.4-.2 0-.3 0-.5.1s-.3.2-.4.3l-.3.6c-.1.3-.1.6-.1 1v3.8h-2v-4.1c0-1.2-.4-1.7-1.1-1.7-.2 0-.3 0-.5.1s-.3.2-.4.4c-.1.2-.2.4-.3.7-.1.3-.1.6-.1 1.1v3.7h-2v-7.7zM87.6 85.8h4.1c.5 0 1 .1 1.5.2s.9.3 1.2.6c.4.3.6.6.9 1 .2.4.3.9.3 1.5s-.1 1.2-.3 1.6c-.2.4-.5.8-.8 1.1-.3.3-.8.5-1.2.6-.5.1-1 .2-1.5.2h-1.9v3.8h-2.2V85.8zm3.7 5c.3 0 .5 0 .8-.1.2-.1.4-.1.6-.3.2-.1.3-.3.4-.5.1-.2.1-.5.1-.8 0-.3-.1-.5-.2-.7-.1-.2-.2-.4-.4-.5l-.6-.3c-.2-.1-.5-.1-.8-.1h-1.6v3.3h1.7zM100.7 96.3c-.1-.1-.1-.3-.1-.5s-.1-.4-.1-.6c-.2.4-.4.7-.8.9-.4.2-.8.4-1.4.4-.8 0-1.4-.2-1.8-.7-.4-.4-.6-1-.6-1.7 0-.4.1-.7.2-1 .1-.3.3-.5.6-.7.2-.2.5-.3.9-.5.3-.1.7-.2 1.2-.3l1.6-.3V91c0-.4-.1-.7-.3-.9-.2-.1-.5-.2-.8-.2-.5 0-.9.1-1.3.3-.3.2-.6.4-.9.7l-1-1.3c.3-.3.7-.6 1.3-.8.6-.2 1.3-.4 2.1-.4 1 0 1.8.2 2.2.7.5.5.7 1.1.7 2.1v4c0 .2 0 .3.1.4 0 .1.1.3.1.4h-1.9zm-.4-3.5L99 93c-.4.1-.8.2-1 .4-.2.2-.3.4-.3.7 0 .3.1.5.3.7.2.2.4.3.7.3.4 0 .8-.2 1.1-.5.3-.3.5-.8.5-1.3v-.5zM104.2 94l.4.4c.2.1.3.2.5.3.2.1.4.2.6.2.2.1.4.1.7.1.3 0 .5-.1.7-.2.2-.1.3-.3.3-.6 0-.2-.1-.4-.3-.5-.2-.1-.4-.2-.7-.3-.3-.1-.6-.2-1-.3-.3-.1-.7-.2-1-.4-.3-.2-.5-.4-.7-.7-.2-.3-.3-.6-.3-1.1 0-.4.1-.8.3-1 .2-.3.4-.5.7-.7.3-.2.6-.3.9-.4.4-.1.7-.1 1.1-.1.6 0 1.2.1 1.7.2.5.2.9.4 1.3.7l-.9 1.3c-.1-.1-.2-.2-.4-.3-.2-.1-.3-.2-.5-.2-.2-.1-.4-.1-.6-.2s-.4-.1-.6-.1c-.2 0-.4 0-.6.1-.2.1-.3.3-.3.5s.1.4.3.5c.2.1.4.2.7.3.3.1.6.2 1 .3.3.1.7.2 1 .4.3.2.5.4.7.7.2.3.3.6.3 1.1 0 .4-.1.8-.3 1.1-.2.3-.4.6-.7.8-.3.2-.6.4-1 .5-.4.1-.7.1-1.1.1-1.3 0-2.4-.4-3.3-1.1l1.1-1.4zM110.8 94l.4.4c.2.1.3.2.5.3.2.1.4.2.6.2.2.1.4.1.7.1.3 0 .5-.1.7-.2.2-.1.3-.3.3-.6 0-.2-.1-.4-.3-.5-.2-.1-.4-.2-.7-.3-.3-.1-.6-.2-1-.3-.3-.1-.7-.2-1-.4-.3-.2-.5-.4-.7-.7s-.3-.6-.3-1.1c0-.4.1-.8.3-1 .2-.3.4-.5.7-.7.3-.2.6-.3.9-.4.4-.1.7-.1 1.1-.1.6 0 1.2.1 1.7.2.5.2.9.4 1.3.7l-.9 1.3c-.1-.1-.2-.2-.4-.3-.2-.1-.3-.2-.5-.2-.2-.1-.4-.1-.6-.2s-.4-.1-.6-.1c-.2 0-.4 0-.6.1-.2.1-.3.3-.3.5s.1.4.3.5c.2.1.4.2.7.3.3.1.6.2 1 .3.3.1.7.2 1 .4.3.2.5.4.7.7.2.3.3.6.3 1.1 0 .4-.1.8-.3 1.1s-.4.6-.7.8c-.3.2-.6.4-1 .5-.4.1-.7.1-1.1.1-1.3 0-2.4-.4-3.3-1.1l1.1-1.4z"/></g><g><path class="copy-grayFill" d="M117.1 94h2.2v2.2h-2.2V94zM132.3 94.9c-.2.5-.6.8-1.1 1.2-.5.3-1.1.5-1.9.5-.8 0-1.5-.1-2.1-.4-.6-.3-1.1-.7-1.6-1.1-.4-.5-.7-1.1-1-1.7-.2-.7-.3-1.4-.3-2.2 0-.8.1-1.5.3-2.2.2-.7.6-1.2 1-1.7s1-.9 1.6-1.1c.6-.3 1.3-.4 2.1-.4.9 0 1.8.2 2.6.6.8.4 1.4 1 1.9 1.7l-2.1 1c-.1-.2-.2-.4-.4-.6-.2-.2-.4-.3-.6-.5-.2-.1-.5-.2-.7-.3-.3-.1-.5-.1-.7-.1-.5 0-.9.1-1.2.3-.3.2-.6.4-.9.8-.2.3-.4.7-.5 1.1-.1.4-.2.9-.2 1.4 0 .5.1 1 .2 1.4.1.4.3.8.5 1.1.2.3.5.6.9.8.3.2.7.3 1.2.3.4 0 .8-.1 1.2-.2.3-.1.6-.3.8-.5.2-.2.4-.5.5-.7.1-.3.1-.5.1-.7v-.2h-2.2v-1.6h4.3v5.7h-1.3l-.4-1.7zM137.1 93c.1.7.3 1.2.6 1.5.3.3.7.5 1.2.5.7 0 1.2-.3 1.6-1l1.5.8c-.3.5-.8 1-1.3 1.2-.5.3-1.2.4-1.9.4-.6 0-1.2-.1-1.6-.3-.5-.2-.9-.5-1.2-.8-.3-.3-.6-.8-.7-1.2-.2-.5-.2-1-.2-1.5 0-.6.1-1.1.2-1.6.2-.5.4-.9.7-1.3.3-.4.7-.6 1.1-.8.4-.2 1-.3 1.5-.3.6 0 1.1.1 1.5.3.4.2.8.5 1.1.8.3.3.5.8.7 1.3.1.5.2 1 .2 1.6v.4h-5zm1.5-2.9c-.5 0-.8.2-1.1.5-.3.3-.4.7-.5 1.3h3c0-.2 0-.5-.1-.7-.1-.2-.1-.4-.3-.6-.1-.2-.3-.3-.5-.4 0-.1-.2-.1-.5-.1zM143.5 90.1h-1.2v-1.3h.2c.3 0 .6-.1.8-.2.2-.1.4-.3.5-.4.1-.2.2-.4.3-.7.1-.3.1-.5.2-.8h1.3v2.1h1.6v1.3h-1.6V94c0 .3.1.5.2.7.1.2.3.2.6.2h.3c.1 0 .2-.1.4-.1l.1 1.4c-.2.1-.5.2-.7.2-.3 0-.5.1-.8.1-.4 0-.8-.1-1-.2-.3-.1-.5-.3-.6-.5-.2-.2-.3-.4-.3-.7-.1-.3-.1-.6-.1-.9v-4.1zM150.9 88.8h1.8l.2 1.2c.2-.4.5-.8.8-1 .4-.3.8-.4 1.3-.4.6 0 1.1.1 1.4.4.3.3.6.6.7 1 .1-.2.2-.4.3-.5.1-.2.3-.3.5-.5.2-.1.4-.2.7-.3.3-.1.6-.1.9-.1.5 0 .9.1 1.2.3.3.2.5.4.7.7.2.3.3.6.3.9.1.4.1.7.1 1.1v4.7h-2v-4.1c0-.6-.1-1-.3-1.3-.2-.3-.5-.4-.9-.4-.2 0-.3 0-.5.1s-.3.2-.4.3l-.3.6c-.1.3-.1.6-.1 1v3.8h-2v-4.1c0-1.2-.4-1.7-1.1-1.7-.2 0-.3 0-.5.1s-.3.2-.4.4c-.1.2-.2.4-.3.7-.1.3-.1.6-.1 1.1v3.7h-2v-7.7zM166.4 96.5c-.6 0-1.1-.1-1.6-.3-.5-.2-.8-.5-1.1-.8-.3-.4-.5-.8-.7-1.2-.2-.5-.2-1-.2-1.6 0-.6.1-1.1.2-1.6.2-.5.4-.9.7-1.2.3-.3.7-.6 1.1-.8.4-.2 1-.3 1.6-.3.6 0 1.1.1 1.6.3.5.2.8.5 1.1.8.3.4.5.8.7 1.2.2.5.2 1 .2 1.6 0 .6-.1 1.1-.2 1.6-.2.5-.4.9-.7 1.2-.3.4-.7.6-1.1.8-.5.2-1 .3-1.6.3zm0-1.6c.5 0 .9-.2 1.1-.7.2-.4.4-1 .4-1.7s-.1-1.3-.4-1.7c-.3-.4-.6-.7-1.2-.7-.5 0-.9.2-1.2.7-.3.4-.4 1-.4 1.7s.1 1.3.4 1.7c.4.5.8.7 1.3.7zM171 88.8h1.8l.1 1.5c.2-.5.6-.9 1-1.2.4-.3 1-.5 1.6-.5v2.1h-.7c-.2 0-.4 0-.7.1l-.6.3c-.2.2-.3.4-.4.7-.1.3-.2.6-.2 1.1v3.5h-2v-7.6zM177.7 93c.1.7.3 1.2.6 1.5.3.3.7.5 1.2.5.7 0 1.2-.3 1.6-1l1.5.8c-.3.5-.8 1-1.3 1.2-.5.3-1.2.4-1.9.4-.6 0-1.1-.1-1.6-.3-.5-.2-.9-.5-1.2-.8-.3-.3-.6-.8-.7-1.2s-.2-1-.2-1.5c0-.6.1-1.1.2-1.6.2-.5.4-.9.7-1.3.3-.4.7-.6 1.1-.8.4-.2 1-.3 1.5-.3.6 0 1.1.1 1.5.3.4.2.8.5 1.1.8.3.3.5.8.7 1.3.1.5.2 1 .2 1.6v.4h-5zm1.6-2.9c-.5 0-.8.2-1.1.5-.3.3-.4.7-.5 1.3h3c0-.2 0-.5-.1-.7-.1-.2-.1-.4-.3-.6-.1-.2-.3-.3-.5-.4 0-.1-.3-.1-.5-.1zM187.3 94l.4.4c.2.1.3.2.5.3.2.1.4.2.6.2.2.1.4.1.7.1.3 0 .5-.1.7-.2.2-.1.3-.3.3-.6 0-.2-.1-.4-.3-.5-.2-.1-.4-.2-.7-.3-.3-.1-.6-.2-1-.3-.4-.1-.7-.2-1-.4-.3-.2-.5-.4-.7-.7-.2-.3-.3-.6-.3-1.1 0-.4.1-.8.3-1 .2-.3.4-.5.7-.7.3-.2.6-.3.9-.4.4-.1.7-.1 1.1-.1.6 0 1.2.1 1.7.2.5.2.9.4 1.3.7l-.9 1.3c-.1-.1-.2-.2-.4-.3s-.3-.2-.5-.2c-.2-.1-.4-.1-.6-.2-.2 0-.4-.1-.6-.1-.2 0-.4 0-.6.1-.2.1-.3.3-.3.5s.1.4.3.5c.2.1.4.2.7.3.3.1.6.2 1 .3.3.1.7.2 1 .4.3.2.5.4.7.7.2.3.3.6.3 1.1 0 .4-.1.8-.3 1.1-.2.3-.4.6-.7.8-.3.2-.6.4-1 .5-.4.1-.7.1-1.1.1-1.3 0-2.4-.4-3.3-1.1l1.1-1.4zM198 96.3c-.1-.1-.1-.3-.1-.5s-.1-.4-.1-.6c-.2.4-.4.7-.8.9-.4.2-.8.4-1.4.4-.8 0-1.4-.2-1.8-.7-.4-.4-.6-1-.6-1.7 0-.4.1-.7.2-1 .1-.3.3-.5.6-.7.2-.2.5-.3.9-.5.3-.1.7-.2 1.2-.3l1.6-.3V91c0-.4-.1-.7-.3-.9-.2-.1-.5-.2-.8-.2-.5 0-.9.1-1.3.3-.3.2-.6.4-.9.7l-1-1.3c.3-.3.7-.6 1.3-.8.6-.2 1.3-.4 2.1-.4 1 0 1.8.2 2.2.7.5.5.7 1.1.7 2.1v4c0 .2 0 .3.1.4 0 .1.1.3.1.4H198zm-.3-3.5l-1.3.2c-.4.1-.8.2-1 .4-.2.2-.3.4-.3.7 0 .3.1.5.3.7.2.2.4.3.7.3.4 0 .8-.2 1.1-.5.3-.3.5-.8.5-1.3v-.5zM200.3 88.8h2.2l1.4 5.5 1.4-5.5h2.2l-2.5 7.4h-2.4l-2.3-7.4zM208.2 85.9h2v1.6h-2v-1.6zm0 2.9h2v7.4h-2v-7.4zM211.5 88.8h1.8l.2 1.2c.2-.4.5-.7.9-1 .4-.3.9-.4 1.4-.4.8 0 1.4.3 1.8.8.4.5.6 1.3.6 2.2v4.6h-2V92c0-.6-.1-1.1-.3-1.3-.2-.3-.5-.4-.9-.4s-.8.2-1 .5c-.3.3-.4.9-.4 1.7v3.7h-2v-7.4zM220.3 96.6c.3.3.6.5 1 .7.4.2.8.2 1.3.2.6 0 1-.1 1.2-.4.2-.3.3-.7.3-1.1v-1c-.2.3-.4.6-.8.8-.3.2-.8.3-1.3.3-.4 0-.7-.1-1.1-.2-.3-.1-.6-.4-.9-.6-.3-.3-.5-.7-.6-1.1-.2-.5-.2-1-.2-1.6 0-.6.1-1.1.2-1.6s.3-.9.6-1.2c.3-.3.6-.6.9-.8.4-.2.8-.3 1.2-.3.5 0 .9.1 1.3.3.4.2.6.6.8 1l.3-1.1h1.6v7c0 .4-.1.9-.2 1.2-.1.4-.3.7-.6 1-.3.3-.6.5-1.1.7-.4.2-1 .2-1.6.2-.8 0-1.5-.1-2.1-.3-.6-.2-1-.4-1.4-.7l1.2-1.4zm3.8-4.3c0-.3 0-.5-.1-.7 0-.2-.1-.5-.2-.6-.1-.2-.3-.3-.4-.5-.2-.1-.4-.2-.7-.2-.4 0-.8.2-1.1.5-.3.4-.4.9-.4 1.6 0 .6.1 1.2.4 1.6.2.4.6.6 1.1.6.5 0 .8-.2 1-.5.2-.4.3-.9.3-1.5v-.3zM228 94l.4.4c.2.1.3.2.5.3.2.1.4.2.6.2.2.1.4.1.7.1.3 0 .5-.1.7-.2.2-.1.3-.3.3-.6 0-.2-.1-.4-.3-.5-.2-.1-.4-.2-.7-.3-.3-.1-.6-.2-1-.3-.4-.1-.7-.2-1-.4-.3-.2-.5-.4-.7-.7-.2-.3-.3-.6-.3-1.1 0-.4.1-.8.3-1 .2-.3.4-.5.7-.7.3-.2.6-.3.9-.4.4-.1.7-.1 1.1-.1.6 0 1.2.1 1.7.2.5.2.9.4 1.3.7l-.9 1.3c-.1-.1-.2-.2-.4-.3-.2-.1-.3-.2-.5-.2-.2-.1-.4-.1-.6-.2-.2 0-.4-.1-.6-.1-.2 0-.4 0-.6.1-.2.1-.3.3-.3.5s.1.4.3.5c.2.1.4.2.7.3.3.1.6.2 1 .3.3.1.7.2 1 .4s.5.4.7.7c.2.3.3.6.3 1.1 0 .4-.1.8-.3 1.1-.2.3-.4.6-.7.8-.3.2-.6.4-1 .5-.4.1-.7.1-1.1.1-1.3 0-2.4-.4-3.3-1.1L228 94zM234 94h2.2v2.2H234V94z"/></g></svg>