<svg version="1.1" id="Layer_1" xmlns="https://www.w3.org/2000/svg" x="0" y="0" viewBox="0 0 300 250" xml:space="preserve"><style>.copy-purpleFill{fill:#662868}</style><path class="copy-purpleFill" d="M29.1 82.7c-1.1 0-2.2-.2-3.3-.5-1-.3-1.9-.9-2.7-1.6-.8-.7-1.4-1.6-1.9-2.7s-.7-2.4-.7-3.9.2-2.8.7-3.9c.5-1.1 1.1-2 1.9-2.7.8-.7 1.7-1.3 2.7-1.6 1-.3 2.1-.5 3.3-.5 1.1 0 2.2.2 3.3.5 1 .3 1.9.9 2.7 1.6s1.4 1.6 1.9 2.7.7 2.4.7 3.9-.2 2.8-.7 3.9c-.5 1.1-1.1 2-1.9 2.7-.8.7-1.7 1.2-2.7 1.6-1.1.3-2.2.5-3.3.5zm0-3.7c.6 0 1.1-.1 1.6-.3.5-.2.9-.5 1.3-.9s.6-.9.8-1.6.3-1.4.3-2.3c0-1.6-.4-2.9-1.1-3.8-.7-.9-1.7-1.3-2.9-1.3s-2.1.4-2.8 1.3c-.7.9-1 2.1-1 3.8 0 .9.1 1.6.3 2.3s.5 1.1.9 1.6c.4.4.8.7 1.3.9.3.2.8.3 1.3.3zM39.9 72.8H38v-2.6h.3c.6 0 1.1-.1 1.5-.3.4-.2.6-.5.8-.8.2-.3.3-.7.4-1.2.1-.4.2-.9.3-1.3h2.5v3.6h2.5v2.6h-2.5v5.6c0 .4.1.7.2.9.1.2.5.4.9.4h.5c.2 0 .4-.1.6-.2l.3 2.8c-.4.2-.9.3-1.3.4-.4.1-.9.1-1.4.1-.7 0-1.4-.1-1.9-.3-.5-.2-.9-.5-1.2-.8-.3-.3-.5-.7-.6-1.2-.1-.5-.2-1-.2-1.5v-6.2zM47.3 65.5h4v6.3c.3-.5.8-1 1.4-1.4.6-.4 1.4-.6 2.3-.6 1.4 0 2.4.4 3 1.3.6.9 1 2.2 1 3.8v7.3h-4v-6.6c0-.8-.1-1.3-.4-1.8s-.7-.6-1.3-.6c-.6 0-1 .2-1.4.7-.4.5-.5 1.3-.5 2.4v5.9h-4V65.5zM64.3 77.2c.1.9.4 1.6.9 2 .5.4 1 .6 1.6.6.5 0 .9-.1 1.3-.3.4-.2.7-.6 1-1L72 80c-.6.9-1.4 1.6-2.3 2-.9.4-2 .6-3.1.6-1 0-1.9-.2-2.7-.5-.8-.3-1.5-.8-2-1.3-.5-.6-.9-1.2-1.2-2-.3-.8-.4-1.6-.4-2.5 0-.9.1-1.8.4-2.6.3-.8.7-1.5 1.2-2 .5-.6 1.2-1 1.9-1.3.8-.3 1.6-.5 2.6-.5.9 0 1.8.2 2.5.5s1.3.8 1.8 1.3c.5.6.9 1.3 1.1 2.1.3.8.4 1.7.4 2.7v.7h-7.9zm2-4.4c-1.1 0-1.8.7-2 2.2h3.9c0-.6-.2-1.1-.5-1.5-.3-.5-.8-.7-1.4-.7zM73.5 70.2h3.6l.3 2.2c.4-.7.9-1.3 1.5-1.8s1.5-.7 2.6-.7V74c-.3-.1-.7-.1-1.3-.1-.3 0-.6 0-1 .1-.3.1-.6.2-.9.4-.3.2-.5.5-.7.9s-.3 1-.3 1.7v5.3h-4V70.2zM98.5 79.8c-.6 1-1.4 1.8-2.3 2.2-.9.5-2 .7-3.2.7-1.1 0-2-.2-2.8-.5s-1.4-.8-1.9-1.4-.9-1.2-1.1-2c-.2-.8-.4-1.6-.4-2.5 0-1 .1-1.9.4-2.7.3-.8.7-1.5 1.2-2 .5-.6 1.2-1 1.9-1.3.8-.3 1.6-.5 2.6-.5 1.2 0 2.3.3 3.2.8.9.5 1.6 1.3 2.2 2.3L95 74.5c-.2-.6-.5-1-.9-1.2-.3-.2-.7-.4-1.1-.4-.7 0-1.3.3-1.6.9-.3.6-.5 1.4-.5 2.3 0 .4 0 .8.1 1.2.1.4.2.8.3 1.1.2.3.4.6.7.9.3.2.7.3 1.2.3s1-.1 1.3-.4c.3-.3.6-.7.8-1.2l3.2 1.8zM104.7 82.7c-1 0-1.9-.2-2.7-.5-.8-.3-1.4-.8-1.9-1.3-.5-.6-.9-1.2-1.1-2-.3-.8-.4-1.6-.4-2.5 0-.9.1-1.8.4-2.6.3-.8.7-1.5 1.2-2 .5-.6 1.2-1 1.9-1.4.8-.3 1.6-.5 2.6-.5s1.9.2 2.6.5c.8.3 1.4.8 1.9 1.3.5.6.9 1.2 1.2 2 .3.8.4 1.6.4 2.6 0 .9-.1 1.8-.4 2.5s-.6 1.4-1.2 2c-.5.6-1.1 1-1.9 1.3s-1.6.6-2.6.6zm0-3.1c.7 0 1.1-.3 1.4-.9.3-.6.4-1.4.4-2.4s-.2-1.9-.5-2.5c-.3-.6-.8-.9-1.5-.9s-1.2.3-1.5.9c-.3.6-.5 1.4-.5 2.5 0 1 .2 1.8.5 2.4.5.6 1 .9 1.7.9zM112.1 70.2h3.6l.3 1.7c.3-.6.8-1.2 1.4-1.5.6-.4 1.3-.5 2.1-.5 1 0 1.7.2 2.3.7.5.4.9.9 1.2 1.5.1-.3.3-.5.5-.8.2-.3.4-.5.7-.7.3-.2.7-.4 1.1-.5.4-.1.9-.2 1.5-.2.9 0 1.5.1 2.1.4.5.3.9.7 1.2 1.1s.5 1 .6 1.6c.1.6.1 1.2.1 1.9v7.4h-4V76c0-.9-.1-1.6-.3-2-.2-.4-.6-.7-1.2-.7-.2 0-.4 0-.6.1-.2.1-.4.2-.6.4-.2.2-.3.5-.4.9s-.2.9-.2 1.5v6.1h-4v-6.4c0-.9-.1-1.5-.4-1.9-.2-.4-.6-.6-1.2-.6-.2 0-.4 0-.6.1s-.4.2-.6.4c-.2.2-.3.5-.4 1-.1.4-.2 1-.2 1.7v5.8h-4V70.2zM132.4 70.2h4v1.6c.3-.6.7-1 1.2-1.4.5-.4 1.2-.6 2.1-.6 1.3 0 2.4.5 3.3 1.6.8 1.1 1.3 2.6 1.3 4.7 0 1.3-.2 2.3-.5 3.1-.3.8-.7 1.5-1.1 2-.5.5-1 .8-1.5 1-.6.2-1.1.3-1.6.3-.6 0-1.2-.1-1.8-.3-.6-.2-1-.6-1.3-1v5.2h-4V70.2zm4 6.2c0 .4 0 .8.1 1.2.1.4.2.7.3 1s.4.5.6.6c.2.2.5.2.8.2.6 0 1-.3 1.3-.8.3-.5.5-1.3.5-2.3s-.2-1.8-.5-2.4c-.3-.5-.8-.8-1.4-.8-.3 0-.6.1-.8.2-.2.2-.4.4-.5.7l-.3.9c-.1.4-.1.7-.1 1.1v.4zM152.4 82.3c-.1-.2-.2-.4-.2-.7-.1-.3-.1-.5-.1-.8-.2.5-.6.9-1.1 1.3s-1.3.6-2.2.6c-.6 0-1.2-.1-1.7-.3-.5-.2-.9-.5-1.2-.8-.3-.3-.6-.8-.8-1.2s-.3-1-.3-1.5c0-.6.1-1.2.3-1.6.2-.5.5-.8.9-1.2.4-.3.9-.6 1.5-.8.6-.2 1.2-.3 1.9-.5l2.4-.4v-.3c0-.5-.1-.8-.4-1-.3-.2-.6-.3-1.1-.3-.7 0-1.4.1-1.9.4-.5.3-1 .6-1.4.9l-1.9-2.6.9-.6c.4-.2.8-.4 1.3-.6s1-.3 1.6-.4c.6-.1 1.2-.2 1.9-.2 1.8 0 3.1.4 3.8 1.1.8.8 1.2 1.9 1.2 3.5v5.6c0 .3 0 .6.1.9 0 .3.1.5.2.7.1.2.2.4.3.7h-4zm-.6-5.4l-1.6.3c-.6.1-1 .3-1.2.5-.3.2-.4.5-.4.9 0 .3.1.6.3.9.2.2.5.3.9.3.6 0 1-.2 1.4-.6.4-.4.6-1 .6-1.9v-.4zM157.7 70.2h3.6l.3 1.7c.4-.6.9-1.1 1.5-1.4s1.4-.6 2.2-.6c2.7 0 4 1.7 4 5.1v7.4h-4V76c0-.9-.1-1.6-.4-2-.3-.4-.7-.6-1.3-.6-.3 0-.5.1-.8.2-.2.1-.4.3-.6.5-.2.3-.3.6-.4 1-.1.4-.1.9-.1 1.6v5.7h-4V70.2zM171.1 65.4h4v3.2h-4v-3.2zm0 4.8h4v12.1h-4V70.2zM180.5 77.2c.1.9.4 1.6.9 2 .5.4 1 .6 1.6.6.5 0 .9-.1 1.3-.3s.7-.6 1-1l2.9 1.7c-.6.9-1.4 1.6-2.3 2-1 .4-2 .6-3.1.6-1 0-1.9-.2-2.7-.5s-1.5-.8-2-1.3c-.5-.6-.9-1.2-1.2-2-.3-.8-.4-1.6-.4-2.5 0-.9.1-1.8.4-2.6.3-.8.7-1.5 1.2-2 .5-.6 1.2-1 1.9-1.3.8-.3 1.6-.5 2.6-.5.9 0 1.8.2 2.5.5s1.3.8 1.8 1.3c.5.6.9 1.3 1.1 2.1.3.8.4 1.7.4 2.7v.7h-7.9zm2-4.4c-1.1 0-1.8.7-2 2.2h3.9c0-.6-.2-1.1-.5-1.5-.3-.5-.7-.7-1.4-.7zM190.6 78.3c.2.2.4.4.7.5.3.2.6.3.9.5s.7.3 1 .3c.3.1.7.1 1 .1.3 0 .6 0 .9-.1.3-.1.4-.3.4-.6s-.2-.5-.5-.7-.7-.3-1.2-.5c-.5-.1-1-.3-1.5-.4s-1.1-.4-1.5-.7c-.5-.3-.9-.7-1.2-1.1-.3-.5-.5-1.1-.5-1.8s.1-1.3.4-1.8c.3-.5.7-.9 1.1-1.2.5-.3 1-.6 1.6-.7s1.3-.2 1.9-.2c1.1 0 2 .1 2.9.4.8.3 1.6.6 2.2 1.1l-1.8 2.7c-.2-.1-.4-.3-.6-.4-.3-.1-.5-.3-.8-.4s-.6-.2-1-.3c-.3-.1-.7-.1-1-.1-.3 0-.5 0-.7.1s-.3.3-.3.5c0 .3.2.5.5.6.3.2.7.3 1.2.5s1 .3 1.5.5 1.1.4 1.5.7.9.7 1.2 1.1.5 1 .5 1.7-.2 1.3-.5 1.8-.7 1-1.2 1.3c-.5.3-1.1.6-1.7.8-.6.2-1.2.2-1.8.2-2.3 0-4.1-.6-5.6-1.7l2-2.7zM213.1 80.6c-.3.6-.7 1.1-1.3 1.4-.5.3-1.2.5-2 .5-.7 0-1.4-.1-2-.4-.6-.3-1.1-.7-1.5-1.2-.4-.5-.7-1.2-1-2-.2-.8-.4-1.7-.4-2.7 0-1.2.1-2.2.4-3 .3-.8.7-1.4 1.1-1.9.5-.5 1-.8 1.5-1 .6-.2 1.1-.3 1.7-.3.8 0 1.4.1 1.9.4.5.3.9.7 1.1 1.1v-5.9h4v16.8h-3.8v-1.8zm-.2-4.6c0-.4 0-.7-.1-1.1-.1-.3-.2-.7-.3-.9-.1-.3-.3-.5-.6-.7-.2-.2-.5-.2-.9-.2-.6 0-1.1.3-1.4.8-.3.5-.5 1.2-.5 2.2 0 1 .2 1.9.5 2.4s.8.9 1.4.9c.3 0 .6-.1.8-.2.2-.2.4-.4.5-.7.1-.3.2-.6.3-1 .1-.4.1-.8.1-1.2V76zM224.3 82.7c-1 0-1.9-.2-2.7-.5s-1.4-.8-1.9-1.3c-.5-.6-.9-1.2-1.1-2-.3-.8-.4-1.6-.4-2.5 0-.9.1-1.8.4-2.6.3-.8.7-1.5 1.2-2 .5-.6 1.2-1 1.9-1.4.8-.3 1.6-.5 2.6-.5s1.9.2 2.6.5c.8.3 1.4.8 1.9 1.3.5.6.9 1.2 1.2 2 .3.8.4 1.6.4 2.6 0 .9-.1 1.8-.4 2.5s-.6 1.4-1.2 2c-.5.6-1.1 1-1.9 1.3-.7.4-1.6.6-2.6.6zm.1-3.1c.7 0 1.1-.3 1.4-.9.3-.6.4-1.4.4-2.4s-.2-1.9-.5-2.5-.8-.9-1.5-.9-1.2.3-1.5.9-.5 1.4-.5 2.5c0 1 .2 1.8.5 2.4.4.6 1 .9 1.7.9zM231.7 70.2h3.6l.3 1.7c.4-.6.9-1.1 1.5-1.4s1.4-.6 2.2-.6c2.7 0 4 1.7 4 5.1v7.4h-4V76c0-.9-.1-1.6-.4-2-.3-.4-.7-.6-1.3-.6-.3 0-.5.1-.8.2-.2.1-.4.3-.6.5-.2.3-.3.6-.4 1-.1.4-.1.9-.1 1.6v5.7h-4V70.2zM244.7 72.9c.4-.2.8-.4 1-.6.3-.2.5-.4.6-.6.1-.2.2-.5.3-.7 0-.3.1-.5.1-.8v-.4h-2v-4.2h4.4v4.2c0 .7-.1 1.4-.2 1.9s-.4 1-.7 1.4c-.3.4-.7.7-1.1 1-.4.3-1 .5-1.6.8l-.8-2zM252 72.8h-1.9v-2.6h.3c.6 0 1.1-.1 1.5-.3.4-.2.6-.5.8-.8.2-.3.3-.7.4-1.2.1-.4.2-.9.3-1.3h2.5v3.6h2.5v2.6H256v5.6c0 .4.1.7.2.9s.5.4.9.4h.5c.2 0 .4-.1.6-.2l.3 2.8c-.4.2-.9.3-1.3.4s-.9.1-1.4.1c-.7 0-1.4-.1-1.9-.3-.5-.2-.9-.5-1.2-.8-.3-.3-.5-.7-.6-1.2-.1-.5-.2-1-.2-1.5v-6.2z"/><g><path class="copy-purpleFill" d="M32.2 106.9c-.6 1-1.4 1.8-2.3 2.2-.9.5-2 .7-3.2.7-1.1 0-2-.2-2.8-.5s-1.4-.8-1.9-1.4-.9-1.2-1.1-2c-.2-.8-.4-1.6-.4-2.5 0-1 .1-1.9.4-2.7.3-.8.7-1.5 1.2-2 .5-.6 1.2-1 1.9-1.3.8-.3 1.6-.5 2.6-.5 1.2 0 2.3.3 3.2.8.9.5 1.6 1.3 2.2 2.3l-3.3 1.6c-.2-.6-.5-1-.9-1.2-.3-.2-.7-.4-1.1-.4-.7 0-1.3.3-1.6.9-.3.6-.5 1.4-.5 2.3 0 .4 0 .8.1 1.2.1.4.2.8.3 1.1.2.3.4.6.7.9.3.2.7.3 1.2.3s1-.1 1.3-.4c.3-.3.6-.7.8-1.2l3.2 1.8zM33.1 92.6h4v6.3c.3-.5.8-1 1.4-1.4.6-.4 1.4-.6 2.3-.6 1.4 0 2.4.4 3 1.3.6.9 1 2.2 1 3.8v7.3h-4v-6.6c0-.8-.1-1.3-.4-1.8s-.7-.6-1.3-.6c-.6 0-1 .2-1.4.7-.4.5-.5 1.3-.5 2.4v5.9h-4V92.6zM50.1 104.3c.1.9.4 1.6.9 2 .5.4 1 .6 1.6.6.5 0 .9-.1 1.3-.3.4-.2.7-.6 1-1l2.9 1.7c-.6.9-1.4 1.6-2.3 2-.9.4-2 .6-3.1.6-1 0-1.9-.2-2.7-.5-.8-.3-1.5-.8-2-1.3-.5-.6-.9-1.2-1.2-2-.3-.8-.4-1.6-.4-2.5 0-.9.1-1.8.4-2.6.3-.8.7-1.5 1.2-2 .5-.6 1.2-1 1.9-1.3.8-.3 1.6-.5 2.6-.5.9 0 1.8.2 2.5.5s1.3.8 1.8 1.3c.5.6.9 1.3 1.1 2.1.3.8.4 1.7.4 2.7v.7h-7.9zm2-4.4c-1.1 0-1.8.7-2 2.2H54c0-.6-.2-1.1-.5-1.5-.3-.5-.8-.7-1.4-.7zM70.4 106.9c-.6 1-1.4 1.8-2.3 2.2-.9.5-2 .7-3.2.7-1.1 0-2-.2-2.8-.5s-1.4-.8-1.9-1.4-.9-1.2-1.1-2c-.2-.8-.4-1.6-.4-2.5 0-1 .1-1.9.4-2.7.3-.8.7-1.5 1.2-2 .5-.6 1.2-1 1.9-1.3.8-.3 1.6-.5 2.6-.5 1.2 0 2.3.3 3.2.8.9.5 1.6 1.3 2.2 2.3l-3.3 1.6c-.2-.6-.5-1-.9-1.2-.3-.2-.7-.4-1.1-.4-.7 0-1.3.3-1.6.9-.3.6-.5 1.4-.5 2.3 0 .4 0 .8.1 1.2.1.4.2.8.3 1.1.2.3.4.6.7.9.3.2.7.3 1.2.3s1-.1 1.3-.4c.3-.3.6-.7.8-1.2l3.2 1.8zM71.3 92.6h4v9.1l4-4.4h4.9l-4.7 4.6 4.7 7.5h-4.5l-2.7-5.1-1.6 1.5v3.6h-4V92.6zM90.9 99.9h-2v-2.6h1.8c-.1-.4-.2-.8-.3-1.1 0-.4-.1-.7-.1-.9 0-.4.1-.8.2-1.2.1-.4.3-.7.6-1 .3-.3.7-.5 1.2-.7.5-.2 1.2-.2 2-.2.7 0 1.3 0 1.8.1s.9.2 1.4.4l-.6 3c-.2-.1-.4-.2-.8-.3-.3-.1-.6-.1-.8-.1-.3 0-.5.1-.7.2-.2.1-.3.3-.3.6s0 .5.1.8.1.4.2.6H97v2.6h-2.2v9.5h-4v-9.7zM103.3 109.8c-1 0-1.9-.2-2.7-.5-.8-.3-1.4-.8-1.9-1.3-.5-.6-.9-1.2-1.1-2-.3-.8-.4-1.6-.4-2.5 0-.9.1-1.8.4-2.6.3-.8.7-1.5 1.2-2 .5-.6 1.2-1 1.9-1.4.8-.3 1.6-.5 2.6-.5s1.9.2 2.6.5c.8.3 1.4.8 1.9 1.3.5.6.9 1.2 1.2 2 .3.8.4 1.6.4 2.6 0 .9-.1 1.8-.4 2.5s-.6 1.4-1.2 2c-.5.6-1.1 1-1.9 1.3s-1.6.6-2.6.6zm.1-3.1c.7 0 1.1-.3 1.4-.9.3-.6.4-1.4.4-2.4s-.2-1.9-.5-2.5c-.3-.6-.8-.9-1.5-.9s-1.2.3-1.5.9c-.3.6-.5 1.4-.5 2.5 0 1 .2 1.8.5 2.4.5.6 1 .9 1.7.9zM110.7 97.3h3.6l.3 2.2c.4-.7.9-1.3 1.5-1.8s1.5-.7 2.6-.7v4.1c-.3-.1-.7-.1-1.3-.1-.3 0-.6 0-1 .1-.3.1-.6.2-.9.4-.3.2-.5.5-.7.9s-.3 1-.3 1.7v5.3h-4V97.3zM131.8 109.4c-.1-.2-.2-.4-.2-.7-.1-.3-.1-.5-.1-.8-.2.5-.6.9-1.1 1.3s-1.3.6-2.2.6c-.6 0-1.2-.1-1.7-.3-.5-.2-.9-.5-1.2-.8-.3-.3-.6-.8-.8-1.2s-.3-1-.3-1.5c0-.6.1-1.2.3-1.6.2-.5.5-.8.9-1.2.4-.3.9-.6 1.5-.8.6-.2 1.2-.3 1.9-.5l2.4-.4v-.3c0-.5-.1-.8-.4-1-.3-.2-.6-.3-1.1-.3-.7 0-1.4.1-1.9.4-.5.3-1 .6-1.4.9l-1.9-2.6.9-.6c.4-.2.8-.4 1.3-.6s1-.3 1.6-.4c.6-.1 1.2-.2 1.9-.2 1.8 0 3.1.4 3.8 1.1.8.8 1.2 1.9 1.2 3.5v5.6c0 .3 0 .6.1.9 0 .3.1.5.2.7.1.2.1.4.3.7h-4zm-.6-5.3l-1.6.3c-.6.1-1 .3-1.2.5-.3.2-.4.5-.4.9 0 .3.1.6.3.9.2.2.5.3.9.3.6 0 1-.2 1.4-.6.4-.4.6-1 .6-1.9v-.4zM147.9 106.9c-.6 1-1.4 1.8-2.3 2.2-.9.5-2 .7-3.2.7-1.1 0-2-.2-2.8-.5s-1.4-.8-1.9-1.4-.9-1.2-1.1-2c-.2-.8-.4-1.6-.4-2.5 0-1 .1-1.9.4-2.7.3-.8.7-1.5 1.2-2 .5-.6 1.2-1 1.9-1.3.8-.3 1.6-.5 2.6-.5 1.2 0 2.3.3 3.2.8.9.5 1.6 1.3 2.2 2.3l-3.3 1.6c-.2-.6-.5-1-.9-1.2-.3-.2-.7-.4-1.1-.4-.7 0-1.3.3-1.6.9-.3.6-.5 1.4-.5 2.3 0 .4 0 .8.1 1.2.1.4.2.8.3 1.1.2.3.4.6.7.9.3.2.7.3 1.2.3s1-.1 1.3-.4c.3-.3.6-.7.8-1.2l3.2 1.8zM159.6 106.9c-.6 1-1.4 1.8-2.3 2.2-.9.5-2 .7-3.2.7-1.1 0-2-.2-2.8-.5s-1.4-.8-1.9-1.4-.9-1.2-1.1-2c-.2-.8-.4-1.6-.4-2.5 0-1 .1-1.9.4-2.7.3-.8.7-1.5 1.2-2 .5-.6 1.2-1 1.9-1.3.8-.3 1.6-.5 2.6-.5 1.2 0 2.3.3 3.2.8.9.5 1.6 1.3 2.2 2.3l-3.3 1.6c-.2-.6-.5-1-.9-1.2-.3-.2-.7-.4-1.1-.4-.7 0-1.3.3-1.6.9-.3.6-.5 1.4-.5 2.3 0 .4 0 .8.1 1.2.1.4.2.8.3 1.1.2.3.4.6.7.9.3.2.7.3 1.2.3s1-.1 1.3-.4c.3-.3.6-.7.8-1.2l3.2 1.8zM160.5 97.3h4v6.6c0 .8.1 1.3.4 1.7.2.4.6.6 1.2.6s1.1-.2 1.5-.7c.3-.5.5-1.3.5-2.4v-5.8h4v12.1h-3.8v-1.8c-.3.6-.7 1.1-1.3 1.5s-1.3.6-2.3.6c-1.4 0-2.5-.4-3.2-1.2s-1-2-1-3.6v-7.6zM173.9 97.3h3.6l.3 2.2c.4-.7.9-1.3 1.5-1.8.7-.5 1.5-.7 2.6-.7v4.1c-.3-.1-.7-.1-1.3-.1-.3 0-.6 0-1 .1-.3.1-.6.2-.9.4-.3.2-.5.5-.7.9-.2.4-.3 1-.3 1.7v5.3h-4V97.3zM189.8 109.4c-.1-.2-.2-.4-.2-.7-.1-.3-.1-.5-.1-.8-.2.5-.6.9-1.1 1.3s-1.3.6-2.2.6c-.6 0-1.2-.1-1.7-.3s-.9-.5-1.2-.8c-.3-.3-.6-.8-.8-1.2s-.3-1-.3-1.5c0-.6.1-1.2.3-1.6.2-.5.5-.8.9-1.2s.9-.6 1.5-.8c.6-.2 1.2-.3 1.9-.5l2.4-.4v-.3c0-.5-.1-.8-.4-1-.3-.2-.6-.3-1.1-.3-.7 0-1.4.1-1.9.4-.5.3-1 .6-1.4.9l-1.9-2.6.9-.6c.4-.2.8-.4 1.3-.6s1-.3 1.6-.4c.6-.1 1.2-.2 1.9-.2 1.8 0 3.1.4 3.8 1.1.8.8 1.2 1.9 1.2 3.5v5.6c0 .3 0 .6.1.9 0 .3.1.5.2.7.1.2.2.4.3.7h-4zm-.6-5.3l-1.6.3c-.6.1-1 .3-1.2.5-.3.2-.4.5-.4.9 0 .3.1.6.3.9.2.2.5.3.9.3.6 0 1-.2 1.4-.6.4-.4.6-1 .6-1.9v-.4zM205.9 106.9c-.6 1-1.4 1.8-2.3 2.2-.9.5-2 .7-3.2.7-1.1 0-2-.2-2.8-.5s-1.4-.8-1.9-1.4c-.5-.6-.9-1.2-1.1-2-.2-.8-.4-1.6-.4-2.5 0-1 .1-1.9.4-2.7.3-.8.7-1.5 1.2-2 .5-.6 1.2-1 1.9-1.3.8-.3 1.6-.5 2.6-.5 1.2 0 2.3.3 3.2.8.9.5 1.6 1.3 2.2 2.3l-3.3 1.6c-.2-.6-.5-1-.9-1.2-.3-.2-.7-.4-1.1-.4-.7 0-1.3.3-1.6.9-.3.6-.5 1.4-.5 2.3 0 .4 0 .8.1 1.2.1.4.2.8.3 1.1.2.3.4.6.7.9.3.2.7.3 1.2.3s1-.1 1.3-.4c.3-.3.6-.7.8-1.2l3.2 1.8zM207 110.6c.3.1.6.2.9.2.3.1.6.1.8.1.4 0 .6-.1.8-.2.2-.2.4-.4.5-.8l-4.3-12.5h4.3l2.1 8.1 2-8.1h4.3l-4.2 12c-.2.7-.5 1.3-.7 1.8-.2.6-.5 1-.9 1.4-.4.4-.9.7-1.4.9-.6.2-1.3.3-2.3.3h-1.2c-.3 0-.5 0-.7-.1-.2 0-.4-.1-.5-.1l.5-3zM218 105h4.4v4.4H218V105z"/></g></svg>