<svg version="1.1" id="Layer_1" xmlns="https://www.w3.org/2000/svg" x="0" y="0" viewBox="0 0 300 250" xml:space="preserve"><style>.copy-purpleFill{fill:#662868}</style><path class="copy-purpleFill" d="M36.6 140.7c-.9 1.4-1.9 2.5-3.1 3.1-1.2.7-2.6 1-4.3 1-1.4 0-2.6-.2-3.7-.7-1.1-.4-2-1-2.7-1.8s-1.3-1.7-1.6-2.8c-.4-1.1-.5-2.2-.5-3.5 0-1.3.2-2.5.6-3.5.4-1.1.9-2 1.7-2.8.7-.8 1.6-1.4 2.7-1.8 1.1-.4 2.3-.6 3.6-.6 1.5 0 2.9.3 4.2.8 1.2.6 2.3 1.5 3.3 3l-4.1 2c-.3-.7-.8-1.2-1.3-1.6-.6-.4-1.2-.6-2-.6-.7 0-1.3.1-1.8.4-.5.3-.9.6-1.2 1.1-.3.5-.6 1-.7 1.6s-.2 1.3-.2 2 .1 1.3.3 2c.2.6.4 1.1.8 1.6.3.5.8.8 1.3 1.1.5.3 1.1.4 1.7.4.7 0 1.4-.2 1.9-.6s1-1 1.4-1.9l3.7 2.1zM37.5 132.4h3.6l.3 2.2c.4-.7.9-1.3 1.5-1.8.7-.5 1.5-.7 2.6-.7v4.1c-.3-.1-.7-.1-1.3-.1-.3 0-.6 0-1 .1-.3.1-.6.2-.9.4-.3.2-.5.5-.7.9-.2.4-.3 1-.3 1.7v5.3h-4v-12.1zM53.4 144.5c-.1-.2-.2-.4-.2-.7-.1-.3-.1-.5-.1-.8-.2.5-.6.9-1.1 1.3-.5.4-1.3.6-2.2.6-.6 0-1.2-.1-1.7-.3-.5-.2-.9-.5-1.2-.8-.3-.3-.6-.8-.8-1.2s-.3-1-.3-1.5c0-.6.1-1.2.3-1.6.2-.5.5-.8.9-1.2.4-.3.9-.6 1.5-.8.6-.2 1.2-.3 1.9-.5l2.4-.4v-.3c0-.5-.1-.8-.4-1-.3-.2-.6-.3-1.1-.3-.7 0-1.4.1-1.9.4-.5.3-1 .6-1.4.9l-1.9-2.6.9-.6c.4-.2.8-.4 1.3-.6s1-.3 1.6-.4c.6-.1 1.2-.2 1.9-.2 1.8 0 3.1.4 3.8 1.1.8.8 1.2 1.9 1.2 3.5v5.6c0 .3 0 .6.1.9 0 .3.1.5.2.7.1.2.1.4.3.7h-4zm-.6-5.4l-1.6.3c-.6.1-1 .3-1.2.5-.3.2-.4.5-.4.9 0 .3.1.6.3.9.2.2.5.3.9.3.6 0 1-.2 1.4-.6.4-.4.6-1 .6-1.9v-.4zM58.3 141.7l6.3-6.3h-6v-2.9h10.8v2.8l-6.4 6.3h6.8v2.9H58.3v-2.8zM71.3 145.7c.3.1.6.2.9.2.3.1.6.1.8.1.4 0 .6-.1.8-.2.2-.2.4-.4.5-.8L70 132.4h4.3l2.1 8.1 2-8.1h4.3l-4.2 12c-.2.7-.5 1.3-.7 1.8-.2.6-.5 1-.9 1.4-.4.4-.9.7-1.4.9s-1.3.3-2.3.3H72c-.3 0-.5 0-.7-.1-.2 0-.4-.1-.5-.1l.5-2.9zM82.4 147.6c.4-.2.8-.4 1-.6s.5-.4.6-.6.2-.5.3-.7.1-.5.1-.8v-.4h-2v-4.4h4.4v4.4c0 .7-.1 1.4-.2 1.9s-.4 1-.7 1.4-.7.7-1.1 1c-.4.3-1 .5-1.6.8l-.8-2zM93.6 132.4h3.6l.3 2.2c.4-.7.9-1.3 1.5-1.8.7-.5 1.5-.7 2.6-.7v4.1c-.3-.1-.7-.1-1.3-.1-.3 0-.6 0-1 .1-.3.1-.6.2-.9.4-.3.2-.5.5-.7.9-.2.4-.3 1-.3 1.7v5.3h-4v-12.1zM102.6 127.6h4v3.2h-4v-3.2zm0 4.8h4v12.1h-4v-12.1zM110 144.4c.5.5 1 .8 1.7 1.1.7.3 1.4.4 2.1.4.8 0 1.3-.2 1.6-.5.3-.3.4-.8.4-1.5v-1.1c-.3.4-.7.8-1.2 1-.5.3-1.2.4-2 .4-.6 0-1.1-.1-1.7-.3s-1.1-.5-1.5-1-.8-1.1-1.1-1.8c-.3-.8-.4-1.7-.4-2.8 0-1 .1-1.9.4-2.7s.6-1.4 1-2c.4-.5.9-.9 1.5-1.2.6-.3 1.2-.4 2-.4.7 0 1.4.2 1.9.5.6.3 1 .8 1.4 1.5l.5-1.6h3.2v11.4c0 .7-.1 1.4-.3 2.1-.2.6-.6 1.2-1 1.6s-1.1.8-1.8 1.1c-.8.3-1.7.4-2.7.4-.7 0-1.4-.1-2-.2-.6-.1-1.2-.2-1.6-.4-.5-.2-.9-.4-1.4-.6-.4-.2-.8-.4-1.1-.6l2.1-2.8zm5.7-6c0-.4 0-.7-.1-1.1-.1-.4-.2-.7-.3-.9-.1-.3-.3-.5-.6-.7-.2-.2-.5-.3-.9-.3-.3 0-.5.1-.7.2-.2.1-.4.3-.6.5s-.3.5-.4.9c-.1.4-.2.8-.2 1.4 0 1 .2 1.8.5 2.2.3.5.8.7 1.4.7.6 0 1-.2 1.3-.7.3-.5.4-1.2.4-2.1v-.1zM121.6 127.7h4v6.3c.3-.5.8-1 1.4-1.4.6-.4 1.4-.6 2.3-.6 1.4 0 2.4.4 3 1.3.6.9 1 2.2 1 3.8v7.3h-4v-6.6c0-.8-.1-1.3-.4-1.8s-.7-.6-1.3-.6c-.6 0-1 .2-1.4.7-.4.5-.5 1.3-.5 2.4v5.9h-4v-16.7zM136 135h-2v-2.6h.3c.6 0 1.1-.1 1.5-.3.4-.2.6-.5.8-.8.2-.3.3-.7.4-1.2.1-.4.2-.9.3-1.3h2.5v3.6h2.5v2.6h-2.5v5.6c0 .4.1.7.2.9.1.2.5.4.9.4h.5c.2 0 .4-.1.6-.2l.3 2.8c-.4.2-.9.3-1.3.4-.4.1-.9.1-1.4.1-.7 0-1.4-.1-1.9-.3-.5-.2-.9-.5-1.2-.8s-.5-.7-.6-1.2-.2-1-.2-1.5V135zM146.5 138.6v-.4-.3c0-.3 0-.6.1-.8.1-.2.2-.5.3-.7.1-.2.2-.4.4-.5.1-.2.3-.3.4-.4.3-.3.7-.6 1-.9s.7-.5.9-.8.5-.5.6-.8c.2-.3.2-.6.2-1 0-.5-.2-.9-.6-1.2-.4-.3-.8-.4-1.3-.4-.6 0-1.1.2-1.5.5-.4.4-.7.8-.9 1.4l-3.5-1.4c.5-1.2 1.2-2.1 2.3-2.7 1.1-.6 2.4-.9 4-.9 2 0 3.5.4 4.6 1.2 1.1.8 1.6 1.9 1.6 3.3 0 .3 0 .5-.1.8l-.3.9c-.1.3-.4.6-.6.9-.3.3-.6.6-1.1 1-.2.2-.5.4-.8.5s-.6.4-.8.6c-.3.2-.5.4-.7.7s-.3.5-.4.8c0 .1-.1.2-.1.3v.2h-3.7zm-.3 1.5h4.4v4.4h-4.4v-4.4z"/></svg>