<svg version="1.1" id="Layer_1" xmlns="https://www.w3.org/2000/svg" x="0" y="0" viewBox="0 0 98.5 8.8" xml:space="preserve"><style>.cta-whiteFill{fill:#fff}</style><path class="cta-whiteFill" d="M3.3.2h1.9l3.3 8.4H6.2l-.5-1.7H2.8l-.6 1.7H0L3.3.2zm1.8 5.1c-.2-.5-.3-.9-.5-1.3-.1-.4-.2-.8-.4-1.3-.1.4-.2.9-.4 1.3s-.3.8-.4 1.3h1.7zM16.5 6.7c-.5.8-1 1.3-1.6 1.6s-1.3.5-2.2.5c-.7 0-1.3-.1-1.9-.3-.5-.2-1-.5-1.4-.9-.2-.4-.5-.9-.7-1.4-.2-.6-.3-1.2-.3-1.8 0-.7.1-1.2.3-1.8s.5-1 .8-1.4c.4-.4.8-.7 1.3-.9.6-.2 1.2-.3 1.9-.3.8 0 1.5.1 2.1.4.6.3 1.2.8 1.6 1.5l-2.1 1c-.2-.3-.4-.6-.7-.8-.3-.2-.6-.3-1-.3s-.7.1-.9.2-.5.3-.6.5c-.2.2-.3.5-.4.8-.1.3-.1.6-.1 1s0 .7.1 1c.1.3.2.6.4.8.2.2.4.4.6.5s.5.2.9.2.7-.1 1-.3.5-.5.7-1l2.2 1.2zM25 6.7c-.5.8-1 1.3-1.6 1.6s-1.3.5-2.2.5c-.7 0-1.3-.1-1.9-.3-.5-.2-1-.5-1.4-.9-.4-.4-.6-.9-.8-1.4-.1-.6-.2-1.2-.2-1.8 0-.7.1-1.2.3-1.8s.5-1 .8-1.4c.4-.4.8-.7 1.3-.9.6-.2 1.2-.3 1.9-.3.8 0 1.5.1 2.1.4.6.3 1.2.8 1.6 1.5l-2.1 1c-.2-.3-.4-.6-.7-.8-.3-.2-.6-.3-1-.3s-.7.1-.9.2-.5.3-.6.5c-.2.2-.3.5-.4.8-.1.3-.1.6-.1 1s0 .7.1 1c.1.3.2.6.4.8.2.2.4.4.6.5s.5.2.9.2.7-.1 1-.3.5-.5.7-1L25 6.7zM25.9.2H28v5.3c0 .5.1.9.4 1.1.2.2.6.3 1 .3s.8-.1 1-.3c.2-.2.3-.6.3-1.1V.2h2.2v6.1c0 .2-.1.5-.2.7-.1.2-.2.5-.3.7l-.6.6c-.3.2-.6.3-1 .4-.4.1-.8.2-1.4.2-.5 0-1-.1-1.4-.2-.4-.1-.7-.2-1-.4-.3-.2-.5-.4-.6-.6s-.2-.5-.3-.7c-.1-.3-.1-.5-.2-.7V.2zM34.3.2h3.5c.4 0 .9 0 1.3.1s.8.2 1.1.4.6.5.8.8c.2.3.3.8.3 1.3 0 .4-.1.7-.2.9-.1.3-.3.5-.5.6-.2.2-.4.3-.7.4-.3.2-.5.3-.8.3.2 0 .4.1.6.2.2.1.3.3.5.5l1.6 2.8h-2.5l-1-2c-.1-.2-.2-.3-.3-.4s-.2-.1-.3-.2-.2-.1-.3-.1h-.9v2.8h-2.2V.2zm3.4 3.9h.4c.1 0 .3-.1.4-.2.1-.1.2-.2.3-.4.1-.2.1-.4.1-.6 0-.2 0-.4-.1-.5-.1-.1-.2-.3-.3-.3-.1-.1-.3-.1-.4-.2h-1.6v2.3h1.2zM45.3.2h1.9l3.3 8.4h-2.3l-.6-1.7h-2.9l-.6 1.7H42L45.3.2zM47 5.3c-.1-.4-.3-.8-.4-1.2-.1-.4-.3-.9-.4-1.4-.1.5-.3.9-.4 1.4s-.3.8-.4 1.3H47zM58.4 6.7c-.4.8-.9 1.3-1.5 1.6s-1.3.5-2.2.5c-.7 0-1.3-.1-1.9-.3-.5-.2-1-.5-1.4-.9-.4-.4-.6-.9-.8-1.4-.2-.5-.3-1.1-.3-1.8s.1-1.2.3-1.8.5-1 .8-1.4c.4-.4.8-.7 1.3-.9.7-.2 1.3-.3 2-.3.8 0 1.5.1 2.1.4.6.3 1.2.8 1.6 1.5l-2.1 1c-.2-.3-.4-.6-.7-.8-.3-.2-.6-.3-1-.3s-.7.1-.9.2-.5.3-.6.5c-.2.2-.3.5-.4.8-.1.3-.1.6-.1 1s0 .7.1 1c.2.4.3.7.5.9.2.2.4.4.6.5s.5.2.9.2.7-.1 1-.3.5-.5.7-1l2 1.1zM61.4 4.9L58.3.2h2.4l1.7 3.1L64.2.2h2.4l-3.2 4.7v3.8h-2.2V4.9zM69.9.2h3.6c.4 0 .8 0 1.2.1.4.1.7.2 1.1.5.3.2.6.5.8.8.2.3.3.8.3 1.3s-.1 1-.3 1.4c-.2.4-.4.7-.7.9-.3.2-.6.4-1 .5s-.9.1-1.4.1h-1.4v2.8h-2.2V.2zm3.3 3.9h.5c.2 0 .3-.1.4-.2.1-.1.2-.2.3-.4.1-.2.1-.4.1-.6 0-.2 0-.4-.1-.5-.1-.1-.2-.3-.3-.3-.1-.1-.3-.2-.4-.2s-.3-.1-.5-.1h-1.1v2.3h1.1zM79.5.2h1.9l3.3 8.4h-2.3l-.6-1.7H79l-.6 1.7h-2.2L79.5.2zm1.7 5.1c-.1-.5-.2-.9-.4-1.3-.1-.4-.3-.9-.4-1.4-.1.5-.3 1-.4 1.4s-.3.8-.4 1.3h1.6zM86.4 4.9L83.3.2h2.4l1.7 3.1L89.2.2h2.4l-3.2 4.7v3.8h-2.2V4.9zM92.9 6l.3.3c.1.1.3.2.5.3.2.1.4.2.6.2.3.2.5.2.8.2.4 0 .7-.1.9-.2.2-.1.3-.3.3-.5s0-.3-.1-.4-.2-.2-.4-.3c-.2-.1-.4-.1-.7-.2-.3-.1-.6-.1-.9-.2-.8-.2-1.4-.5-1.8-.9-.4-.4-.5-.9-.5-1.6 0-.4.1-.7.2-1s.4-.6.6-.9c.3-.3.6-.5 1.1-.6.3-.1.8-.2 1.3-.2.6 0 1.3.1 1.9.3.6.2 1.1.6 1.5 1L97 2.7c-.2-.3-.5-.5-.8-.6-.3-.2-.7-.3-1.2-.3-.2 0-.4 0-.5.1-.1 0-.2.1-.3.1-.1 0-.1.1-.2.2v.2c0 .2.1.4.3.5s.6.3 1.1.4c.6.2 1.1.3 1.5.5.4.2.7.4.9.6s.4.5.5.7c.1.3.1.6.1.9 0 .4-.1.8-.3 1.2-.2.3-.4.6-.8.9-.3.2-.7.4-1.1.5-.4.1-.9.2-1.3.2s-.9 0-1.2-.1c-.4-.1-.7-.2-1-.3s-.5-.2-.7-.4c-.2-.2-.4-.3-.5-.5L92.9 6z"/></svg>