<?xml version="1.0" encoding="utf-8"?>
<!-- Generator: Adobe Illustrator 22.1.0, SVG Export Plug-In . SVG Version: 6.00 Build 0)  -->
<svg version="1.1" id="Layer_1" xmlns="https://www.w3.org/2000/svg" xmlns:xlink="https//www.w3.org/1999/xlink" x="0px" y="0px"
	 viewBox="0 0 300 250" style="enable-background:new 0 0 300 250;" xml:space="preserve">
<style type="text/css">
	.purpleFill{fill:#662868;}
</style>
<g>
	<path class="purpleFill" d="M28,67.3h3.8v9.5c0,0.9,0.2,1.6,0.6,2c0.4,0.4,1,0.6,1.8,0.6s1.4-0.2,1.8-0.6c0.4-0.4,0.6-1,0.6-1.9v-9.6h3.8
		v9.8c0,0.3,0,0.7-0.1,1.1c0,0.4-0.1,0.8-0.3,1.2c-0.1,0.4-0.3,0.8-0.6,1.2c-0.3,0.4-0.6,0.7-1.1,1c-0.5,0.3-1,0.5-1.7,0.7
		c-0.7,0.2-1.5,0.3-2.5,0.3s-1.8-0.1-2.4-0.3c-0.7-0.2-1.2-0.4-1.7-0.7c-0.5-0.3-0.8-0.7-1.1-1c-0.3-0.4-0.5-0.8-0.6-1.2
		c-0.1-0.4-0.2-0.8-0.3-1.2c0-0.4-0.1-0.8-0.1-1.1V67.3z"/>
	<path class="purpleFill" d="M42.4,71.5H46v1.4c0.2-0.5,0.6-0.9,1.1-1.2c0.5-0.3,1.1-0.5,1.9-0.5c1.2,0,2.2,0.5,2.9,1.4
		c0.8,0.9,1.1,2.4,1.1,4.2c0,1.1-0.1,2.1-0.4,2.8c-0.3,0.7-0.6,1.3-1,1.8c-0.4,0.4-0.9,0.8-1.4,0.9c-0.5,0.2-1,0.3-1.5,0.3
		c-0.5,0-1.1-0.1-1.6-0.3c-0.5-0.2-0.9-0.5-1.1-0.9v4.7h-3.6V71.5z M46,77.1c0,0.4,0,0.7,0.1,1.1c0.1,0.3,0.2,0.6,0.3,0.9
		c0.1,0.2,0.3,0.4,0.5,0.6c0.2,0.1,0.5,0.2,0.7,0.2c0.5,0,0.9-0.2,1.2-0.7s0.4-1.2,0.4-2.1s-0.1-1.6-0.4-2.1
		c-0.3-0.5-0.7-0.7-1.3-0.7c-0.3,0-0.5,0.1-0.7,0.2s-0.4,0.3-0.5,0.6c-0.1,0.2-0.2,0.5-0.3,0.8s-0.1,0.7-0.1,1V77.1z"/>
	<path class="purpleFill" d="M55.5,82.3c0.4,0.4,0.9,0.7,1.5,1c0.6,0.2,1.2,0.4,1.9,0.4c0.7,0,1.1-0.1,1.4-0.4c0.2-0.3,0.4-0.7,0.4-1.3v-1
		c-0.2,0.4-0.6,0.7-1.1,0.9c-0.5,0.3-1.1,0.4-1.8,0.4c-0.5,0-1-0.1-1.5-0.3c-0.5-0.2-1-0.5-1.4-0.9c-0.4-0.4-0.7-1-1-1.6
		c-0.2-0.7-0.4-1.5-0.4-2.5c0-0.9,0.1-1.7,0.3-2.4c0.2-0.7,0.5-1.3,0.9-1.8c0.4-0.5,0.8-0.9,1.4-1.1c0.5-0.2,1.1-0.4,1.8-0.4
		c0.7,0,1.3,0.1,1.8,0.4s0.9,0.7,1.2,1.3l0.5-1.5h2.8v10.3c0,0.7-0.1,1.3-0.3,1.8c-0.2,0.6-0.5,1-0.9,1.5c-0.4,0.4-1,0.7-1.7,1
		c-0.7,0.2-1.5,0.3-2.4,0.3c-0.6,0-1.2,0-1.8-0.1c-0.5-0.1-1-0.2-1.5-0.4s-0.9-0.3-1.2-0.5c-0.4-0.2-0.7-0.4-1-0.5L55.5,82.3z
		 M60.7,76.9c0-0.3,0-0.7-0.1-1s-0.1-0.6-0.3-0.9c-0.1-0.2-0.3-0.5-0.5-0.6c-0.2-0.2-0.5-0.2-0.8-0.2c-0.2,0-0.4,0-0.7,0.1
		c-0.2,0.1-0.4,0.2-0.5,0.5c-0.1,0.2-0.3,0.5-0.4,0.8c-0.1,0.3-0.1,0.8-0.1,1.3c0,0.9,0.2,1.6,0.5,2c0.3,0.4,0.7,0.6,1.3,0.6
		c0.5,0,0.9-0.2,1.2-0.6c0.3-0.4,0.4-1,0.4-1.9V76.9z"/>
	<path class="purpleFill" d="M66,71.5h3.2l0.3,2c0.3-0.7,0.8-1.2,1.4-1.7c0.6-0.4,1.4-0.7,2.4-0.7v3.7c-0.3-0.1-0.6-0.1-1.1-0.1
		c-0.3,0-0.6,0-0.9,0.1c-0.3,0-0.6,0.2-0.8,0.4c-0.2,0.2-0.5,0.5-0.6,0.9c-0.2,0.4-0.2,0.9-0.2,1.6v4.8H66V71.5z"/>
	<path class="purpleFill" d="M80.3,82.4c-0.1-0.2-0.2-0.4-0.2-0.6C80,81.5,80,81.3,80,81.1c-0.2,0.4-0.5,0.8-1,1.1c-0.5,0.3-1.1,0.5-2,0.5
		c-0.6,0-1.1-0.1-1.5-0.3c-0.4-0.2-0.8-0.4-1.1-0.7c-0.3-0.3-0.5-0.7-0.7-1.1c-0.2-0.4-0.2-0.9-0.2-1.4c0-0.6,0.1-1,0.3-1.4
		c0.2-0.4,0.5-0.8,0.8-1c0.4-0.3,0.8-0.5,1.3-0.7c0.5-0.2,1.1-0.3,1.7-0.4l2.2-0.3v-0.2c0-0.5-0.1-0.8-0.4-0.9
		c-0.2-0.2-0.6-0.2-1-0.2c-0.7,0-1.2,0.1-1.7,0.4c-0.5,0.2-0.9,0.5-1.3,0.9l-1.7-2.4c0.2-0.2,0.5-0.4,0.8-0.6
		c0.3-0.2,0.7-0.4,1.1-0.5c0.4-0.1,0.9-0.3,1.4-0.4c0.5-0.1,1.1-0.1,1.7-0.1c1.6,0,2.8,0.3,3.4,1c0.7,0.7,1,1.7,1,3.1v3.9
		c0,0.5,0,0.8,0,1.1c0,0.3,0,0.6,0.1,0.8s0.1,0.4,0.1,0.6c0.1,0.2,0.1,0.4,0.2,0.6H80.3z M79.7,77.6l-1.5,0.3
		c-0.5,0.1-0.9,0.2-1.1,0.4c-0.2,0.2-0.3,0.5-0.3,0.8c0,0.3,0.1,0.6,0.3,0.8c0.2,0.2,0.5,0.3,0.8,0.3c0.5,0,0.9-0.2,1.3-0.6
		c0.3-0.4,0.5-0.9,0.5-1.7V77.6z"/>
	<path class="purpleFill" d="M91.6,80.9c-0.3,0.6-0.7,1-1.1,1.3s-1.1,0.4-1.8,0.4c-0.6,0-1.2-0.1-1.8-0.4s-1-0.6-1.4-1.1
		c-0.4-0.5-0.7-1.1-0.9-1.8s-0.3-1.5-0.3-2.5c0-1.1,0.1-2,0.4-2.7c0.3-0.7,0.6-1.3,1-1.7c0.4-0.4,0.9-0.8,1.4-0.9
		c0.5-0.2,1-0.3,1.5-0.3c0.7,0,1.3,0.1,1.7,0.4c0.5,0.3,0.8,0.6,1,1v-5.3H95v15.1h-3.4V80.9z M91.4,76.7c0-0.3,0-0.7-0.1-1
		c-0.1-0.3-0.1-0.6-0.3-0.8s-0.3-0.4-0.5-0.6c-0.2-0.1-0.5-0.2-0.8-0.2c-0.5,0-0.9,0.2-1.2,0.7c-0.3,0.5-0.4,1.1-0.4,2
		c0,0.9,0.2,1.7,0.5,2.2c0.3,0.5,0.7,0.8,1.2,0.8c0.3,0,0.5-0.1,0.7-0.2s0.4-0.4,0.5-0.6s0.2-0.6,0.3-0.9c0.1-0.3,0.1-0.7,0.1-1.1
		V76.7z"/>
	<path class="purpleFill" d="M99.9,77.8c0.1,0.8,0.4,1.4,0.8,1.8s0.9,0.5,1.4,0.5c0.5,0,0.9-0.1,1.2-0.3c0.3-0.2,0.6-0.5,0.9-0.9l2.6,1.5
		c-0.5,0.8-1.2,1.4-2.1,1.8s-1.8,0.6-2.8,0.6c-0.9,0-1.7-0.1-2.5-0.4c-0.7-0.3-1.3-0.7-1.8-1.2c-0.5-0.5-0.9-1.1-1.1-1.8
		c-0.2-0.7-0.4-1.5-0.4-2.3c0-0.8,0.1-1.6,0.4-2.3c0.3-0.7,0.6-1.3,1.1-1.8c0.5-0.5,1.1-0.9,1.7-1.2c0.7-0.3,1.5-0.4,2.3-0.4
		c0.8,0,1.6,0.1,2.2,0.4c0.7,0.3,1.2,0.7,1.7,1.2s0.8,1.1,1,1.9c0.2,0.7,0.4,1.6,0.4,2.5c0,0.2,0,0.3,0,0.4c0,0.1,0,0.2,0,0.2H99.9z
		 M101.6,73.8c-1,0-1.6,0.7-1.8,2h3.5c0-0.5-0.1-1-0.4-1.4S102.2,73.8,101.6,73.8z"/>
	<path class="purpleFill" d="M112.8,83.4c0.3,0.1,0.5,0.2,0.8,0.2c0.3,0.1,0.5,0.1,0.7,0.1c0.3,0,0.6-0.1,0.8-0.2c0.2-0.1,0.3-0.4,0.4-0.8
		l-3.9-11.3h3.9l1.9,7.3l1.8-7.3h3.9l-3.8,10.8c-0.2,0.6-0.4,1.1-0.6,1.6c-0.2,0.5-0.5,0.9-0.8,1.3c-0.3,0.4-0.8,0.6-1.3,0.9
		c-0.5,0.2-1.2,0.3-2,0.3c-0.1,0-0.3,0-0.5,0c-0.2,0-0.4,0-0.6,0c-0.2,0-0.4,0-0.6-0.1c-0.2,0-0.3-0.1-0.5-0.1L112.8,83.4z"/>
	<path class="purpleFill" d="M128.4,82.7c-0.9,0-1.7-0.1-2.4-0.4s-1.3-0.7-1.7-1.2c-0.5-0.5-0.8-1.1-1-1.8c-0.2-0.7-0.3-1.5-0.3-2.3
		c0-0.8,0.1-1.6,0.4-2.3s0.6-1.3,1.1-1.8c0.5-0.5,1-0.9,1.7-1.2c0.7-0.3,1.5-0.4,2.4-0.4c0.9,0,1.7,0.1,2.4,0.4
		c0.7,0.3,1.3,0.7,1.7,1.2c0.5,0.5,0.8,1.1,1,1.8c0.2,0.7,0.4,1.5,0.4,2.3c0,0.8-0.1,1.6-0.4,2.3c-0.2,0.7-0.6,1.3-1,1.8
		c-0.5,0.5-1,0.9-1.7,1.2C130,82.6,129.3,82.7,128.4,82.7z M128.4,80c0.6,0,1-0.3,1.3-0.8c0.3-0.5,0.4-1.3,0.4-2.2s-0.1-1.7-0.4-2.2
		c-0.3-0.6-0.7-0.8-1.3-0.8s-1,0.3-1.3,0.8c-0.3,0.6-0.4,1.3-0.4,2.2s0.1,1.7,0.4,2.2C127.3,79.7,127.8,80,128.4,80z"/>
	<path class="purpleFill" d="M135,71.5h3.6v6c0,0.7,0.1,1.2,0.3,1.5c0.2,0.3,0.6,0.5,1.1,0.5c0.6,0,1-0.2,1.3-0.7c0.3-0.4,0.5-1.2,0.5-2.1
		v-5.3h3.6v10.9H142v-1.6c-0.3,0.6-0.7,1-1.2,1.4c-0.5,0.3-1.2,0.5-2.1,0.5c-1.3,0-2.2-0.4-2.9-1.1c-0.6-0.7-0.9-1.8-0.9-3.2V71.5z"
		/>
	<path class="purpleFill" d="M147,71.5h3.2l0.3,2c0.3-0.7,0.8-1.2,1.4-1.7c0.6-0.4,1.4-0.7,2.4-0.7v3.7c-0.3-0.1-0.6-0.1-1.1-0.1
		c-0.3,0-0.6,0-0.9,0.1s-0.6,0.2-0.8,0.4c-0.2,0.2-0.5,0.5-0.6,0.9c-0.2,0.4-0.2,0.9-0.2,1.6v4.8H147V71.5z"/>
</g>
<g>
	<path class="purpleFill" d="M28.8,101.1c0.2,0.2,0.4,0.3,0.6,0.5c0.2,0.2,0.5,0.3,0.8,0.4c0.3,0.1,0.6,0.2,0.9,0.3
		c0.3,0.1,0.6,0.1,0.9,0.1c0.3,0,0.5,0,0.8-0.1c0.3-0.1,0.4-0.3,0.4-0.5c0-0.3-0.1-0.5-0.4-0.6s-0.6-0.3-1.1-0.4
		c-0.4-0.1-0.9-0.3-1.4-0.4c-0.5-0.1-1-0.3-1.4-0.6s-0.8-0.6-1.1-1c-0.3-0.4-0.4-1-0.4-1.7c0-0.6,0.1-1.1,0.4-1.6
		c0.3-0.5,0.6-0.8,1-1.1c0.4-0.3,0.9-0.5,1.5-0.7c0.6-0.1,1.1-0.2,1.7-0.2c1,0,1.8,0.1,2.6,0.3c0.7,0.2,1.4,0.5,2,1l-1.6,2.4
		c-0.1-0.1-0.3-0.3-0.6-0.4c-0.2-0.1-0.5-0.2-0.8-0.4c-0.3-0.1-0.6-0.2-0.9-0.3s-0.6-0.1-0.9-0.1c-0.2,0-0.4,0-0.6,0.1
		s-0.2,0.2-0.2,0.5c0,0.2,0.1,0.4,0.4,0.6c0.3,0.1,0.6,0.3,1.1,0.4s0.9,0.3,1.4,0.4c0.5,0.2,0.9,0.4,1.4,0.6c0.4,0.3,0.8,0.6,1.1,1
		c0.3,0.4,0.4,0.9,0.4,1.6s-0.1,1.2-0.4,1.6s-0.6,0.9-1.1,1.2c-0.4,0.3-1,0.5-1.5,0.7c-0.6,0.1-1.1,0.2-1.6,0.2c-2,0-3.7-0.5-5-1.5
		L28.8,101.1z"/>
	<path class="purpleFill" d="M44.3,104.7c-0.1-0.2-0.2-0.4-0.2-0.6c-0.1-0.3-0.1-0.5-0.1-0.7c-0.2,0.4-0.5,0.8-1,1.1
		c-0.5,0.3-1.1,0.5-2,0.5c-0.6,0-1.1-0.1-1.5-0.3c-0.4-0.2-0.8-0.4-1.1-0.7c-0.3-0.3-0.5-0.7-0.7-1.1c-0.2-0.4-0.2-0.9-0.2-1.4
		c0-0.6,0.1-1,0.3-1.4c0.2-0.4,0.5-0.8,0.8-1c0.4-0.3,0.8-0.5,1.3-0.7c0.5-0.2,1.1-0.3,1.7-0.4l2.2-0.3v-0.2c0-0.5-0.1-0.8-0.4-0.9
		c-0.2-0.2-0.6-0.2-1-0.2c-0.7,0-1.2,0.1-1.7,0.4c-0.5,0.2-0.9,0.5-1.3,0.9l-1.7-2.4c0.2-0.2,0.5-0.4,0.8-0.6
		c0.3-0.2,0.7-0.4,1.1-0.5c0.4-0.1,0.9-0.3,1.4-0.4c0.5-0.1,1.1-0.1,1.7-0.1c1.6,0,2.8,0.3,3.4,1c0.7,0.7,1,1.7,1,3.1v3.9
		c0,0.5,0,0.8,0,1.1c0,0.3,0,0.6,0.1,0.8s0.1,0.4,0.1,0.6c0.1,0.2,0.1,0.4,0.2,0.6H44.3z M43.8,99.9l-1.5,0.3
		c-0.5,0.1-0.9,0.2-1.1,0.4c-0.2,0.2-0.3,0.5-0.3,0.8c0,0.3,0.1,0.6,0.3,0.8c0.2,0.2,0.5,0.3,0.8,0.3c0.5,0,0.9-0.2,1.3-0.6
		c0.3-0.4,0.5-0.9,0.5-1.7V99.9z"/>
	<path class="purpleFill" d="M47.7,93.9h4l1.8,7.5l1.7-7.5h3.8l-3.6,10.9h-4.2L47.7,93.9z"/>
	<path class="purpleFill" d="M59.7,89.6h3.6v2.9h-3.6V89.6z M59.7,93.9h3.6v10.9h-3.6V93.9z"/>
	<path class="purpleFill" d="M65,93.9h3.2l0.3,1.5c0.3-0.5,0.8-0.9,1.4-1.3c0.6-0.4,1.3-0.5,2-0.5c2.4,0,3.6,1.5,3.6,4.6v6.6h-3.6V99
		c0-0.9-0.1-1.5-0.4-1.8c-0.3-0.3-0.6-0.5-1.2-0.5c-0.3,0-0.5,0-0.7,0.1c-0.2,0.1-0.4,0.3-0.6,0.5c-0.2,0.2-0.3,0.5-0.4,0.9
		s-0.1,0.8-0.1,1.4v5.1H65V93.9z"/>
	<path class="purpleFill" d="M78.4,104.7c0.4,0.4,0.9,0.7,1.5,1c0.6,0.2,1.2,0.4,1.9,0.4c0.7,0,1.1-0.1,1.4-0.4c0.2-0.3,0.4-0.7,0.4-1.3v-1
		c-0.2,0.4-0.6,0.7-1.1,0.9c-0.5,0.3-1.1,0.4-1.8,0.4c-0.5,0-1-0.1-1.5-0.3c-0.5-0.2-1-0.5-1.4-0.9c-0.4-0.4-0.7-1-1-1.6
		c-0.2-0.7-0.4-1.5-0.4-2.5c0-0.9,0.1-1.7,0.3-2.4c0.2-0.7,0.5-1.3,0.9-1.8c0.4-0.5,0.8-0.9,1.4-1.1c0.5-0.2,1.1-0.4,1.8-0.4
		c0.7,0,1.3,0.1,1.8,0.4s0.9,0.7,1.2,1.3l0.5-1.5h2.8v10.3c0,0.7-0.1,1.3-0.3,1.8c-0.2,0.6-0.5,1-0.9,1.5c-0.4,0.4-1,0.7-1.7,1
		c-0.7,0.2-1.5,0.3-2.4,0.3c-0.6,0-1.2,0-1.8-0.1c-0.5-0.1-1-0.2-1.5-0.4s-0.9-0.3-1.2-0.5c-0.4-0.2-0.7-0.4-1-0.5L78.4,104.7z
		 M83.7,99.2c0-0.3,0-0.7-0.1-1s-0.1-0.6-0.3-0.9c-0.1-0.2-0.3-0.5-0.5-0.6c-0.2-0.2-0.5-0.2-0.8-0.2c-0.2,0-0.4,0-0.7,0.1
		c-0.2,0.1-0.4,0.2-0.5,0.5c-0.1,0.2-0.3,0.5-0.4,0.8c-0.1,0.3-0.1,0.8-0.1,1.3c0,0.9,0.2,1.6,0.5,2c0.3,0.4,0.7,0.6,1.3,0.6
		c0.5,0,0.9-0.2,1.2-0.6c0.3-0.4,0.4-1,0.4-1.9V99.2z"/>
	<path class="purpleFill" d="M89.9,101.1c0.2,0.2,0.4,0.3,0.6,0.5c0.2,0.2,0.5,0.3,0.8,0.4c0.3,0.1,0.6,0.2,0.9,0.3
		c0.3,0.1,0.6,0.1,0.9,0.1c0.3,0,0.5,0,0.8-0.1c0.3-0.1,0.4-0.3,0.4-0.5c0-0.3-0.1-0.5-0.4-0.6s-0.6-0.3-1.1-0.4
		c-0.4-0.1-0.9-0.3-1.4-0.4c-0.5-0.1-1-0.3-1.4-0.6s-0.8-0.6-1.1-1c-0.3-0.4-0.4-1-0.4-1.7c0-0.6,0.1-1.1,0.4-1.6
		c0.3-0.5,0.6-0.8,1-1.1c0.4-0.3,0.9-0.5,1.5-0.7c0.6-0.1,1.1-0.2,1.7-0.2c1,0,1.8,0.1,2.6,0.3c0.7,0.2,1.4,0.5,2,1l-1.6,2.4
		c-0.1-0.1-0.3-0.3-0.6-0.4c-0.2-0.1-0.5-0.2-0.8-0.4c-0.3-0.1-0.6-0.2-0.9-0.3s-0.6-0.1-0.9-0.1c-0.2,0-0.4,0-0.6,0.1
		s-0.2,0.2-0.2,0.5c0,0.2,0.1,0.4,0.4,0.6c0.3,0.1,0.6,0.3,1.1,0.4s0.9,0.3,1.4,0.4c0.5,0.2,0.9,0.4,1.4,0.6c0.4,0.3,0.8,0.6,1.1,1
		c0.3,0.4,0.4,0.9,0.4,1.6s-0.1,1.2-0.4,1.6s-0.6,0.9-1.1,1.2c-0.4,0.3-1,0.5-1.5,0.7c-0.6,0.1-1.1,0.2-1.6,0.2c-2,0-3.7-0.5-5-1.5
		L89.9,101.1z"/>
	<path class="purpleFill" d="M102.4,93.9h3.9l1.6,7.4l1.4-7.4h3.8l1.4,7.4l1.6-7.4h3.8l-3.5,10.9h-3.8l-1.4-5.8l-1.4,5.8h-3.8L102.4,93.9z"
		/>
	<path class="purpleFill" d="M120.5,89.6h3.6v2.9h-3.6V89.6z M120.5,93.9h3.6v10.9h-3.6V93.9z"/>
	<path class="purpleFill" d="M126.6,96.2h-1.7v-2.3h0.3c0.6,0,1-0.1,1.3-0.3c0.3-0.2,0.6-0.4,0.7-0.7c0.2-0.3,0.3-0.7,0.4-1
		c0.1-0.4,0.2-0.8,0.3-1.2h2.3v3.2h2.2v2.3h-2.2v5c0,0.3,0.1,0.6,0.2,0.8s0.4,0.3,0.8,0.3c0.1,0,0.3,0,0.4,0c0.2,0,0.4-0.1,0.6-0.2
		l0.2,2.5c-0.4,0.2-0.8,0.3-1.2,0.3c-0.4,0.1-0.8,0.1-1.2,0.1c-0.7,0-1.2-0.1-1.7-0.3c-0.4-0.2-0.8-0.4-1-0.7
		c-0.3-0.3-0.4-0.7-0.5-1.1c-0.1-0.4-0.2-0.9-0.2-1.4V96.2z"/>
	<path class="purpleFill" d="M133.3,89.7h3.6v5.6c0.3-0.5,0.7-0.9,1.2-1.2c0.5-0.3,1.2-0.5,2.1-0.5c1.2,0,2.1,0.4,2.7,1.2
		c0.6,0.8,0.9,1.9,0.9,3.4v6.6h-3.6v-5.9c0-0.7-0.1-1.2-0.4-1.6c-0.2-0.4-0.6-0.6-1.2-0.6c-0.5,0-0.9,0.2-1.3,0.6
		c-0.3,0.4-0.5,1.1-0.5,2.1v5.3h-3.6V89.7z"/>
</g>
<g>
	<path class="purpleFill" d="M41.7,123.7C41,125,40,126,39,126.6c-1.1,0.6-2.4,0.9-3.9,0.9c-1.3,0-2.4-0.2-3.3-0.6c-1-0.4-1.8-0.9-2.4-1.6
		s-1.1-1.5-1.5-2.5c-0.3-1-0.5-2-0.5-3.2c0-1.2,0.2-2.2,0.5-3.2c0.3-1,0.8-1.8,1.5-2.5c0.7-0.7,1.5-1.2,2.4-1.6
		c0.9-0.4,2-0.6,3.3-0.6c1.4,0,2.6,0.2,3.7,0.7s2.1,1.4,2.9,2.7L38,117c-0.3-0.6-0.7-1.1-1.2-1.4s-1.1-0.5-1.8-0.5
		c-0.6,0-1.2,0.1-1.6,0.4s-0.8,0.6-1.1,1c-0.3,0.4-0.5,0.9-0.7,1.4c-0.1,0.6-0.2,1.1-0.2,1.8s0.1,1.2,0.2,1.8c0.2,0.5,0.4,1,0.7,1.4
		c0.3,0.4,0.7,0.7,1.1,1s1,0.4,1.5,0.4c0.6,0,1.2-0.2,1.7-0.5c0.5-0.3,0.9-0.9,1.3-1.7L41.7,123.7z"/>
	<path class="purpleFill" d="M42.8,112h3.6v15.1h-3.6V112z"/>
	<path class="purpleFill" d="M54.5,127.1c-0.1-0.2-0.2-0.4-0.2-0.6c-0.1-0.3-0.1-0.5-0.1-0.7c-0.2,0.4-0.5,0.8-1,1.1s-1.1,0.5-2,0.5
		c-0.6,0-1.1-0.1-1.5-0.3c-0.4-0.2-0.8-0.4-1.1-0.7c-0.3-0.3-0.5-0.7-0.7-1.1c-0.2-0.4-0.2-0.9-0.2-1.4c0-0.6,0.1-1,0.3-1.4
		c0.2-0.4,0.5-0.8,0.8-1c0.4-0.3,0.8-0.5,1.3-0.7c0.5-0.2,1.1-0.3,1.7-0.4l2.2-0.3v-0.2c0-0.5-0.1-0.8-0.4-0.9
		c-0.2-0.2-0.6-0.2-1-0.2c-0.7,0-1.2,0.1-1.7,0.4c-0.5,0.2-0.9,0.5-1.3,0.9l-1.7-2.4c0.2-0.2,0.5-0.4,0.8-0.6
		c0.3-0.2,0.7-0.4,1.1-0.5c0.4-0.1,0.9-0.3,1.4-0.4c0.5-0.1,1.1-0.1,1.7-0.1c1.6,0,2.8,0.3,3.4,1c0.7,0.7,1,1.7,1,3.1v3.9
		c0,0.5,0,0.8,0,1.1c0,0.3,0,0.6,0.1,0.8c0,0.2,0.1,0.4,0.1,0.6c0.1,0.2,0.1,0.4,0.2,0.6H54.5z M54,122.3l-1.5,0.3
		c-0.5,0.1-0.9,0.2-1.1,0.4c-0.2,0.2-0.3,0.5-0.3,0.8c0,0.3,0.1,0.6,0.3,0.8c0.2,0.2,0.5,0.3,0.8,0.3c0.5,0,0.9-0.2,1.3-0.6
		c0.3-0.4,0.5-0.9,0.5-1.7V122.3z"/>
	<path class="purpleFill" d="M59.3,111.9h3.6v2.9h-3.6V111.9z M59.3,116.3h3.6v10.9h-3.6V116.3z"/>
	<path class="purpleFill" d="M64.5,116.3h3.2l0.3,1.5c0.3-0.6,0.7-1,1.2-1.4c0.5-0.3,1.1-0.5,1.9-0.5c0.9,0,1.6,0.2,2,0.6s0.8,0.8,1,1.4
		c0.1-0.2,0.3-0.5,0.4-0.7c0.2-0.2,0.4-0.4,0.7-0.6c0.3-0.2,0.6-0.3,1-0.4c0.4-0.1,0.8-0.2,1.3-0.2c0.8,0,1.4,0.1,1.8,0.4
		c0.5,0.3,0.8,0.6,1.1,1c0.3,0.4,0.4,0.9,0.5,1.4s0.1,1.1,0.1,1.7v6.7h-3.6v-5.7c0-0.8-0.1-1.4-0.3-1.8c-0.2-0.4-0.6-0.6-1.1-0.6
		c-0.2,0-0.3,0-0.5,0.1c-0.2,0.1-0.4,0.2-0.5,0.4c-0.1,0.2-0.3,0.4-0.4,0.8s-0.1,0.8-0.1,1.4v5.4h-3.6v-5.8c0-0.8-0.1-1.3-0.3-1.7
		c-0.2-0.4-0.6-0.6-1.1-0.6c-0.2,0-0.3,0-0.5,0.1c-0.2,0.1-0.4,0.2-0.5,0.4s-0.3,0.5-0.4,0.9c-0.1,0.4-0.1,0.9-0.1,1.5v5.2h-3.6
		V116.3z"/>
	<path class="purpleFill" d="M83,112h6.4c0.7,0,1.5,0.1,2.2,0.3s1.3,0.4,1.9,0.8c0.6,0.4,1,0.9,1.3,1.5c0.3,0.6,0.5,1.4,0.5,2.2
		c0,1-0.2,1.8-0.5,2.4c-0.3,0.7-0.7,1.2-1.2,1.6c-0.5,0.4-1.1,0.7-1.9,0.9c-0.7,0.2-1.5,0.3-2.3,0.3h-2.6v5.1H83V112z M88.9,119
		c0.3,0,0.7,0,0.9-0.1s0.5-0.2,0.7-0.3c0.2-0.2,0.4-0.4,0.5-0.7c0.1-0.3,0.2-0.6,0.2-1.1c0-0.4-0.1-0.7-0.2-0.9
		c-0.1-0.2-0.3-0.4-0.5-0.6s-0.5-0.3-0.8-0.3c-0.3-0.1-0.6-0.1-0.9-0.1h-1.9v4.1H88.9z"/>
	<path class="purpleFill" d="M102.6,127.1c-0.1-0.2-0.2-0.4-0.2-0.6c-0.1-0.3-0.1-0.5-0.1-0.7c-0.2,0.4-0.5,0.8-1,1.1s-1.1,0.5-2,0.5
		c-0.6,0-1.1-0.1-1.5-0.3c-0.4-0.2-0.8-0.4-1.1-0.7c-0.3-0.3-0.5-0.7-0.7-1.1c-0.2-0.4-0.2-0.9-0.2-1.4c0-0.6,0.1-1,0.3-1.4
		c0.2-0.4,0.5-0.8,0.8-1c0.4-0.3,0.8-0.5,1.3-0.7c0.5-0.2,1.1-0.3,1.7-0.4l2.2-0.3v-0.2c0-0.5-0.1-0.8-0.4-0.9
		c-0.2-0.2-0.6-0.2-1-0.2c-0.7,0-1.2,0.1-1.7,0.4c-0.5,0.2-0.9,0.5-1.3,0.9l-1.7-2.4c0.2-0.2,0.5-0.4,0.8-0.6
		c0.3-0.2,0.7-0.4,1.1-0.5c0.4-0.1,0.9-0.3,1.4-0.4c0.5-0.1,1.1-0.1,1.7-0.1c1.6,0,2.8,0.3,3.4,1c0.7,0.7,1,1.7,1,3.1v3.9
		c0,0.5,0,0.8,0,1.1c0,0.3,0,0.6,0.1,0.8c0,0.2,0.1,0.4,0.1,0.6c0.1,0.2,0.1,0.4,0.2,0.6H102.6z M102,122.3l-1.5,0.3
		c-0.5,0.1-0.9,0.2-1.1,0.4c-0.2,0.2-0.3,0.5-0.3,0.8c0,0.3,0.1,0.6,0.3,0.8c0.2,0.2,0.5,0.3,0.8,0.3c0.5,0,0.9-0.2,1.3-0.6
		c0.3-0.4,0.5-0.9,0.5-1.7V122.3z"/>
	<path class="purpleFill" d="M108.1,123.5c0.2,0.2,0.4,0.3,0.6,0.5c0.2,0.2,0.5,0.3,0.8,0.4c0.3,0.1,0.6,0.2,0.9,0.3
		c0.3,0.1,0.6,0.1,0.9,0.1c0.3,0,0.5,0,0.8-0.1c0.3-0.1,0.4-0.3,0.4-0.5c0-0.3-0.1-0.5-0.4-0.6s-0.6-0.3-1.1-0.4
		c-0.4-0.1-0.9-0.3-1.4-0.4c-0.5-0.1-1-0.3-1.4-0.6s-0.8-0.6-1.1-1c-0.3-0.4-0.4-1-0.4-1.7c0-0.6,0.1-1.1,0.4-1.6
		c0.3-0.5,0.6-0.8,1-1.1c0.4-0.3,0.9-0.5,1.5-0.7s1.1-0.2,1.7-0.2c1,0,1.8,0.1,2.6,0.3c0.7,0.2,1.4,0.5,2,1l-1.6,2.4
		c-0.1-0.1-0.3-0.3-0.6-0.4c-0.2-0.1-0.5-0.2-0.8-0.4c-0.3-0.1-0.6-0.2-0.9-0.3s-0.6-0.1-0.9-0.1c-0.2,0-0.4,0-0.6,0.1
		s-0.2,0.2-0.2,0.5c0,0.2,0.1,0.4,0.4,0.6c0.3,0.1,0.6,0.3,1.1,0.4c0.4,0.1,0.9,0.3,1.4,0.4c0.5,0.2,0.9,0.4,1.4,0.6
		c0.4,0.3,0.8,0.6,1.1,1s0.4,0.9,0.4,1.6s-0.1,1.2-0.4,1.6s-0.6,0.9-1.1,1.2c-0.4,0.3-1,0.5-1.5,0.7c-0.6,0.1-1.1,0.2-1.6,0.2
		c-2,0-3.7-0.5-5-1.5L108.1,123.5z"/>
	<path class="purpleFill" d="M118,123.5c0.2,0.2,0.4,0.3,0.6,0.5c0.2,0.2,0.5,0.3,0.8,0.4c0.3,0.1,0.6,0.2,0.9,0.3c0.3,0.1,0.6,0.1,0.9,0.1
		c0.3,0,0.5,0,0.8-0.1c0.3-0.1,0.4-0.3,0.4-0.5c0-0.3-0.1-0.5-0.4-0.6s-0.6-0.3-1.1-0.4c-0.4-0.1-0.9-0.3-1.4-0.4
		c-0.5-0.1-1-0.3-1.4-0.6s-0.8-0.6-1.1-1c-0.3-0.4-0.4-1-0.4-1.7c0-0.6,0.1-1.1,0.4-1.6c0.3-0.5,0.6-0.8,1-1.1
		c0.4-0.3,0.9-0.5,1.5-0.7s1.1-0.2,1.7-0.2c1,0,1.8,0.1,2.6,0.3c0.7,0.2,1.4,0.5,2,1l-1.6,2.4c-0.1-0.1-0.3-0.3-0.6-0.4
		c-0.2-0.1-0.5-0.2-0.8-0.4c-0.3-0.1-0.6-0.2-0.9-0.3s-0.6-0.1-0.9-0.1c-0.2,0-0.4,0-0.6,0.1s-0.2,0.2-0.2,0.5
		c0,0.2,0.1,0.4,0.4,0.6c0.3,0.1,0.6,0.3,1.1,0.4c0.4,0.1,0.9,0.3,1.4,0.4c0.5,0.2,0.9,0.4,1.4,0.6c0.4,0.3,0.8,0.6,1.1,1
		s0.4,0.9,0.4,1.6s-0.1,1.2-0.4,1.6s-0.6,0.9-1.1,1.2c-0.4,0.3-1,0.5-1.5,0.7c-0.6,0.1-1.1,0.2-1.6,0.2c-2,0-3.7-0.5-5-1.5
		L118,123.5z"/>
</g>
<g>
	<path class="purpleFill" d="M129.9,123.2h3.9v3.9h-3.9V123.2z"/>
</g>
</svg>
