<?xml version="1.0" encoding="utf-8"?>
<!-- Generator: Adobe Illustrator 22.1.0, SVG Export Plug-In . SVG Version: 6.00 Build 0)  -->
<svg version="1.1" id="Layer_1" xmlns="https://www.w3.org/2000/svg" xmlns:xlink="https://www.w3.org/1999/xlink" x="0px" y="0px"
	 viewBox="0 0 67.3 8.8" style="enable-background:new 0 0 67.3 8.8;" xml:space="preserve">
<style type="text/css">
	.st0{fill:#FFFFFF;}
</style>
<g id="cta-top_1_">
	<path class="st0" d="M1.4,6.1c0.1,0.1,0.2,0.2,0.3,0.3C1.9,6.5,2,6.6,2.2,6.7s0.4,0.2,0.6,0.2C3.1,7,3.4,7,3.6,7C4,7,4.3,7,4.5,6.9
		c0.2-0.1,0.3-0.3,0.3-0.5c0-0.2,0-0.3-0.1-0.4S4.4,5.8,4.3,5.7S3.8,5.5,3.6,5.5C3.3,5.4,3,5.3,2.7,5.3C1.8,5,1.2,4.7,0.9,4.3
		S0.3,3.4,0.3,2.7c0-0.4,0.1-0.7,0.2-1s0.4-0.6,0.6-0.9c0.3-0.3,0.6-0.5,1.1-0.6C2.6,0.1,3.1,0,3.7,0c0.6,0,1.3,0.1,1.9,0.3
		c0.6,0.2,1.1,0.6,1.5,1L5.6,2.7C5.4,2.4,5.1,2.2,4.7,2C4.4,1.9,4,1.8,3.6,1.8c-0.2,0-0.4,0-0.5,0.1C2.9,1.9,2.8,1.9,2.7,2
		C2.7,2.1,2.6,2.1,2.6,2.2c0,0.1,0,0.2,0,0.2c0,0.2,0.1,0.4,0.3,0.5C3,3.1,3.4,3.3,4,3.4c0.6,0.2,1.1,0.3,1.5,0.5
		c0.4,0.2,0.7,0.4,0.9,0.6C6.6,4.7,6.8,5,6.9,5.2S7,5.8,7,6.1c0,0.4-0.1,0.8-0.3,1.2C6.6,7.6,6.3,7.9,6,8.1C5.7,8.4,5.3,8.5,4.9,8.6
		C4.5,8.8,4,8.8,3.6,8.8c-0.4,0-0.9,0-1.2-0.1C2,8.6,1.6,8.5,1.3,8.4C1,8.3,0.8,8.2,0.5,8C0.3,7.9,0.1,7.7,0,7.5L1.4,6.1z"/>
	<path class="st0" d="M10.5,0.2h1.9l3.3,8.5h-2.3l-0.6-1.7H10L9.4,8.6H7.2L10.5,0.2z M12.3,5.3C12.2,4.9,12,4.4,11.9,4
		c-0.1-0.4-0.3-0.9-0.4-1.4C11.3,3.2,11.2,3.6,11,4s-0.3,0.8-0.4,1.3H12.3z"/>
	<path class="st0" d="M14.7,0.2H17c0.2,0.5,0.4,1.1,0.6,1.7c0.2,0.6,0.4,1.1,0.6,1.6s0.3,1,0.5,1.5s0.3,0.9,0.4,1.3
		c0.1-0.4,0.2-0.8,0.4-1.3c0.1-0.5,0.3-1,0.5-1.5c0.2-0.5,0.4-1,0.6-1.6s0.4-1.1,0.6-1.6h2.2l-3.3,8.5H18L14.7,0.2z"/>
	<path class="st0" d="M23.9,0.2h6v1.6h-3.9v1.6h2.6V5h-2.6v2h4v1.6h-6.1V0.2z"/>
	<path class="st0" d="M33.8,0.2h2.5c0.1,0.2,0.2,0.5,0.3,0.8c0.1,0.3,0.2,0.6,0.4,0.9c0.1,0.3,0.2,0.6,0.4,0.9s0.2,0.6,0.3,0.8
		c0.1,0.3,0.2,0.5,0.2,0.7C38,4.6,38,4.7,38.1,4.8c0-0.1,0.1-0.3,0.1-0.5c0.1-0.2,0.2-0.4,0.3-0.7c0.1-0.3,0.2-0.5,0.3-0.8
		c0.1-0.3,0.2-0.6,0.4-0.9c0.1-0.3,0.2-0.6,0.4-0.9c0.1-0.3,0.2-0.6,0.3-0.8h2.4v8.5h-2c0-0.5,0-1,0-1.5c0-0.5,0-1.1,0-1.6
		s0-1,0-1.4s0-0.7,0-1c-0.1,0.2-0.2,0.6-0.4,1c-0.2,0.4-0.3,0.9-0.6,1.4c-0.2,0.5-0.4,1-0.7,1.5c-0.2,0.5-0.4,1-0.6,1.5h-0.2
		c-0.2-0.5-0.4-1-0.7-1.6c-0.2-0.5-0.4-1-0.7-1.5c-0.2-0.5-0.4-0.9-0.5-1.3c-0.2-0.4-0.3-0.7-0.3-0.9c0,0.2,0,0.5,0,1s0,0.9,0,1.4
		c0,0.5,0,1,0,1.6c0,0.5,0,1,0,1.5h-2V0.2z"/>
	<path class="st0" d="M47.6,8.8c-0.6,0-1.1-0.1-1.6-0.3c-0.5-0.2-1-0.4-1.4-0.8c-0.4-0.4-0.7-0.8-0.9-1.4s-0.3-1.2-0.3-2
		c0-0.8,0.1-1.4,0.3-2s0.5-1,0.9-1.4c0.4-0.4,0.9-0.6,1.4-0.8C46.4,0.1,47,0,47.6,0c0.6,0,1.1,0.1,1.6,0.3c0.5,0.2,1,0.4,1.4,0.8
		c0.4,0.4,0.7,0.8,0.9,1.4s0.4,1.2,0.4,2c0,0.8-0.1,1.4-0.4,2s-0.6,1-1,1.4s-0.9,0.6-1.4,0.8C48.7,8.7,48.1,8.8,47.6,8.8z M47.6,7
		c0.3,0,0.5,0,0.8-0.1c0.2-0.1,0.5-0.2,0.6-0.5c0.2-0.2,0.3-0.5,0.4-0.8s0.1-0.7,0.1-1.1c0-0.8-0.2-1.5-0.6-1.9
		c-0.4-0.4-0.9-0.7-1.5-0.7c-0.6,0-1.1,0.2-1.4,0.7c-0.4,0.4-0.5,1.1-0.5,1.9c0,0.4,0.1,0.8,0.2,1.1c0.1,0.3,0.3,0.6,0.4,0.8
		c0.2,0.2,0.4,0.4,0.6,0.5C47.1,6.9,47.3,7,47.6,7z"/>
	<path class="st0" d="M52.9,0.2h3.5c0.4,0,0.9,0,1.3,0.1c0.4,0.1,0.8,0.2,1.1,0.4c0.3,0.2,0.6,0.5,0.8,0.8c0.2,0.3,0.3,0.8,0.3,1.3
		c0,0.4-0.1,0.7-0.2,0.9c-0.1,0.3-0.3,0.5-0.5,0.6c-0.2,0.2-0.4,0.3-0.7,0.4C58.2,4.9,58,5,57.7,5.1c0.2,0,0.4,0.1,0.6,0.2
		c0.2,0.1,0.3,0.3,0.5,0.5l1.6,2.8h-2.5l-1-2c-0.1-0.2-0.2-0.3-0.3-0.4c-0.1-0.1-0.2-0.2-0.3-0.2S56.1,5.8,56,5.8
		c-0.1,0-0.3,0-0.4,0H55v2.8h-2.2V0.2z M56.2,4.1c0.1,0,0.3,0,0.4,0C56.8,4,57,4,57.1,3.9c0.1-0.1,0.2-0.2,0.3-0.4
		c0.1-0.2,0.1-0.4,0.1-0.6c0-0.2,0-0.4-0.1-0.6c-0.1-0.1-0.2-0.3-0.3-0.3c-0.1-0.1-0.3-0.1-0.4-0.2s-0.3,0-0.4,0H55v2.3H56.2z"/>
	<path class="st0" d="M61.2,0.2h6v1.6h-3.9v1.6H66V5h-2.6v2h4v1.6h-6.1V0.2z"/>
</g>
</svg>
