<?xml version="1.0" encoding="utf-8"?>
<!-- Generator: Adobe Illustrator 22.1.0, SVG Export Plug-In . SVG Version: 6.00 Build 0)  -->
<svg version="1.1" id="Layer_1" xmlns="http://www.w3.org/2000/svg" xmlns:xlink="http://www.w3.org/1999/xlink" x="0px" y="0px"
	 viewBox="0 0 300 600" style="enable-background:new 0 0 300 600;" xml:space="preserve">
<style type="text/css">
	.st0{fill:#662868;}
	.st1{fill:#5D6770;}
</style>
<g>
	<path class="st0" d="M43.5,171.5c-1.4,0-2.7-0.2-4-0.6c-1.3-0.4-2.4-1.1-3.3-1.9c-1-0.9-1.7-2-2.3-3.3c-0.6-1.3-0.8-2.9-0.8-4.8
		c0-1.8,0.3-3.4,0.8-4.8c0.6-1.3,1.3-2.5,2.3-3.3s2.1-1.5,3.3-2c1.3-0.4,2.6-0.6,4-0.6s2.7,0.2,4,0.6c1.3,0.4,2.4,1.1,3.3,2
		c1,0.9,1.7,2,2.3,3.3c0.6,1.4,0.9,2.9,0.9,4.8c0,1.8-0.3,3.4-0.9,4.8s-1.4,2.4-2.3,3.3c-1,0.9-2.1,1.5-3.3,1.9
		C46.2,171.3,44.9,171.5,43.5,171.5z M43.5,167c0.7,0,1.3-0.1,1.9-0.3c0.6-0.2,1.1-0.6,1.5-1.1s0.8-1.1,1-1.9
		c0.2-0.8,0.4-1.7,0.4-2.8c0-2-0.5-3.5-1.4-4.6c-0.9-1.1-2.1-1.6-3.6-1.6c-1.4,0-2.6,0.5-3.5,1.6c-0.9,1.1-1.3,2.6-1.3,4.6
		c0,1.1,0.1,2,0.4,2.8c0.3,0.8,0.6,1.4,1.1,1.9c0.4,0.5,1,0.9,1.5,1.1C42.3,166.9,42.9,167,43.5,167z"/>
	<path class="st0" d="M55.6,156.3h4.4l0.4,2.1c0.4-0.7,1.1-1.3,1.9-1.8c0.8-0.5,1.7-0.7,2.7-0.7c3.2,0,4.9,2.1,4.9,6.2v9h-4.9v-7.8
		c0-1.2-0.2-2-0.5-2.5c-0.3-0.5-0.9-0.7-1.6-0.7c-0.3,0-0.7,0.1-1,0.2c-0.3,0.1-0.5,0.3-0.8,0.7c-0.2,0.3-0.4,0.7-0.5,1.2
		c-0.1,0.5-0.2,1.1-0.2,1.9v7h-4.9V156.3z"/>
	<path class="st0" d="M72,150.6h4.9v20.5H72V150.6z"/>
	<path class="st0" d="M79.5,172.5c0.3,0.1,0.7,0.2,1.1,0.3c0.4,0.1,0.7,0.1,1,0.1c0.4,0,0.8-0.1,1-0.3c0.2-0.2,0.4-0.5,0.6-1
		l-5.3-15.3h5.2l2.6,9.9l2.5-9.9h5.2L88.3,171c-0.3,0.8-0.6,1.6-0.9,2.2s-0.7,1.3-1.1,1.8c-0.5,0.5-1.1,0.9-1.8,1.2
		c-0.7,0.3-1.6,0.4-2.8,0.4c-0.2,0-0.4,0-0.7,0c-0.3,0-0.5,0-0.8,0c-0.3,0-0.6,0-0.8-0.1c-0.3,0-0.5-0.1-0.6-0.1L79.5,172.5z"/>
	<path class="st0" d="M99.8,167.1l10.5-12.6h-9.7v-3.9h15.6v4l-10.5,12.6h10.7v3.9H99.8V167.1z"/>
	<path class="st0" d="M122.2,164.8c0.2,1.1,0.5,1.9,1.1,2.4c0.6,0.5,1.2,0.7,1.9,0.7c0.6,0,1.2-0.1,1.6-0.4c0.5-0.3,0.8-0.7,1.2-1.2
		l3.6,2c-0.7,1.1-1.7,1.9-2.8,2.5c-1.2,0.5-2.4,0.8-3.8,0.8c-1.3,0-2.4-0.2-3.3-0.6c-1-0.4-1.8-0.9-2.4-1.6
		c-0.7-0.7-1.2-1.5-1.5-2.5c-0.3-1-0.5-2-0.5-3.1c0-1.1,0.2-2.2,0.5-3.1c0.3-1,0.8-1.8,1.5-2.5c0.6-0.7,1.4-1.2,2.4-1.6
		c0.9-0.4,2-0.6,3.2-0.6c1.1,0,2.2,0.2,3,0.6c0.9,0.4,1.6,0.9,2.2,1.6c0.6,0.7,1.1,1.6,1.4,2.6c0.3,1,0.5,2.1,0.5,3.3
		c0,0.3,0,0.5,0,0.6c0,0.1,0,0.2,0,0.2H122.2z M124.6,159.4c-1.4,0-2.2,0.9-2.4,2.7h4.8c0-0.7-0.2-1.4-0.6-1.9
		C126,159.7,125.4,159.4,124.6,159.4z"/>
	<path class="st0" d="M133.5,150.6h4.9v20.5h-4.9V150.6z"/>
	<path class="st0" d="M140.6,150.4h4.9v3.9h-4.9V150.4z M140.6,156.3h4.9v14.8h-4.9V156.3z"/>
	<path class="st0" d="M149.1,166.2c0.2,0.2,0.5,0.4,0.8,0.7c0.3,0.2,0.7,0.4,1.1,0.6c0.4,0.2,0.8,0.3,1.2,0.4
		c0.4,0.1,0.9,0.2,1.3,0.2c0.3,0,0.7-0.1,1.1-0.2c0.4-0.1,0.5-0.4,0.5-0.7c0-0.3-0.2-0.6-0.6-0.8c-0.4-0.2-0.9-0.4-1.4-0.6
		c-0.6-0.2-1.2-0.3-1.9-0.5c-0.7-0.2-1.3-0.5-1.9-0.8c-0.6-0.3-1-0.8-1.4-1.4c-0.4-0.6-0.6-1.3-0.6-2.2c0-0.8,0.2-1.6,0.5-2.2
		c0.3-0.6,0.8-1.1,1.4-1.5c0.6-0.4,1.2-0.7,2-0.9s1.5-0.3,2.3-0.3c1.3,0,2.5,0.2,3.5,0.5c1,0.3,1.9,0.7,2.7,1.3l-2.2,3.2
		c-0.2-0.2-0.4-0.3-0.8-0.5c-0.3-0.2-0.7-0.3-1-0.5s-0.8-0.3-1.2-0.3s-0.8-0.1-1.2-0.1c-0.3,0-0.6,0.1-0.8,0.2
		c-0.2,0.1-0.3,0.3-0.3,0.6c0,0.3,0.2,0.6,0.6,0.8s0.9,0.4,1.4,0.6s1.2,0.4,1.9,0.6c0.7,0.2,1.3,0.5,1.9,0.9c0.6,0.4,1,0.8,1.4,1.4
		c0.4,0.6,0.6,1.3,0.6,2.1c0,0.9-0.2,1.6-0.6,2.2c-0.4,0.6-0.9,1.2-1.5,1.6c-0.6,0.4-1.3,0.7-2,0.9c-0.8,0.2-1.5,0.3-2.2,0.3
		c-2.8,0-5.1-0.7-6.8-2.1L149.1,166.2z"/>
	<path class="st0" d="M180.9,168c-0.7,1.3-1.7,2.2-2.8,2.7c-1.1,0.6-2.4,0.8-3.9,0.8c-1.3,0-2.4-0.2-3.4-0.6c-0.9-0.4-1.7-1-2.3-1.7
		c-0.6-0.7-1.1-1.5-1.3-2.5c-0.3-0.9-0.4-2-0.4-3c0-1.2,0.2-2.3,0.5-3.3s0.8-1.8,1.5-2.5c0.6-0.7,1.4-1.2,2.3-1.6
		c0.9-0.4,2-0.6,3.1-0.6c1.5,0,2.8,0.3,3.9,0.9c1.1,0.6,2,1.6,2.7,2.8l-4,1.9c-0.3-0.7-0.6-1.2-1-1.5c-0.4-0.3-0.9-0.4-1.4-0.4
		c-0.9,0-1.6,0.4-2,1.1s-0.6,1.7-0.6,2.8c0,0.5,0,0.9,0.1,1.4c0.1,0.5,0.2,1,0.4,1.4c0.2,0.4,0.5,0.8,0.9,1.1
		c0.4,0.3,0.9,0.4,1.4,0.4c0.7,0,1.2-0.2,1.6-0.5c0.4-0.4,0.8-0.9,1-1.5L180.9,168z"/>
	<path class="st0" d="M182.1,150.6h4.9v7.7c0.4-0.7,0.9-1.2,1.7-1.7c0.7-0.5,1.7-0.7,2.8-0.7c1.7,0,2.9,0.5,3.7,1.6
		c0.8,1.1,1.2,2.6,1.2,4.7v8.9h-4.9v-8c0-0.9-0.2-1.6-0.5-2.2c-0.3-0.5-0.9-0.8-1.6-0.8c-0.7,0-1.3,0.3-1.7,0.9
		c-0.4,0.6-0.7,1.5-0.7,2.9v7.2h-4.9V150.6z"/>
	<path class="st0" d="M202.8,164.8c0.2,1.1,0.5,1.9,1.1,2.4c0.6,0.5,1.2,0.7,1.9,0.7c0.6,0,1.2-0.1,1.6-0.4c0.5-0.3,0.8-0.7,1.2-1.2
		l3.6,2c-0.7,1.1-1.7,1.9-2.8,2.5s-2.4,0.8-3.8,0.8c-1.3,0-2.4-0.2-3.3-0.6s-1.8-0.9-2.4-1.6s-1.2-1.5-1.5-2.5c-0.3-1-0.5-2-0.5-3.1
		c0-1.1,0.2-2.2,0.5-3.1c0.3-1,0.8-1.8,1.5-2.5c0.6-0.7,1.4-1.2,2.4-1.6c0.9-0.4,2-0.6,3.2-0.6c1.1,0,2.2,0.2,3,0.6
		c0.9,0.4,1.6,0.9,2.2,1.6c0.6,0.7,1.1,1.6,1.4,2.6c0.3,1,0.5,2.1,0.5,3.3c0,0.3,0,0.5,0,0.6c0,0.1,0,0.2,0,0.2H202.8z M205.2,159.4
		c-1.4,0-2.2,0.9-2.4,2.7h4.8c0-0.7-0.2-1.4-0.6-1.9S206,159.4,205.2,159.4z"/>
	<path class="st0" d="M227.6,168c-0.7,1.3-1.7,2.2-2.8,2.7c-1.1,0.6-2.4,0.8-3.9,0.8c-1.3,0-2.4-0.2-3.4-0.6c-0.9-0.4-1.7-1-2.3-1.7
		c-0.6-0.7-1.1-1.5-1.3-2.5c-0.3-0.9-0.4-2-0.4-3c0-1.2,0.2-2.3,0.5-3.3s0.8-1.8,1.5-2.5c0.6-0.7,1.4-1.2,2.3-1.6
		c0.9-0.4,2-0.6,3.1-0.6c1.5,0,2.8,0.3,3.9,0.9c1.1,0.6,2,1.6,2.7,2.8l-4,1.9c-0.3-0.7-0.6-1.2-1-1.5c-0.4-0.3-0.9-0.4-1.4-0.4
		c-0.9,0-1.6,0.4-2,1.1s-0.6,1.7-0.6,2.8c0,0.5,0,0.9,0.1,1.4c0.1,0.5,0.2,1,0.4,1.4c0.2,0.4,0.5,0.8,0.9,1.1
		c0.4,0.3,0.9,0.4,1.4,0.4c0.7,0,1.2-0.2,1.6-0.5c0.4-0.4,0.8-0.9,1-1.5L227.6,168z"/>
	<path class="st0" d="M228.7,150.6h4.9v11.1l4.9-5.4h5.9l-5.8,5.6l5.8,9.2h-5.5l-3.3-6.2l-1.9,1.9v4.4h-4.9V150.6z"/>
	<path class="st0" d="M246.5,166.2c0.2,0.2,0.5,0.4,0.8,0.7c0.3,0.2,0.7,0.4,1.1,0.6c0.4,0.2,0.8,0.3,1.2,0.4
		c0.4,0.1,0.9,0.2,1.3,0.2c0.3,0,0.7-0.1,1.1-0.2c0.4-0.1,0.5-0.4,0.5-0.7c0-0.3-0.2-0.6-0.6-0.8c-0.4-0.2-0.9-0.4-1.4-0.6
		c-0.6-0.2-1.2-0.3-1.9-0.5c-0.7-0.2-1.3-0.5-1.9-0.8c-0.6-0.3-1-0.8-1.4-1.4c-0.4-0.6-0.6-1.3-0.6-2.2c0-0.8,0.2-1.6,0.5-2.2
		c0.3-0.6,0.8-1.1,1.4-1.5c0.6-0.4,1.2-0.7,2-0.9s1.5-0.3,2.3-0.3c1.3,0,2.5,0.2,3.5,0.5c1,0.3,1.9,0.7,2.7,1.3l-2.2,3.2
		c-0.2-0.2-0.4-0.3-0.8-0.5c-0.3-0.2-0.7-0.3-1-0.5s-0.8-0.3-1.2-0.3s-0.8-0.1-1.2-0.1c-0.3,0-0.6,0.1-0.8,0.2
		c-0.2,0.1-0.3,0.3-0.3,0.6c0,0.3,0.2,0.6,0.6,0.8c0.4,0.2,0.9,0.4,1.4,0.6c0.6,0.2,1.2,0.4,1.9,0.6c0.7,0.2,1.3,0.5,1.9,0.9
		c0.6,0.4,1,0.8,1.4,1.4c0.4,0.6,0.6,1.3,0.6,2.1c0,0.9-0.2,1.6-0.6,2.2c-0.4,0.6-0.9,1.2-1.5,1.6c-0.6,0.4-1.3,0.7-2,0.9
		c-0.8,0.2-1.5,0.3-2.2,0.3c-2.8,0-5.1-0.7-6.8-2.1L246.5,166.2z"/>
</g>
<g>
	<path class="st0" d="M35,190.7h-2.4v-3.1h2.2c-0.2-0.5-0.3-0.9-0.3-1.4c-0.1-0.4-0.1-0.8-0.1-1.1c0-0.5,0.1-1,0.2-1.5
		c0.1-0.5,0.4-0.9,0.8-1.2c0.4-0.3,0.9-0.6,1.5-0.8c0.6-0.2,1.4-0.3,2.4-0.3c0.8,0,1.5,0,2.1,0.1c0.6,0.1,1.2,0.2,1.7,0.4l-0.7,3.6
		c-0.2-0.1-0.5-0.2-0.9-0.3c-0.4-0.1-0.7-0.1-1-0.1c-0.3,0-0.6,0.1-0.8,0.2c-0.2,0.1-0.3,0.4-0.3,0.7c0,0.3,0,0.6,0.1,0.9
		s0.2,0.5,0.3,0.7h2.9v3.1h-2.7v11.6H35V190.7z"/>
	<path class="st0" d="M50.7,202.8c-1.3,0-2.4-0.2-3.3-0.6c-0.9-0.4-1.7-0.9-2.3-1.6c-0.6-0.7-1.1-1.5-1.4-2.5
		c-0.3-0.9-0.5-2-0.5-3.1c0-1.1,0.2-2.2,0.5-3.1s0.8-1.8,1.4-2.5c0.6-0.7,1.4-1.3,2.3-1.7c0.9-0.4,2-0.6,3.2-0.6
		c1.2,0,2.3,0.2,3.2,0.6c0.9,0.4,1.7,0.9,2.3,1.6c0.6,0.7,1.1,1.5,1.4,2.5c0.3,1,0.5,2,0.5,3.1c0,1.1-0.2,2.2-0.5,3.1
		c-0.3,0.9-0.8,1.8-1.4,2.5s-1.4,1.2-2.3,1.6C53,202.6,52,202.8,50.7,202.8z M50.8,199.1c0.8,0,1.4-0.4,1.8-1.1
		c0.4-0.7,0.5-1.7,0.5-3s-0.2-2.3-0.6-3c-0.4-0.8-1-1.1-1.8-1.1s-1.4,0.4-1.8,1.1s-0.6,1.8-0.6,3s0.2,2.3,0.6,3
		C49.3,198.7,50,199.1,50.8,199.1z"/>
	<path class="st0" d="M60.3,187.6h4.4l0.3,2.7c0.4-0.9,1.1-1.6,1.9-2.2c0.8-0.6,1.9-0.9,3.2-0.9v5c-0.3-0.1-0.9-0.1-1.5-0.1
		c-0.4,0-0.8,0-1.2,0.1c-0.4,0.1-0.8,0.2-1.1,0.5c-0.3,0.3-0.6,0.6-0.8,1.2s-0.3,1.2-0.3,2.1v6.5h-4.9V187.6z"/>
	<path class="st0" d="M87.2,202.4c-0.1-0.2-0.2-0.5-0.3-0.8c-0.1-0.3-0.1-0.7-0.2-0.9c-0.3,0.6-0.7,1.1-1.4,1.6
		c-0.6,0.5-1.5,0.7-2.7,0.7c-0.8,0-1.5-0.1-2.1-0.4c-0.6-0.2-1.1-0.6-1.5-1c-0.4-0.4-0.7-0.9-0.9-1.5c-0.2-0.6-0.3-1.2-0.3-1.9
		c0-0.8,0.1-1.4,0.4-2c0.3-0.6,0.6-1,1.1-1.4c0.5-0.4,1.1-0.7,1.8-0.9s1.5-0.4,2.3-0.6l3-0.5v-0.3c0-0.6-0.2-1-0.5-1.2
		c-0.3-0.2-0.8-0.3-1.3-0.3c-0.9,0-1.7,0.2-2.3,0.5c-0.6,0.3-1.2,0.7-1.7,1.2l-2.3-3.2c0.3-0.3,0.7-0.5,1.1-0.8
		c0.5-0.3,1-0.5,1.6-0.7c0.6-0.2,1.2-0.4,1.9-0.5c0.7-0.1,1.5-0.2,2.3-0.2c2.2,0,3.7,0.5,4.7,1.4c0.9,0.9,1.4,2.3,1.4,4.2v5.2
		c0,0.6,0,1.1,0,1.5c0,0.4,0,0.8,0.1,1.1c0,0.3,0.1,0.6,0.2,0.9c0.1,0.3,0.2,0.5,0.3,0.8H87.2z M86.4,195.8l-2,0.4
		c-0.7,0.1-1.2,0.3-1.5,0.6c-0.3,0.3-0.5,0.6-0.5,1.1c0,0.4,0.1,0.8,0.4,1.1c0.3,0.3,0.6,0.4,1.1,0.4c0.7,0,1.3-0.3,1.7-0.8
		c0.5-0.5,0.7-1.3,0.7-2.3V195.8z"/>
	<path class="st0" d="M107.5,199.3c-0.7,1.3-1.7,2.2-2.8,2.7c-1.1,0.6-2.4,0.8-3.9,0.8c-1.3,0-2.4-0.2-3.4-0.6
		c-0.9-0.4-1.7-1-2.3-1.7c-0.6-0.7-1.1-1.5-1.3-2.5c-0.3-0.9-0.4-2-0.4-3c0-1.2,0.2-2.3,0.5-3.3s0.8-1.8,1.5-2.5
		c0.6-0.7,1.4-1.2,2.3-1.6c0.9-0.4,2-0.6,3.1-0.6c1.5,0,2.8,0.3,3.9,0.9c1.1,0.6,2,1.6,2.7,2.8l-4,1.9c-0.3-0.7-0.6-1.2-1-1.5
		c-0.4-0.3-0.9-0.4-1.4-0.4c-0.9,0-1.6,0.4-2,1.1c-0.4,0.7-0.6,1.7-0.6,2.8c0,0.5,0,0.9,0.1,1.4c0.1,0.5,0.2,1,0.4,1.4
		c0.2,0.4,0.5,0.8,0.9,1.1s0.9,0.4,1.5,0.4c0.7,0,1.2-0.2,1.6-0.5c0.4-0.4,0.8-0.9,1-1.5L107.5,199.3z"/>
	<path class="st0" d="M122.3,199.3c-0.7,1.3-1.7,2.2-2.8,2.7c-1.1,0.6-2.4,0.8-3.9,0.8c-1.3,0-2.4-0.2-3.4-0.6
		c-0.9-0.4-1.7-1-2.3-1.7c-0.6-0.7-1.1-1.5-1.3-2.5c-0.3-0.9-0.4-2-0.4-3c0-1.2,0.2-2.3,0.5-3.3s0.8-1.8,1.5-2.5
		c0.6-0.7,1.4-1.2,2.3-1.6c0.9-0.4,2-0.6,3.1-0.6c1.5,0,2.8,0.3,3.9,0.9c1.1,0.6,2,1.6,2.7,2.8l-4,1.9c-0.3-0.7-0.6-1.2-1-1.5
		c-0.4-0.3-0.9-0.4-1.4-0.4c-0.9,0-1.6,0.4-2,1.1c-0.4,0.7-0.6,1.7-0.6,2.8c0,0.5,0,0.9,0.1,1.4c0.1,0.5,0.2,1,0.4,1.4
		c0.2,0.4,0.5,0.8,0.9,1.1s0.9,0.4,1.5,0.4c0.7,0,1.2-0.2,1.6-0.5c0.4-0.4,0.8-0.9,1-1.5L122.3,199.3z"/>
	<path class="st0" d="M123.9,187.6h4.9v8.1c0,0.9,0.1,1.6,0.4,2.1c0.3,0.5,0.8,0.7,1.5,0.7c0.8,0,1.4-0.3,1.8-0.9
		c0.4-0.6,0.6-1.6,0.6-2.9v-7.1h4.9v14.8h-4.6v-2.2c-0.4,0.8-0.9,1.4-1.6,1.8s-1.6,0.7-2.8,0.7c-1.8,0-3.1-0.5-3.9-1.5
		c-0.8-1-1.2-2.5-1.2-4.4V187.6z"/>
	<path class="st0" d="M140.9,187.6h4.4l0.3,2.7c0.4-0.9,1.1-1.6,1.9-2.2c0.8-0.6,1.9-0.9,3.2-0.9v5c-0.3-0.1-0.9-0.1-1.5-0.1
		c-0.4,0-0.8,0-1.2,0.1s-0.8,0.2-1.1,0.5c-0.3,0.3-0.6,0.6-0.8,1.2s-0.3,1.2-0.3,2.1v6.5h-4.9V187.6z"/>
	<path class="st0" d="M160.9,202.4c-0.1-0.2-0.2-0.5-0.3-0.8c-0.1-0.3-0.1-0.7-0.2-0.9c-0.3,0.6-0.7,1.1-1.4,1.6
		c-0.6,0.5-1.5,0.7-2.7,0.7c-0.8,0-1.5-0.1-2.1-0.4c-0.6-0.2-1.1-0.6-1.5-1c-0.4-0.4-0.7-0.9-0.9-1.5c-0.2-0.6-0.3-1.2-0.3-1.9
		c0-0.8,0.1-1.4,0.4-2s0.6-1,1.1-1.4s1.1-0.7,1.8-0.9c0.7-0.2,1.5-0.4,2.3-0.6l3-0.5v-0.3c0-0.6-0.2-1-0.5-1.2
		c-0.3-0.2-0.8-0.3-1.3-0.3c-0.9,0-1.7,0.2-2.3,0.5c-0.6,0.3-1.2,0.7-1.7,1.2l-2.3-3.2c0.3-0.3,0.7-0.5,1.1-0.8
		c0.5-0.3,1-0.5,1.6-0.7c0.6-0.2,1.2-0.4,1.9-0.5c0.7-0.1,1.5-0.2,2.3-0.2c2.2,0,3.7,0.5,4.7,1.4c0.9,0.9,1.4,2.3,1.4,4.2v5.2
		c0,0.6,0,1.1,0,1.5c0,0.4,0,0.8,0.1,1.1c0,0.3,0.1,0.6,0.2,0.9c0.1,0.3,0.2,0.5,0.3,0.8H160.9z M160.1,195.8l-2,0.4
		c-0.7,0.1-1.2,0.3-1.5,0.6c-0.3,0.3-0.5,0.6-0.5,1.1c0,0.4,0.1,0.8,0.4,1.1c0.3,0.3,0.6,0.4,1.1,0.4c0.7,0,1.3-0.3,1.7-0.8
		s0.7-1.3,0.7-2.3V195.8z"/>
	<path class="st0" d="M181.2,199.3c-0.7,1.3-1.7,2.2-2.8,2.7c-1.1,0.6-2.4,0.8-3.9,0.8c-1.3,0-2.4-0.2-3.4-0.6
		c-0.9-0.4-1.7-1-2.3-1.7c-0.6-0.7-1.1-1.5-1.3-2.5c-0.3-0.9-0.4-2-0.4-3c0-1.2,0.2-2.3,0.5-3.3s0.8-1.8,1.5-2.5
		c0.6-0.7,1.4-1.2,2.3-1.6c0.9-0.4,2-0.6,3.1-0.6c1.5,0,2.8,0.3,3.9,0.9c1.1,0.6,2,1.6,2.7,2.8l-4,1.9c-0.3-0.7-0.6-1.2-1-1.5
		c-0.4-0.3-0.9-0.4-1.4-0.4c-0.9,0-1.6,0.4-2,1.1s-0.6,1.7-0.6,2.8c0,0.5,0,0.9,0.1,1.4c0.1,0.5,0.2,1,0.4,1.4
		c0.2,0.4,0.5,0.8,0.9,1.1c0.4,0.3,0.9,0.4,1.4,0.4c0.7,0,1.2-0.2,1.6-0.5c0.4-0.4,0.8-0.9,1-1.5L181.2,199.3z"/>
	<path class="st0" d="M183.1,203.8c0.3,0.1,0.7,0.2,1.1,0.3c0.4,0.1,0.7,0.1,1,0.1c0.4,0,0.8-0.1,1-0.3c0.2-0.2,0.4-0.5,0.6-1
		l-5.3-15.3h5.2l2.6,9.9l2.5-9.9h5.2l-5.1,14.7c-0.3,0.8-0.6,1.6-0.9,2.2c-0.3,0.7-0.7,1.3-1.1,1.8c-0.5,0.5-1.1,0.9-1.8,1.2
		c-0.7,0.3-1.6,0.4-2.8,0.4c-0.2,0-0.4,0-0.7,0c-0.3,0-0.5,0-0.8,0c-0.3,0-0.6,0-0.8-0.1c-0.3,0-0.5-0.1-0.6-0.1L183.1,203.8z"/>
	<path class="st0" d="M197.2,197h5.4v5.4h-5.4V197z"/>
</g>
<g>
	<path class="st1" d="M45.5,240.2c-0.4,0.7-1,1.3-1.8,1.8c-0.8,0.5-1.8,0.7-2.9,0.7c-1.3,0-2.4-0.2-3.3-0.6c-1-0.4-1.8-1-2.4-1.8
		c-0.7-0.8-1.2-1.7-1.5-2.7c-0.3-1-0.5-2.2-0.5-3.4c0-1.2,0.2-2.4,0.5-3.4c0.4-1,0.9-1.9,1.5-2.7s1.5-1.3,2.5-1.7
		c1-0.4,2.1-0.6,3.3-0.6c1.4,0,2.8,0.3,4,0.9c1.2,0.6,2.2,1.5,3,2.7l-3.2,1.6c-0.1-0.4-0.3-0.7-0.6-1c-0.3-0.3-0.6-0.5-0.9-0.7
		c-0.3-0.2-0.7-0.3-1.1-0.4c-0.4-0.1-0.8-0.1-1.2-0.1c-0.8,0-1.4,0.1-1.9,0.4c-0.5,0.3-1,0.7-1.3,1.2c-0.4,0.5-0.6,1.1-0.8,1.8
		c-0.2,0.7-0.3,1.4-0.3,2.2c0,0.8,0.1,1.5,0.3,2.2s0.5,1.3,0.8,1.8c0.4,0.5,0.8,0.9,1.3,1.2c0.5,0.3,1.1,0.4,1.8,0.4
		c0.7,0,1.3-0.1,1.8-0.3s0.9-0.5,1.2-0.9c0.3-0.3,0.6-0.7,0.7-1.1c0.2-0.4,0.2-0.8,0.2-1.1V236h-3.5v-2.6H48v8.9h-2L45.5,240.2z"/>
	<path class="st1" d="M53.4,237.3c0.1,1.1,0.4,1.9,0.9,2.3c0.5,0.5,1.1,0.7,1.9,0.7c1.1,0,1.9-0.5,2.5-1.5l2.3,1.3
		c-0.5,0.8-1.2,1.5-2.1,1.9s-1.8,0.7-2.9,0.7c-1,0-1.8-0.2-2.5-0.5c-0.7-0.3-1.3-0.7-1.8-1.3c-0.5-0.5-0.9-1.2-1.1-1.9
		c-0.3-0.7-0.4-1.5-0.4-2.4c0-0.9,0.1-1.7,0.4-2.4c0.3-0.8,0.6-1.4,1.1-2c0.5-0.6,1.1-1,1.8-1.3c0.7-0.3,1.5-0.5,2.4-0.5
		c0.9,0,1.6,0.2,2.3,0.5c0.7,0.3,1.2,0.7,1.7,1.3s0.8,1.2,1,2c0.2,0.8,0.3,1.6,0.3,2.5c0,0.2,0,0.3,0,0.4c0,0.1,0,0.2,0,0.2H53.4z
		 M55.8,232.8c-0.7,0-1.3,0.2-1.7,0.7c-0.4,0.5-0.6,1.2-0.7,2h4.7c0-0.4,0-0.7-0.1-1c-0.1-0.3-0.2-0.6-0.4-0.9
		c-0.2-0.3-0.4-0.5-0.7-0.6C56.6,232.8,56.2,232.8,55.8,232.8z"/>
	<path class="st1" d="M63.8,232.8H62v-2h0.4c0.5,0,0.9-0.1,1.3-0.3c0.3-0.2,0.6-0.4,0.7-0.7c0.2-0.3,0.3-0.6,0.4-1
		c0.1-0.4,0.2-0.8,0.3-1.3h2v3.3h2.4v2h-2.4v6c0,0.5,0.1,0.8,0.2,1.1c0.2,0.2,0.5,0.4,1,0.4c0.2,0,0.3,0,0.5,0s0.4-0.1,0.6-0.2
		l0.2,2.2c-0.4,0.2-0.8,0.3-1.2,0.3c-0.4,0.1-0.8,0.1-1.2,0.1c-0.7,0-1.2-0.1-1.6-0.3c-0.4-0.2-0.8-0.4-1-0.7
		c-0.3-0.3-0.4-0.7-0.5-1.1c-0.1-0.4-0.1-0.9-0.1-1.4V232.8z"/>
	<path class="st1" d="M90.6,238.8c-0.8,1.3-1.7,2.3-2.8,3s-2.5,1-4.1,1c-1.3,0-2.5-0.2-3.4-0.6c-1-0.4-1.8-1-2.5-1.8
		c-0.7-0.8-1.2-1.7-1.5-2.7c-0.3-1-0.5-2.2-0.5-3.4c0-1.2,0.2-2.4,0.5-3.4c0.4-1,0.9-1.9,1.5-2.7c0.7-0.8,1.5-1.3,2.5-1.7
		c1-0.4,2.1-0.6,3.4-0.6c1.4,0,2.7,0.3,3.9,0.8s2.1,1.5,3,2.8l-3.2,1.6c-0.4-0.7-0.8-1.3-1.5-1.7c-0.6-0.4-1.3-0.6-2.2-0.6
		c-0.7,0-1.4,0.1-1.9,0.4c-0.6,0.3-1,0.7-1.4,1.2c-0.4,0.5-0.6,1.1-0.8,1.8c-0.2,0.7-0.3,1.4-0.3,2.2c0,0.8,0.1,1.5,0.3,2.2
		s0.5,1.3,0.9,1.8c0.4,0.5,0.9,0.9,1.4,1.2c0.6,0.3,1.2,0.4,1.9,0.4c0.9,0,1.6-0.2,2.2-0.6c0.6-0.4,1.1-1.1,1.5-2L90.6,238.8z"/>
	<path class="st1" d="M92.5,226.1h3.1v16.2h-3.1V226.1z"/>
	<path class="st1" d="M105.2,242.4c-0.1-0.2-0.2-0.5-0.2-0.8s-0.1-0.6-0.1-0.9c-0.2,0.6-0.6,1-1.2,1.4c-0.6,0.4-1.3,0.6-2.2,0.6
		c-1.2,0-2.1-0.3-2.8-1c-0.7-0.7-1-1.6-1-2.6c0-0.6,0.1-1.1,0.3-1.5c0.2-0.4,0.5-0.8,0.9-1.1c0.4-0.3,0.8-0.5,1.4-0.7
		s1.1-0.3,1.8-0.4l2.6-0.4v-0.4c0-0.7-0.2-1.1-0.5-1.3s-0.8-0.3-1.3-0.3c-0.8,0-1.4,0.1-2,0.4c-0.5,0.3-1,0.6-1.4,1l-1.5-2.1
		c0.5-0.5,1.1-0.9,2-1.2c0.9-0.4,1.9-0.6,3.2-0.6c1.6,0,2.8,0.4,3.5,1.1c0.7,0.7,1.1,1.8,1.1,3.2v4.3c0,0.4,0,0.8,0,1.1
		c0,0.3,0,0.6,0.1,0.8c0,0.2,0.1,0.5,0.1,0.7c0.1,0.2,0.1,0.4,0.2,0.7H105.2z M104.7,236.9l-2,0.4c-0.7,0.1-1.2,0.3-1.5,0.6
		s-0.5,0.6-0.5,1.1s0.1,0.8,0.4,1.1s0.7,0.4,1.1,0.4c0.7,0,1.2-0.2,1.7-0.7c0.5-0.5,0.7-1.2,0.7-2.1V236.9z"/>
	<path class="st1" d="M110.4,226.3h3.1v2.6h-3.1V226.3z M110.4,230.8h3.1v11.5h-3.1V230.8z"/>
	<path class="st1" d="M116,230.8h2.8l0.3,1.9c0.3-0.7,0.7-1.2,1.3-1.6c0.6-0.4,1.3-0.6,2.1-0.6c0.9,0,1.7,0.2,2.2,0.7s0.9,1,1.1,1.6
		c0.1-0.3,0.3-0.6,0.5-0.9c0.2-0.3,0.4-0.5,0.7-0.7s0.6-0.4,1-0.5c0.4-0.1,0.9-0.2,1.4-0.2c0.8,0,1.4,0.1,1.9,0.4s0.9,0.6,1.1,1
		c0.3,0.4,0.4,0.9,0.5,1.5c0.1,0.6,0.1,1.1,0.1,1.7v7.3h-3.1v-6.4c0-0.9-0.1-1.6-0.4-2.1c-0.3-0.5-0.7-0.7-1.4-0.7
		c-0.3,0-0.5,0-0.7,0.1s-0.5,0.3-0.6,0.5s-0.3,0.6-0.5,1c-0.1,0.4-0.2,0.9-0.2,1.5v6h-3.1v-6.4c0-1.8-0.6-2.7-1.7-2.7
		c-0.3,0-0.5,0.1-0.7,0.2c-0.2,0.1-0.5,0.3-0.7,0.6c-0.2,0.3-0.4,0.6-0.5,1.1c-0.1,0.4-0.2,1-0.2,1.6v5.7H116V230.8z"/>
	<path class="st1" d="M135.6,226.1h6.3c0.8,0,1.6,0.1,2.3,0.3c0.7,0.2,1.4,0.5,1.9,0.9c0.6,0.4,1,0.9,1.3,1.6
		c0.3,0.6,0.5,1.4,0.5,2.3c0,1-0.2,1.8-0.5,2.5c-0.3,0.7-0.7,1.2-1.3,1.7c-0.5,0.4-1.2,0.7-1.9,0.9c-0.7,0.2-1.5,0.3-2.4,0.3h-3v5.8
		h-3.4V226.1z M141.4,233.8c0.4,0,0.9,0,1.2-0.1c0.4-0.1,0.7-0.2,1-0.4c0.3-0.2,0.5-0.5,0.6-0.8c0.1-0.4,0.2-0.8,0.2-1.3
		c0-0.5-0.1-0.8-0.2-1.1c-0.2-0.3-0.4-0.6-0.7-0.8c-0.3-0.2-0.6-0.3-1-0.4c-0.4-0.1-0.8-0.1-1.2-0.1H139v5.2H141.4z"/>
	<path class="st1" d="M156.4,242.4c-0.1-0.2-0.2-0.5-0.2-0.8s-0.1-0.6-0.1-0.9c-0.2,0.6-0.6,1-1.2,1.4s-1.3,0.6-2.2,0.6
		c-1.2,0-2.1-0.3-2.8-1s-1-1.6-1-2.6c0-0.6,0.1-1.1,0.3-1.5s0.5-0.8,0.9-1.1c0.4-0.3,0.8-0.5,1.4-0.7c0.5-0.2,1.1-0.3,1.8-0.4
		l2.6-0.4v-0.4c0-0.7-0.2-1.1-0.5-1.3c-0.3-0.2-0.8-0.3-1.3-0.3c-0.8,0-1.4,0.1-2,0.4c-0.5,0.3-1,0.6-1.4,1l-1.5-2.1
		c0.5-0.5,1.2-0.9,2-1.2c0.9-0.4,1.9-0.6,3.2-0.6c1.6,0,2.8,0.4,3.5,1.1c0.7,0.7,1.1,1.8,1.1,3.2v4.3c0,0.4,0,0.8,0,1.1
		c0,0.3,0,0.6,0.1,0.8c0,0.2,0.1,0.5,0.1,0.7c0.1,0.2,0.1,0.4,0.2,0.7H156.4z M155.9,236.9l-2,0.4c-0.7,0.1-1.2,0.3-1.5,0.6
		s-0.5,0.6-0.5,1.1s0.1,0.8,0.4,1.1s0.7,0.4,1.2,0.4c0.7,0,1.2-0.2,1.7-0.7c0.5-0.5,0.7-1.2,0.7-2.1V236.9z"/>
	<path class="st1" d="M162.4,238.9c0.2,0.2,0.4,0.4,0.7,0.6s0.5,0.3,0.8,0.5s0.6,0.3,1,0.3c0.3,0.1,0.7,0.1,1,0.1
		c0.4,0,0.8-0.1,1.2-0.3c0.4-0.2,0.5-0.5,0.5-0.9c0-0.4-0.2-0.6-0.5-0.8c-0.3-0.2-0.7-0.4-1.1-0.5s-1-0.3-1.5-0.5
		c-0.5-0.2-1-0.4-1.5-0.6s-0.8-0.6-1.1-1c-0.3-0.4-0.5-1-0.5-1.7c0-0.6,0.1-1.2,0.4-1.6s0.6-0.8,1-1.1c0.4-0.3,0.9-0.5,1.5-0.7
		c0.6-0.1,1.1-0.2,1.7-0.2c1,0,1.8,0.1,2.6,0.4c0.8,0.2,1.4,0.6,2,1l-1.4,2.1c-0.2-0.2-0.4-0.3-0.6-0.4s-0.5-0.3-0.8-0.4
		c-0.3-0.1-0.6-0.2-0.9-0.3c-0.3-0.1-0.6-0.1-0.9-0.1c-0.4,0-0.7,0.1-0.9,0.2c-0.3,0.2-0.4,0.4-0.4,0.8c0,0.3,0.2,0.6,0.5,0.8
		c0.3,0.2,0.7,0.4,1.1,0.5c0.5,0.2,1,0.3,1.5,0.5c0.5,0.2,1,0.4,1.5,0.7s0.8,0.6,1.2,1.1s0.5,1,0.5,1.7c0,0.6-0.1,1.2-0.4,1.7
		c-0.3,0.5-0.6,0.9-1.1,1.2c-0.4,0.3-1,0.6-1.5,0.7c-0.6,0.2-1.1,0.2-1.7,0.2c-2.1,0-3.8-0.6-5.1-1.7L162.4,238.9z"/>
	<path class="st1" d="M173.1,238.9c0.2,0.2,0.4,0.4,0.7,0.6s0.5,0.3,0.8,0.5s0.6,0.3,1,0.3c0.3,0.1,0.7,0.1,1,0.1
		c0.4,0,0.8-0.1,1.2-0.3c0.4-0.2,0.5-0.5,0.5-0.9c0-0.4-0.2-0.6-0.5-0.8c-0.3-0.2-0.7-0.4-1.1-0.5s-1-0.3-1.5-0.5
		c-0.5-0.2-1-0.4-1.5-0.6s-0.8-0.6-1.1-1c-0.3-0.4-0.5-1-0.5-1.7c0-0.6,0.1-1.2,0.4-1.6s0.6-0.8,1-1.1c0.4-0.3,0.9-0.5,1.5-0.7
		c0.6-0.1,1.1-0.2,1.7-0.2c1,0,1.8,0.1,2.6,0.4c0.8,0.2,1.4,0.6,2,1l-1.4,2.1c-0.2-0.2-0.4-0.3-0.6-0.4s-0.5-0.3-0.8-0.4
		c-0.3-0.1-0.6-0.2-0.9-0.3c-0.3-0.1-0.6-0.1-0.9-0.1c-0.4,0-0.7,0.1-0.9,0.2c-0.3,0.2-0.4,0.4-0.4,0.8c0,0.3,0.2,0.6,0.5,0.8
		c0.3,0.2,0.7,0.4,1.1,0.5c0.5,0.2,1,0.3,1.5,0.5c0.5,0.2,1,0.4,1.5,0.7s0.8,0.6,1.2,1.1s0.5,1,0.5,1.7c0,0.6-0.1,1.2-0.4,1.7
		c-0.3,0.5-0.6,0.9-1.1,1.2c-0.4,0.3-1,0.6-1.5,0.7c-0.6,0.2-1.1,0.2-1.7,0.2c-2.1,0-3.8-0.6-5.1-1.7L173.1,238.9z"/>
</g>
<g>
	<path class="st1" d="M183.5,238.9h3.5v3.5h-3.5V238.9z"/>
</g>
<g>
	<path class="st1" d="M45.5,264.2c-0.4,0.7-1,1.3-1.8,1.8c-0.8,0.5-1.8,0.7-2.9,0.7c-1.3,0-2.4-0.2-3.3-0.6c-1-0.4-1.8-1-2.4-1.8
		c-0.7-0.8-1.2-1.7-1.5-2.7c-0.3-1-0.5-2.2-0.5-3.4c0-1.2,0.2-2.4,0.5-3.4c0.4-1,0.9-1.9,1.5-2.7s1.5-1.3,2.5-1.7
		c1-0.4,2.1-0.6,3.3-0.6c1.4,0,2.8,0.3,4,0.9c1.2,0.6,2.2,1.5,3,2.7l-3.2,1.6c-0.1-0.4-0.3-0.7-0.6-1c-0.3-0.3-0.6-0.5-0.9-0.7
		c-0.3-0.2-0.7-0.3-1.1-0.4c-0.4-0.1-0.8-0.1-1.2-0.1c-0.8,0-1.4,0.1-1.9,0.4c-0.5,0.3-1,0.7-1.3,1.2c-0.4,0.5-0.6,1.1-0.8,1.8
		c-0.2,0.7-0.3,1.4-0.3,2.2c0,0.8,0.1,1.5,0.3,2.2s0.5,1.3,0.8,1.8c0.4,0.5,0.8,0.9,1.3,1.2c0.5,0.3,1.1,0.4,1.8,0.4
		c0.7,0,1.3-0.1,1.8-0.3s0.9-0.5,1.2-0.9c0.3-0.3,0.6-0.7,0.7-1.1c0.2-0.4,0.2-0.8,0.2-1.1V260h-3.5v-2.6H48v8.9h-2L45.5,264.2z"/>
	<path class="st1" d="M53.4,261.3c0.1,1.1,0.4,1.9,0.9,2.3c0.5,0.5,1.1,0.7,1.9,0.7c1.1,0,1.9-0.5,2.5-1.5l2.3,1.3
		c-0.5,0.8-1.2,1.5-2.1,1.9s-1.8,0.7-2.9,0.7c-1,0-1.8-0.2-2.5-0.5c-0.7-0.3-1.3-0.7-1.8-1.3c-0.5-0.5-0.9-1.2-1.1-1.9
		c-0.3-0.7-0.4-1.5-0.4-2.4c0-0.9,0.1-1.7,0.4-2.4c0.3-0.8,0.6-1.4,1.1-2c0.5-0.6,1.1-1,1.8-1.3c0.7-0.3,1.5-0.5,2.4-0.5
		c0.9,0,1.6,0.2,2.3,0.5c0.7,0.3,1.2,0.7,1.7,1.3s0.8,1.2,1,2c0.2,0.8,0.3,1.6,0.3,2.5c0,0.2,0,0.3,0,0.4c0,0.1,0,0.2,0,0.2H53.4z
		 M55.8,256.8c-0.7,0-1.3,0.2-1.7,0.7c-0.4,0.5-0.6,1.2-0.7,2h4.7c0-0.4,0-0.7-0.1-1c-0.1-0.3-0.2-0.6-0.4-0.9
		c-0.2-0.3-0.4-0.5-0.7-0.6C56.6,256.8,56.2,256.8,55.8,256.8z"/>
	<path class="st1" d="M63.8,256.8H62v-2h0.4c0.5,0,0.9-0.1,1.3-0.3c0.3-0.2,0.6-0.4,0.7-0.7c0.2-0.3,0.3-0.6,0.4-1
		c0.1-0.4,0.2-0.8,0.3-1.3h2v3.3h2.4v2h-2.4v6c0,0.5,0.1,0.8,0.2,1.1c0.2,0.2,0.5,0.4,1,0.4c0.2,0,0.3,0,0.5,0s0.4-0.1,0.6-0.2
		l0.2,2.2c-0.4,0.2-0.8,0.3-1.2,0.3c-0.4,0.1-0.8,0.1-1.2,0.1c-0.7,0-1.2-0.1-1.6-0.3c-0.4-0.2-0.8-0.4-1-0.7
		c-0.3-0.3-0.4-0.7-0.5-1.1c-0.1-0.4-0.1-0.9-0.1-1.4V256.8z"/>
	<path class="st1" d="M76.3,254.8h2.8l0.3,1.9c0.3-0.7,0.7-1.2,1.3-1.6c0.6-0.4,1.3-0.6,2.1-0.6c0.9,0,1.7,0.2,2.2,0.7
		s0.9,1,1.1,1.6c0.1-0.3,0.3-0.6,0.5-0.9c0.2-0.3,0.4-0.5,0.7-0.7s0.6-0.4,1-0.5c0.4-0.1,0.9-0.2,1.4-0.2c0.8,0,1.4,0.1,1.9,0.4
		s0.9,0.6,1.1,1c0.3,0.4,0.4,0.9,0.5,1.5c0.1,0.6,0.1,1.1,0.1,1.7v7.3h-3.1v-6.4c0-0.9-0.1-1.6-0.4-2.1c-0.3-0.5-0.7-0.7-1.4-0.7
		c-0.3,0-0.5,0-0.7,0.1s-0.5,0.3-0.6,0.5s-0.3,0.6-0.5,1c-0.1,0.4-0.2,0.9-0.2,1.5v6h-3.1v-6.4c0-1.8-0.6-2.7-1.7-2.7
		c-0.3,0-0.5,0.1-0.7,0.2c-0.2,0.1-0.5,0.3-0.7,0.6c-0.2,0.3-0.4,0.6-0.5,1.1c-0.1,0.4-0.2,1-0.2,1.6v5.7h-3.1V254.8z"/>
	<path class="st1" d="M100.8,266.7c-1,0-1.8-0.2-2.5-0.5c-0.7-0.3-1.3-0.7-1.8-1.3c-0.5-0.6-0.8-1.2-1.1-1.9
		c-0.2-0.7-0.4-1.6-0.4-2.4s0.1-1.7,0.4-2.4c0.2-0.7,0.6-1.4,1.1-1.9c0.5-0.5,1.1-1,1.8-1.3c0.7-0.3,1.5-0.5,2.4-0.5
		s1.7,0.2,2.4,0.5c0.7,0.3,1.3,0.7,1.8,1.3c0.5,0.6,0.8,1.2,1.1,1.9c0.2,0.7,0.4,1.6,0.4,2.4s-0.1,1.7-0.4,2.4
		c-0.2,0.7-0.6,1.4-1.1,1.9c-0.5,0.6-1.1,1-1.8,1.3C102.5,266.6,101.7,266.7,100.8,266.7z M100.8,264.3c0.8,0,1.4-0.3,1.7-1
		s0.6-1.6,0.6-2.7c0-1.1-0.2-2-0.6-2.7c-0.4-0.7-1-1-1.8-1c-0.8,0-1.4,0.3-1.8,1c-0.4,0.7-0.6,1.6-0.6,2.7c0,1.1,0.2,2,0.6,2.7
		C99.4,264,100,264.3,100.8,264.3z"/>
	<path class="st1" d="M108.4,254.8h2.8l0.2,2.3c0.4-0.8,0.9-1.4,1.5-1.9c0.7-0.5,1.5-0.7,2.5-0.7v3.2c-0.1,0-0.3-0.1-0.4-0.1
		c-0.2,0-0.4,0-0.6,0c-0.3,0-0.7,0-1,0.1c-0.3,0.1-0.7,0.2-0.9,0.5c-0.3,0.2-0.5,0.6-0.7,1c-0.2,0.4-0.3,1-0.3,1.7v5.5h-3.1V254.8z"
		/>
	<path class="st1" d="M119.4,261.3c0.1,1.1,0.4,1.9,0.9,2.3c0.5,0.5,1.1,0.7,1.9,0.7c1.1,0,1.9-0.5,2.5-1.5l2.3,1.3
		c-0.5,0.8-1.2,1.5-2.1,1.9s-1.8,0.7-2.9,0.7c-1,0-1.8-0.2-2.5-0.5c-0.7-0.3-1.3-0.7-1.8-1.3c-0.5-0.5-0.9-1.2-1.1-1.9
		c-0.3-0.7-0.4-1.5-0.4-2.4c0-0.9,0.1-1.7,0.4-2.4c0.3-0.8,0.6-1.4,1.1-2c0.5-0.6,1.1-1,1.8-1.3c0.7-0.3,1.5-0.5,2.4-0.5
		c0.9,0,1.6,0.2,2.3,0.5c0.7,0.3,1.2,0.7,1.7,1.3s0.8,1.2,1,2c0.2,0.8,0.3,1.6,0.3,2.5c0,0.2,0,0.3,0,0.4c0,0.1,0,0.2,0,0.2H119.4z
		 M121.8,256.8c-0.7,0-1.3,0.2-1.7,0.7c-0.4,0.5-0.6,1.2-0.7,2h4.7c0-0.4,0-0.7-0.1-1c-0.1-0.3-0.2-0.6-0.4-0.9
		c-0.2-0.3-0.4-0.5-0.7-0.6C122.5,256.8,122.2,256.8,121.8,256.8z"/>
	<path class="st1" d="M135.1,262.9c0.2,0.2,0.4,0.4,0.7,0.6c0.3,0.2,0.5,0.3,0.8,0.5c0.3,0.1,0.6,0.3,1,0.3c0.3,0.1,0.7,0.1,1,0.1
		c0.4,0,0.8-0.1,1.2-0.3c0.4-0.2,0.5-0.5,0.5-0.9c0-0.4-0.2-0.6-0.5-0.8c-0.3-0.2-0.7-0.4-1.1-0.5s-1-0.3-1.5-0.5
		c-0.5-0.2-1-0.4-1.5-0.6c-0.5-0.3-0.8-0.6-1.2-1c-0.3-0.4-0.5-1-0.5-1.7c0-0.6,0.1-1.2,0.4-1.6s0.6-0.8,1-1.1
		c0.4-0.3,0.9-0.5,1.5-0.7c0.6-0.1,1.1-0.2,1.7-0.2c1,0,1.8,0.1,2.6,0.4c0.8,0.2,1.4,0.6,2,1l-1.4,2.1c-0.2-0.2-0.4-0.3-0.6-0.4
		c-0.2-0.1-0.5-0.3-0.8-0.4c-0.3-0.1-0.6-0.2-0.9-0.3c-0.3-0.1-0.6-0.1-0.9-0.1c-0.4,0-0.7,0.1-0.9,0.2c-0.3,0.2-0.4,0.4-0.4,0.8
		c0,0.3,0.2,0.6,0.5,0.8c0.3,0.2,0.7,0.4,1.1,0.5c0.5,0.2,1,0.3,1.5,0.5c0.5,0.2,1,0.4,1.5,0.7s0.8,0.6,1.2,1.1
		c0.3,0.4,0.5,1,0.5,1.7c0,0.6-0.1,1.2-0.4,1.7c-0.3,0.5-0.6,0.9-1.1,1.2c-0.4,0.3-1,0.6-1.5,0.7c-0.6,0.2-1.1,0.2-1.7,0.2
		c-2.1,0-3.8-0.6-5.1-1.7L135.1,262.9z"/>
	<path class="st1" d="M152.3,266.3c-0.1-0.2-0.2-0.5-0.2-0.8c-0.1-0.3-0.1-0.6-0.1-0.9c-0.2,0.6-0.6,1-1.2,1.4
		c-0.6,0.4-1.3,0.6-2.2,0.6c-1.2,0-2.1-0.3-2.8-1c-0.7-0.7-1-1.6-1-2.6c0-0.6,0.1-1.1,0.3-1.5c0.2-0.4,0.5-0.8,0.9-1.1
		c0.4-0.3,0.8-0.5,1.4-0.7c0.5-0.2,1.1-0.3,1.8-0.4l2.6-0.4v-0.4c0-0.7-0.2-1.1-0.5-1.3c-0.3-0.2-0.8-0.3-1.3-0.3
		c-0.8,0-1.4,0.1-2,0.4c-0.5,0.3-1,0.6-1.4,1l-1.5-2.1c0.5-0.5,1.1-0.9,2-1.2c0.9-0.4,1.9-0.6,3.2-0.6c1.6,0,2.8,0.4,3.5,1.1
		c0.7,0.7,1.1,1.8,1.1,3.2v4.3c0,0.4,0,0.8,0,1.1c0,0.3,0,0.6,0.1,0.8c0,0.2,0.1,0.5,0.1,0.7c0.1,0.2,0.1,0.4,0.2,0.7H152.3z
		 M151.8,260.9l-2,0.4c-0.7,0.1-1.2,0.3-1.5,0.6s-0.5,0.6-0.5,1.1s0.1,0.8,0.4,1.1c0.3,0.3,0.7,0.4,1.2,0.4c0.7,0,1.2-0.2,1.7-0.7
		c0.5-0.5,0.7-1.2,0.7-2.1V260.9z"/>
	<path class="st1" d="M156.2,254.8h3.5l2.2,8.6l2.2-8.6h3.4l-3.8,11.5H160L156.2,254.8z"/>
	<path class="st1" d="M169,250.2h3.1v2.6H169V250.2z M169,254.8h3.1v11.5H169V254.8z"/>
	<path class="st1" d="M174.6,254.8h2.8l0.3,1.9c0.3-0.6,0.8-1.1,1.4-1.6s1.4-0.7,2.3-0.7c1.3,0,2.2,0.4,2.8,1.2
		c0.6,0.8,0.9,2,0.9,3.5v7.2h-3.1v-6.5c0-1-0.2-1.7-0.5-2.1c-0.3-0.4-0.8-0.6-1.4-0.6c-0.7,0-1.2,0.3-1.6,0.8
		c-0.4,0.5-0.6,1.4-0.6,2.6v5.7h-3.1V254.8z"/>
	<path class="st1" d="M188.8,266.8c0.4,0.4,1,0.8,1.6,1c0.6,0.3,1.3,0.4,2,0.4c0.9,0,1.5-0.2,1.8-0.7c0.3-0.4,0.5-1,0.5-1.7v-1.5
		c-0.3,0.5-0.7,0.9-1.2,1.3c-0.5,0.3-1.2,0.5-2,0.5c-0.6,0-1.2-0.1-1.7-0.3c-0.5-0.2-1-0.6-1.4-1s-0.7-1-1-1.8
		c-0.2-0.7-0.4-1.6-0.4-2.6c0-0.9,0.1-1.8,0.3-2.5s0.5-1.4,0.9-1.9c0.4-0.5,0.9-0.9,1.5-1.2s1.2-0.4,1.9-0.4c0.8,0,1.5,0.2,2,0.5
		c0.6,0.4,1,0.9,1.3,1.6l0.4-1.8h2.5v10.9c0,0.7-0.1,1.3-0.3,1.9c-0.2,0.6-0.5,1.1-0.9,1.6c-0.4,0.4-1,0.8-1.7,1
		c-0.7,0.3-1.5,0.4-2.5,0.4c-1.2,0-2.3-0.2-3.2-0.5c-0.9-0.3-1.6-0.7-2.2-1.1L188.8,266.8z M194.7,260.2c0-0.4,0-0.8-0.1-1.2
		c-0.1-0.4-0.2-0.7-0.4-1c-0.2-0.3-0.4-0.5-0.7-0.7s-0.6-0.3-1-0.3c-0.7,0-1.2,0.3-1.6,0.9s-0.6,1.4-0.6,2.5c0,1,0.2,1.8,0.6,2.4
		s0.9,0.9,1.7,0.9c0.7,0,1.3-0.3,1.6-0.9c0.4-0.6,0.5-1.3,0.5-2.3V260.2z"/>
	<path class="st1" d="M201.1,262.9c0.2,0.2,0.4,0.4,0.7,0.6s0.5,0.3,0.8,0.5s0.6,0.3,1,0.3c0.3,0.1,0.7,0.1,1,0.1
		c0.4,0,0.8-0.1,1.2-0.3c0.4-0.2,0.5-0.5,0.5-0.9c0-0.4-0.2-0.6-0.5-0.8c-0.3-0.2-0.7-0.4-1.1-0.5s-1-0.3-1.5-0.5
		c-0.5-0.2-1-0.4-1.5-0.6s-0.8-0.6-1.1-1c-0.3-0.4-0.5-1-0.5-1.7c0-0.6,0.1-1.2,0.4-1.6s0.6-0.8,1-1.1c0.4-0.3,0.9-0.5,1.5-0.7
		c0.6-0.1,1.1-0.2,1.7-0.2c1,0,1.8,0.1,2.6,0.4c0.8,0.2,1.4,0.6,2,1l-1.4,2.1c-0.2-0.2-0.4-0.3-0.6-0.4s-0.5-0.3-0.8-0.4
		c-0.3-0.1-0.6-0.2-0.9-0.3c-0.3-0.1-0.6-0.1-0.9-0.1c-0.4,0-0.7,0.1-0.9,0.2c-0.3,0.2-0.4,0.4-0.4,0.8c0,0.3,0.2,0.6,0.5,0.8
		c0.3,0.2,0.7,0.4,1.1,0.5c0.5,0.2,1,0.3,1.5,0.5c0.5,0.2,1,0.4,1.5,0.7s0.8,0.6,1.2,1.1s0.5,1,0.5,1.7c0,0.6-0.1,1.2-0.4,1.7
		c-0.3,0.5-0.6,0.9-1.1,1.2c-0.4,0.3-1,0.6-1.5,0.7c-0.6,0.2-1.1,0.2-1.7,0.2c-2.1,0-3.8-0.6-5.1-1.7L201.1,262.9z"/>
	<path class="st1" d="M211,262.8h3.5v3.5H211V262.8z"/>
</g>
</svg>
