<?xml version="1.0" encoding="utf-8"?>
<!-- Generator: Adobe Illustrator 22.1.0, SVG Export Plug-In . SVG Version: 6.00 Build 0)  -->
<svg version="1.1" id="Layer_1" xmlns="http://www.w3.org/2000/svg" xmlns:xlink="http://www.w3.org/1999/xlink" x="0px" y="0px"
	 viewBox="0 0 300 600" style="enable-background:new 0 0 300 600;" xml:space="preserve">
<style type="text/css">
	.st0{fill:#662868;}
</style>
<g>
	<path class="st0" d="M47.9,173.3c-1.4,0-2.7-0.2-4-0.6c-1.3-0.4-2.4-1.1-3.3-1.9c-1-0.9-1.7-2-2.3-3.3c-0.6-1.3-0.8-2.9-0.8-4.8
		c0-1.8,0.3-3.4,0.8-4.8c0.6-1.3,1.3-2.5,2.3-3.3s2.1-1.5,3.3-2c1.3-0.4,2.6-0.6,4-0.6s2.7,0.2,4,0.6c1.3,0.4,2.4,1.1,3.3,2
		c1,0.9,1.7,2,2.3,3.3c0.6,1.4,0.9,2.9,0.9,4.8c0,1.8-0.3,3.4-0.9,4.8s-1.4,2.4-2.3,3.3c-1,0.9-2.1,1.5-3.3,1.9
		C50.6,173.1,49.3,173.3,47.9,173.3z M47.9,168.8c0.7,0,1.3-0.1,1.9-0.3c0.6-0.2,1.1-0.6,1.5-1.1s0.8-1.1,1-1.9
		c0.2-0.8,0.4-1.7,0.4-2.8c0-2-0.5-3.5-1.4-4.6c-0.9-1.1-2.1-1.6-3.6-1.6c-1.4,0-2.6,0.5-3.5,1.6c-0.9,1.1-1.3,2.6-1.3,4.6
		c0,1.1,0.1,2,0.4,2.8c0.3,0.8,0.6,1.4,1.1,1.9c0.4,0.5,1,0.9,1.5,1.1C46.7,168.7,47.3,168.8,47.9,168.8z"/>
	<path class="st0" d="M61.1,161.2h-2.3v-3.1h0.4c0.8,0,1.3-0.1,1.8-0.4c0.4-0.3,0.8-0.6,1-1c0.2-0.4,0.4-0.9,0.5-1.4
		c0.1-0.5,0.2-1,0.4-1.6H66v4.3h3v3.1h-3v6.8c0,0.4,0.1,0.8,0.3,1.1c0.2,0.3,0.6,0.4,1.1,0.4c0.2,0,0.3,0,0.6,0
		c0.2,0,0.5-0.1,0.8-0.2l0.3,3.4c-0.5,0.2-1.1,0.4-1.6,0.4c-0.5,0.1-1.1,0.1-1.7,0.1c-0.9,0-1.7-0.1-2.3-0.3c-0.6-0.2-1.1-0.6-1.4-1
		c-0.3-0.4-0.6-0.9-0.7-1.5c-0.1-0.6-0.2-1.2-0.2-1.9V161.2z"/>
	<path class="st0" d="M70.2,152.4h4.9v7.7c0.4-0.7,0.9-1.2,1.7-1.7s1.7-0.7,2.8-0.7c1.7,0,2.9,0.5,3.7,1.6c0.8,1.1,1.2,2.6,1.2,4.7
		v8.9h-4.9v-8c0-0.9-0.2-1.6-0.5-2.2c-0.3-0.5-0.9-0.8-1.6-0.8c-0.7,0-1.3,0.3-1.7,0.9c-0.4,0.6-0.7,1.5-0.7,2.9v7.2h-4.9V152.4z"/>
	<path class="st0" d="M90.9,166.6c0.2,1.1,0.5,1.9,1.1,2.4c0.6,0.5,1.2,0.7,1.9,0.7c0.6,0,1.2-0.1,1.6-0.4c0.5-0.3,0.8-0.7,1.2-1.2
		l3.6,2c-0.7,1.1-1.7,1.9-2.8,2.5c-1.2,0.5-2.4,0.8-3.8,0.8c-1.3,0-2.4-0.2-3.3-0.6c-1-0.4-1.8-0.9-2.4-1.6
		c-0.7-0.7-1.2-1.5-1.5-2.5c-0.3-1-0.5-2-0.5-3.1c0-1.1,0.2-2.2,0.5-3.1c0.3-1,0.8-1.8,1.5-2.5c0.6-0.7,1.4-1.2,2.4-1.6
		c0.9-0.4,2-0.6,3.2-0.6c1.1,0,2.2,0.2,3,0.6c0.9,0.4,1.6,0.9,2.2,1.6c0.6,0.7,1.1,1.6,1.4,2.6c0.3,1,0.5,2.1,0.5,3.3
		c0,0.3,0,0.5,0,0.6c0,0.1,0,0.2,0,0.2H90.9z M93.3,161.2c-1.4,0-2.2,0.9-2.4,2.7h4.8c0-0.7-0.2-1.4-0.6-1.9
		C94.7,161.5,94.1,161.2,93.3,161.2z"/>
	<path class="st0" d="M102.2,158.1h4.4l0.3,2.7c0.4-0.9,1.1-1.6,1.9-2.2c0.8-0.6,1.9-0.9,3.2-0.9v5c-0.3-0.1-0.9-0.1-1.5-0.1
		c-0.4,0-0.8,0-1.2,0.1c-0.4,0.1-0.8,0.2-1.1,0.5c-0.3,0.3-0.6,0.6-0.8,1.2s-0.3,1.2-0.3,2.1v6.5h-4.9V158.1z"/>
	<path class="st0" d="M132.6,169.8c-0.7,1.3-1.7,2.2-2.8,2.7c-1.1,0.6-2.4,0.8-3.9,0.8c-1.3,0-2.4-0.2-3.4-0.6
		c-0.9-0.4-1.7-1-2.3-1.7c-0.6-0.7-1.1-1.5-1.3-2.5c-0.3-0.9-0.4-2-0.4-3c0-1.2,0.2-2.3,0.5-3.3s0.8-1.8,1.5-2.5
		c0.6-0.7,1.4-1.2,2.3-1.6c0.9-0.4,2-0.6,3.1-0.6c1.5,0,2.8,0.3,3.9,0.9c1.1,0.6,2,1.6,2.7,2.8l-4,1.9c-0.3-0.7-0.6-1.2-1-1.5
		c-0.4-0.3-0.9-0.4-1.4-0.4c-0.9,0-1.6,0.4-2,1.1c-0.4,0.7-0.6,1.7-0.6,2.8c0,0.5,0,0.9,0.1,1.4c0.1,0.5,0.2,1,0.4,1.4
		c0.2,0.4,0.5,0.8,0.9,1.1s0.9,0.4,1.5,0.4c0.7,0,1.2-0.2,1.6-0.5c0.4-0.4,0.8-0.9,1-1.5L132.6,169.8z"/>
	<path class="st0" d="M140.2,173.3c-1.3,0-2.4-0.2-3.3-0.6c-0.9-0.4-1.7-0.9-2.3-1.6c-0.6-0.7-1.1-1.5-1.4-2.5
		c-0.3-0.9-0.5-2-0.5-3.1c0-1.1,0.2-2.2,0.5-3.1s0.8-1.8,1.4-2.5c0.6-0.7,1.4-1.3,2.3-1.7c0.9-0.4,2-0.6,3.2-0.6
		c1.2,0,2.3,0.2,3.2,0.6c0.9,0.4,1.7,0.9,2.3,1.6c0.6,0.7,1.1,1.5,1.4,2.5c0.3,1,0.5,2,0.5,3.1c0,1.1-0.2,2.2-0.5,3.1
		c-0.3,0.9-0.8,1.8-1.4,2.5s-1.4,1.2-2.3,1.6C142.5,173.1,141.4,173.3,140.2,173.3z M140.3,169.6c0.8,0,1.4-0.4,1.8-1.1
		c0.4-0.7,0.5-1.7,0.5-3s-0.2-2.3-0.6-3c-0.4-0.8-1-1.1-1.8-1.1s-1.4,0.4-1.8,1.1s-0.6,1.8-0.6,3s0.2,2.3,0.6,3
		C138.8,169.2,139.4,169.6,140.3,169.6z"/>
	<path class="st0" d="M149.2,158.1h4.4l0.4,2.1c0.4-0.8,1-1.4,1.7-1.8s1.5-0.7,2.6-0.7c1.2,0,2.1,0.3,2.8,0.8
		c0.7,0.5,1.1,1.1,1.4,1.8c0.2-0.3,0.4-0.6,0.6-0.9c0.2-0.3,0.5-0.6,0.9-0.9c0.4-0.3,0.8-0.5,1.3-0.6c0.5-0.2,1.1-0.2,1.8-0.2
		c1,0,1.9,0.2,2.5,0.5c0.6,0.3,1.1,0.8,1.5,1.4c0.3,0.6,0.6,1.2,0.7,2s0.2,1.5,0.2,2.3v9.1H167v-7.7c0-1.1-0.1-1.9-0.4-2.5
		c-0.3-0.5-0.8-0.8-1.5-0.8c-0.2,0-0.5,0-0.7,0.1s-0.5,0.2-0.7,0.5c-0.2,0.3-0.4,0.6-0.5,1.1c-0.1,0.5-0.2,1.1-0.2,1.9v7.4h-4.9V165
		c0-1-0.1-1.8-0.4-2.3c-0.3-0.5-0.8-0.8-1.5-0.8c-0.2,0-0.5,0-0.7,0.1c-0.3,0.1-0.5,0.3-0.7,0.5c-0.2,0.3-0.4,0.7-0.5,1.2
		c-0.1,0.5-0.2,1.2-0.2,2v7h-4.9V158.1z"/>
	<path class="st0" d="M174.1,158.1h4.9v1.9c0.3-0.7,0.8-1.2,1.5-1.7c0.6-0.5,1.5-0.7,2.5-0.7c1.6,0,3,0.6,4,1.9
		c1,1.3,1.5,3.2,1.5,5.8c0,1.5-0.2,2.8-0.6,3.8c-0.4,1-0.8,1.8-1.4,2.4s-1.2,1-1.9,1.3c-0.7,0.2-1.4,0.4-2,0.4
		c-0.7,0-1.5-0.1-2.2-0.4c-0.7-0.3-1.2-0.7-1.6-1.2v6.4h-4.9V158.1z M179,165.6c0,0.5,0,1,0.1,1.4c0.1,0.5,0.2,0.8,0.4,1.2
		s0.4,0.6,0.7,0.8c0.3,0.2,0.6,0.3,1,0.3c0.7,0,1.2-0.3,1.6-0.9c0.4-0.6,0.6-1.6,0.6-2.9s-0.2-2.2-0.6-2.9c-0.4-0.6-1-1-1.7-1
		c-0.4,0-0.7,0.1-1,0.3c-0.3,0.2-0.5,0.5-0.7,0.8s-0.3,0.7-0.4,1.1c-0.1,0.4-0.1,0.9-0.1,1.3V165.6z"/>
	<path class="st0" d="M198.5,172.8c-0.1-0.2-0.2-0.5-0.3-0.8c-0.1-0.3-0.1-0.7-0.2-0.9c-0.3,0.6-0.7,1.1-1.4,1.6
		c-0.6,0.5-1.5,0.7-2.7,0.7c-0.8,0-1.5-0.1-2.1-0.4c-0.6-0.2-1.1-0.6-1.5-1c-0.4-0.4-0.7-0.9-0.9-1.5c-0.2-0.6-0.3-1.2-0.3-1.9
		c0-0.8,0.1-1.4,0.4-2s0.6-1,1.1-1.4s1.1-0.7,1.8-0.9c0.7-0.2,1.5-0.4,2.3-0.6l3-0.5v-0.3c0-0.6-0.2-1-0.5-1.2
		c-0.3-0.2-0.8-0.3-1.3-0.3c-0.9,0-1.7,0.2-2.3,0.5c-0.6,0.3-1.2,0.7-1.7,1.2l-2.3-3.2c0.3-0.3,0.7-0.5,1.1-0.8
		c0.5-0.3,1-0.5,1.6-0.7c0.6-0.2,1.2-0.4,1.9-0.5c0.7-0.1,1.5-0.2,2.3-0.2c2.2,0,3.7,0.5,4.7,1.4c0.9,0.9,1.4,2.3,1.4,4.2v5.2
		c0,0.6,0,1.1,0,1.5c0,0.4,0,0.8,0.1,1.1c0,0.3,0.1,0.6,0.2,0.9c0.1,0.3,0.2,0.5,0.3,0.8H198.5z M197.8,166.3l-2,0.4
		c-0.7,0.1-1.2,0.3-1.5,0.6c-0.3,0.3-0.5,0.6-0.5,1.1c0,0.4,0.1,0.8,0.4,1.1c0.3,0.3,0.6,0.4,1.1,0.4c0.7,0,1.3-0.3,1.7-0.8
		s0.7-1.3,0.7-2.3V166.3z"/>
	<path class="st0" d="M205,158.1h4.4l0.4,2.1c0.4-0.7,1.1-1.3,1.9-1.8c0.8-0.5,1.7-0.7,2.7-0.7c3.2,0,4.9,2.1,4.9,6.2v9h-4.9v-7.8
		c0-1.2-0.2-2-0.5-2.5c-0.3-0.5-0.9-0.7-1.6-0.7c-0.3,0-0.7,0.1-1,0.2c-0.3,0.1-0.5,0.3-0.8,0.7s-0.4,0.7-0.5,1.2
		c-0.1,0.5-0.2,1.1-0.2,1.9v7H205V158.1z"/>
	<path class="st0" d="M221.4,152.2h4.9v3.9h-4.9V152.2z M221.4,158.1h4.9v14.8h-4.9V158.1z"/>
	<path class="st0" d="M232.9,166.6c0.2,1.1,0.5,1.9,1.1,2.4c0.6,0.5,1.2,0.7,1.9,0.7c0.6,0,1.2-0.1,1.6-0.4c0.5-0.3,0.8-0.7,1.2-1.2
		l3.6,2c-0.7,1.1-1.7,1.9-2.8,2.5s-2.4,0.8-3.8,0.8c-1.3,0-2.4-0.2-3.3-0.6s-1.8-0.9-2.4-1.6s-1.2-1.5-1.5-2.5c-0.3-1-0.5-2-0.5-3.1
		c0-1.1,0.2-2.2,0.5-3.1c0.3-1,0.8-1.8,1.5-2.5c0.6-0.7,1.4-1.2,2.4-1.6c0.9-0.4,2-0.6,3.2-0.6c1.1,0,2.2,0.2,3,0.6
		c0.9,0.4,1.6,0.9,2.2,1.6c0.6,0.7,1.1,1.6,1.4,2.6c0.3,1,0.5,2.1,0.5,3.3c0,0.3,0,0.5,0,0.6c0,0.1,0,0.2,0,0.2H232.9z M235.3,161.2
		c-1.4,0-2.2,0.9-2.4,2.7h4.8c0-0.7-0.2-1.4-0.6-1.9S236.1,161.2,235.3,161.2z"/>
	<path class="st0" d="M245.2,167.9c0.2,0.2,0.5,0.4,0.8,0.7c0.3,0.2,0.7,0.4,1.1,0.6c0.4,0.2,0.8,0.3,1.2,0.4
		c0.4,0.1,0.9,0.2,1.3,0.2c0.3,0,0.7-0.1,1.1-0.2c0.4-0.1,0.5-0.4,0.5-0.7c0-0.3-0.2-0.6-0.6-0.8c-0.4-0.2-0.9-0.4-1.4-0.6
		c-0.6-0.2-1.2-0.3-1.9-0.5c-0.7-0.2-1.3-0.5-1.9-0.8c-0.6-0.3-1-0.8-1.4-1.4c-0.4-0.6-0.6-1.3-0.6-2.2c0-0.8,0.2-1.6,0.5-2.2
		c0.3-0.6,0.8-1.1,1.4-1.5c0.6-0.4,1.2-0.7,2-0.9s1.5-0.3,2.3-0.3c1.3,0,2.5,0.2,3.5,0.5c1,0.3,1.9,0.7,2.7,1.3l-2.2,3.2
		c-0.2-0.2-0.4-0.3-0.8-0.5c-0.3-0.2-0.7-0.3-1-0.5s-0.8-0.3-1.2-0.3s-0.8-0.1-1.2-0.1c-0.3,0-0.6,0.1-0.8,0.2
		c-0.2,0.1-0.3,0.3-0.3,0.6c0,0.3,0.2,0.6,0.6,0.8c0.4,0.2,0.9,0.4,1.4,0.6c0.6,0.2,1.2,0.4,1.9,0.6c0.7,0.2,1.3,0.5,1.9,0.9
		c0.6,0.4,1,0.8,1.4,1.4c0.4,0.6,0.6,1.3,0.6,2.1c0,0.9-0.2,1.6-0.6,2.2c-0.4,0.6-0.9,1.2-1.5,1.6c-0.6,0.4-1.3,0.7-2,0.9
		c-0.8,0.2-1.5,0.3-2.2,0.3c-2.8,0-5.1-0.7-6.8-2.1L245.2,167.9z"/>
</g>
<g>
	<path class="st0" d="M47.3,202.1c-0.4,0.8-0.9,1.3-1.5,1.7c-0.6,0.4-1.4,0.6-2.4,0.6c-0.9,0-1.7-0.2-2.4-0.5
		c-0.7-0.3-1.3-0.8-1.9-1.5s-0.9-1.5-1.2-2.5c-0.3-1-0.4-2.1-0.4-3.3c0-1.4,0.2-2.7,0.5-3.6c0.3-1,0.8-1.7,1.4-2.3
		c0.6-0.6,1.2-1,1.9-1.3c0.7-0.3,1.4-0.4,2.1-0.4c0.9,0,1.7,0.2,2.3,0.5c0.6,0.4,1.1,0.8,1.4,1.3v-7.2h4.9v20.5h-4.6V202.1z
		 M47,196.5c0-0.5,0-0.9-0.1-1.3c-0.1-0.4-0.2-0.8-0.4-1.1c-0.2-0.3-0.4-0.6-0.7-0.8c-0.3-0.2-0.6-0.3-1.1-0.3
		c-0.7,0-1.3,0.3-1.7,0.9c-0.4,0.6-0.6,1.5-0.6,2.7c0,1.3,0.2,2.3,0.7,3c0.4,0.7,1,1,1.7,1c0.4,0,0.7-0.1,1-0.3
		c0.3-0.2,0.5-0.5,0.7-0.8s0.3-0.8,0.4-1.2c0.1-0.5,0.1-1,0.1-1.5V196.5z"/>
	<path class="st0" d="M61,204.6c-1.3,0-2.4-0.2-3.3-0.6c-0.9-0.4-1.7-0.9-2.3-1.6c-0.6-0.7-1.1-1.5-1.4-2.5c-0.3-0.9-0.5-2-0.5-3.1
		c0-1.1,0.2-2.2,0.5-3.1s0.8-1.8,1.4-2.5c0.6-0.7,1.4-1.3,2.3-1.7c0.9-0.4,2-0.6,3.2-0.6c1.2,0,2.3,0.2,3.2,0.6
		c0.9,0.4,1.7,0.9,2.3,1.6c0.6,0.7,1.1,1.5,1.4,2.5c0.3,1,0.5,2,0.5,3.1c0,1.1-0.2,2.2-0.5,3.1c-0.3,0.9-0.8,1.8-1.4,2.5
		s-1.4,1.2-2.3,1.6C63.3,204.4,62.2,204.6,61,204.6z M61.1,200.9c0.8,0,1.4-0.4,1.8-1.1c0.4-0.7,0.5-1.7,0.5-3s-0.2-2.3-0.6-3
		c-0.4-0.8-1-1.1-1.8-1.1s-1.4,0.4-1.8,1.1s-0.6,1.8-0.6,3s0.2,2.3,0.6,3C59.6,200.5,60.2,200.9,61.1,200.9z"/>
	<path class="st0" d="M70,189.4h4.4l0.4,2.1c0.4-0.7,1.1-1.3,1.9-1.8c0.8-0.5,1.7-0.7,2.7-0.7c3.2,0,4.9,2.1,4.9,6.2v9h-4.9v-7.8
		c0-1.2-0.2-2-0.5-2.5c-0.3-0.5-0.9-0.7-1.6-0.7c-0.3,0-0.7,0.1-1,0.2c-0.3,0.1-0.5,0.3-0.8,0.7c-0.2,0.3-0.4,0.7-0.5,1.2
		c-0.1,0.5-0.2,1.1-0.2,1.9v7H70V189.4z"/>
	<path class="st0" d="M85.9,192.7c0.5-0.2,0.9-0.5,1.3-0.7s0.6-0.5,0.8-0.8c0.2-0.3,0.3-0.6,0.4-0.9c0.1-0.3,0.1-0.6,0.1-1v-0.5
		h-2.5v-5.1h5.4v5.1c0,0.9-0.1,1.7-0.3,2.3c-0.2,0.6-0.4,1.2-0.8,1.7s-0.8,0.9-1.3,1.2c-0.5,0.3-1.2,0.7-1.9,0.9L85.9,192.7z"/>
	<path class="st0" d="M94.9,192.5h-2.3v-3.1H93c0.8,0,1.3-0.1,1.8-0.4c0.4-0.3,0.8-0.6,1-1c0.2-0.4,0.4-0.9,0.5-1.4
		c0.1-0.5,0.2-1,0.4-1.6h3.1v4.3h3v3.1h-3v6.8c0,0.4,0.1,0.8,0.3,1.1c0.2,0.3,0.6,0.4,1.1,0.4c0.2,0,0.3,0,0.6,0
		c0.2,0,0.5-0.1,0.8-0.2l0.3,3.4c-0.5,0.2-1.1,0.4-1.6,0.4c-0.5,0.1-1.1,0.1-1.7,0.1c-0.9,0-1.7-0.1-2.3-0.3c-0.6-0.2-1.1-0.6-1.4-1
		c-0.3-0.4-0.6-0.9-0.7-1.5c-0.1-0.6-0.2-1.2-0.2-1.9V192.5z"/>
	<path class="st0" d="M123.4,201.1c-0.7,1.3-1.7,2.2-2.8,2.7c-1.1,0.6-2.4,0.8-3.9,0.8c-1.3,0-2.4-0.2-3.4-0.6
		c-0.9-0.4-1.7-1-2.3-1.7c-0.6-0.7-1.1-1.5-1.3-2.5c-0.3-0.9-0.4-2-0.4-3c0-1.2,0.2-2.3,0.5-3.3s0.8-1.8,1.5-2.5
		c0.6-0.7,1.4-1.2,2.3-1.6c0.9-0.4,2-0.6,3.1-0.6c1.5,0,2.8,0.3,3.9,0.9c1.1,0.6,2,1.6,2.7,2.8l-4,1.9c-0.3-0.7-0.6-1.2-1-1.5
		c-0.4-0.3-0.9-0.4-1.4-0.4c-0.9,0-1.6,0.4-2,1.1c-0.4,0.7-0.6,1.7-0.6,2.8c0,0.5,0,0.9,0.1,1.4c0.1,0.5,0.2,1,0.4,1.4
		c0.2,0.4,0.5,0.8,0.9,1.1s0.9,0.4,1.5,0.4c0.7,0,1.2-0.2,1.6-0.5c0.4-0.4,0.8-0.9,1-1.5L123.4,201.1z"/>
	<path class="st0" d="M124.6,183.7h4.9v7.7c0.4-0.7,0.9-1.2,1.7-1.7s1.7-0.7,2.8-0.7c1.7,0,2.9,0.5,3.7,1.6c0.8,1.1,1.2,2.6,1.2,4.7
		v8.9H134v-8c0-0.9-0.2-1.6-0.5-2.2c-0.3-0.5-0.9-0.8-1.6-0.8c-0.7,0-1.3,0.3-1.7,0.9c-0.4,0.6-0.7,1.5-0.7,2.9v7.2h-4.9V183.7z"/>
	<path class="st0" d="M145.3,197.9c0.2,1.1,0.5,1.9,1.1,2.4c0.6,0.5,1.2,0.7,1.9,0.7c0.6,0,1.2-0.1,1.6-0.4c0.5-0.3,0.8-0.7,1.2-1.2
		l3.6,2c-0.7,1.1-1.7,1.9-2.8,2.5s-2.4,0.8-3.8,0.8c-1.3,0-2.4-0.2-3.3-0.6c-1-0.4-1.8-0.9-2.4-1.6c-0.7-0.7-1.2-1.5-1.5-2.5
		c-0.3-1-0.5-2-0.5-3.1c0-1.1,0.2-2.2,0.5-3.1c0.3-1,0.8-1.8,1.5-2.5c0.6-0.7,1.4-1.2,2.4-1.6c0.9-0.4,2-0.6,3.2-0.6
		c1.1,0,2.2,0.2,3,0.6c0.9,0.4,1.6,0.9,2.2,1.6c0.6,0.7,1.1,1.6,1.4,2.6c0.3,1,0.5,2.1,0.5,3.3c0,0.3,0,0.5,0,0.6c0,0.1,0,0.2,0,0.2
		H145.3z M147.7,192.5c-1.4,0-2.2,0.9-2.4,2.7h4.8c0-0.7-0.2-1.4-0.6-1.9C149.1,192.8,148.5,192.5,147.7,192.5z"/>
	<path class="st0" d="M170.1,201.1c-0.7,1.3-1.7,2.2-2.8,2.7c-1.1,0.6-2.4,0.8-3.9,0.8c-1.3,0-2.4-0.2-3.4-0.6
		c-0.9-0.4-1.7-1-2.3-1.7c-0.6-0.7-1.1-1.5-1.3-2.5c-0.3-0.9-0.4-2-0.4-3c0-1.2,0.2-2.3,0.5-3.3s0.8-1.8,1.5-2.5
		c0.6-0.7,1.4-1.2,2.3-1.6c0.9-0.4,2-0.6,3.1-0.6c1.5,0,2.8,0.3,3.9,0.9c1.1,0.6,2,1.6,2.7,2.8l-4,1.9c-0.3-0.7-0.6-1.2-1-1.5
		c-0.4-0.3-0.9-0.4-1.4-0.4c-0.9,0-1.6,0.4-2,1.1s-0.6,1.7-0.6,2.8c0,0.5,0,0.9,0.1,1.4c0.1,0.5,0.2,1,0.4,1.4
		c0.2,0.4,0.5,0.8,0.9,1.1c0.4,0.3,0.9,0.4,1.4,0.4c0.7,0,1.2-0.2,1.6-0.5c0.4-0.4,0.8-0.9,1-1.5L170.1,201.1z"/>
	<path class="st0" d="M171.3,183.7h4.9v11.1l4.9-5.4h5.9l-5.8,5.6l5.8,9.2h-5.5l-3.3-6.2l-1.9,1.9v4.4h-4.9V183.7z"/>
	<path class="st0" d="M195.2,192.5h-2.4v-3.1h2.2c-0.2-0.5-0.3-0.9-0.3-1.4c-0.1-0.4-0.1-0.8-0.1-1.1c0-0.5,0.1-1,0.2-1.5
		c0.1-0.5,0.4-0.9,0.8-1.2c0.4-0.3,0.9-0.6,1.5-0.8c0.6-0.2,1.4-0.3,2.4-0.3c0.8,0,1.5,0,2.1,0.1c0.6,0.1,1.2,0.2,1.7,0.4l-0.7,3.6
		c-0.2-0.1-0.5-0.2-0.9-0.3c-0.4-0.1-0.7-0.1-1-0.1c-0.3,0-0.6,0.1-0.8,0.2c-0.2,0.1-0.3,0.4-0.3,0.7c0,0.3,0,0.6,0.1,0.9
		s0.2,0.5,0.3,0.7h2.9v3.1h-2.7v11.6h-4.9V192.5z"/>
	<path class="st0" d="M210.4,204.6c-1.3,0-2.4-0.2-3.3-0.6s-1.7-0.9-2.3-1.6c-0.6-0.7-1.1-1.5-1.4-2.5c-0.3-0.9-0.5-2-0.5-3.1
		c0-1.1,0.2-2.2,0.5-3.1s0.8-1.8,1.4-2.5c0.6-0.7,1.4-1.3,2.3-1.7c0.9-0.4,2-0.6,3.2-0.6s2.3,0.2,3.2,0.6c0.9,0.4,1.7,0.9,2.3,1.6
		c0.6,0.7,1.1,1.5,1.4,2.5c0.3,1,0.5,2,0.5,3.1c0,1.1-0.2,2.2-0.5,3.1s-0.8,1.8-1.4,2.5c-0.6,0.7-1.4,1.2-2.3,1.6
		S211.6,204.6,210.4,204.6z M210.5,200.9c0.8,0,1.4-0.4,1.8-1.1c0.4-0.7,0.5-1.7,0.5-3s-0.2-2.3-0.6-3s-1-1.1-1.8-1.1
		c-0.8,0-1.4,0.4-1.8,1.1s-0.6,1.8-0.6,3s0.2,2.3,0.6,3C209,200.5,209.6,200.9,210.5,200.9z"/>
	<path class="st0" d="M219.4,189.4h4.4l0.3,2.7c0.4-0.9,1.1-1.6,1.9-2.2c0.8-0.6,1.9-0.9,3.2-0.9v5c-0.3-0.1-0.9-0.1-1.5-0.1
		c-0.4,0-0.8,0-1.2,0.1s-0.8,0.2-1.1,0.5c-0.3,0.3-0.6,0.6-0.8,1.2c-0.2,0.5-0.3,1.2-0.3,2.1v6.5h-4.9V189.4z"/>
</g>
<g>
	<path class="st0" d="M47,235.4c-0.1-0.2-0.2-0.5-0.3-0.8c-0.1-0.3-0.1-0.7-0.2-0.9c-0.3,0.6-0.7,1.1-1.4,1.6
		c-0.6,0.5-1.5,0.7-2.7,0.7c-0.8,0-1.5-0.1-2.1-0.4c-0.6-0.2-1.1-0.6-1.5-1c-0.4-0.4-0.7-0.9-0.9-1.5c-0.2-0.6-0.3-1.2-0.3-1.9
		c0-0.8,0.1-1.4,0.4-2c0.3-0.6,0.6-1,1.1-1.4c0.5-0.4,1.1-0.7,1.8-0.9s1.5-0.4,2.3-0.6l3-0.5v-0.3c0-0.6-0.2-1-0.5-1.2
		c-0.3-0.2-0.8-0.3-1.3-0.3c-0.9,0-1.7,0.2-2.3,0.5c-0.6,0.3-1.2,0.7-1.7,1.2l-2.3-3.2c0.3-0.3,0.7-0.5,1.1-0.8
		c0.5-0.3,1-0.5,1.6-0.7c0.6-0.2,1.2-0.4,1.9-0.5c0.7-0.1,1.5-0.2,2.3-0.2c2.2,0,3.7,0.5,4.7,1.4c0.9,0.9,1.4,2.3,1.4,4.2v5.2
		c0,0.6,0,1.1,0,1.5c0,0.4,0,0.8,0.1,1.1c0,0.3,0.1,0.6,0.2,0.9c0.1,0.3,0.2,0.5,0.3,0.8H47z M46.2,228.9l-2,0.4
		c-0.7,0.1-1.2,0.3-1.5,0.6c-0.3,0.3-0.5,0.6-0.5,1.1c0,0.4,0.1,0.8,0.4,1.1c0.3,0.3,0.6,0.4,1.1,0.4c0.7,0,1.3-0.3,1.7-0.8
		c0.5-0.5,0.7-1.3,0.7-2.3V228.9z"/>
	<path class="st0" d="M66.7,232.4c-0.7,1.3-1.7,2.2-2.8,2.7c-1.1,0.6-2.4,0.8-3.9,0.8c-1.3,0-2.4-0.2-3.4-0.6
		c-0.9-0.4-1.7-1-2.3-1.7c-0.6-0.7-1.1-1.5-1.3-2.5c-0.3-0.9-0.4-2-0.4-3c0-1.2,0.2-2.3,0.5-3.3s0.8-1.8,1.5-2.5
		c0.6-0.7,1.4-1.2,2.3-1.6c0.9-0.4,2-0.6,3.1-0.6c1.5,0,2.8,0.3,3.9,0.9c1.1,0.6,2,1.6,2.7,2.8l-4,1.9c-0.3-0.7-0.6-1.2-1-1.5
		c-0.4-0.3-0.9-0.4-1.4-0.4c-0.9,0-1.6,0.4-2,1.1c-0.4,0.7-0.6,1.7-0.6,2.8c0,0.5,0,0.9,0.1,1.4c0.1,0.5,0.2,1,0.4,1.4
		c0.2,0.4,0.5,0.8,0.9,1.1s0.9,0.4,1.5,0.4c0.7,0,1.2-0.2,1.6-0.5c0.4-0.4,0.8-0.9,1-1.5L66.7,232.4z"/>
	<path class="st0" d="M80.9,232.4c-0.7,1.3-1.7,2.2-2.8,2.7c-1.1,0.6-2.4,0.8-3.9,0.8c-1.3,0-2.4-0.2-3.4-0.6
		c-0.9-0.4-1.7-1-2.3-1.7c-0.6-0.7-1.1-1.5-1.3-2.5c-0.3-0.9-0.4-2-0.4-3c0-1.2,0.2-2.3,0.5-3.3s0.8-1.8,1.5-2.5
		c0.6-0.7,1.4-1.2,2.3-1.6c0.9-0.4,2-0.6,3.1-0.6c1.5,0,2.8,0.3,3.9,0.9c1.1,0.6,2,1.6,2.7,2.8l-4,1.9c-0.3-0.7-0.6-1.2-1-1.5
		c-0.4-0.3-0.9-0.4-1.4-0.4c-0.9,0-1.6,0.4-2,1.1c-0.4,0.7-0.6,1.7-0.6,2.8c0,0.5,0,0.9,0.1,1.4c0.1,0.5,0.2,1,0.4,1.4
		c0.2,0.4,0.5,0.8,0.9,1.1s0.9,0.4,1.5,0.4c0.7,0,1.2-0.2,1.6-0.5c0.4-0.4,0.8-0.9,1-1.5L80.9,232.4z"/>
	<path class="st0" d="M82,220.7h4.9v8.1c0,0.9,0.1,1.6,0.4,2.1c0.3,0.5,0.8,0.7,1.5,0.7c0.8,0,1.4-0.3,1.8-0.9
		c0.4-0.6,0.6-1.6,0.6-2.9v-7.1h4.9v14.8h-4.6v-2.2c-0.4,0.8-0.9,1.4-1.6,1.8s-1.6,0.7-2.8,0.7c-1.8,0-3.1-0.5-3.9-1.5
		c-0.8-1-1.2-2.5-1.2-4.4V220.7z"/>
	<path class="st0" d="M98.4,220.7h4.4l0.3,2.7c0.4-0.9,1.1-1.6,1.9-2.2c0.8-0.6,1.9-0.9,3.2-0.9v5c-0.3-0.1-0.9-0.1-1.5-0.1
		c-0.4,0-0.8,0-1.2,0.1c-0.4,0.1-0.8,0.2-1.1,0.5c-0.3,0.3-0.6,0.6-0.8,1.2s-0.3,1.2-0.3,2.1v6.5h-4.9V220.7z"/>
	<path class="st0" d="M117.8,235.4c-0.1-0.2-0.2-0.5-0.3-0.8c-0.1-0.3-0.1-0.7-0.2-0.9c-0.3,0.6-0.7,1.1-1.4,1.6
		c-0.6,0.5-1.5,0.7-2.7,0.7c-0.8,0-1.5-0.1-2.1-0.4c-0.6-0.2-1.1-0.6-1.5-1c-0.4-0.4-0.7-0.9-0.9-1.5c-0.2-0.6-0.3-1.2-0.3-1.9
		c0-0.8,0.1-1.4,0.4-2c0.3-0.6,0.6-1,1.1-1.4c0.5-0.4,1.1-0.7,1.8-0.9s1.5-0.4,2.3-0.6l3-0.5v-0.3c0-0.6-0.2-1-0.5-1.2
		c-0.3-0.2-0.8-0.3-1.3-0.3c-0.9,0-1.7,0.2-2.3,0.5c-0.6,0.3-1.2,0.7-1.7,1.2l-2.3-3.2c0.3-0.3,0.7-0.5,1.1-0.8
		c0.5-0.3,1-0.5,1.6-0.7c0.6-0.2,1.2-0.4,1.9-0.5c0.7-0.1,1.5-0.2,2.3-0.2c2.2,0,3.7,0.5,4.7,1.4c0.9,0.9,1.4,2.3,1.4,4.2v5.2
		c0,0.6,0,1.1,0,1.5c0,0.4,0,0.8,0.1,1.1c0,0.3,0.1,0.6,0.2,0.9c0.1,0.3,0.2,0.5,0.3,0.8H117.8z M117.1,228.9l-2,0.4
		c-0.7,0.1-1.2,0.3-1.5,0.6c-0.3,0.3-0.5,0.6-0.5,1.1c0,0.4,0.1,0.8,0.4,1.1c0.3,0.3,0.6,0.4,1.1,0.4c0.7,0,1.3-0.3,1.7-0.8
		c0.5-0.5,0.7-1.3,0.7-2.3V228.9z"/>
	<path class="st0" d="M137.5,232.4c-0.7,1.3-1.7,2.2-2.8,2.7c-1.1,0.6-2.4,0.8-3.9,0.8c-1.3,0-2.4-0.2-3.4-0.6
		c-0.9-0.4-1.7-1-2.3-1.7c-0.6-0.7-1.1-1.5-1.3-2.5c-0.3-0.9-0.4-2-0.4-3c0-1.2,0.2-2.3,0.5-3.3s0.8-1.8,1.5-2.5
		c0.6-0.7,1.4-1.2,2.3-1.6c0.9-0.4,2-0.6,3.1-0.6c1.5,0,2.8,0.3,3.9,0.9c1.1,0.6,2,1.6,2.7,2.8l-4,1.9c-0.3-0.7-0.6-1.2-1-1.5
		c-0.4-0.3-0.9-0.4-1.4-0.4c-0.9,0-1.6,0.4-2,1.1c-0.4,0.7-0.6,1.7-0.6,2.8c0,0.5,0,0.9,0.1,1.4c0.1,0.5,0.2,1,0.4,1.4
		c0.2,0.4,0.5,0.8,0.9,1.1s0.9,0.4,1.5,0.4c0.7,0,1.2-0.2,1.6-0.5c0.4-0.4,0.8-0.9,1-1.5L137.5,232.4z"/>
	<path class="st0" d="M138.8,236.9c0.3,0.1,0.7,0.2,1.1,0.3c0.4,0.1,0.7,0.1,1,0.1c0.4,0,0.8-0.1,1-0.3c0.2-0.2,0.4-0.5,0.6-1
		l-5.3-15.3h5.2l2.6,9.9l2.5-9.9h5.2l-5.1,14.7c-0.3,0.8-0.6,1.6-0.9,2.2s-0.7,1.3-1.1,1.8c-0.5,0.5-1.1,0.9-1.8,1.2
		c-0.7,0.3-1.6,0.4-2.8,0.4c-0.2,0-0.4,0-0.7,0c-0.3,0-0.5,0-0.8,0c-0.3,0-0.6,0-0.8-0.1c-0.3,0-0.5-0.1-0.6-0.1L138.8,236.9z"/>
	<path class="st0" d="M152.3,230.1h5.4v5.4h-5.4V230.1z"/>
</g>
<g>
	<path class="st0" d="M57.1,269.9c-1,1.8-2.3,3-3.7,3.8c-1.5,0.8-3.2,1.2-5.3,1.2c-1.7,0-3.2-0.3-4.5-0.8c-1.3-0.5-2.4-1.3-3.3-2.2
		c-0.9-0.9-1.5-2.1-2-3.4c-0.4-1.3-0.7-2.7-0.7-4.3c0-1.6,0.2-3,0.7-4.3c0.5-1.3,1.1-2.4,2-3.4c0.9-0.9,2-1.7,3.3-2.2
		c1.3-0.5,2.8-0.8,4.4-0.8c1.9,0,3.6,0.3,5.1,1c1.5,0.7,2.8,1.9,4,3.6l-5,2.5c-0.4-0.8-0.9-1.5-1.6-1.9c-0.7-0.5-1.5-0.7-2.4-0.7
		c-0.9,0-1.6,0.2-2.2,0.5c-0.6,0.3-1.1,0.8-1.5,1.3c-0.4,0.6-0.7,1.2-0.9,2c-0.2,0.8-0.3,1.6-0.3,2.4s0.1,1.6,0.3,2.4
		c0.2,0.7,0.5,1.4,0.9,2c0.4,0.6,0.9,1,1.5,1.3c0.6,0.3,1.3,0.5,2.1,0.5c0.9,0,1.7-0.2,2.3-0.7c0.7-0.5,1.3-1.2,1.7-2.3L57.1,269.9z
		"/>
	<path class="st0" d="M58.2,259.7h4.4l0.3,2.7c0.4-0.9,1.1-1.6,1.9-2.2c0.8-0.6,1.9-0.9,3.2-0.9v5c-0.3-0.1-0.9-0.1-1.5-0.1
		c-0.4,0-0.8,0-1.2,0.1c-0.4,0.1-0.8,0.2-1.1,0.5c-0.3,0.3-0.6,0.6-0.8,1.2s-0.3,1.2-0.3,2.1v6.5h-4.9V259.7z"/>
	<path class="st0" d="M77.6,274.4c-0.1-0.2-0.2-0.5-0.3-0.8c-0.1-0.3-0.1-0.7-0.2-0.9c-0.3,0.6-0.7,1.1-1.4,1.6
		c-0.6,0.5-1.5,0.7-2.7,0.7c-0.8,0-1.5-0.1-2.1-0.4c-0.6-0.2-1.1-0.6-1.5-1c-0.4-0.4-0.7-0.9-0.9-1.5c-0.2-0.6-0.3-1.2-0.3-1.9
		c0-0.8,0.1-1.4,0.4-2c0.3-0.6,0.6-1,1.1-1.4c0.5-0.4,1.1-0.7,1.8-0.9s1.5-0.4,2.3-0.6l3-0.5v-0.3c0-0.6-0.2-1-0.5-1.2
		c-0.3-0.2-0.8-0.3-1.3-0.3c-0.9,0-1.7,0.2-2.3,0.5c-0.6,0.3-1.2,0.7-1.7,1.2l-2.3-3.2c0.3-0.3,0.7-0.5,1.1-0.8
		c0.5-0.3,1-0.5,1.6-0.7c0.6-0.2,1.2-0.4,1.9-0.5c0.7-0.1,1.5-0.2,2.3-0.2c2.2,0,3.7,0.5,4.7,1.4c0.9,0.9,1.4,2.3,1.4,4.2v5.2
		c0,0.6,0,1.1,0,1.5c0,0.4,0,0.8,0.1,1.1c0,0.3,0.1,0.6,0.2,0.9c0.1,0.3,0.2,0.5,0.3,0.8H77.6z M76.9,267.9l-2,0.4
		c-0.7,0.1-1.2,0.3-1.5,0.6c-0.3,0.3-0.5,0.6-0.5,1.1c0,0.4,0.1,0.8,0.4,1.1c0.3,0.3,0.6,0.4,1.1,0.4c0.7,0,1.3-0.3,1.7-0.8
		c0.5-0.5,0.7-1.3,0.7-2.3V267.9z"/>
	<path class="st0" d="M83.6,271l7.7-7.7h-7.4v-3.6H97v3.5l-7.9,7.7h8.3v3.6H83.6V271z"/>
	<path class="st0" d="M99.5,275.9c0.3,0.1,0.7,0.2,1.1,0.3c0.4,0.1,0.7,0.1,1,0.1c0.4,0,0.8-0.1,1-0.3c0.2-0.2,0.4-0.5,0.6-1
		l-5.3-15.3h5.2l2.6,9.9l2.5-9.9h5.2l-5.1,14.7c-0.3,0.8-0.6,1.6-0.9,2.2s-0.7,1.3-1.1,1.8c-0.5,0.5-1.1,0.9-1.8,1.2
		c-0.7,0.3-1.6,0.4-2.8,0.4c-0.2,0-0.4,0-0.7,0c-0.3,0-0.5,0-0.8,0c-0.3,0-0.6,0-0.8-0.1c-0.3,0-0.5-0.1-0.6-0.1L99.5,275.9z"/>
	<path class="st0" d="M113,278.3c0.5-0.2,0.9-0.5,1.3-0.7c0.3-0.2,0.6-0.5,0.8-0.8c0.2-0.3,0.3-0.6,0.4-0.9s0.1-0.6,0.1-1v-0.5H113
		v-5.4h5.4v5.3c0,0.9-0.1,1.7-0.3,2.3c-0.2,0.6-0.4,1.2-0.8,1.7c-0.4,0.5-0.8,0.9-1.3,1.2c-0.5,0.3-1.2,0.7-1.9,0.9L113,278.3z"/>
	<path class="st0" d="M126.7,259.7h4.4l0.3,2.7c0.4-0.9,1.1-1.6,1.9-2.2c0.8-0.6,1.9-0.9,3.2-0.9v5c-0.3-0.1-0.9-0.1-1.5-0.1
		c-0.4,0-0.8,0-1.2,0.1c-0.4,0.1-0.8,0.2-1.1,0.5c-0.3,0.3-0.6,0.6-0.8,1.2s-0.3,1.2-0.3,2.1v6.5h-4.9V259.7z"/>
	<path class="st0" d="M137.6,253.8h4.9v3.9h-4.9V253.8z M137.6,259.7h4.9v14.8h-4.9V259.7z"/>
	<path class="st0" d="M146.7,274.4c0.6,0.6,1.3,1,2.1,1.3c0.8,0.3,1.7,0.5,2.6,0.5c0.9,0,1.6-0.2,1.9-0.6c0.3-0.4,0.5-1,0.5-1.8
		v-1.4c-0.3,0.5-0.8,0.9-1.4,1.3c-0.6,0.3-1.4,0.5-2.4,0.5c-0.7,0-1.4-0.1-2.1-0.4c-0.7-0.2-1.3-0.6-1.8-1.2c-0.5-0.6-1-1.3-1.3-2.2
		c-0.3-0.9-0.5-2.1-0.5-3.4c0-1.2,0.1-2.3,0.4-3.3c0.3-0.9,0.7-1.7,1.2-2.4c0.5-0.7,1.1-1.2,1.9-1.5s1.5-0.5,2.4-0.5
		c0.9,0,1.7,0.2,2.4,0.6c0.7,0.4,1.2,1,1.7,1.8l0.6-2h3.9v14c0,0.9-0.1,1.7-0.4,2.5c-0.3,0.8-0.7,1.4-1.3,2c-0.6,0.6-1.3,1-2.2,1.3
		c-0.9,0.3-2,0.5-3.3,0.5c-0.9,0-1.7-0.1-2.4-0.2c-0.7-0.1-1.4-0.3-2-0.5c-0.6-0.2-1.2-0.4-1.7-0.7c-0.5-0.3-0.9-0.5-1.3-0.7
		L146.7,274.4z M153.7,267c0-0.5,0-0.9-0.1-1.3s-0.2-0.8-0.3-1.2c-0.2-0.3-0.4-0.6-0.7-0.8c-0.3-0.2-0.6-0.3-1.1-0.3
		c-0.3,0-0.6,0.1-0.9,0.2c-0.3,0.1-0.5,0.3-0.7,0.6c-0.2,0.3-0.4,0.7-0.5,1.1c-0.1,0.5-0.2,1-0.2,1.7c0,1.2,0.2,2.1,0.6,2.7
		c0.4,0.6,1,0.9,1.7,0.9s1.3-0.3,1.6-0.9s0.5-1.4,0.5-2.5V267z"/>
	<path class="st0" d="M160.9,254h4.9v7.7c0.4-0.7,0.9-1.2,1.7-1.7c0.7-0.5,1.7-0.7,2.8-0.7c1.7,0,2.9,0.5,3.7,1.6
		c0.8,1.1,1.2,2.6,1.2,4.7v8.9h-4.9v-8c0-0.9-0.2-1.6-0.5-2.2c-0.3-0.5-0.9-0.8-1.6-0.8c-0.7,0-1.3,0.3-1.7,0.9
		c-0.4,0.6-0.7,1.5-0.7,2.9v7.2h-4.9V254z"/>
	<path class="st0" d="M178.4,262.8h-2.3v-3.1h0.4c0.8,0,1.3-0.1,1.8-0.4c0.4-0.3,0.8-0.6,1-1c0.2-0.4,0.4-0.9,0.5-1.4
		c0.1-0.5,0.2-1,0.4-1.6h3.1v4.3h3v3.1h-3v6.8c0,0.4,0.1,0.8,0.3,1.1s0.6,0.4,1.1,0.4c0.2,0,0.3,0,0.6,0c0.2,0,0.5-0.1,0.8-0.2
		l0.3,3.4c-0.5,0.2-1.1,0.4-1.6,0.4s-1.1,0.1-1.7,0.1c-0.9,0-1.7-0.1-2.3-0.3c-0.6-0.2-1.1-0.6-1.4-1c-0.3-0.4-0.6-0.9-0.7-1.5
		c-0.1-0.6-0.2-1.2-0.2-1.9V262.8z"/>
	<path class="st0" d="M191.4,267.2c0-0.2,0-0.4,0-0.5c0-0.2,0-0.3,0-0.3c0-0.4,0-0.7,0.1-1s0.2-0.6,0.4-0.8c0.1-0.2,0.3-0.5,0.5-0.6
		c0.2-0.2,0.3-0.3,0.5-0.4c0.4-0.4,0.9-0.8,1.3-1.1c0.4-0.3,0.8-0.6,1.1-0.9c0.3-0.3,0.6-0.6,0.8-1c0.2-0.3,0.3-0.7,0.3-1.2
		c0-0.7-0.2-1.1-0.7-1.5c-0.5-0.3-1-0.5-1.6-0.5c-0.8,0-1.4,0.2-1.9,0.7c-0.5,0.4-0.8,1-1.1,1.8l-4.3-1.7c0.6-1.5,1.5-2.6,2.8-3.3
		c1.3-0.8,2.9-1.1,4.9-1.1c2.4,0,4.3,0.5,5.6,1.5c1.3,1,1.9,2.4,1.9,4c0,0.3,0,0.6-0.1,1c-0.1,0.3-0.2,0.7-0.4,1.1
		c-0.2,0.4-0.4,0.7-0.8,1.1c-0.3,0.4-0.8,0.8-1.3,1.2c-0.3,0.2-0.6,0.4-1,0.7c-0.3,0.2-0.7,0.5-1,0.7c-0.3,0.3-0.6,0.5-0.9,0.8
		c-0.3,0.3-0.4,0.6-0.5,1c0,0.1-0.1,0.2-0.1,0.3c0,0.1,0,0.2,0,0.3H191.4z M190.9,269.1h5.4v5.4h-5.4V269.1z"/>
</g>
</svg>
