<?xml version="1.0" encoding="utf-8"?>
<!-- Generator: Adobe Illustrator 22.1.0, SVG Export Plug-In . SVG Version: 6.00 Build 0)  -->
<svg version="1.1" id="Layer_1" xmlns="http://www.w3.org/2000/svg" xmlns:xlink="http://www.w3.org/1999/xlink" x="0px" y="0px"
	 viewBox="0 0 146.8 13.1" style="enable-background:new 0 0 146.8 13.1;" xml:space="preserve">
<style type="text/css">
	.st0{fill:#FFFFFF;}
</style>
<g>
	<path class="st0" d="M4.9,0.3h2.9l4.9,12.6H9.3l-0.9-2.6H4.2l-0.9,2.6H0L4.9,0.3z M7.6,7.9C7.4,7.2,7.1,6.6,6.9,6
		C6.7,5.4,6.5,4.7,6.3,4C6.1,4.7,5.9,5.4,5.7,6C5.4,6.6,5.2,7.2,5,7.9H7.6z"/>
	<path class="st0" d="M24.5,10c-0.6,1.1-1.4,1.9-2.3,2.4c-0.9,0.5-2,0.7-3.3,0.7c-1.1,0-2-0.2-2.8-0.5c-0.8-0.3-1.5-0.8-2-1.4
		S13.2,10,13,9.2c-0.3-0.8-0.4-1.7-0.4-2.6c0-1,0.1-1.9,0.4-2.7c0.3-0.8,0.7-1.5,1.2-2.1c0.5-0.6,1.2-1,2-1.3C17,0.2,17.9,0,19,0
		c1.2,0,2.2,0.2,3.1,0.6C23,1,23.8,1.8,24.5,2.8l-3.1,1.5c-0.2-0.5-0.6-0.9-1-1.2S19.5,2.8,19,2.8c-0.5,0-1,0.1-1.3,0.3
		c-0.4,0.2-0.7,0.5-0.9,0.8c-0.2,0.3-0.4,0.7-0.5,1.2C16,5.5,16,6,16,6.6s0.1,1,0.2,1.5s0.3,0.9,0.6,1.2s0.6,0.6,0.9,0.8
		c0.4,0.2,0.8,0.3,1.3,0.3c0.5,0,1-0.1,1.4-0.4c0.4-0.3,0.8-0.8,1.1-1.4L24.5,10z"/>
	<path class="st0" d="M37.2,10c-0.6,1.1-1.4,1.9-2.3,2.4c-0.9,0.5-2,0.7-3.3,0.7c-1.1,0-2-0.2-2.8-0.5c-0.8-0.3-1.5-0.8-2-1.4
		c-0.5-0.6-0.9-1.3-1.2-2.1c-0.3-0.8-0.4-1.7-0.4-2.6c0-1,0.1-1.9,0.4-2.7c0.3-0.8,0.7-1.5,1.2-2.1c0.5-0.6,1.2-1,2-1.3
		C29.7,0.2,30.6,0,31.6,0c1.2,0,2.2,0.2,3.1,0.6c0.9,0.4,1.7,1.2,2.4,2.2l-3.1,1.5c-0.2-0.5-0.6-0.9-1-1.2s-0.9-0.4-1.5-0.4
		c-0.5,0-1,0.1-1.3,0.3c-0.4,0.2-0.7,0.5-0.9,0.8c-0.2,0.3-0.4,0.7-0.5,1.2c-0.1,0.5-0.2,1-0.2,1.5s0.1,1,0.2,1.5
		c0.1,0.5,0.3,0.9,0.6,1.2c0.3,0.3,0.6,0.6,0.9,0.8s0.8,0.3,1.3,0.3c0.5,0,1-0.1,1.4-0.4c0.4-0.3,0.8-0.8,1.1-1.4L37.2,10z"/>
	<path class="st0" d="M38.6,0.3h3.2v7.9c0,0.8,0.2,1.3,0.5,1.6c0.3,0.3,0.8,0.5,1.5,0.5s1.1-0.2,1.5-0.5c0.3-0.3,0.5-0.9,0.5-1.6v-8
		H49v8.2C49,8.7,49,9,49,9.4c0,0.3-0.1,0.7-0.2,1c-0.1,0.3-0.3,0.7-0.5,1c-0.2,0.3-0.5,0.6-0.9,0.9c-0.4,0.2-0.9,0.5-1.4,0.6
		c-0.6,0.2-1.3,0.2-2,0.2c-0.8,0-1.5-0.1-2-0.2c-0.6-0.2-1-0.4-1.4-0.6c-0.4-0.3-0.7-0.5-0.9-0.9c-0.2-0.3-0.4-0.7-0.5-1
		s-0.2-0.7-0.2-1c0-0.3-0.1-0.7-0.1-0.9V0.3z"/>
	<path class="st0" d="M51.1,0.3h5.2c0.7,0,1.3,0.1,1.9,0.2c0.6,0.1,1.2,0.4,1.6,0.7c0.5,0.3,0.9,0.7,1.1,1.2s0.4,1.1,0.4,1.9
		c0,0.5-0.1,1-0.3,1.3c-0.2,0.4-0.4,0.7-0.7,1c-0.3,0.3-0.6,0.5-1,0.6s-0.7,0.3-1.1,0.3c0.3,0,0.6,0.1,0.9,0.3s0.5,0.4,0.7,0.8
		l2.4,4.2h-3.8l-1.5-3c-0.1-0.3-0.3-0.5-0.4-0.7c-0.1-0.2-0.3-0.3-0.4-0.4c-0.2-0.1-0.3-0.1-0.5-0.2c-0.2,0-0.4,0-0.6,0h-0.8v4.2
		h-3.2V0.3z M56.1,6.1c0.2,0,0.4,0,0.7-0.1c0.2,0,0.4-0.1,0.6-0.3c0.2-0.1,0.3-0.3,0.4-0.5C57.9,5,58,4.7,58,4.3
		c0-0.3-0.1-0.6-0.2-0.8c-0.1-0.2-0.3-0.4-0.5-0.5c-0.2-0.1-0.4-0.2-0.6-0.2c-0.2,0-0.4-0.1-0.6-0.1h-1.8v3.4H56.1z"/>
	<path class="st0" d="M67.5,0.3h2.9l4.9,12.6h-3.4L71,10.3h-4.3l-0.9,2.6h-3.3L67.5,0.3z M70.1,7.9c-0.2-0.6-0.4-1.2-0.6-1.8
		C69.3,5.4,69,4.7,68.8,4c-0.2,0.7-0.4,1.4-0.6,2s-0.5,1.2-0.7,1.9H70.1z"/>
	<path class="st0" d="M87.1,10c-0.6,1.1-1.4,1.9-2.3,2.4c-0.9,0.5-2,0.7-3.3,0.7c-1.1,0-2-0.2-2.8-0.5c-0.8-0.3-1.5-0.8-2-1.4
		c-0.5-0.6-0.9-1.3-1.2-2.1c-0.3-0.8-0.4-1.7-0.4-2.6c0-1,0.1-1.9,0.4-2.7c0.3-0.8,0.7-1.5,1.2-2.1c0.5-0.6,1.2-1,2-1.3
		C79.6,0.2,80.5,0,81.5,0c1.2,0,2.2,0.2,3.1,0.6c0.9,0.4,1.7,1.2,2.4,2.2L84,4.4c-0.2-0.5-0.6-0.9-1-1.2s-0.9-0.4-1.5-0.4
		c-0.5,0-1,0.1-1.3,0.3c-0.4,0.2-0.7,0.5-0.9,0.8c-0.2,0.3-0.4,0.7-0.5,1.2c-0.1,0.5-0.2,1-0.2,1.5s0.1,1,0.2,1.5
		c0.1,0.5,0.3,0.9,0.6,1.2c0.3,0.3,0.6,0.6,0.9,0.8s0.8,0.3,1.3,0.3c0.5,0,1-0.1,1.4-0.4c0.4-0.3,0.8-0.8,1.1-1.4L87.1,10z"/>
	<path class="st0" d="M91.5,7.2l-4.6-7h3.7l2.6,4.6l2.6-4.6h3.7l-4.7,7v5.6h-3.2V7.2z"/>
	<path class="st0" d="M104.2,0.3h5.3c0.6,0,1.2,0.1,1.8,0.2s1.1,0.4,1.6,0.7c0.5,0.3,0.8,0.7,1.1,1.2s0.4,1.1,0.4,1.9
		c0,0.8-0.1,1.5-0.4,2c-0.3,0.5-0.6,1-1,1.3s-1,0.6-1.6,0.7s-1.2,0.2-1.9,0.2h-2.2v4.2h-3.2V0.3z M109.1,6.1c0.3,0,0.5,0,0.8-0.1
		c0.2,0,0.4-0.1,0.6-0.3c0.2-0.1,0.3-0.3,0.4-0.6c0.1-0.2,0.2-0.5,0.2-0.9c0-0.3-0.1-0.5-0.2-0.8c-0.1-0.2-0.3-0.4-0.4-0.5
		c-0.2-0.1-0.4-0.2-0.7-0.3c-0.2-0.1-0.5-0.1-0.8-0.1h-1.6v3.4H109.1z"/>
	<path class="st0" d="M118.5,0.3h2.9l4.9,12.6h-3.4l-0.9-2.6h-4.3l-0.9,2.6h-3.3L118.5,0.3z M121.1,7.9c-0.2-0.6-0.4-1.2-0.6-1.8
		c-0.2-0.6-0.4-1.3-0.6-2.1c-0.2,0.7-0.4,1.4-0.6,2s-0.5,1.2-0.7,1.9H121.1z"/>
	<path class="st0" d="M128.8,7.2l-4.6-7h3.7l2.6,4.6l2.6-4.6h3.7l-4.7,7v5.6h-3.2V7.2z"/>
	<path class="st0" d="M138.5,9c0.1,0.2,0.3,0.3,0.5,0.5s0.4,0.3,0.7,0.5s0.6,0.3,1,0.4s0.7,0.1,1.1,0.1c0.5,0,1-0.1,1.3-0.3
		c0.3-0.2,0.5-0.4,0.5-0.7c0-0.2-0.1-0.5-0.2-0.6s-0.3-0.3-0.6-0.4c-0.3-0.1-0.6-0.2-1-0.3c-0.4-0.1-0.9-0.2-1.4-0.3
		c-1.2-0.3-2.1-0.8-2.7-1.4c-0.5-0.6-0.8-1.4-0.8-2.3c0-0.5,0.1-1,0.3-1.5c0.2-0.5,0.5-0.9,1-1.3c0.4-0.4,0.9-0.7,1.6-0.9
		c0.6-0.2,1.4-0.3,2.2-0.3c1,0,1.9,0.2,2.8,0.5c0.9,0.3,1.6,0.8,2.2,1.5l-2.1,2c-0.3-0.4-0.8-0.7-1.3-1c-0.5-0.3-1.1-0.4-1.8-0.4
		c-0.3,0-0.6,0-0.8,0.1c-0.2,0.1-0.4,0.1-0.5,0.2c-0.1,0.1-0.2,0.2-0.2,0.3c0,0.1-0.1,0.2-0.1,0.3c0,0.3,0.2,0.6,0.5,0.8
		c0.3,0.2,0.9,0.5,1.7,0.7c0.9,0.2,1.7,0.5,2.3,0.7c0.6,0.3,1.1,0.6,1.4,0.9c0.3,0.3,0.6,0.7,0.7,1.1s0.2,0.8,0.2,1.3
		c0,0.7-0.1,1.3-0.4,1.8s-0.7,0.9-1.1,1.3s-1,0.6-1.6,0.8c-0.6,0.2-1.3,0.3-2,0.3c-0.7,0-1.3-0.1-1.8-0.2c-0.6-0.1-1.1-0.2-1.5-0.4
		c-0.4-0.2-0.8-0.4-1.2-0.6c-0.3-0.2-0.6-0.5-0.8-0.7L138.5,9z"/>
</g>
</svg>
