<?xml version="1.0" encoding="utf-8"?>
<!-- Generator: Adobe Illustrator 22.1.0, SVG Export Plug-In . SVG Version: 6.00 Build 0)  -->
<svg version="1.1" id="Layer_1" xmlns="http://www.w3.org/2000/svg" xmlns:xlink="http://www.w3.org/1999/xlink" x="0px" y="0px"
	 viewBox="0 0 336 280" style="enable-background:new 0 0 336 280;" xml:space="preserve">
<style type="text/css">
	.st0{fill:#662868;}
</style>
<g>
	<path class="st0" d="M20,85.2h5.2v12.9c0,1.3,0.3,2.2,0.9,2.7s1.4,0.8,2.4,0.8c1,0,1.8-0.3,2.4-0.8c0.6-0.5,0.8-1.4,0.8-2.6v-13H37
		v13.3c0,0.5,0,1-0.1,1.5s-0.2,1.1-0.4,1.7c-0.2,0.6-0.5,1.1-0.8,1.7c-0.4,0.5-0.9,1-1.5,1.4c-0.6,0.4-1.4,0.7-2.3,1
		c-0.9,0.3-2,0.4-3.3,0.4c-1.3,0-2.4-0.1-3.3-0.4c-0.9-0.3-1.7-0.6-2.3-1c-0.6-0.4-1.1-0.9-1.5-1.4c-0.4-0.5-0.7-1.1-0.9-1.7
		c-0.2-0.6-0.3-1.1-0.4-1.7C20,99.5,20,99,20,98.5V85.2z"/>
	<path class="st0" d="M39.5,90.9h4.9v1.9c0.3-0.7,0.8-1.2,1.5-1.7c0.6-0.5,1.5-0.7,2.5-0.7c1.6,0,3,0.6,4,1.9c1,1.3,1.5,3.2,1.5,5.8
		c0,1.5-0.2,2.8-0.6,3.8c-0.4,1-0.8,1.8-1.4,2.4c-0.6,0.6-1.2,1-1.9,1.3c-0.7,0.2-1.4,0.4-2,0.4c-0.7,0-1.5-0.1-2.2-0.4
		c-0.7-0.3-1.2-0.7-1.6-1.2v6.4h-4.9V90.9z M44.4,98.5c0,0.5,0,1,0.1,1.4c0.1,0.5,0.2,0.8,0.4,1.2c0.2,0.3,0.4,0.6,0.7,0.8
		c0.3,0.2,0.6,0.3,1,0.3c0.7,0,1.2-0.3,1.6-0.9c0.4-0.6,0.6-1.6,0.6-2.9s-0.2-2.2-0.6-2.9c-0.4-0.6-1-1-1.7-1c-0.4,0-0.7,0.1-1,0.3
		c-0.3,0.2-0.5,0.5-0.7,0.8c-0.2,0.3-0.3,0.7-0.4,1.1c-0.1,0.4-0.1,0.9-0.1,1.3V98.5z"/>
	<path class="st0" d="M57.4,105.6c0.6,0.6,1.3,1,2.1,1.3c0.8,0.3,1.7,0.5,2.6,0.5c0.9,0,1.6-0.2,1.9-0.6c0.3-0.4,0.5-1,0.5-1.8v-1.4
		c-0.3,0.5-0.8,0.9-1.5,1.3c-0.6,0.3-1.4,0.5-2.4,0.5c-0.7,0-1.4-0.1-2.1-0.4c-0.7-0.2-1.3-0.6-1.8-1.2c-0.5-0.6-1-1.3-1.3-2.2
		c-0.3-0.9-0.5-2.1-0.5-3.4c0-1.2,0.1-2.3,0.4-3.3c0.3-0.9,0.7-1.7,1.2-2.4c0.5-0.7,1.1-1.2,1.9-1.5s1.5-0.5,2.4-0.5
		c0.9,0,1.7,0.2,2.4,0.6c0.7,0.4,1.2,1,1.7,1.8l0.6-2h3.9v14c0,0.9-0.1,1.7-0.4,2.5c-0.3,0.8-0.7,1.4-1.3,2c-0.6,0.6-1.3,1-2.2,1.3
		c-0.9,0.3-2,0.5-3.3,0.5c-0.9,0-1.7-0.1-2.4-0.2c-0.7-0.1-1.4-0.3-2-0.5c-0.6-0.2-1.2-0.4-1.7-0.7c-0.5-0.3-0.9-0.5-1.3-0.7
		L57.4,105.6z M64.4,98.2c0-0.5,0-0.9-0.1-1.3c-0.1-0.4-0.2-0.8-0.3-1.2c-0.2-0.3-0.4-0.6-0.7-0.8c-0.3-0.2-0.6-0.3-1.1-0.3
		c-0.3,0-0.6,0.1-0.9,0.2c-0.3,0.1-0.5,0.3-0.7,0.6c-0.2,0.3-0.4,0.7-0.5,1.1c-0.1,0.5-0.2,1-0.2,1.7c0,1.2,0.2,2.1,0.6,2.7
		c0.4,0.6,1,0.9,1.7,0.9c0.7,0,1.3-0.3,1.6-0.9s0.5-1.4,0.5-2.5V98.2z"/>
	<path class="st0" d="M71.6,90.9H76l0.3,2.7c0.4-0.9,1.1-1.6,1.9-2.2c0.8-0.6,1.9-0.9,3.2-0.9v5c-0.3-0.1-0.9-0.1-1.5-0.1
		c-0.4,0-0.8,0-1.2,0.1c-0.4,0.1-0.8,0.2-1.1,0.5c-0.3,0.3-0.6,0.6-0.8,1.2s-0.3,1.2-0.3,2.1v6.5h-4.9V90.9z"/>
	<path class="st0" d="M91,105.7c-0.1-0.2-0.2-0.5-0.3-0.8c-0.1-0.3-0.1-0.7-0.2-0.9c-0.3,0.6-0.7,1.1-1.4,1.6
		c-0.6,0.5-1.5,0.7-2.7,0.7c-0.8,0-1.5-0.1-2.1-0.4c-0.6-0.2-1.1-0.6-1.5-1c-0.4-0.4-0.7-0.9-0.9-1.5c-0.2-0.6-0.3-1.2-0.3-1.9
		c0-0.8,0.1-1.4,0.4-2c0.3-0.6,0.6-1,1.1-1.4c0.5-0.4,1.1-0.7,1.8-0.9s1.5-0.4,2.3-0.6l3-0.5v-0.3c0-0.6-0.2-1-0.5-1.2
		c-0.3-0.2-0.8-0.3-1.3-0.3c-0.9,0-1.7,0.2-2.3,0.5c-0.6,0.3-1.2,0.7-1.7,1.2l-2.3-3.2c0.3-0.3,0.7-0.5,1.1-0.8
		c0.5-0.3,1-0.5,1.6-0.7c0.6-0.2,1.2-0.4,1.9-0.5c0.7-0.1,1.5-0.2,2.3-0.2c2.2,0,3.7,0.5,4.7,1.4c0.9,0.9,1.4,2.3,1.4,4.2v5.2
		c0,0.6,0,1.1,0,1.5c0,0.4,0,0.8,0.1,1.1c0,0.3,0.1,0.6,0.2,0.9c0.1,0.3,0.2,0.5,0.3,0.8H91z M90.3,99.2l-2,0.4
		c-0.7,0.1-1.2,0.3-1.5,0.6c-0.3,0.3-0.5,0.6-0.5,1.1c0,0.4,0.1,0.8,0.4,1.1c0.3,0.3,0.6,0.4,1.1,0.4c0.7,0,1.3-0.3,1.7-0.8
		c0.5-0.5,0.7-1.3,0.7-2.3V99.2z"/>
	<path class="st0" d="M106.3,103.6c-0.4,0.8-0.9,1.3-1.5,1.7c-0.6,0.4-1.4,0.6-2.4,0.6c-0.9,0-1.7-0.2-2.4-0.5
		c-0.7-0.3-1.3-0.8-1.9-1.5s-0.9-1.5-1.2-2.5c-0.3-1-0.4-2.1-0.4-3.3c0-1.4,0.2-2.7,0.5-3.6c0.3-1,0.8-1.7,1.4-2.3
		c0.6-0.6,1.2-1,1.9-1.3c0.7-0.3,1.4-0.4,2.1-0.4c0.9,0,1.7,0.2,2.3,0.5c0.6,0.4,1.1,0.8,1.4,1.3v-7.2h4.9v20.5h-4.6V103.6z
		 M106.1,98c0-0.5,0-0.9-0.1-1.3c-0.1-0.4-0.2-0.8-0.4-1.1c-0.2-0.3-0.4-0.6-0.7-0.8c-0.3-0.2-0.6-0.3-1.1-0.3
		c-0.7,0-1.3,0.3-1.7,0.9c-0.4,0.6-0.6,1.5-0.6,2.7c0,1.3,0.2,2.3,0.7,3c0.4,0.7,1,1,1.7,1c0.4,0,0.7-0.1,1-0.3
		c0.3-0.2,0.5-0.5,0.7-0.8s0.3-0.8,0.4-1.2c0.1-0.5,0.1-1,0.1-1.5V98z"/>
	<path class="st0" d="M117.6,99.5c0.2,1.1,0.5,1.9,1.1,2.4c0.6,0.5,1.2,0.7,1.9,0.7c0.6,0,1.2-0.1,1.6-0.4c0.5-0.3,0.8-0.7,1.2-1.2
		l3.6,2c-0.7,1.1-1.7,1.9-2.8,2.5c-1.2,0.5-2.4,0.8-3.8,0.8c-1.3,0-2.4-0.2-3.3-0.6c-1-0.4-1.8-0.9-2.4-1.6
		c-0.7-0.7-1.2-1.5-1.5-2.5c-0.3-1-0.5-2-0.5-3.1c0-1.1,0.2-2.2,0.5-3.1c0.3-1,0.8-1.8,1.5-2.5c0.6-0.7,1.4-1.2,2.4-1.6
		c0.9-0.4,2-0.6,3.2-0.6c1.1,0,2.2,0.2,3,0.6c0.9,0.4,1.6,0.9,2.2,1.6c0.6,0.7,1.1,1.6,1.4,2.6c0.3,1,0.5,2.1,0.5,3.3
		c0,0.3,0,0.5,0,0.6c0,0.1,0,0.2,0,0.2H117.6z M120,94.1c-1.4,0-2.2,0.9-2.4,2.7h4.8c0-0.7-0.2-1.4-0.6-1.9
		C121.4,94.3,120.8,94.1,120,94.1z"/>
	<path class="st0" d="M135.1,107.1c0.3,0.1,0.7,0.2,1.1,0.3c0.4,0.1,0.7,0.1,1,0.1c0.4,0,0.8-0.1,1-0.3c0.2-0.2,0.4-0.5,0.6-1
		l-5.3-15.3h5.2l2.6,9.9l2.5-9.9h5.2l-5.1,14.7c-0.3,0.8-0.6,1.6-0.9,2.2s-0.7,1.3-1.1,1.8c-0.5,0.5-1.1,0.9-1.8,1.2
		c-0.7,0.3-1.6,0.4-2.8,0.4c-0.2,0-0.4,0-0.7,0c-0.3,0-0.5,0-0.8,0c-0.3,0-0.6,0-0.8-0.1c-0.3,0-0.5-0.1-0.6-0.1L135.1,107.1z"/>
	<path class="st0" d="M156.3,106.2c-1.3,0-2.4-0.2-3.3-0.6c-0.9-0.4-1.7-0.9-2.3-1.6c-0.6-0.7-1.1-1.5-1.4-2.5
		c-0.3-0.9-0.5-2-0.5-3.1c0-1.1,0.2-2.2,0.5-3.1s0.8-1.8,1.4-2.5c0.6-0.7,1.4-1.3,2.3-1.7c0.9-0.4,2-0.6,3.2-0.6
		c1.2,0,2.3,0.2,3.2,0.6c0.9,0.4,1.7,0.9,2.3,1.6c0.6,0.7,1.1,1.5,1.4,2.5c0.3,1,0.5,2,0.5,3.1c0,1.1-0.2,2.2-0.5,3.1
		c-0.3,0.9-0.8,1.8-1.4,2.5s-1.4,1.2-2.3,1.6C158.6,106,157.5,106.2,156.3,106.2z M156.4,102.4c0.8,0,1.4-0.4,1.8-1.1
		c0.4-0.7,0.5-1.7,0.5-3s-0.2-2.3-0.6-3c-0.4-0.8-1-1.1-1.8-1.1s-1.4,0.4-1.8,1.1s-0.6,1.8-0.6,3s0.2,2.3,0.6,3
		C154.9,102.1,155.5,102.4,156.4,102.4z"/>
	<path class="st0" d="M165.2,90.9h4.9V99c0,0.9,0.1,1.6,0.4,2.1c0.3,0.5,0.8,0.7,1.5,0.7c0.8,0,1.4-0.3,1.8-0.9
		c0.4-0.6,0.6-1.6,0.6-2.9v-7.1h4.9v14.8h-4.6v-2.2c-0.4,0.8-0.9,1.4-1.6,1.8s-1.6,0.7-2.8,0.7c-1.8,0-3.1-0.5-3.9-1.5
		c-0.8-1-1.2-2.5-1.2-4.4V90.9z"/>
	<path class="st0" d="M181.7,90.9h4.4l0.3,2.7c0.4-0.9,1.1-1.6,1.9-2.2c0.8-0.6,1.9-0.9,3.2-0.9v5c-0.3-0.1-0.9-0.1-1.5-0.1
		c-0.4,0-0.8,0-1.2,0.1s-0.8,0.2-1.1,0.5c-0.3,0.3-0.6,0.6-0.8,1.2c-0.2,0.5-0.3,1.2-0.3,2.1v6.5h-4.9V90.9z"/>
</g>
<g>
	<path class="st0" d="M21.1,127.8c0.2,0.2,0.5,0.4,0.8,0.7c0.3,0.2,0.7,0.4,1.1,0.6c0.4,0.2,0.8,0.3,1.2,0.4
		c0.4,0.1,0.9,0.2,1.3,0.2c0.3,0,0.7-0.1,1.1-0.2c0.4-0.1,0.5-0.4,0.5-0.7c0-0.3-0.2-0.6-0.6-0.8c-0.4-0.2-0.9-0.4-1.4-0.6
		c-0.6-0.2-1.2-0.3-1.9-0.5c-0.7-0.2-1.3-0.5-1.9-0.8c-0.6-0.3-1-0.8-1.4-1.4c-0.4-0.6-0.6-1.3-0.6-2.2c0-0.8,0.2-1.6,0.5-2.2
		c0.3-0.6,0.8-1.1,1.4-1.5c0.6-0.4,1.2-0.7,2-0.9s1.5-0.3,2.3-0.3c1.3,0,2.5,0.2,3.5,0.5c1,0.3,1.9,0.7,2.7,1.3l-2.2,3.2
		c-0.2-0.2-0.4-0.3-0.8-0.5c-0.3-0.2-0.7-0.3-1-0.5c-0.4-0.1-0.8-0.3-1.2-0.3s-0.8-0.1-1.2-0.1c-0.3,0-0.6,0.1-0.8,0.2
		c-0.2,0.1-0.3,0.3-0.3,0.6c0,0.3,0.2,0.6,0.6,0.8s0.9,0.4,1.4,0.6s1.2,0.4,1.9,0.6c0.7,0.2,1.3,0.5,1.9,0.9c0.6,0.4,1,0.8,1.4,1.4
		c0.4,0.6,0.6,1.3,0.6,2.1c0,0.9-0.2,1.6-0.6,2.2c-0.4,0.6-0.9,1.2-1.5,1.6c-0.6,0.4-1.3,0.7-2,0.9c-0.8,0.2-1.5,0.3-2.2,0.3
		c-2.8,0-5.1-0.7-6.8-2.1L21.1,127.8z"/>
	<path class="st0" d="M42.2,132.7c-0.1-0.2-0.2-0.5-0.3-0.8c-0.1-0.3-0.1-0.7-0.2-0.9c-0.3,0.6-0.7,1.1-1.4,1.6
		c-0.6,0.5-1.5,0.7-2.7,0.7c-0.8,0-1.5-0.1-2.1-0.4c-0.6-0.2-1.1-0.6-1.5-1c-0.4-0.4-0.7-0.9-0.9-1.5c-0.2-0.6-0.3-1.2-0.3-1.9
		c0-0.8,0.1-1.4,0.4-2c0.3-0.6,0.6-1,1.1-1.4c0.5-0.4,1.1-0.7,1.8-0.9s1.5-0.4,2.3-0.6l3-0.5v-0.3c0-0.6-0.2-1-0.5-1.2
		c-0.3-0.2-0.8-0.3-1.3-0.3c-0.9,0-1.7,0.2-2.3,0.5c-0.6,0.3-1.2,0.7-1.7,1.2l-2.3-3.2c0.3-0.3,0.7-0.5,1.1-0.8
		c0.5-0.3,1-0.5,1.6-0.7c0.6-0.2,1.2-0.4,1.9-0.5c0.7-0.1,1.5-0.2,2.3-0.2c2.2,0,3.7,0.5,4.7,1.4c0.9,0.9,1.4,2.3,1.4,4.2v5.2
		c0,0.6,0,1.1,0,1.5c0,0.4,0,0.8,0.1,1.1c0,0.3,0.1,0.6,0.2,0.9c0.1,0.3,0.2,0.5,0.3,0.8H42.2z M41.4,126.2l-2,0.4
		c-0.7,0.1-1.2,0.3-1.5,0.6c-0.3,0.3-0.5,0.6-0.5,1.1c0,0.4,0.1,0.8,0.4,1.1c0.3,0.3,0.6,0.4,1.1,0.4c0.7,0,1.3-0.3,1.7-0.8
		c0.5-0.5,0.7-1.3,0.7-2.3V126.2z"/>
	<path class="st0" d="M46.8,117.9h5.5l2.4,10.2l2.3-10.2h5.2l-4.9,14.8h-5.7L46.8,117.9z"/>
	<path class="st0" d="M63.1,112.1H68v3.9h-4.9V112.1z M63.1,117.9H68v14.8h-4.9V117.9z"/>
	<path class="st0" d="M70.2,117.9h4.4L75,120c0.4-0.7,1.1-1.3,1.9-1.8c0.8-0.5,1.7-0.7,2.7-0.7c3.2,0,4.9,2.1,4.9,6.2v9h-4.9v-7.8
		c0-1.2-0.2-2-0.5-2.5c-0.3-0.5-0.9-0.7-1.6-0.7c-0.3,0-0.7,0.1-1,0.2c-0.3,0.1-0.5,0.3-0.8,0.7c-0.2,0.3-0.4,0.7-0.5,1.2
		c-0.1,0.5-0.2,1.1-0.2,1.9v7h-4.9V117.9z"/>
	<path class="st0" d="M88.5,132.6c0.6,0.6,1.3,1,2.1,1.3c0.8,0.3,1.7,0.5,2.6,0.5c0.9,0,1.6-0.2,1.9-0.6c0.3-0.4,0.5-1,0.5-1.8v-1.4
		c-0.3,0.5-0.8,0.9-1.5,1.3c-0.6,0.3-1.4,0.5-2.4,0.5c-0.7,0-1.4-0.1-2.1-0.4c-0.7-0.2-1.3-0.6-1.8-1.2c-0.5-0.6-1-1.3-1.3-2.2
		c-0.3-0.9-0.5-2.1-0.5-3.4c0-1.2,0.1-2.3,0.4-3.3c0.3-0.9,0.7-1.7,1.2-2.4c0.5-0.7,1.1-1.2,1.9-1.5s1.5-0.5,2.4-0.5
		c0.9,0,1.7,0.2,2.4,0.6c0.7,0.4,1.2,1,1.7,1.8l0.6-2h3.9v14c0,0.9-0.1,1.7-0.4,2.5c-0.3,0.8-0.7,1.4-1.3,2c-0.6,0.6-1.3,1-2.2,1.3
		c-0.9,0.3-2,0.5-3.3,0.5c-0.9,0-1.7-0.1-2.4-0.2c-0.7-0.1-1.4-0.3-2-0.5c-0.6-0.2-1.2-0.4-1.7-0.7c-0.5-0.3-0.9-0.5-1.3-0.7
		L88.5,132.6z M95.6,125.2c0-0.5,0-0.9-0.1-1.3c-0.1-0.4-0.2-0.8-0.3-1.2c-0.2-0.3-0.4-0.6-0.7-0.8c-0.3-0.2-0.6-0.3-1.1-0.3
		c-0.3,0-0.6,0.1-0.9,0.2c-0.3,0.1-0.5,0.3-0.7,0.6c-0.2,0.3-0.4,0.7-0.5,1.1c-0.1,0.5-0.2,1-0.2,1.7c0,1.2,0.2,2.1,0.6,2.7
		c0.4,0.6,1,0.9,1.7,0.9c0.7,0,1.3-0.3,1.6-0.9s0.5-1.4,0.5-2.5V125.2z"/>
	<path class="st0" d="M104.1,127.8c0.2,0.2,0.5,0.4,0.8,0.7c0.3,0.2,0.7,0.4,1.1,0.6c0.4,0.2,0.8,0.3,1.2,0.4
		c0.4,0.1,0.9,0.2,1.3,0.2c0.3,0,0.7-0.1,1.1-0.2c0.4-0.1,0.5-0.4,0.5-0.7c0-0.3-0.2-0.6-0.6-0.8c-0.4-0.2-0.9-0.4-1.4-0.6
		c-0.6-0.2-1.2-0.3-1.9-0.5c-0.7-0.2-1.3-0.5-1.9-0.8c-0.6-0.3-1-0.8-1.4-1.4c-0.4-0.6-0.6-1.3-0.6-2.2c0-0.8,0.2-1.6,0.5-2.2
		c0.3-0.6,0.8-1.1,1.4-1.5c0.6-0.4,1.2-0.7,2-0.9s1.5-0.3,2.3-0.3c1.3,0,2.5,0.2,3.5,0.5c1,0.3,1.9,0.7,2.7,1.3l-2.2,3.2
		c-0.2-0.2-0.4-0.3-0.8-0.5c-0.3-0.2-0.7-0.3-1-0.5c-0.4-0.1-0.8-0.3-1.2-0.3s-0.8-0.1-1.2-0.1c-0.3,0-0.6,0.1-0.8,0.2
		c-0.2,0.1-0.3,0.3-0.3,0.6c0,0.3,0.2,0.6,0.6,0.8s0.9,0.4,1.4,0.6s1.2,0.4,1.9,0.6c0.7,0.2,1.3,0.5,1.9,0.9c0.6,0.4,1,0.8,1.4,1.4
		c0.4,0.6,0.6,1.3,0.6,2.1c0,0.9-0.2,1.6-0.6,2.2c-0.4,0.6-0.9,1.2-1.5,1.6c-0.6,0.4-1.3,0.7-2,0.9c-0.8,0.2-1.5,0.3-2.2,0.3
		c-2.8,0-5.1-0.7-6.8-2.1L104.1,127.8z"/>
	<path class="st0" d="M121,117.9h5.2l2.2,10.1l1.9-10.1h5.2l1.9,10.1l2.1-10.1h5.2l-4.8,14.8h-5.2l-1.9-7.9l-1.9,7.9h-5.2L121,117.9
		z"/>
	<path class="st0" d="M145.7,112.1h4.9v3.9h-4.9V112.1z M145.7,117.9h4.9v14.8h-4.9V117.9z"/>
	<path class="st0" d="M154,121.1h-2.3v-3.1h0.4c0.8,0,1.3-0.1,1.8-0.4c0.4-0.3,0.8-0.6,1-1c0.2-0.4,0.4-0.9,0.5-1.4
		c0.1-0.5,0.2-1,0.4-1.6h3.1v4.3h3v3.1h-3v6.8c0,0.4,0.1,0.8,0.3,1.1c0.2,0.3,0.6,0.4,1.1,0.4c0.2,0,0.3,0,0.6,0
		c0.2,0,0.5-0.1,0.8-0.2l0.3,3.4c-0.5,0.2-1.1,0.4-1.6,0.4c-0.5,0.1-1.1,0.1-1.7,0.1c-0.9,0-1.7-0.1-2.3-0.3c-0.6-0.2-1.1-0.6-1.4-1
		c-0.3-0.4-0.6-0.9-0.7-1.5c-0.1-0.6-0.2-1.2-0.2-1.9V121.1z"/>
	<path class="st0" d="M163,112.2h4.9v7.7c0.4-0.7,0.9-1.2,1.7-1.7c0.7-0.5,1.7-0.7,2.8-0.7c1.7,0,2.9,0.5,3.7,1.6
		c0.8,1.1,1.2,2.6,1.2,4.7v8.9h-4.9v-8c0-0.9-0.2-1.6-0.5-2.2c-0.3-0.5-0.9-0.8-1.6-0.8c-0.7,0-1.3,0.3-1.7,0.9
		c-0.4,0.6-0.7,1.5-0.7,2.9v7.2H163V112.2z"/>
</g>
<g>
	<path class="st0" d="M38.6,155.1c-1,1.8-2.3,3-3.7,3.8c-1.5,0.8-3.2,1.2-5.3,1.2c-1.7,0-3.2-0.3-4.5-0.8c-1.3-0.5-2.4-1.3-3.3-2.2
		c-0.9-0.9-1.5-2.1-2-3.4c-0.4-1.3-0.7-2.7-0.7-4.3c0-1.6,0.2-3,0.7-4.3c0.5-1.3,1.1-2.4,2-3.4c0.9-0.9,2-1.7,3.3-2.2
		c1.3-0.5,2.8-0.8,4.4-0.8c1.9,0,3.6,0.3,5.1,1c1.5,0.7,2.8,1.9,4,3.6l-5,2.5c-0.4-0.8-0.9-1.5-1.6-1.9c-0.7-0.5-1.5-0.7-2.4-0.7
		c-0.9,0-1.6,0.2-2.2,0.5c-0.6,0.3-1.1,0.8-1.5,1.3c-0.4,0.6-0.7,1.2-0.9,2c-0.2,0.8-0.3,1.6-0.3,2.4c0,0.9,0.1,1.6,0.3,2.4
		c0.2,0.7,0.5,1.4,0.9,2c0.4,0.6,0.9,1,1.5,1.3s1.3,0.5,2.1,0.5c0.9,0,1.7-0.2,2.3-0.7c0.7-0.5,1.3-1.2,1.7-2.3L38.6,155.1z"/>
	<path class="st0" d="M40.1,139.2h4.9v20.5h-4.9V139.2z"/>
	<path class="st0" d="M56,159.7c-0.1-0.2-0.2-0.5-0.3-0.8c-0.1-0.3-0.1-0.7-0.2-0.9c-0.3,0.6-0.7,1.1-1.4,1.6
		c-0.6,0.5-1.5,0.7-2.7,0.7c-0.8,0-1.5-0.1-2.1-0.4c-0.6-0.2-1.1-0.6-1.5-1c-0.4-0.4-0.7-0.9-0.9-1.5c-0.2-0.6-0.3-1.2-0.3-1.9
		c0-0.8,0.1-1.4,0.4-2c0.3-0.6,0.6-1,1.1-1.4c0.5-0.4,1.1-0.7,1.8-0.9s1.5-0.4,2.3-0.6l3-0.5v-0.3c0-0.6-0.2-1-0.5-1.2
		s-0.8-0.3-1.3-0.3c-0.9,0-1.7,0.2-2.3,0.5c-0.6,0.3-1.2,0.7-1.7,1.2l-2.3-3.2c0.3-0.3,0.7-0.5,1.1-0.8c0.5-0.3,1-0.5,1.6-0.7
		s1.2-0.4,1.9-0.5c0.7-0.1,1.5-0.2,2.3-0.2c2.2,0,3.7,0.5,4.7,1.4c0.9,0.9,1.4,2.3,1.4,4.2v5.2c0,0.6,0,1.1,0,1.5
		c0,0.4,0,0.8,0.1,1.1c0,0.3,0.1,0.6,0.2,0.9c0.1,0.3,0.2,0.5,0.3,0.8H56z M55.2,153.2l-2,0.4c-0.7,0.1-1.2,0.3-1.5,0.6
		c-0.3,0.3-0.5,0.6-0.5,1.1c0,0.4,0.1,0.8,0.4,1.1c0.3,0.3,0.6,0.4,1.1,0.4c0.7,0,1.3-0.3,1.7-0.8c0.5-0.5,0.7-1.3,0.7-2.3V153.2z"
		/>
	<path class="st0" d="M62.4,139.1h4.9v3.9h-4.9V139.1z M62.4,144.9h4.9v14.8h-4.9V144.9z"/>
	<path class="st0" d="M69.6,144.9H74l0.4,2.1c0.4-0.8,1-1.4,1.7-1.8c0.7-0.4,1.5-0.7,2.6-0.7c1.2,0,2.1,0.3,2.8,0.8
		c0.7,0.5,1.1,1.1,1.4,1.8c0.2-0.3,0.4-0.6,0.6-0.9c0.2-0.3,0.5-0.6,0.9-0.9c0.4-0.3,0.8-0.5,1.3-0.6c0.5-0.2,1.1-0.2,1.8-0.2
		c1,0,1.9,0.2,2.5,0.5c0.6,0.3,1.1,0.8,1.5,1.4c0.3,0.6,0.6,1.2,0.7,2c0.1,0.7,0.2,1.5,0.2,2.3v9.1h-4.9V152c0-1.1-0.1-1.9-0.4-2.5
		c-0.3-0.5-0.8-0.8-1.5-0.8c-0.2,0-0.5,0-0.7,0.1c-0.3,0.1-0.5,0.2-0.7,0.5c-0.2,0.3-0.4,0.6-0.5,1.1s-0.2,1.1-0.2,1.9v7.4h-4.9
		v-7.8c0-1-0.1-1.8-0.4-2.3c-0.3-0.5-0.8-0.8-1.5-0.8c-0.2,0-0.5,0-0.7,0.1c-0.3,0.1-0.5,0.3-0.7,0.5s-0.4,0.7-0.5,1.2
		c-0.1,0.5-0.2,1.2-0.2,2v7h-4.9V144.9z"/>
	<path class="st0" d="M94.7,139.2h8.7c1,0,2,0.1,2.9,0.3s1.8,0.6,2.6,1.1c0.8,0.5,1.4,1.2,1.8,2c0.5,0.8,0.7,1.8,0.7,3
		c0,1.3-0.2,2.4-0.6,3.3c-0.4,0.9-1,1.6-1.7,2.2c-0.7,0.6-1.6,1-2.5,1.2c-1,0.2-2,0.4-3.1,0.4h-3.5v6.9h-5.2V139.2z M102.6,148.7
		c0.5,0,0.9,0,1.3-0.1c0.4-0.1,0.7-0.2,1-0.4c0.3-0.2,0.5-0.5,0.7-0.9s0.2-0.9,0.2-1.5c0-0.5-0.1-0.9-0.3-1.2
		c-0.2-0.3-0.4-0.6-0.7-0.8s-0.7-0.3-1.1-0.4c-0.4-0.1-0.8-0.1-1.2-0.1h-2.6v5.5H102.6z"/>
	<path class="st0" d="M121.3,159.7c-0.1-0.2-0.2-0.5-0.3-0.8c-0.1-0.3-0.1-0.7-0.2-0.9c-0.3,0.6-0.7,1.1-1.4,1.6
		c-0.6,0.5-1.5,0.7-2.7,0.7c-0.8,0-1.5-0.1-2.1-0.4c-0.6-0.2-1.1-0.6-1.5-1c-0.4-0.4-0.7-0.9-0.9-1.5c-0.2-0.6-0.3-1.2-0.3-1.9
		c0-0.8,0.1-1.4,0.4-2c0.3-0.6,0.6-1,1.1-1.4c0.5-0.4,1.1-0.7,1.8-0.9s1.5-0.4,2.3-0.6l3-0.5v-0.3c0-0.6-0.2-1-0.5-1.2
		s-0.8-0.3-1.3-0.3c-0.9,0-1.7,0.2-2.3,0.5c-0.6,0.3-1.2,0.7-1.7,1.2l-2.3-3.2c0.3-0.3,0.7-0.5,1.1-0.8c0.5-0.3,1-0.5,1.6-0.7
		s1.2-0.4,1.9-0.5c0.7-0.1,1.5-0.2,2.3-0.2c2.2,0,3.7,0.5,4.7,1.4c0.9,0.9,1.4,2.3,1.4,4.2v5.2c0,0.6,0,1.1,0,1.5
		c0,0.4,0,0.8,0.1,1.1c0,0.3,0.1,0.6,0.2,0.9c0.1,0.3,0.2,0.5,0.3,0.8H121.3z M120.5,153.2l-2,0.4c-0.7,0.1-1.2,0.3-1.5,0.6
		c-0.3,0.3-0.5,0.6-0.5,1.1c0,0.4,0.1,0.8,0.4,1.1c0.3,0.3,0.6,0.4,1.1,0.4c0.7,0,1.3-0.3,1.7-0.8c0.5-0.5,0.7-1.3,0.7-2.3V153.2z"
		/>
	<path class="st0" d="M128.8,154.8c0.2,0.2,0.5,0.4,0.8,0.7c0.3,0.2,0.7,0.4,1.1,0.6c0.4,0.2,0.8,0.3,1.2,0.4
		c0.4,0.1,0.9,0.2,1.3,0.2c0.3,0,0.7-0.1,1.1-0.2c0.4-0.1,0.5-0.4,0.5-0.7c0-0.3-0.2-0.6-0.6-0.8c-0.4-0.2-0.9-0.4-1.4-0.6
		c-0.6-0.2-1.2-0.3-1.9-0.5c-0.7-0.2-1.3-0.5-1.9-0.8c-0.6-0.3-1-0.8-1.4-1.4s-0.6-1.3-0.6-2.2c0-0.8,0.2-1.6,0.5-2.2
		c0.3-0.6,0.8-1.1,1.4-1.5s1.2-0.7,2-0.9c0.8-0.2,1.5-0.3,2.3-0.3c1.3,0,2.5,0.2,3.5,0.5c1,0.3,1.9,0.7,2.7,1.3l-2.2,3.2
		c-0.2-0.2-0.4-0.3-0.8-0.5c-0.3-0.2-0.7-0.3-1-0.5c-0.4-0.1-0.8-0.3-1.2-0.3s-0.8-0.1-1.2-0.1c-0.3,0-0.6,0.1-0.8,0.2
		c-0.2,0.1-0.3,0.3-0.3,0.6c0,0.3,0.2,0.6,0.6,0.8s0.9,0.4,1.4,0.6s1.2,0.4,1.9,0.6s1.3,0.5,1.9,0.9s1,0.8,1.4,1.4
		c0.4,0.6,0.6,1.3,0.6,2.1s-0.2,1.6-0.6,2.2c-0.4,0.6-0.9,1.2-1.5,1.6c-0.6,0.4-1.3,0.7-2,0.9s-1.5,0.3-2.2,0.3
		c-2.8,0-5.1-0.7-6.8-2.1L128.8,154.8z"/>
	<path class="st0" d="M142.3,154.8c0.2,0.2,0.5,0.4,0.8,0.7c0.3,0.2,0.7,0.4,1.1,0.6c0.4,0.2,0.8,0.3,1.2,0.4
		c0.4,0.1,0.9,0.2,1.3,0.2c0.3,0,0.7-0.1,1.1-0.2c0.4-0.1,0.5-0.4,0.5-0.7c0-0.3-0.2-0.6-0.6-0.8c-0.4-0.2-0.9-0.4-1.4-0.6
		c-0.6-0.2-1.2-0.3-1.9-0.5c-0.7-0.2-1.3-0.5-1.9-0.8c-0.6-0.3-1-0.8-1.4-1.4s-0.6-1.3-0.6-2.2c0-0.8,0.2-1.6,0.5-2.2
		c0.3-0.6,0.8-1.1,1.4-1.5s1.2-0.7,2-0.9c0.8-0.2,1.5-0.3,2.3-0.3c1.3,0,2.5,0.2,3.5,0.5c1,0.3,1.9,0.7,2.7,1.3l-2.2,3.2
		c-0.2-0.2-0.4-0.3-0.8-0.5c-0.3-0.2-0.7-0.3-1-0.5c-0.4-0.1-0.8-0.3-1.2-0.3s-0.8-0.1-1.2-0.1c-0.3,0-0.6,0.1-0.8,0.2
		c-0.2,0.1-0.3,0.3-0.3,0.6c0,0.3,0.2,0.6,0.6,0.8s0.9,0.4,1.4,0.6s1.2,0.4,1.9,0.6s1.3,0.5,1.9,0.9s1,0.8,1.4,1.4
		c0.4,0.6,0.6,1.3,0.6,2.1s-0.2,1.6-0.6,2.2c-0.4,0.6-0.9,1.2-1.5,1.6c-0.6,0.4-1.3,0.7-2,0.9s-1.5,0.3-2.2,0.3
		c-2.8,0-5.1-0.7-6.8-2.1L142.3,154.8z"/>
	<path class="st0" d="M153.9,154.3h5.4v5.4h-5.4V154.3z"/>
</g>
</svg>
