<?xml version="1.0" encoding="utf-8"?>
<!-- Generator: Adobe Illustrator 22.1.0, SVG Export Plug-In . SVG Version: 6.00 Build 0)  -->
<svg version="1.1" id="Layer_1" xmlns="https://www.w3.org/2000/svg" xmlns:xlink="https://www.w3.org/1999/xlink" x="0px" y="0px"
	 viewBox="0 0 336 280" style="enable-background:new 0 0 336 280;" xml:space="preserve">
<style type="text/css">
	.copy-purpleFill{fill:#662868;}
</style>
<g>
	<path class="copy-purpleFill" d="M23.1,124.9c0.2,0.3,0.4,0.5,0.8,0.8s0.7,0.5,1.2,0.8c0.5,0.2,1,0.4,1.6,0.6c0.6,0.2,1.2,0.2,1.8,0.2
		c0.9,0,1.6-0.1,2.1-0.4c0.5-0.3,0.8-0.7,0.8-1.2c0-0.4-0.1-0.7-0.3-1c-0.2-0.3-0.6-0.5-1-0.7c-0.4-0.2-1-0.3-1.6-0.5
		c-0.6-0.1-1.4-0.3-2.2-0.5c-2-0.5-3.5-1.3-4.4-2.3c-0.9-1-1.3-2.3-1.3-3.8c0-0.9,0.2-1.7,0.5-2.5s0.9-1.5,1.6-2.1
		c0.7-0.6,1.5-1.1,2.6-1.5s2.2-0.6,3.6-0.6c1.6,0,3.1,0.3,4.5,0.8c1.4,0.5,2.6,1.4,3.6,2.5l-3.5,3.2c-0.5-0.6-1.2-1.1-2.1-1.6
		c-0.8-0.4-1.8-0.6-2.9-0.6c-0.5,0-0.9,0-1.2,0.1c-0.3,0.1-0.6,0.2-0.8,0.4s-0.3,0.3-0.4,0.5c-0.1,0.2-0.1,0.4-0.1,0.6
		c0,0.5,0.2,0.9,0.7,1.3c0.5,0.4,1.4,0.7,2.7,1.1c1.5,0.4,2.7,0.8,3.7,1.2s1.7,0.9,2.3,1.4c0.6,0.5,0.9,1.1,1.2,1.7
		c0.2,0.6,0.3,1.3,0.3,2.1c0,1.1-0.2,2-0.7,2.9c-0.5,0.8-1.1,1.5-1.8,2.1c-0.8,0.6-1.7,1-2.7,1.2c-1,0.3-2.1,0.4-3.2,0.4
		c-1.1,0-2.1-0.1-3-0.3c-0.9-0.2-1.7-0.4-2.5-0.7s-1.4-0.6-1.9-1c-0.5-0.4-1-0.8-1.3-1.2L23.1,124.9z"/>
	<path class="copy-purpleFill" d="M38.3,116.3h4.9v8.1c0,0.9,0.1,1.6,0.4,2.1c0.3,0.5,0.8,0.7,1.5,0.7c0.8,0,1.4-0.3,1.8-0.9
		c0.4-0.6,0.6-1.6,0.6-2.9v-7.1h4.9v14.8h-4.6v-2.2c-0.4,0.8-0.9,1.4-1.6,1.8s-1.6,0.7-2.8,0.7c-1.8,0-3.1-0.5-3.9-1.5
		c-0.8-1-1.2-2.5-1.2-4.4V116.3z"/>
	<path class="copy-purpleFill" d="M54.7,116.3h4.4l0.3,2.7c0.4-0.9,1.1-1.6,1.9-2.2c0.8-0.6,1.9-0.9,3.2-0.9v5c-0.3-0.1-0.9-0.1-1.5-0.1
		c-0.4,0-0.8,0-1.2,0.1c-0.4,0.1-0.8,0.2-1.1,0.5c-0.3,0.3-0.6,0.6-0.8,1.2s-0.3,1.2-0.3,2.1v6.5h-4.9V116.3z"/>
	<path class="copy-purpleFill" d="M69.7,124.9c0.2,1.1,0.5,1.9,1.1,2.4c0.6,0.5,1.2,0.7,1.9,0.7c0.6,0,1.2-0.1,1.6-0.4c0.5-0.3,0.8-0.7,1.2-1.2
		l3.6,2c-0.7,1.1-1.7,1.9-2.8,2.5c-1.2,0.5-2.4,0.8-3.8,0.8c-1.3,0-2.4-0.2-3.3-0.6c-1-0.4-1.8-0.9-2.4-1.6
		c-0.7-0.7-1.2-1.5-1.5-2.5c-0.3-1-0.5-2-0.5-3.1c0-1.1,0.2-2.2,0.5-3.1c0.3-1,0.8-1.8,1.5-2.5c0.6-0.7,1.4-1.2,2.4-1.6
		c0.9-0.4,2-0.6,3.2-0.6c1.1,0,2.2,0.2,3,0.6c0.9,0.4,1.6,0.9,2.2,1.6c0.6,0.7,1.1,1.6,1.4,2.6c0.3,1,0.5,2.1,0.5,3.3
		c0,0.3,0,0.5,0,0.6c0,0.1,0,0.2,0,0.2H69.7z M72.1,119.5c-1.4,0-2.2,0.9-2.4,2.7h4.8c0-0.7-0.2-1.4-0.6-1.9
		C73.5,119.7,72.9,119.5,72.1,119.5z"/>
	<path class="copy-purpleFill" d="M80.7,135c0.5-0.2,0.9-0.5,1.3-0.7c0.3-0.2,0.6-0.5,0.8-0.8c0.2-0.3,0.3-0.6,0.4-0.9s0.1-0.6,0.1-1v-0.5h-2.5
		v-5.4h5.4v5.3c0,0.9-0.1,1.7-0.3,2.3c-0.2,0.6-0.4,1.2-0.8,1.7c-0.4,0.5-0.8,0.9-1.3,1.2c-0.5,0.3-1.2,0.7-1.9,0.9L80.7,135z"/>
	<path class="copy-purpleFill" d="M94.7,132.5c0.3,0.1,0.7,0.2,1.1,0.3c0.4,0.1,0.7,0.1,1,0.1c0.4,0,0.8-0.1,1-0.3c0.2-0.2,0.4-0.5,0.6-1
		l-5.3-15.3h5.2l2.6,9.9l2.5-9.9h5.2l-5.1,14.7c-0.3,0.8-0.6,1.6-0.9,2.2s-0.7,1.3-1.1,1.8c-0.5,0.5-1.1,0.9-1.8,1.2
		c-0.7,0.3-1.6,0.4-2.8,0.4c-0.2,0-0.4,0-0.7,0c-0.3,0-0.5,0-0.8,0c-0.3,0-0.6,0-0.8-0.1c-0.3,0-0.5-0.1-0.6-0.1L94.7,132.5z"/>
	<path class="copy-purpleFill" d="M115.9,131.6c-1.3,0-2.4-0.2-3.3-0.6c-0.9-0.4-1.7-0.9-2.3-1.6c-0.6-0.7-1.1-1.5-1.4-2.5
		c-0.3-0.9-0.5-2-0.5-3.1c0-1.1,0.2-2.2,0.5-3.1s0.8-1.8,1.4-2.5c0.6-0.7,1.4-1.3,2.3-1.7c0.9-0.4,2-0.6,3.2-0.6
		c1.2,0,2.3,0.2,3.2,0.6c0.9,0.4,1.7,0.9,2.3,1.6c0.6,0.7,1.1,1.5,1.4,2.5c0.3,1,0.5,2,0.5,3.1c0,1.1-0.2,2.2-0.5,3.1
		c-0.3,0.9-0.8,1.8-1.4,2.5s-1.4,1.2-2.3,1.6C118.2,131.4,117.1,131.6,115.9,131.6z M115.9,127.9c0.8,0,1.4-0.4,1.8-1.1
		c0.4-0.7,0.5-1.7,0.5-3s-0.2-2.3-0.6-3c-0.4-0.8-1-1.1-1.8-1.1s-1.4,0.4-1.8,1.1s-0.6,1.8-0.6,3s0.2,2.3,0.6,3
		C114.4,127.5,115.1,127.9,115.9,127.9z"/>
	<path class="copy-purpleFill" d="M124.8,116.3h4.9v8.1c0,0.9,0.1,1.6,0.4,2.1c0.3,0.5,0.8,0.7,1.5,0.7c0.8,0,1.4-0.3,1.8-0.9
		c0.4-0.6,0.6-1.6,0.6-2.9v-7.1h4.9v14.8h-4.6v-2.2c-0.4,0.8-0.9,1.4-1.6,1.8s-1.6,0.7-2.8,0.7c-1.8,0-3.1-0.5-3.9-1.5
		c-0.8-1-1.2-2.5-1.2-4.4V116.3z"/>
	<path class="copy-purpleFill" d="M141.3,119.6c0.5-0.2,0.9-0.5,1.3-0.7s0.6-0.5,0.8-0.8c0.2-0.3,0.3-0.6,0.4-0.9c0.1-0.3,0.1-0.6,0.1-1v-0.5
		h-2.5v-5.1h5.4v5.1c0,0.9-0.1,1.7-0.3,2.3c-0.2,0.6-0.4,1.2-0.8,1.7s-0.8,0.9-1.3,1.2c-0.5,0.3-1.2,0.7-1.9,0.9L141.3,119.6z"/>
	<path class="copy-purpleFill" d="M148.3,116.3h4.4l0.3,2.7c0.4-0.9,1.1-1.6,1.9-2.2c0.8-0.6,1.9-0.9,3.2-0.9v5c-0.3-0.1-0.9-0.1-1.5-0.1
		c-0.4,0-0.8,0-1.2,0.1c-0.4,0.1-0.8,0.2-1.1,0.5c-0.3,0.3-0.6,0.6-0.8,1.2s-0.3,1.2-0.3,2.1v6.5h-4.9V116.3z"/>
	<path class="copy-purpleFill" d="M163.3,124.9c0.2,1.1,0.5,1.9,1.1,2.4c0.6,0.5,1.2,0.7,1.9,0.7c0.6,0,1.2-0.1,1.6-0.4c0.5-0.3,0.8-0.7,1.2-1.2
		l3.6,2c-0.7,1.1-1.7,1.9-2.8,2.5s-2.4,0.8-3.8,0.8c-1.3,0-2.4-0.2-3.3-0.6c-1-0.4-1.8-0.9-2.4-1.6c-0.7-0.7-1.2-1.5-1.5-2.5
		c-0.3-1-0.5-2-0.5-3.1c0-1.1,0.2-2.2,0.5-3.1c0.3-1,0.8-1.8,1.5-2.5c0.6-0.7,1.4-1.2,2.4-1.6c0.9-0.4,2-0.6,3.2-0.6
		c1.1,0,2.2,0.2,3,0.6c0.9,0.4,1.6,0.9,2.2,1.6c0.6,0.7,1.1,1.6,1.4,2.6c0.3,1,0.5,2.1,0.5,3.3c0,0.3,0,0.5,0,0.6c0,0.1,0,0.2,0,0.2
		H163.3z M165.7,119.5c-1.4,0-2.2,0.9-2.4,2.7h4.8c0-0.7-0.2-1.4-0.6-1.9C167.1,119.7,166.5,119.5,165.7,119.5z"/>
	<path class="copy-purpleFill" d="M181.9,126.2c0.2,0.2,0.5,0.4,0.8,0.7c0.3,0.2,0.7,0.4,1.1,0.6c0.4,0.2,0.8,0.3,1.2,0.4
		c0.4,0.1,0.9,0.2,1.3,0.2c0.3,0,0.7-0.1,1.1-0.2c0.4-0.1,0.5-0.4,0.5-0.7c0-0.3-0.2-0.6-0.6-0.8c-0.4-0.2-0.9-0.4-1.4-0.6
		c-0.6-0.2-1.2-0.3-1.9-0.5c-0.7-0.2-1.3-0.5-1.9-0.8c-0.6-0.3-1-0.8-1.4-1.4c-0.4-0.6-0.6-1.3-0.6-2.2c0-0.8,0.2-1.6,0.5-2.2
		c0.3-0.6,0.8-1.1,1.4-1.5c0.6-0.4,1.2-0.7,2-0.9s1.5-0.3,2.3-0.3c1.3,0,2.5,0.2,3.5,0.5c1,0.3,1.9,0.7,2.7,1.3l-2.2,3.2
		c-0.2-0.2-0.4-0.3-0.8-0.5c-0.3-0.2-0.7-0.3-1-0.5s-0.8-0.3-1.2-0.3s-0.8-0.1-1.2-0.1c-0.3,0-0.6,0.1-0.8,0.2
		c-0.2,0.1-0.3,0.3-0.3,0.6c0,0.3,0.2,0.6,0.6,0.8c0.4,0.2,0.9,0.4,1.4,0.6c0.6,0.2,1.2,0.4,1.9,0.6c0.7,0.2,1.3,0.5,1.9,0.9
		c0.6,0.4,1,0.8,1.4,1.4c0.4,0.6,0.6,1.3,0.6,2.1c0,0.9-0.2,1.6-0.6,2.2c-0.4,0.6-0.9,1.2-1.5,1.6c-0.6,0.4-1.3,0.7-2,0.9
		c-0.8,0.2-1.5,0.3-2.2,0.3c-2.8,0-5.1-0.7-6.8-2.1L181.9,126.2z"/>
	<path class="copy-purpleFill" d="M203,131.1c-0.1-0.2-0.2-0.5-0.3-0.8c-0.1-0.3-0.1-0.7-0.2-0.9c-0.3,0.6-0.7,1.1-1.4,1.6
		c-0.6,0.5-1.5,0.7-2.7,0.7c-0.8,0-1.5-0.1-2.1-0.4c-0.6-0.2-1.1-0.6-1.5-1c-0.4-0.4-0.7-0.9-0.9-1.5c-0.2-0.6-0.3-1.2-0.3-1.9
		c0-0.8,0.1-1.4,0.4-2s0.6-1,1.1-1.4s1.1-0.7,1.8-0.9c0.7-0.2,1.5-0.4,2.3-0.6l3-0.5v-0.3c0-0.6-0.2-1-0.5-1.2
		c-0.3-0.2-0.8-0.3-1.3-0.3c-0.9,0-1.7,0.2-2.3,0.5c-0.6,0.3-1.2,0.7-1.7,1.2L194,118c0.3-0.3,0.7-0.5,1.1-0.8
		c0.5-0.3,1-0.5,1.6-0.7c0.6-0.2,1.2-0.4,1.9-0.5c0.7-0.1,1.5-0.2,2.3-0.2c2.2,0,3.7,0.5,4.7,1.4c0.9,0.9,1.4,2.3,1.4,4.2v5.2
		c0,0.6,0,1.1,0,1.5c0,0.4,0,0.8,0.1,1.1c0,0.3,0.1,0.6,0.2,0.9c0.1,0.3,0.2,0.5,0.3,0.8H203z M202.2,124.6l-2,0.4
		c-0.7,0.1-1.2,0.3-1.5,0.6c-0.3,0.3-0.5,0.6-0.5,1.1c0,0.4,0.1,0.8,0.4,1.1c0.3,0.3,0.6,0.4,1.1,0.4c0.7,0,1.3-0.3,1.7-0.8
		s0.7-1.3,0.7-2.3V124.6z"/>
	<path class="copy-purpleFill" d="M207.6,116.3h5.5l2.4,10.2l2.3-10.2h5.2l-4.9,14.8h-5.7L207.6,116.3z"/>
	<path class="copy-purpleFill" d="M223.9,110.5h4.9v3.9h-4.9V110.5z M223.9,116.3h4.9v14.8h-4.9V116.3z"/>
	<path class="copy-purpleFill" d="M231,116.3h4.4l0.4,2.1c0.4-0.7,1.1-1.3,1.9-1.8c0.8-0.5,1.7-0.7,2.7-0.7c3.2,0,4.9,2.1,4.9,6.2v9h-4.9v-7.8
		c0-1.2-0.2-2-0.5-2.5c-0.3-0.5-0.9-0.7-1.6-0.7c-0.3,0-0.7,0.1-1,0.2c-0.3,0.1-0.5,0.3-0.8,0.7s-0.4,0.7-0.5,1.2
		c-0.1,0.5-0.2,1.1-0.2,1.9v7H231V116.3z"/>
	<path class="copy-purpleFill" d="M249.3,131c0.6,0.6,1.3,1,2.1,1.3c0.8,0.3,1.7,0.5,2.6,0.5c0.9,0,1.6-0.2,1.9-0.6c0.3-0.4,0.5-1,0.5-1.8v-1.4
		c-0.3,0.5-0.8,0.9-1.4,1.3c-0.6,0.3-1.4,0.5-2.4,0.5c-0.7,0-1.4-0.1-2.1-0.4c-0.7-0.2-1.3-0.6-1.8-1.2c-0.5-0.6-1-1.3-1.3-2.2
		c-0.3-0.9-0.5-2.1-0.5-3.4c0-1.2,0.1-2.3,0.4-3.3s0.7-1.7,1.2-2.4c0.5-0.7,1.1-1.2,1.9-1.5c0.7-0.3,1.5-0.5,2.4-0.5
		c0.9,0,1.7,0.2,2.4,0.6c0.7,0.4,1.2,1,1.7,1.8l0.6-2h3.9v14c0,0.9-0.1,1.7-0.4,2.5c-0.3,0.8-0.7,1.4-1.3,2c-0.6,0.6-1.3,1-2.2,1.3
		c-0.9,0.3-2,0.5-3.3,0.5c-0.9,0-1.7-0.1-2.4-0.2c-0.7-0.1-1.4-0.3-2-0.5c-0.6-0.2-1.2-0.4-1.7-0.7c-0.5-0.3-0.9-0.5-1.3-0.7
		L249.3,131z M256.4,123.6c0-0.5,0-0.9-0.1-1.3c-0.1-0.4-0.2-0.8-0.3-1.2c-0.2-0.3-0.4-0.6-0.7-0.8c-0.3-0.2-0.6-0.3-1.1-0.3
		c-0.3,0-0.6,0.1-0.9,0.2s-0.5,0.3-0.7,0.6c-0.2,0.3-0.4,0.7-0.5,1.1c-0.1,0.5-0.2,1-0.2,1.7c0,1.2,0.2,2.1,0.6,2.7s1,0.9,1.7,0.9
		c0.7,0,1.3-0.3,1.6-0.9s0.5-1.4,0.5-2.5V123.6z"/>
	<path class="copy-purpleFill" d="M263.3,125.7h5.4v5.4h-5.4V125.7z"/>
</g>
<g>
	<path class="copy-purpleFill" d="M20.7,141.7h9.5c0.9,0,1.7,0.1,2.5,0.3c0.8,0.2,1.6,0.5,2.2,1c0.6,0.5,1.2,1,1.6,1.7c0.4,0.7,0.6,1.6,0.6,2.5
		c0,0.5-0.1,1-0.3,1.5c-0.2,0.5-0.4,0.9-0.8,1.4c-0.3,0.4-0.7,0.8-1.2,1.1c-0.5,0.3-1,0.5-1.5,0.6c1.4,0.3,2.5,0.8,3.3,1.6
		c0.8,0.8,1.2,1.9,1.2,3.3c0,1.1-0.2,2.1-0.6,2.8c-0.4,0.7-0.9,1.3-1.6,1.7s-1.4,0.7-2.3,0.8c-0.9,0.1-1.7,0.2-2.7,0.2h-10V141.7z
		 M28.6,149.9c1.1,0,1.9-0.2,2.3-0.5c0.4-0.4,0.6-0.9,0.6-1.7c0-0.6-0.2-1.1-0.6-1.5s-1-0.5-1.9-0.5h-3.1v4.2H28.6z M29.8,158.3
		c0.5,0,0.9-0.1,1.2-0.2c0.3-0.1,0.6-0.3,0.8-0.5c0.2-0.2,0.3-0.4,0.4-0.7s0.1-0.6,0.1-0.8c0-0.7-0.2-1.2-0.7-1.6
		c-0.5-0.4-1.1-0.6-2.1-0.6h-3.5v4.4H29.8z"/>
	<path class="copy-purpleFill" d="M39.3,147.5h4.9v8.1c0,0.9,0.1,1.6,0.4,2.1s0.8,0.7,1.5,0.7c0.8,0,1.4-0.3,1.8-0.9c0.4-0.6,0.6-1.6,0.6-2.9
		v-7.1h4.9v14.8h-4.6V160c-0.4,0.8-0.9,1.4-1.6,1.8c-0.7,0.5-1.6,0.7-2.8,0.7c-1.8,0-3.1-0.5-3.9-1.5c-0.8-1-1.2-2.5-1.2-4.4V147.5z
		"/>
	<path class="copy-purpleFill" d="M56.9,150.6h-2.3v-3.1h0.4c0.8,0,1.3-0.1,1.8-0.4s0.8-0.6,1-1c0.2-0.4,0.4-0.9,0.5-1.4c0.1-0.5,0.2-1,0.4-1.6
		h3.1v4.4h3v3.1h-3v6.8c0,0.4,0.1,0.8,0.3,1.1c0.2,0.3,0.6,0.4,1.1,0.4c0.2,0,0.3,0,0.6,0c0.2,0,0.5-0.1,0.8-0.2l0.3,3.4
		c-0.5,0.2-1.1,0.4-1.6,0.5c-0.5,0.1-1.1,0.1-1.7,0.1c-0.9,0-1.7-0.1-2.3-0.3c-0.6-0.2-1.1-0.6-1.4-1c-0.3-0.4-0.6-0.9-0.7-1.5
		s-0.2-1.2-0.2-1.9V150.6z"/>
	<path class="copy-purpleFill" d="M71.9,147.5h4.4l0.4,2.1c0.4-0.7,1.1-1.3,1.9-1.8s1.7-0.7,2.7-0.7c3.2,0,4.9,2.1,4.9,6.2v9h-4.9v-7.8
		c0-1.2-0.2-2-0.5-2.5c-0.3-0.5-0.9-0.7-1.6-0.7c-0.3,0-0.7,0.1-1,0.2s-0.5,0.3-0.8,0.7c-0.2,0.3-0.4,0.7-0.5,1.2
		c-0.1,0.5-0.2,1.1-0.2,1.9v7h-4.9V147.5z"/>
	<path class="copy-purpleFill" d="M95.1,162.7c-1.3,0-2.4-0.2-3.3-0.6c-0.9-0.4-1.7-0.9-2.3-1.6c-0.6-0.7-1.1-1.5-1.4-2.5
		c-0.3-0.9-0.5-2-0.5-3.1s0.2-2.2,0.5-3.1s0.8-1.8,1.4-2.5s1.4-1.3,2.3-1.7c0.9-0.4,2-0.6,3.2-0.6c1.2,0,2.3,0.2,3.2,0.6
		c0.9,0.4,1.7,0.9,2.3,1.6s1.1,1.5,1.4,2.5c0.3,1,0.5,2,0.5,3.1s-0.2,2.2-0.5,3.1c-0.3,0.9-0.8,1.8-1.4,2.5
		c-0.6,0.7-1.4,1.2-2.3,1.6C97.4,162.5,96.3,162.7,95.1,162.7z M95.2,159c0.8,0,1.4-0.4,1.8-1.1c0.4-0.7,0.5-1.7,0.5-3
		s-0.2-2.3-0.6-3c-0.4-0.8-1-1.1-1.8-1.1s-1.4,0.4-1.8,1.1c-0.4,0.8-0.6,1.8-0.6,3s0.2,2.3,0.6,3C93.7,158.6,94.3,159,95.2,159z"/>
	<path class="copy-purpleFill" d="M105,150.6h-2.3v-3.1h0.4c0.8,0,1.3-0.1,1.8-0.4s0.8-0.6,1-1c0.2-0.4,0.4-0.9,0.5-1.4c0.1-0.5,0.2-1,0.4-1.6
		h3.1v4.4h3v3.1h-3v6.8c0,0.4,0.1,0.8,0.3,1.1c0.2,0.3,0.6,0.4,1.1,0.4c0.2,0,0.3,0,0.6,0c0.2,0,0.5-0.1,0.8-0.2l0.3,3.4
		c-0.5,0.2-1.1,0.4-1.6,0.5c-0.5,0.1-1.1,0.1-1.7,0.1c-0.9,0-1.7-0.1-2.3-0.3c-0.6-0.2-1.1-0.6-1.4-1c-0.3-0.4-0.6-0.9-0.7-1.5
		s-0.2-1.2-0.2-1.9V150.6z"/>
	<path class="copy-purpleFill" d="M128.9,160.8c-0.3,0.6-0.8,1-1.4,1.3c-0.6,0.3-1.3,0.5-2.2,0.5c-0.8,0-1.5-0.1-2.2-0.4s-1.3-0.7-1.9-1.3
		c-0.6-0.6-1-1.4-1.3-2.4c-0.3-1-0.5-2.2-0.5-3.6c0-2.6,0.5-4.5,1.6-5.8c1.1-1.3,2.5-2,4.3-2c0.9,0,1.6,0.2,2.3,0.5
		c0.7,0.3,1.3,1,1.7,1.9l0.7-2h3.8v19.8h-4.9V160.8z M128.9,154.7c0-1.2-0.2-2.1-0.6-2.8c-0.4-0.7-0.9-1-1.7-1c-0.8,0-1.4,0.3-1.7,1
		c-0.3,0.7-0.5,1.6-0.5,2.7c0,1.4,0.2,2.3,0.6,3c0.4,0.6,1,0.9,1.7,0.9c0.7,0,1.2-0.3,1.6-0.9c0.4-0.6,0.6-1.5,0.6-2.7V154.7z"/>
	<path class="copy-purpleFill" d="M136,147.5h4.9v8.1c0,0.9,0.1,1.6,0.4,2.1s0.8,0.7,1.5,0.7c0.8,0,1.4-0.3,1.8-0.9c0.4-0.6,0.6-1.6,0.6-2.9
		v-7.1h4.9v14.8h-4.6V160c-0.4,0.8-0.9,1.4-1.6,1.8c-0.7,0.5-1.6,0.7-2.8,0.7c-1.8,0-3.1-0.5-3.9-1.5c-0.8-1-1.2-2.5-1.2-4.4V147.5z
		"/>
	<path class="copy-purpleFill" d="M152.4,141.6h4.9v3.9h-4.9V141.6z M152.4,147.5h4.9v14.8h-4.9V147.5z"/>
	<path class="copy-purpleFill" d="M160.7,150.6h-2.3v-3.1h0.4c0.8,0,1.3-0.1,1.8-0.4s0.8-0.6,1-1c0.2-0.4,0.4-0.9,0.5-1.4c0.1-0.5,0.2-1,0.4-1.6
		h3.1v4.4h3v3.1h-3v6.8c0,0.4,0.1,0.8,0.3,1.1c0.2,0.3,0.6,0.4,1.1,0.4c0.2,0,0.3,0,0.6,0c0.2,0,0.5-0.1,0.8-0.2l0.3,3.4
		c-0.5,0.2-1.1,0.4-1.6,0.5c-0.5,0.1-1.1,0.1-1.7,0.1c-0.9,0-1.7-0.1-2.3-0.3c-0.6-0.2-1.1-0.6-1.4-1c-0.3-0.4-0.6-0.9-0.7-1.5
		s-0.2-1.2-0.2-1.9V150.6z"/>
	<path class="copy-purpleFill" d="M173.9,156c0.2,1.1,0.5,1.9,1.1,2.4c0.6,0.5,1.2,0.7,1.9,0.7c0.6,0,1.2-0.1,1.6-0.4c0.5-0.3,0.8-0.7,1.2-1.2
		l3.6,2c-0.7,1.1-1.7,1.9-2.8,2.5c-1.2,0.5-2.4,0.8-3.8,0.8c-1.3,0-2.4-0.2-3.3-0.6c-1-0.4-1.8-0.9-2.4-1.6
		c-0.7-0.7-1.2-1.5-1.5-2.5c-0.3-1-0.5-2-0.5-3.1c0-1.1,0.2-2.2,0.5-3.1s0.8-1.8,1.5-2.5s1.4-1.2,2.4-1.6c0.9-0.4,2-0.6,3.2-0.6
		c1.1,0,2.2,0.2,3,0.6c0.9,0.4,1.6,0.9,2.2,1.6c0.6,0.7,1.1,1.6,1.4,2.6c0.3,1,0.5,2.1,0.5,3.3c0,0.3,0,0.5,0,0.6s0,0.2,0,0.2H173.9
		z M176.3,150.6c-1.4,0-2.2,0.9-2.4,2.7h4.8c0-0.7-0.2-1.4-0.6-1.9C177.7,150.8,177.1,150.6,176.3,150.6z"/>
	<path class="copy-purpleFill" d="M195.5,156c0.2,1.1,0.5,1.9,1.1,2.4c0.6,0.5,1.2,0.7,1.9,0.7c0.6,0,1.2-0.1,1.6-0.4c0.5-0.3,0.8-0.7,1.2-1.2
		l3.6,2c-0.7,1.1-1.7,1.9-2.8,2.5c-1.2,0.5-2.4,0.8-3.8,0.8c-1.3,0-2.4-0.2-3.3-0.6c-1-0.4-1.8-0.9-2.4-1.6
		c-0.7-0.7-1.2-1.5-1.5-2.5c-0.3-1-0.5-2-0.5-3.1c0-1.1,0.2-2.2,0.5-3.1s0.8-1.8,1.5-2.5s1.4-1.2,2.4-1.6c0.9-0.4,2-0.6,3.2-0.6
		c1.1,0,2.2,0.2,3,0.6c0.9,0.4,1.6,0.9,2.2,1.6c0.6,0.7,1.1,1.6,1.4,2.6c0.3,1,0.5,2.1,0.5,3.3c0,0.3,0,0.5,0,0.6s0,0.2,0,0.2H195.5
		z M197.9,150.6c-1.4,0-2.2,0.9-2.4,2.7h4.8c0-0.7-0.2-1.4-0.6-1.9C199.3,150.8,198.7,150.6,197.9,150.6z"/>
	<path class="copy-purpleFill" d="M206.8,147.5h4.4l0.4,2.1c0.4-0.7,1.1-1.3,1.9-1.8c0.8-0.5,1.7-0.7,2.7-0.7c3.2,0,4.9,2.1,4.9,6.2v9h-4.9v-7.8
		c0-1.2-0.2-2-0.5-2.5c-0.3-0.5-0.9-0.7-1.6-0.7c-0.3,0-0.7,0.1-1,0.2s-0.5,0.3-0.8,0.7s-0.4,0.7-0.5,1.2s-0.2,1.1-0.2,1.9v7h-4.9
		V147.5z"/>
	<path class="copy-purpleFill" d="M230,162.7c-1.3,0-2.4-0.2-3.3-0.6c-0.9-0.4-1.7-0.9-2.3-1.6c-0.6-0.7-1.1-1.5-1.4-2.5c-0.3-0.9-0.5-2-0.5-3.1
		s0.2-2.2,0.5-3.1s0.8-1.8,1.4-2.5s1.4-1.3,2.3-1.7c0.9-0.4,2-0.6,3.2-0.6s2.3,0.2,3.2,0.6c0.9,0.4,1.7,0.9,2.3,1.6
		c0.6,0.7,1.1,1.5,1.4,2.5s0.5,2,0.5,3.1s-0.2,2.2-0.5,3.1c-0.3,0.9-0.8,1.8-1.4,2.5c-0.6,0.7-1.4,1.2-2.3,1.6
		C232.3,162.5,231.2,162.7,230,162.7z M230.1,159c0.8,0,1.4-0.4,1.8-1.1c0.4-0.7,0.5-1.7,0.5-3s-0.2-2.3-0.6-3
		c-0.4-0.8-1-1.1-1.8-1.1c-0.8,0-1.4,0.4-1.8,1.1c-0.4,0.8-0.6,1.8-0.6,3s0.2,2.3,0.6,3C228.6,158.6,229.2,159,230.1,159z"/>
	<path class="copy-purpleFill" d="M238.9,147.5h4.9v8.1c0,0.9,0.1,1.6,0.4,2.1s0.8,0.7,1.5,0.7c0.8,0,1.4-0.3,1.8-0.9c0.4-0.6,0.6-1.6,0.6-2.9
		v-7.1h4.9v14.8h-4.6V160c-0.4,0.8-0.9,1.4-1.6,1.8c-0.7,0.5-1.6,0.7-2.8,0.7c-1.8,0-3.1-0.5-3.9-1.5c-0.8-1-1.2-2.5-1.2-4.4V147.5z
		"/>
	<path class="copy-purpleFill" d="M257.2,162.2c0.6,0.6,1.3,1,2.1,1.3c0.8,0.3,1.7,0.5,2.6,0.5c0.9,0,1.6-0.2,1.9-0.6c0.3-0.4,0.5-1,0.5-1.8
		v-1.4c-0.3,0.5-0.8,0.9-1.4,1.3c-0.6,0.3-1.4,0.5-2.4,0.5c-0.7,0-1.4-0.1-2.1-0.4c-0.7-0.2-1.3-0.6-1.8-1.2c-0.5-0.6-1-1.3-1.3-2.2
		c-0.3-0.9-0.5-2.1-0.5-3.4c0-1.2,0.1-2.3,0.4-3.3c0.3-0.9,0.7-1.7,1.2-2.4c0.5-0.7,1.1-1.2,1.9-1.5c0.7-0.3,1.5-0.5,2.4-0.5
		c0.9,0,1.7,0.2,2.4,0.6s1.2,1,1.7,1.8l0.6-2h3.9v14c0,0.9-0.1,1.7-0.4,2.5c-0.3,0.8-0.7,1.4-1.3,2s-1.3,1-2.2,1.3s-2,0.5-3.3,0.5
		c-0.9,0-1.7-0.1-2.4-0.2c-0.7-0.1-1.4-0.3-2-0.5c-0.6-0.2-1.2-0.4-1.7-0.7c-0.5-0.3-0.9-0.5-1.3-0.7L257.2,162.2z M264.3,154.7
		c0-0.5,0-0.9-0.1-1.3c-0.1-0.4-0.2-0.8-0.3-1.2s-0.4-0.6-0.7-0.8c-0.3-0.2-0.6-0.3-1.1-0.3c-0.3,0-0.6,0.1-0.9,0.2
		s-0.5,0.3-0.7,0.6c-0.2,0.3-0.4,0.7-0.5,1.1c-0.1,0.5-0.2,1-0.2,1.7c0,1.2,0.2,2.1,0.6,2.7s1,0.9,1.7,0.9c0.7,0,1.3-0.3,1.6-0.9
		s0.5-1.4,0.5-2.5V154.7z"/>
	<path class="copy-purpleFill" d="M271.4,141.7h4.9v7.7c0.4-0.7,0.9-1.2,1.7-1.7c0.7-0.5,1.7-0.7,2.8-0.7c1.7,0,2.9,0.5,3.7,1.6
		c0.8,1.1,1.2,2.6,1.2,4.7v8.9h-4.9v-8c0-0.9-0.2-1.6-0.5-2.2c-0.3-0.5-0.9-0.8-1.6-0.8c-0.7,0-1.3,0.3-1.7,0.9
		c-0.4,0.6-0.7,1.5-0.7,2.9v7.2h-4.9V141.7z"/>
	<path class="copy-purpleFill" d="M287.9,156.9h5.4v5.4h-5.4V156.9z"/>
</g>
</svg>
