<svg version="1.1" id="Layer_1" xmlns="https://www.w3.org/2000/svg" x="0" y="0" viewBox="0 0 300 600" xml:space="preserve"><style>.copy_purpleFill{fill:#662868}.copy-grayFill{fill:#5d6770}</style><path class="copy_purpleFill" d="M54.8 167.5h16v4.4H60.5v4.9h7.1v4.4h-7.1v9h-5.8v-22.7zM72.8 167.4h5.4v4.3h-5.4v-4.3zm0 6.4h5.4v16.3h-5.4v-16.3zM81.3 173.8h4.8l.4 2.3c.5-.8 1.2-1.4 2.1-2s1.9-.8 3-.8c3.6 0 5.4 2.3 5.4 6.8v9.9h-5.4v-8.6c0-1.3-.2-2.2-.6-2.7-.4-.5-1-.8-1.8-.8-.4 0-.7.1-1.1.2-.3.1-.6.4-.8.7-.2.3-.4.8-.5 1.3-.1.6-.2 1.3-.2 2.1v7.7h-5.4v-16.1zM110.1 187.9c-.4.8-1 1.5-1.7 1.9-.7.4-1.6.7-2.7.7-1 0-1.8-.2-2.6-.6-.8-.4-1.5-.9-2-1.6-.6-.7-1-1.6-1.3-2.7-.3-1.1-.5-2.3-.5-3.7 0-1.6.2-2.9.6-4 .4-1.1.9-1.9 1.5-2.6.6-.7 1.3-1.1 2.1-1.4.8-.3 1.5-.4 2.3-.4 1 0 1.9.2 2.6.6.7.4 1.2.9 1.5 1.5v-7.9h5.4v22.6h-5.1v-2.4zm-.3-6.2c0-.5 0-1-.1-1.5s-.2-.9-.4-1.3-.4-.7-.8-.9c-.3-.2-.7-.3-1.2-.3-.8 0-1.4.3-1.8 1-.4.7-.6 1.7-.6 3 0 1.4.2 2.5.7 3.3s1.1 1.2 1.8 1.2c.4 0 .8-.1 1.1-.3.3-.2.5-.5.7-.9.2-.4.3-.8.4-1.4.1-.5.1-1.1.1-1.7v-.2zM133 190.6c-1.4 0-2.6-.2-3.6-.7s-1.9-1-2.6-1.8c-.7-.8-1.2-1.7-1.5-2.7-.3-1-.5-2.2-.5-3.4 0-1.2.2-2.4.5-3.4.4-1.1.9-2 1.6-2.8.7-.8 1.6-1.4 2.6-1.8 1-.4 2.2-.7 3.6-.7 1.3 0 2.5.2 3.6.7 1 .4 1.9 1 2.6 1.8.7.8 1.2 1.7 1.6 2.8s.5 2.2.5 3.5c0 1.2-.2 2.4-.5 3.4-.4 1-.9 2-1.6 2.7-.7.8-1.5 1.4-2.6 1.8-1.1.4-2.3.6-3.7.6zm.1-4c.9 0 1.5-.4 1.9-1.2.4-.8.6-1.9.6-3.3s-.2-2.5-.7-3.3c-.4-.8-1.1-1.2-2-1.2s-1.6.4-2 1.2c-.4.8-.6 1.9-.6 3.3s.2 2.5.7 3.3c.5.7 1.2 1.2 2.1 1.2zM143.5 173.8h5.4v9c0 1 .2 1.8.5 2.3.3.5.9.8 1.7.8.9 0 1.5-.3 2-1s.7-1.7.7-3.2v-7.9h5.4v16.3H154v-2.4c-.4.9-1 1.5-1.7 2s-1.8.8-3.1.8c-1.9 0-3.4-.6-4.3-1.7-.9-1.1-1.4-2.7-1.4-4.8v-10.2zM163.5 177.3h-2.6v-3.5h.4c.8 0 1.5-.1 2-.4.5-.3.9-.6 1.1-1.1.3-.5.5-1 .6-1.6.1-.6.3-1.2.4-1.7h3.4v4.8h3.4v3.5h-3.4v7.6c0 .5.1.9.3 1.2.2.3.6.5 1.2.5h.6c.3 0 .5-.1.9-.3l.4 3.8c-.6.2-1.2.4-1.8.5-.6.1-1.2.1-1.8.1-1 0-1.8-.1-2.5-.4-.7-.3-1.2-.6-1.6-1.1-.4-.4-.7-1-.8-1.6-.2-.6-.2-1.3-.2-2.1v-8.2zM181.3 167.5h5.4v8.4c.4-.7 1-1.3 1.8-1.9s1.9-.8 3.1-.8c1.9 0 3.2.6 4.1 1.8.9 1.2 1.3 2.9 1.3 5.2v9.8h-5.4v-8.8c0-1-.2-1.8-.5-2.4-.4-.6-1-.8-1.8-.8s-1.4.3-1.9.9c-.5.6-.7 1.7-.7 3.2v7.9h-5.4v-22.5zM207.5 190.6c-1.4 0-2.6-.2-3.6-.7s-1.9-1-2.6-1.8-1.2-1.7-1.5-2.7c-.3-1-.5-2.2-.5-3.4 0-1.2.2-2.4.5-3.4.4-1.1.9-2 1.6-2.8.7-.8 1.6-1.4 2.6-1.8 1-.4 2.2-.7 3.6-.7 1.3 0 2.5.2 3.6.7 1 .4 1.9 1 2.6 1.8.7.8 1.2 1.7 1.6 2.8s.5 2.2.5 3.5c0 1.2-.2 2.4-.5 3.4-.4 1-.9 2-1.6 2.7-.7.8-1.5 1.4-2.6 1.8-1.1.4-2.3.6-3.7.6zm.1-4c.9 0 1.5-.4 1.9-1.2.4-.8.6-1.9.6-3.3s-.2-2.5-.7-3.3c-.4-.8-1.1-1.2-2-1.2-.9 0-1.6.4-2 1.2s-.6 1.9-.6 3.3.2 2.5.7 3.3c.5.7 1.2 1.2 2.1 1.2zM216.2 173.8h5.8l2.4 11.1 2.1-11.1h5.7l2.1 11.1 2.4-11.1h5.8l-5.3 16.3h-5.8l-2-8.7-2 8.7h-5.8l-5.4-16.3z"/><g><path class="copy_purpleFill" d="M69.3 221.8c-.8 1.4-1.8 2.4-3.1 3s-2.7.9-4.3.9c-1.5 0-2.7-.2-3.7-.7-1-.4-1.9-1.1-2.6-1.8s-1.2-1.7-1.5-2.7c-.3-1-.5-2.2-.5-3.4 0-1.3.2-2.5.6-3.6.4-1.1.9-2 1.6-2.8.7-.8 1.6-1.3 2.6-1.7 1-.4 2.2-.6 3.5-.6 1.7 0 3.1.3 4.3 1 1.2.7 2.2 1.7 3 3.1l-4.4 2.1c-.3-.8-.7-1.3-1.2-1.6s-1-.5-1.5-.5c-1 0-1.7.4-2.2 1.2-.4.8-.7 1.8-.7 3.1 0 .5 0 1 .1 1.6.1.6.2 1.1.5 1.5.2.5.5.9.9 1.2.4.3.9.5 1.6.5.7 0 1.3-.2 1.8-.6.5-.4.8-.9 1.1-1.6l4.1 2.4zM78.3 225.7c-1.4 0-2.6-.2-3.6-.7s-1.9-1-2.6-1.8c-.7-.8-1.2-1.7-1.5-2.7-.3-1-.5-2.2-.5-3.4 0-1.2.2-2.4.5-3.4.4-1.1.9-2 1.6-2.8.7-.8 1.6-1.4 2.6-1.8 1-.4 2.2-.7 3.6-.7 1.3 0 2.5.2 3.6.7 1 .4 1.9 1 2.6 1.8.7.8 1.2 1.7 1.6 2.8s.5 2.2.5 3.5c0 1.2-.2 2.4-.5 3.4-.4 1-.9 2-1.6 2.7-.7.8-1.5 1.4-2.6 1.8-1.1.3-2.3.6-3.7.6zm.1-4.1c.9 0 1.5-.4 1.9-1.2.4-.8.6-1.9.6-3.3s-.2-2.5-.7-3.3c-.4-.8-1.1-1.2-2-1.2s-1.6.4-2 1.2c-.4.8-.6 1.9-.6 3.3s.2 2.5.7 3.3c.5.8 1.2 1.2 2.1 1.2zM88.9 208.9h4.8l.4 2.3c.5-.9 1.1-1.6 1.8-2 .7-.5 1.7-.7 2.8-.7 1.3 0 2.3.3 3.1.9.7.6 1.2 1.3 1.6 2 .2-.3.4-.7.7-1 .3-.4.6-.7 1-.9.4-.3.9-.5 1.5-.7.6-.2 1.2-.3 2-.3 1.2 0 2.1.2 2.8.6.7.4 1.2.9 1.6 1.5.4.6.6 1.3.8 2.2.1.8.2 1.6.2 2.5v10h-5.4v-8.5c0-1.2-.2-2.1-.5-2.7-.3-.6-.9-.9-1.7-.9-.3 0-.5 0-.8.1-.3.1-.5.3-.8.5-.2.3-.4.7-.5 1.2-.1.5-.2 1.2-.2 2v8.2h-5.4v-8.6c0-1.2-.2-2-.5-2.6-.3-.6-.9-.8-1.6-.8-.3 0-.5 0-.8.1-.3.1-.5.3-.8.6-.2.3-.4.7-.6 1.3-.1.6-.2 1.3-.2 2.3v7.8h-5.4v-16.4zM117 208.9h5.4v2.1c.4-.7.9-1.4 1.6-1.9.7-.5 1.6-.8 2.8-.8 1.8 0 3.3.7 4.4 2.1 1.1 1.4 1.7 3.5 1.7 6.4 0 1.7-.2 3.1-.6 4.2-.4 1.1-.9 2-1.5 2.7-.6.7-1.3 1.1-2.1 1.4s-1.5.4-2.2.4c-.8 0-1.6-.1-2.4-.4s-1.3-.8-1.7-1.4v7H117v-21.8zm5.3 8.3c0 .6 0 1.1.1 1.6s.3.9.5 1.3.5.7.8.9c.3.2.7.3 1.1.3.7 0 1.3-.3 1.8-1s.6-1.7.6-3.2c0-1.4-.2-2.5-.7-3.2-.4-.7-1.1-1.1-1.9-1.1-.4 0-.8.1-1.1.3s-.5.5-.7.9c-.2.4-.3.8-.4 1.3-.1.5-.1 1-.1 1.5v.4zM144.6 225.1c-.1-.2-.2-.5-.3-.9-.1-.4-.1-.7-.2-1-.3.6-.8 1.2-1.5 1.7s-1.7.8-2.9.8c-.9 0-1.6-.1-2.3-.4-.7-.3-1.2-.6-1.7-1.1-.5-.5-.8-1-1-1.7-.2-.6-.4-1.3-.4-2.1s.1-1.6.4-2.2.7-1.1 1.2-1.6c.5-.4 1.2-.8 2-1 .8-.3 1.6-.5 2.6-.6l3.3-.5v-.4c0-.7-.2-1.1-.5-1.4s-.8-.4-1.5-.4c-1 0-1.9.2-2.6.5s-1.3.8-1.9 1.3l-2.5-3.6c.3-.3.8-.6 1.3-.8.5-.3 1.1-.5 1.7-.8.6-.2 1.4-.4 2.1-.5.8-.1 1.7-.2 2.6-.2 2.4 0 4.1.5 5.2 1.5 1 1 1.6 2.6 1.6 4.7v7.5c0 .4 0 .8.1 1.2.1.4.1.7.2 1 .1.3.2.6.4.9h-5.4zm-.9-7.2l-2.2.4c-.7.1-1.3.4-1.6.7s-.5.7-.5 1.2.1.9.4 1.2c.3.3.7.5 1.2.5.7 0 1.4-.3 1.9-.9.5-.6.8-1.4.8-2.5v-.6zM152.3 208.9h4.8l.4 2.3c.5-.8 1.2-1.4 2.1-2 .9-.5 1.9-.8 3-.8 3.6 0 5.4 2.3 5.4 6.8v9.9h-5.4v-8.6c0-1.3-.2-2.2-.6-2.7s-1-.8-1.8-.8c-.4 0-.7.1-1.1.2-.3.1-.6.4-.8.7-.2.3-.4.8-.5 1.3-.1.6-.2 1.3-.2 2.1v7.7h-5.4v-16.1zM171 202.4h5.4v4.3H171v-4.3zm0 6.5h5.4v16.3H171v-16.3zM184.3 218.3c.2 1.3.6 2.1 1.2 2.6s1.3.8 2.1.8c.7 0 1.3-.1 1.8-.4.5-.3.9-.8 1.3-1.4l4 2.2c-.8 1.2-1.9 2.1-3.1 2.7-1.3.6-2.7.9-4.2.9-1.4 0-2.6-.2-3.7-.7-1.1-.4-2-1-2.7-1.8s-1.3-1.7-1.6-2.7c-.4-1.1-.6-2.2-.6-3.4 0-1.2.2-2.4.6-3.5s.9-2 1.6-2.8c.7-.8 1.6-1.4 2.6-1.8 1-.4 2.2-.7 3.5-.7 1.3 0 2.4.2 3.4.6 1 .4 1.8 1 2.5 1.8s1.2 1.7 1.5 2.8c.4 1.1.5 2.3.5 3.7v1h-10.7zm2.6-6c-1.5 0-2.4 1-2.7 2.9h5.2c0-.8-.2-1.5-.6-2.1-.3-.5-1-.8-1.9-.8zM198.6 219.7c.3.2.6.5.9.7.4.2.7.5 1.2.7.4.2.9.3 1.4.5.5.1.9.2 1.4.2.4 0 .8-.1 1.2-.2.4-.1.6-.4.6-.8s-.2-.7-.6-.9c-.4-.2-1-.4-1.6-.6-.6-.2-1.3-.4-2.1-.6-.7-.2-1.4-.5-2.1-.9-.6-.4-1.2-.9-1.6-1.5-.4-.6-.6-1.5-.6-2.5 0-.9.2-1.7.6-2.4.4-.7.9-1.2 1.5-1.7.6-.4 1.4-.8 2.2-1 .8-.2 1.7-.3 2.6-.3 1.5 0 2.8.2 3.9.5s2.1.8 3 1.4l-2.5 3.6c-.2-.2-.5-.4-.8-.6-.3-.2-.7-.4-1.1-.5s-.9-.3-1.3-.4c-.5-.1-.9-.1-1.3-.1s-.7.1-.9.2c-.2.1-.4.3-.4.7 0 .4.2.7.6.9.4.2 1 .4 1.6.6.6.2 1.3.4 2 .7.7.2 1.4.5 2 .9.6.4 1.2.9 1.6 1.5.4.6.6 1.4.6 2.3 0 .9-.2 1.8-.6 2.5-.4.7-1 1.3-1.6 1.7-.7.5-1.4.8-2.3 1-.8.2-1.7.3-2.5.3-3.1 0-5.6-.8-7.6-2.3l2.6-3.6z"/></g><g><path class="copy_purpleFill" d="M54.5 237.6h5.4v22.6h-5.4v-22.6zM63 237.4h5.4v4.3H63v-4.3zm0 6.5h5.4v16.3H63v-16.3zM71.5 237.6h5.4v12.3l5.4-6h6.6l-6.4 6.2 6.4 10.1h-6.1l-3.7-6.8-2.1 2v4.8h-5.4v-22.6z"/><path class="copy_purpleFill" d="M94.3 253.3c.2 1.3.6 2.1 1.2 2.6s1.3.8 2.1.8c.7 0 1.3-.1 1.8-.4.5-.3.9-.8 1.3-1.4l4 2.2c-.8 1.2-1.9 2.1-3.1 2.7-1.3.6-2.7.9-4.2.9-1.4 0-2.6-.2-3.7-.7s-2-1-2.7-1.8-1.3-1.7-1.6-2.7c-.4-1.1-.6-2.2-.6-3.4 0-1.2.2-2.4.6-3.5s.9-2 1.6-2.8c.7-.8 1.6-1.4 2.6-1.8 1-.4 2.2-.7 3.5-.7 1.3 0 2.4.2 3.4.6 1 .4 1.8 1 2.5 1.8s1.2 1.7 1.5 2.8c.4 1.1.5 2.3.5 3.7v1H94.3zm2.6-6c-1.5 0-2.4 1-2.7 2.9h5.2c0-.8-.2-1.5-.6-2.1-.3-.5-1-.8-1.9-.8zM114.9 261.8l1.2.3c.4.1.8.1 1.1.1.5 0 .9-.1 1.1-.3.3-.2.5-.6.6-1.1l-5.9-16.9h5.8l2.8 11 2.8-11h5.8l-5.7 16.2c-.3.9-.6 1.7-1 2.5-.3.7-.7 1.4-1.2 1.9s-1.2 1-2 1.3c-.8.3-1.8.5-3 .5h-1.6c-.3 0-.6 0-.9-.1-.3 0-.5-.1-.7-.1l.8-4.3zM138.9 260.7c-1.4 0-2.6-.2-3.6-.7s-1.9-1-2.6-1.8c-.7-.8-1.2-1.7-1.5-2.7-.3-1-.5-2.2-.5-3.4 0-1.2.2-2.4.5-3.4.4-1.1.9-2 1.6-2.8.7-.8 1.6-1.4 2.6-1.8 1-.4 2.2-.7 3.6-.7 1.3 0 2.5.2 3.6.7 1 .4 1.9 1 2.6 1.8.7.8 1.2 1.7 1.6 2.8s.5 2.2.5 3.5c0 1.2-.2 2.4-.5 3.4-.4 1-.9 2-1.6 2.7-.7.8-1.5 1.4-2.6 1.8-1.2.3-2.4.6-3.7.6zm.1-4.1c.9 0 1.5-.4 1.9-1.2.4-.8.6-1.9.6-3.3s-.2-2.5-.7-3.3c-.4-.8-1.1-1.2-2-1.2s-1.6.4-2 1.2c-.4.8-.6 1.9-.6 3.3s.2 2.5.7 3.3c.4.8 1.1 1.2 2.1 1.2zM149.4 243.9h5.4v9c0 1 .2 1.8.5 2.3.3.5.9.8 1.7.8.9 0 1.5-.3 2-1s.7-1.7.7-3.2v-7.9h5.4v16.3H160v-2.4c-.4.9-1 1.5-1.7 2s-1.8.8-3.1.8c-1.9 0-3.4-.6-4.3-1.7-.9-1.1-1.4-2.7-1.4-4.8v-10.2zM168.1 243.9h4.8l.4 3c.5-1 1.2-1.8 2.1-2.5.9-.7 2.1-1 3.6-1v5.5c-.4-.1-.9-.2-1.7-.2-.4 0-.9 0-1.3.1s-.8.3-1.2.5c-.4.3-.7.7-.9 1.3-.2.6-.4 1.4-.4 2.3v7.2h-5.4v-16.2zM182.1 254.7c.3.2.6.5.9.7.4.2.7.5 1.2.7.4.2.9.3 1.4.5.5.1.9.2 1.4.2.4 0 .8-.1 1.2-.2.4-.1.6-.4.6-.8s-.2-.7-.6-.9c-.4-.2-1-.4-1.6-.6-.6-.2-1.3-.4-2.1-.6-.7-.2-1.4-.5-2.1-.9-.6-.4-1.2-.9-1.6-1.5-.4-.6-.6-1.5-.6-2.5 0-.9.2-1.7.6-2.4.4-.7.9-1.2 1.5-1.7.6-.4 1.4-.8 2.2-1 .8-.2 1.7-.3 2.6-.3 1.5 0 2.8.2 3.9.5s2.1.8 3 1.4l-2.5 3.6c-.2-.2-.5-.4-.8-.6-.3-.2-.7-.4-1.1-.5s-.9-.3-1.3-.4c-.5-.1-.9-.1-1.3-.1s-.7.1-.9.2c-.2.1-.4.3-.4.7 0 .4.2.7.6.9.4.2 1 .4 1.6.6.6.2 1.3.4 2 .7.7.2 1.4.5 2 .9.6.4 1.2.9 1.6 1.5.4.6.6 1.4.6 2.3 0 .9-.2 1.8-.6 2.5-.4.7-1 1.3-1.6 1.7-.7.5-1.4.8-2.3 1-.8.2-1.7.3-2.5.3-3.1 0-5.6-.8-7.6-2.3l2.6-3.6zM213.2 260.2c-.1-.2-.2-.5-.3-.9-.1-.4-.1-.7-.2-1-.3.6-.8 1.2-1.5 1.7s-1.7.8-2.9.8c-.9 0-1.6-.1-2.3-.4-.7-.3-1.2-.6-1.7-1.1-.5-.5-.8-1-1-1.7-.2-.6-.4-1.3-.4-2.1s.1-1.6.4-2.2.7-1.1 1.2-1.6c.5-.4 1.2-.8 2-1 .8-.3 1.6-.5 2.6-.6l3.3-.5v-.4c0-.7-.2-1.1-.5-1.4-.4-.2-.8-.4-1.5-.4-1 0-1.9.2-2.6.5s-1.3.8-1.9 1.3l-2.5-3.6c.3-.3.8-.6 1.3-.8s1.1-.5 1.7-.8c.6-.2 1.4-.4 2.1-.5.8-.1 1.7-.2 2.6-.2 2.4 0 4.1.5 5.2 1.5 1 1 1.6 2.6 1.6 4.7v7.5c0 .4 0 .8.1 1.2.1.4.1.7.2 1 .1.3.2.6.4.9h-5.4zm-.8-7.2l-2.2.4c-.7.1-1.3.4-1.6.7s-.5.7-.5 1.2.1.9.4 1.2.7.5 1.2.5c.7 0 1.4-.3 1.9-.9.5-.6.8-1.4.8-2.5v-.6zM221 243.9h4.8l.4 3c.5-1 1.2-1.8 2.1-2.5.9-.7 2.1-1 3.6-1v5.5c-.4-.1-.9-.2-1.7-.2-.4 0-.9 0-1.3.1s-.8.3-1.2.5c-.4.3-.7.7-.9 1.3-.2.6-.4 1.4-.4 2.3v7.2H221v-16.2zM238.1 253.3c.2 1.3.6 2.1 1.2 2.6s1.3.8 2.1.8c.7 0 1.3-.1 1.8-.4.5-.3.9-.8 1.3-1.4l4 2.2c-.8 1.2-1.9 2.1-3.1 2.7-1.3.6-2.7.9-4.2.9-1.4 0-2.6-.2-3.7-.7-1.1-.4-2-1-2.7-1.8s-1.3-1.7-1.6-2.7c-.4-1.1-.6-2.2-.6-3.4 0-1.2.2-2.4.6-3.5s.9-2 1.6-2.8c.7-.8 1.6-1.4 2.6-1.8 1-.4 2.2-.7 3.5-.7 1.3 0 2.4.2 3.4.6 1 .4 1.8 1 2.5 1.8s1.2 1.7 1.5 2.8c.4 1.1.5 2.3.5 3.7v1h-10.7zm2.7-6c-1.5 0-2.4 1-2.7 2.9h5.2c0-.8-.2-1.5-.6-2.1-.4-.5-1-.8-1.9-.8z"/></g><g><path class="copy_purpleFill" d="M55.9 289.8c.3.2.6.5.9.7.4.2.7.5 1.2.7.4.2.9.3 1.4.5.5.1.9.2 1.4.2.4 0 .8-.1 1.2-.2.4-.1.6-.4.6-.8s-.2-.7-.6-.9-1-.4-1.6-.6c-.6-.2-1.3-.4-2.1-.6-.7-.2-1.4-.5-2.1-.9-.6-.4-1.2-.9-1.6-1.5-.4-.6-.6-1.5-.6-2.5 0-.9.2-1.7.6-2.4.4-.7.9-1.2 1.5-1.7.6-.4 1.4-.8 2.2-1 .8-.2 1.7-.3 2.6-.3 1.5 0 2.8.2 3.9.5s2.1.8 3 1.4l-2.5 3.6c-.2-.2-.5-.4-.8-.6-.3-.2-.7-.4-1.1-.5-.4-.2-.9-.3-1.3-.4-.5-.1-.9-.1-1.3-.1s-.7.1-.9.2c-.2.1-.4.3-.4.7 0 .4.2.7.6.9.4.2 1 .4 1.6.6.6.2 1.3.4 2 .7.7.2 1.4.5 2 .9.6.4 1.2.9 1.6 1.5.4.6.6 1.4.6 2.3 0 .9-.2 1.8-.6 2.5-.4.7-1 1.3-1.6 1.7-.7.5-1.4.8-2.3 1-.8.2-1.7.3-2.5.3-3.1 0-5.6-.8-7.6-2.3l2.6-3.6zM79.9 295.2c-.1-.2-.2-.5-.3-.9-.1-.4-.1-.7-.2-1-.3.6-.8 1.2-1.5 1.7s-1.7.8-2.9.8c-.9 0-1.6-.1-2.3-.4-.7-.3-1.2-.6-1.7-1.1-.5-.5-.8-1-1-1.7-.2-.6-.4-1.3-.4-2.1s.1-1.6.4-2.2.7-1.1 1.2-1.6c.5-.4 1.2-.8 2-1 .8-.3 1.6-.5 2.6-.6l3.3-.5v-.4c0-.7-.2-1.1-.5-1.4s-.8-.4-1.5-.4c-1 0-1.9.2-2.6.5s-1.3.8-1.9 1.3l-2.5-3.6c.3-.3.8-.6 1.3-.8.5-.3 1.1-.5 1.7-.8.6-.2 1.4-.4 2.1-.5.8-.1 1.7-.2 2.6-.2 2.4 0 4.1.5 5.2 1.5 1 1 1.6 2.6 1.6 4.7v7.5c0 .4 0 .8.1 1.2.1.4.1.7.2 1 .1.3.2.6.4.9h-5.4zM79 288l-2.2.4c-.7.1-1.3.4-1.6.7s-.5.7-.5 1.2.1.9.4 1.2c.3.3.7.5 1.2.5.7 0 1.4-.3 1.9-.9.5-.6.8-1.4.8-2.5v-.6zM85.6 278.9h6l2.6 11.3 2.6-11.3h5.8l-5.4 16.3h-6.3l-5.3-16.3zM104.2 272.4h5.4v4.3h-5.4v-4.3zm0 6.5h5.4v16.3h-5.4v-16.3zM112.7 278.9h4.8l.4 2.3c.5-.8 1.2-1.4 2.1-2s1.9-.8 3-.8c3.6 0 5.4 2.3 5.4 6.8v9.9H123v-8.6c0-1.3-.2-2.2-.6-2.7-.4-.5-1-.8-1.8-.8-.4 0-.7.1-1.1.2-.3.1-.6.4-.8.7-.2.3-.4.8-.5 1.3-.1.6-.2 1.3-.2 2.1v7.7h-5.4v-16.1zM133.4 295.1c.6.6 1.4 1.1 2.3 1.5.9.4 1.9.5 2.8.5 1 0 1.7-.2 2.1-.7.4-.4.6-1.1.6-2v-1.5c-.4.6-.9 1-1.6 1.4-.7.4-1.6.6-2.7.6-.8 0-1.5-.1-2.3-.4s-1.4-.7-2-1.3c-.6-.6-1.1-1.5-1.4-2.5-.4-1-.5-2.3-.5-3.8 0-1.4.2-2.6.5-3.6s.8-1.9 1.3-2.7c.6-.7 1.3-1.3 2.1-1.6.8-.4 1.7-.6 2.6-.6 1 0 1.9.2 2.6.6.7.4 1.4 1.1 1.8 2l.7-2.2h4.3v15.4c0 1-.1 1.9-.4 2.8-.3.8-.8 1.6-1.4 2.2-.6.6-1.5 1.1-2.5 1.4-1 .3-2.2.5-3.7.5-1 0-1.8-.1-2.7-.2s-1.6-.3-2.2-.5c-.7-.2-1.3-.5-1.8-.8-.5-.3-1-.5-1.4-.8l2.9-3.7zm7.8-8.2c0-.5 0-1-.1-1.5s-.2-.9-.4-1.3-.4-.7-.8-.9c-.3-.2-.7-.4-1.2-.4-.3 0-.7.1-1 .2-.3.1-.6.4-.8.7-.2.3-.4.7-.5 1.2-.1.5-.2 1.1-.2 1.9 0 1.4.2 2.4.7 3 .5.6 1.1 1 1.9 1 .8 0 1.4-.3 1.8-1 .4-.6.6-1.6.6-2.8v-.1zM156.9 278.9h5.4v9c0 1 .2 1.8.5 2.3.3.5.9.8 1.7.8.9 0 1.5-.3 2-1s.7-1.7.7-3.2v-7.9h5.4v16.3h-5.1v-2.4c-.4.9-1 1.5-1.7 2s-1.8.8-3.1.8c-1.9 0-3.4-.6-4.3-1.7s-1.4-2.7-1.4-4.8v-10.2zM175.6 278.9h5.4v2.1c.4-.7.9-1.4 1.6-1.9.7-.5 1.6-.8 2.8-.8 1.8 0 3.3.7 4.4 2.1 1.1 1.4 1.7 3.5 1.7 6.4 0 1.7-.2 3.1-.6 4.2-.4 1.1-.9 2-1.5 2.7-.6.7-1.3 1.1-2.1 1.4s-1.5.4-2.2.4c-.8 0-1.6-.1-2.4-.4-.8-.3-1.3-.8-1.7-1.4v7h-5.4v-21.8zm5.4 8.3c0 .6 0 1.1.1 1.6s.3.9.5 1.3.5.7.8.9c.3.2.7.3 1.1.3.7 0 1.3-.3 1.8-1 .4-.7.6-1.7.6-3.2 0-1.4-.2-2.5-.7-3.2s-1.1-1.1-1.9-1.1c-.4 0-.8.1-1.1.3-.3.2-.5.5-.7.9-.2.4-.3.8-.4 1.3-.1.5-.1 1-.1 1.5v.4zM202.3 282.3h-2.6v-3.5h.4c.8 0 1.5-.1 2-.4.5-.3.9-.6 1.1-1.1.3-.5.5-1 .6-1.6.1-.6.3-1.2.4-1.7h3.4v4.8h3.4v3.5h-3.4v7.6c0 .5.1.9.3 1.2.2.3.6.5 1.2.5h.6c.3 0 .5-.1.9-.3l.4 3.8c-.6.2-1.2.4-1.8.5-.6.1-1.2.1-1.8.1-1 0-1.8-.1-2.5-.4-.7-.3-1.2-.6-1.6-1.1-.4-.4-.7-1-.8-1.6-.2-.6-.2-1.3-.2-2.1v-8.2zM220.3 295.7c-1.4 0-2.6-.2-3.6-.7s-1.9-1-2.6-1.8-1.2-1.7-1.5-2.7c-.3-1-.5-2.2-.5-3.4 0-1.2.2-2.4.5-3.4.4-1.1.9-2 1.6-2.8.7-.8 1.6-1.4 2.6-1.8 1-.4 2.2-.7 3.6-.7 1.3 0 2.5.2 3.6.7 1 .4 1.9 1 2.6 1.8.7.8 1.2 1.7 1.6 2.8s.5 2.2.5 3.5c0 1.2-.2 2.4-.5 3.4-.4 1-.9 2-1.6 2.7-.7.8-1.5 1.4-2.6 1.8-1.2.4-2.4.6-3.7.6zm.1-4.1c.9 0 1.5-.4 1.9-1.2.4-.8.6-1.9.6-3.3s-.2-2.5-.7-3.3c-.4-.8-1.1-1.2-2-1.2-.9 0-1.6.4-2 1.2s-.6 1.9-.6 3.3.2 2.5.7 3.3c.4.8 1.1 1.2 2.1 1.2z"/></g><g><path class="copy_purpleFill" d="M58 318.7c-.5-.1-.9-.4-1.4-.6-.4-.3-.8-.6-1.2-1-.3-.4-.6-.8-.8-1.3-.2-.5-.3-1-.3-1.5 0-1 .2-1.9.7-2.7.4-.8 1-1.4 1.7-1.9s1.6-.9 2.5-1.1c.9-.2 1.9-.4 2.8-.4.9 0 1.8.1 2.7.4s1.7.6 2.5 1.1c.7.5 1.3 1.1 1.8 1.9.5.7.7 1.6.7 2.7s-.4 2.1-1.1 2.8c-.7.8-1.6 1.3-2.6 1.6 1.3.2 2.4.8 3.2 1.6s1.2 2 1.2 3.4c0 1.3-.2 2.3-.7 3.2-.5.9-1.1 1.6-1.9 2.1-.8.6-1.7 1-2.7 1.2-1 .3-2 .4-3 .4s-2-.1-3.1-.4c-1-.3-1.9-.7-2.7-1.2-.8-.6-1.4-1.3-1.9-2.2-.5-.9-.7-1.9-.7-3.2 0-1.4.4-2.5 1.1-3.4.7-.7 1.8-1.3 3.2-1.5zm4 7.7c.8 0 1.5-.3 2-.8s.8-1.3.8-2.2c0-.9-.3-1.6-.8-2.2-.5-.6-1.2-.8-2-.8-1 0-1.7.3-2.2.8s-.7 1.3-.7 2.2c0 .8.3 1.5.8 2.1.5.6 1.2.9 2.1.9zm-2.3-11.8c0 .7.2 1.4.7 1.9.4.5 1 .8 1.7.8s1.2-.3 1.7-.8c.4-.5.7-1.2.7-1.9s-.2-1.4-.7-1.9c-.4-.5-1-.8-1.7-.8s-1.3.3-1.7.8c-.5.5-.7 1.2-.7 1.9zM83.2 314.4c-.2-.7-.6-1.2-1.1-1.6-.5-.4-1-.5-1.6-.5-.4 0-.7.1-1.1.2-.4.1-.7.4-1.1.8-.3.4-.6.9-.8 1.6-.2.7-.3 1.6-.3 2.7v.5c.4-.5.9-1 1.7-1.5.8-.5 1.8-.7 3-.7 1 0 2 .2 2.8.5.8.3 1.5.8 2.1 1.4.6.6 1 1.3 1.3 2.2.3.9.5 1.9.5 2.9s-.2 2-.5 2.9c-.3.9-.8 1.7-1.5 2.5-.7.7-1.5 1.3-2.5 1.7-1 .4-2.2.6-3.5.6-1.2 0-2.3-.2-3.4-.6-1.1-.4-2-1.1-2.8-1.9-.8-.9-1.5-1.9-2-3.2-.5-1.3-.7-2.8-.7-4.6 0-2.3.3-4.2.8-5.7s1.2-2.8 2.1-3.7c.9-.9 1.8-1.6 2.8-2 1-.4 2-.6 3-.6s1.8.1 2.6.3c.8.2 1.5.5 2.1.9.6.4 1.1.8 1.6 1.3.4.5.8 1 1 1.6l-4.5 2zm-2.9 12.4c.8 0 1.4-.3 1.8-1 .4-.7.6-1.5.6-2.4 0-1-.2-1.9-.6-2.6-.4-.7-1-1-1.8-1s-1.4.3-1.8 1c-.4.7-.6 1.6-.6 2.6 0 1.1.2 2 .7 2.5.5.6 1 .9 1.7.9zM96.3 320.8c-1 0-1.9-.2-2.7-.5-.8-.4-1.4-.9-2-1.5-.5-.6-.9-1.4-1.2-2.3-.3-.9-.4-1.8-.4-2.8 0-.9.1-1.8.4-2.6.3-.8.7-1.5 1.2-2.2.5-.6 1.2-1.1 2-1.5.8-.4 1.7-.5 2.7-.5 1.1 0 2.1.2 2.8.5.8.4 1.4.8 2 1.5.5.6.9 1.3 1.1 2.2.2.8.4 1.7.4 2.6 0 1-.1 1.9-.4 2.7-.2.9-.6 1.6-1.1 2.3-.5.6-1.2 1.2-2 1.5-.8.4-1.7.6-2.8.6zm0-3.4c.3 0 .5-.1.7-.4.2-.2.3-.5.4-.9.1-.4.2-.8.2-1.2 0-.4.1-.8.1-1.2v-1.2c0-.4-.1-.8-.2-1.1-.1-.3-.3-.6-.4-.8-.2-.2-.4-.3-.8-.3-.3 0-.6.1-.8.3-.2.2-.3.5-.4.8-.1.3-.2.7-.2 1.1v2.5c0 .4.1.8.2 1.2.1.4.3.6.4.9.2.2.5.3.8.3zm12.2-10.7l2.9 1.3-11.2 22.7-2.9-1.2 11.2-22.8zm3.9 23.8c-1 0-1.9-.2-2.7-.5-.8-.4-1.4-.9-2-1.5-.5-.6-.9-1.4-1.2-2.3-.3-.9-.4-1.8-.4-2.8 0-.9.1-1.8.4-2.6.3-.8.7-1.5 1.2-2.2s1.2-1.1 2-1.5c.8-.4 1.7-.5 2.7-.5 1.1 0 2.1.2 2.8.5.8.4 1.4.8 2 1.5.5.6.9 1.3 1.1 2.2.2.8.4 1.7.4 2.6 0 1-.1 1.9-.4 2.7-.2.9-.6 1.6-1.1 2.3-.5.6-1.2 1.2-2 1.5-.8.4-1.7.6-2.8.6zm0-3.4c.3 0 .5-.1.7-.4.2-.2.3-.5.4-.9.1-.4.2-.8.2-1.2 0-.4.1-.8.1-1.2v-1.2c0-.4-.1-.8-.2-1.1-.1-.3-.3-.6-.4-.8s-.4-.3-.8-.3-.6.1-.8.3-.3.5-.4.8c-.1.3-.2.7-.2 1.1v2.5c0 .4.1.8.2 1.2.1.4.3.6.4.9.2.2.5.3.8.3zM128.1 313.9h4.8l.4 2.3c.5-.9 1.1-1.6 1.8-2 .7-.5 1.7-.7 2.8-.7 1.3 0 2.3.3 3.1.9.7.6 1.2 1.3 1.6 2 .2-.3.4-.7.7-1 .3-.4.6-.7 1-.9.4-.3.9-.5 1.5-.7.6-.2 1.2-.3 2-.3 1.2 0 2.1.2 2.8.6.7.4 1.2.9 1.6 1.5s.6 1.3.8 2.2.2 1.6.2 2.5v10h-5.4v-8.5c0-1.2-.2-2.1-.5-2.7-.3-.6-.9-.9-1.7-.9-.3 0-.5 0-.8.1-.3.1-.5.3-.8.5s-.4.7-.5 1.2c-.1.5-.2 1.2-.2 2v8.2h-5.4v-8.6c0-1.2-.2-2-.5-2.6-.3-.6-.9-.8-1.6-.8-.3 0-.5 0-.8.1-.3.1-.5.3-.8.6s-.4.7-.6 1.3c-.1.6-.2 1.3-.2 2.3v7.8H128v-16.4zM163.6 330.7c-1.4 0-2.6-.2-3.6-.7-1-.4-1.9-1-2.6-1.8-.7-.8-1.2-1.7-1.5-2.7-.3-1-.5-2.2-.5-3.4s.2-2.4.5-3.4.9-2 1.6-2.8c.7-.8 1.6-1.4 2.6-1.8 1-.4 2.2-.7 3.6-.7 1.3 0 2.5.2 3.6.7 1 .4 1.9 1 2.6 1.8.7.8 1.2 1.7 1.6 2.8s.5 2.2.5 3.5-.2 2.4-.5 3.4-.9 2-1.6 2.7c-.7.8-1.5 1.4-2.6 1.8-1.1.4-2.3.6-3.7.6zm.1-4.1c.9 0 1.5-.4 1.9-1.2s.6-1.9.6-3.3-.2-2.5-.7-3.3c-.4-.8-1.1-1.2-2-1.2-.9 0-1.6.4-2 1.2s-.6 1.9-.6 3.3.2 2.5.7 3.3 1.2 1.2 2.1 1.2zM174.2 313.9h4.8l.4 3c.5-1 1.2-1.8 2.1-2.5.9-.7 2.1-1 3.6-1v5.5c-.4-.1-.9-.2-1.7-.2-.4 0-.9 0-1.3.1s-.8.3-1.2.5c-.4.3-.7.7-.9 1.3-.2.6-.4 1.4-.4 2.3v7.2h-5.4v-16.2zM191.4 323.3c.2 1.3.6 2.1 1.2 2.6s1.3.8 2.1.8c.7 0 1.3-.1 1.8-.4.5-.3.9-.8 1.3-1.4l4 2.2c-.8 1.2-1.9 2.1-3.1 2.7-1.3.6-2.7.9-4.2.9-1.4 0-2.6-.2-3.7-.7-1.1-.4-2-1-2.7-1.8-.7-.8-1.3-1.7-1.6-2.7-.4-1.1-.6-2.2-.6-3.4 0-1.2.2-2.4.6-3.5s.9-2 1.6-2.8c.7-.8 1.6-1.4 2.6-1.8 1-.4 2.2-.7 3.5-.7 1.3 0 2.4.2 3.4.6 1 .4 1.8 1 2.5 1.8s1.2 1.7 1.5 2.8c.4 1.1.5 2.3.5 3.7v1h-10.7zm2.6-6c-1.5 0-2.4 1-2.7 2.9h5.2c0-.8-.2-1.5-.6-2.1-.3-.5-1-.8-1.9-.8zM204.2 324.2h5.9v5.9h-5.9v-5.9z"/></g><g><path class="copy-grayFill" d="M54.1 350.8h4.5c2.2 0 3.9.5 5.1 1.6s1.7 2.7 1.7 5c0 2.2-.6 3.8-1.7 4.9-1.2 1.1-2.8 1.6-4.9 1.6h-4.6v-13.1zm4.5 11c.8 0 1.4-.1 1.9-.4.5-.2.9-.6 1.2-1 .3-.4.5-.9.6-1.4.1-.5.2-1.1.2-1.7 0-.6-.1-1.2-.2-1.7s-.3-1-.6-1.4c-.3-.4-.7-.7-1.2-1-.5-.2-1.2-.4-1.9-.4h-1.8v8.9h1.8zM71.1 364.1c-.8 0-1.4-.1-2-.4s-1-.6-1.4-1-.7-1-.8-1.6c-.2-.6-.3-1.2-.3-1.9s.1-1.4.3-1.9c.2-.6.5-1.1.9-1.6.4-.4.9-.8 1.4-1 .6-.3 1.2-.4 1.9-.4s1.4.1 2 .4 1 .6 1.4 1c.4.4.7 1 .9 1.6.2.6.3 1.2.3 1.9s-.1 1.4-.3 1.9c-.2.6-.5 1.1-.9 1.6-.4.4-.9.8-1.4 1s-1.3.4-2 .4zm0-1.9c.6 0 1.1-.3 1.4-.8.3-.6.5-1.3.5-2.2 0-.9-.2-1.6-.5-2.2s-.8-.8-1.4-.8c-.7 0-1.1.3-1.4.8s-.5 1.3-.5 2.2c0 .9.2 1.6.5 2.2.2.5.7.8 1.4.8zM76.2 354.5h2.7l1.6 6.9 1.4-6.9h2.7l1.4 6.9 1.6-6.9h2.7l-2.9 9.3h-2.7l-1.4-5.8-1.4 5.8h-2.7l-3-9.3zM91.5 354.5h2.2l.2 1.5c.3-.5.6-.9 1.2-1.2.5-.4 1.1-.5 1.8-.5 1 0 1.8.3 2.2 1 .5.6.7 1.6.7 2.8v5.8h-2.5v-5.2c0-.8-.1-1.3-.4-1.7-.3-.3-.6-.5-1.1-.5-.5 0-1 .2-1.3.6-.3.4-.5 1.1-.5 2.1v4.6h-2.5v-9.3zM101.9 350.8h2.5v13h-2.5v-13zM110.5 364.1c-.8 0-1.4-.1-2-.4s-1-.6-1.4-1-.7-1-.8-1.6c-.2-.6-.3-1.2-.3-1.9s.1-1.4.3-1.9c.2-.6.5-1.1.9-1.6.4-.4.9-.8 1.4-1 .6-.3 1.2-.4 1.9-.4s1.4.1 2 .4 1 .6 1.4 1c.4.4.7 1 .9 1.6.2.6.3 1.2.3 1.9s-.1 1.4-.3 1.9c-.2.6-.5 1.1-.9 1.6-.4.4-.9.8-1.4 1s-1.3.4-2 .4zm0-1.9c.6 0 1.1-.3 1.4-.8.3-.6.5-1.3.5-2.2 0-.9-.2-1.6-.5-2.2s-.8-.8-1.4-.8c-.7 0-1.1.3-1.4.8s-.5 1.3-.5 2.2c0 .9.2 1.6.5 2.2.3.5.8.8 1.4.8zM122.1 363.8c-.1-.2-.1-.4-.2-.6 0-.2-.1-.5-.1-.7-.2.5-.5.8-1 1.1-.4.3-1 .5-1.7.5-1 0-1.7-.3-2.2-.8-.5-.6-.8-1.3-.8-2.1 0-.5.1-.9.3-1.2.2-.3.4-.6.7-.9.3-.2.7-.4 1.1-.6.4-.1.9-.2 1.4-.3l2.1-.3v-.4c0-.5-.1-.9-.4-1.1-.3-.2-.6-.3-1-.3-.6 0-1.2.1-1.6.4s-.8.5-1.1.8l-1.2-1.7c.4-.4.9-.7 1.6-1 .7-.3 1.6-.4 2.6-.4 1.3 0 2.2.3 2.8.8.6.6.9 1.4.9 2.6V362.7c0 .2.1.4.1.5 0 .2.1.4.2.5h-2.5zm-.4-4.3l-1.6.3c-.6.1-1 .3-1.2.5-.2.2-.4.5-.4.8s.1.7.3.9c.2.2.5.4.9.4.5 0 1-.2 1.4-.6.4-.4.6-1 .6-1.7v-.6zM132.1 362.3c-.2.5-.6 1-1 1.3-.4.3-1 .4-1.6.4-.6 0-1.1-.1-1.5-.3-.5-.2-.9-.5-1.2-1s-.6-.9-.7-1.5c-.2-.6-.3-1.3-.3-2.1s.1-1.6.3-2.2c.2-.6.5-1.1.8-1.5.3-.4.7-.7 1.2-.9s.9-.3 1.4-.3c.7 0 1.2.1 1.6.4s.7.6.9 1v-4.9h2.5v13h-2.4v-1.4zm-.1-3.4c0-.3 0-.6-.1-.9-.1-.3-.2-.6-.3-.8-.1-.2-.3-.4-.6-.6-.2-.1-.5-.2-.8-.2-.6 0-1.1.3-1.4.8s-.4 1.2-.4 2c0 .9.2 1.6.5 2.1s.8.8 1.3.8c.3 0 .6-.1.8-.2.2-.1.4-.3.5-.6.1-.3.2-.5.3-.9.1-.3.1-.7.1-1.1v-.4zM141.4 356.2h-1.5v-1.6h.3c.4 0 .8-.1 1-.2.3-.1.5-.3.6-.6.1-.2.3-.5.3-.8.1-.3.1-.7.2-1.1h1.6v2.7h2v1.6h-2v4.9c0 .4.1.7.2.8.1.2.4.3.8.3h.4c.1 0 .3-.1.5-.1l.2 1.8-.9.3c-.3 0-.6.1-1 .1-.5 0-1-.1-1.3-.2-.3-.1-.6-.3-.8-.6-.2-.2-.3-.5-.4-.9-.1-.3-.1-.7-.1-1.1v-5.3zM147.3 350.8h2.5v5.2c.2-.5.6-.9 1.1-1.2.5-.3 1.1-.5 1.8-.5 1 0 1.8.3 2.3 1 .5.7.7 1.6.7 2.8v5.7h-2.5v-5.3c0-.7-.1-1.2-.4-1.5-.3-.4-.6-.5-1.2-.5-.5 0-1 .2-1.3.7-.3.4-.5 1.1-.5 2v4.7h-2.5v-13.1zM159.8 359.8c.1.9.3 1.5.7 1.9.4.4.9.6 1.5.6.9 0 1.6-.4 2-1.2l1.9 1.1c-.4.7-1 1.2-1.7 1.5-.7.4-1.5.5-2.3.5-.8 0-1.4-.1-2-.4s-1.1-.6-1.5-1c-.4-.4-.7-1-.9-1.6s-.3-1.2-.3-1.9.1-1.4.3-2c.2-.6.5-1.1.9-1.6s.9-.8 1.4-1c.6-.3 1.2-.4 1.9-.4s1.3.1 1.9.4c.5.2 1 .6 1.4 1 .4.4.6 1 .8 1.6s.3 1.3.3 2V359.9h-6.3zm1.9-3.7c-.6 0-1 .2-1.3.6-.3.4-.5.9-.6 1.6h3.8c0-.3 0-.6-.1-.8-.1-.3-.2-.5-.3-.7s-.3-.4-.6-.5-.6-.2-.9-.2zM180 361.8c-.4.8-1 1.3-1.7 1.7-.7.4-1.5.6-2.4.6-.8 0-1.5-.1-2.1-.4s-1-.6-1.4-1-.6-1-.8-1.6c-.2-.6-.3-1.2-.3-1.9s.1-1.4.3-2 .5-1.1.9-1.6c.4-.4.9-.8 1.4-1s1.2-.4 1.9-.4c.9 0 1.7.2 2.4.6.6.4 1.2 1 1.6 1.7l-2.1 1c-.2-.5-.5-.9-.8-1.1-.3-.2-.7-.3-1.1-.3-.4 0-.7.1-.9.2-.3.1-.5.4-.6.6-.2.3-.3.6-.4.9-.1.4-.1.7-.1 1.1 0 .4 0 .7.1 1.1s.2.7.4 1c.2.3.4.5.7.7.3.2.6.3 1.1.3.5 0 .9-.1 1.2-.4.3-.3.6-.6.7-1.1l2 1.3zM186.8 363.8c-.1-.2-.1-.4-.2-.6s-.1-.5-.1-.7c-.2.5-.5.8-1 1.1-.4.3-1 .5-1.7.5-1 0-1.7-.3-2.2-.8-.5-.6-.8-1.3-.8-2.1 0-.5.1-.9.3-1.2.2-.3.4-.6.7-.9.3-.2.7-.4 1.1-.6.4-.1.9-.2 1.4-.3l2-.3v-.4c0-.5-.1-.9-.4-1.1-.3-.2-.6-.3-1-.3-.6 0-1.2.1-1.6.4-.4.2-.8.5-1.1.8l-1.2-1.7c.4-.4.9-.7 1.6-1 .7-.3 1.6-.4 2.6-.4 1.3 0 2.2.3 2.8.8.6.6.8 1.4.8 2.6V362.7c0 .2.1.4.1.5 0 .2.1.4.2.5h-2.3zm-.4-4.3l-1.6.3c-.6.1-1 .3-1.2.5-.2.2-.4.5-.4.8s.1.7.3.9.5.4.9.4c.5 0 1-.2 1.4-.6.4-.4.6-1 .6-1.7v-.6zM191.6 361c.1.2.3.3.5.5s.4.3.7.4c.2.1.5.2.8.3.3.1.5.1.8.1.3 0 .6-.1.9-.2.3-.1.4-.4.4-.7 0-.3-.1-.5-.4-.7s-.6-.3-.9-.4c-.4-.1-.8-.2-1.2-.4-.4-.1-.8-.3-1.2-.5-.4-.2-.7-.5-.9-.8-.2-.3-.4-.8-.4-1.4 0-.5.1-.9.3-1.3.2-.4.5-.7.8-.9s.7-.4 1.2-.5c.4-.1.9-.2 1.4-.2.8 0 1.5.1 2.1.3.6.2 1.1.5 1.6.8l-1.2 1.7c-.1-.1-.3-.2-.5-.4l-.6-.3c-.2-.1-.5-.2-.7-.2s-.5-.1-.8-.1c-.3 0-.5.1-.7.2-.2.1-.3.3-.3.6s.1.5.4.6.6.3.9.4c.4.1.8.3 1.2.4.4.1.8.3 1.2.5.4.2.7.5.9.8.2.4.4.8.4 1.3s-.1 1-.3 1.3-.5.7-.9 1-.8.5-1.2.6c-.5.1-.9.2-1.4.2-1.7 0-3-.5-4.1-1.4l1.2-1.6zM201.9 359.8c.1.9.3 1.5.7 1.9.4.4.9.6 1.5.6.9 0 1.6-.4 2-1.2l1.9 1.1c-.4.7-1 1.2-1.7 1.5-.7.4-1.5.5-2.3.5-.8 0-1.4-.1-2-.4s-1.1-.6-1.5-1c-.4-.4-.7-1-.9-1.6s-.3-1.2-.3-1.9.1-1.4.3-2c.2-.6.5-1.1.9-1.6s.9-.8 1.4-1c.6-.3 1.2-.4 1.9-.4s1.3.1 1.9.4c.5.2 1 .6 1.4 1 .4.4.6 1 .8 1.6s.3 1.3.3 2V359.9h-6.3zm1.9-3.7c-.6 0-1 .2-1.3.6-.3.4-.5.9-.6 1.6h3.8c0-.3 0-.6-.1-.8-.1-.3-.2-.5-.3-.7s-.3-.4-.6-.5-.5-.2-.9-.2zM214.6 361c.1.2.3.3.5.5s.4.3.7.4c.2.1.5.2.8.3.3.1.5.1.8.1.3 0 .6-.1.9-.2.3-.1.4-.4.4-.7 0-.3-.1-.5-.4-.7s-.6-.3-.9-.4c-.4-.1-.8-.2-1.2-.4-.4-.1-.8-.3-1.2-.5-.4-.2-.7-.5-.9-.8-.2-.3-.4-.8-.4-1.4 0-.5.1-.9.3-1.3.2-.4.5-.7.8-.9s.7-.4 1.2-.5c.4-.1.9-.2 1.4-.2.8 0 1.5.1 2.1.3.6.2 1.1.5 1.6.8l-1.2 1.7c-.1-.1-.3-.2-.5-.4l-.6-.3c-.2-.1-.5-.2-.7-.2s-.5-.1-.8-.1c-.3 0-.5.1-.7.2-.2.1-.3.3-.3.6s.1.5.4.6.6.3.9.4c.4.1.8.3 1.2.4.4.1.8.3 1.2.5.4.2.7.5.9.8.2.4.4.8.4 1.3s-.1 1-.3 1.3-.5.7-.9 1-.8.5-1.2.6c-.5.1-.9.2-1.4.2-1.7 0-3-.5-4.1-1.4l1.2-1.6zM223.4 356.2h-1.5v-1.6h.3c.4 0 .8-.1 1-.2.3-.1.5-.3.6-.6.1-.2.3-.5.3-.8s.1-.7.2-1.1h1.6v2.7h2v1.6h-2v4.9c0 .4.1.7.2.8.1.2.4.3.8.3h.4c.1 0 .3-.1.5-.1l.2 1.8-.9.3c-.3 0-.6.1-1 .1-.5 0-1-.1-1.3-.2-.3-.1-.6-.3-.8-.6-.2-.2-.3-.5-.4-.9s-.1-.7-.1-1.1v-5.3zM229.2 354.5h2.5v5.3c0 1.4.5 2.1 1.5 2.1.6 0 1-.2 1.4-.7s.5-1.1.5-2v-4.6h2.5v9.3h-2.4v-1.6c-.2.5-.6 1-1 1.3-.4.3-1 .5-1.8.5-1.1 0-1.9-.3-2.4-.9-.5-.6-.8-1.5-.8-2.7v-6zM245.5 362.3c-.2.5-.6 1-1 1.3-.4.3-1 .4-1.6.4-.6 0-1.1-.1-1.5-.3s-.9-.5-1.2-1c-.3-.4-.6-.9-.7-1.5-.2-.6-.3-1.3-.3-2.1s.1-1.6.3-2.2c.2-.6.5-1.1.8-1.5.3-.4.7-.7 1.2-.9s.9-.3 1.4-.3c.7 0 1.2.1 1.6.4s.7.6.9 1v-4.9h2.5v13h-2.4v-1.4zm-.2-3.4c0-.3 0-.6-.1-.9-.1-.3-.2-.6-.3-.8s-.3-.4-.6-.6c-.2-.1-.5-.2-.8-.2-.6 0-1.1.3-1.4.8s-.4 1.2-.4 2c0 .9.2 1.6.5 2.1s.8.8 1.3.8c.3 0 .6-.1.8-.2.2-.1.4-.3.5-.6.1-.3.2-.5.3-.9.1-.3.1-.7.1-1.1v-.4zM249.9 365.1c.2.1.4.1.6.2.2 0 .4.1.6.1.3 0 .6-.1.8-.3.2-.2.3-.5.5-1l-3.3-9.5h2.7l1.8 6.8 1.8-6.8h2.7l-3.1 9c-.2.6-.4 1.1-.6 1.6-.2.5-.4.9-.7 1.2-.3.3-.6.6-1 .7-.4.2-.9.2-1.6.2h-1.3c-.1 0-.3 0-.3-.1l.4-2.1zM258.5 361h2.8v2.8h-2.8V361z"/></g></svg>