<svg version="1.1" id="Layer_1" xmlns="https://www.w3.org/2000/svg" x="0" y="0" viewBox="0 0 300 600" xml:space="preserve"><style>.copy_purpleFill{fill:#662868}</style><path class="copy_purpleFill" d="M48.2 173.3h-6.4v-4.4h18.5v4.4H54v18.2h-5.8v-18.2zM67.5 192c-1.4 0-2.6-.2-3.6-.7s-1.9-1-2.6-1.8c-.7-.8-1.2-1.7-1.5-2.7-.3-1-.5-2.2-.5-3.4 0-1.2.2-2.4.5-3.4.4-1.1.9-2 1.6-2.8.7-.8 1.6-1.4 2.6-1.8 1-.4 2.2-.7 3.6-.7 1.3 0 2.5.2 3.6.7 1 .4 1.9 1 2.6 1.8.7.8 1.2 1.7 1.6 2.8s.5 2.2.5 3.5c0 1.2-.2 2.4-.5 3.4-.4 1-.9 2-1.6 2.7-.7.8-1.5 1.4-2.6 1.8-1.2.4-2.4.6-3.7.6zm.1-4.1c.9 0 1.5-.4 1.9-1.2.4-.8.6-1.9.6-3.3s-.2-2.5-.7-3.3c-.4-.8-1.1-1.2-2-1.2s-1.6.4-2 1.2c-.4.8-.6 1.9-.6 3.3s.2 2.5.7 3.3c.4.8 1.1 1.2 2.1 1.2zM88.2 189.2c-.4.8-1 1.5-1.7 1.9-.7.4-1.6.7-2.7.7-1 0-1.8-.2-2.6-.6-.8-.4-1.5-.9-2-1.6-.6-.7-1-1.6-1.3-2.7-.3-1.1-.5-2.3-.5-3.7 0-1.6.2-2.9.6-4 .4-1.1.9-1.9 1.5-2.6.6-.7 1.3-1.1 2.1-1.4.8-.3 1.5-.4 2.3-.4 1 0 1.9.2 2.6.6.7.4 1.2.9 1.5 1.5V169h5.4v22.6h-5.1v-2.4zm-.4-6.2c0-.5 0-1-.1-1.5s-.2-.9-.4-1.3-.4-.7-.8-.9c-.3-.2-.7-.3-1.2-.3-.8 0-1.4.3-1.8 1-.4.7-.6 1.7-.6 3 0 1.4.2 2.5.7 3.3s1.1 1.2 1.8 1.2c.4 0 .8-.1 1.1-.3.3-.2.5-.5.7-.9.2-.4.3-.8.4-1.4.1-.5.1-1.1.1-1.7v-.2zM106.1 191.5c-.1-.2-.2-.5-.3-.9-.1-.4-.1-.7-.2-1-.3.6-.8 1.2-1.5 1.7s-1.7.8-2.9.8c-.9 0-1.6-.1-2.3-.4-.7-.3-1.2-.6-1.7-1.1-.5-.5-.8-1-1-1.7-.2-.6-.4-1.3-.4-2.1s.1-1.6.4-2.2.7-1.1 1.2-1.6c.5-.4 1.2-.8 2-1 .8-.3 1.6-.5 2.6-.6l3.3-.5v-.4c0-.7-.2-1.1-.5-1.4s-.8-.4-1.5-.4c-1 0-1.9.2-2.6.5s-1.3.8-1.9 1.3l-2.5-3.6c.3-.3.8-.6 1.3-.8.5-.3 1.1-.5 1.7-.8.6-.2 1.4-.4 2.1-.5.8-.1 1.7-.2 2.6-.2 2.4 0 4.1.5 5.2 1.5 1 1 1.6 2.6 1.6 4.7v7.5c0 .4 0 .8.1 1.2.1.4.1.7.2 1 .1.3.2.6.4.9h-5.4zm-.9-7.2l-2.2.4c-.7.1-1.3.4-1.6.7s-.5.7-.5 1.2.1.9.4 1.2c.3.3.7.5 1.2.5.7 0 1.4-.3 1.9-.9.5-.6.8-1.4.8-2.5v-.6zM114 193.1l1.2.3c.4.1.8.1 1.1.1.5 0 .9-.1 1.1-.3.3-.2.5-.6.6-1.1l-5.9-16.9h5.8l2.8 11 2.8-11h5.8l-5.7 16.2c-.3.9-.6 1.7-1 2.5-.3.7-.7 1.4-1.2 1.9s-1.2 1-2 1.3c-.8.3-1.8.5-3 .5h-1.6c-.3 0-.6 0-.9-.1-.3 0-.5-.1-.7-.1l.8-4.3zM131.4 178.8c.6-.3 1-.5 1.4-.8.4-.3.6-.5.8-.8.2-.3.3-.6.4-1 .1-.3.1-.7.1-1.1v-.5h-2.7v-5.7h5.9v5.6c0 1-.1 1.9-.3 2.6s-.5 1.3-.9 1.9c-.4.5-.9 1-1.5 1.4-.6.4-1.3.7-2.1 1l-1.1-2.6zM141 186.1c.3.2.6.5.9.7.4.2.7.5 1.2.7.4.2.9.3 1.4.5.5.1.9.2 1.4.2.4 0 .8-.1 1.2-.2.4-.1.6-.4.6-.8s-.2-.7-.6-.9-1-.4-1.6-.6c-.6-.2-1.3-.4-2.1-.6-.7-.2-1.4-.5-2.1-.9-.6-.4-1.2-.9-1.6-1.5-.4-.6-.6-1.5-.6-2.5 0-.9.2-1.7.6-2.4.4-.7.9-1.2 1.5-1.7.6-.4 1.4-.8 2.2-1 .8-.2 1.7-.3 2.6-.3 1.5 0 2.8.2 3.9.5s2.1.8 3 1.4l-2.5 3.6c-.2-.2-.5-.4-.8-.6-.3-.2-.7-.4-1.1-.5-.4-.2-.9-.3-1.3-.4-.5-.1-.9-.1-1.3-.1s-.7.1-.9.2c-.2.1-.4.3-.4.7 0 .4.2.7.6.9.4.2 1 .4 1.6.6.6.2 1.3.4 2 .7.7.2 1.4.5 2 .9.6.4 1.2.9 1.6 1.5.4.6.6 1.4.6 2.3 0 .9-.2 1.8-.6 2.5-.4.7-1 1.3-1.6 1.7-.7.5-1.4.8-2.3 1-.8.2-1.7.3-2.5.3-3.1 0-5.6-.8-7.6-2.3l2.6-3.6zM162.5 168.9h5.4v22.6h-5.4v-22.6zM175.7 184.6c.2 1.3.6 2.1 1.2 2.6s1.3.8 2.1.8c.7 0 1.3-.1 1.8-.4.5-.3.9-.8 1.3-1.4l4 2.2c-.8 1.2-1.9 2.1-3.1 2.7-1.3.6-2.7.9-4.2.9-1.4 0-2.6-.2-3.7-.7-1.1-.4-2-1-2.7-1.8s-1.3-1.7-1.6-2.7c-.4-1.1-.6-2.2-.6-3.4 0-1.2.2-2.4.6-3.5s.9-2 1.6-2.8c.7-.8 1.6-1.4 2.6-1.8 1-.4 2.2-.7 3.5-.7 1.3 0 2.4.2 3.4.6 1 .4 1.8 1 2.5 1.8s1.2 1.7 1.5 2.8c.4 1.1.5 2.3.5 3.7v1h-10.7zm2.7-5.9c-1.5 0-2.4 1-2.7 2.9h5.2c0-.8-.2-1.5-.6-2.1-.4-.5-1-.8-1.9-.8zM198.1 191.5c-.1-.2-.2-.5-.3-.9-.1-.4-.1-.7-.2-1-.3.6-.8 1.2-1.5 1.7s-1.7.8-2.9.8c-.9 0-1.6-.1-2.3-.4-.7-.3-1.2-.6-1.7-1.1-.5-.5-.8-1-1-1.7-.2-.6-.4-1.3-.4-2.1s.1-1.6.4-2.2.7-1.1 1.2-1.6c.5-.4 1.2-.8 2-1 .8-.3 1.6-.5 2.6-.6l3.3-.5v-.4c0-.7-.2-1.1-.5-1.4-.4-.2-.8-.4-1.5-.4-1 0-1.9.2-2.6.5s-1.3.8-1.9 1.3l-2.5-3.6c.3-.3.8-.6 1.3-.8s1.1-.5 1.7-.8c.6-.2 1.4-.4 2.1-.5.8-.1 1.7-.2 2.6-.2 2.4 0 4.1.5 5.2 1.5 1 1 1.6 2.6 1.6 4.7v7.5c0 .4 0 .8.1 1.2.1.4.1.7.2 1 .1.3.2.6.4.9h-5.4zm-.8-7.2l-2.2.4c-.7.1-1.3.4-1.6.7s-.5.7-.5 1.2.1.9.4 1.2.7.5 1.2.5c.7 0 1.4-.3 1.9-.9.5-.6.8-1.4.8-2.5v-.6zM215.7 189.2c-.4.8-1 1.5-1.7 1.9-.7.4-1.6.7-2.7.7-1 0-1.8-.2-2.6-.6-.8-.4-1.5-.9-2-1.6-.6-.7-1-1.6-1.3-2.7-.3-1.1-.5-2.3-.5-3.7 0-1.6.2-2.9.6-4 .4-1.1.9-1.9 1.5-2.6.6-.7 1.3-1.1 2.1-1.4.8-.3 1.5-.4 2.3-.4 1 0 1.9.2 2.6.6.7.4 1.2.9 1.5 1.5V169h5.4v22.6h-5.1v-2.4zm-.3-6.2c0-.5 0-1-.1-1.5s-.2-.9-.4-1.3-.4-.7-.8-.9c-.3-.2-.7-.3-1.2-.3-.8 0-1.4.3-1.8 1-.4.7-.6 1.7-.6 3 0 1.4.2 2.5.7 3.3.5.8 1.1 1.2 1.8 1.2.4 0 .8-.1 1.1-.3.3-.2.5-.5.7-.9.2-.4.3-.8.4-1.4.1-.5.1-1.1.1-1.7v-.2zM223.9 168.7h5.4v4.3h-5.4v-4.3zm0 6.5h5.4v16.3h-5.4v-16.3zM232.4 175.2h4.8l.4 2.3c.5-.8 1.2-1.4 2.1-2 .9-.5 1.9-.8 3-.8 3.6 0 5.4 2.3 5.4 6.8v9.9h-5.4v-8.6c0-1.3-.2-2.2-.6-2.7s-1-.8-1.8-.8c-.4 0-.7.1-1.1.2-.3.1-.6.4-.8.7-.2.3-.4.8-.5 1.3-.1.6-.2 1.3-.2 2.1v7.7h-5.4v-16.1zM253.2 191.4c.6.6 1.4 1.1 2.3 1.5.9.4 1.9.5 2.8.5 1 0 1.7-.2 2.1-.7.4-.4.6-1.1.6-2v-1.5c-.4.6-.9 1-1.6 1.4s-1.6.6-2.7.6c-.8 0-1.5-.1-2.3-.4-.8-.3-1.4-.7-2-1.3-.6-.6-1.1-1.5-1.4-2.5-.4-1-.5-2.3-.5-3.8 0-1.4.2-2.6.5-3.6s.8-1.9 1.3-2.7c.6-.7 1.3-1.3 2.1-1.6.8-.4 1.7-.6 2.6-.6 1 0 1.9.2 2.6.6s1.4 1.1 1.8 2l.7-2.2h4.3v15.4c0 1-.1 1.9-.4 2.8s-.8 1.6-1.4 2.2c-.6.6-1.5 1.1-2.5 1.4-1 .3-2.2.5-3.7.5-1 0-1.8-.1-2.7-.2s-1.6-.3-2.2-.5-1.3-.5-1.8-.8c-.5-.3-1-.5-1.4-.8l2.9-3.7zm7.8-8.2c0-.5 0-1-.1-1.5s-.2-.9-.4-1.3-.4-.7-.8-.9c-.3-.2-.7-.4-1.2-.4-.3 0-.7.1-1 .2-.3.1-.6.4-.8.7-.2.3-.4.7-.5 1.2-.1.5-.2 1.1-.2 1.9 0 1.4.2 2.4.7 3 .5.6 1.1 1 1.9 1s1.4-.3 1.8-1c.4-.6.6-1.6.6-2.8v-.1z"/><g><path class="copy_purpleFill" d="M43.1 203.9h5.4v8.4c.4-.7 1-1.3 1.8-1.9.8-.5 1.9-.8 3.1-.8 1.9 0 3.2.6 4.1 1.8.9 1.2 1.3 2.9 1.3 5.2v9.8h-5.4v-8.8c0-1-.2-1.8-.5-2.4-.4-.6-1-.8-1.8-.8s-1.4.3-1.9.9c-.5.6-.7 1.7-.7 3.2v7.9h-5.4v-22.5zM66.6 219.6c.2 1.3.6 2.1 1.2 2.6s1.3.8 2.1.8c.7 0 1.3-.1 1.8-.4.5-.3.9-.8 1.3-1.4l4 2.2c-.8 1.2-1.9 2.1-3.1 2.7-1.3.6-2.7.9-4.2.9-1.4 0-2.6-.2-3.7-.7s-2-1-2.7-1.8-1.3-1.7-1.6-2.7c-.4-1.1-.6-2.2-.6-3.4 0-1.2.2-2.4.6-3.5s.9-2 1.6-2.8c.7-.8 1.6-1.4 2.6-1.8 1-.4 2.2-.7 3.5-.7 1.3 0 2.4.2 3.4.6 1 .4 1.8 1 2.5 1.8s1.2 1.7 1.5 2.8c.4 1.1.5 2.3.5 3.7v1H66.6zm2.6-5.9c-1.5 0-2.4 1-2.7 2.9h5.2c0-.8-.2-1.5-.6-2.1-.3-.5-1-.8-1.9-.8zM89 226.5c-.1-.2-.2-.5-.3-.9-.1-.4-.1-.7-.2-1-.3.6-.8 1.2-1.5 1.7s-1.7.8-2.9.8c-.9 0-1.6-.1-2.3-.4-.7-.3-1.2-.6-1.7-1.1-.5-.5-.8-1-1-1.7-.2-.6-.4-1.3-.4-2.1s.1-1.6.4-2.2.7-1.1 1.2-1.6c.5-.4 1.2-.8 2-1 .8-.3 1.6-.5 2.6-.6l3.3-.5v-.4c0-.7-.2-1.1-.5-1.4s-.8-.4-1.5-.4c-1 0-1.9.2-2.6.5s-1.3.8-1.9 1.3l-2.5-3.6c.3-.3.8-.6 1.3-.8.5-.3 1.1-.5 1.7-.8.6-.2 1.4-.4 2.1-.5.8-.1 1.7-.2 2.6-.2 2.4 0 4.1.5 5.2 1.5 1 1 1.6 2.6 1.6 4.7v7.5c0 .4 0 .8.1 1.2.1.4.1.7.2 1 .1.3.2.6.4.9H89zm-.8-7.2l-2.2.4c-.7.1-1.3.4-1.6.7s-.5.7-.5 1.2.1.9.4 1.2c.3.3.7.5 1.2.5.7 0 1.4-.3 1.9-.9.5-.6.8-1.4.8-2.5v-.6zM96.7 203.9h5.4v22.6h-5.4v-22.6zM106.5 213.7h-2.6v-3.5h.4c.8 0 1.5-.1 2-.4.5-.3.9-.6 1.1-1.1.3-.5.5-1 .6-1.6.1-.6.3-1.2.4-1.7h3.4v4.8h3.4v3.5h-3.4v7.6c0 .5.1.9.3 1.2.2.3.6.5 1.2.5h.6c.3 0 .5-.1.9-.3l.4 3.8c-.6.2-1.2.4-1.8.5-.6.1-1.2.1-1.8.1-1 0-1.8-.1-2.5-.4-.7-.3-1.2-.6-1.6-1.1-.4-.4-.7-1-.8-1.6-.2-.6-.2-1.3-.2-2.1v-8.2zM117.1 203.9h5.4v8.4c.4-.7 1-1.3 1.8-1.9.8-.5 1.9-.8 3.1-.8 1.9 0 3.2.6 4.1 1.8.9 1.2 1.3 2.9 1.3 5.2v9.8h-5.4v-8.8c0-1-.2-1.8-.5-2.4-.4-.6-1-.8-1.8-.8s-1.4.3-1.9.9c-.5.6-.7 1.7-.7 3.2v7.9h-5.4v-22.5zM143 210.2h5.4v2.1c.4-.7.9-1.4 1.6-1.9.7-.5 1.6-.8 2.8-.8 1.8 0 3.3.7 4.4 2.1 1.1 1.4 1.7 3.5 1.7 6.4 0 1.7-.2 3.1-.6 4.2-.4 1.1-.9 2-1.5 2.7-.6.7-1.3 1.1-2.1 1.4s-1.5.4-2.2.4c-.8 0-1.6-.1-2.4-.4-.8-.3-1.3-.8-1.7-1.4v7H143v-21.8zm5.4 8.3c0 .6 0 1.1.1 1.6s.3.9.5 1.3.5.7.8.9c.3.2.7.3 1.1.3.7 0 1.3-.3 1.8-1 .4-.7.6-1.7.6-3.2 0-1.4-.2-2.5-.7-3.2-.4-.7-1.1-1.1-1.9-1.1-.4 0-.8.1-1.1.3s-.5.5-.7.9c-.2.4-.3.8-.4 1.3-.1.5-.1 1-.1 1.5v.4zM161.3 203.9h5.4v22.6h-5.4v-22.6zM179.5 226.5c-.1-.2-.2-.5-.3-.9-.1-.4-.1-.7-.2-1-.3.6-.8 1.2-1.5 1.7s-1.7.8-2.9.8c-.9 0-1.6-.1-2.3-.4-.7-.3-1.2-.6-1.7-1.1-.5-.5-.8-1-1-1.7-.2-.6-.4-1.3-.4-2.1s.1-1.6.4-2.2.7-1.1 1.2-1.6c.5-.4 1.2-.8 2-1 .8-.3 1.6-.5 2.6-.6l3.3-.5v-.4c0-.7-.2-1.1-.5-1.4-.4-.2-.8-.4-1.5-.4-1 0-1.9.2-2.6.5s-1.3.8-1.9 1.3l-2.5-3.6c.3-.3.8-.6 1.3-.8s1.1-.5 1.7-.8c.6-.2 1.4-.4 2.1-.5.8-.1 1.7-.2 2.6-.2 2.4 0 4.1.5 5.2 1.5 1 1 1.6 2.6 1.6 4.7v7.5c0 .4 0 .8.1 1.2.1.4.1.7.2 1 .1.3.2.6.4.9h-5.4zm-.8-7.2l-2.2.4c-.7.1-1.3.4-1.6.7s-.5.7-.5 1.2.1.9.4 1.2.7.5 1.2.5c.7 0 1.4-.3 1.9-.9.5-.6.8-1.4.8-2.5v-.6zM187.2 210.2h4.8l.4 2.3c.5-.8 1.2-1.4 2.1-2 .9-.5 1.9-.8 3-.8 3.6 0 5.4 2.3 5.4 6.8v9.9h-5.4v-8.6c0-1.3-.2-2.2-.6-2.7s-1-.8-1.8-.8c-.4 0-.7.1-1.1.2-.3.1-.6.4-.8.7-.2.3-.4.8-.5 1.3-.1.6-.2 1.3-.2 2.1v7.7h-5.4v-16.1zM207.4 221.1c.3.2.6.5.9.7.4.2.7.5 1.2.7.4.2.9.3 1.4.5.5.1.9.2 1.4.2.4 0 .8-.1 1.2-.2.4-.1.6-.4.6-.8s-.2-.7-.6-.9c-.4-.2-1-.4-1.6-.6-.6-.2-1.3-.4-2.1-.6-.7-.2-1.4-.5-2.1-.9-.6-.4-1.2-.9-1.6-1.5-.4-.6-.6-1.5-.6-2.5 0-.9.2-1.7.6-2.4.4-.7.9-1.2 1.5-1.7.6-.4 1.4-.8 2.2-1 .8-.2 1.7-.3 2.6-.3 1.5 0 2.8.2 3.9.5s2.1.8 3 1.4l-2.5 3.6c-.2-.2-.5-.4-.8-.6-.3-.2-.7-.4-1.1-.5s-.9-.3-1.3-.4c-.5-.1-.9-.1-1.3-.1s-.7.1-.9.2c-.2.1-.4.3-.4.7 0 .4.2.7.6.9.4.2 1 .4 1.6.6.6.2 1.3.4 2 .7.7.2 1.4.5 2 .9.6.4 1.2.9 1.6 1.5.4.6.6 1.4.6 2.3 0 .9-.2 1.8-.6 2.5-.4.7-1 1.3-1.6 1.7-.7.5-1.4.8-2.3 1-.8.2-1.7.3-2.5.3-3.1 0-5.6-.8-7.6-2.3l2.6-3.6z"/></g><g><path class="copy_purpleFill" d="M52.8 261.5c-.1-.2-.2-.5-.3-.9-.1-.4-.1-.7-.2-1-.3.6-.8 1.2-1.5 1.7s-1.7.8-2.9.8c-.9 0-1.6-.1-2.3-.4-.7-.3-1.2-.6-1.7-1.1-.5-.5-.8-1-1-1.7-.2-.6-.4-1.3-.4-2.1s.1-1.6.4-2.2.7-1.1 1.2-1.6c.5-.4 1.2-.8 2-1 .8-.3 1.6-.5 2.6-.6l3.3-.5v-.4c0-.7-.2-1.1-.5-1.4s-.8-.4-1.5-.4c-1 0-1.9.2-2.6.5s-1.3.8-1.9 1.3l-2.5-3.6c.3-.3.8-.6 1.3-.8.5-.3 1.1-.5 1.7-.8.6-.2 1.4-.4 2.1-.5.8-.1 1.7-.2 2.6-.2 2.4 0 4.1.5 5.2 1.5 1 1 1.6 2.6 1.6 4.7v7.5c0 .4 0 .8.1 1.2.1.4.1.7.2 1 .1.3.2.6.4.9h-5.4zm-.8-7.2l-2.2.4c-.7.1-1.3.4-1.6.7s-.5.7-.5 1.2.1.9.4 1.2c.3.3.7.5 1.2.5.7 0 1.4-.3 1.9-.9.5-.6.8-1.4.8-2.5v-.6zM60.5 245.2h4.8l.4 2.3c.5-.8 1.2-1.4 2.1-2s1.9-.8 3-.8c3.6 0 5.4 2.3 5.4 6.8v9.9h-5.4v-8.6c0-1.3-.2-2.2-.6-2.7-.4-.5-1-.8-1.8-.8-.4 0-.7.1-1.1.2-.3.1-.6.4-.8.7-.2.3-.4.8-.5 1.3-.1.6-.2 1.3-.2 2.1v7.7h-5.4v-16.1zM89.3 259.2c-.4.8-1 1.5-1.7 1.9-.7.4-1.6.7-2.7.7-1 0-1.8-.2-2.6-.6-.8-.4-1.5-.9-2-1.6-.6-.7-1-1.6-1.3-2.7-.3-1.1-.5-2.3-.5-3.7 0-1.6.2-2.9.6-4 .4-1.1.9-1.9 1.5-2.6.6-.7 1.3-1.1 2.1-1.4.8-.3 1.5-.4 2.3-.4 1 0 1.9.2 2.6.6.7.4 1.2.9 1.5 1.5V239h5.4v22.6h-5.1v-2.4zm-.3-6.1c0-.5 0-1-.1-1.5s-.2-.9-.4-1.3-.4-.7-.8-.9c-.3-.2-.7-.3-1.2-.3-.8 0-1.4.3-1.8 1-.4.7-.6 1.7-.6 3 0 1.4.2 2.5.7 3.3s1.1 1.2 1.8 1.2c.4 0 .8-.1 1.1-.3.3-.2.5-.5.7-.9.2-.4.3-.8.4-1.4.1-.5.1-1.1.1-1.7v-.2zM109.6 243.3h-6.4v-4.4h18.5v4.4h-6.4v18.2h-5.8v-18.2zM123.8 238.9h9.6c1.1 0 2.2.1 3.2.4 1.1.3 2 .7 2.8 1.2s1.5 1.3 2 2.2c.5.9.8 2 .8 3.4 0 1.5-.2 2.7-.7 3.6-.5 1-1.1 1.8-1.9 2.4-.8.6-1.7 1.1-2.8 1.3-1.1.3-2.2.4-3.5.4h-3.9v7.6h-5.8v-22.5zm8.8 10.5c.5 0 1 0 1.4-.1.4-.1.8-.3 1.1-.5.3-.2.6-.6.8-1 .2-.4.3-1 .3-1.6 0-.5-.1-1-.3-1.4-.2-.4-.5-.7-.8-.9-.3-.2-.7-.4-1.2-.5-.4-.1-.9-.1-1.4-.1h-2.9v6.1h3zM149.3 238.9h5.1l8.8 22.6h-6l-1.6-4.6H148l-1.6 4.6h-5.9l8.8-22.6zm4.8 13.7l-1.2-3.3c-.4-1.1-.8-2.3-1.2-3.7-.3 1.3-.7 2.5-1.1 3.6-.4 1.1-.8 2.2-1.2 3.4h4.7zM166.5 256.1c.3.2.6.5.9.7.4.2.7.5 1.2.7.4.2.9.3 1.4.5.5.1.9.2 1.4.2.4 0 .8-.1 1.2-.2.4-.1.6-.4.6-.8s-.2-.7-.6-.9c-.4-.2-1-.4-1.6-.6-.6-.2-1.3-.4-2.1-.6-.7-.2-1.4-.5-2.1-.9-.6-.4-1.2-.9-1.6-1.5-.4-.6-.6-1.5-.6-2.5 0-.9.2-1.7.6-2.4.4-.7.9-1.2 1.5-1.7.6-.4 1.4-.8 2.2-1 .8-.2 1.7-.3 2.6-.3 1.5 0 2.8.2 3.9.5s2.1.8 3 1.4l-2.5 3.6c-.2-.2-.5-.4-.8-.6-.3-.2-.7-.4-1.1-.5s-.9-.3-1.3-.4c-.5-.1-.9-.1-1.3-.1s-.7.1-.9.2c-.2.1-.4.3-.4.7 0 .4.2.7.6.9.4.2 1 .4 1.6.6.6.2 1.3.4 2 .7.7.2 1.4.5 2 .9.6.4 1.2.9 1.6 1.5.4.6.6 1.4.6 2.3 0 .9-.2 1.8-.6 2.5-.4.7-1 1.3-1.6 1.7-.7.5-1.4.8-2.3 1-.8.2-1.7.3-2.5.3-3.1 0-5.6-.8-7.6-2.3l2.6-3.6zM197.6 261.5c-.1-.2-.2-.5-.3-.9-.1-.4-.1-.7-.2-1-.3.6-.8 1.2-1.5 1.7s-1.7.8-2.9.8c-.9 0-1.6-.1-2.3-.4-.7-.3-1.2-.6-1.7-1.1-.5-.5-.8-1-1-1.7-.2-.6-.4-1.3-.4-2.1s.1-1.6.4-2.2.7-1.1 1.2-1.6c.5-.4 1.2-.8 2-1 .8-.3 1.6-.5 2.6-.6l3.3-.5v-.4c0-.7-.2-1.1-.5-1.4-.4-.2-.8-.4-1.5-.4-1 0-1.9.2-2.6.5s-1.3.8-1.9 1.3l-2.5-3.6c.3-.3.8-.6 1.3-.8s1.1-.5 1.7-.8c.6-.2 1.4-.4 2.1-.5.8-.1 1.7-.2 2.6-.2 2.4 0 4.1.5 5.2 1.5 1 1 1.6 2.6 1.6 4.7v7.5c0 .4 0 .8.1 1.2.1.4.1.7.2 1 .1.3.2.6.4.9h-5.4zm-.8-7.2l-2.2.4c-.7.1-1.3.4-1.6.7s-.5.7-.5 1.2.1.9.4 1.2.7.5 1.2.5c.7 0 1.4-.3 1.9-.9.5-.6.8-1.4.8-2.5v-.6zM205.3 245.2h4.8l.4 3c.5-1 1.2-1.8 2.1-2.5.9-.7 2.1-1 3.6-1v5.5c-.4-.1-.9-.2-1.7-.2-.4 0-.9 0-1.3.1s-.8.3-1.2.5c-.4.3-.7.7-.9 1.3-.2.6-.4 1.4-.4 2.3v7.2h-5.4v-16.2zM222.5 254.6c.2 1.3.6 2.1 1.2 2.6s1.3.8 2.1.8c.7 0 1.3-.1 1.8-.4.5-.3.9-.8 1.3-1.4l4 2.2c-.8 1.2-1.9 2.1-3.1 2.7-1.3.6-2.7.9-4.2.9-1.4 0-2.6-.2-3.7-.7-1.1-.4-2-1-2.7-1.8s-1.3-1.7-1.6-2.7c-.4-1.1-.6-2.2-.6-3.4 0-1.2.2-2.4.6-3.5s.9-2 1.6-2.8c.7-.8 1.6-1.4 2.6-1.8 1-.4 2.2-.7 3.5-.7 1.3 0 2.4.2 3.4.6 1 .4 1.8 1 2.5 1.8s1.2 1.7 1.5 2.8c.4 1.1.5 2.3.5 3.7v1h-10.7zm2.7-5.9c-1.5 0-2.4 1-2.7 2.9h5.2c0-.8-.2-1.5-.6-2.1-.4-.5-1-.8-1.9-.8z"/></g><g><path class="copy_purpleFill" d="M44.6 291.1c.3.2.6.5.9.7.4.2.7.5 1.2.7.4.2.9.3 1.4.5.5.1.9.2 1.4.2.4 0 .8-.1 1.2-.2.4-.1.6-.4.6-.8s-.2-.7-.6-.9-1-.4-1.6-.6c-.6-.2-1.3-.4-2.1-.6-.7-.2-1.4-.5-2.1-.9-.6-.4-1.2-.9-1.6-1.5-.4-.6-.6-1.5-.6-2.5 0-.9.2-1.7.6-2.4.4-.7.9-1.2 1.5-1.7.6-.4 1.4-.8 2.2-1 .8-.2 1.7-.3 2.6-.3 1.5 0 2.8.2 3.9.5s2.1.8 3 1.4l-2.5 3.6c-.2-.2-.5-.4-.8-.6-.3-.2-.7-.4-1.1-.5-.4-.2-.9-.3-1.3-.4-.5-.1-.9-.1-1.3-.1s-.7.1-.9.2c-.2.1-.4.3-.4.7 0 .4.2.7.6.9.4.2 1 .4 1.6.6.6.2 1.3.4 2 .7.7.2 1.4.5 2 .9.6.4 1.2.9 1.6 1.5.4.6.6 1.4.6 2.3 0 .9-.2 1.8-.6 2.5-.4.7-1 1.3-1.6 1.7-.7.5-1.4.8-2.3 1-.8.2-1.7.3-2.5.3-3.1 0-5.6-.8-7.6-2.3l2.6-3.6zM68.5 296.5c-.1-.2-.2-.5-.3-.9-.1-.4-.1-.7-.2-1-.3.6-.8 1.2-1.5 1.7s-1.7.8-2.9.8c-.9 0-1.6-.1-2.3-.4-.7-.3-1.2-.6-1.7-1.1-.5-.5-.8-1-1-1.7-.2-.6-.4-1.3-.4-2.1s.1-1.6.4-2.2.7-1.1 1.2-1.6c.5-.4 1.2-.8 2-1 .8-.3 1.6-.5 2.6-.6l3.3-.5v-.4c0-.7-.2-1.1-.5-1.4s-.8-.4-1.5-.4c-1 0-1.9.2-2.6.5s-1.3.8-1.9 1.3l-2.5-3.6c.3-.3.8-.6 1.3-.8.5-.3 1.1-.5 1.7-.8.6-.2 1.4-.4 2.1-.5.8-.1 1.7-.2 2.6-.2 2.4 0 4.1.5 5.2 1.5 1 1 1.6 2.6 1.6 4.7v7.5c0 .4 0 .8.1 1.2.1.4.1.7.2 1 .1.3.2.6.4.9h-5.4zm-.8-7.2l-2.2.4c-.7.1-1.3.4-1.6.7s-.5.7-.5 1.2.1.9.4 1.2c.3.3.7.5 1.2.5.7 0 1.4-.3 1.9-.9.5-.6.8-1.4.8-2.5v-.6zM74.2 280.2h6l2.6 11.3 2.6-11.3h5.8l-5.4 16.3h-6.3l-5.3-16.3zM92.8 273.8h5.4v4.3h-5.4v-4.3zm0 6.4h5.4v16.3h-5.4v-16.3zM101.3 280.2h4.8l.4 2.3c.5-.8 1.2-1.4 2.1-2s1.9-.8 3-.8c3.6 0 5.4 2.3 5.4 6.8v9.9h-5.4v-8.6c0-1.3-.2-2.2-.6-2.7-.4-.5-1-.8-1.8-.8-.4 0-.7.1-1.1.2-.3.1-.6.4-.8.7-.2.3-.4.8-.5 1.3-.1.6-.2 1.3-.2 2.1v7.7h-5.4v-16.1zM122.1 296.5c.6.6 1.4 1.1 2.3 1.5.9.4 1.9.5 2.8.5 1 0 1.7-.2 2.1-.7.4-.4.6-1.1.6-2v-1.5c-.4.6-.9 1-1.6 1.4-.7.4-1.6.6-2.7.6-.8 0-1.5-.1-2.3-.4s-1.4-.7-2-1.3c-.6-.6-1.1-1.5-1.4-2.5-.4-1-.5-2.3-.5-3.8 0-1.4.2-2.6.5-3.6s.8-1.9 1.3-2.7c.6-.7 1.3-1.3 2.1-1.6.8-.4 1.7-.6 2.6-.6 1 0 1.9.2 2.6.6.7.4 1.4 1.1 1.8 2l.7-2.2h4.3v15.4c0 1-.1 1.9-.4 2.8-.3.8-.8 1.6-1.4 2.2-.6.6-1.5 1.1-2.5 1.4-1 .3-2.2.5-3.7.5-1 0-1.8-.1-2.7-.2s-1.6-.3-2.2-.5c-.7-.2-1.3-.5-1.8-.8s-1-.5-1.4-.8l2.9-3.7zm7.8-8.2c0-.5 0-1-.1-1.5s-.2-.9-.4-1.3-.4-.7-.8-.9c-.3-.2-.7-.4-1.2-.4-.3 0-.7.1-1 .2-.3.1-.6.4-.8.7-.2.3-.4.7-.5 1.2-.1.5-.2 1.1-.2 1.9 0 1.4.2 2.4.7 3 .5.6 1.1 1 1.9 1 .8 0 1.4-.3 1.8-1 .4-.6.6-1.6.6-2.8v-.1zM145.5 280.2h5.4v9c0 1 .2 1.8.5 2.3.3.5.9.8 1.7.8.9 0 1.5-.3 2-1s.7-1.7.7-3.2v-7.9h5.4v16.3H156v-2.4c-.4.9-1 1.5-1.7 2s-1.8.8-3.1.8c-1.9 0-3.4-.6-4.3-1.7-.9-1.1-1.4-2.7-1.4-4.8v-10.2zM164.2 280.2h5.4v2.1c.4-.7.9-1.4 1.6-1.9.7-.5 1.6-.8 2.8-.8 1.8 0 3.3.7 4.4 2.1 1.1 1.4 1.7 3.5 1.7 6.4 0 1.7-.2 3.1-.6 4.2-.4 1.1-.9 2-1.5 2.7-.6.7-1.3 1.1-2.1 1.4s-1.5.4-2.2.4c-.8 0-1.6-.1-2.4-.4-.8-.3-1.3-.8-1.7-1.4v7h-5.4v-21.8zm5.4 8.4c0 .6 0 1.1.1 1.6s.3.9.5 1.3.5.7.8.9c.3.2.7.3 1.1.3.7 0 1.3-.3 1.8-1 .4-.7.6-1.7.6-3.2 0-1.4-.2-2.5-.7-3.2s-1.1-1.1-1.9-1.1c-.4 0-.8.1-1.1.3-.3.2-.5.5-.7.9-.2.4-.3.8-.4 1.3-.1.5-.1 1-.1 1.5v.4zM190.9 283.7h-2.6v-3.5h.4c.8 0 1.5-.1 2-.4.5-.3.9-.6 1.1-1.1.3-.5.5-1 .6-1.6.1-.6.3-1.2.4-1.7h3.4v4.8h3.4v3.5h-3.4v7.6c0 .5.1.9.3 1.2.2.3.6.5 1.2.5h.6c.3 0 .5-.1.9-.3l.4 3.8c-.6.2-1.2.4-1.8.5-.6.1-1.2.1-1.8.1-1 0-1.8-.1-2.5-.4-.7-.3-1.2-.6-1.6-1.1-.4-.4-.7-1-.8-1.6-.2-.6-.2-1.3-.2-2.1v-8.2zM208.9 297c-1.4 0-2.6-.2-3.6-.7s-1.9-1-2.6-1.8-1.2-1.7-1.5-2.7c-.3-1-.5-2.2-.5-3.4 0-1.2.2-2.4.5-3.4.4-1.1.9-2 1.6-2.8.7-.8 1.6-1.4 2.6-1.8 1-.4 2.2-.7 3.6-.7 1.3 0 2.5.2 3.6.7 1 .4 1.9 1 2.6 1.8.7.8 1.2 1.7 1.6 2.8s.5 2.2.5 3.5c0 1.2-.2 2.4-.5 3.4-.4 1-.9 2-1.6 2.7-.7.8-1.5 1.4-2.6 1.8-1.2.4-2.4.6-3.7.6zm.1-4.1c.9 0 1.5-.4 1.9-1.2.4-.8.6-1.9.6-3.3s-.2-2.5-.7-3.3c-.4-.8-1.1-1.2-2-1.2-.9 0-1.6.4-2 1.2s-.6 1.9-.6 3.3.2 2.5.7 3.3c.4.8 1.1 1.2 2.1 1.2z"/></g><g><path class="copy_purpleFill" d="M46.7 320c-.5-.1-.9-.4-1.4-.6-.4-.3-.8-.6-1.2-1-.3-.4-.6-.8-.8-1.3-.2-.5-.3-1-.3-1.5 0-1 .2-1.9.7-2.7.4-.8 1-1.4 1.7-1.9s1.6-.9 2.5-1.1c.9-.2 1.9-.4 2.8-.4.9 0 1.8.1 2.7.4s1.7.6 2.5 1.1c.7.5 1.3 1.1 1.8 1.9.5.7.7 1.6.7 2.7s-.4 2.1-1.1 2.8c-.7.8-1.6 1.3-2.6 1.6 1.3.2 2.4.8 3.2 1.6s1.2 2 1.2 3.4c0 1.3-.2 2.3-.7 3.2-.5.9-1.1 1.6-1.9 2.1-.8.6-1.7 1-2.7 1.2-1 .3-2 .4-3 .4s-2-.1-3.1-.4c-1-.3-1.9-.7-2.7-1.2-.8-.6-1.4-1.3-1.9-2.2-.5-.9-.7-1.9-.7-3.2 0-1.4.4-2.5 1.1-3.4.6-.7 1.7-1.2 3.2-1.5zm4 7.8c.8 0 1.5-.3 2-.8s.8-1.3.8-2.2c0-.9-.3-1.6-.8-2.2-.5-.6-1.2-.8-2-.8-1 0-1.7.3-2.2.8s-.7 1.3-.7 2.2c0 .8.3 1.5.8 2.1.5.6 1.2.9 2.1.9zM48.3 316c0 .7.2 1.4.7 1.9.4.5 1 .8 1.7.8s1.2-.3 1.7-.8c.4-.5.7-1.2.7-1.9s-.2-1.4-.7-1.9c-.4-.5-1-.8-1.7-.8s-1.3.3-1.7.8c-.5.5-.7 1.1-.7 1.9zM71.9 315.8c-.2-.7-.6-1.2-1.1-1.6-.5-.4-1-.5-1.6-.5-.4 0-.7.1-1.1.2-.4.1-.7.4-1.1.8-.3.4-.6.9-.8 1.6-.2.7-.3 1.6-.3 2.7v.5c.4-.5.9-1 1.7-1.5.8-.5 1.8-.7 3-.7 1 0 2 .2 2.8.5.8.3 1.5.8 2.1 1.4.6.6 1 1.3 1.3 2.2.3.9.5 1.9.5 2.9s-.2 2-.5 2.9c-.3.9-.8 1.7-1.5 2.5-.7.7-1.5 1.3-2.5 1.7-1 .4-2.2.6-3.5.6-1.2 0-2.3-.2-3.4-.6-1.1-.4-2-1.1-2.8-1.9-.8-.9-1.5-1.9-2-3.2-.5-1.3-.7-2.8-.7-4.6 0-2.3.3-4.2.8-5.7s1.2-2.8 2.1-3.7c.9-.9 1.8-1.6 2.8-2 1-.4 2-.6 3-.6s1.8.1 2.6.3c.8.2 1.5.5 2.1.9.6.4 1.1.8 1.6 1.3.4.5.8 1 1 1.6l-4.5 2zM69 328.1c.8 0 1.4-.3 1.8-1 .4-.7.6-1.5.6-2.4 0-1-.2-1.9-.6-2.6-.4-.7-1-1-1.8-1s-1.4.3-1.8 1c-.4.7-.6 1.6-.6 2.6 0 1.1.2 2 .7 2.5.4.6 1 .9 1.7.9zM84.9 322.2c-1 0-1.9-.2-2.7-.5-.8-.4-1.4-.9-2-1.5-.5-.6-.9-1.4-1.2-2.3-.3-.9-.4-1.8-.4-2.8 0-.9.1-1.8.4-2.6.3-.8.7-1.5 1.2-2.2.5-.6 1.2-1.1 2-1.5.8-.4 1.7-.5 2.7-.5 1.1 0 2.1.2 2.8.5.8.4 1.4.8 2 1.5.5.6.9 1.3 1.1 2.2.2.8.4 1.7.4 2.6 0 1-.1 1.9-.4 2.7-.2.9-.6 1.6-1.1 2.3-.5.6-1.2 1.2-2 1.5-.7.4-1.7.6-2.8.6zm0-3.4c.3 0 .5-.1.7-.4.2-.2.3-.5.4-.9.1-.4.2-.8.2-1.2 0-.4.1-.8.1-1.2v-1.2c0-.4-.1-.8-.2-1.1-.1-.3-.3-.6-.4-.8-.2-.2-.4-.3-.8-.3-.3 0-.6.1-.8.3-.2.2-.3.5-.4.8-.1.3-.2.7-.2 1.1v2.5c0 .4.1.8.2 1.2.1.4.3.6.4.9.3.2.5.3.8.3zM97.1 308l2.9 1.3L88.9 332l-2.9-1.2L97.1 308zm4 23.9c-1 0-1.9-.2-2.7-.5-.8-.4-1.4-.9-2-1.5-.5-.6-.9-1.4-1.2-2.3-.3-.9-.4-1.8-.4-2.8 0-.9.1-1.8.4-2.6.3-.8.7-1.5 1.2-2.2s1.2-1.1 2-1.5c.8-.4 1.7-.5 2.7-.5 1.1 0 2.1.2 2.8.5.8.4 1.4.8 2 1.5.5.6.9 1.3 1.1 2.2.2.8.4 1.7.4 2.6 0 1-.1 1.9-.4 2.7-.2.9-.6 1.6-1.1 2.3-.5.6-1.2 1.2-2 1.5-.8.4-1.8.6-2.8.6zm0-3.4c.3 0 .5-.1.7-.4.2-.2.3-.5.4-.9.1-.4.2-.8.2-1.2 0-.4.1-.8.1-1.2v-1.2c0-.4-.1-.8-.2-1.1-.1-.3-.3-.6-.4-.8s-.4-.3-.8-.3-.6.1-.8.3-.3.5-.4.8c-.1.3-.2.7-.2 1.1v2.5c0 .4.1.8.2 1.2.1.4.3.6.4.9.2.2.4.3.8.3zM116.7 315.2h4.8l.4 2.3c.5-.9 1.1-1.6 1.8-2 .7-.5 1.7-.7 2.8-.7 1.3 0 2.3.3 3.1.9.7.6 1.2 1.3 1.6 2 .2-.3.4-.7.7-1 .3-.4.6-.7 1-.9.4-.3.9-.5 1.5-.7.6-.2 1.2-.3 2-.3 1.2 0 2.1.2 2.8.6.7.4 1.2.9 1.6 1.5.4.6.6 1.3.8 2.2s.2 1.6.2 2.5v10h-5.4V323c0-1.2-.2-2.1-.5-2.7-.3-.6-.9-.9-1.7-.9-.3 0-.5 0-.8.1-.3.1-.5.3-.8.5s-.4.7-.5 1.2c-.1.5-.2 1.2-.2 2v8.2h-5.4v-8.6c0-1.2-.2-2-.5-2.6-.3-.6-.9-.8-1.6-.8-.3 0-.5 0-.8.1-.3.1-.5.3-.8.6s-.4.7-.6 1.3c-.1.6-.2 1.3-.2 2.3v7.8h-5.4v-16.3zM152.3 332c-1.4 0-2.6-.2-3.6-.7-1-.4-1.9-1-2.6-1.8-.7-.8-1.2-1.7-1.5-2.7-.3-1-.5-2.2-.5-3.4s.2-2.4.5-3.4c.4-1.1.9-2 1.6-2.8.7-.8 1.6-1.4 2.6-1.8 1-.4 2.2-.7 3.6-.7s2.5.2 3.6.7c1 .4 1.9 1 2.6 1.8.7.8 1.2 1.7 1.6 2.8s.5 2.2.5 3.5-.2 2.4-.5 3.4-.9 2-1.6 2.7c-.7.8-1.5 1.4-2.6 1.8-1.2.4-2.4.6-3.7.6zm.1-4.1c.9 0 1.5-.4 1.9-1.2s.6-1.9.6-3.3-.2-2.5-.7-3.3c-.4-.8-1.1-1.2-2-1.2-.9 0-1.6.4-2 1.2-.4.8-.6 1.9-.6 3.3s.2 2.5.7 3.3 1.1 1.2 2.1 1.2zM162.8 315.2h4.8l.4 3c.5-1 1.2-1.8 2.1-2.5.9-.7 2.1-1 3.6-1v5.5c-.4-.1-.9-.2-1.7-.2-.4 0-.9 0-1.3.1s-.8.3-1.2.5c-.4.3-.7.7-.9 1.3-.2.6-.4 1.4-.4 2.3v7.2h-5.4v-16.2zM180 324.6c.2 1.3.6 2.1 1.2 2.6s1.3.8 2.1.8c.7 0 1.3-.1 1.8-.4.5-.3.9-.8 1.3-1.4l4 2.2c-.8 1.2-1.9 2.1-3.1 2.7-1.3.6-2.7.9-4.2.9-1.4 0-2.6-.2-3.7-.7-1.1-.4-2-1-2.7-1.8-.7-.8-1.3-1.7-1.6-2.7-.4-1.1-.6-2.2-.6-3.4 0-1.2.2-2.4.6-3.5s.9-2 1.6-2.8c.7-.8 1.6-1.4 2.6-1.8 1-.4 2.2-.7 3.5-.7 1.3 0 2.4.2 3.4.6 1 .4 1.8 1 2.5 1.8s1.2 1.7 1.5 2.8c.4 1.1.5 2.3.5 3.7v1H180zm2.7-5.9c-1.5 0-2.4 1-2.7 2.9h5.2c0-.8-.2-1.5-.6-2.1-.4-.5-1-.8-1.9-.8zM192.9 325.6h5.9v5.9h-5.9v-5.9z"/></g></svg>