<svg version="1.1" id="Layer_1" xmlns="https://www.w3.org/2000/svg" x="0" y="0" viewBox="0 0 300 600" xml:space="preserve"><style>.purpleFill{fill:#662868}.yellowFill{fill:#fdbc40}.orangeFill{fill:#ec7623}</style><path class="purpleFill" d="M109.7 552.7l-.7 3.9h7.7l-10.1 12.1-.5 2.8h14.5l.6-3.9h-8l9.9-11.9.6-3zM123.2 564.4c0-7 4.8-12.2 10.8-12.2 3.6 0 5.7 1.8 5.7 4.8 0 4.6-5.2 6.7-11.5 7.4.1 2.2.9 3.4 3 3.4 2 0 3.6-1 4.8-2l2 3.3c-1.5 1.2-3.8 2.7-7.5 2.7-4.8.1-7.3-3-7.3-7.4m5.3-3.1c3.8-.4 6.4-1.7 6.4-3.6 0-1-.6-1.5-1.8-1.5-2.3-.1-3.9 2.3-4.6 5.1M145.1 543.8h5l-5 27.7h-5zM152.8 552.7h5l-3.4 18.7h-5l3.4-18.7zm.3-5.5c0-1.6 1.3-2.9 3-2.9 1.8 0 3 1.3 3 2.9 0 1.6-1.3 3-3 3-1.7-.1-3-1.4-3-3M157 570l2.1-3.4c.9.6 2.2 1.5 4 1.5 1.5 0 2.3-.7 2.3-1.7 0-1.2-1.3-2.1-2.8-3.7-1.4-1.5-2.5-2.9-2.5-5.1 0-3.2 2.5-5.3 6.7-5.3 2.5 0 4.3.7 5.5 1.7l-2.2 3.2c-.6-.5-1.7-1.1-3.2-1.1-1.3 0-2 .5-2 1.6 0 .9 1 1.7 2.4 3.2 1.8 1.8 3.2 3.3 3.2 5.7 0 3.4-2.5 5.5-7.3 5.5-3.3-.2-5.2-1.4-6.2-2.1"/><path transform="rotate(-44.996 185.729 561.014)" class="yellowFill" d="M180.8 559.4h10v3.3h-10z"/><path transform="rotate(-45.001 190.432 546.962)" class="yellowFill" d="M185.5 545.3h10v3.3h-10z"/><path transform="rotate(-45.001 195.13 556.357)" class="yellowFill" d="M193.5 551.4h3.3v10h-3.3z"/><path transform="rotate(-44.996 181.033 551.621)" class="yellowFill" d="M179.4 546.7h3.3v10h-3.3z"/><path transform="rotate(-45.001 190.433 561.054)" class="orangeFill" d="M188.8 556.1h3.3v10h-3.3z"/><path transform="rotate(-45.001 185.736 546.963)" class="orangeFill" d="M184.1 542h3.3v10h-3.3z"/><path transform="rotate(-44.996 181.032 556.317)" class="orangeFill" d="M176.1 554.7h10v3.3h-10z"/><path transform="rotate(-45.004 195.123 551.62)" class="orangeFill" d="M190.2 550h10v3.3h-10z"/><path class="purpleFill" d="M197.5 561l-11.8-2.3 2.4-2.3 11.7 2.3zM188.1 551.7l-11.8-2.4 2.4-2.3 11.7 2.3zM185.7 554l-2.3 11.7-2.4-2.3 2.4-11.7zM195.1 544.6l-2.3 11.8-2.4-2.4 2.4-11.7zM171.4 570.1c0-1 .8-1.8 1.8-1.8s1.8.8 1.8 1.8-.8 1.8-1.8 1.8c-1 .1-1.8-.8-1.8-1.8m3.3 0c0-.9-.6-1.5-1.5-1.5s-1.5.6-1.5 1.5.6 1.5 1.5 1.5 1.5-.6 1.5-1.5m-2.1-1.1h.7c.5 0 .7.3.7.6s-.2.5-.5.6c.1.1.2.1.3.3l.4.7h-.5l-.5-.7c-.1-.2-.2-.2-.3-.2v.9h-.4V569zm.6 1c.2 0 .4 0 .4-.3 0-.2-.1-.3-.4-.3h-.2v.6h.2z"/></svg>