<svg version="1.1" id="Layer_1" xmlns="http://www.w3.org/2000/svg" x="0" y="0" viewBox="0 0 336 280" xml:space="preserve"><style>.copy_purpleFill{fill:#662868}.copy_grayFill{fill:#5d6770}</style><path class="copy_purpleFill" d="M30 101.5c-1 0-2-.2-2.9-.5-.9-.3-1.7-.8-2.4-1.4-.7-.6-1.3-1.4-1.7-2.4-.4-1-.6-2.1-.6-3.5 0-1.3.2-2.5.6-3.5.4-1 1-1.8 1.7-2.4s1.5-1.1 2.4-1.4c.9-.3 1.9-.5 2.9-.5s2 .2 2.9.5c.9.3 1.7.8 2.4 1.4.7.6 1.3 1.5 1.7 2.4.4 1 .6 2.1.6 3.5 0 1.3-.2 2.5-.6 3.5-.4 1-1 1.8-1.7 2.4-.7.6-1.5 1.1-2.4 1.4-1 .3-2 .5-2.9.5zm0-3.3c.5 0 1-.1 1.4-.3.4-.2.8-.4 1.1-.8s.6-.8.7-1.4c.2-.6.3-1.2.3-2 0-1.5-.3-2.6-1-3.3-.7-.8-1.5-1.2-2.6-1.2s-1.9.4-2.5 1.2c-.6.8-.9 1.9-.9 3.3 0 .8.1 1.5.3 2 .2.6.5 1 .8 1.4.3.4.7.6 1.1.8.4.2.8.3 1.3.3zM38.7 90.4h3.2l.3 1.5c.3-.5.8-.9 1.4-1.3s1.3-.5 2-.5c2.4 0 3.6 1.5 3.6 4.5v6.6h-3.6v-5.7c0-.8-.1-1.4-.4-1.8-.3-.3-.6-.5-1.2-.5-.3 0-.5 0-.7.1-.2.1-.4.3-.5.5-.2.2-.3.5-.4.9-.1.4-.1.8-.1 1.4v5.1h-3.6V90.4zM50.7 86.2h3.6v14.9h-3.6V86.2zM56.2 102.2c.3.1.5.2.8.2.3.1.5.1.7.1.3 0 .6-.1.8-.2.2-.1.3-.4.4-.8L55 90.4h3.8l1.9 7.2 1.8-7.2h3.8l-3.7 10.7c-.2.6-.4 1.1-.6 1.6-.2.5-.5.9-.8 1.3-.3.4-.8.6-1.3.8-.5.2-1.2.3-2 .3h-1.1c-.2 0-.4 0-.6-.1-.2 0-.3-.1-.5-.1l.5-2.7zM71 98.2l7.6-9.2h-7.1v-2.9H83V89l-7.6 9.2h7.8v2.9H71v-2.9zM87.3 96.6c.1.8.4 1.4.8 1.7.4.3.9.5 1.4.5.5 0 .8-.1 1.2-.3.3-.2.6-.5.9-.9l2.6 1.5c-.5.8-1.2 1.4-2.1 1.8s-1.8.6-2.8.6c-.9 0-1.7-.1-2.4-.4-.7-.3-1.3-.7-1.8-1.2s-.9-1.2-1.1-1.9c-.2-.7-.4-1.4-.4-2.3 0-.8.1-1.6.4-2.3s.6-1.3 1.1-1.8c.5-.5 1-.9 1.7-1.2.7-.3 1.4-.4 2.3-.4.8 0 1.6.1 2.2.4.6.3 1.2.7 1.6 1.2s.8 1.1 1 1.9.3 1.5.3 2.4V96.5h-6.9zm1.7-4c-1 0-1.6.6-1.8 1.9h3.5c0-.5-.1-1-.4-1.4s-.7-.5-1.3-.5zM95.5 86.2h3.6v14.9h-3.6V86.2zM100.7 86.1h3.6v2.8h-3.6v-2.8zm0 4.3h3.6v10.8h-3.6V90.4zM106.9 97.6c.2.2.4.3.6.5.2.2.5.3.8.4l.9.3c.3.1.6.1.9.1.3 0 .5 0 .8-.1.3-.1.4-.3.4-.5 0-.3-.1-.5-.4-.6s-.6-.3-1-.4c-.4-.1-.9-.2-1.4-.4-.5-.1-.9-.3-1.4-.6-.4-.3-.8-.6-1-1-.3-.4-.4-1-.4-1.6 0-.6.1-1.1.4-1.6.3-.5.6-.8 1-1.1s.9-.5 1.5-.6c.5-.1 1.1-.2 1.7-.2 1 0 1.8.1 2.6.3.7.2 1.4.5 2 1l-1.6 2.4c-.1-.1-.3-.3-.5-.4-.2-.1-.5-.2-.8-.3l-.9-.3c-.3-.1-.6-.1-.9-.1-.2 0-.4 0-.6.1-.2.1-.2.2-.2.5 0 .2.1.4.4.6.3.1.6.3 1 .4.4.1.9.3 1.4.4.5.2.9.4 1.4.6.4.3.8.6 1 1 .3.4.4.9.4 1.5s-.1 1.2-.4 1.6c-.3.5-.6.8-1.1 1.2-.4.3-.9.5-1.5.7s-1.1.2-1.6.2c-2 0-3.7-.5-5-1.5l1.5-2.5zM130.1 98.9c-.5.9-1.2 1.6-2 2s-1.8.6-2.8.6c-1 0-1.8-.1-2.5-.4-.7-.3-1.3-.7-1.7-1.2-.4-.5-.8-1.1-1-1.8s-.3-1.4-.3-2.2c0-.9.1-1.7.4-2.4s.6-1.3 1.1-1.8c.5-.5 1-.9 1.7-1.2.7-.3 1.4-.4 2.3-.4 1.1 0 2.1.2 2.8.7.8.5 1.4 1.1 2 2l-2.9 1.4c-.2-.5-.5-.9-.8-1.1s-.6-.3-1-.3c-.7 0-1.1.3-1.4.8s-.4 1.2-.4 2.1c0 .3 0 .7.1 1.1s.2.7.3 1c.1.3.4.6.6.8.3.2.6.3 1.1.3.5 0 .9-.1 1.2-.4.3-.3.6-.6.8-1.1l2.4 1.5zM130.9 86.2h3.6v5.6c.3-.5.7-.9 1.2-1.2.5-.3 1.2-.5 2.1-.5 1.2 0 2.1.4 2.7 1.2.6.8.9 1.9.9 3.4v6.5h-3.6v-5.8c0-.7-.1-1.2-.4-1.6-.2-.4-.6-.6-1.2-.6-.5 0-.9.2-1.2.6-.3.4-.5 1.1-.5 2.1v5.2h-3.6V86.2zM146.1 96.6c.1.8.4 1.4.8 1.7.4.3.9.5 1.4.5.5 0 .8-.1 1.2-.3.3-.2.6-.5.9-.9l2.6 1.5c-.5.8-1.2 1.4-2.1 1.8-.8.4-1.8.6-2.8.6-.9 0-1.7-.1-2.4-.4-.7-.3-1.3-.7-1.8-1.2s-.8-1.1-1.1-1.8c-.2-.7-.4-1.4-.4-2.3 0-.8.1-1.6.4-2.3.3-.7.6-1.3 1.1-1.8.5-.5 1-.9 1.7-1.2.7-.3 1.4-.4 2.3-.4.8 0 1.6.1 2.2.4.6.3 1.2.7 1.6 1.2.4.5.8 1.1 1 1.9s.3 1.5.3 2.4V96.6h-6.9zm1.7-4c-1 0-1.6.6-1.8 1.9h3.5c0-.5-.1-1-.4-1.4s-.7-.5-1.3-.5zM164.1 98.9c-.5.9-1.2 1.6-2 2s-1.8.6-2.8.6c-1 0-1.8-.1-2.5-.4s-1.3-.7-1.7-1.2c-.4-.5-.8-1.1-1-1.8-.2-.7-.3-1.4-.3-2.2 0-.9.1-1.7.4-2.4.3-.7.6-1.3 1.1-1.8.5-.5 1-.9 1.7-1.2.7-.3 1.4-.4 2.3-.4 1.1 0 2.1.2 2.8.7.8.5 1.4 1.1 2 2l-2.9 1.4c-.2-.5-.5-.9-.8-1.1s-.6-.3-1-.3c-.7 0-1.1.3-1.4.8-.3.5-.4 1.2-.4 2.1 0 .3 0 .7.1 1.1.1.4.2.7.3 1 .1.3.4.6.6.8.3.2.6.3 1.1.3.5 0 .9-.1 1.2-.4.3-.3.6-.6.8-1.1l2.4 1.5zM164.9 86.2h3.6v8.1l3.6-4h4.3l-4.2 4.1 4.2 6.7h-4l-2.4-4.5-1.4 1.4v3.2H165v-15zM177.9 97.6c.2.2.4.3.6.5.2.2.5.3.8.4l.9.3c.3.1.6.1.9.1.3 0 .5 0 .8-.1.3-.1.4-.3.4-.5 0-.3-.1-.5-.4-.6-.3-.1-.6-.3-1-.4-.4-.1-.9-.2-1.4-.4-.5-.1-.9-.3-1.4-.6-.4-.3-.8-.6-1-1-.3-.4-.4-1-.4-1.6 0-.6.1-1.1.4-1.6.3-.5.6-.8 1-1.1s.9-.5 1.5-.6c.5-.1 1.1-.2 1.7-.2 1 0 1.8.1 2.6.3.7.2 1.4.5 2 1l-1.6 2.4c-.1-.1-.3-.3-.5-.4-.2-.1-.5-.2-.8-.3l-.9-.3c-.3-.1-.6-.1-.9-.1-.2 0-.4 0-.6.1-.2.1-.2.2-.2.5 0 .2.1.4.4.6.3.1.6.3 1 .4.4.1.9.3 1.4.4.5.2.9.4 1.4.6.4.3.8.6 1 1 .3.4.4.9.4 1.5s-.1 1.2-.4 1.6c-.3.5-.6.8-1.1 1.2-.4.3-.9.5-1.5.7s-1.1.2-1.6.2c-2 0-3.7-.5-5-1.5l1.5-2.5zM192.1 92.6h-1.8v-2.3h1.6c-.1-.4-.2-.7-.2-1s-.1-.6-.1-.8c0-.4 0-.7.1-1.1.1-.3.3-.6.5-.9s.6-.5 1.1-.6c.5-.1 1-.2 1.7-.2.6 0 1.1 0 1.6.1s.8.2 1.2.3l-.5 2.6c-.2-.1-.4-.2-.7-.2-.3-.1-.5-.1-.7-.1-.2 0-.4 0-.6.1-.2.1-.2.3-.2.5s0 .5.1.7c.1.2.1.4.2.5h2.1v2.3h-2v8.5h-3.6v-8.4zM203.2 101.5c-.9 0-1.7-.1-2.4-.4s-1.2-.7-1.7-1.2-.8-1.1-1-1.8c-.2-.7-.3-1.4-.3-2.3 0-.8.1-1.6.4-2.3.2-.7.6-1.3 1-1.8.5-.5 1-.9 1.7-1.2.7-.3 1.5-.4 2.3-.4s1.7.1 2.4.4c.7.3 1.2.7 1.7 1.2s.8 1.1 1 1.8.3 1.5.3 2.3c0 .8-.1 1.6-.3 2.3-.2.7-.6 1.3-1 1.8s-1 .9-1.7 1.2-1.5.4-2.4.4zm.1-2.7c.6 0 1-.3 1.3-.8.3-.5.4-1.3.4-2.2 0-.9-.1-1.6-.4-2.2-.3-.5-.7-.8-1.3-.8s-1 .3-1.3.8c-.3.5-.4 1.3-.4 2.2 0 .9.1 1.6.4 2.2.2.5.6.8 1.3.8zM209.8 90.4h3.2l.3 2c.3-.6.8-1.2 1.4-1.6.6-.4 1.4-.7 2.4-.7v3.6c-.3-.1-.6-.1-1.1-.1-.3 0-.6 0-.9.1s-.6.2-.8.3c-.2.2-.4.5-.6.8s-.2.9-.2 1.5v4.8h-3.6V90.4zM228.6 101.1c-.1-.2-.2-.4-.2-.6-.1-.3-.1-.5-.1-.7-.2.4-.5.8-1 1.1-.5.3-1.1.5-1.9.5-.6 0-1.1-.1-1.5-.3-.4-.2-.8-.4-1.1-.7-.3-.3-.5-.7-.7-1.1-.2-.4-.2-.9-.2-1.4 0-.5.1-1 .3-1.4.2-.4.5-.7.8-1s.8-.5 1.3-.7c.5-.2 1.1-.3 1.7-.4l2.2-.3v-.2c0-.5-.1-.8-.3-.9-.2-.2-.6-.2-1-.2-.7 0-1.2.1-1.7.4-.5.2-.9.5-1.3.8l-1.7-2.3c.2-.2.5-.4.8-.6.3-.2.7-.4 1.1-.5s.9-.3 1.4-.4c.5-.1 1.1-.1 1.7-.1 1.6 0 2.7.3 3.4 1 .7.7 1 1.7 1 3.1v4.9c0 .3 0 .6.1.8s.1.4.1.6c.1.2.1.4.2.6h-3.4zm-.6-4.7l-1.5.3c-.5.1-.9.2-1.1.4-.2.2-.3.5-.3.8 0 .3.1.6.3.8s.5.3.8.3c.5 0 .9-.2 1.3-.6.3-.4.5-.9.5-1.6v-.4zM242.9 98.9c-.5.9-1.2 1.6-2 2s-1.8.6-2.8.6c-1 0-1.8-.1-2.5-.4s-1.3-.7-1.7-1.2c-.4-.5-.8-1.1-1-1.8-.2-.7-.3-1.4-.3-2.2 0-.9.1-1.7.4-2.4.3-.7.6-1.3 1.1-1.8.5-.5 1-.9 1.7-1.2.7-.3 1.4-.4 2.3-.4 1.1 0 2.1.2 2.8.7.8.5 1.4 1.1 2 2l-2.9 1.4c-.2-.5-.5-.9-.8-1.1s-.6-.3-1-.3c-.7 0-1.1.3-1.4.8-.3.5-.4 1.2-.4 2.1 0 .3 0 .7.1 1.1.1.4.2.7.3 1 .1.3.4.6.6.8.3.2.6.3 1.1.3.5 0 .9-.1 1.2-.4.3-.3.6-.6.8-1.1l2.4 1.5zM253.3 98.9c-.5.9-1.2 1.6-2 2s-1.8.6-2.8.6c-1 0-1.8-.1-2.5-.4s-1.3-.7-1.7-1.2c-.4-.5-.8-1.1-1-1.8-.2-.7-.3-1.4-.3-2.2 0-.9.1-1.7.4-2.4.3-.7.6-1.3 1.1-1.8.5-.5 1-.9 1.7-1.2.7-.3 1.4-.4 2.3-.4 1.1 0 2.1.2 2.8.7.8.5 1.4 1.1 2 2l-2.9 1.4c-.2-.5-.5-.9-.8-1.1s-.6-.3-1-.3c-.7 0-1.1.3-1.4.8-.3.5-.4 1.2-.4 2.1 0 .3 0 .7.1 1.1.1.4.2.7.3 1 .1.3.4.6.6.8.3.2.6.3 1.1.3.5 0 .9-.1 1.2-.4.3-.3.6-.6.8-1.1l2.4 1.5zM254.1 90.4h3.6v5.9c0 .7.1 1.2.3 1.5.2.3.6.5 1.1.5.6 0 1-.2 1.3-.7.3-.4.5-1.1.5-2.1v-5.2h3.5v10.8H261v-1.6c-.3.6-.7 1-1.2 1.3-.5.3-1.2.5-2.1.5-1.3 0-2.2-.4-2.8-1.1s-.9-1.8-.9-3.2v-6.6zM266 90.4h3.2l.3 2c.3-.6.8-1.2 1.4-1.6.6-.4 1.4-.7 2.4-.7v3.6c-.3-.1-.6-.1-1.1-.1-.3 0-.6 0-.9.1s-.6.2-.8.3c-.2.2-.4.5-.6.8s-.2.9-.2 1.5v4.8H266V90.4zM280.2 101.1c-.1-.2-.2-.4-.2-.6-.1-.3-.1-.5-.1-.7-.2.4-.5.8-1 1.1-.5.3-1.1.5-1.9.5-.6 0-1.1-.1-1.5-.3-.4-.2-.8-.4-1.1-.7-.3-.3-.5-.7-.7-1.1-.2-.4-.2-.9-.2-1.4 0-.5.1-1 .3-1.4.2-.4.5-.7.8-1s.8-.5 1.3-.7c.5-.2 1.1-.3 1.7-.4l2.2-.3v-.2c0-.5-.1-.8-.3-.9-.2-.2-.6-.2-1-.2-.7 0-1.2.1-1.7.4-.5.2-.9.5-1.3.8l-1.7-2.3c.2-.2.5-.4.8-.6.3-.2.7-.4 1.1-.5s.9-.3 1.4-.4c.5-.1 1.1-.1 1.7-.1 1.6 0 2.7.3 3.4 1 .7.7 1 1.7 1 3.1v4.9c0 .3 0 .6.1.8s.1.4.1.6c.1.2.1.4.2.6h-3.4zm-.5-4.7l-1.5.3c-.5.1-.9.2-1.1.4-.2.2-.3.5-.3.8 0 .3.1.6.3.8s.5.3.8.3c.5 0 .9-.2 1.3-.6.3-.4.5-.9.5-1.6v-.4zM294.6 98.9c-.5.9-1.2 1.6-2 2s-1.8.6-2.8.6c-1 0-1.8-.1-2.5-.4s-1.3-.7-1.7-1.2c-.4-.5-.8-1.1-1-1.8-.2-.7-.3-1.4-.3-2.2 0-.9.1-1.7.4-2.4.3-.7.6-1.3 1.1-1.8.5-.5 1-.9 1.7-1.2.7-.3 1.4-.4 2.3-.4 1.1 0 2.1.2 2.8.7.8.5 1.4 1.1 2 2l-2.9 1.4c-.2-.5-.5-.9-.8-1.1s-.6-.3-1-.3c-.7 0-1.1.3-1.4.8-.3.5-.4 1.2-.4 2.1 0 .3 0 .7.1 1.1.1.4.2.7.3 1 .1.3.4.6.6.8.3.2.6.3 1.1.3.5 0 .9-.1 1.2-.4.3-.3.6-.6.8-1.1l2.4 1.5z"/><path class="copy_purpleFill" d="M295.5 102.2c.3.1.5.2.8.2.3.1.5.1.7.1.3 0 .6-.1.8-.2.2-.1.3-.4.4-.8l-3.9-11.1h3.8l1.9 7.2 1.8-7.2h3.8l-3.7 10.7c-.2.6-.4 1.1-.6 1.6-.2.5-.5.9-.8 1.3s-.8.6-1.3.8c-.5.2-1.2.3-2 .3h-1.1c-.2 0-.4 0-.6-.1-.2 0-.3-.1-.5-.1l.5-2.7zM305.4 97.2h3.9v3.9h-3.9v-3.9z"/><g><path class="copy_grayFill" d="M30.8 118.4c-.3.5-.7.9-1.2 1.2-.5.3-1.2.5-2 .5-.9 0-1.6-.1-2.3-.4-.6-.3-1.2-.7-1.6-1.2-.4-.5-.8-1.1-1-1.8-.2-.7-.3-1.5-.3-2.3 0-.8.1-1.6.4-2.3.2-.7.6-1.3 1-1.8.5-.5 1-.9 1.7-1.2.7-.3 1.4-.4 2.3-.4 1 0 1.9.2 2.7.6.8.4 1.5 1 2 1.8l-2.2 1.1c-.1-.2-.2-.5-.4-.7-.2-.2-.4-.4-.6-.5-.2-.1-.5-.2-.7-.3-.3-.1-.5-.1-.8-.1-.5 0-.9.1-1.3.3-.4.2-.7.5-.9.8-.2.3-.4.7-.5 1.2-.1.5-.2.9-.2 1.5s.1 1 .2 1.5.3.9.6 1.2c.2.3.6.6.9.8.4.2.8.3 1.2.3.5 0 .9-.1 1.2-.2.3-.2.6-.3.8-.6.2-.2.4-.5.5-.7.1-.3.2-.5.2-.8v-.2H28V114h4.5v6h-1.4l-.3-1.6zM35.8 116.4c.1.7.3 1.3.6 1.6.3.3.8.5 1.3.5.7 0 1.3-.3 1.7-1l1.6.9c-.4.6-.8 1-1.4 1.3s-1.2.4-2 .4c-.6 0-1.2-.1-1.7-.3-.5-.2-.9-.5-1.2-.9-.3-.4-.6-.8-.8-1.3s-.3-1-.3-1.6c0-.6.1-1.1.3-1.7.2-.5.4-1 .7-1.3.3-.4.7-.7 1.2-.9.5-.2 1-.3 1.6-.3.6 0 1.1.1 1.6.3.5.2.8.5 1.1.9.3.4.5.8.7 1.3.2.5.2 1.1.2 1.7v.4h-5.2zm1.6-3.1c-.5 0-.9.2-1.1.5-.3.3-.4.8-.5 1.4H39c0-.2 0-.5-.1-.7l-.3-.6c-.1-.2-.3-.3-.5-.4-.2-.1-.4-.2-.7-.2zM42.6 113.4h-1.3V112h.2c.4 0 .6-.1.8-.2.2-.1.4-.3.5-.5.1-.2.2-.4.3-.7.1-.3.1-.6.2-.9h1.3v2.2h1.7v1.4h-1.7v4.1c0 .3.1.6.2.7.1.2.3.2.7.2h.3c.1 0 .3-.1.4-.1l.2 1.5c-.3.1-.5.2-.8.2-.3 0-.5.1-.8.1-.4 0-.8-.1-1.1-.2-.3-.1-.5-.3-.7-.5-.2-.2-.3-.5-.4-.7-.1-.3-.1-.6-.1-.9v-4.3zM60.1 117.4c-.5.9-1.2 1.6-1.9 2-.7.4-1.7.7-2.8.7-.9 0-1.7-.1-2.3-.4s-1.2-.7-1.7-1.2-.8-1.1-1-1.8-.3-1.5-.3-2.3c0-.8.1-1.6.4-2.3.2-.7.6-1.3 1-1.8.5-.5 1-.9 1.7-1.2.7-.3 1.4-.4 2.3-.4 1 0 1.9.2 2.6.5.8.4 1.4 1 2 1.9l-2.2 1.1c-.2-.5-.6-.9-1-1.1-.4-.3-.9-.4-1.5-.4-.5 0-.9.1-1.3.3-.4.2-.7.5-.9.8-.2.3-.4.7-.6 1.2-.1.5-.2.9-.2 1.5s.1 1 .2 1.5.3.9.6 1.2.6.6 1 .8c.4.2.8.3 1.3.3.6 0 1.1-.1 1.5-.4s.8-.7 1-1.3l2.1.8zM61.1 108.8h2.1v11h-2.1v-11zM69.4 119.8c-.1-.1-.1-.3-.1-.5s-.1-.4-.1-.6c-.2.4-.4.7-.8 1-.4.3-.9.4-1.5.4-.8 0-1.4-.2-1.9-.7-.4-.5-.7-1.1-.7-1.8 0-.4.1-.8.2-1 .1-.3.3-.5.6-.7.3-.2.6-.4.9-.5l1.2-.3 1.7-.3v-.3c0-.5-.1-.8-.3-.9-.2-.1-.5-.2-.9-.2-.5 0-1 .1-1.3.3-.4.2-.7.4-.9.7l-1-1.4c.3-.3.8-.6 1.4-.8.6-.2 1.3-.4 2.2-.4 1.1 0 1.9.2 2.4.7.5.5.7 1.2.7 2.2v4.3c0 .2.1.3.1.5 0 .1.1.3.2.5h-2.1zm-.4-3.7l-1.4.2c-.5.1-.8.2-1 .4-.2.2-.3.4-.3.7s.1.6.3.8.4.3.8.3.8-.2 1.1-.5c.3-.3.5-.8.5-1.4v-.5zM72.6 108.9h2.1v1.7h-2.1v-1.7zm0 3.1h2.1v7.8h-2.1V112zM76.1 112H78l.2 1.3c.2-.5.5-.8.9-1.1.4-.3.8-.4 1.4-.4.6 0 1.1.2 1.5.5.3.3.6.7.7 1.1l.3-.6c.1-.2.3-.4.5-.5.2-.1.4-.3.7-.3.3-.1.6-.1 1-.1.5 0 .9.1 1.3.3.3.2.6.4.8.7s.3.6.4 1 .1.8.1 1.2v4.9h-2.1v-4.3c0-.6-.1-1.1-.3-1.4-.2-.3-.5-.5-.9-.5-.2 0-.3 0-.5.1s-.3.2-.4.4c-.1.2-.2.4-.3.7-.1.3-.1.6-.1 1v4h-2.1v-4.4c0-1.2-.4-1.8-1.2-1.8-.2 0-.3 0-.5.1s-.3.2-.4.4c-.1.2-.2.4-.3.7-.1.3-.1.7-.1 1.1v3.9h-2.1v-8zM89.1 108.8h4.3c.5 0 1.1.1 1.6.2s.9.3 1.3.6.7.6.9 1.1c.2.4.3 1 .3 1.6 0 .7-.1 1.2-.3 1.7-.2.5-.5.8-.9 1.1-.4.3-.8.5-1.3.6-.5.1-1 .2-1.6.2h-2v4h-2.3v-11.1zm3.9 5.3c.3 0 .6 0 .8-.1.2-.1.5-.2.6-.3.2-.1.3-.3.4-.6.1-.2.1-.5.1-.9 0-.3-.1-.6-.2-.8-.1-.2-.3-.4-.4-.5-.2-.1-.4-.2-.7-.3s-.5-.1-.8-.1h-1.7v3.5H93zM102.9 119.8c-.1-.1-.1-.3-.1-.5s-.1-.4-.1-.6c-.2.4-.4.7-.8 1-.4.3-.9.4-1.5.4-.8 0-1.4-.2-1.9-.7-.4-.5-.7-1.1-.7-1.8 0-.4.1-.8.2-1 .1-.3.3-.5.6-.7.3-.2.6-.4.9-.5l1.2-.3 1.7-.3v-.3c0-.5-.1-.8-.3-.9-.2-.1-.5-.2-.9-.2-.5 0-1 .1-1.3.3-.4.2-.7.4-.9.7l-1-1.4c.3-.3.8-.6 1.4-.8.6-.2 1.3-.4 2.2-.4 1.1 0 1.9.2 2.4.7.5.5.7 1.2.7 2.2v4.3c0 .2.1.3.1.5 0 .1.1.3.2.5h-2.1zm-.4-3.7l-1.4.2c-.5.1-.8.2-1 .4-.2.2-.3.4-.3.7s.1.6.3.8.4.3.8.3.8-.2 1.1-.5c.3-.3.5-.8.5-1.4v-.5zM106.6 117.5l.4.4c.1.1.4.2.6.3.2.1.4.2.6.2s.5.1.7.1c.3 0 .5-.1.8-.2.2-.1.4-.3.4-.6 0-.2-.1-.4-.3-.6-.2-.1-.5-.3-.8-.4s-.7-.2-1-.3c-.4-.1-.7-.2-1-.4-.3-.2-.6-.4-.8-.7-.2-.3-.3-.7-.3-1.2 0-.4.1-.8.3-1.1.2-.3.4-.6.7-.8.3-.2.6-.4 1-.4.4-.1.8-.1 1.2-.1.7 0 1.2.1 1.7.2.5.2 1 .4 1.4.7l-1 1.4c-.1-.1-.2-.2-.4-.3-.2-.1-.3-.2-.5-.3-.2-.1-.4-.1-.6-.2-.2 0-.4-.1-.6-.1-.2 0-.4.1-.6.2-.2.1-.3.3-.3.5s.1.4.3.5c.2.1.5.2.8.4.3.1.6.2 1 .3.4.1.7.3 1 .4.3.2.6.4.8.7.2.3.3.7.3 1.1 0 .4-.1.8-.3 1.1s-.4.6-.7.8-.6.4-1 .5c-.4.1-.8.2-1.2.2-1.4 0-2.6-.4-3.4-1.2l.8-1.1zM113.6 117.5l.4.4c.1.1.4.2.6.3.2.1.4.2.6.2s.5.1.7.1c.3 0 .5-.1.8-.2.2-.1.4-.3.4-.6 0-.2-.1-.4-.3-.6-.2-.1-.5-.3-.8-.4s-.7-.2-1-.3c-.4-.1-.7-.2-1-.4-.3-.2-.6-.4-.8-.7-.2-.3-.3-.7-.3-1.2 0-.4.1-.8.3-1.1.2-.3.4-.6.7-.8.3-.2.6-.4 1-.4.4-.1.8-.1 1.2-.1.7 0 1.2.1 1.7.2.5.2 1 .4 1.4.7l-1 1.4c-.1-.1-.2-.2-.4-.3-.2-.1-.3-.2-.5-.3-.2-.1-.4-.1-.6-.2-.2 0-.4-.1-.6-.1-.2 0-.4.1-.6.2-.2.1-.3.3-.3.5s.1.4.3.5c.2.1.5.2.8.4.3.1.6.2 1 .3.4.1.7.3 1 .4.3.2.6.4.8.7.2.3.3.7.3 1.1 0 .4-.1.8-.3 1.1s-.4.6-.7.8-.6.4-1 .5c-.4.1-.8.2-1.2.2-1.4 0-2.6-.4-3.4-1.2l.8-1.1z"/></g><g><path class="copy_grayFill" d="M120.4 117.5h2.4v2.4h-2.4v-2.4zM135.4 118.4c-.3.5-.7.9-1.2 1.2-.5.3-1.2.5-2 .5-.9 0-1.6-.1-2.3-.4s-1.2-.7-1.6-1.2c-.4-.5-.8-1.1-1-1.8-.2-.7-.3-1.5-.3-2.3 0-.8.1-1.6.4-2.3.2-.7.6-1.3 1-1.8.5-.5 1-.9 1.7-1.2.7-.3 1.4-.4 2.3-.4 1 0 1.9.2 2.7.6s1.5 1 2 1.8l-2.2 1.1c-.1-.2-.2-.5-.4-.7-.2-.2-.4-.4-.6-.5s-.5-.2-.7-.3c-.3-.1-.5-.1-.8-.1-.5 0-.9.1-1.3.3-.4.2-.7.5-.9.8-.2.3-.4.7-.5 1.2-.1.5-.2.9-.2 1.5s.1 1 .2 1.5.3.9.6 1.2c.2.3.6.6.9.8.4.2.8.3 1.2.3.5 0 .9-.1 1.2-.2s.6-.3.8-.6c.2-.2.4-.5.5-.7.1-.3.2-.5.2-.8v-.2h-2.4V114h4.5v6h-1.4l-.4-1.6zM140.5 116.4c.1.7.3 1.3.6 1.6.3.3.8.5 1.3.5.7 0 1.3-.3 1.7-1l1.6.9c-.4.6-.8 1-1.4 1.3s-1.2.4-2 .4c-.6 0-1.2-.1-1.7-.3-.5-.2-.9-.5-1.2-.9-.3-.4-.6-.8-.8-1.3-.2-.5-.3-1-.3-1.6 0-.6.1-1.1.3-1.7.2-.5.4-1 .7-1.3.3-.4.7-.7 1.2-.9.5-.2 1-.3 1.6-.3.6 0 1.1.1 1.6.3.5.2.8.5 1.1.9s.5.8.7 1.3c.2.5.2 1.1.2 1.7v.4h-5.2zm1.6-3.1c-.5 0-.9.2-1.1.5s-.4.8-.5 1.4h3.2c0-.2 0-.5-.1-.7l-.3-.6c-.1-.2-.3-.3-.5-.4s-.5-.2-.7-.2zM147.2 113.4h-1.3V112h.2c.4 0 .6-.1.8-.2s.4-.3.5-.5c.1-.2.2-.4.3-.7.1-.3.1-.6.2-.9h1.3v2.2h1.7v1.4h-1.7v4.1c0 .3.1.6.2.7.1.2.3.2.7.2h.3c.1 0 .3-.1.4-.1l.2 1.5c-.3.1-.5.2-.8.2-.3 0-.5.1-.8.1-.4 0-.8-.1-1.1-.2-.3-.1-.5-.3-.7-.5-.2-.2-.3-.5-.4-.7-.1-.3-.1-.6-.1-.9v-4.3zM155 112h1.9l.2 1.3c.2-.5.5-.8.9-1.1.4-.3.8-.4 1.4-.4.6 0 1.1.2 1.5.5.3.3.6.7.7 1.1l.3-.6c.1-.2.3-.4.5-.5.2-.1.4-.3.7-.3.3-.1.6-.1 1-.1.5 0 .9.1 1.3.3s.6.4.8.7c.2.3.3.6.4 1 .1.4.1.8.1 1.2v4.9h-2.1v-4.3c0-.6-.1-1.1-.3-1.4-.2-.3-.5-.5-.9-.5-.2 0-.3 0-.5.1s-.3.2-.4.4c-.1.2-.2.4-.3.7-.1.3-.1.6-.1 1v4H160v-4.4c0-1.2-.4-1.8-1.2-1.8-.2 0-.3 0-.5.1s-.3.2-.4.4c-.1.2-.2.4-.3.7-.1.3-.1.7-.1 1.1v3.9H155v-8zM171.3 120.1c-.6 0-1.2-.1-1.7-.3-.5-.2-.9-.5-1.2-.9-.3-.4-.6-.8-.7-1.3s-.2-1.1-.2-1.6.1-1.1.2-1.6c.2-.5.4-.9.7-1.3s.7-.7 1.2-.9c.5-.2 1-.3 1.6-.3s1.2.1 1.7.3c.5.2.9.5 1.2.9.3.4.6.8.7 1.3.2.5.2 1.1.2 1.6s-.1 1.1-.2 1.6-.4.9-.7 1.3c-.3.4-.7.7-1.2.9-.4.2-.9.3-1.6.3zm.1-1.7c.5 0 .9-.2 1.2-.7.3-.5.4-1.1.4-1.8s-.1-1.3-.4-1.8c-.3-.5-.7-.7-1.2-.7-.6 0-1 .2-1.2.7-.3.5-.4 1.1-.4 1.8s.1 1.4.4 1.8c.2.5.6.7 1.2.7zM176.2 112h1.9l.2 1.5c.2-.5.6-.9 1-1.3.4-.3 1-.5 1.7-.5v2.2h-.7c-.2 0-.5 0-.7.1l-.6.3c-.2.2-.3.4-.5.7s-.2.7-.2 1.1v3.7h-2.1V112zM183.3 116.4c.1.7.3 1.3.6 1.6.3.3.8.5 1.3.5.7 0 1.3-.3 1.7-1l1.6.9c-.4.6-.8 1-1.4 1.3s-1.2.4-2 .4c-.6 0-1.2-.1-1.7-.3-.5-.2-.9-.5-1.2-.9-.3-.4-.6-.8-.8-1.3-.2-.5-.3-1-.3-1.6 0-.6.1-1.1.3-1.7.2-.5.4-1 .7-1.3.3-.4.7-.7 1.2-.9.5-.2 1-.3 1.6-.3.6 0 1.1.1 1.6.3.5.2.8.5 1.1.9s.5.8.7 1.3c.2.5.2 1.1.2 1.7v.4h-5.2zm1.6-3.1c-.5 0-.9.2-1.1.5s-.4.8-.5 1.4h3.2c0-.2 0-.5-.1-.7l-.3-.6c-.1-.2-.3-.3-.5-.4s-.4-.2-.7-.2zM193.4 117.5l.4.4.6.3c.2.1.4.2.6.2.2.1.5.1.7.1.3 0 .5-.1.8-.2.2-.1.4-.3.4-.6 0-.2-.1-.4-.3-.6-.2-.1-.5-.3-.8-.4-.3-.1-.7-.2-1-.3-.4-.1-.7-.2-1-.4s-.6-.4-.8-.7c-.2-.3-.3-.7-.3-1.2 0-.4.1-.8.3-1.1.2-.3.4-.6.7-.8.3-.2.6-.4 1-.4.4-.1.8-.1 1.2-.1.7 0 1.2.1 1.7.2.5.2 1 .4 1.4.7l-1 1.4c-.1-.1-.2-.2-.4-.3-.2-.1-.3-.2-.5-.3-.2-.1-.4-.1-.6-.2-.2 0-.4-.1-.6-.1-.2 0-.5.1-.6.2s-.3.3-.3.5.1.4.3.5.5.2.8.4c.3.1.6.2 1 .3.4.1.7.3 1 .4.3.2.6.4.8.7.2.3.3.7.3 1.1 0 .4-.1.8-.3 1.1-.2.3-.4.6-.7.8-.3.2-.6.4-1 .5-.4.1-.8.2-1.2.2-1.4 0-2.6-.4-3.4-1.2l.8-1.1zM204.7 119.8c-.1-.1-.1-.3-.1-.5s-.1-.4-.1-.6c-.2.4-.4.7-.8 1-.4.3-.9.4-1.5.4-.8 0-1.4-.2-1.9-.7-.4-.5-.7-1.1-.7-1.8 0-.4.1-.8.2-1 .1-.3.3-.5.6-.7.3-.2.6-.4.9-.5l1.2-.3 1.7-.3v-.3c0-.5-.1-.8-.3-.9s-.5-.2-.9-.2c-.5 0-1 .1-1.3.3-.4.2-.7.4-.9.7l-1-1.4c.3-.3.8-.6 1.4-.8.6-.2 1.3-.4 2.2-.4 1.1 0 1.9.2 2.4.7.5.5.7 1.2.7 2.2v4.3c0 .2.1.3.1.5 0 .1.1.3.2.5h-2.1zm-.3-3.7l-1.4.2c-.5.1-.8.2-1 .4-.2.2-.3.4-.3.7s.1.6.3.8.4.3.8.3.8-.2 1.1-.5c.3-.3.5-.8.5-1.4v-.5zM207.1 112h2.4l1.5 5.8 1.5-5.8h2.3l-2.6 7.8h-2.5l-2.6-7.8zM215.4 108.9h2.1v1.7h-2.1v-1.7zm0 3.1h2.1v7.8h-2.1V112zM219 112h1.9l.2 1.3c.2-.4.5-.8 1-1.1.4-.3.9-.4 1.5-.4.9 0 1.5.3 1.9.8.4.5.6 1.3.6 2.4v4.9H224v-4.4c0-.7-.1-1.1-.3-1.4-.2-.3-.5-.4-1-.4-.4 0-.8.2-1.1.5s-.4 1-.4 1.8v3.9H219V112zM228.3 120.1c.3.3.7.5 1.1.7s.9.3 1.4.3c.6 0 1-.2 1.2-.5.2-.3.3-.7.3-1.2v-1c-.2.3-.4.6-.8.9s-.8.3-1.4.3c-.4 0-.8-.1-1.2-.2-.4-.1-.7-.4-1-.7s-.5-.7-.7-1.2c-.2-.5-.2-1.1-.2-1.7 0-.6.1-1.2.2-1.7s.4-.9.6-1.3.6-.6 1-.8c.4-.2.8-.3 1.3-.3s1 .1 1.4.4c.4.2.7.6.9 1.1l.3-1.2h1.7v7.4c0 .5-.1.9-.2 1.3s-.3.8-.6 1.1c-.3.3-.7.5-1.1.7-.5.2-1 .3-1.7.3-.8 0-1.6-.1-2.2-.3-.6-.2-1.1-.5-1.5-.7l1.2-1.7zm4-4.4c0-.3 0-.5-.1-.8s-.1-.5-.2-.7c-.1-.2-.3-.4-.5-.5-.2-.1-.4-.2-.7-.2-.5 0-.8.2-1.1.6s-.4 1-.4 1.7.1 1.2.4 1.6c.2.4.6.6 1.2.6.5 0 .9-.2 1.1-.6s.4-.9.4-1.5v-.2zM236.3 117.5l.4.4.6.3c.2.1.4.2.6.2.2.1.5.1.7.1.3 0 .5-.1.8-.2.2-.1.4-.3.4-.6 0-.2-.1-.4-.3-.6-.2-.1-.5-.3-.8-.4-.3-.1-.7-.2-1-.3-.4-.1-.7-.2-1-.4s-.6-.4-.8-.7c-.2-.3-.3-.7-.3-1.2 0-.4.1-.8.3-1.1.2-.3.4-.6.7-.8.3-.2.6-.4 1-.4.4-.1.8-.1 1.2-.1.7 0 1.2.1 1.7.2.5.2 1 .4 1.4.7l-1 1.4c-.1-.1-.2-.2-.4-.3-.2-.1-.3-.2-.5-.3-.2-.1-.4-.1-.6-.2-.2 0-.4-.1-.6-.1-.2 0-.5.1-.6.2s-.3.3-.3.5.1.4.3.5.5.2.8.4c.3.1.6.2 1 .3.4.1.7.3 1 .4.3.2.6.4.8.7.2.3.3.7.3 1.1 0 .4-.1.8-.3 1.1-.2.3-.4.6-.7.8-.3.2-.6.4-1 .5-.4.1-.8.2-1.2.2-1.4 0-2.6-.4-3.4-1.2l.8-1.1zM242.7 117.5h2.4v2.4h-2.4v-2.4z"/></g></svg>