<svg version="1.1" id="Layer_1" xmlns="https://www.w3.org/2000/svg" x="0" y="0" viewBox="0 0 336 280" xml:space="preserve"><style>.copy_purpleFill{fill:#662868}</style><path class="copy_purpleFill" d="M41.5 177.9c-1 1.7-2.2 2.9-3.5 3.6-1.4.8-3 1.1-5 1.1-1.6 0-3.1-.3-4.3-.8-1.2-.5-2.3-1.2-3.1-2.1-.8-.9-1.5-2-1.9-3.2-.4-1.2-.6-2.6-.6-4.1 0-1.5.2-2.9.7-4.1s1.1-2.3 1.9-3.2c.8-.9 1.9-1.6 3.1-2.1 1.2-.5 2.6-.7 4.2-.7 1.8 0 3.4.3 4.8 1s2.7 1.8 3.8 3.4l-4.7 2.4c-.4-.8-.9-1.4-1.5-1.8-.7-.4-1.4-.6-2.3-.6-.8 0-1.5.2-2.1.5-.6.3-1 .7-1.4 1.2-.4.5-.7 1.1-.8 1.8s-.3 1.5-.3 2.3c0 .8.1 1.6.3 2.3.2.7.5 1.3.9 1.8s.9.9 1.5 1.3 1.2.5 2 .5 1.6-.2 2.2-.7c.7-.4 1.2-1.2 1.6-2.2l4.5 2.4zM42.6 168.3h4.1l.3 2.6c.4-.8 1-1.5 1.8-2.1.8-.6 1.8-.9 3.1-.9v4.7c-.3-.1-.8-.1-1.5-.1-.4 0-.7 0-1.1.1-.4.1-.7.2-1 .5-.3.2-.6.6-.8 1.1-.2.5-.3 1.2-.3 2v6.2h-4.6v-14.1zM60.9 182.2c-.1-.2-.2-.5-.3-.8-.1-.3-.1-.6-.2-.9-.3.5-.7 1-1.3 1.5-.6.4-1.4.6-2.5.6-.7 0-1.4-.1-2-.3-.6-.2-1-.5-1.4-.9-.4-.4-.7-.9-.9-1.4-.2-.5-.3-1.1-.3-1.8s.1-1.3.4-1.8c.2-.5.6-1 1.1-1.3s1-.7 1.7-.9c.7-.2 1.4-.4 2.2-.5l2.8-.4v-.3c0-.6-.2-1-.5-1.2-.3-.2-.7-.3-1.3-.3-.9 0-1.6.2-2.2.5-.6.3-1.2.7-1.6 1.1l-2.2-3c.3-.2.7-.5 1.1-.7s.9-.5 1.5-.7c.5-.2 1.2-.3 1.8-.5.7-.1 1.4-.2 2.2-.2 2.1 0 3.5.4 4.4 1.3.9.9 1.3 2.2 1.3 4v6.5c0 .4 0 .7.1 1 0 .3.1.6.2.8s.2.5.3.8h-4.4zm-.7-6.1l-1.9.4c-.6.1-1.1.3-1.4.6-.3.2-.4.6-.4 1s.1.7.4 1c.2.3.6.4 1.1.4.6 0 1.2-.2 1.6-.7.4-.5.7-1.2.7-2.1v-.6zM66.5 179l7.2-7.3h-7v-3.4h12.4v3.3l-7.4 7.3h7.8v3.4h-13V179zM81.6 183.6c.3.1.7.2 1 .3s.7.1 1 .1c.4 0 .7-.1 1-.3.2-.2.4-.5.5-1l-5-14.4h5l2.4 9.4 2.4-9.4h5l-4.8 13.9c-.3.8-.5 1.5-.8 2.1-.3.6-.6 1.2-1.1 1.7-.4.5-1 .8-1.7 1.1-.7.3-1.5.4-2.6.4h-1.4c-.3 0-.5 0-.8-.1-.2 0-.4-.1-.6-.1l.5-3.7zM94.3 185.9c.5-.2.9-.4 1.2-.7l.7-.7c.2-.3.3-.5.3-.8s.1-.6.1-1v-.5h-2.3v-5.1h5.1v5c0 .9-.1 1.6-.2 2.2-.2.6-.4 1.1-.8 1.6-.3.5-.8.8-1.3 1.2-.5.3-1.1.6-1.8.9l-1-2.1zM107.2 168.3h4.1l.3 2.6c.4-.8 1-1.5 1.8-2.1.8-.6 1.8-.9 3.1-.9v4.7c-.3-.1-.8-.1-1.5-.1-.4 0-.7 0-1.1.1-.4.1-.7.2-1 .5-.3.2-.6.6-.8 1.1-.2.5-.3 1.2-.3 2v6.2h-4.6v-14.1zM117.6 162.8h4.6v3.7h-4.6v-3.7zm0 5.5h4.6v13.9h-4.6v-13.9zM126.1 182.2c.5.5 1.2.9 2 1.3.8.3 1.6.5 2.4.5.9 0 1.5-.2 1.8-.6.3-.4.5-.9.5-1.7v-1.3c-.3.5-.8.9-1.4 1.2-.6.3-1.4.5-2.3.5-.7 0-1.3-.1-2-.3-.6-.2-1.2-.6-1.7-1.1-.5-.5-.9-1.2-1.2-2.1s-.5-1.9-.5-3.2c0-1.2.1-2.2.4-3.1s.7-1.7 1.1-2.3c.5-.6 1.1-1.1 1.8-1.4s1.4-.5 2.3-.5c.9 0 1.6.2 2.2.5.6.4 1.2.9 1.6 1.7l.6-1.9h3.6v13.2c0 .9-.1 1.6-.4 2.4s-.6 1.3-1.2 1.9c-.5.5-1.3.9-2.1 1.2-.9.3-1.9.4-3.1.4-.8 0-1.6-.1-2.3-.2-.7-.1-1.3-.3-1.9-.5-.6-.2-1.1-.4-1.6-.6s-.9-.5-1.2-.7l2.6-3.3zm6.7-7c0-.4 0-.9-.1-1.3s-.2-.8-.3-1.1c-.2-.3-.4-.6-.6-.8s-.6-.3-1-.3c-.3 0-.6.1-.8.2-.3.1-.5.3-.7.6-.2.3-.3.6-.5 1.1-.1.4-.2 1-.2 1.6 0 1.2.2 2 .6 2.6.4.5.9.8 1.6.8.7 0 1.2-.3 1.5-.8s.5-1.3.5-2.4v-.2zM139.5 162.9h4.6v7.2c.3-.6.9-1.1 1.6-1.6.7-.4 1.6-.7 2.7-.7 1.6 0 2.8.5 3.5 1.5.7 1 1.1 2.5 1.1 4.4v8.4h-4.6v-7.6c0-.9-.2-1.6-.5-2-.3-.5-.8-.7-1.5-.7s-1.2.3-1.6.8-.6 1.4-.6 2.7v6.8h-4.6v-19.2zM156.1 171.2h-2.2v-3h.4c.7 0 1.3-.1 1.7-.4s.7-.6 1-.9c.2-.4.4-.8.5-1.3.1-.5.2-1 .4-1.5h2.9v4.1h2.9v3h-2.9v6.5c0 .4.1.8.2 1 .2.3.5.4 1.1.4h.5c.2 0 .5-.1.7-.2l.3 3.2c-.5.2-1 .3-1.5.4-.5.1-1 .1-1.6.1-.9 0-1.6-.1-2.1-.3-.6-.2-1-.5-1.3-.9-.3-.4-.6-.8-.7-1.4-.1-.5-.2-1.1-.2-1.8v-7zM168.3 175.4v-.5-.3c0-.3 0-.7.1-.9.1-.3.2-.5.3-.8.1-.2.3-.4.4-.6l.4-.4c.4-.4.8-.7 1.2-1s.8-.6 1.1-.9c.3-.3.5-.6.7-.9s.3-.7.3-1.1c0-.6-.2-1.1-.6-1.4-.4-.3-.9-.5-1.5-.5-.7 0-1.3.2-1.8.6-.4.4-.8 1-1.1 1.7l-4-1.6c.5-1.4 1.4-2.4 2.7-3.1 1.2-.7 2.8-1.1 4.6-1.1 2.3 0 4.1.5 5.3 1.4 1.2 1 1.8 2.2 1.8 3.8 0 .3 0 .6-.1.9-.1.3-.2.7-.4 1-.2.3-.4.7-.7 1.1s-.7.7-1.2 1.1l-.9.6c-.3.2-.6.4-.9.7-.3.2-.6.5-.8.8-.2.3-.4.6-.5.9 0 .1-.1.2-.1.3v.3h-4.3zm-.4 1.8h5.1v5.1h-5.1v-5.1z"/></svg>