<svg version="1.1" id="Layer_1" xmlns="http://www.w3.org/2000/svg" x="0" y="0" viewBox="0 0 102.7 9.2" xml:space="preserve"><style>.copy_whiteFill{fill:#fff}</style><path class="copy_whiteFill" d="M3.4.2h2L8.9 9H6.5l-.6-1.8h-3L2.3 9H0L3.4.2zm1.9 5.3c-.2-.4-.3-.9-.5-1.3-.1-.4-.3-.9-.4-1.4-.1.5-.3 1-.4 1.4-.2.4-.3.8-.5 1.3h1.8zM17.2 7c-.4.8-1 1.3-1.6 1.7-.6.3-1.4.5-2.3.5-.7 0-1.4-.1-2-.3-.6-.2-1-.5-1.4-1-.4-.4-.6-.9-.8-1.5-.2-.5-.3-1.1-.3-1.8s.1-1.3.3-1.9c.2-.6.5-1 .9-1.4.4-.4.8-.7 1.4-.9.5-.3 1.1-.4 1.9-.4.8 0 1.5.1 2.2.4s1.2.8 1.7 1.6L15 3.1c-.2-.4-.4-.6-.7-.8s-.6-.3-1-.3-.7.1-.9.2c-.3.1-.5.3-.6.6-.2.2-.3.5-.4.8-.1.3-.1.7-.1 1 0 .4 0 .7.1 1 .1.3.2.6.4.8s.4.4.7.6.6.2.9.2c.4 0 .7-.1 1-.3.3-.2.5-.5.7-1L17.2 7zM26 7c-.4.8-1 1.3-1.6 1.7-.6.3-1.4.5-2.2.5-.7 0-1.4-.1-2-.3-.6-.2-1-.5-1.4-1-.4-.4-.7-.9-.9-1.5-.2-.6-.3-1.2-.3-1.8 0-.7.1-1.3.3-1.9.2-.6.5-1 .9-1.4.4-.4.8-.7 1.4-.9.6-.3 1.2-.4 1.9-.4.8 0 1.5.1 2.2.4s1.2.8 1.7 1.6l-2.1 1.1c-.2-.4-.4-.6-.7-.8s-.6-.3-1-.3-.7.1-.9.2c-.3.1-.5.3-.6.6-.2.2-.3.5-.4.8-.1.3-.1.7-.1 1 0 .4 0 .7.1 1 .1.3.2.6.4.8s.3.5.5.6.6.2.9.2c.4 0 .7-.1 1-.3.3-.2.5-.5.7-1L26 7zM27 .2h2.2v5.6c0 .5.1.9.4 1.2s.6.3 1 .3.8-.1 1-.3.4-.6.4-1.1V.2h2.2v6.4c0 .2-.1.5-.2.7 0 .2-.1.5-.3.7l-.6.6c-.3.2-.6.3-1 .4-.4.1-.9.2-1.4.2s-1-.1-1.4-.2c-.4-.1-.7-.3-1-.4-.3-.2-.6-.4-.7-.6-.2-.2-.3-.5-.4-.7s-.1-.5-.2-.7V.2zM35.8.2h3.6c.5 0 .9 0 1.4.1.4.1.8.2 1.2.5.3.2.6.5.8.9s.2.7.2 1.3c0 .4-.1.7-.2.9-.1.3-.3.5-.5.7-.2.2-.4.3-.7.4s-.5.2-.8.2c.2 0 .4.1.6.2.2.1.4.3.5.6l1.7 3H41l-1-2.1c-.1-.2-.2-.3-.3-.5s-.2-.2-.3-.3c-.2 0-.3 0-.4-.1h-1v3h-2.2V.2zm3.5 4.1h.5c.2 0 .3-.1.4-.2.1-.1.2-.2.3-.4.1-.2.1-.4.1-.6 0-.2 0-.4-.1-.6-.1-.1-.2-.3-.3-.3s-.3-.2-.5-.3-.3 0-.4 0H38v2.4h1.3zM47.2.2h2L52.6 9h-2.4l-.6-1.8h-3L46.1 9h-2.3L47.2.2zm1.9 5.3c-.1-.4-.3-.9-.4-1.3-.1-.4-.3-.9-.4-1.4-.1.5-.3 1-.4 1.4-.2.4-.3.9-.5 1.3h1.7zM60.9 7c-.4.8-1 1.3-1.6 1.7-.6.3-1.3.5-2.2.5-.7 0-1.4-.1-2-.3-.6-.2-1-.5-1.4-1-.4-.4-.7-.9-.9-1.5-.2-.6-.3-1.2-.3-1.8 0-.7.1-1.3.3-1.9.2-.6.5-1 .9-1.4.4-.4.8-.7 1.4-.9.6-.3 1.2-.4 1.9-.4.8 0 1.5.1 2.2.4s1.2.8 1.7 1.6l-2.1 1.1c-.2-.4-.4-.6-.7-.8s-.6-.3-1-.3-.7.1-.9.2c-.3.1-.5.3-.6.6-.2.2-.3.5-.4.8-.1.3-.1.7-.1 1 0 .4 0 .7.1 1 .1.3.2.6.4.8s.4.4.7.6.6.2.9.2c.4 0 .7-.1 1-.3.3-.2.5-.5.7-1l2 1.1zM64 5.1L60.8.2h2.6l1.8 3.2L67 .2h2.6l-3.3 4.9V9H64V5.1zM72.9.2h3.7c.4 0 .9 0 1.3.1s.8.3 1.1.5.6.5.8.9c.2.4.3.8.3 1.3 0 .6-.1 1-.3 1.4-.2.4-.4.7-.7.9-.3.2-.7.4-1.1.5-.4.2-.8.2-1.3.2h-1.5v3H73V.2zm3.5 4.1h.5c.1 0 .3-.1.4-.2.1-.1.2-.2.3-.4.1-.2.1-.4.1-.6 0-.2 0-.4-.1-.5-.1-.1-.2-.3-.3-.3s-.3-.3-.4-.4c-.2 0-.4-.1-.5-.1h-1.1v2.4h1.1zM82.9.2h2L88.3 9H86l-.6-1.8h-3L81.7 9h-2.3L82.9.2zm1.9 5.3c-.1-.4-.3-.9-.4-1.3-.1-.4-.3-.9-.4-1.4-.1.5-.3 1-.4 1.4-.3.4-.5.8-.6 1.3h1.8zM90.1 5.1L86.9.2h2.6l1.8 3.2L93.1.2h2.6l-3.3 4.9V9h-2.3V5.1zM96.9 6.3l.3.3c.1.1.3.2.5.3s.4.2.7.2.5.1.8.1c.4 0 .7-.1.9-.2.2-.1.3-.3.3-.5s0-.3-.1-.4c-.1-.1-.2-.2-.4-.3-.2-.1-.4-.1-.7-.2-.3-.1-.6-.1-1-.2-.9-.2-1.5-.5-1.9-1-.4-.4-.6-1-.6-1.6 0-.4.1-.7.2-1.1.1-.3.4-.6.7-.9s.7-.5 1.1-.6 1-.2 1.5-.2c.7 0 1.3.1 1.9.3.6.2 1.1.6 1.6 1.1l-1.5 1.4c-.2-.3-.5-.5-.9-.7-.4-.2-.8-.3-1.2-.3-.2 0-.4 0-.5.1-.1 0-.2.1-.3.2l-.2.2c-.1.1 0 .2 0 .2 0 .2.1.4.3.6s.6.3 1.2.5 1.2.3 1.6.5.7.4 1 .6.4.5.5.7c.1.3.1.6.1.9 0 .5-.1.9-.3 1.2s-.5.7-.8.9c-.3.2-.7.4-1.1.5-.4.1-.9.2-1.4.2-.5 0-.9 0-1.3-.1s-.7-.2-1.1-.3c-.3-.1-.6-.3-.8-.4s-.4-.3-.6-.5l1.5-1.5z"/></svg>