<svg version="1.1" id="Layer_1" xmlns="https://www.w3.org/2000/svg" x="0" y="0" viewBox="0 0 728 90" xml:space="preserve"><style>.copy_purpleFill{fill:#662868}.copy_grayFill{fill:#5d6770}</style><path class="copy_purpleFill" d="M191.2 16.2h10.5v2.9H195v3.2h4.6v2.9H195V31h-3.8V16.2zM202.7 16.1h3.5v2.8h-3.5v-2.8zm0 4.2h3.5V31h-3.5V20.3zM207.8 20.3h3.2l.3 1.5c.3-.5.8-.9 1.4-1.3.6-.3 1.2-.5 2-.5 2.4 0 3.5 1.5 3.5 4.5V31h-3.5v-5.6c0-.8-.1-1.4-.4-1.8s-.6-.5-1.2-.5c-.3 0-.5 0-.7.1-.2.1-.4.2-.5.5-.2.2-.3.5-.4.9-.1.4-.1.8-.1 1.4v5h-3.5V20.3zM226.4 29.5c-.3.5-.7 1-1.1 1.3-.5.3-1 .4-1.7.4-.6 0-1.2-.1-1.7-.4-.5-.2-1-.6-1.3-1.1s-.7-1.1-.9-1.8c-.2-.7-.3-1.5-.3-2.4 0-1 .1-1.9.4-2.6.3-.7.6-1.3 1-1.7.4-.4.9-.7 1.4-.9.5-.2 1-.3 1.5-.3.7 0 1.2.1 1.7.4.4.3.8.6 1 1v-5.2h3.5V31h-3.3v-1.5zm-.3-4c0-.3 0-.7-.1-1-.1-.3-.1-.6-.3-.8s-.3-.4-.5-.6c-.2-.1-.5-.2-.8-.2-.5 0-.9.2-1.2.7s-.4 1.1-.4 1.9c0 .9.2 1.6.5 2.1s.7.8 1.2.8c.3 0 .5-.1.7-.2.2-.1.4-.3.5-.6s.2-.5.3-.9c.1-.3.1-.7.1-1.1v-.1zM240.6 31.4c-.9 0-1.7-.1-2.4-.4-.7-.3-1.2-.7-1.7-1.2-.4-.5-.8-1.1-1-1.8s-.3-1.4-.3-2.2.1-1.6.4-2.3c.2-.7.6-1.3 1-1.8.5-.5 1-.9 1.7-1.2.7-.3 1.4-.4 2.3-.4.9 0 1.7.1 2.3.4.7.3 1.2.7 1.7 1.2.4.5.8 1.1 1 1.8.2.7.3 1.5.3 2.3s-.1 1.6-.3 2.2-.6 1.3-1 1.8-1 .9-1.7 1.2c-.6.2-1.4.4-2.3.4zm.1-2.7c.6 0 1-.3 1.3-.8.3-.5.4-1.3.4-2.2 0-.9-.1-1.6-.4-2.2s-.7-.8-1.3-.8-1 .3-1.3.8c-.3.5-.4 1.3-.4 2.2 0 .9.1 1.6.4 2.2s.6.8 1.3.8zM247.1 20.3h3.5v5.9c0 .7.1 1.2.3 1.5.2.3.6.5 1.1.5.6 0 1-.2 1.3-.7.3-.4.5-1.1.5-2.1v-5.2h3.5V31H254v-1.6c-.3.6-.7 1-1.1 1.3-.5.3-1.2.5-2 .5-1.3 0-2.2-.4-2.8-1.1-.6-.7-.9-1.8-.9-3.2v-6.6zM259.8 22.6h-1.7v-2.3h.3c.5 0 1-.1 1.3-.3.3-.2.6-.4.7-.7.2-.3.3-.6.4-1s.2-.8.3-1.1h2.2v3.1h2.2v2.3h-2.2v5c0 .3.1.6.2.8s.4.3.8.3h.4c.1 0 .4-.1.6-.2l.2 2.5c-.4.2-.8.3-1.2.3s-.8.1-1.2.1c-.7 0-1.2-.1-1.6-.3s-.8-.4-1-.7-.4-.6-.5-1.1-.2-.9-.2-1.4v-5.3zM270.7 16.2h3.5v5.5c.3-.5.7-.9 1.2-1.2s1.2-.5 2.1-.5c1.2 0 2.1.4 2.7 1.2.6.8.9 1.9.9 3.4V31h-3.5v-5.8c0-.7-.1-1.2-.4-1.6-.2-.4-.6-.6-1.2-.6-.5 0-.9.2-1.2.6-.3.4-.5 1.1-.5 2.1V31h-3.5V16.2zM287.5 31.4c-.9 0-1.7-.1-2.4-.4-.7-.3-1.2-.7-1.7-1.2-.4-.5-.8-1.1-1-1.8s-.3-1.4-.3-2.2.1-1.6.4-2.3c.2-.7.6-1.3 1-1.8.5-.5 1-.9 1.7-1.2.7-.3 1.4-.4 2.3-.4.9 0 1.7.1 2.3.4.7.3 1.2.7 1.7 1.2.4.5.8 1.1 1 1.8.2.7.3 1.5.3 2.3s-.1 1.6-.3 2.2-.6 1.3-1 1.8-1 .9-1.7 1.2c-.7.2-1.4.4-2.3.4zm0-2.7c.6 0 1-.3 1.3-.8.3-.5.4-1.3.4-2.2 0-.9-.1-1.6-.4-2.2s-.7-.8-1.3-.8-1 .3-1.3.8c-.3.5-.4 1.3-.4 2.2 0 .9.1 1.6.4 2.2s.7.8 1.3.8zM292.8 20.3h3.8l1.6 7.3 1.4-7.3h3.7l1.4 7.3 1.6-7.3h3.8L306.5 31h-3.8l-1.3-5.7L300 31h-3.8l-3.4-10.7zM324.7 28.8c-.5.9-1.2 1.6-2 2-.8.4-1.8.6-2.8.6-1 0-1.8-.1-2.5-.4s-1.2-.7-1.7-1.2c-.4-.5-.8-1.1-1-1.8s-.3-1.4-.3-2.2c0-.9.1-1.7.4-2.4s.6-1.3 1.1-1.8 1-.9 1.7-1.1c.7-.3 1.4-.4 2.3-.4 1.1 0 2 .2 2.8.7s1.4 1.1 1.9 2l-2.9 1.4c-.2-.5-.4-.9-.8-1.1-.3-.2-.6-.3-1-.3-.7 0-1.1.3-1.4.8-.3.5-.4 1.2-.4 2 0 .3 0 .7.1 1 .1.4.2.7.3 1s.4.6.6.8c.3.2.6.3 1 .3.5 0 .9-.1 1.2-.4.3-.3.5-.6.7-1.1l2.7 1.6zM330.2 31.4c-.9 0-1.7-.1-2.4-.4-.7-.3-1.2-.7-1.7-1.2-.4-.5-.8-1.1-1-1.8s-.3-1.4-.3-2.2.1-1.6.4-2.3c.2-.7.6-1.3 1-1.8.5-.5 1-.9 1.7-1.2.7-.3 1.4-.4 2.3-.4.9 0 1.7.1 2.3.4.7.3 1.2.7 1.7 1.2.4.5.8 1.1 1 1.8.2.7.3 1.5.3 2.3s-.1 1.6-.3 2.2-.6 1.3-1 1.8-1 .9-1.7 1.2c-.6.2-1.4.4-2.3.4zm.1-2.7c.6 0 1-.3 1.3-.8.3-.5.4-1.3.4-2.2 0-.9-.1-1.6-.4-2.2s-.7-.8-1.3-.8-1 .3-1.3.8c-.3.5-.4 1.3-.4 2.2 0 .9.1 1.6.4 2.2s.6.8 1.3.8zM336.7 20.3h3.2l.3 1.5c.3-.6.7-1 1.2-1.3.5-.3 1.1-.5 1.9-.5.9 0 1.5.2 2 .6.5.4.8.8 1 1.3.1-.2.3-.5.4-.7s.4-.4.7-.6c.3-.2.6-.3 1-.4.4-.1.8-.2 1.3-.2.8 0 1.4.1 1.8.4.5.3.8.6 1.1 1 .3.4.4.9.5 1.4.1.5.1 1.1.1 1.6V31h-3.5v-5.6c0-.8-.1-1.4-.3-1.8-.2-.4-.6-.6-1.1-.6-.2 0-.3 0-.5.1s-.3.2-.5.4c-.1.2-.3.4-.4.8-.1.3-.1.8-.1 1.3V31h-3.5v-5.7c0-.8-.1-1.3-.3-1.7s-.6-.6-1.1-.6c-.2 0-.3 0-.5.1s-.3.2-.5.4c-.1.2-.3.5-.4.9-.1.4-.1.9-.1 1.5V31h-3.5V20.3zM354.7 20.3h3.5v1.4c.2-.5.6-.9 1.1-1.2.5-.3 1.1-.5 1.8-.5 1.2 0 2.2.5 2.9 1.4.7.9 1.1 2.3 1.1 4.2 0 1.1-.1 2-.4 2.8-.3.7-.6 1.3-1 1.7-.4.4-.9.7-1.4.9-.5.2-1 .3-1.4.3-.5 0-1.1-.1-1.6-.3-.5-.2-.9-.5-1.1-.9v4.6h-3.5V20.3zm3.6 5.5c0 .4 0 .7.1 1l.3.9c.1.2.3.4.5.6.2.1.5.2.7.2.5 0 .9-.2 1.2-.7.3-.5.4-1.1.4-2.1s-.1-1.6-.4-2.1-.7-.7-1.2-.7c-.3 0-.5.1-.7.2-.2.1-.4.3-.5.6-.1.2-.2.5-.3.8 0 .3-.1.6-.1 1v.3zM372.5 31c-.1-.2-.2-.4-.2-.6s-.1-.5-.1-.7c-.2.4-.5.8-1 1.1-.5.3-1.1.5-1.9.5-.6 0-1.1-.1-1.5-.3-.4-.2-.8-.4-1.1-.7s-.5-.7-.7-1.1-.2-.9-.2-1.4c0-.5.1-1 .3-1.4.2-.4.5-.7.8-1 .4-.3.8-.5 1.3-.7s1.1-.3 1.7-.4l2.1-.3v-.2c0-.4-.1-.7-.3-.9-.2-.2-.6-.2-1-.2-.7 0-1.2.1-1.7.4-.5.2-.9.5-1.2.8l-1.7-2.3c.2-.2.5-.4.8-.6.3-.2.7-.4 1.1-.5.4-.1.9-.3 1.4-.4.5-.1 1.1-.1 1.7-.1 1.6 0 2.7.3 3.4 1 .7.7 1 1.7 1 3.1V29c0 .3 0 .6.1.8 0 .2.1.4.1.6.1.2.1.4.2.6h-3.4zm-.6-4.7l-1.4.3c-.5.1-.8.2-1.1.4-.2.2-.3.5-.3.8 0 .3.1.6.3.8.2.2.5.3.8.3.5 0 .9-.2 1.2-.6.3-.4.5-.9.5-1.6v-.4zM377.1 20.3h3.2l.3 1.5c.3-.5.8-.9 1.4-1.3.6-.3 1.2-.5 2-.5 2.4 0 3.5 1.5 3.5 4.5V31H384v-5.6c0-.8-.1-1.4-.4-1.8s-.6-.5-1.2-.5c-.3 0-.5 0-.7.1-.2.1-.4.2-.5.5-.2.2-.3.5-.4.9-.1.4-.1.8-.1 1.4v5h-3.5V20.3zM389 16.1h3.5v2.8H389v-2.8zm0 4.2h3.5V31H389V20.3zM397.3 26.5c.1.8.4 1.4.8 1.7.4.3.9.5 1.4.5.4 0 .8-.1 1.2-.3.3-.2.6-.5.9-.9l2.6 1.5c-.5.8-1.2 1.4-2.1 1.8s-1.8.6-2.8.6c-.9 0-1.7-.1-2.4-.4-.7-.3-1.3-.7-1.8-1.2s-.8-1.1-1.1-1.8c-.2-.7-.4-1.4-.4-2.2 0-.8.1-1.6.4-2.3.3-.7.6-1.3 1.1-1.8.5-.5 1-.9 1.7-1.2.7-.3 1.4-.4 2.3-.4.8 0 1.6.1 2.2.4.6.3 1.2.7 1.6 1.2.4.5.8 1.1 1 1.8.2.7.3 1.5.3 2.4V26.5h-6.9zm1.8-3.9c-1 0-1.6.6-1.8 1.9h3.4c0-.5-.1-1-.4-1.4-.2-.3-.6-.5-1.2-.5zM406.3 27.5c.2.2.4.3.6.5.2.2.5.3.8.4l.9.3c.3.1.6.1.9.1.3 0 .5 0 .8-.1s.4-.3.4-.5c0-.3-.1-.5-.4-.6s-.6-.3-1-.4c-.4-.1-.9-.2-1.4-.4-.5-.1-.9-.3-1.4-.6-.4-.3-.8-.6-1-1-.3-.4-.4-1-.4-1.6 0-.6.1-1.1.4-1.6s.6-.8 1-1.1.9-.5 1.4-.6c.5-.1 1.1-.2 1.7-.2 1 0 1.8.1 2.5.3.7.2 1.4.5 2 .9l-1.6 2.4c-.1-.1-.3-.3-.5-.4-.2-.1-.5-.2-.7-.3l-.9-.3c-.3-.1-.6-.1-.9-.1-.2 0-.4 0-.6.1-.2.1-.2.2-.2.5 0 .2.1.4.4.6.3.1.6.3 1 .4.4.1.9.3 1.3.4.5.2.9.4 1.3.6.4.3.8.6 1 1 .3.4.4.9.4 1.5s-.1 1.2-.4 1.6c-.3.5-.6.8-1.1 1.1-.4.3-.9.5-1.5.7-.5.1-1.1.2-1.6.2-2 0-3.7-.5-5-1.5l1.8-2.3zM419.5 16.2h3.5V31h-3.5V16.2zM424.7 16.1h3.5v2.8h-3.5v-2.8zm0 4.2h3.5V31h-3.5V20.3zM429.9 16.2h3.5v8.1l3.5-3.9h4.3l-4.2 4.1 4.2 6.6h-4l-2.4-4.5-1.4 1.3V31h-3.5V16.2z"/><path class="copy_purpleFill" d="M444.4 26.5c.1.8.4 1.4.8 1.7.4.3.9.5 1.4.5.4 0 .8-.1 1.2-.3.3-.2.6-.5.9-.9l2.6 1.5c-.5.8-1.2 1.4-2.1 1.8s-1.8.6-2.8.6c-.9 0-1.7-.1-2.4-.4-.7-.3-1.3-.7-1.8-1.2s-.8-1.1-1.1-1.8c-.2-.7-.4-1.4-.4-2.2 0-.8.1-1.6.4-2.3.3-.7.6-1.3 1.1-1.8.5-.5 1-.9 1.7-1.2.7-.3 1.4-.4 2.3-.4.8 0 1.6.1 2.2.4.6.3 1.2.7 1.6 1.2.4.5.8 1.1 1 1.8.2.7.3 1.5.3 2.4V26.5h-6.9zm1.8-3.9c-1 0-1.6.6-1.8 1.9h3.4c0-.5-.1-1-.4-1.4-.2-.3-.7-.5-1.2-.5zM457.2 32.1c.3.1.5.2.8.2.3.1.5.1.7.1.3 0 .6-.1.7-.2.2-.1.3-.4.4-.7L456 20.3h3.8l1.8 7.2 1.8-7.2h3.8L463.5 31c-.2.6-.4 1.1-.6 1.6-.2.5-.5.9-.8 1.3-.3.4-.8.6-1.3.8-.5.2-1.2.3-2 .3h-1.1c-.2 0-.4 0-.6-.1s-.3-.1-.5-.1l.6-2.7zM472.4 31.4c-.9 0-1.7-.1-2.4-.4-.7-.3-1.2-.7-1.7-1.2-.4-.5-.8-1.1-1-1.8-.2-.7-.3-1.4-.3-2.2s.1-1.6.4-2.3c.2-.7.6-1.3 1-1.8.5-.5 1-.9 1.7-1.2.7-.3 1.4-.4 2.3-.4.9 0 1.7.1 2.3.4.7.3 1.2.7 1.7 1.2.4.5.8 1.1 1 1.8.2.7.3 1.5.3 2.3s-.1 1.6-.3 2.2c-.2.7-.6 1.3-1 1.8s-1 .9-1.7 1.2c-.6.2-1.4.4-2.3.4zm.1-2.7c.6 0 1-.3 1.3-.8s.4-1.3.4-2.2c0-.9-.1-1.6-.4-2.2s-.7-.8-1.3-.8-1 .3-1.3.8c-.3.5-.4 1.3-.4 2.2 0 .9.1 1.6.4 2.2.2.5.7.8 1.3.8zM478.9 20.3h3.5v5.9c0 .7.1 1.2.3 1.5.2.3.6.5 1.1.5.6 0 1-.2 1.3-.7.3-.4.5-1.1.5-2.1v-5.2h3.5V31h-3.3v-1.6c-.3.6-.7 1-1.1 1.3-.5.3-1.2.5-2 .5-1.3 0-2.2-.4-2.8-1.1-.6-.7-.9-1.8-.9-3.2v-6.6zM490.8 20.3h3.2l.3 2c.3-.6.8-1.2 1.4-1.6.6-.4 1.4-.7 2.3-.7v3.6c-.3-.1-.6-.1-1.1-.1-.3 0-.6 0-.9.1s-.6.2-.8.3c-.2.2-.4.5-.6.8-.2.4-.2.9-.2 1.5V31h-3.5V20.3zM499.6 27.5c.2.2.4.3.6.5.2.2.5.3.8.4l.9.3c.3.1.6.1.9.1.3 0 .5 0 .8-.1s.4-.3.4-.5c0-.3-.1-.5-.4-.6s-.6-.3-1-.4c-.4-.1-.9-.2-1.4-.4-.5-.1-.9-.3-1.4-.6-.4-.3-.8-.6-1-1-.3-.4-.4-1-.4-1.6 0-.6.1-1.1.4-1.6s.6-.8 1-1.1.9-.5 1.4-.6c.5-.1 1.1-.2 1.7-.2 1 0 1.8.1 2.5.3.7.2 1.4.5 2 .9l-1.6 2.4c-.1-.1-.3-.3-.5-.4-.2-.1-.5-.2-.7-.3l-.9-.3c-.3-.1-.6-.1-.9-.1-.2 0-.4 0-.6.1-.2.1-.2.2-.2.5 0 .2.1.4.4.6.3.1.6.3 1 .4.4.1.9.3 1.3.4.5.2.9.4 1.3.6.4.3.8.6 1 1 .3.4.4.9.4 1.5s-.1 1.2-.4 1.6c-.3.5-.6.8-1.1 1.1-.4.3-.9.5-1.5.7-.5.1-1.1.2-1.6.2-2 0-3.7-.5-5-1.5l1.8-2.3z"/><g><path class="copy_purpleFill" d="M197.4 55c-.1-.2-.2-.4-.2-.6-.1-.3-.1-.5-.1-.7-.2.4-.5.8-1 1.1-.5.3-1.1.5-1.9.5-.6 0-1.1-.1-1.5-.3-.4-.2-.8-.4-1.1-.7-.3-.3-.5-.7-.7-1.1-.2-.4-.2-.9-.2-1.4 0-.5.1-1 .3-1.4.2-.4.5-.7.8-1s.8-.5 1.3-.7 1.1-.3 1.7-.4l2.1-.3v-.2c0-.4-.1-.7-.3-.9s-.6-.2-1-.2c-.7 0-1.2.1-1.7.4-.5.2-.9.5-1.2.8l-1.7-2.3c.2-.2.5-.4.8-.6.3-.2.7-.4 1.1-.5.4-.1.9-.3 1.4-.4.5-.1 1.1-.1 1.7-.1 1.6 0 2.7.3 3.4 1 .7.7 1 1.7 1 3.1V53c0 .3 0 .6.1.8 0 .2.1.4.1.6.1.2.1.4.2.6h-3.4zm-.6-4.7l-1.4.3c-.5.1-.8.2-1.1.4-.2.2-.3.5-.3.8 0 .3.1.6.3.8.2.2.5.3.8.3.5 0 .9-.2 1.2-.6.3-.4.5-.9.5-1.6v-.4zM202.1 44.3h3.2l.3 2c.3-.6.8-1.2 1.4-1.6.6-.4 1.4-.7 2.3-.7v3.6c-.3-.1-.6-.1-1.1-.1-.3 0-.6 0-.9.1-.3 0-.6.2-.8.3-.2.2-.4.5-.6.8-.2.4-.2.9-.2 1.5V55h-3.5V44.3zM212.9 50.5c.1.8.4 1.4.8 1.7.4.3.9.5 1.4.5.4 0 .8-.1 1.2-.3s.6-.5.9-.9l2.6 1.5c-.5.8-1.2 1.4-2.1 1.8-.8.4-1.8.6-2.8.6-.9 0-1.7-.1-2.4-.4-.7-.3-1.3-.7-1.8-1.2s-.8-1.1-1.1-1.8c-.2-.7-.4-1.4-.4-2.2 0-.8.1-1.6.4-2.3s.6-1.3 1.1-1.8 1-.9 1.7-1.2c.7-.3 1.4-.4 2.3-.4.8 0 1.6.1 2.2.4.6.3 1.2.7 1.6 1.2s.8 1.1 1 1.8c.2.7.3 1.5.3 2.4V50.5h-6.9zm1.8-3.9c-1 0-1.6.6-1.8 1.9h3.4c0-.5-.1-1-.4-1.4-.2-.3-.7-.5-1.2-.5zM226.4 51.5c.2.2.4.3.6.5.2.2.5.3.8.4l.9.3c.3.1.6.1.9.1.3 0 .5 0 .8-.1.3-.1.4-.3.4-.5 0-.3-.1-.5-.4-.6-.3-.1-.6-.3-1-.4-.4-.1-.9-.2-1.4-.4s-.9-.3-1.4-.6-.8-.6-1-1c-.3-.4-.4-1-.4-1.6 0-.6.1-1.1.4-1.6.3-.4.6-.8 1-1.1s.9-.5 1.4-.6c.5-.1 1.1-.2 1.7-.2 1 0 1.8.1 2.5.3.7.2 1.4.5 2 .9l-1.6 2.4c-.1-.1-.3-.3-.5-.4-.2-.1-.5-.2-.7-.3l-.9-.3c-.3-.1-.6-.1-.9-.1-.2 0-.4 0-.6.1-.2.1-.2.2-.2.5 0 .2.1.4.4.6.3.1.6.3 1 .4.4.1.9.3 1.3.4s.9.4 1.3.6c.4.3.8.6 1 1 .3.4.4.9.4 1.5s-.1 1.2-.4 1.6-.6.8-1.1 1.1c-.4.3-.9.5-1.5.7-.5.1-1.1.2-1.6.2-2 0-3.7-.5-5-1.5l1.8-2.3zM241.7 55c-.1-.2-.2-.4-.2-.6-.1-.3-.1-.5-.1-.7-.2.4-.5.8-1 1.1-.5.3-1.1.5-1.9.5-.6 0-1.1-.1-1.5-.3-.4-.2-.8-.4-1.1-.7-.3-.3-.5-.7-.7-1.1-.2-.4-.2-.9-.2-1.4 0-.5.1-1 .3-1.4.2-.4.5-.7.8-1s.8-.5 1.3-.7 1.1-.3 1.7-.4l2.1-.3v-.2c0-.4-.1-.7-.3-.9s-.6-.2-1-.2c-.7 0-1.2.1-1.7.4-.5.2-.9.5-1.2.8l-1.7-2.3c.2-.2.5-.4.8-.6.3-.2.7-.4 1.1-.5.4-.1.9-.3 1.4-.4.5-.1 1.1-.1 1.7-.1 1.6 0 2.7.3 3.4 1 .7.7 1 1.7 1 3.1V53c0 .3 0 .6.1.8 0 .2.1.4.1.6.1.2.1.4.2.6h-3.4zm-.5-4.7l-1.4.3c-.5.1-.8.2-1.1.4-.2.2-.3.5-.3.8 0 .3.1.6.3.8.2.2.5.3.8.3.5 0 .9-.2 1.2-.6.3-.4.5-.9.5-1.6v-.4zM245 44.3h3.9l1.7 7.4 1.7-7.4h3.8L252.7 55h-4.1L245 44.3zM256.8 40.1h3.5v2.8h-3.5v-2.8zm0 4.2h3.5V55h-3.5V44.3zM262 44.3h3.2l.3 1.5c.3-.5.8-.9 1.4-1.3.6-.3 1.2-.5 2-.5 2.4 0 3.5 1.5 3.5 4.5V55h-3.5v-5.6c0-.8-.1-1.4-.4-1.8s-.6-.5-1.2-.5c-.3 0-.5 0-.7.1s-.4.2-.5.5c-.2.2-.3.5-.4.9s-.1.8-.1 1.4v5H262V44.3zM275.2 55c.4.4.9.7 1.5 1s1.2.4 1.9.4 1.1-.1 1.4-.4.4-.7.4-1.3v-1c-.2.4-.6.7-1.1.9-.5.3-1 .4-1.7.4-.5 0-1-.1-1.5-.3-.5-.2-.9-.5-1.3-.9s-.7-1-.9-1.6-.4-1.5-.4-2.5c0-.9.1-1.7.3-2.4.2-.7.5-1.3.9-1.7.4-.5.8-.8 1.4-1.1.5-.2 1.1-.4 1.7-.4.7 0 1.2.1 1.7.4.5.3.9.7 1.2 1.3l.5-1.4h2.8v10.1c0 .7-.1 1.3-.3 1.8-.2.6-.5 1-.9 1.4-.4.4-1 .7-1.6.9-.7.2-1.5.3-2.4.3-.6 0-1.2 0-1.7-.1s-1-.2-1.5-.4c-.4-.1-.8-.3-1.2-.5-.4-.2-.7-.4-.9-.5l1.7-2.4zm5.2-5.4c0-.3 0-.7-.1-1s-.1-.6-.3-.8c-.1-.2-.3-.4-.5-.6-.2-.2-.5-.2-.8-.2-.2 0-.4 0-.6.1-.2.1-.4.2-.5.5s-.3.5-.4.8c-.1.3-.1.7-.1 1.2 0 .9.1 1.6.5 2s.7.6 1.2.6.9-.2 1.2-.6.4-1 .4-1.8v-.2zM289.8 44.3h3.5v5.9c0 .7.1 1.2.3 1.5s.6.5 1.1.5c.6 0 1-.2 1.3-.7.3-.4.5-1.1.5-2.1v-5.2h3.5V55h-3.3v-1.6c-.3.6-.7 1-1.1 1.3-.5.3-1.2.5-2 .5-1.3 0-2.2-.4-2.8-1.1-.6-.7-.9-1.8-.9-3.2v-6.6zM301.7 44.3h3.5v1.4c.2-.5.6-.9 1.1-1.2.5-.3 1.1-.5 1.8-.5 1.2 0 2.2.5 2.9 1.4.7.9 1.1 2.3 1.1 4.2 0 1.1-.1 2-.4 2.8-.3.7-.6 1.3-1 1.7-.4.4-.9.7-1.4.9-.5.2-1 .3-1.4.3-.5 0-1.1-.1-1.6-.3-.5-.2-.9-.5-1.1-.9v4.6h-3.5V44.3zm3.5 5.5c0 .4 0 .7.1 1l.3.9c.1.2.3.4.5.6.2.1.5.2.7.2.5 0 .9-.2 1.2-.7.3-.5.4-1.1.4-2.1 0-.9-.1-1.6-.4-2.1s-.7-.7-1.2-.7c-.3 0-.5.1-.7.2-.2.1-.4.3-.5.6s-.2.5-.3.8c0 .3-.1.6-.1 1v.3zM318.4 46.6h-1.7v-2.3h.3c.5 0 1-.1 1.3-.3.3-.2.6-.4.7-.7.2-.3.3-.6.4-1s.2-.8.3-1.1h2.2v3.1h2.2v2.3h-2.2v5c0 .3.1.6.2.8s.4.3.8.3h.4c.2 0 .4-.1.6-.2l.2 2.5c-.4.2-.8.3-1.2.3-.4.1-.8.1-1.2.1-.7 0-1.2-.1-1.6-.3s-.8-.4-1-.7-.4-.6-.5-1.1c-.1-.4-.2-.9-.2-1.4v-5.3zM329.8 55.4c-.9 0-1.7-.1-2.4-.4-.7-.3-1.2-.7-1.7-1.2-.4-.5-.8-1.1-1-1.8-.2-.7-.3-1.4-.3-2.2 0-.8.1-1.6.4-2.3.2-.7.6-1.3 1-1.8.5-.5 1-.9 1.7-1.2.7-.3 1.4-.4 2.3-.4.9 0 1.7.1 2.3.4.7.3 1.2.7 1.7 1.2.4.5.8 1.1 1 1.8s.3 1.5.3 2.3c0 .8-.1 1.6-.3 2.2-.2.7-.6 1.3-1 1.8s-1 .9-1.7 1.2c-.6.2-1.4.4-2.3.4zm.1-2.7c.6 0 1-.3 1.3-.8.3-.5.4-1.3.4-2.2 0-.9-.1-1.6-.4-2.2s-.7-.8-1.3-.8-1 .3-1.3.8c-.3.5-.4 1.3-.4 2.2 0 .9.1 1.6.4 2.2.2.5.6.8 1.3.8zM343 47.5c-.3-.1-.6-.2-.9-.4s-.6-.4-.8-.6c-.2-.3-.4-.5-.5-.8s-.2-.6-.2-1c0-.7.1-1.3.4-1.8.3-.5.7-.9 1.1-1.2.5-.3 1-.6 1.6-.7.6-.2 1.2-.2 1.9-.2.6 0 1.2.1 1.8.2.6.2 1.1.4 1.6.7.5.3.9.7 1.2 1.2.3.5.5 1.1.5 1.7 0 .7-.2 1.3-.7 1.9-.5.5-1.1.9-1.7 1 .9.2 1.6.5 2.1 1.1.5.6.8 1.3.8 2.3 0 .8-.2 1.5-.5 2.1-.3.6-.7 1-1.3 1.4s-1.1.6-1.8.8c-.7.2-1.3.3-2 .3s-1.3-.1-2-.3c-.7-.2-1.3-.4-1.8-.8s-.9-.8-1.3-1.4-.5-1.3-.5-2.1c0-.9.2-1.6.7-2.2.6-.7 1.4-1.1 2.3-1.2zm2.6 5.1c.5 0 1-.2 1.3-.5.4-.4.5-.8.5-1.4 0-.6-.2-1.1-.5-1.4-.3-.4-.8-.5-1.3-.5-.6 0-1.1.2-1.4.5-.3.4-.5.8-.5 1.4 0 .5.2 1 .5 1.4s.9.5 1.4.5zm-1.5-7.8c0 .5.1.9.4 1.2.3.3.7.5 1.1.5s.8-.2 1.1-.5.4-.8.4-1.2c0-.5-.1-.9-.4-1.2-.3-.3-.7-.5-1.1-.5-.5 0-.9.2-1.1.5-.3.3-.4.7-.4 1.2zM359.2 44.7c-.2-.4-.4-.8-.7-1s-.7-.4-1.1-.4c-.2 0-.5 0-.7.1s-.5.3-.7.5c-.2.3-.4.6-.5 1.1-.1.5-.2 1-.2 1.8V47.1c.2-.3.6-.7 1.1-1 .5-.3 1.2-.5 2-.5.7 0 1.3.1 1.8.3.5.2 1 .5 1.4.9.4.4.7.9.9 1.5.2.6.3 1.2.3 1.9s-.1 1.3-.3 1.9c-.2.6-.6 1.1-1 1.6s-1 .8-1.6 1.1-1.4.4-2.3.4c-.8 0-1.5-.1-2.2-.4-.7-.3-1.3-.7-1.9-1.3-.5-.6-1-1.3-1.3-2.1-.3-.8-.5-1.9-.5-3 0-1.5.2-2.7.5-3.7s.8-1.8 1.4-2.4c.6-.6 1.2-1.1 1.9-1.3.7-.3 1.3-.4 2-.4.6 0 1.2.1 1.7.2s1 .3 1.4.6c.4.2.7.5 1 .9s.5.7.7 1l-3.1 1.4zm-1.9 8.1c.5 0 .9-.2 1.2-.7.3-.4.4-1 .4-1.6 0-.7-.1-1.2-.4-1.7-.3-.4-.7-.7-1.2-.7s-.9.2-1.2.7c-.3.5-.4 1-.4 1.7s.2 1.3.5 1.7c.2.4.6.6 1.1.6zM367.3 48.9c-.7 0-1.2-.1-1.8-.4-.5-.2-.9-.6-1.3-1s-.6-.9-.8-1.5c-.2-.6-.3-1.2-.3-1.8 0-.6.1-1.2.3-1.7s.5-1 .8-1.4c.4-.4.8-.7 1.3-1s1.1-.3 1.7-.3c.7 0 1.4.1 1.9.3.5.2.9.5 1.3 1 .3.4.6.9.7 1.4s.2 1.1.2 1.7c0 .6-.1 1.2-.2 1.8-.2.6-.4 1.1-.7 1.5-.3.4-.8.8-1.3 1s-1 .4-1.8.4zm0-2.2c.2 0 .4-.1.5-.2s.2-.3.3-.6c.1-.2.1-.5.1-.8v-.8-.8c0-.3-.1-.5-.1-.7-.1-.2-.2-.4-.3-.5-.1-.1-.3-.2-.5-.2s-.4.1-.5.2c-.1.1-.2.3-.3.5-.1.2-.1.5-.1.7v1.6c0 .3.1.5.1.8l.3.6c.1.2.3.2.5.2zm8-7.1l1.9.9-7.3 14.9-1.9-.8 7.3-15zm2.6 15.7c-.7 0-1.2-.1-1.8-.4s-.9-.6-1.3-1-.6-.9-.8-1.5c-.2-.6-.3-1.2-.3-1.8 0-.6.1-1.2.3-1.7.2-.5.5-1 .8-1.4.4-.4.8-.7 1.3-1 .5-.2 1.1-.3 1.7-.3.7 0 1.4.1 1.9.3.5.2.9.5 1.3 1 .3.4.6.9.7 1.4s.2 1.1.2 1.7c0 .6-.1 1.2-.2 1.8-.2.6-.4 1.1-.7 1.5s-.8.8-1.3 1c-.4.2-1.1.4-1.8.4zm0-2.3c.2 0 .4-.1.5-.2l.3-.6c.1-.2.1-.5.1-.8v-.8-.8c0-.3-.1-.5-.1-.7-.1-.2-.2-.4-.3-.5-.1-.1-.3-.2-.5-.2s-.4.1-.5.2c-.1.1-.2.3-.3.5-.1.2-.1.5-.1.7v1.6c0 .3.1.5.1.8l.3.6c.1.2.3.2.5.2zM387.4 44.3h3.2l.3 1.5c.3-.6.7-1 1.2-1.3.5-.3 1.1-.5 1.9-.5.9 0 1.5.2 2 .6.5.4.8.8 1 1.3.1-.2.3-.5.4-.7.2-.2.4-.4.7-.6.3-.2.6-.3 1-.4.4-.1.8-.2 1.3-.2.8 0 1.4.1 1.8.4.5.3.8.6 1.1 1 .3.4.4.9.5 1.4s.1 1.1.1 1.6V55h-3.5v-5.6c0-.8-.1-1.4-.3-1.8-.2-.4-.6-.6-1.1-.6-.2 0-.3 0-.5.1s-.3.2-.5.4c-.1.2-.3.4-.4.8-.1.3-.1.8-.1 1.3V55H394v-5.7c0-.8-.1-1.3-.3-1.7s-.6-.6-1.1-.6c-.2 0-.3 0-.5.1s-.3.2-.5.4c-.1.2-.3.5-.4.8-.1.4-.1.9-.1 1.5V55h-3.5V44.3zM410.3 55.4c-.9 0-1.7-.1-2.4-.4-.7-.3-1.2-.7-1.7-1.2-.4-.5-.8-1.1-1-1.8-.2-.7-.3-1.4-.3-2.2 0-.8.1-1.6.4-2.3.2-.7.6-1.3 1-1.8.5-.5 1-.9 1.7-1.2.7-.3 1.4-.4 2.3-.4.9 0 1.7.1 2.3.4.7.3 1.2.7 1.7 1.2s.8 1.1 1 1.8c.2.7.3 1.5.3 2.3 0 .8-.1 1.6-.3 2.2-.2.7-.6 1.3-1 1.8s-1 .9-1.7 1.2c-.6.2-1.4.4-2.3.4zm.1-2.7c.6 0 1-.3 1.3-.8.3-.5.4-1.3.4-2.2 0-.9-.1-1.6-.4-2.2s-.7-.8-1.3-.8-1 .3-1.3.8c-.3.5-.4 1.3-.4 2.2 0 .9.1 1.6.4 2.2.2.5.7.8 1.3.8zM416.9 44.3h3.2l.3 2c.3-.6.8-1.2 1.4-1.6.6-.4 1.4-.7 2.3-.7v3.6c-.3-.1-.6-.1-1.1-.1-.3 0-.6 0-.9.1s-.6.2-.8.3c-.2.2-.4.5-.6.8-.2.4-.2.9-.2 1.5V55H417V44.3zM427.7 50.5c.1.8.4 1.4.8 1.7.4.3.9.5 1.4.5.4 0 .8-.1 1.2-.3.3-.2.6-.5.9-.9l2.6 1.5c-.5.8-1.2 1.4-2.1 1.8-.8.4-1.8.6-2.8.6-.9 0-1.7-.1-2.4-.4-.7-.3-1.3-.7-1.8-1.2s-.8-1.1-1.1-1.8c-.2-.7-.4-1.4-.4-2.2 0-.8.1-1.6.4-2.3s.6-1.3 1.1-1.8 1-.9 1.7-1.2c.7-.3 1.4-.4 2.3-.4.8 0 1.6.1 2.2.4.6.3 1.2.7 1.6 1.2.4.5.8 1.1 1 1.8.2.7.3 1.5.3 2.4V50.5h-6.9zm1.8-3.9c-1 0-1.6.6-1.8 1.9h3.4c0-.5-.1-1-.4-1.4-.2-.3-.6-.5-1.2-.5zM435.7 51.1h3.9V55h-3.9v-3.9z"/></g><g><path class="copy_grayFill" d="M191.1 65h4.1c2.1 0 3.6.5 4.7 1.4 1.1 1 1.6 2.5 1.6 4.6 0 2-.5 3.5-1.6 4.5s-2.6 1.5-4.5 1.5h-4.2V65zm4.1 10.1c.7 0 1.3-.1 1.7-.3s.8-.5 1.1-.9c.3-.4.5-.8.6-1.3.1-.5.2-1 .2-1.6s-.1-1.1-.2-1.6-.3-.9-.6-1.3-.6-.7-1.1-.9c-.5-.2-1.1-.3-1.8-.3h-1.6v8.2h1.7zM206.7 77.3c-.7 0-1.3-.1-1.8-.3-.5-.2-1-.6-1.3-1s-.6-.9-.8-1.4-.3-1.1-.3-1.8c0-.6.1-1.2.3-1.8s.5-1 .8-1.4.8-.7 1.3-1c.5-.2 1.1-.3 1.8-.3s1.3.1 1.8.3c.5.2 1 .5 1.3 1 .4.4.6.9.8 1.4.2.5.3 1.1.3 1.8 0 .6-.1 1.2-.3 1.8-.2.5-.4 1-.8 1.4-.4.4-.8.7-1.3 1-.5.2-1.1.3-1.8.3zm.1-1.8c.6 0 1-.3 1.3-.8.3-.5.4-1.2.4-2s-.1-1.5-.4-2c-.3-.5-.7-.8-1.3-.8-.6 0-1 .3-1.3.8s-.4 1.2-.4 2 .1 1.5.4 2c.2.6.6.8 1.3.8zM211.4 68.5h2.5l1.4 6.3 1.3-6.3h2.5l1.3 6.3 1.4-6.3h2.5l-2.7 8.5h-2.5l-1.3-5.3-1.3 5.3H214l-2.6-8.5zM225.5 68.5h2.1l.2 1.4c.2-.4.6-.8 1.1-1.1s1-.5 1.7-.5c.9 0 1.6.3 2.1.9.4.6.7 1.4.7 2.6V77h-2.3v-4.8c0-.7-.1-1.2-.4-1.5-.2-.3-.6-.5-1.1-.5-.5 0-.9.2-1.2.6-.3.4-.5 1-.5 2V77h-2.3v-8.5zM235.1 65h2.3v12h-2.3V65zM243 77.3c-.7 0-1.3-.1-1.8-.3-.5-.2-1-.6-1.3-1s-.6-.9-.8-1.4-.3-1.1-.3-1.8c0-.6.1-1.2.3-1.8s.5-1 .8-1.4.8-.7 1.3-1c.5-.2 1.1-.3 1.8-.3s1.3.1 1.8.3c.5.2 1 .5 1.3 1 .4.4.6.9.8 1.4.2.5.3 1.1.3 1.8 0 .6-.1 1.2-.3 1.8-.2.5-.4 1-.8 1.4-.4.4-.8.7-1.3 1-.5.2-1.1.3-1.8.3zm.1-1.8c.6 0 1-.3 1.3-.8.3-.5.4-1.2.4-2s-.1-1.5-.4-2c-.3-.5-.7-.8-1.3-.8-.6 0-1 .3-1.3.8s-.4 1.2-.4 2 .1 1.5.4 2c.2.6.6.8 1.3.8zM253.7 77c-.1-.2-.1-.3-.2-.6 0-.2-.1-.4-.1-.6-.2.4-.5.8-.9 1.1-.4.3-.9.4-1.6.4-.9 0-1.6-.3-2-.8s-.7-1.2-.7-2c0-.4.1-.8.2-1.1s.4-.6.7-.8c.3-.2.6-.4 1-.5.4-.1.8-.2 1.3-.3l1.9-.3v-.3c0-.5-.1-.8-.4-1-.2-.2-.6-.2-.9-.2-.6 0-1.1.1-1.5.3-.4.2-.7.5-1 .8l-1.1-1.5c.4-.3.9-.6 1.5-.9.6-.3 1.4-.4 2.4-.4 1.2 0 2 .3 2.6.8s.8 1.3.8 2.4v4.6c0 .2.1.3.1.5s.1.3.2.5h-2.3zm-.4-4l-1.5.3c-.5.1-.9.2-1.1.4-.2.2-.3.5-.3.8 0 .3.1.6.3.8.2.2.5.3.9.3.5 0 .9-.2 1.2-.6s.5-.9.5-1.5V73zM262.9 75.7c-.2.5-.5.9-.9 1.2-.4.3-.9.4-1.5.4-.5 0-1-.1-1.4-.3s-.8-.5-1.1-.9c-.3-.4-.5-.9-.7-1.4-.2-.6-.2-1.2-.2-1.9 0-.8.1-1.5.3-2 .2-.6.4-1 .8-1.4.3-.4.7-.6 1.1-.8.4-.2.8-.3 1.3-.3.6 0 1.1.1 1.5.4s.7.6.8.9V65h2.3v12H263v-1.3zm-.1-3.2c0-.3 0-.6-.1-.9-.1-.3-.2-.5-.3-.7-.1-.2-.3-.4-.5-.5-.2-.1-.5-.2-.8-.2-.6 0-1 .2-1.3.7-.3.5-.4 1.1-.4 1.8 0 .8.2 1.5.5 2s.7.7 1.2.7c.3 0 .5-.1.7-.2s.4-.3.5-.6c.1-.2.2-.5.3-.8.1-.3.1-.6.1-1v-.3zM271.5 70h-1.4v-1.5h.3c.4 0 .7-.1.9-.2s.4-.3.6-.5c.1-.2.2-.5.3-.8.1-.3.1-.6.2-1h1.4v2.4h1.8V70h-1.8v4.5c0 .3.1.6.2.8.1.2.4.3.7.3h.4c.1 0 .3-.1.4-.1l.2 1.6-.9.3c-.3 0-.6.1-.9.1-.5 0-.9-.1-1.2-.2-.3-.1-.6-.3-.7-.5-.2-.2-.3-.5-.4-.8-.1-.3-.1-.6-.1-1v-5zM276.9 65h2.3v4.8c.2-.4.5-.8 1-1.1.4-.3 1-.5 1.7-.5.9 0 1.6.3 2.1.9.4.6.7 1.5.7 2.6V77h-2.3v-4.9c0-.6-.1-1.1-.3-1.4-.2-.3-.6-.5-1.1-.5-.5 0-.9.2-1.2.6-.3.4-.5 1-.5 1.8V77H277V65zM288.4 73.3c.1.8.3 1.4.7 1.7.4.4.8.5 1.4.5.8 0 1.4-.4 1.9-1.1l1.7 1c-.4.6-.9 1.1-1.5 1.4-.6.3-1.3.5-2.2.5-.7 0-1.3-.1-1.9-.3-.5-.2-1-.5-1.4-1s-.6-.9-.8-1.4-.3-1.1-.3-1.8c0-.6.1-1.2.3-1.8.2-.6.5-1 .8-1.4.4-.4.8-.7 1.3-1 .5-.2 1.1-.3 1.8-.3.6 0 1.2.1 1.7.3.5.2.9.5 1.2.9.3.4.6.9.8 1.4.2.6.3 1.2.3 1.8v.5h-5.8zm1.7-3.4c-.5 0-.9.2-1.2.5-.3.4-.5.9-.5 1.5h3.5c0-.3 0-.5-.1-.8-.1-.2-.2-.5-.3-.6-.1-.2-.3-.3-.5-.5-.3 0-.6-.1-.9-.1zM307 75.2c-.4.7-.9 1.2-1.5 1.6-.6.3-1.4.5-2.2.5-.7 0-1.4-.1-1.9-.3-.5-.2-1-.6-1.3-1-.3-.4-.6-.9-.8-1.4-.2-.5-.2-1.1-.2-1.8s.1-1.3.3-1.9.5-1 .8-1.4.8-.7 1.3-.9c.5-.2 1.1-.3 1.8-.3.9 0 1.6.2 2.2.6.6.4 1.1.9 1.5 1.6l-1.9.9c-.2-.5-.4-.8-.7-1-.3-.2-.6-.3-1-.3-.3 0-.6.1-.8.2-.2.1-.4.3-.6.6-.2.2-.3.5-.3.8-.1.3-.1.7-.1 1 0 .3 0 .7.1 1l.3.9c.2.3.4.5.6.7.3.2.6.3 1 .3.5 0 .8-.1 1.1-.4s.5-.6.7-1l1.6 1zM313.3 77c-.1-.2-.1-.3-.2-.6 0-.2-.1-.4-.1-.6-.2.4-.5.8-.9 1.1-.4.3-.9.4-1.6.4-.9 0-1.6-.3-2-.8s-.7-1.2-.7-2c0-.4.1-.8.2-1.1s.4-.6.7-.8c.3-.2.6-.4 1-.5.4-.1.8-.2 1.3-.3l1.9-.3v-.3c0-.5-.1-.8-.4-1-.2-.2-.6-.2-.9-.2-.6 0-1.1.1-1.5.3-.4.2-.7.5-1 .8l-1.1-1.5c.4-.3.9-.6 1.5-.9.6-.3 1.4-.4 2.4-.4 1.2 0 2 .3 2.6.8s.8 1.3.8 2.4v4.6c0 .2.1.3.1.5s.1.3.2.5h-2.3zm-.4-4l-1.5.3c-.5.1-.9.2-1.1.4-.2.2-.3.5-.3.8 0 .3.1.6.3.8.2.2.5.3.9.3.5 0 .9-.2 1.2-.6s.5-.9.5-1.5V73zM317.7 74.5c.1.1.3.3.5.4.2.1.4.3.6.4.2.1.5.2.7.3.2.1.5.1.8.1.3 0 .6-.1.9-.2.3-.1.4-.3.4-.6s-.1-.5-.3-.6-.5-.3-.9-.4c-.3-.1-.7-.2-1.1-.3s-.8-.3-1.1-.5c-.3-.2-.6-.5-.9-.8-.2-.3-.3-.7-.3-1.3 0-.5.1-.9.3-1.2s.4-.6.8-.8.7-.4 1.1-.5c.4-.1.8-.2 1.3-.2.7 0 1.3.1 1.9.3.6.2 1 .4 1.5.8l-1.1 1.5c-.1-.1-.3-.2-.4-.3l-.6-.3c-.2-.1-.4-.2-.7-.2-.2-.1-.5-.1-.7-.1-.3 0-.5.1-.7.2s-.3.3-.3.6c0 .2.1.4.3.6s.5.3.9.4c.3.1.7.2 1.1.4.4.1.8.3 1.1.5.3.2.6.5.9.8.2.3.3.7.3 1.2s-.1.9-.3 1.2c-.2.4-.5.6-.8.9s-.7.4-1.1.5c-.4.1-.8.2-1.3.2-1.6 0-2.8-.4-3.8-1.3l1-1.7zM327.1 73.3c.1.8.3 1.4.7 1.7.4.4.8.5 1.4.5.8 0 1.4-.4 1.9-1.1l1.7 1c-.4.6-.9 1.1-1.5 1.4-.6.3-1.3.5-2.2.5-.7 0-1.3-.1-1.9-.3-.5-.2-1-.5-1.4-1s-.6-.9-.8-1.4-.3-1.1-.3-1.8c0-.6.1-1.2.3-1.8.2-.6.5-1 .8-1.4.4-.4.8-.7 1.3-1 .5-.2 1.1-.3 1.8-.3.6 0 1.2.1 1.7.3.5.2.9.5 1.2.9.3.4.6.9.8 1.4.2.6.3 1.2.3 1.8v.5h-5.8zm1.8-3.4c-.5 0-.9.2-1.2.5-.3.4-.5.9-.5 1.5h3.5c0-.3 0-.5-.1-.8-.1-.2-.2-.5-.3-.6-.1-.2-.3-.3-.5-.5-.3 0-.6-.1-.9-.1zM338.8 74.5c.1.1.3.3.5.4.2.1.4.3.6.4.2.1.5.2.7.3.2.1.5.1.8.1.3 0 .6-.1.9-.2.3-.1.4-.3.4-.6s-.1-.5-.3-.6-.5-.3-.9-.4c-.3-.1-.7-.2-1.1-.3s-.8-.3-1.1-.5c-.3-.2-.6-.5-.9-.8-.2-.3-.3-.7-.3-1.3 0-.5.1-.9.3-1.2s.4-.6.8-.8.7-.4 1.1-.5c.4-.1.8-.2 1.3-.2.7 0 1.3.1 1.9.3.6.2 1 .4 1.5.8l-1.1 1.5c-.1-.1-.3-.2-.4-.3l-.6-.3c-.2-.1-.4-.2-.7-.2-.2-.1-.5-.1-.7-.1-.3 0-.5.1-.7.2s-.3.3-.3.6c0 .2.1.4.3.6s.5.3.9.4c.3.1.7.2 1.1.4.4.1.8.3 1.1.5.3.2.6.5.9.8.2.3.3.7.3 1.2s-.1.9-.3 1.2c-.2.4-.5.6-.8.9s-.7.4-1.1.5c-.4.1-.8.2-1.3.2-1.6 0-2.8-.4-3.8-1.3l1-1.7zM346.9 70h-1.4v-1.5h.3c.4 0 .7-.1.9-.2s.4-.3.6-.5c.1-.2.2-.5.3-.8.1-.3.1-.6.2-1h1.4v2.4h1.8V70h-1.8v4.5c0 .3.1.6.2.8.1.2.4.3.7.3h.4c.1 0 .3-.1.4-.1l.2 1.6-.9.3c-.3 0-.6.1-.9.1-.5 0-.9-.1-1.2-.2-.3-.1-.6-.3-.7-.5-.2-.2-.3-.5-.4-.8-.1-.3-.1-.6-.1-1v-5zM352.2 68.5h2.3v4.9c0 1.3.4 1.9 1.3 1.9.5 0 1-.2 1.3-.6.3-.4.5-1.1.5-1.9v-4.2h2.3V77h-2.2v-1.4c-.2.5-.5.9-.9 1.2-.4.3-1 .5-1.7.5-1 0-1.7-.3-2.2-.9s-.7-1.4-.7-2.5v-5.4zM367.2 75.7c-.2.5-.5.9-.9 1.2-.4.3-.9.4-1.5.4-.5 0-1-.1-1.4-.3s-.8-.5-1.1-.9c-.3-.4-.5-.9-.7-1.4-.2-.6-.2-1.2-.2-1.9 0-.8.1-1.5.3-2 .2-.6.4-1 .8-1.4.3-.4.7-.6 1.1-.8.4-.2.8-.3 1.3-.3.6 0 1.1.1 1.5.4.4.3.7.6.8.9V65h2.3v12h-2.2v-1.3zm-.1-3.2c0-.3 0-.6-.1-.9-.1-.3-.2-.5-.3-.7-.1-.2-.3-.4-.5-.5-.2-.1-.5-.2-.8-.2-.6 0-1 .2-1.3.7-.3.5-.4 1.1-.4 1.8 0 .8.2 1.5.5 2s.7.7 1.2.7c.3 0 .5-.1.7-.2.2-.1.4-.3.5-.6.1-.2.2-.5.3-.8s.1-.6.1-1v-.3zM371.3 78.2c.2.1.4.1.6.1.2 0 .4.1.6.1.3 0 .5-.1.7-.2.2-.2.3-.5.4-.9l-3-8.8h2.5l1.7 6.2 1.7-6.2h2.5l-2.8 8.2c-.2.5-.4 1-.5 1.5-.2.4-.4.8-.6 1.1s-.6.5-.9.7c-.4.2-.9.2-1.5.2H371.5c-.1 0-.2 0-.3-.1l.1-1.9zM379.2 74.4h2.6V77h-2.6v-2.6z"/></g></svg>