<svg version="1.1" id="Layer_1" xmlns="https://www.w3.org/2000/svg" x="0" y="0" viewBox="0 0 728 90" xml:space="preserve"><style>.copy_purpleFill{fill:#662868}</style><path class="copy_purpleFill" d="M189.6 26.5h-4.8v-3.3h13.9v3.3h-4.8v13.7h-4.3V26.5zM203.6 40.6c-1 0-1.9-.2-2.7-.5s-1.4-.8-1.9-1.4c-.5-.6-.9-1.3-1.2-2-.3-.8-.4-1.6-.4-2.6s.1-1.8.4-2.6.7-1.5 1.2-2.1 1.2-1 1.9-1.4c.8-.3 1.7-.5 2.7-.5s1.9.2 2.7.5c.8.3 1.4.8 1.9 1.4s.9 1.3 1.2 2.1c.3.8.4 1.7.4 2.6s-.1 1.8-.4 2.6c-.3.8-.7 1.5-1.2 2-.5.6-1.2 1-1.9 1.4s-1.7.5-2.7.5zm.1-3.1c.7 0 1.2-.3 1.5-.9.3-.6.4-1.4.4-2.5s-.2-1.9-.5-2.5c-.3-.6-.8-.9-1.5-.9s-1.2.3-1.5.9c-.3.6-.5 1.5-.5 2.5s.2 1.9.5 2.5c.3.6.8.9 1.6.9zM218.6 38.5c-.3.6-.7 1.1-1.3 1.4-.5.3-1.2.5-2 .5-.7 0-1.4-.1-2-.4-.6-.3-1.1-.7-1.5-1.2-.4-.5-.8-1.2-1-2-.2-.8-.4-1.7-.4-2.8 0-1.2.1-2.2.4-3 .3-.8.7-1.4 1.1-1.9.5-.5 1-.8 1.6-1.1.6-.2 1.2-.3 1.7-.3.8 0 1.4.1 1.9.4.5.3.9.7 1.1 1.1v-6h4.1v16.9h-3.8v-1.6zm-.2-4.7c0-.4 0-.8-.1-1.1s-.2-.7-.3-.9c-.1-.3-.3-.5-.6-.7-.2-.2-.5-.2-.9-.2-.6 0-1.1.3-1.4.8s-.5 1.3-.5 2.2c0 1.1.2 1.9.5 2.4.4.6.8.9 1.4.9.3 0 .6-.1.8-.3.2-.2.4-.4.6-.7s.2-.6.3-1c.1-.4.1-.8.1-1.3v-.1zM231.6 40.2c-.1-.2-.2-.4-.2-.7-.1-.3-.1-.5-.1-.8-.2.5-.6.9-1.1 1.3-.5.4-1.3.6-2.2.6-.7 0-1.2-.1-1.7-.3-.5-.2-.9-.5-1.3-.8-.3-.4-.6-.8-.8-1.2-.2-.5-.3-1-.3-1.6 0-.6.1-1.2.3-1.6s.5-.8.9-1.2c.4-.3.9-.6 1.5-.8.6-.2 1.2-.3 1.9-.5l2.4-.4V32c0-.5-.1-.9-.4-1-.3-.2-.6-.3-1.1-.3-.8 0-1.4.1-1.9.4-.5.3-1 .6-1.4 1l-1.9-2.7.9-.6c.3-.2.8-.4 1.3-.6s1-.3 1.6-.4c.6-.1 1.2-.2 1.9-.2 1.8 0 3.1.4 3.9 1.2s1.2 1.9 1.2 3.5v5.6c0 .3 0 .6.1.9 0 .3.1.5.2.7.1.2.2.4.3.7h-4zm-.6-5.4l-1.7.3c-.6.1-1 .3-1.2.5-.3.2-.4.5-.4.9s.1.6.3.9c.2.2.5.3.9.3.6 0 1-.2 1.4-.6.4-.4.6-1.1.6-1.9v-.4zM237.1 41.4c.3.1.6.2.9.2.3.1.6.1.8.1.4 0 .7-.1.9-.3.2-.2.4-.5.5-.9L235.7 28h4.3l2.1 8.2 2.1-8.2h4.3l-4.2 12.1c-.2.7-.5 1.3-.7 1.8-.2.6-.6 1-.9 1.5-.4.4-.9.7-1.5 1-.6.2-1.4.3-2.3.3h-1.2c-.3 0-.5 0-.7-.1-.2 0-.4-.1-.5-.1l.6-3.1zM249.7 30.7c.4-.2.8-.4 1-.6.3-.2.5-.4.6-.6.2-.2.3-.5.3-.7 0-.3.1-.5.1-.8v-.4h-2v-4.2h4.4v4.2c0 .8-.1 1.4-.2 1.9s-.4 1-.7 1.4c-.3.4-.7.7-1.1 1-.4.3-1 .5-1.6.8l-.8-2zM256.4 36.1c.2.2.4.4.7.5.3.2.6.3.9.5.3.1.7.3 1 .3.4.1.7.1 1.1.1.3 0 .6 0 .9-.1.3-.1.4-.3.4-.6s-.2-.5-.5-.7c-.3-.2-.7-.3-1.2-.5-.5-.1-1-.3-1.5-.4-.6-.2-1.1-.4-1.5-.7-.5-.3-.9-.7-1.2-1.1-.3-.5-.5-1.1-.5-1.9 0-.7.1-1.3.4-1.8.3-.5.7-.9 1.2-1.3.5-.3 1-.6 1.7-.7.6-.2 1.3-.2 1.9-.2 1.1 0 2.1.1 2.9.4s1.6.6 2.3 1.1l-1.8 2.7c-.2-.1-.4-.3-.6-.4-.3-.1-.5-.3-.9-.4s-.6-.2-1-.3c-.3-.1-.7-.1-1-.1-.3 0-.5 0-.7.1-.2.1-.3.3-.3.5 0 .3.2.5.5.6.3.2.7.3 1.2.5s1 .3 1.5.5c.6.2 1.1.4 1.5.7.5.3.9.7 1.2 1.1.3.5.5 1 .5 1.8s-.2 1.3-.5 1.8-.7 1-1.2 1.3c-.5.3-1.1.6-1.7.8s-1.2.3-1.8.3c-2.3 0-4.2-.6-5.7-1.7l1.8-2.7zM271.5 23.2h4v16.9h-4V23.2zM281 35c.1.9.4 1.6.9 2 .5.4 1 .6 1.6.6.5 0 1-.1 1.3-.3.4-.2.7-.6 1-1l3 1.7c-.6.9-1.4 1.6-2.4 2a8.21 8.21 0 01-5.9.1c-.8-.3-1.5-.8-2-1.4-.5-.6-1-1.3-1.2-2.1-.3-.8-.4-1.6-.4-2.6 0-.9.1-1.8.4-2.6.3-.8.7-1.5 1.2-2.1.5-.6 1.2-1 2-1.4.8-.3 1.6-.5 2.6-.5.9 0 1.8.2 2.5.5s1.4.8 1.9 1.4c.5.6.9 1.3 1.2 2.1.3.8.4 1.7.4 2.8v.7H281zm2-4.4c-1.2 0-1.8.7-2 2.2h3.9c0-.6-.2-1.1-.5-1.6-.2-.4-.7-.6-1.4-.6zM297.4 40.2c-.1-.2-.2-.4-.2-.7-.1-.3-.1-.5-.1-.8-.2.5-.6.9-1.1 1.3-.5.4-1.3.6-2.2.6-.7 0-1.2-.1-1.7-.3-.5-.2-.9-.5-1.3-.8-.3-.4-.6-.8-.8-1.2-.2-.5-.3-1-.3-1.6 0-.6.1-1.2.3-1.6s.5-.8.9-1.2c.4-.3.9-.6 1.5-.8.6-.2 1.2-.3 1.9-.5l2.4-.4V32c0-.5-.1-.9-.4-1-.3-.2-.6-.3-1.1-.3-.8 0-1.4.1-1.9.4-.5.3-1 .6-1.4 1l-1.9-2.7.9-.6c.3-.2.8-.4 1.3-.6s1-.3 1.6-.4c.6-.1 1.2-.2 1.9-.2 1.8 0 3.1.4 3.9 1.2s1.2 1.9 1.2 3.5v5.6c0 .3 0 .6.1.9 0 .3.1.5.2.7.1.2.2.4.3.7h-4zm-.7-5.4l-1.7.3c-.6.1-1 .3-1.2.5-.3.2-.4.5-.4.9s.1.6.3.9c.2.2.5.3.9.3.6 0 1-.2 1.4-.6.4-.4.6-1.1.6-1.9v-.4zM310.1 38.5c-.3.6-.7 1.1-1.3 1.4-.5.3-1.2.5-2 .5-.7 0-1.4-.1-2-.4-.6-.3-1.1-.7-1.5-1.2-.4-.5-.8-1.2-1-2-.2-.8-.4-1.7-.4-2.8 0-1.2.1-2.2.4-3 .3-.8.7-1.4 1.1-1.9.5-.5 1-.8 1.6-1.1.6-.2 1.2-.3 1.7-.3.8 0 1.4.1 1.9.4.5.3.9.7 1.1 1.1v-6h4.1v16.9H310v-1.6zm-.3-4.7c0-.4 0-.8-.1-1.1s-.2-.7-.3-.9c-.1-.3-.3-.5-.6-.7-.2-.2-.5-.2-.9-.2-.6 0-1.1.3-1.4.8s-.5 1.3-.5 2.2c0 1.1.2 1.9.5 2.4.4.6.8.9 1.4.9.3 0 .6-.1.8-.3.2-.2.4-.4.6-.7s.2-.6.3-1c.1-.4.1-.8.1-1.3v-.1zM315.8 23.1h4v3.2h-4v-3.2zm0 4.9h4v12.2h-4V28zM321.7 28h3.6l.3 1.7c.4-.6.9-1.1 1.6-1.5.7-.4 1.4-.6 2.3-.6 2.7 0 4 1.7 4 5.1v7.4h-4v-6.4c0-1-.1-1.6-.4-2s-.7-.6-1.3-.6c-.3 0-.6.1-.8.2-.2.1-.4.3-.6.5-.2.3-.3.6-.4 1-.1.4-.1.9-.1 1.6v5.8h-4V28zM336.8 40.1c.5.5 1 .8 1.7 1.1.7.3 1.4.4 2.1.4.8 0 1.3-.2 1.6-.5.3-.3.4-.8.4-1.5v-1.2c-.3.4-.7.8-1.2 1.1-.5.3-1.2.4-2 .4-.6 0-1.1-.1-1.7-.3-.6-.2-1.1-.5-1.5-1-.4-.5-.8-1.1-1.1-1.8-.3-.8-.4-1.7-.4-2.8 0-1 .1-1.9.4-2.7.2-.8.6-1.4 1-2 .4-.5.9-1 1.5-1.2.6-.3 1.3-.4 2-.4.8 0 1.4.2 2 .5.6.3 1 .8 1.4 1.5l.5-1.7h3.2v11.6c0 .8-.1 1.4-.3 2.1-.2.6-.6 1.2-1 1.6s-1.1.8-1.9 1.1c-.8.3-1.7.4-2.7.4-.7 0-1.4-.1-2-.2s-1.2-.2-1.7-.4-1-.4-1.4-.6c-.4-.2-.8-.4-1.1-.6l2.2-2.9zm5.9-6.1c0-.4 0-.8-.1-1.1s-.2-.7-.3-1c-.1-.3-.3-.5-.6-.7-.2-.2-.5-.3-.9-.3-.3 0-.5.1-.7.2-.2.1-.4.3-.6.5-.2.2-.3.6-.4.9-.1.5-.1.9-.1 1.5 0 1 .2 1.8.5 2.3s.8.7 1.4.7c.6 0 1.1-.2 1.3-.7.3-.5.4-1.2.4-2.1V34zM353.5 23.2h4v6.3c.3-.5.8-1 1.4-1.4.6-.4 1.4-.6 2.4-.6 1.4 0 2.4.4 3.1 1.3.6.9 1 2.2 1 3.9v7.4h-4v-6.6c0-.8-.1-1.4-.4-1.8-.3-.4-.7-.6-1.3-.6-.6 0-1 .2-1.4.7-.4.5-.6 1.3-.6 2.4v6h-4v-17zM370.7 35c.1.9.4 1.6.9 2 .5.4 1 .6 1.6.6.5 0 1-.1 1.3-.3.4-.2.7-.6 1-1l3 1.7c-.6.9-1.4 1.6-2.4 2a8.21 8.21 0 01-5.9.1c-.8-.3-1.5-.8-2-1.4-.5-.6-1-1.3-1.2-2.1-.3-.8-.4-1.6-.4-2.6 0-.9.1-1.8.4-2.6.3-.8.7-1.5 1.2-2.1s1.2-1 2-1.4c.8-.3 1.6-.5 2.6-.5.9 0 1.8.2 2.5.5s1.4.8 1.9 1.4c.5.6.9 1.3 1.2 2.1.3.8.4 1.7.4 2.8v.7h-8.1zm2-4.4c-1.2 0-1.8.7-2 2.2h3.9c0-.6-.2-1.1-.5-1.6s-.7-.6-1.4-.6zM387 40.2c-.1-.2-.2-.4-.2-.7-.1-.3-.1-.5-.1-.8-.2.5-.6.9-1.1 1.3-.5.4-1.3.6-2.2.6-.7 0-1.2-.1-1.7-.3s-.9-.5-1.3-.8c-.3-.4-.6-.8-.8-1.2s-.3-1-.3-1.6c0-.6.1-1.2.3-1.6.2-.5.5-.8.9-1.2.4-.3.9-.6 1.5-.8.6-.2 1.2-.3 1.9-.5l2.4-.4V32c0-.5-.1-.9-.4-1-.3-.2-.6-.3-1.1-.3-.8 0-1.4.1-1.9.4-.5.3-1 .6-1.4 1l-1.9-2.7.9-.6c.3-.2.8-.4 1.3-.6.5-.2 1-.3 1.6-.4.6-.1 1.2-.2 1.9-.2 1.8 0 3.1.4 3.9 1.2s1.2 1.9 1.2 3.5v5.6c0 .3 0 .6.1.9 0 .3.1.5.2.7.1.2.2.4.3.7h-4zm-.6-5.4l-1.7.3c-.6.1-1 .3-1.2.5-.3.2-.4.5-.4.9s.1.6.3.9.5.3.9.3c.6 0 1-.2 1.4-.6.4-.4.6-1.1.6-1.9v-.4zM392.4 23.2h4v16.9h-4V23.2zM399.2 30.6h-1.9V28h.3c.6 0 1.1-.1 1.5-.3.4-.2.6-.5.8-.8.2-.3.3-.7.4-1.2.1-.4.2-.9.3-1.3h2.5V28h2.5v2.6h-2.5v5.7c0 .4.1.7.2.9.1.2.5.4.9.4h.5c.2 0 .4-.1.6-.2l.3 2.8c-.4.2-.9.3-1.3.4-.4.1-.9.1-1.4.1-.8 0-1.4-.1-1.9-.3-.5-.2-.9-.5-1.2-.8-.3-.3-.5-.7-.6-1.2-.1-.5-.2-1-.2-1.5v-6.3zM406.7 23.2h4v6.3c.3-.5.8-1 1.4-1.4.6-.4 1.4-.6 2.4-.6 1.4 0 2.4.4 3.1 1.3.6.9 1 2.2 1 3.9v7.4h-4v-6.6c0-.8-.1-1.4-.4-1.8-.3-.4-.7-.6-1.3-.6-.6 0-1 .2-1.4.7-.4.5-.6 1.3-.6 2.4v6h-4v-17zM425.3 28h4v1.6c.3-.6.7-1 1.2-1.4.5-.4 1.2-.6 2.1-.6 1.4 0 2.5.5 3.3 1.6.8 1.1 1.3 2.7 1.3 4.8 0 1.3-.2 2.3-.5 3.2-.3.8-.7 1.5-1.2 2s-1 .8-1.6 1c-.6.2-1.1.3-1.7.3-.6 0-1.2-.1-1.8-.3-.6-.2-1-.6-1.3-1v5.3h-4V28zm4 6.2c0 .4 0 .8.1 1.2.1.4.2.7.3 1s.4.5.6.6c.2.2.5.2.8.2.6 0 1-.3 1.3-.8.3-.5.5-1.3.5-2.4 0-1.1-.2-1.9-.5-2.4s-.8-.8-1.4-.8c-.3 0-.6.1-.8.3-.2.2-.4.4-.6.7l-.3.9c-.1.4-.1.7-.1 1.1v.4zM438.5 23.2h4v16.9h-4V23.2zM451.7 40.2c-.1-.2-.2-.4-.2-.7-.1-.3-.1-.5-.1-.8-.2.5-.6.9-1.1 1.3-.5.4-1.3.6-2.2.6-.7 0-1.2-.1-1.7-.3s-.9-.5-1.3-.8c-.3-.4-.6-.8-.8-1.2s-.3-1-.3-1.6c0-.6.1-1.2.3-1.6.2-.5.5-.8.9-1.2.4-.3.9-.6 1.5-.8.6-.2 1.2-.3 1.9-.5l2.4-.4V32c0-.5-.1-.9-.4-1-.3-.2-.6-.3-1.1-.3-.8 0-1.4.1-1.9.4-.5.3-1 .6-1.4 1l-1.9-2.7.9-.6c.3-.2.8-.4 1.3-.6.5-.2 1-.3 1.6-.4.6-.1 1.2-.2 1.9-.2 1.8 0 3.1.4 3.9 1.2s1.2 1.9 1.2 3.5v5.6c0 .3 0 .6.1.9 0 .3.1.5.2.7.1.2.2.4.3.7h-4zm-.6-5.4l-1.7.3c-.6.1-1 .3-1.2.5-.3.2-.4.5-.4.9s.1.6.3.9.5.3.9.3c.6 0 1-.2 1.4-.6.4-.4.6-1.1.6-1.9v-.4zM457 28h3.6l.3 1.7c.4-.6.9-1.1 1.6-1.5.7-.4 1.4-.6 2.3-.6 2.7 0 4 1.7 4 5.1v7.4h-4v-6.4c0-1-.1-1.6-.4-2s-.7-.6-1.3-.6c-.3 0-.6.1-.8.2-.2.1-.4.3-.6.5-.2.3-.3.6-.4 1-.1.4-.1.9-.1 1.6v5.8h-4V28zM471.7 36.1c.2.2.4.4.7.5.3.2.6.3.9.5s.7.3 1 .3c.4.1.7.1 1.1.1.3 0 .6 0 .9-.1s.4-.3.4-.6-.2-.5-.5-.7-.7-.3-1.2-.5c-.5-.1-1-.3-1.5-.4-.6-.2-1.1-.4-1.5-.7-.5-.3-.9-.7-1.2-1.1-.3-.5-.5-1.1-.5-1.9 0-.7.1-1.3.4-1.8.3-.5.7-.9 1.2-1.3.5-.3 1-.6 1.7-.7.6-.2 1.3-.2 1.9-.2 1.1 0 2.1.1 2.9.4.8.3 1.6.6 2.3 1.1l-1.8 2.7c-.2-.1-.4-.3-.6-.4-.3-.1-.5-.3-.9-.4-.3-.1-.6-.2-1-.3-.3-.1-.7-.1-1-.1-.3 0-.5 0-.7.1-.2.1-.3.3-.3.5 0 .3.2.5.5.6.3.2.7.3 1.2.5s1 .3 1.5.5c.6.2 1.1.4 1.5.7.5.3.9.7 1.2 1.1.3.5.5 1 .5 1.8s-.2 1.3-.5 1.8-.7 1-1.2 1.3c-.5.3-1.1.6-1.7.8s-1.2.3-1.8.3c-2.3 0-4.2-.6-5.7-1.7l1.8-2.7zM494.2 40.2c-.1-.2-.2-.4-.2-.7-.1-.3-.1-.5-.1-.8-.2.5-.6.9-1.1 1.3-.5.4-1.3.6-2.2.6-.7 0-1.2-.1-1.7-.3s-.9-.5-1.3-.8c-.3-.4-.6-.8-.8-1.2s-.3-1-.3-1.6c0-.6.1-1.2.3-1.6.2-.5.5-.8.9-1.2.4-.3.9-.6 1.5-.8.6-.2 1.2-.3 1.9-.5l2.4-.4V32c0-.5-.1-.9-.4-1-.3-.2-.6-.3-1.1-.3-.8 0-1.4.1-1.9.4-.5.3-1 .6-1.4 1l-1.9-2.7.9-.6c.3-.2.8-.4 1.3-.6.5-.2 1-.3 1.6-.4.6-.1 1.2-.2 1.9-.2 1.8 0 3.1.4 3.9 1.2s1.2 1.9 1.2 3.5v5.6c0 .3 0 .6.1.9 0 .3.1.5.2.7.1.2.2.4.3.7h-4zm-.7-5.4l-1.7.3c-.6.1-1 .3-1.2.5-.3.2-.4.5-.4.9s.1.6.3.9.5.3.9.3c.6 0 1-.2 1.4-.6.4-.4.6-1.1.6-1.9v-.4zM499.5 28h3.6l.3 1.7c.4-.6.9-1.1 1.6-1.5.7-.4 1.4-.6 2.3-.6 2.7 0 4 1.7 4 5.1v7.4h-4v-6.4c0-1-.1-1.6-.4-2s-.7-.6-1.3-.6c-.3 0-.6.1-.8.2-.2.1-.4.3-.6.5-.2.3-.3.6-.4 1-.1.4-.1.9-.1 1.6v5.8h-4V28zM520.6 38.5c-.3.6-.7 1.1-1.3 1.4s-1.2.5-2 .5c-.7 0-1.4-.1-2-.4-.6-.3-1.1-.7-1.5-1.2s-.8-1.2-1-2-.4-1.7-.4-2.8c0-1.2.1-2.2.4-3s.7-1.4 1.1-1.9c.5-.5 1-.8 1.6-1.1s1.2-.3 1.7-.3c.8 0 1.4.1 1.9.4.5.3.9.7 1.1 1.1v-6h4.1v16.9h-3.8v-1.6zm-.2-4.7c0-.4 0-.8-.1-1.1-.1-.4-.2-.7-.3-.9-.1-.3-.3-.5-.6-.7-.2-.2-.5-.2-.9-.2-.6 0-1.1.3-1.4.8-.3.5-.5 1.3-.5 2.2 0 1.1.2 1.9.5 2.4.4.6.8.9 1.4.9.3 0 .6-.1.8-.3.2-.2.4-.4.6-.7.1-.3.2-.6.3-1 .1-.4.1-.8.1-1.3v-.1z"/><g><path class="copy_purpleFill" d="M189.6 55.5h-4.8v-3.3h13.9v3.3H194v13.7h-4.3V55.5zM199.9 52.2h7.2c.8 0 1.6.1 2.4.3.8.2 1.5.5 2.1.9.6.4 1.1 1 1.5 1.7.4.7.6 1.5.6 2.5 0 1.1-.2 2-.5 2.7-.3.7-.8 1.3-1.4 1.8-.6.5-1.3.8-2.1 1-.8.2-1.7.3-2.6.3h-2.9v5.7h-4.3V52.2zm6.5 7.9c.4 0 .7 0 1.1-.1.3-.1.6-.2.8-.4.2-.2.4-.4.6-.7.1-.3.2-.7.2-1.2 0-.4-.1-.7-.2-1-.2-.3-.4-.5-.6-.7s-.5-.3-.9-.4c-.3-.1-.7-.1-1-.1h-2.2v4.6h2.2zM218.5 52.2h3.8l6.6 16.9h-4.5l-1.2-3.5h-5.7l-1.2 3.5h-4.4l6.6-16.9zm3.6 10.2c-.3-.8-.6-1.7-.9-2.5-.3-.8-.6-1.7-.9-2.8-.2 1-.5 1.9-.8 2.7s-.6 1.7-.9 2.5h3.5zM231 65.1c.2.2.4.4.7.5.3.2.6.3.9.5.3.1.7.3 1 .3.4.1.7.1 1.1.1.3 0 .6 0 .9-.1.3-.1.4-.3.4-.6s-.2-.5-.5-.7c-.3-.2-.7-.3-1.2-.5-.5-.1-1-.3-1.5-.4-.6-.2-1.1-.4-1.5-.7-.5-.3-.9-.7-1.2-1.1-.3-.5-.5-1.1-.5-1.9 0-.7.1-1.3.4-1.8s.7-.9 1.2-1.3 1-.6 1.7-.7 1.3-.2 1.9-.2c1.1 0 2.1.1 2.9.4.8.3 1.6.6 2.3 1.1l-1.8 2.7c-.2-.1-.4-.3-.6-.4-.3-.1-.5-.3-.9-.4s-.6-.2-1-.3c-.3-.1-.7-.1-1-.1-.3 0-.5 0-.7.1-.2.1-.3.3-.3.5 0 .3.2.5.5.6.3.2.7.3 1.2.5s1 .3 1.5.5c.6.2 1.1.4 1.5.7.5.3.9.7 1.2 1.1.3.5.5 1 .5 1.8s-.2 1.3-.5 1.8-.7 1-1.2 1.3c-.5.3-1.1.6-1.7.8s-1.2.3-1.8.3c-2.3 0-4.2-.6-5.7-1.7l1.8-2.7zM253.4 69.2c-.1-.2-.2-.4-.2-.7s-.1-.5-.1-.8c-.2.5-.6.9-1.1 1.3-.5.4-1.3.6-2.2.6-.7 0-1.2-.1-1.7-.3-.5-.2-.9-.5-1.3-.8-.3-.4-.6-.8-.8-1.2-.2-.5-.3-1-.3-1.6 0-.6.1-1.2.3-1.6s.5-.8.9-1.2c.4-.3.9-.6 1.5-.8.6-.2 1.2-.3 1.9-.5l2.4-.4V61c0-.5-.1-.9-.4-1-.3-.2-.6-.3-1.1-.3-.8 0-1.4.1-1.9.4-.5.3-1 .6-1.4 1l-1.9-2.7.9-.6c.4-.2.8-.4 1.3-.6s1-.3 1.6-.4c.6-.1 1.2-.2 1.9-.2 1.8 0 3.1.4 3.9 1.2.8.8 1.2 1.9 1.2 3.5v5.6c0 .3 0 .6.1.9 0 .3.1.5.2.7.1.2.2.4.3.7h-4zm-.6-5.4l-1.7.3c-.6.1-1 .3-1.2.5s-.4.5-.4.9.1.6.3.9c.2.2.5.3.9.3.6 0 1-.2 1.4-.6s.6-1.1.6-1.9v-.4zM258.7 57h3.6l.3 2.3c.4-.7.9-1.4 1.5-1.9.7-.5 1.6-.8 2.7-.8v4.1c-.3-.1-.7-.1-1.3-.1-.3 0-.6 0-1 .1-.3.1-.6.2-.9.4-.3.2-.5.5-.7 1-.2.4-.3 1-.3 1.8v5.4h-4V57zM271.1 64c.1.9.4 1.6.9 2s1 .6 1.6.6c.5 0 1-.1 1.3-.3.4-.2.7-.6 1-1l3 1.7c-.6.9-1.4 1.6-2.4 2a8.21 8.21 0 01-5.9.1c-.8-.3-1.5-.8-2-1.4s-1-1.3-1.2-2.1c-.3-.8-.4-1.6-.4-2.6 0-.9.1-1.8.4-2.6.3-.8.7-1.5 1.2-2.1.5-.6 1.2-1 2-1.4s1.6-.5 2.6-.5c.9 0 1.8.2 2.5.5s1.4.8 1.9 1.4c.5.6.9 1.3 1.2 2.1s.4 1.7.4 2.8v.7h-8.1zm2-4.5c-1.2 0-1.8.7-2 2.2h3.9c0-.6-.2-1.1-.5-1.6-.2-.3-.7-.6-1.4-.6zM286.5 65.1c.2.2.4.4.7.5.3.2.6.3.9.5.3.1.7.3 1 .3.4.1.7.1 1.1.1.3 0 .6 0 .9-.1.3-.1.4-.3.4-.6s-.2-.5-.5-.7c-.3-.2-.7-.3-1.2-.5-.5-.1-1-.3-1.5-.4-.6-.2-1.1-.4-1.5-.7-.5-.3-.9-.7-1.2-1.1-.3-.5-.5-1.1-.5-1.9 0-.7.1-1.3.4-1.8s.7-.9 1.2-1.3 1-.6 1.7-.7 1.3-.2 1.9-.2c1.1 0 2.1.1 2.9.4.8.3 1.6.6 2.3 1.1l-1.8 2.7c-.2-.1-.4-.3-.6-.4-.3-.1-.5-.3-.9-.4s-.6-.2-1-.3c-.3-.1-.7-.1-1-.1-.3 0-.5 0-.7.1-.2.1-.3.3-.3.5 0 .3.2.5.5.6.3.2.7.3 1.2.5s1 .3 1.5.5c.6.2 1.1.4 1.5.7.5.3.9.7 1.2 1.1.3.5.5 1 .5 1.8s-.2 1.3-.5 1.8-.7 1-1.2 1.3c-.5.3-1.1.6-1.7.8s-1.2.3-1.8.3c-2.3 0-4.2-.6-5.7-1.7l1.8-2.7zM304 69.2c-.1-.2-.2-.4-.2-.7s-.1-.5-.1-.8c-.2.5-.6.9-1.1 1.3-.5.4-1.3.6-2.2.6-.7 0-1.2-.1-1.7-.3-.5-.2-.9-.5-1.3-.8-.3-.4-.6-.8-.8-1.2-.2-.5-.3-1-.3-1.6 0-.6.1-1.2.3-1.6s.5-.8.9-1.2c.4-.3.9-.6 1.5-.8.6-.2 1.2-.3 1.9-.5l2.4-.4V61c0-.5-.1-.9-.4-1-.3-.2-.6-.3-1.1-.3-.8 0-1.4.1-1.9.4-.5.3-1 .6-1.4 1l-1.9-2.7.9-.6c.4-.2.8-.4 1.3-.6s1-.3 1.6-.4c.6-.1 1.2-.2 1.9-.2 1.8 0 3.1.4 3.9 1.2.8.8 1.2 1.9 1.2 3.5v5.6c0 .3 0 .6.1.9 0 .3.1.5.2.7.1.2.2.4.3.7h-4zm-.6-5.4l-1.7.3c-.6.1-1 .3-1.2.5s-.4.5-.4.9.1.6.3.9c.2.2.5.3.9.3.6 0 1-.2 1.4-.6s.6-1.1.6-1.9v-.4zM307.8 57h4.5l2 8.4 1.9-8.4h4.3l-4 12.2h-4.7l-4-12.2zM321.3 52.1h4v3.2h-4v-3.2zm0 4.9h4v12.2h-4V57zM327.2 57h3.6l.3 1.7c.4-.6.9-1.1 1.6-1.5.7-.4 1.4-.6 2.3-.6 2.7 0 4 1.7 4 5.1v7.4h-4v-6.4c0-1-.1-1.6-.4-2-.3-.4-.7-.6-1.3-.6-.3 0-.6.1-.8.2-.2.1-.4.3-.6.5-.2.3-.3.6-.4 1s-.1.9-.1 1.6v5.8h-4V57zM342.3 69.1c.5.5 1 .8 1.7 1.1.7.3 1.4.4 2.1.4.8 0 1.3-.2 1.6-.5.3-.3.4-.8.4-1.5v-1.2c-.3.4-.7.8-1.2 1.1-.5.3-1.2.4-2 .4-.6 0-1.1-.1-1.7-.3-.6-.2-1.1-.5-1.5-1-.4-.5-.8-1.1-1.1-1.8-.3-.8-.4-1.7-.4-2.8 0-1 .1-1.9.4-2.7.2-.8.6-1.4 1-2s.9-1 1.5-1.2c.6-.3 1.3-.4 2-.4.8 0 1.4.2 2 .5.6.3 1 .8 1.4 1.5l.5-1.7h3.2v11.6c0 .8-.1 1.4-.3 2.1-.2.6-.6 1.2-1 1.6-.5.5-1.1.8-1.9 1.1-.8.3-1.7.4-2.7.4-.7 0-1.4-.1-2-.2-.6-.1-1.2-.2-1.7-.4s-1-.4-1.4-.6c-.4-.2-.8-.4-1.1-.6l2.2-2.9zm5.9-6.1c0-.4 0-.8-.1-1.1-.1-.4-.2-.7-.3-1-.1-.3-.3-.5-.6-.7-.2-.2-.5-.3-.9-.3-.3 0-.5.1-.7.2-.2.1-.4.3-.6.5s-.3.6-.4.9c-.1.4-.2.9-.2 1.4 0 1 .2 1.8.5 2.3.3.5.8.7 1.4.7.6 0 1.1-.2 1.3-.7.3-.5.4-1.2.4-2.1V63zM359 57h4v6.7c0 .8.1 1.3.4 1.7.2.4.7.6 1.2.6.7 0 1.2-.2 1.5-.7s.5-1.3.5-2.4V57h4v12.2h-3.8v-1.8c-.3.6-.8 1.1-1.3 1.5-.6.4-1.3.6-2.3.6-1.5 0-2.5-.4-3.2-1.2-.7-.8-1-2-1-3.6V57zM372.6 57h4v1.6c.3-.6.7-1 1.2-1.4s1.2-.6 2.1-.6c1.4 0 2.5.5 3.3 1.6.8 1.1 1.3 2.7 1.3 4.8 0 1.3-.2 2.3-.5 3.2-.3.8-.7 1.5-1.2 2s-1 .8-1.6 1c-.6.2-1.1.3-1.7.3-.6 0-1.2-.1-1.8-.3s-1-.6-1.3-1v5.3h-4V57zm4 6.2c0 .4 0 .8.1 1.2.1.4.2.7.3 1 .2.3.4.5.6.6.2.2.5.2.8.2.6 0 1-.3 1.3-.8.3-.5.5-1.3.5-2.4 0-1.1-.2-1.9-.5-2.4s-.8-.8-1.4-.8c-.3 0-.6.1-.8.3-.2.2-.4.4-.6.7l-.3.9c-.1.4-.1.7-.1 1.1v.4zM391.7 59.5h-1.9V57h.3c.6 0 1.1-.1 1.5-.3.4-.2.6-.5.8-.8.2-.3.3-.7.4-1.2.1-.4.2-.9.3-1.3h2.5V57h2.5v2.6h-2.5v5.7c0 .4.1.7.2.9.1.2.5.4.9.4h.5c.2 0 .4-.1.6-.2l.3 2.8c-.4.2-.9.3-1.3.4-.4.1-.9.1-1.4.1-.8 0-1.4-.1-1.9-.3-.5-.2-.9-.5-1.2-.8s-.5-.7-.6-1.2c-.1-.5-.2-1-.2-1.5v-6.4zM404.7 69.6c-1 0-1.9-.2-2.7-.5-.8-.3-1.4-.8-1.9-1.4s-.9-1.3-1.2-2c-.3-.8-.4-1.6-.4-2.6 0-.9.1-1.8.4-2.6s.7-1.5 1.2-2.1c.5-.6 1.2-1 1.9-1.4.8-.3 1.7-.5 2.7-.5s1.9.2 2.7.5 1.4.8 1.9 1.4c.5.6.9 1.3 1.2 2.1.3.8.4 1.7.4 2.6 0 .9-.1 1.8-.4 2.6-.3.8-.7 1.5-1.2 2-.5.6-1.2 1-1.9 1.4-.8.3-1.7.5-2.7.5zm.1-3.1c.7 0 1.2-.3 1.5-.9.3-.6.4-1.4.4-2.5s-.2-1.9-.5-2.5-.8-.9-1.5-.9-1.2.3-1.5.9c-.3.6-.5 1.5-.5 2.5s.2 1.9.5 2.5c.3.6.8.9 1.6.9zM419.8 60.6c-.4-.1-.7-.3-1-.5s-.6-.4-.9-.7c-.3-.3-.5-.6-.6-1-.2-.4-.2-.7-.2-1.2 0-.8.2-1.5.5-2 .3-.6.8-1 1.3-1.4.5-.4 1.2-.6 1.9-.8s1.4-.3 2.1-.3c.7 0 1.4.1 2.1.3.7.2 1.3.5 1.8.8s1 .8 1.3 1.4c.3.6.5 1.2.5 2s-.3 1.5-.8 2.1c-.6.6-1.2 1-2 1.2 1 .2 1.8.6 2.4 1.2.6.6.9 1.5.9 2.6 0 .9-.2 1.7-.6 2.4s-.9 1.2-1.5 1.6c-.6.4-1.3.7-2 .9-.8.2-1.5.3-2.3.3-.8 0-1.5-.1-2.3-.3-.8-.2-1.4-.5-2-.9-.6-.4-1.1-1-1.5-1.6-.4-.7-.6-1.4-.6-2.4s.3-1.9.9-2.5c.7-.7 1.5-1.1 2.6-1.2zm3 5.8c.6 0 1.1-.2 1.5-.6s.6-1 .6-1.6c0-.7-.2-1.2-.6-1.6-.4-.4-.9-.6-1.5-.6-.7 0-1.3.2-1.6.6-.4.4-.5 1-.5 1.6 0 .6.2 1.2.6 1.6s.8.6 1.5.6zm-1.8-8.9c0 .6.2 1 .5 1.4.3.4.8.6 1.2.6s.9-.2 1.2-.6c.3-.4.5-.9.5-1.4 0-.6-.2-1-.5-1.4-.3-.4-.7-.6-1.3-.6-.6 0-1 .2-1.3.6-.1.4-.3.8-.3 1.4zM438.2 57.4c-.2-.5-.5-.9-.8-1.2-.4-.3-.8-.4-1.2-.4-.3 0-.6.1-.8.2-.3.1-.6.3-.8.6-.2.3-.4.7-.6 1.2-.2.5-.2 1.2-.2 2V60.1c.3-.4.7-.8 1.3-1.1.6-.3 1.4-.5 2.3-.5.8 0 1.5.1 2.1.4s1.2.6 1.6 1.1c.4.5.8 1 1 1.7.2.7.3 1.4.3 2.2 0 .8-.1 1.5-.4 2.2-.3.7-.6 1.3-1.1 1.8s-1.1 1-1.9 1.3c-.8.3-1.6.5-2.6.5-.9 0-1.7-.2-2.5-.5s-1.5-.8-2.1-1.4c-.6-.6-1.1-1.5-1.5-2.4-.4-1-.6-2.1-.6-3.4 0-1.7.2-3.1.6-4.3.4-1.2.9-2.1 1.6-2.8s1.3-1.2 2.1-1.5c.8-.3 1.5-.5 2.3-.5.7 0 1.4.1 2 .3.6.2 1.1.4 1.6.7.5.3.8.6 1.2 1s.6.8.8 1.2l-3.7 1.3zm-2.1 9.2c.6 0 1-.3 1.4-.8.3-.5.5-1.1.5-1.8 0-.8-.2-1.4-.5-1.9s-.8-.8-1.3-.8c-.6 0-1.1.3-1.4.8-.3.5-.5 1.2-.5 1.9 0 .8.2 1.5.5 1.9.3.5.7.7 1.3.7zM447.6 62.2c-.8 0-1.4-.1-2-.4-.6-.3-1.1-.6-1.5-1.1-.4-.5-.7-1-.9-1.7-.2-.6-.3-1.3-.3-2.1 0-.7.1-1.4.3-2 .2-.6.5-1.2.9-1.6s.9-.8 1.5-1.1c.6-.3 1.2-.4 2-.4s1.5.1 2.1.4c.6.3 1.1.6 1.5 1.1s.7 1 .8 1.6c.2.6.3 1.3.3 2s-.1 1.4-.3 2.1c-.2.6-.5 1.2-.9 1.7s-.9.9-1.5 1.2c-.5.1-1.2.3-2 .3zm0-2.6c.2 0 .4-.1.6-.3.1-.2.3-.4.3-.7.1-.3.1-.6.2-.9v-.9-.9c0-.3-.1-.6-.2-.9-.1-.3-.2-.5-.3-.6-.1-.2-.3-.2-.6-.2-.2 0-.4.1-.6.2-.1.2-.3.4-.3.6-.1.3-.1.5-.2.8v1.8c0 .3.1.6.2.9.1.3.2.5.3.7.1.3.3.4.6.4zm9.1-8l2.2 1-8.4 17-2.2-.9 8.4-17.1zm3 17.8c-.8 0-1.4-.1-2-.4-.6-.3-1.1-.6-1.5-1.1-.4-.5-.7-1-.9-1.7-.2-.6-.3-1.3-.3-2.1 0-.7.1-1.4.3-2s.5-1.2.9-1.6c.4-.5.9-.8 1.5-1.1s1.2-.4 2-.4 1.5.1 2.1.4 1.1.6 1.5 1.1.7 1 .8 1.6.3 1.3.3 2-.1 1.4-.3 2.1c-.2.6-.5 1.2-.9 1.7s-.9.9-1.5 1.2-1.2.3-2 .3zm0-2.5c.2 0 .4-.1.6-.3s.3-.4.3-.7.1-.6.2-.9v-.9-.9c0-.3-.1-.6-.2-.9-.1-.3-.2-.5-.3-.6-.1-.2-.3-.2-.6-.2-.2 0-.4.1-.6.2-.1.2-.3.4-.3.6s-.1.5-.2.8v1.8c0 .3.1.6.2.9s.2.5.3.7c.1.3.3.4.6.4zM470.5 57h3.6l.3 1.7c.4-.7.8-1.2 1.4-1.5.6-.4 1.3-.5 2.1-.5 1 0 1.8.2 2.3.7.5.4.9.9 1.2 1.5.1-.3.3-.5.5-.8.2-.3.4-.5.7-.7s.7-.4 1.1-.5.9-.2 1.5-.2c.9 0 1.6.1 2.1.4.5.3.9.7 1.2 1.1s.5 1 .6 1.6c.1.6.1 1.2.1 1.9v7.5h-4v-6.4c0-.9-.1-1.6-.3-2-.2-.4-.7-.7-1.3-.7-.2 0-.4 0-.6.1-.2.1-.4.2-.6.4s-.3.5-.4.9c-.1.4-.2.9-.2 1.5v6.1h-4v-6.5c0-.9-.1-1.5-.4-1.9-.2-.4-.6-.6-1.2-.6-.2 0-.4 0-.6.1-.2.1-.4.2-.6.4-.2.2-.3.5-.4 1-.1.4-.2 1-.2 1.7v5.8h-4V57zM496.7 69.6c-1 0-1.9-.2-2.7-.5-.8-.3-1.4-.8-1.9-1.4s-.9-1.3-1.2-2c-.3-.8-.4-1.6-.4-2.6 0-.9.1-1.8.4-2.6s.7-1.5 1.2-2.1c.5-.6 1.2-1 1.9-1.4.8-.3 1.7-.5 2.7-.5s1.9.2 2.7.5 1.4.8 1.9 1.4c.5.6.9 1.3 1.2 2.1.3.8.4 1.7.4 2.6 0 .9-.1 1.8-.4 2.6-.3.8-.7 1.5-1.2 2-.5.6-1.2 1-1.9 1.4-.8.3-1.7.5-2.7.5zm.1-3.1c.7 0 1.2-.3 1.5-.9.3-.6.4-1.4.4-2.5s-.2-1.9-.5-2.5-.8-.9-1.5-.9-1.2.3-1.5.9c-.3.6-.5 1.5-.5 2.5s.2 1.9.5 2.5c.3.6.9.9 1.6.9zM504.2 57h3.6l.3 2.3c.4-.7.9-1.4 1.5-1.9s1.6-.8 2.7-.8v4.1c-.3-.1-.7-.1-1.3-.1-.3 0-.6 0-1 .1-.3.1-.6.2-.9.4-.3.2-.5.5-.7 1-.2.4-.3 1-.3 1.8v5.4h-4V57zM516.6 64c.1.9.4 1.6.9 2s1 .6 1.6.6c.5 0 1-.1 1.3-.3.4-.2.7-.6 1-1l3 1.7c-.6.9-1.4 1.6-2.4 2a8.21 8.21 0 01-5.9.1c-.8-.3-1.5-.8-2-1.4s-1-1.3-1.2-2.1c-.3-.8-.4-1.6-.4-2.6 0-.9.1-1.8.4-2.6.3-.8.7-1.5 1.2-2.1.5-.6 1.2-1 2-1.4.8-.3 1.6-.5 2.6-.5.9 0 1.8.2 2.5.5s1.4.8 1.9 1.4c.5.6.9 1.3 1.2 2.1s.4 1.7.4 2.8v.7h-8.1zm2-4.5c-1.2 0-1.8.7-2 2.2h3.9c0-.6-.2-1.1-.5-1.6-.2-.3-.7-.6-1.4-.6zM525.7 64.7h4.4v4.4h-4.4v-4.4z"/></g></svg>