<svg version="1.1" id="Layer_1" xmlns="https://www.w3.org/2000/svg" x="0" y="0" viewBox="0 0 73.2 9.6" xml:space="preserve"><style>.copy_whtieFill{fill:#fff}</style><path class="copy_whtieFill" d="M1.6 6.6c.1.1.2.2.3.4.1.1.3.2.5.3s.4.2.7.3.5.1.8.1c.4 0 .7-.1.9-.2.2-.1.3-.3.3-.5s0-.3-.1-.4c0-.2-.2-.3-.4-.4-.2-.1-.4-.2-.7-.2-.3-.1-.6-.1-1-.2-.9-.2-1.6-.6-2-1C.5 4.2.3 3.7.3 3c0-.4.1-.8.2-1.1.2-.4.4-.7.7-.9.3-.3.7-.5 1.1-.7C2.9.1 3.4 0 4 0c.7 0 1.4.1 2 .4.7.2 1.2.6 1.6 1.1L6.1 2.9c-.3-.2-.6-.5-.9-.7s-.8-.3-1.3-.3c-.3 0-.4.1-.6.1-.1 0-.2.1-.3.2-.1 0-.2.1-.2.2v.2c0 .2.1.4.3.6.2.2.6.3 1.2.5.7.2 1.2.4 1.7.6s.8.4 1 .6c.3.2.4.5.5.8s.1.6.1 1c0 .5-.1.9-.3 1.3-.2.3-.4.6-.8.8-.3.3-.7.5-1.2.6-.4.1-.9.2-1.4.2-.5 0-.9 0-1.3-.1-.5-.1-.8-.2-1.2-.3-.3-.2-.6-.3-.8-.5-.2-.2-.4-.3-.6-.5l1.6-1.6zM11.4.2h2.1l3.6 9.2h-2.5L14 7.5h-3.1l-.7 1.9H7.8L11.4.2zm2 5.5c-.2-.5-.3-.9-.5-1.3s-.3-.9-.5-1.5c-.1.5-.3 1-.4 1.5-.2.4-.3.9-.5 1.4h1.9zM16 .2h2.5l.6 1.8c.2.6.4 1.2.6 1.7.2.6.4 1.1.5 1.6.2.5.3 1 .4 1.4.1-.4.2-.9.4-1.4.2-.5.3-1 .5-1.6.3-.6.5-1.1.7-1.7l.6-1.8h2.4l-3.6 9.2h-2.1L16 .2zM26 .2h6.5V2h-4.2v1.7h2.9v1.8h-2.9v2.2h4.3v1.8H26V.2zM36.7.2h2.7c.1.3.2.6.4.9.1.3.3.7.4 1 .1.3.3.7.4 1 .1.3.2.6.4.9.1.3.2.5.3.7.1.2.1.4.2.5 0-.1.1-.3.2-.5s.2-.5.3-.7.2-.6.3-.9c.1-.3.3-.7.4-1s.3-.7.4-1c.1-.3.3-.6.4-.9h2.6v9.2h-2.2V7.8 6.1 4.6c0-.5 0-.8.1-1-.1.3-.2.6-.4 1s-.4.9-.6 1.5c-.2.5-.5 1.1-.7 1.7-.2.6-.5 1.1-.7 1.6h-.2c-.2-.6-.5-1.1-.7-1.7-.5-.6-.7-1.2-.9-1.7s-.4-1-.6-1.4c-.2-.4-.3-.8-.4-1 0 .2 0 .6.1 1s0 1 0 1.5v3.3h-2.2V.2zM51.7 9.6c-.6 0-1.2-.1-1.8-.3-.6-.2-1.1-.5-1.5-.9-.4-.4-.8-.9-1-1.5S47 5.6 47 4.8s.1-1.5.4-2.1c.3-.6.6-1.1 1-1.5s.9-.7 1.5-.9c.6-.2 1.2-.3 1.8-.3.6 0 1.2.1 1.8.3.5.2 1 .5 1.5.9.4.4.8.9 1 1.5s.4 1.3.4 2.1-.2 1.6-.4 2.1c-.3.6-.6 1.1-1 1.5-.4.4-.9.7-1.5.9-.6.2-1.2.3-1.8.3zm0-2c.3 0 .6-.1.9-.2.3-.1.5-.3.7-.5s.3-.5.5-.9.2-.8.2-1.2c0-.9-.2-1.6-.6-2.1-.6-.4-1.1-.7-1.8-.7s-1.2.2-1.5.7c-.4.5-.6 1.2-.6 2.1 0 .5.1.9.2 1.2.1.3.3.6.5.9s.4.4.7.5c.2.1.5.2.8.2zM57.5.2h3.8c.5 0 1 0 1.4.1.5.1.9.3 1.2.5.3.2.6.5.8.9s.3.9.3 1.4c0 .4-.1.7-.2 1s-.3.5-.5.7c-.2.2-.5.3-.7.5s-.6.1-.8.2c.2 0 .5.1.7.2.2.1.4.3.5.6l1.8 3.1H63l-1.1-2.2c-.1-.2-.2-.4-.3-.5l-.3-.3c-.1-.1-.2-.1-.4-.1h-1.1v3.1h-2.3V.2zm3.6 4.2h.5c.2 0 .3-.1.4-.2.1-.1.2-.2.3-.4.1-.2.1-.4.1-.7 0-.2 0-.4-.1-.6s-.1-.2-.3-.3c-.1-.1-.3-.2-.4-.2H59.9v2.5h1.2zM66.5.2H73V2h-4.2v1.7h2.9v1.8h-2.9v2.2h4.3v1.8h-6.6V.2z"/></svg>