<svg version="1.1" id="Layer_1" xmlns="https://www.w3.org/2000/svg" x="0" y="0" viewBox="0 0 728 90" xml:space="preserve"><style>.purpleFill{fill:#662868}.yellowFill{fill:#fdbc40}.orangeFill{fill:#ec7623}</style><path class="purpleFill" d="M595.9 60.2l-.7 3.9h7.7l-10.2 12.1-.4 2.8h14.5l.6-3.9h-8l9.9-11.9.6-3zM609.4 71.9c0-7 4.8-12.2 10.8-12.2 3.6 0 5.7 1.8 5.7 4.8 0 4.6-5.2 6.7-11.5 7.4.1 2.2.9 3.4 3 3.4 2 0 3.6-1 4.8-2l2 3.3c-1.5 1.2-3.8 2.7-7.5 2.7-4.8.1-7.3-2.9-7.3-7.4m5.3-3.1c3.8-.4 6.4-1.7 6.4-3.6 0-1-.6-1.5-1.8-1.5-2.3-.1-3.9 2.3-4.6 5.1M631.3 51.3h5l-5 27.7h-5zM639 60.2h5L640.6 79h-5l3.4-18.8zm.3-5.5c0-1.6 1.3-2.9 3-2.9 1.8 0 3 1.3 3 2.9 0 1.6-1.3 3-3 3s-3-1.4-3-3M643.2 77.6l2.1-3.4c.9.6 2.2 1.5 4 1.5 1.5 0 2.3-.7 2.3-1.7 0-1.2-1.3-2.1-2.8-3.7-1.4-1.5-2.5-2.9-2.5-5.1 0-3.2 2.5-5.3 6.7-5.3 2.5 0 4.3.7 5.5 1.7l-2.2 3.2c-.6-.5-1.7-1.1-3.2-1.1-1.3 0-2 .5-2 1.6 0 .9 1 1.7 2.4 3.2 1.8 1.8 3.2 3.3 3.2 5.7 0 3.4-2.5 5.5-7.3 5.5-3.3-.3-5.2-1.5-6.2-2.1"/><path transform="rotate(-44.996 671.88 68.556)" class="yellowFill" d="M666.9 66.9h10v3.3h-10z"/><path transform="rotate(-45.001 676.62 54.478)" class="yellowFill" d="M671.6 52.8h10v3.3h-10z"/><path transform="rotate(-45.001 681.322 63.87)" class="yellowFill" d="M679.7 58.9h3.3v10h-3.3z"/><path transform="rotate(-44.996 667.187 59.162)" class="yellowFill" d="M665.6 54.2h3.3v10h-3.3z"/><path transform="rotate(-45.001 676.625 68.568)" class="orangeFill" d="M675 63.6h3.3v10H675z"/><path transform="rotate(-45.001 671.928 54.476)" class="orangeFill" d="M670.3 49.5h3.3v10h-3.3z"/><path transform="rotate(-44.996 667.184 63.86)" class="orangeFill" d="M662.2 62.2h10v3.3h-10z"/><path transform="rotate(-45.004 681.273 59.163)" class="orangeFill" d="M676.3 57.5h10v3.3h-10z"/><path class="purpleFill" d="M683.7 68.6l-11.8-2.4 2.4-2.3 11.7 2.3zM674.3 59.2l-11.8-2.4 2.4-2.3 11.7 2.3zM671.9 61.5l-2.3 11.8-2.4-2.4 2.4-11.7zM681.3 52.1L679 63.9l-2.4-2.4 2.4-11.7zM657.6 77.6c0-1 .8-1.8 1.8-1.8s1.8.8 1.8 1.8-.8 1.8-1.8 1.8c-1 .1-1.8-.8-1.8-1.8m3.3 0c0-.9-.6-1.5-1.5-1.5s-1.5.6-1.5 1.5.6 1.5 1.5 1.5 1.5-.6 1.5-1.5m-2.2-1.1h.7c.5 0 .7.3.7.6s-.2.5-.5.6c.1.1.2.1.3.3l.4.7h-.5l-.5-.7c-.1-.2-.2-.2-.3-.2v.9h-.4v-2.2zm.7 1c.2 0 .4 0 .4-.3 0-.2-.1-.3-.4-.3h-.3v.6h.3z"/></svg>