<svg version="1.1" id="Layer_1" xmlns="https://www.w3.org/2000/svg" x="0" y="0" viewBox="0 0 728 90" xml:space="preserve"><style>.copy_purpleFill{fill:#662868}.copy_grayFill{fill:#5d6770}</style><path class="copy_purpleFill" d="M196.7 38.6c-1.3 0-2.6-.2-3.8-.6-1.2-.4-2.2-1-3.1-1.8-.9-.8-1.6-1.9-2.1-3.1-.5-1.3-.8-2.8-.8-4.5 0-1.7.3-3.2.8-4.5.5-1.3 1.2-2.3 2.1-3.2.9-.8 1.9-1.5 3.1-1.9 1.2-.4 2.4-.6 3.8-.6 1.3 0 2.6.2 3.8.6 1.2.4 2.2 1 3.1 1.8.9.8 1.6 1.9 2.2 3.2s.8 2.8.8 4.5c0 1.7-.3 3.2-.8 4.5-.5 1.3-1.3 2.3-2.2 3.1-.9.8-2 1.4-3.1 1.8-1.3.5-2.5.7-3.8.7zm0-4.3c.6 0 1.2-.1 1.8-.3.6-.2 1-.6 1.5-1s.7-1.1 1-1.8c.2-.7.3-1.6.3-2.6 0-1.9-.4-3.3-1.3-4.3s-2-1.5-3.4-1.5-2.5.5-3.3 1.5c-.8 1-1.2 2.5-1.2 4.3 0 1 .1 1.9.4 2.6.3.7.6 1.3 1 1.8s.9.8 1.5 1c.6.2 1.1.3 1.7.3zM208.1 24.2h4.1l.4 1.9c.4-.7 1-1.2 1.8-1.7s1.6-.7 2.6-.7c3.1 0 4.6 2 4.6 5.9v8.5H217v-7.3c0-1.1-.2-1.9-.5-2.3-.3-.4-.8-.7-1.5-.7-.3 0-.6.1-.9.2s-.5.3-.7.6c-.2.3-.4.7-.5 1.1s-.2 1.1-.2 1.8v6.6h-4.6V24.2zM223.6 18.8h4.6v19.3h-4.6V18.8zM230.6 39.5c.3.1.7.2 1 .3.4.1.7.1 1 .1.4 0 .7-.1 1-.3.2-.2.4-.5.5-1l-5-14.4h5l2.4 9.4 2.4-9.4h5L239 38c-.3.8-.5 1.5-.8 2.1-.3.6-.6 1.2-1.1 1.7-.4.5-1 .8-1.7 1.1-.7.3-1.5.4-2.6.4h-1.4c-.3 0-.5 0-.8-.1-.2 0-.4-.1-.6-.1l.6-3.6zM249.8 34.4l9.9-11.9h-9.1v-3.7h14.8v3.8l-9.9 11.9h10.1v3.7h-15.7v-3.8zM271 32.2c.2 1.1.5 1.8 1 2.3.5.4 1.1.6 1.8.6.6 0 1.1-.1 1.5-.4.4-.3.8-.6 1.1-1.2l3.4 1.9c-.7 1.1-1.6 1.8-2.7 2.3-1.1.5-2.3.7-3.6.7-1.2 0-2.2-.2-3.1-.6-.9-.4-1.7-.9-2.3-1.5-.6-.7-1.1-1.4-1.4-2.3-.3-.9-.5-1.9-.5-2.9 0-1.1.2-2 .5-3s.8-1.7 1.4-2.4c.6-.7 1.4-1.2 2.2-1.5.9-.4 1.9-.6 3-.6s2 .2 2.9.5c.8.4 1.5.9 2.1 1.5.6.7 1 1.5 1.3 2.4.3.9.5 2 .5 3.2v.8H271zm2.2-5.1c-1.3 0-2.1.8-2.3 2.5h4.5c0-.7-.2-1.3-.5-1.8-.3-.4-.9-.7-1.7-.7zM281.6 18.8h4.6v19.3h-4.6V18.8zM288.4 18.7h4.6v3.7h-4.6v-3.7zm0 5.5h4.6v13.9h-4.6V24.2zM296.4 33.5c.2.2.5.4.8.6.3.2.6.4 1 .6.4.2.8.3 1.2.4.4.1.8.2 1.2.2.3 0 .7-.1 1-.2.3-.1.5-.3.5-.7 0-.3-.2-.6-.5-.8-.4-.2-.8-.4-1.4-.5-.5-.2-1.1-.3-1.8-.5-.6-.2-1.2-.4-1.8-.8-.5-.3-1-.8-1.4-1.3-.4-.5-.5-1.2-.5-2.1 0-.8.2-1.5.5-2.1.3-.6.8-1.1 1.3-1.4.5-.4 1.2-.7 1.9-.8.7-.2 1.5-.3 2.2-.3 1.3 0 2.4.1 3.3.4.9.3 1.8.7 2.6 1.2l-2.1 3.1c-.2-.2-.4-.3-.7-.5-.3-.2-.6-.3-1-.5-.4-.1-.7-.2-1.1-.3-.4-.1-.8-.1-1.1-.1-.3 0-.6.1-.8.2-.2.1-.3.3-.3.6s.2.6.5.7.8.4 1.4.5c.5.2 1.1.4 1.8.6s1.2.5 1.8.8c.5.3 1 .8 1.4 1.3.4.5.5 1.2.5 2s-.2 1.5-.5 2.1-.8 1.1-1.4 1.5c-.6.4-1.2.7-1.9.9-.7.2-1.4.3-2.1.3-2.6 0-4.8-.7-6.5-2l2-3.1zM326.5 35.2c-.7 1.2-1.6 2-2.6 2.6s-2.3.8-3.7.8c-1.2 0-2.3-.2-3.2-.6-.9-.4-1.6-.9-2.2-1.6-.6-.7-1-1.4-1.3-2.3-.3-.9-.4-1.9-.4-2.9 0-1.1.2-2.2.5-3.1.3-.9.8-1.7 1.4-2.4s1.3-1.1 2.2-1.5c.9-.3 1.9-.5 3-.5 1.4 0 2.7.3 3.7.9s1.9 1.5 2.5 2.6l-3.8 1.8c-.3-.7-.6-1.1-1-1.4-.4-.3-.8-.4-1.3-.4-.9 0-1.5.3-1.8 1-.4.7-.6 1.6-.6 2.7 0 .4 0 .9.1 1.4.1.5.2.9.4 1.3s.5.7.8 1c.3.3.8.4 1.4.4.6 0 1.1-.2 1.5-.5.4-.3.7-.8 1-1.4l3.4 2.1zM327.6 18.8h4.6V26c.3-.6.9-1.1 1.6-1.6.7-.4 1.6-.7 2.7-.7 1.6 0 2.8.5 3.5 1.5.7 1 1.1 2.5 1.1 4.4V38h-4.6v-7.6c0-.9-.2-1.6-.5-2-.3-.5-.8-.7-1.5-.7s-1.2.3-1.6.8-.6 1.4-.6 2.7V38h-4.6V18.8zM347.1 32.2c.2 1.1.5 1.8 1 2.3.5.4 1.1.6 1.8.6.6 0 1.1-.1 1.5-.4.4-.3.8-.6 1.1-1.2l3.4 1.9c-.7 1.1-1.6 1.8-2.7 2.3-1.1.5-2.3.7-3.6.7-1.2 0-2.2-.2-3.1-.6-.9-.4-1.7-.9-2.3-1.5-.6-.7-1.1-1.4-1.4-2.3-.3-.9-.5-1.9-.5-2.9 0-1.1.2-2 .5-3s.8-1.7 1.4-2.4c.6-.7 1.4-1.2 2.2-1.5.9-.4 1.9-.6 3-.6s2 .2 2.9.5c.8.4 1.5.9 2.1 1.5.6.7 1 1.5 1.3 2.4.3.9.5 2 .5 3.2v.8h-9.1zm2.3-5.1c-1.3 0-2.1.8-2.3 2.5h4.5c0-.7-.2-1.3-.5-1.8-.4-.4-.9-.7-1.7-.7zM370.5 35.2c-.7 1.2-1.6 2-2.6 2.6-1.1.5-2.3.8-3.7.8-1.2 0-2.3-.2-3.2-.6-.9-.4-1.6-.9-2.2-1.6-.6-.7-1-1.4-1.3-2.3-.3-.9-.4-1.9-.4-2.9 0-1.1.2-2.2.5-3.1.3-.9.8-1.7 1.4-2.4s1.3-1.1 2.2-1.5c.9-.3 1.9-.5 3-.5 1.4 0 2.7.3 3.7.9 1 .6 1.9 1.5 2.5 2.6l-3.8 1.8c-.3-.7-.6-1.1-1-1.4-.4-.3-.8-.4-1.3-.4-.9 0-1.5.3-1.8 1-.4.7-.6 1.6-.6 2.7 0 .4 0 .9.1 1.4.1.5.2.9.4 1.3s.5.7.8 1c.3.3.8.4 1.4.4.6 0 1.1-.2 1.5-.5.4-.3.7-.8 1-1.4l3.4 2.1zM371.6 18.8h4.6v10.5l4.6-5.1h5.6l-5.5 5.3 5.4 8.7h-5.2l-3.1-5.9-1.8 1.8v4.1h-4.6V18.8zM388.4 33.5c.2.2.5.4.8.6.3.2.6.4 1 .6.4.2.8.3 1.2.4.4.1.8.2 1.2.2.3 0 .7-.1 1-.2.3-.1.5-.3.5-.7 0-.3-.2-.6-.5-.8-.4-.2-.8-.4-1.4-.5-.5-.2-1.1-.3-1.8-.5s-1.2-.4-1.8-.8c-.5-.3-1-.8-1.4-1.3-.4-.5-.5-1.2-.5-2.1 0-.8.2-1.5.5-2.1.3-.6.8-1.1 1.3-1.4.5-.4 1.2-.7 1.9-.8.7-.2 1.5-.3 2.2-.3 1.3 0 2.4.1 3.3.4.9.3 1.8.7 2.6 1.2l-2.1 3.1c-.2-.2-.4-.3-.7-.5-.3-.2-.6-.3-1-.5-.4-.1-.7-.2-1.1-.3s-.8-.1-1.1-.1c-.3 0-.6.1-.8.2-.2.1-.3.3-.3.6s.2.6.5.7c.4.2.8.4 1.4.5.5.2 1.1.4 1.8.6s1.2.5 1.8.8 1 .8 1.4 1.3c.4.5.5 1.2.5 2s-.2 1.5-.5 2.1c-.4.6-.8 1.1-1.4 1.5-.6.4-1.2.7-1.9.9-.7.2-1.4.3-2.1.3-2.6 0-4.8-.7-6.5-2l2-3.1zM406.9 27.1h-2.3v-3h2.1c-.1-.5-.2-.9-.3-1.3s-.1-.8-.1-1.1c0-.5.1-1 .2-1.4.1-.4.4-.8.7-1.1s.8-.6 1.4-.8c.6-.2 1.3-.3 2.3-.3.8 0 1.5 0 2 .1.6.1 1.1.2 1.6.4l-.7 3.4c-.2-.1-.5-.2-.9-.3-.4-.1-.7-.1-1-.1-.3 0-.6.1-.8.2-.2.1-.3.3-.3.7 0 .3 0 .6.1.9.1.3.2.5.3.7h2.7v3h-2.6v11h-4.6v-11zM421.2 38.6c-1.2 0-2.2-.2-3.1-.6-.9-.4-1.6-.9-2.2-1.5-.6-.7-1-1.4-1.3-2.3-.3-.9-.4-1.9-.4-2.9s.2-2 .5-2.9c.3-.9.8-1.7 1.4-2.4.6-.7 1.3-1.2 2.2-1.6.9-.4 1.9-.6 3-.6s2.2.2 3.1.6c.9.4 1.6.9 2.2 1.5s1 1.4 1.3 2.4c.3.9.5 1.9.5 3s-.2 2-.5 2.9c-.3.9-.7 1.7-1.3 2.3-.6.7-1.3 1.2-2.2 1.5-1 .4-2.1.6-3.2.6zm.1-3.5c.8 0 1.3-.3 1.7-1s.5-1.6.5-2.8-.2-2.1-.6-2.8-.9-1.1-1.7-1.1-1.3.4-1.7 1.1-.5 1.7-.5 2.8.2 2.1.6 2.8.9 1 1.7 1zM429.7 24.2h4.1l.3 2.6c.4-.8 1-1.5 1.8-2.1.8-.6 1.8-.9 3.1-.9v4.7c-.3-.1-.8-.1-1.5-.1-.4 0-.7 0-1.1.1s-.7.2-1 .5c-.3.2-.6.6-.8 1.1-.2.5-.3 1.2-.3 2v6.2h-4.6V24.2zM454.1 38.1c-.1-.2-.2-.5-.3-.8-.1-.3-.1-.6-.2-.9-.3.5-.7 1-1.3 1.5-.6.4-1.4.6-2.5.6-.7 0-1.4-.1-2-.3-.6-.2-1-.5-1.4-.9-.4-.4-.7-.9-.9-1.4-.2-.5-.3-1.1-.3-1.8s.1-1.3.4-1.8c.2-.5.6-1 1.1-1.3.5-.4 1-.7 1.7-.9.7-.2 1.4-.4 2.2-.5l2.8-.4v-.3c0-.6-.2-1-.5-1.2-.3-.2-.7-.3-1.3-.3-.9 0-1.6.2-2.2.5-.6.3-1.2.7-1.6 1.1l-2.2-3c.3-.2.7-.5 1.1-.7.4-.2.9-.5 1.5-.7.5-.2 1.2-.3 1.8-.5.7-.1 1.4-.2 2.2-.2 2.1 0 3.5.4 4.4 1.3.9.9 1.3 2.2 1.3 4v6.5c0 .4 0 .7.1 1 0 .3.1.6.2.8s.2.5.3.8h-4.4zm-.8-6.1l-1.9.4c-.6.1-1.1.3-1.4.6-.3.2-.4.6-.4 1s.1.7.4 1c.2.3.6.4 1.1.4.6 0 1.2-.2 1.6-.7s.7-1.2.7-2.1V32zM472.6 35.2c-.7 1.2-1.6 2-2.6 2.6-1.1.5-2.3.8-3.7.8-1.2 0-2.3-.2-3.2-.6s-1.6-.9-2.2-1.6-1-1.4-1.3-2.3c-.3-.9-.4-1.9-.4-2.9 0-1.1.2-2.2.5-3.1.3-.9.8-1.7 1.4-2.4.6-.6 1.3-1.1 2.2-1.5.9-.3 1.9-.5 3-.5 1.4 0 2.7.3 3.7.9 1 .6 1.9 1.5 2.5 2.6l-3.8 1.8c-.3-.7-.6-1.1-1-1.4-.4-.3-.8-.4-1.3-.4-.9 0-1.5.3-1.8 1s-.6 1.7-.6 2.8c0 .4 0 .9.1 1.4.1.5.2.9.4 1.3s.5.7.8 1c.3.3.8.4 1.4.4.6 0 1.1-.2 1.5-.5.4-.3.7-.8 1-1.4l3.4 2zM486.1 35.2c-.7 1.2-1.6 2-2.6 2.6-1.1.5-2.3.8-3.7.8-1.2 0-2.3-.2-3.2-.6s-1.6-.9-2.2-1.6-1-1.4-1.3-2.3c-.3-.9-.4-1.9-.4-2.9 0-1.1.2-2.2.5-3.1.3-.9.8-1.7 1.4-2.4.6-.6 1.3-1.1 2.2-1.5.9-.3 1.9-.5 3-.5 1.4 0 2.7.3 3.7.9 1 .6 1.9 1.5 2.5 2.6l-3.8 1.8c-.3-.7-.6-1.1-1-1.4-.4-.3-.8-.4-1.3-.4-.9 0-1.5.3-1.8 1s-.6 1.6-.6 2.7c0 .4 0 .9.1 1.4.1.5.2.9.4 1.3s.5.7.8 1c.3.3.8.4 1.4.4.6 0 1.1-.2 1.5-.5.4-.3.7-.8 1-1.4l3.4 2.1zM487.1 24.2h4.6v7.7c0 .9.1 1.5.4 2 .3.4.7.7 1.4.7s1.3-.3 1.7-.8.6-1.5.6-2.7v-6.7h4.6v13.9h-4.3v-2.1c-.4.7-.9 1.3-1.5 1.7s-1.5.6-2.7.6c-1.7 0-2.9-.5-3.7-1.4-.8-.9-1.2-2.3-1.2-4.1v-8.8zM502.6 24.2h4.1l.3 2.6c.4-.8 1-1.5 1.8-2.1.8-.6 1.8-.9 3.1-.9v4.7c-.3-.1-.8-.1-1.5-.1-.4 0-.7 0-1.1.1s-.7.2-1 .5c-.3.2-.6.6-.8 1.1-.2.5-.3 1.2-.3 2v6.2h-4.6V24.2zM521 38.1c-.1-.2-.2-.5-.3-.8-.1-.3-.1-.6-.2-.9-.3.5-.7 1-1.3 1.5-.6.4-1.4.6-2.5.6-.7 0-1.4-.1-2-.3-.6-.2-1-.5-1.4-.9-.4-.4-.7-.9-.9-1.4-.2-.5-.3-1.1-.3-1.8s.1-1.3.4-1.8c.2-.5.6-1 1.1-1.3.5-.4 1-.7 1.7-.9.7-.2 1.4-.4 2.2-.5l2.8-.4v-.3c0-.6-.2-1-.5-1.2-.3-.2-.7-.3-1.3-.3-.9 0-1.6.2-2.2.5-.6.3-1.2.7-1.6 1.1l-2.2-3c.3-.2.7-.5 1.1-.7.4-.2.9-.5 1.5-.7.5-.2 1.2-.3 1.8-.5.7-.1 1.4-.2 2.2-.2 2.1 0 3.5.4 4.4 1.3.9.9 1.3 2.2 1.3 4v6.5c0 .4 0 .7.1 1 0 .3.1.6.2.8s.2.5.3.8H521zm-.7-6.1l-1.9.4c-.6.1-1.1.3-1.4.6-.3.2-.4.6-.4 1s.1.7.4 1c.2.3.6.4 1.1.4.6 0 1.2-.2 1.6-.7s.7-1.2.7-2.1V32zM539.6 35.2c-.7 1.2-1.6 2-2.6 2.6-1.1.5-2.3.8-3.7.8-1.2 0-2.3-.2-3.2-.6s-1.6-.9-2.2-1.6-1-1.4-1.3-2.3c-.3-.9-.4-1.9-.4-2.9 0-1.1.2-2.2.5-3.1.3-.9.8-1.7 1.4-2.4.6-.6 1.3-1.1 2.2-1.5.9-.3 1.9-.5 3-.5 1.4 0 2.7.3 3.7.9 1 .6 1.9 1.5 2.5 2.6l-3.8 1.8c-.3-.7-.6-1.1-1-1.4-.4-.3-.8-.4-1.3-.4-.9 0-1.5.3-1.8 1s-.6 1.7-.6 2.8c0 .4 0 .9.1 1.4.1.5.2.9.4 1.3s.5.7.8 1c.3.3.8.4 1.4.4.6 0 1.1-.2 1.5-.5.4-.3.7-.8 1-1.4l3.4 2z"/><path class="copy_purpleFill" d="M540.8 39.5c.3.1.7.2 1 .3.4.1.7.1 1 .1.4 0 .7-.1 1-.3.2-.2.4-.5.5-1l-5-14.4h5l2.4 9.4 2.4-9.4h5l-5 13.8c-.3.8-.5 1.5-.8 2.1-.3.6-.6 1.2-1.1 1.7-.4.5-1 .8-1.7 1.1-.7.3-1.5.4-2.6.4h-1.4c-.3 0-.5 0-.8-.1-.2 0-.4-.1-.6-.1l.7-3.6zM553.6 33.1h5.1v5.1h-5.1v-5.1z"/><g><path class="copy_grayFill" d="M198.2 65.2c-.3.7-.9 1.2-1.6 1.6-.7.4-1.6.7-2.7.7-1.2 0-2.2-.2-3-.6-.9-.4-1.6-.9-2.2-1.6-.6-.7-1-1.5-1.3-2.5-.3-.9-.4-2-.4-3.1s.2-2.2.5-3.1c.3-.9.8-1.7 1.4-2.4s1.4-1.2 2.2-1.6 1.9-.6 3-.6c1.3 0 2.5.3 3.6.8s2 1.4 2.7 2.5l-2.9 1.4c-.1-.3-.3-.6-.6-.9s-.5-.5-.8-.6c-.3-.2-.6-.3-1-.4-.4-.1-.7-.1-1.1-.1-.7 0-1.3.1-1.8.4s-.9.6-1.2 1.1c-.3.5-.6 1-.7 1.6-.2.6-.2 1.3-.2 2s.1 1.4.3 2c.2.6.4 1.2.8 1.6.3.5.7.8 1.2 1.1s1 .4 1.6.4c.6 0 1.2-.1 1.6-.3s.8-.5 1.1-.8c.3-.3.5-.6.6-1 .1-.4.2-.7.2-1v-.3h-3.2V59h6v8.1h-1.9l-.2-1.9zM205.3 62.6c.1 1 .4 1.7.8 2.1.5.4 1 .7 1.7.7 1 0 1.8-.5 2.3-1.4l2.1 1.2c-.5.8-1.1 1.3-1.9 1.7-.8.4-1.7.6-2.7.6-.9 0-1.6-.1-2.3-.4s-1.2-.7-1.7-1.2c-.4-.5-.8-1.1-1-1.8s-.3-1.4-.3-2.2c0-.8.1-1.5.3-2.2s.6-1.3 1-1.8 1-.9 1.6-1.2c.6-.3 1.4-.4 2.2-.4.8 0 1.5.1 2.1.4.6.3 1.1.7 1.5 1.2s.7 1.1.9 1.8.3 1.4.3 2.3V62.6h-6.9zm2.2-4.2c-.7 0-1.2.2-1.5.7-.4.4-.6 1.1-.7 1.8h4.2c0-.3 0-.7-.1-1-.1-.3-.2-.6-.4-.8l-.6-.6c-.2 0-.5-.1-.9-.1zM214.8 58.5h-1.7v-1.8h.3c.5 0 .9-.1 1.1-.2s.5-.4.7-.6c.2-.3.3-.6.4-1 .1-.4.2-.8.2-1.2h1.8v3h2.2v1.8h-2.2V64c0 .4.1.7.2 1 .1.2.4.3.9.3h.5c.2 0 .3-.1.5-.2l.2 2c-.3.2-.7.3-1.1.3-.4.1-.7.1-1.1.1-.6 0-1.1-.1-1.5-.2-.4-.2-.7-.4-.9-.6-.2-.3-.4-.6-.5-1-.1-.4-.1-.8-.1-1.2v-6zM239.1 63.9c-.7 1.2-1.5 2.1-2.5 2.7-1 .6-2.2.9-3.7.9-1.2 0-2.2-.2-3.1-.6s-1.7-.9-2.3-1.6c-.6-.7-1.1-1.5-1.4-2.4-.3-.9-.5-2-.5-3.1s.2-2.2.5-3.1c.3-.9.8-1.7 1.4-2.4s1.4-1.2 2.3-1.6c.9-.4 1.9-.6 3.1-.6 1.3 0 2.5.2 3.5.7 1 .5 1.9 1.3 2.7 2.5l-2.9 1.5c-.3-.7-.8-1.2-1.3-1.5-.6-.4-1.2-.5-2-.5-.7 0-1.3.1-1.8.4s-.9.6-1.3 1.1c-.3.5-.6 1-.7 1.6-.2.6-.2 1.3-.2 2s.1 1.4.3 2c.2.6.4 1.1.8 1.6.3.5.8.8 1.3 1.1s1.1.4 1.8.4c.8 0 1.5-.2 2-.5.6-.4 1-1 1.4-1.8l2.6 1.2zM240.9 52.4h2.8v14.7h-2.8V52.4zM252.3 67.1c-.1-.2-.1-.4-.2-.7 0-.3-.1-.5-.1-.8-.2.5-.6.9-1.1 1.3-.5.3-1.2.5-2 .5-1.1 0-1.9-.3-2.5-.9-.6-.6-.9-1.4-.9-2.4 0-.5.1-1 .3-1.4s.5-.7.8-1c.3-.3.8-.5 1.3-.6.5-.2 1-.3 1.6-.4l2.3-.4V60c0-.6-.1-1-.4-1.2-.3-.2-.7-.3-1.2-.3-.7 0-1.3.1-1.8.4s-.9.6-1.3.9l-1.4-1.9c.4-.4 1-.8 1.8-1.1.8-.3 1.8-.5 2.9-.5 1.5 0 2.5.3 3.2 1s1 1.6 1 2.9v4.9c0 .3 0 .5.1.7 0 .2.1.4.1.6s.1.4.2.6h-2.7zm-.4-4.9l-1.8.3c-.6.1-1.1.3-1.4.5-.3.2-.4.6-.4 1s.1.7.4 1c.3.3.6.4 1 .4.6 0 1.1-.2 1.5-.7.4-.5.6-1.1.6-1.9v-.6zM257.1 52.5h2.8v2.3h-2.8v-2.3zm0 4.1h2.8v10.5h-2.8V56.6zM262.2 56.6h2.5l.2 1.7c.3-.6.7-1.1 1.2-1.5.5-.4 1.1-.5 1.9-.5.8 0 1.5.2 2 .6.5.4.8.9 1 1.5.1-.3.3-.5.4-.8.2-.3.4-.5.6-.7.3-.2.6-.3.9-.5.4-.1.8-.2 1.3-.2.7 0 1.2.1 1.7.4.4.2.8.5 1 .9s.4.8.5 1.3c.1.5.1 1 .1 1.6V67h-2.8v-5.8c0-.8-.1-1.5-.4-1.9-.3-.4-.7-.6-1.2-.6-.2 0-.5 0-.7.1-.2.1-.4.2-.6.5-.2.2-.3.5-.4.9-.1.4-.2.8-.2 1.4V67h-2.8v-5.8c0-1.6-.5-2.5-1.6-2.5-.2 0-.5 0-.7.1-.2.1-.4.3-.6.5-.2.2-.3.6-.4 1-.1.4-.2.9-.2 1.5V67h-2.8V56.6zM280 52.4h5.8c.7 0 1.4.1 2.1.3s1.3.4 1.8.8.9.8 1.2 1.4c.3.6.5 1.3.5 2.1 0 .9-.1 1.7-.4 2.3-.3.6-.7 1.1-1.2 1.5-.5.4-1.1.7-1.8.8-.7.2-1.4.3-2.2.3H283v5.3h-3V52.4zm5.3 7c.4 0 .8 0 1.1-.1.3-.1.6-.2.9-.4s.4-.4.6-.8.2-.7.2-1.2c0-.4-.1-.8-.2-1-.1-.3-.3-.5-.6-.7-.3-.2-.5-.3-.9-.4-.3-.1-.7-.1-1.1-.1H283v4.7h2.3zM298.9 67.1c-.1-.2-.1-.4-.2-.7 0-.3-.1-.5-.1-.8-.2.5-.6.9-1.1 1.3-.5.3-1.2.5-2 .5-1.1 0-1.9-.3-2.5-.9-.6-.6-.9-1.4-.9-2.4 0-.5.1-1 .3-1.4s.5-.7.8-1c.3-.3.8-.5 1.3-.6.5-.2 1-.3 1.6-.4l2.3-.4V60c0-.6-.1-1-.4-1.2-.3-.2-.7-.3-1.2-.3-.7 0-1.3.1-1.8.4s-.9.6-1.3.9l-1.4-1.9c.4-.4 1-.8 1.8-1.1.8-.3 1.8-.5 2.9-.5 1.5 0 2.5.3 3.2 1s1 1.6 1 2.9v4.9c0 .3 0 .5.1.7 0 .2.1.4.1.6s.1.4.2.6h-2.7zm-.5-4.9l-1.8.3c-.6.1-1.1.3-1.4.5-.3.2-.4.6-.4 1s.1.7.4 1c.3.3.6.4 1 .4.6 0 1.1-.2 1.5-.7.4-.5.6-1.1.6-1.9v-.6zM304.3 64c.2.2.4.4.6.5.2.2.5.3.8.4l.9.3c.3.1.6.1.9.1.4 0 .7-.1 1.1-.2.3-.2.5-.4.5-.8 0-.3-.1-.6-.4-.8-.3-.2-.6-.3-1-.5-.4-.1-.9-.3-1.4-.4-.5-.1-1-.3-1.4-.6-.4-.2-.8-.6-1-1-.3-.4-.4-.9-.4-1.6 0-.6.1-1.1.4-1.5s.6-.8.9-1c.4-.3.8-.5 1.3-.6s1-.2 1.6-.2c.9 0 1.7.1 2.3.3.7.2 1.3.5 1.8.9l-1.3 1.9c-.1-.1-.3-.3-.5-.4-.2-.1-.5-.2-.7-.3-.3-.1-.5-.2-.8-.2-.3-.1-.6-.1-.9-.1-.3 0-.6.1-.8.2-.2.1-.4.4-.4.7 0 .3.1.5.4.7.3.2.6.3 1 .5.4.1.9.3 1.4.4.5.2.9.4 1.4.6.4.2.8.6 1 1 .3.4.4.9.4 1.5s-.1 1.1-.4 1.5c-.3.4-.6.8-1 1.1-.4.3-.9.5-1.4.6-.5.1-1 .2-1.5.2-1.9 0-3.4-.5-4.6-1.6l1.2-1.6zM314 64c.2.2.4.4.6.5.2.2.5.3.8.4l.9.3c.3.1.6.1.9.1.4 0 .7-.1 1.1-.2.3-.2.5-.4.5-.8 0-.3-.1-.6-.4-.8-.3-.2-.6-.3-1-.5-.4-.1-.9-.3-1.4-.4-.5-.1-1-.3-1.4-.6-.4-.2-.8-.6-1-1-.3-.4-.4-.9-.4-1.6 0-.6.1-1.1.4-1.5s.6-.8.9-1c.4-.3.8-.5 1.3-.6s1-.2 1.6-.2c.9 0 1.7.1 2.3.3.7.2 1.3.5 1.8.9l-1.3 1.9c-.1-.1-.3-.3-.5-.4-.2-.1-.5-.2-.7-.3-.3-.1-.5-.2-.8-.2-.3-.1-.6-.1-.9-.1-.3 0-.6.1-.8.2-.2.1-.4.4-.4.7 0 .3.1.5.4.7.3.2.6.3 1 .5.4.1.9.3 1.4.4.5.2.9.4 1.4.6.4.2.8.6 1 1 .3.4.4.9.4 1.5s-.1 1.1-.4 1.5c-.3.4-.6.8-1 1.1-.4.3-.9.5-1.4.6-.5.1-1 .2-1.5.2-1.9 0-3.4-.5-4.6-1.6L314 64z"/></g><g><path class="copy_grayFill" d="M324 64h3.2v3.2H324V64zM344.9 65.2c-.3.7-.9 1.2-1.6 1.6-.7.4-1.6.7-2.7.7-1.2 0-2.2-.2-3-.6-.9-.4-1.6-.9-2.2-1.6-.6-.7-1-1.5-1.3-2.5-.3-.9-.4-2-.4-3.1s.2-2.2.5-3.1c.3-.9.8-1.7 1.4-2.4s1.4-1.2 2.2-1.6 1.9-.6 3-.6c1.3 0 2.5.3 3.6.8s2 1.4 2.7 2.5l-2.9 1.4c-.1-.3-.3-.6-.6-.9s-.5-.5-.8-.6c-.3-.2-.6-.3-1-.4-.4-.1-.7-.1-1.1-.1-.7 0-1.3.1-1.8.4s-.9.6-1.2 1.1c-.3.5-.6 1-.7 1.6-.2.6-.2 1.3-.2 2s.1 1.4.3 2c.2.6.4 1.2.8 1.6.3.5.7.8 1.2 1.1s1 .4 1.6.4c.6 0 1.2-.1 1.6-.3s.8-.5 1.1-.8c.3-.3.5-.6.6-1 .1-.4.2-.7.2-1v-.3H341V59h6v8.1h-1.9l-.2-1.9zM352.1 62.6c.1 1 .4 1.7.8 2.1.5.4 1 .7 1.7.7 1 0 1.8-.5 2.3-1.4l2.1 1.2c-.5.8-1.1 1.3-1.9 1.7-.8.4-1.7.6-2.7.6-.9 0-1.6-.1-2.3-.4s-1.2-.7-1.7-1.2c-.4-.5-.8-1.1-1-1.8s-.3-1.4-.3-2.2c0-.8.1-1.5.3-2.2s.6-1.3 1-1.8 1-.9 1.6-1.2c.6-.3 1.4-.4 2.2-.4.8 0 1.5.1 2.1.4.6.3 1.1.7 1.5 1.2s.7 1.1.9 1.8.3 1.4.3 2.3V62.6h-6.9zm2.2-4.2c-.7 0-1.2.2-1.5.7-.4.4-.6 1.1-.7 1.8h4.2c0-.3 0-.7-.1-1-.1-.3-.2-.6-.4-.8l-.6-.6c-.3 0-.6-.1-.9-.1zM361.6 58.5h-1.7v-1.8h.3c.5 0 .9-.1 1.1-.2s.5-.4.7-.6c.2-.3.3-.6.4-1 .1-.4.2-.8.2-1.2h1.8v3h2.2v1.8h-2.2V64c0 .4.1.7.2 1 .1.2.4.3.9.3h.5c.2 0 .3-.1.5-.2l.2 2c-.3.2-.7.3-1.1.3-.4.1-.7.1-1.1.1-.6 0-1.1-.1-1.5-.2-.4-.2-.7-.4-.9-.6-.2-.3-.4-.6-.5-1s-.1-.8-.1-1.2v-6zM372.9 56.6h2.5l.2 1.7c.3-.6.7-1.1 1.2-1.5.5-.4 1.1-.5 1.9-.5.8 0 1.5.2 2 .6.5.4.8.9 1 1.5.1-.3.3-.5.4-.8.2-.3.4-.5.6-.7.3-.2.6-.3.9-.5.4-.1.8-.2 1.3-.2.7 0 1.2.1 1.7.4.4.2.8.5 1 .9.2.4.4.8.5 1.3.1.5.1 1 .1 1.6V67h-2.8v-5.8c0-.8-.1-1.5-.4-1.9-.3-.4-.7-.6-1.2-.6-.2 0-.5 0-.7.1-.2.1-.4.2-.6.5-.2.2-.3.5-.4.9s-.2.8-.2 1.4V67h-2.8v-5.8c0-1.6-.5-2.5-1.6-2.5-.2 0-.5 0-.7.1s-.4.3-.6.5c-.2.2-.3.6-.4 1s-.2.9-.2 1.5V67h-2.8V56.6zM395.1 67.5c-.9 0-1.6-.1-2.3-.4s-1.2-.7-1.6-1.2c-.4-.5-.7-1.1-1-1.8-.2-.7-.3-1.4-.3-2.2s.1-1.5.3-2.2.6-1.3 1-1.8 1-.9 1.6-1.2c.6-.3 1.4-.4 2.2-.4.8 0 1.6.1 2.2.4.6.3 1.2.7 1.6 1.2.4.5.8 1.1 1 1.8.2.7.3 1.4.3 2.2s-.1 1.5-.3 2.2c-.2.7-.6 1.3-1 1.8s-1 .9-1.6 1.2-1.2.4-2.1.4zm.1-2.2c.7 0 1.2-.3 1.6-.9.3-.6.5-1.4.5-2.4s-.2-1.8-.5-2.4-.9-1-1.6-1c-.7 0-1.3.3-1.6 1-.4.6-.5 1.4-.5 2.4s.2 1.8.5 2.4c.2.6.8.9 1.6.9zM402.1 56.6h2.5l.2 2.1c.3-.7.8-1.2 1.4-1.7.6-.5 1.4-.7 2.3-.7v2.9c-.1 0-.2 0-.4-.1s-.3 0-.5 0c-.3 0-.6 0-.9.1-.3.1-.6.2-.9.4-.3.2-.5.5-.6.9-.2.4-.2.9-.2 1.5v5h-2.8V56.6zM412 62.6c.1 1 .4 1.7.8 2.1.5.4 1 .7 1.7.7 1 0 1.8-.5 2.3-1.4l2.1 1.2c-.5.8-1.1 1.3-1.9 1.7-.8.4-1.7.6-2.7.6-.9 0-1.6-.1-2.3-.4-.7-.3-1.2-.7-1.7-1.2-.4-.5-.8-1.1-1-1.8-.2-.7-.3-1.4-.3-2.2 0-.8.1-1.5.3-2.2.2-.7.6-1.3 1-1.8s1-.9 1.6-1.2c.6-.3 1.4-.4 2.2-.4.8 0 1.5.1 2.1.4.6.3 1.1.7 1.5 1.2s.7 1.1.9 1.8.3 1.4.3 2.3V62.6H412zm2.2-4.2c-.7 0-1.2.2-1.5.7-.4.4-.6 1.1-.7 1.8h4.2c0-.3 0-.7-.1-1-.1-.3-.2-.6-.4-.8l-.6-.6c-.3 0-.6-.1-.9-.1zM426.3 64c.2.2.4.4.6.5.2.2.5.3.8.4l.9.3c.3.1.6.1.9.1.4 0 .7-.1 1.1-.2s.5-.4.5-.8c0-.3-.1-.6-.4-.8s-.6-.3-1-.5-.9-.3-1.4-.4c-.5-.1-1-.3-1.4-.6-.4-.2-.8-.6-1-1-.3-.4-.4-.9-.4-1.6 0-.6.1-1.1.4-1.5.2-.4.5-.8.9-1s.8-.5 1.3-.6c.5-.1 1-.2 1.6-.2.9 0 1.7.1 2.3.3.7.2 1.3.5 1.8.9l-1.3 1.9c-.1-.1-.3-.3-.5-.4-.2-.1-.5-.2-.7-.3s-.5-.2-.8-.2c-.3-.1-.6-.1-.9-.1-.3 0-.6.1-.8.2-.2.1-.4.4-.4.7 0 .3.1.5.4.7.3.2.6.3 1 .5.4.1.9.3 1.4.4s.9.4 1.4.6c.4.2.8.6 1 1 .3.4.4.9.4 1.5s-.1 1.1-.4 1.5-.6.8-1 1.1c-.4.3-.9.5-1.4.6-.5.1-1 .2-1.5.2-1.9 0-3.4-.5-4.6-1.6l1.2-1.6zM441.9 67.1c-.1-.2-.1-.4-.2-.7s-.1-.5-.1-.8c-.2.5-.6.9-1.1 1.3-.5.3-1.2.5-2 .5-1.1 0-1.9-.3-2.5-.9-.6-.6-.9-1.4-.9-2.4 0-.5.1-1 .3-1.4s.5-.7.8-1c.3-.3.8-.5 1.3-.6s1-.3 1.6-.4l2.3-.4V60c0-.6-.1-1-.4-1.2s-.7-.3-1.2-.3c-.7 0-1.3.1-1.8.4s-.9.6-1.3.9l-1.4-1.9c.4-.4 1-.8 1.8-1.1s1.8-.5 2.9-.5c1.5 0 2.5.3 3.2 1 .6.6 1 1.6 1 2.9v4.9c0 .3 0 .5.1.7 0 .2.1.4.1.6s.1.4.2.6h-2.7zm-.5-4.9l-1.8.3c-.6.1-1.1.3-1.4.5-.3.2-.4.6-.4 1s.1.7.4 1c.2.3.6.4 1 .4.6 0 1.1-.2 1.5-.7.4-.5.6-1.1.6-1.9v-.6zM445.5 56.6h3.2l2 7.8 2-7.8h3l-3.5 10.5h-3.3l-3.4-10.5zM457.1 52.5h2.8v2.3h-2.8v-2.3zm0 4.1h2.8v10.5h-2.8V56.6zM462.2 56.6h2.5l.2 1.7c.3-.5.7-1 1.3-1.4.6-.4 1.3-.6 2-.6 1.1 0 2 .4 2.5 1.1.6.7.8 1.8.8 3.2v6.6h-2.8v-5.9c0-.9-.1-1.5-.4-1.9-.3-.4-.7-.6-1.3-.6-.6 0-1.1.2-1.5.7-.4.5-.6 1.3-.6 2.4v5.2h-2.8V56.6zM475.1 67.6c.4.4.9.7 1.5 1 .6.2 1.2.3 1.8.3.8 0 1.4-.2 1.6-.6.3-.4.4-.9.4-1.6v-1.4c-.2.5-.6.8-1.1 1.1-.5.3-1.1.5-1.9.5-.5 0-1.1-.1-1.5-.3-.5-.2-.9-.5-1.3-.9s-.7-1-.9-1.6-.3-1.4-.3-2.3c0-.8.1-1.6.3-2.3.2-.7.5-1.2.8-1.7s.8-.8 1.3-1.1c.5-.3 1.1-.4 1.7-.4.7 0 1.3.2 1.8.5s.9.8 1.2 1.4l.4-1.6h2.3v9.9c0 .6-.1 1.2-.3 1.7s-.5 1-.8 1.4c-.4.4-.9.7-1.5 1-.6.2-1.4.3-2.3.3-1.1 0-2.1-.1-2.9-.4s-1.5-.6-2-1l1.7-1.9zm5.3-6c0-.4 0-.7-.1-1.1l-.3-.9c-.1-.3-.4-.5-.6-.7-.3-.2-.6-.2-.9-.2-.6 0-1.1.3-1.5.8-.4.5-.6 1.3-.6 2.3 0 .9.2 1.7.5 2.2.3.5.9.8 1.6.8.7 0 1.2-.3 1.5-.8.3-.5.5-1.2.5-2.1v-.3zM486.2 64c.2.2.4.4.6.5.2.2.5.3.8.4l.9.3c.3.1.6.1.9.1.4 0 .7-.1 1.1-.2s.5-.4.5-.8c0-.3-.1-.6-.4-.8s-.6-.3-1-.5-.9-.3-1.4-.4c-.5-.1-1-.3-1.4-.6-.4-.2-.8-.6-1-1-.3-.4-.4-.9-.4-1.6 0-.6.1-1.1.4-1.5.2-.4.5-.8.9-1s.8-.5 1.3-.6c.5-.1 1-.2 1.6-.2.9 0 1.7.1 2.3.3.7.2 1.3.5 1.8.9l-1.3 1.9c-.1-.1-.3-.3-.5-.4-.2-.1-.5-.2-.7-.3s-.5-.2-.8-.2c-.3-.1-.6-.1-.9-.1-.3 0-.6.1-.8.2-.2.1-.4.4-.4.7 0 .3.1.5.4.7.3.2.6.3 1 .5.4.1.9.3 1.4.4s.9.4 1.4.6c.4.2.8.6 1 1 .3.4.4.9.4 1.5s-.1 1.1-.4 1.5-.6.8-1 1.1c-.4.3-.9.5-1.4.6-.5.1-1 .2-1.5.2-1.9 0-3.4-.5-4.6-1.6l1.2-1.6zM495.2 64h3.2v3.2h-3.2V64z"/></g></svg>