<svg version="1.1" id="Layer_1" xmlns="https://www.w3.org/2000/svg" x="0" y="0" viewBox="0 0 728 90" xml:space="preserve"><style>.copy_purpleFill{fill:#662868}</style><path class="copy_purpleFill" d="M197.7 34.4c-1.3 0-2.6-.2-3.8-.6-1.2-.4-2.2-1-3.1-1.8-.9-.8-1.6-1.9-2.1-3.1-.5-1.3-.8-2.8-.8-4.5 0-1.7.3-3.2.8-4.5.5-1.3 1.2-2.3 2.1-3.2.9-.8 1.9-1.5 3.1-1.9 1.2-.4 2.4-.6 3.8-.6 1.3 0 2.6.2 3.8.6 1.2.4 2.2 1 3.1 1.8.9.8 1.6 1.9 2.2 3.2s.8 2.8.8 4.5c0 1.7-.3 3.2-.8 4.5-.5 1.3-1.3 2.3-2.2 3.1-.9.8-2 1.4-3.1 1.8-1.3.5-2.5.7-3.8.7zm0-4.3c.6 0 1.2-.1 1.8-.3.6-.2 1-.6 1.5-1s.7-1.1 1-1.8c.2-.7.3-1.6.3-2.6 0-1.9-.4-3.3-1.3-4.3s-2-1.5-3.4-1.5-2.5.5-3.3 1.5c-.8 1-1.2 2.5-1.2 4.3 0 1 .1 1.9.4 2.6.3.7.6 1.3 1 1.8s.9.8 1.5 1c.6.2 1.1.3 1.7.3zM210.1 22.9h-2.2v-3h.4c.7 0 1.3-.1 1.7-.4.4-.2.7-.6 1-.9.2-.4.4-.8.5-1.3.1-.5.2-1 .4-1.5h2.9V20h2.9v3h-2.9v6.5c0 .4.1.8.2 1 .2.3.5.4 1.1.4h.5c.2 0 .5-.1.7-.2l.3 3.2c-.5.2-1 .3-1.5.4-.5.1-1 .1-1.6.1-.9 0-1.6-.1-2.1-.3-.6-.2-1-.5-1.3-.9s-.6-.8-.7-1.4c-.1-.5-.2-1.1-.2-1.8v-7.1zM218.7 14.6h4.6v7.2c.3-.6.9-1.1 1.6-1.6.7-.4 1.6-.7 2.7-.7 1.6 0 2.8.5 3.5 1.5.7 1 1.1 2.5 1.1 4.4v8.4h-4.6v-7.6c0-.9-.2-1.6-.5-2-.3-.5-.8-.7-1.5-.7s-1.2.3-1.6.8-.6 1.4-.6 2.7v6.8h-4.6V14.6zM238.3 28c.2 1.1.5 1.8 1 2.3.5.4 1.1.6 1.8.6.6 0 1.1-.1 1.5-.4.4-.3.8-.6 1.1-1.2l3.4 1.9c-.7 1.1-1.6 1.8-2.7 2.3-1.1.5-2.3.7-3.6.7-1.2 0-2.2-.2-3.1-.6-.9-.4-1.7-.9-2.3-1.5-.6-.7-1.1-1.4-1.4-2.3-.3-.9-.5-1.9-.5-2.9 0-1.1.2-2 .5-3s.8-1.7 1.4-2.4c.6-.7 1.4-1.2 2.2-1.5.9-.4 1.9-.6 3-.6s2 .2 2.9.5c.8.4 1.5.9 2.1 1.5.6.7 1 1.5 1.3 2.4.3.9.5 2 .5 3.2v.8h-9.1zm2.3-5.1c-1.3 0-2.1.8-2.3 2.5h4.5c0-.7-.2-1.3-.5-1.8-.4-.4-1-.7-1.7-.7zM249 20h4.1l.3 2.6c.4-.8 1-1.5 1.8-2.1.8-.6 1.8-.9 3.1-.9v4.7c-.3-.1-.8-.1-1.5-.1-.4 0-.7 0-1.1.1s-.7.2-1 .5c-.3.2-.6.6-.8 1.1-.2.5-.3 1.2-.3 2v6.2H249V20zM277.7 31c-.7 1.2-1.6 2-2.6 2.6s-2.3.8-3.7.8c-1.2 0-2.3-.2-3.2-.6-.9-.4-1.6-.9-2.2-1.6-.6-.7-1-1.4-1.3-2.3-.3-.9-.4-1.9-.4-2.9 0-1.1.2-2.2.5-3.1.3-.9.8-1.7 1.4-2.4s1.3-1.1 2.2-1.5c.9-.3 1.9-.5 3-.5 1.4 0 2.7.3 3.7.9s1.9 1.5 2.5 2.6l-3.8 1.8c-.3-.7-.6-1.1-1-1.4-.4-.3-.8-.4-1.3-.4-.9 0-1.5.3-1.8 1-.4.7-.6 1.6-.6 2.7 0 .4 0 .9.1 1.4.1.5.2.9.4 1.3s.5.7.8 1c.3.3.8.4 1.4.4.6 0 1.1-.2 1.5-.5.4-.3.7-.8 1-1.4l3.4 2.1zM284.9 34.4c-1.2 0-2.2-.2-3.1-.6-.9-.4-1.6-.9-2.2-1.5-.6-.7-1-1.4-1.3-2.3-.3-.9-.4-1.9-.4-2.9s.2-2 .5-2.9c.3-.9.8-1.7 1.4-2.4.6-.7 1.3-1.2 2.2-1.6.9-.4 1.9-.6 3-.6s2.2.2 3.1.6c.9.4 1.6.9 2.2 1.5.6.7 1 1.4 1.3 2.4s.5 1.9.5 3-.2 2-.5 2.9c-.3.9-.7 1.7-1.3 2.3-.6.7-1.3 1.2-2.2 1.5-1.1.4-2.1.6-3.2.6zm0-3.6c.8 0 1.3-.3 1.7-1s.5-1.6.5-2.8-.2-2.1-.6-2.8-.9-1.1-1.7-1.1c-.8 0-1.3.4-1.7 1.1-.4.7-.5 1.7-.5 2.8s.2 2.1.6 2.8c.3.7.9 1 1.7 1zM293.4 20h4.1l.4 1.9c.4-.7.9-1.3 1.6-1.7.6-.4 1.5-.6 2.4-.6 1.1 0 2 .3 2.6.8.6.5 1.1 1.1 1.3 1.7l.6-.9c.2-.3.5-.6.8-.8.3-.2.8-.4 1.2-.6.5-.1 1.1-.2 1.7-.2 1 0 1.8.2 2.4.5.6.3 1.1.8 1.4 1.3.3.5.5 1.2.7 1.8.1.7.2 1.4.2 2.1v8.6h-4.6v-7.3c0-1-.1-1.8-.4-2.3-.3-.5-.7-.8-1.4-.8-.2 0-.4 0-.7.1s-.5.2-.6.5c-.2.2-.3.6-.5 1s-.2 1-.2 1.8v7h-4.6v-7.4c0-1-.1-1.7-.4-2.2-.3-.5-.7-.7-1.4-.7-.2 0-.4 0-.7.1-.2.1-.5.3-.6.5-.2.3-.4.6-.5 1.1-.1.5-.2 1.1-.2 1.9v6.7h-4.6V20zM316.9 20h4.6v1.8c.3-.6.8-1.2 1.4-1.6.6-.4 1.4-.6 2.4-.6 1.6 0 2.8.6 3.8 1.8 1 1.2 1.5 3 1.5 5.4 0 1.5-.2 2.7-.5 3.6-.3.9-.8 1.7-1.3 2.3s-1.1 1-1.8 1.2c-.7.2-1.3.3-1.9.3-.7 0-1.4-.1-2-.4-.7-.3-1.2-.6-1.5-1.2v6H317V20zm4.6 7.1c0 .5 0 .9.1 1.4.1.4.2.8.4 1.1.2.3.4.6.7.7.3.2.6.3 1 .3.6 0 1.1-.3 1.5-.9.4-.6.5-1.5.5-2.7 0-1.2-.2-2.1-.6-2.7-.4-.6-.9-.9-1.6-.9-.4 0-.7.1-1 .3-.3.2-.5.4-.6.8-.2.3-.3.7-.3 1.1-.1.4-.1.8-.1 1.3v.2zM340 33.9c-.1-.2-.2-.5-.3-.8-.1-.3-.1-.6-.2-.9-.3.5-.7 1-1.3 1.5-.6.4-1.4.6-2.5.6-.7 0-1.4-.1-2-.3-.6-.2-1-.5-1.4-.9-.4-.4-.7-.9-.9-1.4-.2-.5-.3-1.1-.3-1.8s.1-1.3.4-1.8c.2-.5.6-1 1.1-1.3.5-.4 1-.7 1.7-.9.7-.2 1.4-.4 2.2-.5l2.8-.4v-.3c0-.6-.2-1-.5-1.2-.3-.2-.7-.3-1.3-.3-.9 0-1.6.2-2.2.5-.6.3-1.2.7-1.6 1.1l-2.2-3c.3-.2.7-.5 1.1-.7.4-.2.9-.5 1.5-.7.5-.2 1.2-.3 1.8-.5.7-.1 1.4-.2 2.2-.2 2.1 0 3.5.4 4.4 1.3.9.9 1.3 2.2 1.3 4v6.5c0 .4 0 .7.1 1 0 .3.1.6.2.8s.2.5.3.8H340zm-.7-6.1l-1.9.4c-.6.1-1.1.3-1.4.6-.3.2-.4.6-.4 1s.1.7.4 1c.2.3.6.4 1.1.4.6 0 1.2-.2 1.6-.7.4-.5.7-1.2.7-2.1v-.6zM346.1 20h4.1l.4 1.9c.4-.7 1-1.2 1.8-1.7s1.6-.7 2.6-.7c3.1 0 4.6 2 4.6 5.9v8.5H355v-7.3c0-1.1-.2-1.9-.5-2.3-.3-.4-.8-.7-1.5-.7-.3 0-.6.1-.9.2s-.5.3-.7.6c-.2.3-.4.7-.5 1.1s-.2 1.1-.2 1.8v6.6h-4.6V20zM361.5 14.4h4.6v3.7h-4.6v-3.7zm0 5.6h4.6v13.9h-4.6V20zM372.4 28c.2 1.1.5 1.8 1 2.3.5.4 1.1.6 1.8.6.6 0 1.1-.1 1.5-.4.4-.3.8-.6 1.1-1.2l3.4 1.9c-.7 1.1-1.6 1.8-2.7 2.3-1.1.5-2.3.7-3.6.7-1.2 0-2.2-.2-3.1-.6-.9-.4-1.7-.9-2.3-1.5-.6-.7-1.1-1.4-1.4-2.3-.3-.9-.5-1.9-.5-2.9 0-1.1.2-2 .5-3 .3-.9.8-1.7 1.4-2.4.6-.7 1.4-1.2 2.2-1.5.9-.4 1.9-.6 3-.6s2 .2 2.9.5c.8.4 1.5.9 2.1 1.5.6.7 1 1.5 1.3 2.4.3.9.5 2 .5 3.2v.8h-9.1zm2.3-5.1c-1.3 0-2.1.8-2.3 2.5h4.5c0-.7-.2-1.3-.5-1.8-.4-.4-1-.7-1.7-.7zM384 29.3c.2.2.5.4.8.6.3.2.6.4 1 .6.4.2.8.3 1.2.4.4.1.8.2 1.2.2.3 0 .7-.1 1-.2.3-.1.5-.3.5-.7 0-.3-.2-.6-.5-.8-.4-.2-.8-.4-1.4-.5-.5-.2-1.1-.3-1.8-.5s-1.2-.4-1.8-.8c-.5-.3-1-.8-1.4-1.3-.4-.5-.5-1.2-.5-2.1 0-.8.2-1.5.5-2.1.3-.6.8-1.1 1.3-1.4.5-.4 1.2-.7 1.9-.8.7-.2 1.5-.3 2.2-.3 1.3 0 2.4.1 3.3.4.9.3 1.8.7 2.6 1.2l-2.1 3.1c-.2-.2-.4-.3-.7-.5-.3-.2-.6-.3-1-.5-.4-.1-.7-.2-1.1-.3s-.8-.1-1.1-.1c-.3 0-.6.1-.8.2-.2.1-.3.3-.3.6s.2.6.5.7c.4.2.8.4 1.4.5.5.2 1.1.4 1.8.6s1.2.5 1.8.8 1 .8 1.4 1.3c.4.5.5 1.2.5 2s-.2 1.5-.5 2.1c-.4.6-.8 1.1-1.4 1.5-.6.4-1.2.7-1.9.9-.7.2-1.4.3-2.1.3-2.6 0-4.8-.7-6.5-2l2-3.1zM410 32c-.4.7-.8 1.3-1.5 1.6s-1.4.6-2.3.6c-.8 0-1.6-.2-2.3-.5-.7-.3-1.3-.8-1.8-1.4s-.9-1.4-1.1-2.3c-.3-.9-.4-2-.4-3.2 0-1.4.2-2.5.5-3.4.3-.9.8-1.7 1.3-2.2s1.1-1 1.8-1.2c.7-.2 1.3-.4 2-.4.9 0 1.6.2 2.2.5.6.3 1 .8 1.3 1.2v-6.8h4.6v19.3H410V32zm-.3-5.3c0-.4 0-.9-.1-1.3s-.2-.8-.4-1.1c-.2-.3-.4-.6-.6-.8-.3-.2-.6-.3-1-.3-.7 0-1.2.3-1.6.9-.4.6-.5 1.4-.5 2.5 0 1.2.2 2.1.6 2.8.4.7.9 1 1.6 1 .4 0 .7-.1.9-.3.3-.2.5-.5.6-.8s.3-.7.4-1.2c.1-.4.1-.9.1-1.4zM422.9 34.4c-1.2 0-2.2-.2-3.1-.6-.9-.4-1.6-.9-2.2-1.5-.6-.7-1-1.4-1.3-2.3-.3-.9-.4-1.9-.4-2.9s.2-2 .5-2.9c.3-.9.8-1.7 1.4-2.4.6-.7 1.3-1.2 2.2-1.6.9-.4 1.9-.6 3-.6s2.2.2 3.1.6c.9.4 1.6.9 2.2 1.5s1 1.4 1.3 2.4c.3.9.5 1.9.5 3s-.2 2-.5 2.9c-.3.9-.7 1.7-1.3 2.3-.6.7-1.3 1.2-2.2 1.5-1.1.4-2.1.6-3.2.6zm.1-3.6c.8 0 1.3-.3 1.7-1s.5-1.6.5-2.8-.2-2.1-.6-2.8-.9-1.1-1.7-1.1-1.3.4-1.7 1.1-.5 1.7-.5 2.8.2 2.1.6 2.8.8 1 1.7 1zM431.4 20h4.1l.4 1.9c.4-.7 1-1.2 1.8-1.7s1.6-.7 2.6-.7c3.1 0 4.6 2 4.6 5.9v8.5h-4.6v-7.3c0-1.1-.2-1.9-.5-2.3-.3-.4-.8-.7-1.5-.7-.3 0-.6.1-.9.2s-.5.3-.7.6-.4.7-.5 1.1c-.1.5-.2 1.1-.2 1.8v6.6h-4.6V20zM446.4 23.1c.5-.2.9-.4 1.2-.7.3-.2.5-.5.7-.7.2-.3.3-.5.3-.8s.1-.6.1-1v-.5h-2.3v-4.8h5.1v4.8c0 .9-.1 1.6-.2 2.2-.2.6-.4 1.1-.8 1.6-.3.5-.8.8-1.3 1.2-.5.3-1.1.6-1.8.9l-1-2.2zM454.9 22.9h-2.2v-3h.4c.7 0 1.3-.1 1.7-.4.4-.2.7-.6 1-.9.2-.4.4-.8.5-1.3s.2-1 .4-1.5h2.9V20h2.9v3h-2.9v6.5c0 .4.1.8.2 1 .2.3.5.4 1.1.4h.5c.2 0 .5-.1.7-.2l.3 3.2c-.5.2-1 .3-1.5.4-.5.1-1 .1-1.6.1-.9 0-1.6-.1-2.1-.3-.6-.2-1-.5-1.3-.9-.3-.4-.6-.8-.7-1.4-.1-.5-.2-1.1-.2-1.8v-7.1zM481.8 31c-.7 1.2-1.6 2-2.6 2.6-1.1.5-2.3.8-3.7.8-1.2 0-2.3-.2-3.2-.6s-1.6-.9-2.2-1.6-1-1.4-1.3-2.3c-.3-.9-.4-1.9-.4-2.9 0-1.1.2-2.2.5-3.1.3-.9.8-1.7 1.4-2.4.6-.6 1.3-1.1 2.2-1.5.9-.3 1.9-.5 3-.5 1.4 0 2.7.3 3.7.9 1 .6 1.9 1.5 2.5 2.6l-3.8 1.8c-.3-.7-.6-1.1-1-1.4-.4-.3-.8-.4-1.3-.4-.9 0-1.5.3-1.8 1s-.6 1.6-.6 2.7c0 .4 0 .9.1 1.4.1.5.2.9.4 1.3s.5.7.8 1c.3.3.8.4 1.4.4.6 0 1.1-.2 1.5-.5.4-.3.7-.8 1-1.4l3.4 2.1zM482.9 14.6h4.6v7.2c.3-.6.9-1.1 1.6-1.6.7-.4 1.6-.7 2.7-.7 1.6 0 2.8.5 3.5 1.5.7 1 1.1 2.5 1.1 4.4v8.4h-4.6v-7.6c0-.9-.2-1.6-.5-2-.3-.5-.8-.7-1.5-.7s-1.2.3-1.6.8-.6 1.4-.6 2.7v6.8H483V14.6zM502.5 28c.2 1.1.5 1.8 1 2.3.5.4 1.1.6 1.8.6.6 0 1.1-.1 1.5-.4.4-.3.8-.6 1.1-1.2l3.4 1.9c-.7 1.1-1.6 1.8-2.7 2.3-1.1.5-2.3.7-3.6.7-1.2 0-2.2-.2-3.1-.6-.9-.4-1.7-.9-2.3-1.5-.6-.7-1.1-1.4-1.4-2.3-.3-.9-.5-1.9-.5-2.9 0-1.1.2-2 .5-3 .3-.9.8-1.7 1.4-2.4.6-.7 1.4-1.2 2.2-1.5.9-.4 1.9-.6 3-.6s2 .2 2.9.5c.8.4 1.5.9 2.1 1.5.6.7 1 1.5 1.3 2.4.3.9.5 2 .5 3.2v.8h-9.1zm2.3-5.1c-1.3 0-2.1.8-2.3 2.5h4.5c0-.7-.2-1.3-.5-1.8-.4-.4-1-.7-1.7-.7zM525.9 31c-.7 1.2-1.6 2-2.6 2.6-1.1.5-2.3.8-3.7.8-1.2 0-2.3-.2-3.2-.6s-1.6-.9-2.2-1.6-1-1.4-1.3-2.3c-.3-.9-.4-1.9-.4-2.9 0-1.1.2-2.2.5-3.1.3-.9.8-1.7 1.4-2.4.6-.6 1.3-1.1 2.2-1.5.9-.3 1.9-.5 3-.5 1.4 0 2.7.3 3.7.9 1 .6 1.9 1.5 2.5 2.6l-3.8 1.8c-.3-.7-.6-1.1-1-1.4-.4-.3-.8-.4-1.3-.4-.9 0-1.5.3-1.8 1s-.6 1.6-.6 2.7c0 .4 0 .9.1 1.4.1.5.2.9.4 1.3s.5.7.8 1c.3.3.8.4 1.4.4.6 0 1.1-.2 1.5-.5.4-.3.7-.8 1-1.4l3.4 2.1zM527 14.6h4.6v10.5l4.6-5.1h5.6l-5.5 5.3 5.4 8.7h-5.2l-3.1-5.9-1.8 1.8V34H527V14.6z"/><g><path class="copy_purpleFill" d="M189.7 52.9h-2.3v-3h2.1c-.1-.5-.2-.9-.3-1.3-.1-.4-.1-.8-.1-1.1 0-.5.1-1 .2-1.4.1-.4.4-.8.7-1.1.3-.3.8-.6 1.4-.8.6-.2 1.3-.3 2.3-.3.8 0 1.5 0 2 .1.6.1 1.1.2 1.6.4l-.7 3.4c-.2-.1-.5-.2-.9-.3-.4-.1-.7-.1-1-.1-.3 0-.6.1-.8.2-.2.1-.3.3-.3.7 0 .3 0 .6.1.9.1.3.2.5.3.7h2.7v3h-2.6v11h-4.6v-11zM204 64.4c-1.2 0-2.2-.2-3.1-.6-.9-.4-1.6-.9-2.2-1.5-.6-.7-1-1.4-1.3-2.3-.3-1-.4-2-.4-3 0-1.1.2-2 .5-2.9.3-.9.8-1.7 1.4-2.4.6-.7 1.3-1.2 2.2-1.6.9-.4 1.9-.6 3-.6s2.2.2 3.1.6c.9.4 1.6.9 2.2 1.5.6.7 1 1.4 1.3 2.4.3.9.5 1.9.5 3s-.2 2-.5 2.9c-.3.9-.7 1.7-1.3 2.3-.6.7-1.3 1.2-2.2 1.5-1 .5-2 .7-3.2.7zm.1-3.5c.8 0 1.3-.3 1.7-1 .3-.7.5-1.6.5-2.8 0-1.2-.2-2.1-.6-2.8s-.9-1.1-1.7-1.1c-.8 0-1.3.4-1.7 1.1-.4.7-.5 1.7-.5 2.8 0 1.2.2 2.1.6 2.8.3.6.9 1 1.7 1zM212.6 50h4.1l.3 2.6c.4-.8 1-1.5 1.8-2.1.8-.6 1.8-.9 3.1-.9v4.7c-.3-.1-.8-.1-1.5-.1-.4 0-.7 0-1.1.1-.4.1-.7.2-1 .5-.3.2-.6.6-.8 1.1-.2.5-.3 1.2-.3 2v6.2h-4.6V50zM236.9 63.9c-.1-.2-.2-.5-.3-.8-.1-.3-.1-.6-.2-.9-.3.5-.7 1-1.3 1.5-.6.4-1.4.6-2.5.6-.7 0-1.4-.1-2-.3-.6-.2-1-.5-1.4-.9-.4-.4-.7-.9-.9-1.4-.2-.5-.3-1.1-.3-1.8s.1-1.3.4-1.8c.2-.5.6-1 1.1-1.3s1-.7 1.7-.9c.7-.2 1.4-.4 2.2-.5l2.8-.4v-.3c0-.6-.2-1-.5-1.2-.3-.2-.7-.3-1.3-.3-.9 0-1.6.2-2.2.5-.6.3-1.2.7-1.6 1.1l-2.2-3c.3-.2.7-.5 1.1-.7s.9-.5 1.5-.7c.5-.2 1.2-.3 1.8-.5.7-.1 1.4-.2 2.2-.2 2.1 0 3.5.4 4.4 1.3.9.9 1.3 2.2 1.3 4v6.5c0 .4 0 .7.1 1 0 .3.1.6.2.8s.2.5.3.8h-4.4zm-.8-6.1l-1.9.4c-.6.1-1.1.3-1.4.6-.3.2-.4.6-.4 1s.1.7.4 1c.2.3.6.4 1.1.4.6 0 1.2-.2 1.6-.7.4-.5.7-1.2.7-2.1v-.6zM255.4 61c-.7 1.2-1.6 2-2.6 2.6-1.1.5-2.3.8-3.7.8-1.2 0-2.3-.2-3.2-.6-.9-.4-1.6-.9-2.2-1.6-.6-.7-1-1.4-1.3-2.3-.3-.9-.4-1.9-.4-2.9 0-1.1.2-2.2.5-3.1s.8-1.7 1.4-2.4c.6-.6 1.3-1.1 2.2-1.5.9-.3 1.9-.5 3-.5 1.4 0 2.7.3 3.7.9 1 .6 1.9 1.5 2.5 2.6l-3.8 1.8c-.3-.7-.6-1.1-1-1.4-.4-.3-.8-.4-1.3-.4-.9 0-1.5.3-1.8 1-.4.7-.6 1.6-.6 2.7 0 .4 0 .9.1 1.4.1.5.2.9.4 1.3s.5.7.8 1c.3.3.8.4 1.4.4.6 0 1.1-.2 1.5-.5.4-.3.7-.8 1-1.4l3.4 2.1zM268.9 61c-.7 1.2-1.6 2-2.6 2.6-1.1.5-2.3.8-3.7.8-1.2 0-2.3-.2-3.2-.6-.9-.4-1.6-.9-2.2-1.6-.6-.7-1-1.4-1.3-2.3-.3-.9-.4-1.9-.4-2.9 0-1.1.2-2.2.5-3.1s.8-1.7 1.4-2.4c.6-.6 1.3-1.1 2.2-1.5.9-.3 1.9-.5 3-.5 1.4 0 2.7.3 3.7.9 1 .6 1.9 1.5 2.5 2.6l-3.8 1.8c-.3-.7-.6-1.1-1-1.4-.4-.3-.8-.4-1.3-.4-.9 0-1.5.3-1.8 1-.4.7-.6 1.6-.6 2.7 0 .4 0 .9.1 1.4.1.5.2.9.4 1.3s.5.7.8 1c.3.3.8.4 1.4.4.6 0 1.1-.2 1.5-.5.4-.3.7-.8 1-1.4l3.4 2.1zM269.9 50h4.6v7.7c0 .9.1 1.5.4 2 .3.4.7.7 1.4.7s1.3-.3 1.7-.8.6-1.5.6-2.7V50h4.6v13.9h-4.3v-2.1c-.4.7-.9 1.3-1.5 1.7-.6.4-1.5.6-2.7.6-1.7 0-2.9-.5-3.7-1.4-.8-.9-1.2-2.3-1.2-4.1V50zM285.4 50h4.1l.3 2.6c.4-.8 1-1.5 1.8-2.1.8-.6 1.8-.9 3.1-.9v4.7c-.3-.1-.8-.1-1.5-.1-.4 0-.7 0-1.1.1-.4.1-.7.2-1 .5-.3.2-.6.6-.8 1.1-.2.5-.3 1.2-.3 2v6.2h-4.6V50zM303.7 63.9c-.1-.2-.2-.5-.3-.8-.1-.3-.1-.6-.2-.9-.3.5-.7 1-1.3 1.5-.6.4-1.4.6-2.5.6-.7 0-1.4-.1-2-.3-.6-.2-1-.5-1.4-.9-.4-.4-.7-.9-.9-1.4-.2-.5-.3-1.1-.3-1.8s.1-1.3.4-1.8c.2-.5.6-1 1.1-1.3s1-.7 1.7-.9c.7-.2 1.4-.4 2.2-.5l2.8-.4v-.3c0-.6-.2-1-.5-1.2-.3-.2-.7-.3-1.3-.3-.9 0-1.6.2-2.2.5-.6.3-1.2.7-1.6 1.1l-2.2-3c.3-.2.7-.5 1.1-.7s.9-.5 1.5-.7c.5-.2 1.2-.3 1.8-.5.7-.1 1.4-.2 2.2-.2 2.1 0 3.5.4 4.4 1.3.9.9 1.3 2.2 1.3 4v6.5c0 .4 0 .7.1 1 0 .3.1.6.2.8s.2.5.3.8h-4.4zm-.7-6.1l-1.9.4c-.6.1-1.1.3-1.4.6-.3.2-.4.6-.4 1s.1.7.4 1c.2.3.6.4 1.1.4.6 0 1.2-.2 1.6-.7.4-.5.7-1.2.7-2.1v-.6zM322.3 61c-.7 1.2-1.6 2-2.6 2.6-1.1.5-2.3.8-3.7.8-1.2 0-2.3-.2-3.2-.6-.9-.4-1.6-.9-2.2-1.6-.6-.7-1-1.4-1.3-2.3-.3-.9-.4-1.9-.4-2.9 0-1.1.2-2.2.5-3.1s.8-1.7 1.4-2.4c.6-.6 1.3-1.1 2.2-1.5.9-.3 1.9-.5 3-.5 1.4 0 2.7.3 3.7.9 1 .6 1.9 1.5 2.5 2.6l-3.8 1.8c-.3-.7-.6-1.1-1-1.4-.4-.3-.8-.4-1.3-.4-.9 0-1.5.3-1.8 1-.4.7-.6 1.6-.6 2.7 0 .4 0 .9.1 1.4.1.5.2.9.4 1.3s.5.7.8 1c.3.3.8.4 1.4.4.6 0 1.1-.2 1.5-.5.4-.3.7-.8 1-1.4l3.4 2.1zM323.6 65.3c.3.1.7.2 1 .3s.7.1 1 .1c.4 0 .7-.1 1-.3.2-.2.4-.5.5-1l-5-14.4h5l2.4 9.4 2.4-9.4h5l-4.8 13.9c-.3.8-.5 1.5-.8 2.1-.3.6-.6 1.2-1.1 1.7-.4.5-1 .8-1.7 1.1-.7.3-1.5.4-2.6.4h-1.4c-.3 0-.5 0-.8-.1-.2 0-.4-.1-.6-.1l.5-3.7zM336.3 58.9h5.1V64h-5.1v-5.1zM367.1 59.6c-1 1.7-2.2 2.9-3.5 3.6-1.4.8-3 1.1-5 1.1-1.6 0-3.1-.3-4.3-.8-1.2-.5-2.3-1.2-3.1-2.1-.8-.9-1.5-2-1.9-3.2-.4-1.2-.6-2.6-.6-4.1 0-1.5.2-2.9.7-4.1s1.1-2.3 1.9-3.2c.8-.9 1.9-1.6 3.1-2.1 1.2-.5 2.6-.7 4.2-.7 1.8 0 3.4.3 4.8 1 1.4.6 2.7 1.8 3.8 3.4l-4.7 2.4c-.4-.8-.9-1.4-1.5-1.8-.7-.4-1.4-.6-2.3-.6-.8 0-1.5.2-2.1.5-.6.3-1 .7-1.4 1.2-.4.5-.7 1.1-.8 1.8s-.3 1.5-.3 2.3c0 .8.1 1.6.3 2.3.2.7.5 1.3.9 1.8s.9.9 1.5 1.3 1.2.5 2 .5 1.6-.2 2.2-.7c.7-.4 1.2-1.2 1.6-2.2l4.5 2.4zM368.1 50h4.1l.3 2.6c.4-.8 1-1.5 1.8-2.1.8-.6 1.8-.9 3.1-.9v4.7c-.3-.1-.8-.1-1.5-.1-.4 0-.7 0-1.1.1-.4.1-.7.2-1 .5s-.6.6-.8 1.1c-.2.5-.3 1.2-.3 2v6.2h-4.6V50zM386.5 63.9c-.1-.2-.2-.5-.3-.8-.1-.3-.1-.6-.2-.9-.3.5-.7 1-1.3 1.5-.6.4-1.4.6-2.5.6-.7 0-1.4-.1-2-.3-.6-.2-1-.5-1.4-.9-.4-.4-.7-.9-.9-1.4-.2-.5-.3-1.1-.3-1.8s.1-1.3.4-1.8c.2-.5.6-1 1.1-1.3s1-.7 1.7-.9c.7-.2 1.4-.4 2.2-.5l2.8-.4v-.3c0-.6-.2-1-.5-1.2-.3-.2-.7-.3-1.3-.3-.9 0-1.6.2-2.2.5-.6.3-1.2.7-1.6 1.1l-2.2-3c.3-.2.7-.5 1.1-.7s.9-.5 1.5-.7 1.2-.3 1.8-.5c.7-.1 1.4-.2 2.2-.2 2.1 0 3.5.4 4.4 1.3.9.9 1.3 2.2 1.3 4v6.5c0 .4 0 .7.1 1 0 .3.1.6.2.8s.2.5.3.8h-4.4zm-.7-6.1l-1.9.4c-.6.1-1.1.3-1.4.6-.3.2-.4.6-.4 1s.1.7.4 1c.2.3.6.4 1.1.4.6 0 1.2-.2 1.6-.7s.7-1.2.7-2.1v-.6zM392.1 60.7l7.2-7.3h-7V50h12.4v3.3l-7.4 7.3h7.8V64H392v-3.3zM407.2 65.3c.3.1.7.2 1 .3.4.1.7.1 1 .1.4 0 .7-.1 1-.3s.4-.5.5-1l-5-14.4h5l2.4 9.4 2.4-9.4h5l-4.8 13.9c-.3.8-.5 1.5-.8 2.1-.3.6-.6 1.2-1.1 1.7-.4.5-1 .8-1.7 1.1-.7.3-1.5.4-2.6.4h-1.4c-.3 0-.5 0-.8-.1-.2 0-.4-.1-.6-.1l.5-3.7zM419.9 67.6c.5-.2.9-.4 1.2-.7.3-.2.5-.5.7-.7.2-.3.3-.5.3-.8s.1-.6.1-1v-.5h-2.3v-5.1h5.1v5c0 .9-.1 1.6-.2 2.2-.2.6-.4 1.1-.8 1.6-.3.5-.8.8-1.3 1.2-.5.3-1.1.6-1.8.9l-1-2.1zM432.8 50h4.1l.3 2.6c.4-.8 1-1.5 1.8-2.1.8-.6 1.8-.9 3.1-.9v4.7c-.3-.1-.8-.1-1.5-.1-.4 0-.7 0-1.1.1-.4.1-.7.2-1 .5s-.6.6-.8 1.1c-.2.5-.3 1.2-.3 2v6.2h-4.6V50zM443.2 44.4h4.6v3.7h-4.6v-3.7zm0 5.6h4.6v13.9h-4.6V50zM451.7 63.9c.5.5 1.2.9 2 1.3.8.3 1.6.5 2.4.5.9 0 1.5-.2 1.8-.6.3-.4.5-.9.5-1.7V62c-.3.5-.8.9-1.4 1.2s-1.4.5-2.3.5c-.7 0-1.3-.1-2-.3-.6-.2-1.2-.6-1.7-1.1-.5-.5-.9-1.2-1.2-2.1-.3-.9-.5-1.9-.5-3.2 0-1.2.1-2.2.4-3.1.3-.9.7-1.7 1.1-2.3.5-.6 1.1-1.1 1.8-1.4s1.4-.5 2.3-.5c.9 0 1.6.2 2.2.5.6.4 1.2.9 1.6 1.7l.6-1.9h3.6v13.2c0 .9-.1 1.6-.4 2.4-.2.7-.6 1.3-1.2 1.9s-1.3.9-2.1 1.2c-.9.3-1.9.4-3.1.4-.8 0-1.6-.1-2.3-.2-.7-.1-1.3-.3-1.9-.5-.6-.2-1.1-.4-1.6-.6-.5-.2-.9-.5-1.2-.7l2.6-3.2zm6.7-7c0-.4 0-.9-.1-1.3s-.2-.8-.3-1.1-.4-.6-.6-.8-.6-.3-1-.3c-.3 0-.6.1-.8.2-.3.1-.5.3-.7.6-.2.3-.3.6-.5 1.1-.1.4-.2 1-.2 1.6 0 1.2.2 2 .6 2.6.4.5.9.8 1.6.8.7 0 1.2-.3 1.5-.8.3-.5.5-1.3.5-2.4v-.2zM465.1 44.6h4.6v7.2c.3-.6.9-1.1 1.6-1.6.7-.4 1.6-.7 2.7-.7 1.6 0 2.8.5 3.5 1.5.7 1 1.1 2.5 1.1 4.4v8.4H474v-7.6c0-.9-.2-1.6-.5-2-.3-.5-.8-.7-1.5-.7s-1.2.3-1.6.8-.6 1.4-.6 2.7v6.8h-4.6V44.6zM481.7 52.9h-2.2v-3h.4c.7 0 1.3-.1 1.7-.4.4-.2.7-.6 1-.9.2-.4.4-.8.5-1.3s.2-1 .4-1.5h2.9V50h2.9v3h-2.9v6.5c0 .4.1.8.2 1 .2.3.5.4 1.1.4h.5c.2 0 .5-.1.7-.2l.3 3.2c-.5.2-1 .3-1.5.4-.5.1-1 .1-1.6.1-.9 0-1.6-.1-2.1-.3-.6-.2-1-.5-1.3-.9-.3-.4-.6-.8-.7-1.4-.1-.5-.2-1.1-.2-1.8v-7.1zM493.9 57.1v-.5-.3c0-.3 0-.7.1-.9.1-.3.2-.5.3-.8.1-.2.3-.4.4-.6l.4-.4c.4-.4.8-.7 1.2-1s.8-.6 1.1-.9c.3-.3.5-.6.7-.9s.3-.7.3-1.1c0-.6-.2-1.1-.6-1.4-.4-.3-.9-.5-1.5-.5-.7 0-1.3.2-1.8.6-.4.4-.8 1-1.1 1.7l-4-1.6c.5-1.4 1.4-2.4 2.7-3.1 1.2-.7 2.8-1.1 4.6-1.1 2.3 0 4.1.5 5.3 1.4 1.2 1 1.8 2.2 1.8 3.8 0 .3 0 .6-.1.9-.1.3-.2.7-.4 1-.2.3-.4.7-.7 1.1s-.7.7-1.2 1.1l-.9.6c-.3.2-.6.4-.9.7-.3.2-.6.5-.8.8-.2.3-.4.6-.5.9 0 .1-.1.2-.1.3v.3h-4.3zm-.4 1.8h5.1V64h-5.1v-5.1z"/></g></svg>