<svg version="1.1" id="Layer_1" xmlns="https://www.w3.org/2000/svg" x="0" y="0" viewBox="0 0 115.4 10.3" xml:space="preserve"><style>.copy_whiteFill{fill:#fff}</style><path class="copy_whiteFill" d="M3.9.2h2.2l3.9 9.9H7.3l-.7-2H3.3l-.7 2H0L3.9.2zm2 6c-.2-.5-.3-1-.5-1.4s-.3-1-.5-1.6c-.1.5-.3 1-.4 1.5-.2.5-.4 1-.5 1.5h1.9zM19.3 7.9c-.5.8-1.1 1.5-1.8 1.9s-1.6.6-2.6.6c-.8 0-1.6-.1-2.2-.4-.6-.3-1.2-.6-1.6-1.1-.4-.5-.7-1-1-1.6-.1-.7-.2-1.4-.2-2.1 0-.8.1-1.5.3-2.1.2-.6.6-1.2 1-1.6.4-.5 1-.8 1.6-1.1.6-.3 1.3-.4 2.1-.4.9 0 1.7.2 2.4.5s1.4.9 1.9 1.8l-2.4 1.2c-.2-.4-.5-.7-.8-.9s-.7-.3-1.2-.3c-.4 0-.8.1-1.1.2-.3.2-.5.4-.7.6-.2.3-.3.6-.4.9-.1.4-.1.8-.1 1.2s.1.8.2 1.2c.1.3.3.6.5.9.2.3.4.5.7.6.3.2.6.2 1 .2s.8-.1 1.1-.3.6-.6.8-1.1l2.5 1.2zM29.2 7.9c-.5.8-1.1 1.5-1.8 1.9s-1.6.6-2.6.6c-.8 0-1.6-.1-2.2-.4-.6-.3-1.2-.6-1.6-1.1-.4-.5-.7-1-1-1.6-.2-.6-.3-1.3-.3-2.1s.1-1.5.3-2.1c.2-.6.6-1.2 1-1.6.4-.5 1-.8 1.6-1.1.7-.3 1.4-.4 2.2-.4.9 0 1.7.2 2.4.5s1.4.9 1.9 1.8l-2.4 1.2c-.1-.5-.3-.8-.7-1s-.7-.3-1.2-.3c-.4 0-.8.1-1.1.2-.3.2-.5.4-.7.6-.2.3-.3.6-.4.9-.1.4-.1.8-.1 1.2s.1.8.2 1.2c.1.4.3.7.5.9.2.3.4.5.7.6.3.2.6.2 1 .2s.8-.1 1.1-.3.6-.6.8-1.1l2.4 1.3zM30.3.2h2.5v6.2c0 .6.1 1 .4 1.3.3.3.7.4 1.2.4s.9-.1 1.2-.4.4-.6.4-1.2V.2h2.5V7.3c0 .3-.1.5-.2.8-.1.3-.2.5-.4.8-.2.3-.4.5-.7.7-.3.2-.7.4-1.1.5s-1 .2-1.6.2c-.6 0-1.2-.1-1.6-.2s-.9-.2-1.2-.4c-.3-.2-.5-.5-.7-.7-.2-.3-.3-.5-.4-.8s-.2-.5-.2-.8V.2zM40.2.2h4.1c.5 0 1 .1 1.5.2s.9.3 1.3.5.7.6.9 1c.2.4.3.9.3 1.5 0 .4-.1.8-.2 1.1s-.3.5-.6.7c-.2.2-.5.4-.8.5l-.9.3c.3 0 .5.1.7.2.2.1.4.3.6.6l1.9 3.3h-3l-1.2-2.4c-.1-.2-.2-.4-.3-.5l-.3-.3c-.1-.1-.3-.1-.4-.1h-1.1v3.3h-2.5V.2zm3.9 4.6h.5c.2 0 .3-.1.5-.2.1-.1.3-.2.3-.4.1-.2.1-.4.1-.7 0-.3 0-.5-.1-.6-.1-.2-.2-.3-.4-.4-.1-.1-.3-.2-.5-.2h-1.9V5h1.5zM53 .2h2.2l3.9 9.9h-2.6l-.7-2h-3.3l-.7 2h-2.6L53 .2zm2.1 6c-.2-.5-.3-1-.5-1.4s-.3-1-.5-1.6c-.1.6-.3 1.1-.5 1.6s-.4 1-.5 1.5h2zM68.4 7.9c-.5.8-1.1 1.5-1.8 1.9s-1.6.6-2.6.6c-.8 0-1.6-.1-2.2-.4-.6-.3-1.2-.6-1.6-1.1-.4-.5-.7-1-1-1.6-.1-.7-.2-1.4-.2-2.1 0-.8.1-1.5.3-2.1.2-.6.6-1.2 1-1.6.4-.5 1-.8 1.6-1.1.6-.3 1.3-.4 2.1-.4.9 0 1.7.2 2.4.5s1.4.9 1.9 1.8L66 3.4c-.2-.4-.5-.7-.8-.9s-.7-.3-1.2-.3c-.4 0-.8.1-1.1.2-.3.2-.5.4-.7.6-.2.3-.3.6-.4.9-.1.4-.1.8-.1 1.2s.1.8.2 1.2c.1.4.2.7.4 1 .2.3.4.5.7.6.3.2.6.2 1 .2s.8-.1 1.1-.3.6-.6.8-1.1l2.5 1.2zM71.9 5.7L68.3.2h2.9l2 3.6L75.3.2h2.9l-3.7 5.5v4.4H72V5.7zM81.9.2h4.2c.5 0 1 .1 1.4.2.5.1.9.3 1.2.5s.7.6.9 1c.3.4.4.9.4 1.5s-.1 1.1-.3 1.6c-.2.4-.5.8-.8 1-.3.3-.8.5-1.2.6-.5.1-1 .2-1.5.2h-1.7v3.3H82V.2zm3.8 4.6c.2 0 .4 0 .6-.1.2 0 .3-.1.5-.2.1-.1.2-.3.3-.4.1-.2.1-.4.1-.7 0-.2 0-.4-.1-.6-.1-.2-.2-.3-.3-.4s-.3-.2-.5-.2-.4-.1-.6-.1h-1.3v2.7h1.3zM93.1.2h2.2l3.9 9.9h-2.6l-.7-2h-3.3l-.7 2h-2.6L93.1.2zm2.1 6c-.2-.5-.3-1-.5-1.4s-.3-1-.5-1.6c-.1.6-.3 1.1-.5 1.6s-.4 1-.5 1.5h2zM101.2 5.7L97.6.2h2.9l2 3.6 2.1-3.6h2.9l-3.7 5.5v4.4h-2.5V5.7zM108.8 7.1l.4.4c.2.2.4.3.6.4.2.1.5.2.7.3s.6.1.9.1c.4 0 .8-.1 1-.2.2-.1.4-.3.4-.6 0-.2-.1-.4-.2-.5-.1-.1-.3-.2-.5-.3-.2-.1-.5-.2-.8-.2s-.7-.2-1.1-.3c-1-.2-1.7-.6-2.1-1.1-.4-.5-.6-1.1-.6-1.8 0-.4.1-.8.3-1.2.2-.4.4-.7.7-1 .3-.3.7-.5 1.2-.7.5-.2 1.1-.3 1.7-.3.8 0 1.5.1 2.2.4s1.3.7 1.7 1.2l-1.7 1.6c-.3-.3-.6-.6-1-.8-.4-.2-.9-.3-1.4-.3-.2 0-.4 0-.6.1-.2 0-.3.1-.4.2-.1.1-.1.2-.2.2V3c0 .2.1.4.4.6.2.2.7.4 1.3.5.7.2 1.3.4 1.8.6.5.2.8.4 1.1.7s.5.5.6.8c.1.3.2.6.2 1 0 .5-.1 1-.3 1.4-.2.4-.5.7-.9 1-.4.3-.8.5-1.3.6-.5.1-1 .2-1.5.2s-1 0-1.4-.1l-1.2-.3c-.3-.1-.7-.3-.9-.5-.3-.2-.5-.4-.6-.6l1.5-1.8z"/></svg>