<?xml version="1.0" encoding="utf-8"?>
<!-- Generator: Adobe Illustrator 22.1.0, SVG Export Plug-In . SVG Version: 6.00 Build 0)  -->
<svg version="1.1" id="Layer_1" xmlns="https://www.w3.org/2000/svg" xmlns:xlink="https://www.w3.org/1999/xlink" x="0px" y="0px"
	 viewBox="0 0 300 250" style="enable-background:new 0 0 300 250;" xml:space="preserve">
<style type="text/css">
	.copy-purpleFill{fill:#662868;}
</style>
<g>
	<path class="copy-purpleFill" d="M29.1,82.7c-1.1,0-2.2-0.2-3.3-0.5c-1-0.3-1.9-0.9-2.7-1.6c-0.8-0.7-1.4-1.6-1.9-2.7c-0.5-1.1-0.7-2.4-0.7-3.9
		c0-1.5,0.2-2.8,0.7-3.9c0.5-1.1,1.1-2,1.9-2.7c0.8-0.7,1.7-1.3,2.7-1.6c1-0.3,2.1-0.5,3.3-0.5c1.1,0,2.2,0.2,3.3,0.5
		c1,0.3,1.9,0.9,2.7,1.6s1.4,1.6,1.9,2.7c0.5,1.1,0.7,2.4,0.7,3.9c0,1.5-0.2,2.8-0.7,3.9c-0.5,1.1-1.1,2-1.9,2.7
		c-0.8,0.7-1.7,1.2-2.7,1.6C31.3,82.5,30.2,82.7,29.1,82.7z M29.1,79c0.6,0,1.1-0.1,1.6-0.3c0.5-0.2,0.9-0.5,1.3-0.9
		s0.6-0.9,0.8-1.6s0.3-1.4,0.3-2.3c0-1.6-0.4-2.9-1.1-3.8c-0.7-0.9-1.7-1.3-2.9-1.3c-1.2,0-2.1,0.4-2.8,1.3c-0.7,0.9-1,2.1-1,3.8
		c0,0.9,0.1,1.6,0.3,2.3s0.5,1.1,0.9,1.6c0.4,0.4,0.8,0.7,1.3,0.9C28.1,78.9,28.6,79,29.1,79z"/>
	<path class="copy-purpleFill" d="M39.9,72.8H38v-2.6h0.3c0.6,0,1.1-0.1,1.5-0.3c0.4-0.2,0.6-0.5,0.8-0.8c0.2-0.3,0.3-0.7,0.4-1.2
		c0.1-0.4,0.2-0.9,0.3-1.3h2.5v3.6h2.5v2.6h-2.5v5.6c0,0.4,0.1,0.7,0.2,0.9c0.1,0.2,0.5,0.4,0.9,0.4c0.1,0,0.3,0,0.5,0
		c0.2,0,0.4-0.1,0.6-0.2l0.3,2.8c-0.4,0.2-0.9,0.3-1.3,0.4c-0.4,0.1-0.9,0.1-1.4,0.1c-0.7,0-1.4-0.1-1.9-0.3
		c-0.5-0.2-0.9-0.5-1.2-0.8c-0.3-0.3-0.5-0.7-0.6-1.2c-0.1-0.5-0.2-1-0.2-1.5V72.8z"/>
	<path class="copy-purpleFill" d="M47.3,65.5h4v6.3c0.3-0.5,0.8-1,1.4-1.4c0.6-0.4,1.4-0.6,2.3-0.6c1.4,0,2.4,0.4,3,1.3c0.6,0.9,1,2.2,1,3.8v7.3
		h-4v-6.6c0-0.8-0.1-1.3-0.4-1.8s-0.7-0.6-1.3-0.6c-0.6,0-1,0.2-1.4,0.7c-0.4,0.5-0.5,1.3-0.5,2.4v5.9h-4V65.5z"/>
	<path class="copy-purpleFill" d="M64.3,77.2c0.1,0.9,0.4,1.6,0.9,2c0.5,0.4,1,0.6,1.6,0.6c0.5,0,0.9-0.1,1.3-0.3c0.4-0.2,0.7-0.6,1-1L72,80
		c-0.6,0.9-1.4,1.6-2.3,2c-0.9,0.4-2,0.6-3.1,0.6c-1,0-1.9-0.2-2.7-0.5c-0.8-0.3-1.5-0.8-2-1.3c-0.5-0.6-0.9-1.2-1.2-2
		c-0.3-0.8-0.4-1.6-0.4-2.5c0-0.9,0.1-1.8,0.4-2.6c0.3-0.8,0.7-1.5,1.2-2c0.5-0.6,1.2-1,1.9-1.3c0.8-0.3,1.6-0.5,2.6-0.5
		c0.9,0,1.8,0.2,2.5,0.5c0.7,0.3,1.3,0.8,1.8,1.3c0.5,0.6,0.9,1.3,1.1,2.1c0.3,0.8,0.4,1.7,0.4,2.7c0,0.2,0,0.4,0,0.5
		c0,0.1,0,0.2,0,0.2H64.3z M66.3,72.8c-1.1,0-1.8,0.7-2,2.2h3.9c0-0.6-0.2-1.1-0.5-1.5C67.4,73,66.9,72.8,66.3,72.8z"/>
	<path class="copy-purpleFill" d="M73.5,70.2h3.6l0.3,2.2c0.4-0.7,0.9-1.3,1.5-1.8s1.5-0.7,2.6-0.7v4.1c-0.3-0.1-0.7-0.1-1.3-0.1
		c-0.3,0-0.6,0-1,0.1c-0.3,0.1-0.6,0.2-0.9,0.4c-0.3,0.2-0.5,0.5-0.7,0.9s-0.3,1-0.3,1.7v5.3h-4V70.2z"/>
	<path class="copy-purpleFill" d="M98.5,79.8c-0.6,1-1.4,1.8-2.3,2.2c-0.9,0.5-2,0.7-3.2,0.7c-1.1,0-2-0.2-2.8-0.5s-1.4-0.8-1.9-1.4
		s-0.9-1.2-1.1-2c-0.2-0.8-0.4-1.6-0.4-2.5c0-1,0.1-1.9,0.4-2.7c0.3-0.8,0.7-1.5,1.2-2c0.5-0.6,1.2-1,1.9-1.3
		c0.8-0.3,1.6-0.5,2.6-0.5c1.2,0,2.3,0.3,3.2,0.8c0.9,0.5,1.6,1.3,2.2,2.3l-3.3,1.6c-0.2-0.6-0.5-1-0.9-1.2
		c-0.3-0.2-0.7-0.4-1.1-0.4c-0.7,0-1.3,0.3-1.6,0.9c-0.3,0.6-0.5,1.4-0.5,2.3c0,0.4,0,0.8,0.1,1.2c0.1,0.4,0.2,0.8,0.3,1.1
		c0.2,0.3,0.4,0.6,0.7,0.9c0.3,0.2,0.7,0.3,1.2,0.3c0.5,0,1-0.1,1.3-0.4c0.3-0.3,0.6-0.7,0.8-1.2L98.5,79.8z"/>
	<path class="copy-purpleFill" d="M104.7,82.7c-1,0-1.9-0.2-2.7-0.5c-0.8-0.3-1.4-0.8-1.9-1.3c-0.5-0.6-0.9-1.2-1.1-2c-0.3-0.8-0.4-1.6-0.4-2.5
		c0-0.9,0.1-1.8,0.4-2.6c0.3-0.8,0.7-1.5,1.2-2c0.5-0.6,1.2-1,1.9-1.4c0.8-0.3,1.6-0.5,2.6-0.5s1.9,0.2,2.6,0.5
		c0.8,0.3,1.4,0.8,1.9,1.3c0.5,0.6,0.9,1.2,1.2,2c0.3,0.8,0.4,1.6,0.4,2.6c0,0.9-0.1,1.8-0.4,2.5s-0.6,1.4-1.2,2
		c-0.5,0.6-1.1,1-1.9,1.3S105.7,82.7,104.7,82.7z M104.7,79.6c0.7,0,1.1-0.3,1.4-0.9c0.3-0.6,0.4-1.4,0.4-2.4c0-1-0.2-1.9-0.5-2.5
		c-0.3-0.6-0.8-0.9-1.5-0.9c-0.7,0-1.2,0.3-1.5,0.9c-0.3,0.6-0.5,1.4-0.5,2.5c0,1,0.2,1.8,0.5,2.4C103.5,79.3,104,79.6,104.7,79.6z"
		/>
	<path class="copy-purpleFill" d="M112.1,70.2h3.6l0.3,1.7c0.3-0.6,0.8-1.2,1.4-1.5c0.6-0.4,1.3-0.5,2.1-0.5c1,0,1.7,0.2,2.3,0.7
		c0.5,0.4,0.9,0.9,1.2,1.5c0.1-0.3,0.3-0.5,0.5-0.8c0.2-0.3,0.4-0.5,0.7-0.7c0.3-0.2,0.7-0.4,1.1-0.5c0.4-0.1,0.9-0.2,1.5-0.2
		c0.9,0,1.5,0.1,2.1,0.4c0.5,0.3,0.9,0.7,1.2,1.1s0.5,1,0.6,1.6c0.1,0.6,0.1,1.2,0.1,1.9v7.4h-4V76c0-0.9-0.1-1.6-0.3-2
		c-0.2-0.4-0.6-0.7-1.2-0.7c-0.2,0-0.4,0-0.6,0.1c-0.2,0.1-0.4,0.2-0.6,0.4c-0.2,0.2-0.3,0.5-0.4,0.9s-0.2,0.9-0.2,1.5v6.1h-4v-6.4
		c0-0.9-0.1-1.5-0.4-1.9c-0.2-0.4-0.6-0.6-1.2-0.6c-0.2,0-0.4,0-0.6,0.1s-0.4,0.2-0.6,0.4c-0.2,0.2-0.3,0.5-0.4,1
		c-0.1,0.4-0.2,1-0.2,1.7v5.8h-4V70.2z"/>
	<path class="copy-purpleFill" d="M132.4,70.2h4v1.6c0.3-0.6,0.7-1,1.2-1.4c0.5-0.4,1.2-0.6,2.1-0.6c1.3,0,2.4,0.5,3.3,1.6
		c0.8,1.1,1.3,2.6,1.3,4.7c0,1.3-0.2,2.3-0.5,3.1c-0.3,0.8-0.7,1.5-1.1,2c-0.5,0.5-1,0.8-1.5,1c-0.6,0.2-1.1,0.3-1.6,0.3
		c-0.6,0-1.2-0.1-1.8-0.3c-0.6-0.2-1-0.6-1.3-1v5.2h-4V70.2z M136.4,76.4c0,0.4,0,0.8,0.1,1.2c0.1,0.4,0.2,0.7,0.3,1
		s0.4,0.5,0.6,0.6c0.2,0.2,0.5,0.2,0.8,0.2c0.6,0,1-0.3,1.3-0.8c0.3-0.5,0.5-1.3,0.5-2.3s-0.2-1.8-0.5-2.4c-0.3-0.5-0.8-0.8-1.4-0.8
		c-0.3,0-0.6,0.1-0.8,0.2c-0.2,0.2-0.4,0.4-0.5,0.7c-0.1,0.3-0.2,0.6-0.3,0.9c-0.1,0.4-0.1,0.7-0.1,1.1V76.4z"/>
	<path class="copy-purpleFill" d="M152.4,82.3c-0.1-0.2-0.2-0.4-0.2-0.7c-0.1-0.3-0.1-0.5-0.1-0.8c-0.2,0.5-0.6,0.9-1.1,1.3s-1.3,0.6-2.2,0.6
		c-0.6,0-1.2-0.1-1.7-0.3c-0.5-0.2-0.9-0.5-1.2-0.8c-0.3-0.3-0.6-0.8-0.8-1.2s-0.3-1-0.3-1.5c0-0.6,0.1-1.2,0.3-1.6
		c0.2-0.5,0.5-0.8,0.9-1.2c0.4-0.3,0.9-0.6,1.5-0.8c0.6-0.2,1.2-0.3,1.9-0.5l2.4-0.4v-0.3c0-0.5-0.1-0.8-0.4-1
		c-0.3-0.2-0.6-0.3-1.1-0.3c-0.7,0-1.4,0.1-1.9,0.4c-0.5,0.3-1,0.6-1.4,0.9l-1.9-2.6c0.3-0.2,0.6-0.4,0.9-0.6
		c0.4-0.2,0.8-0.4,1.3-0.6s1-0.3,1.6-0.4c0.6-0.1,1.2-0.2,1.9-0.2c1.8,0,3.1,0.4,3.8,1.1c0.8,0.8,1.2,1.9,1.2,3.5v4.3
		c0,0.5,0,0.9,0,1.3c0,0.3,0,0.6,0.1,0.9c0,0.3,0.1,0.5,0.2,0.7c0.1,0.2,0.2,0.4,0.3,0.7H152.4z M151.8,76.9l-1.6,0.3
		c-0.6,0.1-1,0.3-1.2,0.5c-0.3,0.2-0.4,0.5-0.4,0.9c0,0.3,0.1,0.6,0.3,0.9c0.2,0.2,0.5,0.3,0.9,0.3c0.6,0,1-0.2,1.4-0.6
		c0.4-0.4,0.6-1,0.6-1.9V76.9z"/>
	<path class="copy-purpleFill" d="M157.7,70.2h3.6l0.3,1.7c0.4-0.6,0.9-1.1,1.5-1.4s1.4-0.6,2.2-0.6c2.7,0,4,1.7,4,5.1v7.4h-4v-6.4
		c0-0.9-0.1-1.6-0.4-2c-0.3-0.4-0.7-0.6-1.3-0.6c-0.3,0-0.5,0.1-0.8,0.2c-0.2,0.1-0.4,0.3-0.6,0.5c-0.2,0.3-0.3,0.6-0.4,1
		c-0.1,0.4-0.1,0.9-0.1,1.6v5.7h-4V70.2z"/>
	<path class="copy-purpleFill" d="M171.1,65.4h4v3.2h-4V65.4z M171.1,70.2h4v12.1h-4V70.2z"/>
	<path class="copy-purpleFill" d="M180.5,77.2c0.1,0.9,0.4,1.6,0.9,2c0.5,0.4,1,0.6,1.6,0.6c0.5,0,0.9-0.1,1.3-0.3s0.7-0.6,1-1l2.9,1.7
		c-0.6,0.9-1.4,1.6-2.3,2c-1,0.4-2,0.6-3.1,0.6c-1,0-1.9-0.2-2.7-0.5s-1.5-0.8-2-1.3c-0.5-0.6-0.9-1.2-1.2-2
		c-0.3-0.8-0.4-1.6-0.4-2.5c0-0.9,0.1-1.8,0.4-2.6c0.3-0.8,0.7-1.5,1.2-2c0.5-0.6,1.2-1,1.9-1.3c0.8-0.3,1.6-0.5,2.6-0.5
		c0.9,0,1.8,0.2,2.5,0.5s1.3,0.8,1.8,1.3c0.5,0.6,0.9,1.3,1.1,2.1c0.3,0.8,0.4,1.7,0.4,2.7c0,0.2,0,0.4,0,0.5c0,0.1,0,0.2,0,0.2
		H180.5z M182.5,72.8c-1.1,0-1.8,0.7-2,2.2h3.9c0-0.6-0.2-1.1-0.5-1.5C183.6,73,183.2,72.8,182.5,72.8z"/>
	<path class="copy-purpleFill" d="M190.6,78.3c0.2,0.2,0.4,0.4,0.7,0.5c0.3,0.2,0.6,0.3,0.9,0.5s0.7,0.3,1,0.3c0.3,0.1,0.7,0.1,1,0.1
		c0.3,0,0.6,0,0.9-0.1c0.3-0.1,0.4-0.3,0.4-0.6c0-0.3-0.2-0.5-0.5-0.7s-0.7-0.3-1.2-0.5c-0.5-0.1-1-0.3-1.5-0.4s-1.1-0.4-1.5-0.7
		c-0.5-0.3-0.9-0.7-1.2-1.1c-0.3-0.5-0.5-1.1-0.5-1.8c0-0.7,0.1-1.3,0.4-1.8c0.3-0.5,0.7-0.9,1.1-1.2c0.5-0.3,1-0.6,1.6-0.7
		s1.3-0.2,1.9-0.2c1.1,0,2,0.1,2.9,0.4c0.8,0.3,1.6,0.6,2.2,1.1l-1.8,2.7c-0.2-0.1-0.4-0.3-0.6-0.4c-0.3-0.1-0.5-0.3-0.8-0.4
		s-0.6-0.2-1-0.3c-0.3-0.1-0.7-0.1-1-0.1c-0.3,0-0.5,0-0.7,0.1s-0.3,0.3-0.3,0.5c0,0.3,0.2,0.5,0.5,0.6c0.3,0.2,0.7,0.3,1.2,0.5
		s1,0.3,1.5,0.5c0.5,0.2,1.1,0.4,1.5,0.7s0.9,0.7,1.2,1.1s0.5,1,0.5,1.7c0,0.7-0.2,1.3-0.5,1.8c-0.3,0.5-0.7,1-1.2,1.3
		c-0.5,0.3-1.1,0.6-1.7,0.8c-0.6,0.2-1.2,0.2-1.8,0.2c-2.3,0-4.1-0.6-5.6-1.7L190.6,78.3z"/>
	<path class="copy-purpleFill" d="M213.1,80.6c-0.3,0.6-0.7,1.1-1.3,1.4c-0.5,0.3-1.2,0.5-2,0.5c-0.7,0-1.4-0.1-2-0.4c-0.6-0.3-1.1-0.7-1.5-1.2
		c-0.4-0.5-0.7-1.2-1-2c-0.2-0.8-0.4-1.7-0.4-2.7c0-1.2,0.1-2.2,0.4-3c0.3-0.8,0.7-1.4,1.1-1.9c0.5-0.5,1-0.8,1.5-1
		c0.6-0.2,1.1-0.3,1.7-0.3c0.8,0,1.4,0.1,1.9,0.4c0.5,0.3,0.9,0.7,1.1,1.1v-5.9h4v16.8h-3.8V80.6z M212.9,76c0-0.4,0-0.7-0.1-1.1
		c-0.1-0.3-0.2-0.7-0.3-0.9c-0.1-0.3-0.3-0.5-0.6-0.7c-0.2-0.2-0.5-0.2-0.9-0.2c-0.6,0-1.1,0.3-1.4,0.8c-0.3,0.5-0.5,1.2-0.5,2.2
		c0,1,0.2,1.9,0.5,2.4s0.8,0.9,1.4,0.9c0.3,0,0.6-0.1,0.8-0.2c0.2-0.2,0.4-0.4,0.5-0.7c0.1-0.3,0.2-0.6,0.3-1
		c0.1-0.4,0.1-0.8,0.1-1.2V76z"/>
	<path class="copy-purpleFill" d="M224.3,82.7c-1,0-1.9-0.2-2.7-0.5s-1.4-0.8-1.9-1.3c-0.5-0.6-0.9-1.2-1.1-2c-0.3-0.8-0.4-1.6-0.4-2.5
		c0-0.9,0.1-1.8,0.4-2.6c0.3-0.8,0.7-1.5,1.2-2c0.5-0.6,1.2-1,1.9-1.4c0.8-0.3,1.6-0.5,2.6-0.5c1,0,1.9,0.2,2.6,0.5
		c0.8,0.3,1.4,0.8,1.9,1.3c0.5,0.6,0.9,1.2,1.2,2c0.3,0.8,0.4,1.6,0.4,2.6c0,0.9-0.1,1.8-0.4,2.5s-0.6,1.4-1.2,2
		c-0.5,0.6-1.1,1-1.9,1.3C226.2,82.5,225.3,82.7,224.3,82.7z M224.4,79.6c0.7,0,1.1-0.3,1.4-0.9c0.3-0.6,0.4-1.4,0.4-2.4
		c0-1-0.2-1.9-0.5-2.5s-0.8-0.9-1.5-0.9c-0.7,0-1.2,0.3-1.5,0.9s-0.5,1.4-0.5,2.5c0,1,0.2,1.8,0.5,2.4
		C223.1,79.3,223.7,79.6,224.4,79.6z"/>
	<path class="copy-purpleFill" d="M231.7,70.2h3.6l0.3,1.7c0.4-0.6,0.9-1.1,1.5-1.4s1.4-0.6,2.2-0.6c2.7,0,4,1.7,4,5.1v7.4h-4v-6.4
		c0-0.9-0.1-1.6-0.4-2c-0.3-0.4-0.7-0.6-1.3-0.6c-0.3,0-0.5,0.1-0.8,0.2c-0.2,0.1-0.4,0.3-0.6,0.5c-0.2,0.3-0.3,0.6-0.4,1
		c-0.1,0.4-0.1,0.9-0.1,1.6v5.7h-4V70.2z"/>
	<path class="copy-purpleFill" d="M244.7,72.9c0.4-0.2,0.8-0.4,1-0.6c0.3-0.2,0.5-0.4,0.6-0.6c0.1-0.2,0.2-0.5,0.3-0.7c0-0.3,0.1-0.5,0.1-0.8
		v-0.4h-2v-4.2h4.4v4.2c0,0.7-0.1,1.4-0.2,1.9c-0.1,0.5-0.4,1-0.7,1.4c-0.3,0.4-0.7,0.7-1.1,1c-0.4,0.3-1,0.5-1.6,0.8L244.7,72.9z"
		/>
	<path class="copy-purpleFill" d="M252,72.8h-1.9v-2.6h0.3c0.6,0,1.1-0.1,1.5-0.3c0.4-0.2,0.6-0.5,0.8-0.8c0.2-0.3,0.3-0.7,0.4-1.2
		c0.1-0.4,0.2-0.9,0.3-1.3h2.5v3.6h2.5v2.6H256v5.6c0,0.4,0.1,0.7,0.2,0.9s0.5,0.4,0.9,0.4c0.1,0,0.3,0,0.5,0c0.2,0,0.4-0.1,0.6-0.2
		l0.3,2.8c-0.4,0.2-0.9,0.3-1.3,0.4s-0.9,0.1-1.4,0.1c-0.7,0-1.4-0.1-1.9-0.3c-0.5-0.2-0.9-0.5-1.2-0.8c-0.3-0.3-0.5-0.7-0.6-1.2
		c-0.1-0.5-0.2-1-0.2-1.5V72.8z"/>
</g>
<g>
	<path class="copy-purpleFill" d="M32.2,106.9c-0.6,1-1.4,1.8-2.3,2.2c-0.9,0.5-2,0.7-3.2,0.7c-1.1,0-2-0.2-2.8-0.5s-1.4-0.8-1.9-1.4
		s-0.9-1.2-1.1-2c-0.2-0.8-0.4-1.6-0.4-2.5c0-1,0.1-1.9,0.4-2.7c0.3-0.8,0.7-1.5,1.2-2c0.5-0.6,1.2-1,1.9-1.3
		c0.8-0.3,1.6-0.5,2.6-0.5c1.2,0,2.3,0.3,3.2,0.8c0.9,0.5,1.6,1.3,2.2,2.3l-3.3,1.6c-0.2-0.6-0.5-1-0.9-1.2
		c-0.3-0.2-0.7-0.4-1.1-0.4c-0.7,0-1.3,0.3-1.6,0.9c-0.3,0.6-0.5,1.4-0.5,2.3c0,0.4,0,0.8,0.1,1.2c0.1,0.4,0.2,0.8,0.3,1.1
		c0.2,0.3,0.4,0.6,0.7,0.9c0.3,0.2,0.7,0.3,1.2,0.3c0.5,0,1-0.1,1.3-0.4c0.3-0.3,0.6-0.7,0.8-1.2L32.2,106.9z"/>
	<path class="copy-purpleFill" d="M33.1,92.6h4v6.3c0.3-0.5,0.8-1,1.4-1.4c0.6-0.4,1.4-0.6,2.3-0.6c1.4,0,2.4,0.4,3,1.3c0.6,0.9,1,2.2,1,3.8v7.3
		h-4v-6.6c0-0.8-0.1-1.3-0.4-1.8s-0.7-0.6-1.3-0.6c-0.6,0-1,0.2-1.4,0.7c-0.4,0.5-0.5,1.3-0.5,2.4v5.9h-4V92.6z"/>
	<path class="copy-purpleFill" d="M50.1,104.3c0.1,0.9,0.4,1.6,0.9,2c0.5,0.4,1,0.6,1.6,0.6c0.5,0,0.9-0.1,1.3-0.3c0.4-0.2,0.7-0.6,1-1l2.9,1.7
		c-0.6,0.9-1.4,1.6-2.3,2c-0.9,0.4-2,0.6-3.1,0.6c-1,0-1.9-0.2-2.7-0.5c-0.8-0.3-1.5-0.8-2-1.3c-0.5-0.6-0.9-1.2-1.2-2
		c-0.3-0.8-0.4-1.6-0.4-2.5c0-0.9,0.1-1.8,0.4-2.6c0.3-0.8,0.7-1.5,1.2-2c0.5-0.6,1.2-1,1.9-1.3c0.8-0.3,1.6-0.5,2.6-0.5
		c0.9,0,1.8,0.2,2.5,0.5c0.7,0.3,1.3,0.8,1.8,1.3c0.5,0.6,0.9,1.3,1.1,2.1c0.3,0.8,0.4,1.7,0.4,2.7c0,0.2,0,0.4,0,0.5
		c0,0.1,0,0.2,0,0.2H50.1z M52.1,99.9c-1.1,0-1.8,0.7-2,2.2H54c0-0.6-0.2-1.1-0.5-1.5C53.2,100.1,52.7,99.9,52.1,99.9z"/>
	<path class="copy-purpleFill" d="M70.4,106.9c-0.6,1-1.4,1.8-2.3,2.2c-0.9,0.5-2,0.7-3.2,0.7c-1.1,0-2-0.2-2.8-0.5s-1.4-0.8-1.9-1.4
		s-0.9-1.2-1.1-2c-0.2-0.8-0.4-1.6-0.4-2.5c0-1,0.1-1.9,0.4-2.7c0.3-0.8,0.7-1.5,1.2-2c0.5-0.6,1.2-1,1.9-1.3
		c0.8-0.3,1.6-0.5,2.6-0.5c1.2,0,2.3,0.3,3.2,0.8c0.9,0.5,1.6,1.3,2.2,2.3l-3.3,1.6c-0.2-0.6-0.5-1-0.9-1.2
		c-0.3-0.2-0.7-0.4-1.1-0.4c-0.7,0-1.3,0.3-1.6,0.9c-0.3,0.6-0.5,1.4-0.5,2.3c0,0.4,0,0.8,0.1,1.2c0.1,0.4,0.2,0.8,0.3,1.1
		c0.2,0.3,0.4,0.6,0.7,0.9c0.3,0.2,0.7,0.3,1.2,0.3c0.5,0,1-0.1,1.3-0.4c0.3-0.3,0.6-0.7,0.8-1.2L70.4,106.9z"/>
	<path class="copy-purpleFill" d="M71.3,92.6h4v9.1l4-4.4h4.9l-4.7,4.6l4.7,7.5h-4.5l-2.7-5.1l-1.6,1.5v3.6h-4V92.6z"/>
	<path class="copy-purpleFill" d="M90.9,99.9h-2v-2.6h1.8c-0.1-0.4-0.2-0.8-0.3-1.1c0-0.4-0.1-0.7-0.1-0.9c0-0.4,0.1-0.8,0.2-1.2
		c0.1-0.4,0.3-0.7,0.6-1c0.3-0.3,0.7-0.5,1.2-0.7c0.5-0.2,1.2-0.2,2-0.2c0.7,0,1.3,0,1.8,0.1c0.5,0.1,0.9,0.2,1.4,0.4l-0.6,3
		c-0.2-0.1-0.4-0.2-0.8-0.3c-0.3-0.1-0.6-0.1-0.8-0.1c-0.3,0-0.5,0.1-0.7,0.2c-0.2,0.1-0.3,0.3-0.3,0.6c0,0.3,0,0.5,0.1,0.8
		s0.1,0.4,0.2,0.6h2.4v2.6h-2.2v9.5h-4V99.9z"/>
	<path class="copy-purpleFill" d="M103.3,109.8c-1,0-1.9-0.2-2.7-0.5c-0.8-0.3-1.4-0.8-1.9-1.3c-0.5-0.6-0.9-1.2-1.1-2c-0.3-0.8-0.4-1.6-0.4-2.5
		c0-0.9,0.1-1.8,0.4-2.6c0.3-0.8,0.7-1.5,1.2-2c0.5-0.6,1.2-1,1.9-1.4c0.8-0.3,1.6-0.5,2.6-0.5s1.9,0.2,2.6,0.5
		c0.8,0.3,1.4,0.8,1.9,1.3c0.5,0.6,0.9,1.2,1.2,2c0.3,0.8,0.4,1.6,0.4,2.6c0,0.9-0.1,1.8-0.4,2.5s-0.6,1.4-1.2,2
		c-0.5,0.6-1.1,1-1.9,1.3S104.3,109.8,103.3,109.8z M103.4,106.7c0.7,0,1.1-0.3,1.4-0.9c0.3-0.6,0.4-1.4,0.4-2.4
		c0-1-0.2-1.9-0.5-2.5c-0.3-0.6-0.8-0.9-1.5-0.9c-0.7,0-1.2,0.3-1.5,0.9c-0.3,0.6-0.5,1.4-0.5,2.5c0,1,0.2,1.8,0.5,2.4
		C102.2,106.4,102.7,106.7,103.4,106.7z"/>
	<path class="copy-purpleFill" d="M110.7,97.3h3.6l0.3,2.2c0.4-0.7,0.9-1.3,1.5-1.8s1.5-0.7,2.6-0.7v4.1c-0.3-0.1-0.7-0.1-1.3-0.1
		c-0.3,0-0.6,0-1,0.1c-0.3,0.1-0.6,0.2-0.9,0.4c-0.3,0.2-0.5,0.5-0.7,0.9s-0.3,1-0.3,1.7v5.3h-4V97.3z"/>
	<path class="copy-purpleFill" d="M131.8,109.4c-0.1-0.2-0.2-0.4-0.2-0.7c-0.1-0.3-0.1-0.5-0.1-0.8c-0.2,0.5-0.6,0.9-1.1,1.3s-1.3,0.6-2.2,0.6
		c-0.6,0-1.2-0.1-1.7-0.3c-0.5-0.2-0.9-0.5-1.2-0.8c-0.3-0.3-0.6-0.8-0.8-1.2s-0.3-1-0.3-1.5c0-0.6,0.1-1.2,0.3-1.6
		c0.2-0.5,0.5-0.8,0.9-1.2c0.4-0.3,0.9-0.6,1.5-0.8c0.6-0.2,1.2-0.3,1.9-0.5l2.4-0.4v-0.3c0-0.5-0.1-0.8-0.4-1
		c-0.3-0.2-0.6-0.3-1.1-0.3c-0.7,0-1.4,0.1-1.9,0.4c-0.5,0.3-1,0.6-1.4,0.9l-1.9-2.6c0.3-0.2,0.6-0.4,0.9-0.6
		c0.4-0.2,0.8-0.4,1.3-0.6s1-0.3,1.6-0.4c0.6-0.1,1.2-0.2,1.9-0.2c1.8,0,3.1,0.4,3.8,1.1c0.8,0.8,1.2,1.9,1.2,3.5v4.3
		c0,0.5,0,0.9,0,1.3c0,0.3,0,0.6,0.1,0.9c0,0.3,0.1,0.5,0.2,0.7c0.1,0.2,0.1,0.4,0.3,0.7H131.8z M131.2,104.1l-1.6,0.3
		c-0.6,0.1-1,0.3-1.2,0.5c-0.3,0.2-0.4,0.5-0.4,0.9c0,0.3,0.1,0.6,0.3,0.9c0.2,0.2,0.5,0.3,0.9,0.3c0.6,0,1-0.2,1.4-0.6
		c0.4-0.4,0.6-1,0.6-1.9V104.1z"/>
	<path class="copy-purpleFill" d="M147.9,106.9c-0.6,1-1.4,1.8-2.3,2.2c-0.9,0.5-2,0.7-3.2,0.7c-1.1,0-2-0.2-2.8-0.5s-1.4-0.8-1.9-1.4
		s-0.9-1.2-1.1-2c-0.2-0.8-0.4-1.6-0.4-2.5c0-1,0.1-1.9,0.4-2.7c0.3-0.8,0.7-1.5,1.2-2c0.5-0.6,1.2-1,1.9-1.3
		c0.8-0.3,1.6-0.5,2.6-0.5c1.2,0,2.3,0.3,3.2,0.8c0.9,0.5,1.6,1.3,2.2,2.3l-3.3,1.6c-0.2-0.6-0.5-1-0.9-1.2
		c-0.3-0.2-0.7-0.4-1.1-0.4c-0.7,0-1.3,0.3-1.6,0.9c-0.3,0.6-0.5,1.4-0.5,2.3c0,0.4,0,0.8,0.1,1.2c0.1,0.4,0.2,0.8,0.3,1.1
		c0.2,0.3,0.4,0.6,0.7,0.9c0.3,0.2,0.7,0.3,1.2,0.3c0.5,0,1-0.1,1.3-0.4c0.3-0.3,0.6-0.7,0.8-1.2L147.9,106.9z"/>
	<path class="copy-purpleFill" d="M159.6,106.9c-0.6,1-1.4,1.8-2.3,2.2c-0.9,0.5-2,0.7-3.2,0.7c-1.1,0-2-0.2-2.8-0.5s-1.4-0.8-1.9-1.4
		s-0.9-1.2-1.1-2c-0.2-0.8-0.4-1.6-0.4-2.5c0-1,0.1-1.9,0.4-2.7c0.3-0.8,0.7-1.5,1.2-2c0.5-0.6,1.2-1,1.9-1.3
		c0.8-0.3,1.6-0.5,2.6-0.5c1.2,0,2.3,0.3,3.2,0.8c0.9,0.5,1.6,1.3,2.2,2.3l-3.3,1.6c-0.2-0.6-0.5-1-0.9-1.2
		c-0.3-0.2-0.7-0.4-1.1-0.4c-0.7,0-1.3,0.3-1.6,0.9c-0.3,0.6-0.5,1.4-0.5,2.3c0,0.4,0,0.8,0.1,1.2c0.1,0.4,0.2,0.8,0.3,1.1
		c0.2,0.3,0.4,0.6,0.7,0.9c0.3,0.2,0.7,0.3,1.2,0.3c0.5,0,1-0.1,1.3-0.4c0.3-0.3,0.6-0.7,0.8-1.2L159.6,106.9z"/>
	<path class="copy-purpleFill" d="M160.5,97.3h4v6.6c0,0.8,0.1,1.3,0.4,1.7c0.2,0.4,0.6,0.6,1.2,0.6c0.6,0,1.1-0.2,1.5-0.7
		c0.3-0.5,0.5-1.3,0.5-2.4v-5.8h4v12.1h-3.8v-1.8c-0.3,0.6-0.7,1.1-1.3,1.5s-1.3,0.6-2.3,0.6c-1.4,0-2.5-0.4-3.2-1.2s-1-2-1-3.6
		V97.3z"/>
	<path class="copy-purpleFill" d="M173.9,97.3h3.6l0.3,2.2c0.4-0.7,0.9-1.3,1.5-1.8c0.7-0.5,1.5-0.7,2.6-0.7v4.1c-0.3-0.1-0.7-0.1-1.3-0.1
		c-0.3,0-0.6,0-1,0.1c-0.3,0.1-0.6,0.2-0.9,0.4c-0.3,0.2-0.5,0.5-0.7,0.9c-0.2,0.4-0.3,1-0.3,1.7v5.3h-4V97.3z"/>
	<path class="copy-purpleFill" d="M189.8,109.4c-0.1-0.2-0.2-0.4-0.2-0.7c-0.1-0.3-0.1-0.5-0.1-0.8c-0.2,0.5-0.6,0.9-1.1,1.3s-1.3,0.6-2.2,0.6
		c-0.6,0-1.2-0.1-1.7-0.3s-0.9-0.5-1.2-0.8c-0.3-0.3-0.6-0.8-0.8-1.2s-0.3-1-0.3-1.5c0-0.6,0.1-1.2,0.3-1.6c0.2-0.5,0.5-0.8,0.9-1.2
		s0.9-0.6,1.5-0.8c0.6-0.2,1.2-0.3,1.9-0.5l2.4-0.4v-0.3c0-0.5-0.1-0.8-0.4-1c-0.3-0.2-0.6-0.3-1.1-0.3c-0.7,0-1.4,0.1-1.9,0.4
		c-0.5,0.3-1,0.6-1.4,0.9l-1.9-2.6c0.3-0.2,0.6-0.4,0.9-0.6c0.4-0.2,0.8-0.4,1.3-0.6s1-0.3,1.6-0.4c0.6-0.1,1.2-0.2,1.9-0.2
		c1.8,0,3.1,0.4,3.8,1.1c0.8,0.8,1.2,1.9,1.2,3.5v4.3c0,0.5,0,0.9,0,1.3c0,0.3,0,0.6,0.1,0.9c0,0.3,0.1,0.5,0.2,0.7
		c0.1,0.2,0.2,0.4,0.3,0.7H189.8z M189.2,104.1l-1.6,0.3c-0.6,0.1-1,0.3-1.2,0.5c-0.3,0.2-0.4,0.5-0.4,0.9c0,0.3,0.1,0.6,0.3,0.9
		c0.2,0.2,0.5,0.3,0.9,0.3c0.6,0,1-0.2,1.4-0.6c0.4-0.4,0.6-1,0.6-1.9V104.1z"/>
	<path class="copy-purpleFill" d="M205.9,106.9c-0.6,1-1.4,1.8-2.3,2.2c-0.9,0.5-2,0.7-3.2,0.7c-1.1,0-2-0.2-2.8-0.5s-1.4-0.8-1.9-1.4
		c-0.5-0.6-0.9-1.2-1.1-2c-0.2-0.8-0.4-1.6-0.4-2.5c0-1,0.1-1.9,0.4-2.7c0.3-0.8,0.7-1.5,1.2-2c0.5-0.6,1.2-1,1.9-1.3
		c0.8-0.3,1.6-0.5,2.6-0.5c1.2,0,2.3,0.3,3.2,0.8c0.9,0.5,1.6,1.3,2.2,2.3l-3.3,1.6c-0.2-0.6-0.5-1-0.9-1.2
		c-0.3-0.2-0.7-0.4-1.1-0.4c-0.7,0-1.3,0.3-1.6,0.9c-0.3,0.6-0.5,1.4-0.5,2.3c0,0.4,0,0.8,0.1,1.2c0.1,0.4,0.2,0.8,0.3,1.1
		c0.2,0.3,0.4,0.6,0.7,0.9c0.3,0.2,0.7,0.3,1.2,0.3c0.5,0,1-0.1,1.3-0.4c0.3-0.3,0.6-0.7,0.8-1.2L205.9,106.9z"/>
	<path class="copy-purpleFill" d="M207,110.6c0.3,0.1,0.6,0.2,0.9,0.2c0.3,0.1,0.6,0.1,0.8,0.1c0.4,0,0.6-0.1,0.8-0.2c0.2-0.2,0.4-0.4,0.5-0.8
		l-4.3-12.5h4.3l2.1,8.1l2-8.1h4.3l-4.2,12c-0.2,0.7-0.5,1.3-0.7,1.8c-0.2,0.6-0.5,1-0.9,1.4c-0.4,0.4-0.9,0.7-1.4,0.9
		c-0.6,0.2-1.3,0.3-2.3,0.3c-0.1,0-0.3,0-0.5,0c-0.2,0-0.4,0-0.7,0s-0.5,0-0.7-0.1c-0.2,0-0.4-0.1-0.5-0.1L207,110.6z"/>
	<path class="copy-purpleFill" d="M218,105h4.4v4.4H218V105z"/>
</g>
</svg>
