<?xml version="1.0" encoding="utf-8"?>
<!-- Generator: Adobe Illustrator 22.1.0, SVG Export Plug-In . SVG Version: 6.00 Build 0)  -->
<svg version="1.1" id="Layer_1" xmlns="https://www.w3.org/2000/svg" xmlns:xlink="https://www.w3.org/1999/xlink" x="0px" y="0px"
	 viewBox="0 0 300 250" style="enable-background:new 0 0 300 250;" xml:space="preserve">
<style type="text/css">
	.copy-purpleFill{fill:#662868;}
	.copy-grayFill{fill:#5D6770;}
</style>
<g>
	<path class="copy-purpleFill" d="M31.2,79c-0.9,0-1.8-0.1-2.6-0.4c-0.8-0.3-1.6-0.7-2.2-1.3c-0.6-0.6-1.1-1.3-1.5-2.2c-0.4-0.9-0.6-1.9-0.6-3.2
		c0-1.2,0.2-2.3,0.6-3.2c0.4-0.9,0.9-1.6,1.5-2.2c0.6-0.6,1.4-1,2.2-1.3c0.8-0.3,1.7-0.4,2.6-0.4c0.9,0,1.8,0.1,2.6,0.4
		c0.8,0.3,1.6,0.7,2.2,1.3c0.6,0.6,1.1,1.3,1.5,2.2c0.4,0.9,0.6,2,0.6,3.2c0,1.2-0.2,2.3-0.6,3.2c-0.4,0.9-0.9,1.6-1.5,2.2
		c-0.6,0.6-1.4,1-2.2,1.3S32.1,79,31.2,79z M31.2,76c0.4,0,0.9-0.1,1.3-0.2c0.4-0.2,0.7-0.4,1-0.7c0.3-0.3,0.5-0.8,0.7-1.3
		c0.2-0.5,0.2-1.1,0.2-1.8c0-1.3-0.3-2.3-0.9-3.1c-0.6-0.7-1.4-1.1-2.4-1.1c-1,0-1.7,0.4-2.3,1.1c-0.6,0.7-0.8,1.7-0.8,3.1
		c0,0.7,0.1,1.3,0.3,1.8c0.2,0.5,0.4,0.9,0.7,1.3s0.6,0.6,1,0.7S30.8,76,31.2,76z"/>
	<path class="copy-purpleFill" d="M39.3,68.9h2.9l0.3,1.4c0.3-0.5,0.7-0.9,1.3-1.2c0.5-0.3,1.1-0.5,1.8-0.5c2.2,0,3.2,1.4,3.2,4.1v6h-3.2v-5.2
		c0-0.8-0.1-1.3-0.3-1.6c-0.2-0.3-0.6-0.5-1.1-0.5c-0.2,0-0.4,0-0.6,0.1c-0.2,0.1-0.4,0.2-0.5,0.4c-0.1,0.2-0.3,0.5-0.3,0.8
		c-0.1,0.3-0.1,0.8-0.1,1.3v4.6h-3.2V68.9z"/>
	<path class="copy-purpleFill" d="M50.2,65.1h3.2v13.6h-3.2V65.1z"/>
	<path class="copy-purpleFill" d="M55.1,79.6c0.2,0.1,0.5,0.1,0.7,0.2c0.3,0.1,0.5,0.1,0.7,0.1c0.3,0,0.5-0.1,0.7-0.2c0.2-0.1,0.3-0.4,0.4-0.7
		l-3.5-10.2h3.5l1.7,6.6l1.7-6.6h3.5L61,78.6c-0.2,0.5-0.4,1-0.6,1.5c-0.2,0.4-0.4,0.8-0.8,1.2c-0.3,0.3-0.7,0.6-1.2,0.8
		c-0.5,0.2-1.1,0.3-1.8,0.3c-0.1,0-0.3,0-0.4,0c-0.2,0-0.4,0-0.5,0c-0.2,0-0.4,0-0.5,0c-0.2,0-0.3,0-0.4-0.1L55.1,79.6z"/>
	<path class="copy-purpleFill" d="M68.7,76l7-8.3h-6.4v-2.6h10.4v2.6l-7,8.3h7.1v2.6h-11V76z"/>
	<path class="copy-purpleFill" d="M83.6,74.5c0.1,0.8,0.4,1.3,0.7,1.6c0.4,0.3,0.8,0.5,1.3,0.5c0.4,0,0.8-0.1,1.1-0.3c0.3-0.2,0.6-0.5,0.8-0.8
		l2.4,1.3c-0.5,0.7-1.1,1.3-1.9,1.6c-0.8,0.3-1.6,0.5-2.5,0.5c-0.8,0-1.6-0.1-2.2-0.4c-0.6-0.3-1.2-0.6-1.6-1.1
		c-0.4-0.5-0.8-1-1-1.6c-0.2-0.6-0.3-1.3-0.3-2.1c0-0.7,0.1-1.4,0.3-2.1c0.2-0.6,0.6-1.2,1-1.7c0.4-0.5,1-0.8,1.6-1.1
		c0.6-0.3,1.3-0.4,2.1-0.4c0.8,0,1.4,0.1,2,0.4c0.6,0.3,1.1,0.6,1.5,1.1s0.7,1,0.9,1.7c0.2,0.7,0.3,1.4,0.3,2.2c0,0.2,0,0.3,0,0.4
		c0,0.1,0,0.1,0,0.2H83.6z M85.2,70.9c-0.9,0-1.5,0.6-1.6,1.8h3.2c0-0.5-0.1-0.9-0.4-1.3C86.1,71.1,85.7,70.9,85.2,70.9z"/>
	<path class="copy-purpleFill" d="M91.1,65.1h3.2v13.6h-3.2V65.1z"/>
	<path class="copy-purpleFill" d="M95.8,65h3.2v2.6h-3.2V65z M95.8,68.9h3.2v9.8h-3.2V68.9z"/>
	<path class="copy-purpleFill" d="M101.5,75.4c0.2,0.1,0.3,0.3,0.5,0.4c0.2,0.1,0.4,0.3,0.7,0.4c0.3,0.1,0.5,0.2,0.8,0.3
		c0.3,0.1,0.6,0.1,0.8,0.1c0.2,0,0.5,0,0.7-0.1c0.2-0.1,0.4-0.2,0.4-0.5c0-0.2-0.1-0.4-0.4-0.5c-0.3-0.1-0.6-0.3-1-0.4
		c-0.4-0.1-0.8-0.2-1.2-0.4c-0.5-0.1-0.9-0.3-1.2-0.5c-0.4-0.2-0.7-0.5-1-0.9s-0.4-0.9-0.4-1.5c0-0.6,0.1-1,0.3-1.4
		c0.2-0.4,0.5-0.7,0.9-1c0.4-0.3,0.8-0.5,1.3-0.6c0.5-0.1,1-0.2,1.6-0.2c0.9,0,1.7,0.1,2.3,0.3c0.7,0.2,1.3,0.5,1.8,0.9l-1.5,2.2
		c-0.1-0.1-0.3-0.2-0.5-0.3c-0.2-0.1-0.4-0.2-0.7-0.3c-0.3-0.1-0.5-0.2-0.8-0.2c-0.3-0.1-0.5-0.1-0.8-0.1c-0.2,0-0.4,0-0.5,0.1
		c-0.1,0.1-0.2,0.2-0.2,0.4c0,0.2,0.1,0.4,0.4,0.5c0.3,0.1,0.6,0.3,1,0.4s0.8,0.3,1.2,0.4c0.4,0.1,0.9,0.3,1.2,0.6s0.7,0.5,1,0.9
		c0.3,0.4,0.4,0.8,0.4,1.4s-0.1,1.1-0.4,1.5c-0.3,0.4-0.6,0.8-1,1.1c-0.4,0.3-0.9,0.5-1.4,0.6c-0.5,0.1-1,0.2-1.5,0.2
		c-1.9,0-3.4-0.5-4.5-1.4L101.5,75.4z"/>
	<path class="copy-purpleFill" d="M122.6,76.6c-0.5,0.8-1.1,1.4-1.9,1.8c-0.8,0.4-1.6,0.5-2.6,0.5c-0.9,0-1.6-0.1-2.3-0.4
		c-0.6-0.3-1.1-0.6-1.6-1.1c-0.4-0.5-0.7-1-0.9-1.6c-0.2-0.6-0.3-1.3-0.3-2c0-0.8,0.1-1.5,0.3-2.2c0.2-0.6,0.6-1.2,1-1.7
		c0.4-0.5,0.9-0.8,1.6-1.1c0.6-0.2,1.3-0.4,2.1-0.4c1,0,1.9,0.2,2.6,0.6c0.7,0.4,1.3,1,1.8,1.8l-2.7,1.3c-0.2-0.5-0.4-0.8-0.7-1
		c-0.3-0.2-0.6-0.3-0.9-0.3c-0.6,0-1,0.2-1.3,0.7c-0.3,0.5-0.4,1.1-0.4,1.9c0,0.3,0,0.6,0.1,1c0.1,0.3,0.1,0.6,0.3,0.9
		c0.1,0.3,0.3,0.5,0.6,0.7c0.2,0.2,0.6,0.3,1,0.3c0.4,0,0.8-0.1,1.1-0.4c0.3-0.2,0.5-0.6,0.7-1L122.6,76.6z"/>
	<path class="copy-purpleFill" d="M123.4,65.1h3.2v5.1c0.2-0.4,0.6-0.8,1.1-1.1c0.5-0.3,1.1-0.5,1.9-0.5c1.1,0,1.9,0.4,2.5,1.1
		c0.5,0.7,0.8,1.8,0.8,3.1v5.9h-3.2v-5.3c0-0.6-0.1-1.1-0.3-1.4c-0.2-0.3-0.6-0.5-1.1-0.5c-0.5,0-0.8,0.2-1.1,0.6
		c-0.3,0.4-0.4,1-0.4,1.9v4.8h-3.2V65.1z"/>
	<path class="copy-purpleFill" d="M137.2,74.5c0.1,0.8,0.4,1.3,0.7,1.6s0.8,0.5,1.3,0.5c0.4,0,0.8-0.1,1.1-0.3c0.3-0.2,0.6-0.5,0.8-0.8l2.4,1.3
		c-0.5,0.7-1.1,1.3-1.9,1.6c-0.8,0.3-1.6,0.5-2.5,0.5c-0.8,0-1.6-0.1-2.2-0.4c-0.6-0.3-1.2-0.6-1.6-1.1c-0.4-0.5-0.8-1-1-1.6
		c-0.2-0.6-0.3-1.3-0.3-2.1c0-0.7,0.1-1.4,0.3-2.1c0.2-0.6,0.6-1.2,1-1.7c0.4-0.5,1-0.8,1.6-1.1c0.6-0.3,1.3-0.4,2.1-0.4
		c0.8,0,1.4,0.1,2,0.4c0.6,0.3,1.1,0.6,1.5,1.1c0.4,0.5,0.7,1,0.9,1.7c0.2,0.7,0.3,1.4,0.3,2.2c0,0.2,0,0.3,0,0.4c0,0.1,0,0.1,0,0.2
		H137.2z M138.8,70.9c-0.9,0-1.5,0.6-1.6,1.8h3.2c0-0.5-0.1-0.9-0.4-1.3C139.7,71.1,139.3,70.9,138.8,70.9z"/>
	<path class="copy-purpleFill" d="M153.6,76.6c-0.5,0.8-1.1,1.4-1.9,1.8c-0.8,0.4-1.6,0.5-2.6,0.5c-0.9,0-1.6-0.1-2.3-0.4
		c-0.6-0.3-1.1-0.6-1.6-1.1c-0.4-0.5-0.7-1-0.9-1.6c-0.2-0.6-0.3-1.3-0.3-2c0-0.8,0.1-1.5,0.3-2.2c0.2-0.6,0.6-1.2,1-1.7
		c0.4-0.5,0.9-0.8,1.6-1.1c0.6-0.2,1.3-0.4,2.1-0.4c1,0,1.9,0.2,2.6,0.6c0.7,0.4,1.3,1,1.8,1.8l-2.7,1.3c-0.2-0.5-0.4-0.8-0.7-1
		c-0.3-0.2-0.6-0.3-0.9-0.3c-0.6,0-1,0.2-1.3,0.7c-0.3,0.5-0.4,1.1-0.4,1.9c0,0.3,0,0.6,0.1,1c0.1,0.3,0.1,0.6,0.3,0.9
		c0.1,0.3,0.3,0.5,0.6,0.7c0.2,0.2,0.6,0.3,1,0.3c0.4,0,0.8-0.1,1.1-0.4c0.3-0.2,0.5-0.6,0.7-1L153.6,76.6z"/>
	<path class="copy-purpleFill" d="M154.4,65.1h3.2v7.4l3.3-3.6h4l-3.9,3.7l3.8,6.1h-3.7l-2.2-4.1l-1.3,1.2v2.9h-3.2V65.1z"/>
	<path class="copy-purpleFill" d="M166.2,75.4c0.2,0.1,0.3,0.3,0.5,0.4c0.2,0.1,0.4,0.3,0.7,0.4c0.3,0.1,0.5,0.2,0.8,0.3
		c0.3,0.1,0.6,0.1,0.8,0.1c0.2,0,0.5,0,0.7-0.1c0.2-0.1,0.4-0.2,0.4-0.5c0-0.2-0.1-0.4-0.4-0.5c-0.3-0.1-0.6-0.3-1-0.4
		c-0.4-0.1-0.8-0.2-1.2-0.4c-0.4-0.1-0.9-0.3-1.2-0.5c-0.4-0.2-0.7-0.5-1-0.9s-0.4-0.9-0.4-1.5c0-0.6,0.1-1,0.3-1.4
		c0.2-0.4,0.5-0.7,0.9-1c0.4-0.3,0.8-0.5,1.3-0.6c0.5-0.1,1-0.2,1.6-0.2c0.9,0,1.7,0.1,2.3,0.3s1.3,0.5,1.8,0.9l-1.5,2.2
		c-0.1-0.1-0.3-0.2-0.5-0.3c-0.2-0.1-0.4-0.2-0.7-0.3c-0.3-0.1-0.5-0.2-0.8-0.2c-0.3-0.1-0.5-0.1-0.8-0.1c-0.2,0-0.4,0-0.5,0.1
		c-0.1,0.1-0.2,0.2-0.2,0.4c0,0.2,0.1,0.4,0.4,0.5c0.3,0.1,0.6,0.3,1,0.4s0.8,0.3,1.2,0.4c0.4,0.1,0.9,0.3,1.2,0.6
		c0.4,0.2,0.7,0.5,1,0.9c0.3,0.4,0.4,0.8,0.4,1.4s-0.1,1.1-0.4,1.5c-0.2,0.4-0.6,0.8-1,1.1c-0.4,0.3-0.9,0.5-1.4,0.6
		c-0.5,0.1-1,0.2-1.5,0.2c-1.9,0-3.4-0.5-4.5-1.4L166.2,75.4z"/>
	<path class="copy-purpleFill" d="M179.2,70.9h-1.6v-2.1h1.5c-0.1-0.3-0.2-0.6-0.2-0.9c0-0.3-0.1-0.5-0.1-0.7c0-0.3,0-0.7,0.1-1
		c0.1-0.3,0.3-0.6,0.5-0.8c0.2-0.2,0.6-0.4,1-0.5c0.4-0.1,0.9-0.2,1.6-0.2c0.6,0,1,0,1.4,0.1c0.4,0.1,0.8,0.2,1.1,0.3l-0.5,2.4
		c-0.2-0.1-0.4-0.2-0.6-0.2c-0.3-0.1-0.5-0.1-0.7-0.1c-0.2,0-0.4,0-0.5,0.1c-0.1,0.1-0.2,0.2-0.2,0.5c0,0.2,0,0.4,0.1,0.6
		c0.1,0.2,0.1,0.3,0.2,0.5h1.9v2.1h-1.8v7.7h-3.3V70.9z"/>
	<path class="copy-purpleFill" d="M189.3,79c-0.8,0-1.6-0.1-2.2-0.4c-0.6-0.3-1.1-0.6-1.6-1.1c-0.4-0.5-0.7-1-0.9-1.6c-0.2-0.6-0.3-1.3-0.3-2.1
		s0.1-1.4,0.3-2.1c0.2-0.6,0.5-1.2,1-1.7c0.4-0.5,0.9-0.8,1.6-1.1c0.6-0.3,1.3-0.4,2.1-0.4c0.8,0,1.5,0.1,2.1,0.4
		c0.6,0.3,1.1,0.6,1.6,1.1c0.4,0.5,0.7,1,0.9,1.7c0.2,0.6,0.3,1.3,0.3,2.1s-0.1,1.4-0.3,2.1c-0.2,0.6-0.5,1.2-0.9,1.6
		c-0.4,0.5-0.9,0.8-1.6,1.1C190.8,78.8,190.1,79,189.3,79z M189.3,76.5c0.5,0,0.9-0.2,1.2-0.7c0.2-0.5,0.4-1.1,0.4-2s-0.1-1.5-0.4-2
		c-0.3-0.5-0.7-0.8-1.2-0.8c-0.5,0-0.9,0.3-1.2,0.8c-0.3,0.5-0.4,1.2-0.4,2s0.1,1.5,0.4,2C188.3,76.3,188.8,76.5,189.3,76.5z"/>
	<path class="copy-purpleFill" d="M195.3,68.9h2.9l0.2,1.8c0.3-0.6,0.7-1.1,1.2-1.5c0.5-0.4,1.2-0.6,2.1-0.6v3.3c-0.2-0.1-0.6-0.1-1-0.1
		c-0.3,0-0.5,0-0.8,0.1c-0.3,0-0.5,0.2-0.7,0.3c-0.2,0.2-0.4,0.4-0.6,0.8c-0.1,0.3-0.2,0.8-0.2,1.4v4.3h-3.2V68.9z"/>
	<path class="copy-purpleFill" d="M212.4,78.7c-0.1-0.1-0.1-0.3-0.2-0.6c-0.1-0.2-0.1-0.4-0.1-0.6c-0.2,0.4-0.5,0.7-0.9,1
		c-0.4,0.3-1,0.5-1.8,0.5c-0.5,0-1-0.1-1.4-0.2c-0.4-0.2-0.7-0.4-1-0.7c-0.3-0.3-0.5-0.6-0.6-1c-0.1-0.4-0.2-0.8-0.2-1.3
		c0-0.5,0.1-0.9,0.3-1.3c0.2-0.4,0.4-0.7,0.8-0.9c0.3-0.3,0.7-0.5,1.2-0.6c0.5-0.2,1-0.3,1.6-0.4l2-0.3v-0.2c0-0.4-0.1-0.7-0.3-0.8
		c-0.2-0.1-0.5-0.2-0.9-0.2c-0.6,0-1.1,0.1-1.6,0.3c-0.4,0.2-0.8,0.5-1.1,0.8l-1.5-2.1c0.2-0.2,0.5-0.3,0.8-0.5
		c0.3-0.2,0.6-0.3,1-0.5c0.4-0.1,0.8-0.2,1.3-0.3c0.5-0.1,1-0.1,1.6-0.1c1.5,0,2.5,0.3,3.1,0.9c0.6,0.6,0.9,1.6,0.9,2.8v3.5
		c0,0.4,0,0.8,0,1c0,0.3,0,0.5,0.1,0.7c0,0.2,0.1,0.4,0.1,0.6c0.1,0.2,0.1,0.4,0.2,0.5H212.4z M211.9,74.3l-1.3,0.3
		c-0.4,0.1-0.8,0.2-1,0.4c-0.2,0.2-0.3,0.4-0.3,0.7c0,0.3,0.1,0.5,0.3,0.7c0.2,0.2,0.4,0.3,0.7,0.3c0.4,0,0.8-0.2,1.1-0.5
		c0.3-0.3,0.5-0.8,0.5-1.5V74.3z"/>
	<path class="copy-purpleFill" d="M225.5,76.6c-0.5,0.8-1.1,1.4-1.9,1.8c-0.8,0.4-1.6,0.5-2.6,0.5c-0.9,0-1.6-0.1-2.3-0.4
		c-0.6-0.3-1.1-0.6-1.6-1.1c-0.4-0.5-0.7-1-0.9-1.6c-0.2-0.6-0.3-1.3-0.3-2c0-0.8,0.1-1.5,0.3-2.2c0.2-0.6,0.6-1.2,1-1.7
		c0.4-0.5,0.9-0.8,1.6-1.1c0.6-0.2,1.3-0.4,2.1-0.4c1,0,1.9,0.2,2.6,0.6c0.7,0.4,1.3,1,1.8,1.8l-2.7,1.3c-0.2-0.5-0.4-0.8-0.7-1
		c-0.3-0.2-0.6-0.3-0.9-0.3c-0.6,0-1,0.2-1.3,0.7c-0.3,0.5-0.4,1.1-0.4,1.9c0,0.3,0,0.6,0.1,1c0.1,0.3,0.1,0.6,0.3,0.9
		c0.1,0.3,0.3,0.5,0.6,0.7c0.2,0.2,0.6,0.3,1,0.3c0.4,0,0.8-0.1,1.1-0.4c0.3-0.2,0.5-0.6,0.7-1L225.5,76.6z"/>
	<path class="copy-purpleFill" d="M235,76.6c-0.5,0.8-1.1,1.4-1.9,1.8c-0.8,0.4-1.6,0.5-2.6,0.5c-0.9,0-1.6-0.1-2.3-0.4
		c-0.6-0.3-1.1-0.6-1.6-1.1c-0.4-0.5-0.7-1-0.9-1.6c-0.2-0.6-0.3-1.3-0.3-2c0-0.8,0.1-1.5,0.3-2.2c0.2-0.6,0.6-1.2,1-1.7
		c0.4-0.5,0.9-0.8,1.6-1.1c0.6-0.2,1.3-0.4,2.1-0.4c1,0,1.9,0.2,2.6,0.6c0.7,0.4,1.3,1,1.8,1.8l-2.7,1.3c-0.2-0.5-0.4-0.8-0.7-1
		c-0.3-0.2-0.6-0.3-0.9-0.3c-0.6,0-1,0.2-1.3,0.7c-0.3,0.5-0.4,1.1-0.4,1.9c0,0.3,0,0.6,0.1,1c0.1,0.3,0.1,0.6,0.3,0.9
		c0.1,0.3,0.3,0.5,0.6,0.7c0.2,0.2,0.6,0.3,1,0.3c0.4,0,0.8-0.1,1.1-0.4c0.3-0.2,0.5-0.6,0.7-1L235,76.6z"/>
	<path class="copy-purpleFill" d="M235.7,68.9h3.2v5.4c0,0.6,0.1,1.1,0.3,1.4c0.2,0.3,0.5,0.5,1,0.5c0.5,0,0.9-0.2,1.2-0.6
		c0.3-0.4,0.4-1,0.4-1.9v-4.7h3.2v9.8h-3v-1.4c-0.3,0.5-0.6,0.9-1.1,1.2c-0.4,0.3-1.1,0.5-1.9,0.5c-1.2,0-2-0.3-2.6-1
		c-0.6-0.7-0.8-1.6-0.8-2.9V68.9z"/>
	<path class="copy-purpleFill" d="M246.6,68.9h2.9l0.2,1.8c0.3-0.6,0.7-1.1,1.2-1.5c0.5-0.4,1.2-0.6,2.1-0.6v3.3c-0.2-0.1-0.6-0.1-1-0.1
		c-0.3,0-0.5,0-0.8,0.1c-0.3,0-0.5,0.2-0.7,0.3c-0.2,0.2-0.4,0.4-0.6,0.8c-0.1,0.3-0.2,0.8-0.2,1.4v4.3h-3.2V68.9z"/>
	<path class="copy-purpleFill" d="M259.5,78.7c-0.1-0.1-0.1-0.3-0.2-0.6c-0.1-0.2-0.1-0.4-0.1-0.6c-0.2,0.4-0.5,0.7-0.9,1
		c-0.4,0.3-1,0.5-1.8,0.5c-0.5,0-1-0.1-1.4-0.2c-0.4-0.2-0.7-0.4-1-0.7c-0.3-0.3-0.5-0.6-0.6-1c-0.1-0.4-0.2-0.8-0.2-1.3
		c0-0.5,0.1-0.9,0.3-1.3c0.2-0.4,0.4-0.7,0.8-0.9c0.3-0.3,0.7-0.5,1.2-0.6c0.5-0.2,1-0.3,1.6-0.4l2-0.3v-0.2c0-0.4-0.1-0.7-0.3-0.8
		c-0.2-0.1-0.5-0.2-0.9-0.2c-0.6,0-1.1,0.1-1.6,0.3c-0.4,0.2-0.8,0.5-1.1,0.8l-1.5-2.1c0.2-0.2,0.5-0.3,0.8-0.5
		c0.3-0.2,0.6-0.3,1-0.5c0.4-0.1,0.8-0.2,1.3-0.3c0.5-0.1,1-0.1,1.6-0.1c1.5,0,2.5,0.3,3.1,0.9c0.6,0.6,0.9,1.6,0.9,2.8v3.5
		c0,0.4,0,0.8,0,1c0,0.3,0,0.5,0.1,0.7c0,0.2,0.1,0.4,0.1,0.6c0.1,0.2,0.1,0.4,0.2,0.5H259.5z M259,74.3l-1.3,0.3
		c-0.4,0.1-0.8,0.2-1,0.4c-0.2,0.2-0.3,0.4-0.3,0.7c0,0.3,0.1,0.5,0.3,0.7c0.2,0.2,0.4,0.3,0.7,0.3c0.4,0,0.8-0.2,1.1-0.5
		c0.3-0.3,0.5-0.8,0.5-1.5V74.3z"/>
	<path class="copy-purpleFill" d="M272.6,76.6c-0.5,0.8-1.1,1.4-1.9,1.8c-0.8,0.4-1.6,0.5-2.6,0.5c-0.9,0-1.6-0.1-2.3-0.4
		c-0.6-0.3-1.1-0.6-1.6-1.1c-0.4-0.5-0.7-1-0.9-1.6c-0.2-0.6-0.3-1.3-0.3-2c0-0.8,0.1-1.5,0.3-2.2c0.2-0.6,0.6-1.2,1-1.7
		c0.4-0.5,0.9-0.8,1.6-1.1c0.6-0.2,1.3-0.4,2.1-0.4c1,0,1.9,0.2,2.6,0.6c0.7,0.4,1.3,1,1.8,1.8l-2.7,1.3c-0.2-0.5-0.4-0.8-0.7-1
		c-0.3-0.2-0.6-0.3-0.9-0.3c-0.6,0-1,0.2-1.3,0.7c-0.3,0.5-0.4,1.1-0.4,1.9c0,0.3,0,0.6,0.1,1c0.1,0.3,0.1,0.6,0.3,0.9
		c0.1,0.3,0.3,0.5,0.6,0.7c0.2,0.2,0.6,0.3,1,0.3c0.4,0,0.8-0.1,1.1-0.4c0.3-0.2,0.5-0.6,0.7-1L272.6,76.6z"/>
	<path class="copy-purpleFill" d="M273.5,79.6c0.2,0.1,0.5,0.1,0.7,0.2c0.3,0.1,0.5,0.1,0.7,0.1c0.3,0,0.5-0.1,0.7-0.2c0.2-0.1,0.3-0.4,0.4-0.7
		l-3.5-10.2h3.5l1.7,6.6l1.7-6.6h3.5l-3.4,9.8c-0.2,0.5-0.4,1-0.6,1.5c-0.2,0.4-0.4,0.8-0.8,1.2s-0.7,0.6-1.2,0.8
		c-0.5,0.2-1.1,0.3-1.8,0.3c-0.1,0-0.3,0-0.4,0c-0.2,0-0.4,0-0.5,0c-0.2,0-0.4,0-0.5,0c-0.2,0-0.3,0-0.4-0.1L273.5,79.6z"/>
	<path class="copy-purpleFill" d="M282.4,75.1h3.6v3.6h-3.6V75.1z"/>
</g>
<g>
	<path class="copy-grayFill" d="M32.3,94.9c-0.2,0.5-0.6,0.8-1.1,1.2c-0.5,0.3-1.1,0.5-1.9,0.5c-0.8,0-1.5-0.1-2.1-0.4
		c-0.6-0.3-1.1-0.7-1.6-1.1c-0.4-0.5-0.7-1.1-1-1.7c-0.2-0.7-0.3-1.4-0.3-2.2c0-0.8,0.1-1.5,0.3-2.2c0.2-0.7,0.6-1.2,1-1.7
		s1-0.9,1.6-1.1c0.6-0.3,1.3-0.4,2.1-0.4c0.9,0,1.8,0.2,2.6,0.6c0.8,0.4,1.4,1,1.9,1.7l-2.1,1c-0.1-0.2-0.2-0.4-0.4-0.6
		c-0.2-0.2-0.4-0.3-0.6-0.5c-0.2-0.1-0.5-0.2-0.7-0.3c-0.3-0.1-0.5-0.1-0.7-0.1c-0.5,0-0.9,0.1-1.2,0.3c-0.3,0.2-0.6,0.4-0.9,0.8
		c-0.2,0.3-0.4,0.7-0.5,1.1c-0.1,0.4-0.2,0.9-0.2,1.4c0,0.5,0.1,1,0.2,1.4c0.1,0.4,0.3,0.8,0.5,1.1c0.2,0.3,0.5,0.6,0.9,0.8
		c0.3,0.2,0.7,0.3,1.2,0.3c0.4,0,0.8-0.1,1.2-0.2c0.3-0.1,0.6-0.3,0.8-0.5c0.2-0.2,0.4-0.5,0.5-0.7c0.1-0.3,0.1-0.5,0.1-0.7v-0.2
		h-2.2v-1.6h4.3v5.7h-1.3L32.3,94.9z"/>
	<path class="copy-grayFill" d="M37.1,93c0.1,0.7,0.3,1.2,0.6,1.5c0.3,0.3,0.7,0.5,1.2,0.5c0.7,0,1.2-0.3,1.6-1l1.5,0.8
		c-0.3,0.5-0.8,1-1.3,1.2c-0.5,0.3-1.2,0.4-1.9,0.4c-0.6,0-1.2-0.1-1.6-0.3c-0.5-0.2-0.9-0.5-1.2-0.8c-0.3-0.3-0.6-0.8-0.7-1.2
		c-0.2-0.5-0.2-1-0.2-1.5c0-0.6,0.1-1.1,0.2-1.6c0.2-0.5,0.4-0.9,0.7-1.3c0.3-0.4,0.7-0.6,1.1-0.8c0.4-0.2,1-0.3,1.5-0.3
		c0.6,0,1.1,0.1,1.5,0.3c0.4,0.2,0.8,0.5,1.1,0.8c0.3,0.3,0.5,0.8,0.7,1.3c0.1,0.5,0.2,1,0.2,1.6c0,0.1,0,0.2,0,0.3
		c0,0.1,0,0.1,0,0.1H37.1z M38.6,90.1c-0.5,0-0.8,0.2-1.1,0.5c-0.3,0.3-0.4,0.7-0.5,1.3h3c0-0.2,0-0.5-0.1-0.7
		c-0.1-0.2-0.1-0.4-0.3-0.6c-0.1-0.2-0.3-0.3-0.5-0.4C39.1,90.1,38.9,90.1,38.6,90.1z"/>
	<path class="copy-grayFill" d="M43.5,90.1h-1.2v-1.3h0.2c0.3,0,0.6-0.1,0.8-0.2c0.2-0.1,0.4-0.3,0.5-0.4c0.1-0.2,0.2-0.4,0.3-0.7
		c0.1-0.3,0.1-0.5,0.2-0.8h1.3v2.1H47v1.3h-1.6V94c0,0.3,0.1,0.5,0.2,0.7c0.1,0.2,0.3,0.2,0.6,0.2c0.1,0,0.2,0,0.3,0
		c0.1,0,0.2-0.1,0.4-0.1l0.1,1.4c-0.2,0.1-0.5,0.2-0.7,0.2c-0.3,0-0.5,0.1-0.8,0.1c-0.4,0-0.8-0.1-1-0.2c-0.3-0.1-0.5-0.3-0.6-0.5
		c-0.2-0.2-0.3-0.4-0.3-0.7c-0.1-0.3-0.1-0.6-0.1-0.9V90.1z"/>
	<path class="copy-grayFill" d="M60.1,94c-0.5,0.9-1.1,1.5-1.8,1.9c-0.7,0.4-1.6,0.6-2.6,0.6c-0.8,0-1.6-0.1-2.2-0.4c-0.6-0.3-1.2-0.7-1.6-1.1
		c-0.4-0.5-0.8-1.1-1-1.7c-0.2-0.7-0.3-1.4-0.3-2.2c0-0.8,0.1-1.5,0.3-2.2c0.2-0.7,0.6-1.2,1-1.7c0.4-0.5,1-0.9,1.6-1.1
		c0.6-0.3,1.4-0.4,2.2-0.4c0.9,0,1.8,0.2,2.5,0.5c0.7,0.3,1.4,0.9,1.9,1.8l-2.1,1c-0.2-0.5-0.5-0.8-0.9-1.1
		c-0.4-0.3-0.9-0.4-1.4-0.4c-0.5,0-0.9,0.1-1.2,0.3c-0.4,0.2-0.6,0.4-0.9,0.8c-0.2,0.3-0.4,0.7-0.5,1.1c-0.1,0.4-0.2,0.9-0.2,1.4
		c0,0.5,0.1,1,0.2,1.4c0.1,0.4,0.3,0.8,0.6,1.1c0.2,0.3,0.5,0.6,0.9,0.8c0.4,0.2,0.8,0.3,1.2,0.3c0.6,0,1-0.1,1.4-0.4
		c0.4-0.3,0.7-0.7,1-1.3L60.1,94z"/>
	<path class="copy-grayFill" d="M61.1,85.8h2v10.4h-2V85.8z"/>
	<path class="copy-grayFill" d="M68.9,96.3c-0.1-0.1-0.1-0.3-0.1-0.5c0-0.2-0.1-0.4-0.1-0.6c-0.2,0.4-0.4,0.7-0.8,0.9
		c-0.4,0.2-0.8,0.4-1.4,0.4c-0.8,0-1.4-0.2-1.8-0.7c-0.4-0.4-0.6-1-0.6-1.7c0-0.4,0.1-0.7,0.2-1c0.1-0.3,0.3-0.5,0.6-0.7
		c0.2-0.2,0.5-0.3,0.9-0.5c0.3-0.1,0.7-0.2,1.2-0.3l1.6-0.3v-0.3c0-0.4-0.1-0.7-0.3-0.9c-0.2-0.1-0.5-0.2-0.8-0.2
		c-0.5,0-0.9,0.1-1.3,0.3c-0.3,0.2-0.6,0.4-0.9,0.7l-1-1.3c0.3-0.3,0.7-0.6,1.3-0.8c0.6-0.2,1.3-0.4,2.1-0.4c1,0,1.8,0.2,2.2,0.7
		c0.5,0.5,0.7,1.1,0.7,2.1v2.8c0,0.3,0,0.5,0,0.7c0,0.2,0,0.4,0,0.5c0,0.2,0,0.3,0.1,0.4c0,0.1,0.1,0.3,0.1,0.4H68.9z M68.6,92.8
		L67.3,93c-0.4,0.1-0.8,0.2-1,0.4c-0.2,0.2-0.3,0.4-0.3,0.7c0,0.3,0.1,0.5,0.3,0.7c0.2,0.2,0.4,0.3,0.7,0.3c0.4,0,0.8-0.2,1.1-0.5
		c0.3-0.3,0.5-0.8,0.5-1.3V92.8z"/>
	<path class="copy-grayFill" d="M72,85.9h2v1.6h-2V85.9z M72,88.8h2v7.4h-2V88.8z"/>
	<path class="copy-grayFill" d="M75.3,88.8h1.8l0.2,1.2c0.2-0.4,0.5-0.8,0.8-1c0.4-0.3,0.8-0.4,1.3-0.4c0.6,0,1.1,0.1,1.4,0.4
		c0.3,0.3,0.6,0.6,0.7,1c0.1-0.2,0.2-0.4,0.3-0.5s0.3-0.3,0.5-0.5c0.2-0.1,0.4-0.2,0.7-0.3c0.3-0.1,0.6-0.1,0.9-0.1
		c0.5,0,0.9,0.1,1.2,0.3c0.3,0.2,0.5,0.4,0.7,0.7c0.2,0.3,0.3,0.6,0.3,0.9c0.1,0.4,0.1,0.7,0.1,1.1v4.7h-2v-4.1c0-0.6-0.1-1-0.3-1.3
		c-0.2-0.3-0.5-0.4-0.9-0.4c-0.2,0-0.3,0-0.5,0.1c-0.2,0.1-0.3,0.2-0.4,0.3c-0.1,0.2-0.2,0.4-0.3,0.6c-0.1,0.3-0.1,0.6-0.1,1v3.8h-2
		v-4.1c0-1.2-0.4-1.7-1.1-1.7c-0.2,0-0.3,0-0.5,0.1c-0.2,0.1-0.3,0.2-0.4,0.4c-0.1,0.2-0.2,0.4-0.3,0.7c-0.1,0.3-0.1,0.6-0.1,1.1
		v3.7h-2V88.8z"/>
	<path class="copy-grayFill" d="M87.6,85.8h4.1c0.5,0,1,0.1,1.5,0.2c0.5,0.1,0.9,0.3,1.2,0.6c0.4,0.3,0.6,0.6,0.9,1c0.2,0.4,0.3,0.9,0.3,1.5
		c0,0.6-0.1,1.2-0.3,1.6c-0.2,0.4-0.5,0.8-0.8,1.1c-0.3,0.3-0.8,0.5-1.2,0.6c-0.5,0.1-1,0.2-1.5,0.2h-1.9v3.8h-2.2V85.8z M91.3,90.8
		c0.3,0,0.5,0,0.8-0.1c0.2-0.1,0.4-0.1,0.6-0.3c0.2-0.1,0.3-0.3,0.4-0.5c0.1-0.2,0.1-0.5,0.1-0.8c0-0.3-0.1-0.5-0.2-0.7
		c-0.1-0.2-0.2-0.4-0.4-0.5c-0.2-0.1-0.4-0.2-0.6-0.3c-0.2-0.1-0.5-0.1-0.8-0.1h-1.6v3.3H91.3z"/>
	<path class="copy-grayFill" d="M100.7,96.3c-0.1-0.1-0.1-0.3-0.1-0.5c0-0.2-0.1-0.4-0.1-0.6c-0.2,0.4-0.4,0.7-0.8,0.9
		c-0.4,0.2-0.8,0.4-1.4,0.4c-0.8,0-1.4-0.2-1.8-0.7c-0.4-0.4-0.6-1-0.6-1.7c0-0.4,0.1-0.7,0.2-1c0.1-0.3,0.3-0.5,0.6-0.7
		c0.2-0.2,0.5-0.3,0.9-0.5c0.3-0.1,0.7-0.2,1.2-0.3l1.6-0.3v-0.3c0-0.4-0.1-0.7-0.3-0.9c-0.2-0.1-0.5-0.2-0.8-0.2
		c-0.5,0-0.9,0.1-1.3,0.3c-0.3,0.2-0.6,0.4-0.9,0.7l-1-1.3c0.3-0.3,0.7-0.6,1.3-0.8c0.6-0.2,1.3-0.4,2.1-0.4c1,0,1.8,0.2,2.2,0.7
		c0.5,0.5,0.7,1.1,0.7,2.1v2.8c0,0.3,0,0.5,0,0.7c0,0.2,0,0.4,0,0.5c0,0.2,0,0.3,0.1,0.4c0,0.1,0.1,0.3,0.1,0.4H100.7z M100.3,92.8
		L99,93c-0.4,0.1-0.8,0.2-1,0.4c-0.2,0.2-0.3,0.4-0.3,0.7c0,0.3,0.1,0.5,0.3,0.7c0.2,0.2,0.4,0.3,0.7,0.3c0.4,0,0.8-0.2,1.1-0.5
		c0.3-0.3,0.5-0.8,0.5-1.3V92.8z"/>
	<path class="copy-grayFill" d="M104.2,94c0.1,0.1,0.3,0.3,0.4,0.4c0.2,0.1,0.3,0.2,0.5,0.3c0.2,0.1,0.4,0.2,0.6,0.2c0.2,0.1,0.4,0.1,0.7,0.1
		c0.3,0,0.5-0.1,0.7-0.2c0.2-0.1,0.3-0.3,0.3-0.6c0-0.2-0.1-0.4-0.3-0.5c-0.2-0.1-0.4-0.2-0.7-0.3c-0.3-0.1-0.6-0.2-1-0.3
		c-0.3-0.1-0.7-0.2-1-0.4c-0.3-0.2-0.5-0.4-0.7-0.7c-0.2-0.3-0.3-0.6-0.3-1.1c0-0.4,0.1-0.8,0.3-1c0.2-0.3,0.4-0.5,0.7-0.7
		c0.3-0.2,0.6-0.3,0.9-0.4c0.4-0.1,0.7-0.1,1.1-0.1c0.6,0,1.2,0.1,1.7,0.2c0.5,0.2,0.9,0.4,1.3,0.7l-0.9,1.3
		c-0.1-0.1-0.2-0.2-0.4-0.3c-0.2-0.1-0.3-0.2-0.5-0.2c-0.2-0.1-0.4-0.1-0.6-0.2s-0.4-0.1-0.6-0.1c-0.2,0-0.4,0-0.6,0.1
		c-0.2,0.1-0.3,0.3-0.3,0.5c0,0.2,0.1,0.4,0.3,0.5c0.2,0.1,0.4,0.2,0.7,0.3c0.3,0.1,0.6,0.2,1,0.3c0.3,0.1,0.7,0.2,1,0.4
		c0.3,0.2,0.5,0.4,0.7,0.7c0.2,0.3,0.3,0.6,0.3,1.1c0,0.4-0.1,0.8-0.3,1.1c-0.2,0.3-0.4,0.6-0.7,0.8c-0.3,0.2-0.6,0.4-1,0.5
		c-0.4,0.1-0.7,0.1-1.1,0.1c-1.3,0-2.4-0.4-3.3-1.1L104.2,94z"/>
	<path class="copy-grayFill" d="M110.8,94c0.1,0.1,0.3,0.3,0.4,0.4c0.2,0.1,0.3,0.2,0.5,0.3c0.2,0.1,0.4,0.2,0.6,0.2c0.2,0.1,0.4,0.1,0.7,0.1
		c0.3,0,0.5-0.1,0.7-0.2c0.2-0.1,0.3-0.3,0.3-0.6c0-0.2-0.1-0.4-0.3-0.5c-0.2-0.1-0.4-0.2-0.7-0.3c-0.3-0.1-0.6-0.2-1-0.3
		c-0.3-0.1-0.7-0.2-1-0.4c-0.3-0.2-0.5-0.4-0.7-0.7s-0.3-0.6-0.3-1.1c0-0.4,0.1-0.8,0.3-1c0.2-0.3,0.4-0.5,0.7-0.7
		c0.3-0.2,0.6-0.3,0.9-0.4c0.4-0.1,0.7-0.1,1.1-0.1c0.6,0,1.2,0.1,1.7,0.2c0.5,0.2,0.9,0.4,1.3,0.7l-0.9,1.3
		c-0.1-0.1-0.2-0.2-0.4-0.3c-0.2-0.1-0.3-0.2-0.5-0.2c-0.2-0.1-0.4-0.1-0.6-0.2s-0.4-0.1-0.6-0.1c-0.2,0-0.4,0-0.6,0.1
		c-0.2,0.1-0.3,0.3-0.3,0.5c0,0.2,0.1,0.4,0.3,0.5c0.2,0.1,0.4,0.2,0.7,0.3c0.3,0.1,0.6,0.2,1,0.3c0.3,0.1,0.7,0.2,1,0.4
		c0.3,0.2,0.5,0.4,0.7,0.7c0.2,0.3,0.3,0.6,0.3,1.1c0,0.4-0.1,0.8-0.3,1.1s-0.4,0.6-0.7,0.8c-0.3,0.2-0.6,0.4-1,0.5
		c-0.4,0.1-0.7,0.1-1.1,0.1c-1.3,0-2.4-0.4-3.3-1.1L110.8,94z"/>
</g>
<g>
	<path class="copy-grayFill" d="M117.1,94h2.2v2.2h-2.2V94z"/>
	<path class="copy-grayFill" d="M132.3,94.9c-0.2,0.5-0.6,0.8-1.1,1.2c-0.5,0.3-1.1,0.5-1.9,0.5c-0.8,0-1.5-0.1-2.1-0.4
		c-0.6-0.3-1.1-0.7-1.6-1.1c-0.4-0.5-0.7-1.1-1-1.7c-0.2-0.7-0.3-1.4-0.3-2.2c0-0.8,0.1-1.5,0.3-2.2c0.2-0.7,0.6-1.2,1-1.7
		c0.4-0.5,1-0.9,1.6-1.1c0.6-0.3,1.3-0.4,2.1-0.4c0.9,0,1.8,0.2,2.6,0.6c0.8,0.4,1.4,1,1.9,1.7l-2.1,1c-0.1-0.2-0.2-0.4-0.4-0.6
		c-0.2-0.2-0.4-0.3-0.6-0.5c-0.2-0.1-0.5-0.2-0.7-0.3c-0.3-0.1-0.5-0.1-0.7-0.1c-0.5,0-0.9,0.1-1.2,0.3c-0.3,0.2-0.6,0.4-0.9,0.8
		c-0.2,0.3-0.4,0.7-0.5,1.1c-0.1,0.4-0.2,0.9-0.2,1.4c0,0.5,0.1,1,0.2,1.4c0.1,0.4,0.3,0.8,0.5,1.1c0.2,0.3,0.5,0.6,0.9,0.8
		c0.3,0.2,0.7,0.3,1.2,0.3c0.4,0,0.8-0.1,1.2-0.2c0.3-0.1,0.6-0.3,0.8-0.5c0.2-0.2,0.4-0.5,0.5-0.7c0.1-0.3,0.1-0.5,0.1-0.7v-0.2
		h-2.2v-1.6h4.3v5.7h-1.3L132.3,94.9z"/>
	<path class="copy-grayFill" d="M137.1,93c0.1,0.7,0.3,1.2,0.6,1.5c0.3,0.3,0.7,0.5,1.2,0.5c0.7,0,1.2-0.3,1.6-1l1.5,0.8
		c-0.3,0.5-0.8,1-1.3,1.2c-0.5,0.3-1.2,0.4-1.9,0.4c-0.6,0-1.2-0.1-1.6-0.3c-0.5-0.2-0.9-0.5-1.2-0.8c-0.3-0.3-0.6-0.8-0.7-1.2
		c-0.2-0.5-0.2-1-0.2-1.5c0-0.6,0.1-1.1,0.2-1.6c0.2-0.5,0.4-0.9,0.7-1.3c0.3-0.4,0.7-0.6,1.1-0.8c0.4-0.2,1-0.3,1.5-0.3
		c0.6,0,1.1,0.1,1.5,0.3c0.4,0.2,0.8,0.5,1.1,0.8c0.3,0.3,0.5,0.8,0.7,1.3c0.1,0.5,0.2,1,0.2,1.6c0,0.1,0,0.2,0,0.3
		c0,0.1,0,0.1,0,0.1H137.1z M138.6,90.1c-0.5,0-0.8,0.2-1.1,0.5c-0.3,0.3-0.4,0.7-0.5,1.3h3c0-0.2,0-0.5-0.1-0.7
		c-0.1-0.2-0.1-0.4-0.3-0.6c-0.1-0.2-0.3-0.3-0.5-0.4C139.1,90.1,138.9,90.1,138.6,90.1z"/>
	<path class="copy-grayFill" d="M143.5,90.1h-1.2v-1.3h0.2c0.3,0,0.6-0.1,0.8-0.2c0.2-0.1,0.4-0.3,0.5-0.4c0.1-0.2,0.2-0.4,0.3-0.7
		c0.1-0.3,0.1-0.5,0.2-0.8h1.3v2.1h1.6v1.3h-1.6V94c0,0.3,0.1,0.5,0.2,0.7c0.1,0.2,0.3,0.2,0.6,0.2c0.1,0,0.2,0,0.3,0
		c0.1,0,0.2-0.1,0.4-0.1l0.1,1.4c-0.2,0.1-0.5,0.2-0.7,0.2c-0.3,0-0.5,0.1-0.8,0.1c-0.4,0-0.8-0.1-1-0.2c-0.3-0.1-0.5-0.3-0.6-0.5
		c-0.2-0.2-0.3-0.4-0.3-0.7c-0.1-0.3-0.1-0.6-0.1-0.9V90.1z"/>
	<path class="copy-grayFill" d="M150.9,88.8h1.8l0.2,1.2c0.2-0.4,0.5-0.8,0.8-1c0.4-0.3,0.8-0.4,1.3-0.4c0.6,0,1.1,0.1,1.4,0.4
		c0.3,0.3,0.6,0.6,0.7,1c0.1-0.2,0.2-0.4,0.3-0.5c0.1-0.2,0.3-0.3,0.5-0.5c0.2-0.1,0.4-0.2,0.7-0.3c0.3-0.1,0.6-0.1,0.9-0.1
		c0.5,0,0.9,0.1,1.2,0.3c0.3,0.2,0.5,0.4,0.7,0.7c0.2,0.3,0.3,0.6,0.3,0.9c0.1,0.4,0.1,0.7,0.1,1.1v4.7h-2v-4.1c0-0.6-0.1-1-0.3-1.3
		c-0.2-0.3-0.5-0.4-0.9-0.4c-0.2,0-0.3,0-0.5,0.1c-0.2,0.1-0.3,0.2-0.4,0.3c-0.1,0.2-0.2,0.4-0.3,0.6c-0.1,0.3-0.1,0.6-0.1,1v3.8h-2
		v-4.1c0-1.2-0.4-1.7-1.1-1.7c-0.2,0-0.3,0-0.5,0.1c-0.2,0.1-0.3,0.2-0.4,0.4c-0.1,0.2-0.2,0.4-0.3,0.7c-0.1,0.3-0.1,0.6-0.1,1.1
		v3.7h-2V88.8z"/>
	<path class="copy-grayFill" d="M166.4,96.5c-0.6,0-1.1-0.1-1.6-0.3c-0.5-0.2-0.8-0.5-1.1-0.8c-0.3-0.4-0.5-0.8-0.7-1.2
		c-0.2-0.5-0.2-1-0.2-1.6c0-0.6,0.1-1.1,0.2-1.6c0.2-0.5,0.4-0.9,0.7-1.2c0.3-0.3,0.7-0.6,1.1-0.8c0.4-0.2,1-0.3,1.6-0.3
		c0.6,0,1.1,0.1,1.6,0.3c0.5,0.2,0.8,0.5,1.1,0.8c0.3,0.4,0.5,0.8,0.7,1.2c0.2,0.5,0.2,1,0.2,1.6c0,0.6-0.1,1.1-0.2,1.6
		c-0.2,0.5-0.4,0.9-0.7,1.2c-0.3,0.4-0.7,0.6-1.1,0.8C167.5,96.4,167,96.5,166.4,96.5z M166.4,94.9c0.5,0,0.9-0.2,1.1-0.7
		c0.2-0.4,0.4-1,0.4-1.7c0-0.7-0.1-1.3-0.4-1.7c-0.3-0.4-0.6-0.7-1.2-0.7c-0.5,0-0.9,0.2-1.2,0.7c-0.3,0.4-0.4,1-0.4,1.7
		c0,0.7,0.1,1.3,0.4,1.7C165.5,94.7,165.9,94.9,166.4,94.9z"/>
	<path class="copy-grayFill" d="M171,88.8h1.8l0.1,1.5c0.2-0.5,0.6-0.9,1-1.2c0.4-0.3,1-0.5,1.6-0.5v2.1c-0.1,0-0.2,0-0.3,0
		c-0.1,0-0.2,0-0.4,0c-0.2,0-0.4,0-0.7,0.1c-0.2,0.1-0.4,0.2-0.6,0.3c-0.2,0.2-0.3,0.4-0.4,0.7c-0.1,0.3-0.2,0.6-0.2,1.1v3.5h-2
		V88.8z"/>
	<path class="copy-grayFill" d="M177.7,93c0.1,0.7,0.3,1.2,0.6,1.5c0.3,0.3,0.7,0.5,1.2,0.5c0.7,0,1.2-0.3,1.6-1l1.5,0.8
		c-0.3,0.5-0.8,1-1.3,1.2c-0.5,0.3-1.2,0.4-1.9,0.4c-0.6,0-1.1-0.1-1.6-0.3c-0.5-0.2-0.9-0.5-1.2-0.8c-0.3-0.3-0.6-0.8-0.7-1.2
		s-0.2-1-0.2-1.5c0-0.6,0.1-1.1,0.2-1.6c0.2-0.5,0.4-0.9,0.7-1.3c0.3-0.4,0.7-0.6,1.1-0.8c0.4-0.2,1-0.3,1.5-0.3
		c0.6,0,1.1,0.1,1.5,0.3c0.4,0.2,0.8,0.5,1.1,0.8c0.3,0.3,0.5,0.8,0.7,1.3c0.1,0.5,0.2,1,0.2,1.6c0,0.1,0,0.2,0,0.3
		c0,0.1,0,0.1,0,0.1H177.7z M179.3,90.1c-0.5,0-0.8,0.2-1.1,0.5c-0.3,0.3-0.4,0.7-0.5,1.3h3c0-0.2,0-0.5-0.1-0.7
		c-0.1-0.2-0.1-0.4-0.3-0.6c-0.1-0.2-0.3-0.3-0.5-0.4C179.8,90.1,179.5,90.1,179.3,90.1z"/>
	<path class="copy-grayFill" d="M187.3,94c0.1,0.1,0.3,0.3,0.4,0.4c0.2,0.1,0.3,0.2,0.5,0.3c0.2,0.1,0.4,0.2,0.6,0.2c0.2,0.1,0.4,0.1,0.7,0.1
		c0.3,0,0.5-0.1,0.7-0.2c0.2-0.1,0.3-0.3,0.3-0.6c0-0.2-0.1-0.4-0.3-0.5c-0.2-0.1-0.4-0.2-0.7-0.3c-0.3-0.1-0.6-0.2-1-0.3
		c-0.4-0.1-0.7-0.2-1-0.4c-0.3-0.2-0.5-0.4-0.7-0.7c-0.2-0.3-0.3-0.6-0.3-1.1c0-0.4,0.1-0.8,0.3-1c0.2-0.3,0.4-0.5,0.7-0.7
		c0.3-0.2,0.6-0.3,0.9-0.4c0.4-0.1,0.7-0.1,1.1-0.1c0.6,0,1.2,0.1,1.7,0.2c0.5,0.2,0.9,0.4,1.3,0.7l-0.9,1.3
		c-0.1-0.1-0.2-0.2-0.4-0.3s-0.3-0.2-0.5-0.2c-0.2-0.1-0.4-0.1-0.6-0.2c-0.2,0-0.4-0.1-0.6-0.1c-0.2,0-0.4,0-0.6,0.1
		c-0.2,0.1-0.3,0.3-0.3,0.5c0,0.2,0.1,0.4,0.3,0.5c0.2,0.1,0.4,0.2,0.7,0.3c0.3,0.1,0.6,0.2,1,0.3c0.3,0.1,0.7,0.2,1,0.4
		c0.3,0.2,0.5,0.4,0.7,0.7c0.2,0.3,0.3,0.6,0.3,1.1c0,0.4-0.1,0.8-0.3,1.1c-0.2,0.3-0.4,0.6-0.7,0.8c-0.3,0.2-0.6,0.4-1,0.5
		c-0.4,0.1-0.7,0.1-1.1,0.1c-1.3,0-2.4-0.4-3.3-1.1L187.3,94z"/>
	<path class="copy-grayFill" d="M198,96.3c-0.1-0.1-0.1-0.3-0.1-0.5c0-0.2-0.1-0.4-0.1-0.6c-0.2,0.4-0.4,0.7-0.8,0.9c-0.4,0.2-0.8,0.4-1.4,0.4
		c-0.8,0-1.4-0.2-1.8-0.7c-0.4-0.4-0.6-1-0.6-1.7c0-0.4,0.1-0.7,0.2-1c0.1-0.3,0.3-0.5,0.6-0.7c0.2-0.2,0.5-0.3,0.9-0.5
		c0.3-0.1,0.7-0.2,1.2-0.3l1.6-0.3v-0.3c0-0.4-0.1-0.7-0.3-0.9c-0.2-0.1-0.5-0.2-0.8-0.2c-0.5,0-0.9,0.1-1.3,0.3
		c-0.3,0.2-0.6,0.4-0.9,0.7l-1-1.3c0.3-0.3,0.7-0.6,1.3-0.8c0.6-0.2,1.3-0.4,2.1-0.4c1,0,1.8,0.2,2.2,0.7c0.5,0.5,0.7,1.1,0.7,2.1
		v2.8c0,0.3,0,0.5,0,0.7c0,0.2,0,0.4,0,0.5c0,0.2,0,0.3,0.1,0.4c0,0.1,0.1,0.3,0.1,0.4H198z M197.7,92.8l-1.3,0.2
		c-0.4,0.1-0.8,0.2-1,0.4c-0.2,0.2-0.3,0.4-0.3,0.7c0,0.3,0.1,0.5,0.3,0.7c0.2,0.2,0.4,0.3,0.7,0.3c0.4,0,0.8-0.2,1.1-0.5
		c0.3-0.3,0.5-0.8,0.5-1.3V92.8z"/>
	<path class="copy-grayFill" d="M200.3,88.8h2.2l1.4,5.5l1.4-5.5h2.2l-2.5,7.4h-2.4L200.3,88.8z"/>
	<path class="copy-grayFill" d="M208.2,85.9h2v1.6h-2V85.9z M208.2,88.8h2v7.4h-2V88.8z"/>
	<path class="copy-grayFill" d="M211.5,88.8h1.8l0.2,1.2c0.2-0.4,0.5-0.7,0.9-1c0.4-0.3,0.9-0.4,1.4-0.4c0.8,0,1.4,0.3,1.8,0.8
		c0.4,0.5,0.6,1.3,0.6,2.2v4.6h-2v-4.2c0-0.6-0.1-1.1-0.3-1.3c-0.2-0.3-0.5-0.4-0.9-0.4c-0.4,0-0.8,0.2-1,0.5
		c-0.3,0.3-0.4,0.9-0.4,1.7v3.7h-2V88.8z"/>
	<path class="copy-grayFill" d="M220.3,96.6c0.3,0.3,0.6,0.5,1,0.7c0.4,0.2,0.8,0.2,1.3,0.2c0.6,0,1-0.1,1.2-0.4c0.2-0.3,0.3-0.7,0.3-1.1v-1
		c-0.2,0.3-0.4,0.6-0.8,0.8c-0.3,0.2-0.8,0.3-1.3,0.3c-0.4,0-0.7-0.1-1.1-0.2c-0.3-0.1-0.6-0.4-0.9-0.6c-0.3-0.3-0.5-0.7-0.6-1.1
		c-0.2-0.5-0.2-1-0.2-1.6c0-0.6,0.1-1.1,0.2-1.6c0.1-0.5,0.3-0.9,0.6-1.2c0.3-0.3,0.6-0.6,0.9-0.8c0.4-0.2,0.8-0.3,1.2-0.3
		c0.5,0,0.9,0.1,1.3,0.3c0.4,0.2,0.6,0.6,0.8,1l0.3-1.1h1.6v7c0,0.4-0.1,0.9-0.2,1.2c-0.1,0.4-0.3,0.7-0.6,1
		c-0.3,0.3-0.6,0.5-1.1,0.7c-0.4,0.2-1,0.2-1.6,0.2c-0.8,0-1.5-0.1-2.1-0.3c-0.6-0.2-1-0.4-1.4-0.7L220.3,96.6z M224.1,92.3
		c0-0.3,0-0.5-0.1-0.7c0-0.2-0.1-0.5-0.2-0.6c-0.1-0.2-0.3-0.3-0.4-0.5c-0.2-0.1-0.4-0.2-0.7-0.2c-0.4,0-0.8,0.2-1.1,0.5
		c-0.3,0.4-0.4,0.9-0.4,1.6c0,0.6,0.1,1.2,0.4,1.6c0.2,0.4,0.6,0.6,1.1,0.6c0.5,0,0.8-0.2,1-0.5c0.2-0.4,0.3-0.9,0.3-1.5V92.3z"/>
	<path class="copy-grayFill" d="M228,94c0.1,0.1,0.3,0.3,0.4,0.4c0.2,0.1,0.3,0.2,0.5,0.3c0.2,0.1,0.4,0.2,0.6,0.2c0.2,0.1,0.4,0.1,0.7,0.1
		c0.3,0,0.5-0.1,0.7-0.2c0.2-0.1,0.3-0.3,0.3-0.6c0-0.2-0.1-0.4-0.3-0.5c-0.2-0.1-0.4-0.2-0.7-0.3c-0.3-0.1-0.6-0.2-1-0.3
		c-0.4-0.1-0.7-0.2-1-0.4c-0.3-0.2-0.5-0.4-0.7-0.7c-0.2-0.3-0.3-0.6-0.3-1.1c0-0.4,0.1-0.8,0.3-1c0.2-0.3,0.4-0.5,0.7-0.7
		c0.3-0.2,0.6-0.3,0.9-0.4c0.4-0.1,0.7-0.1,1.1-0.1c0.6,0,1.2,0.1,1.7,0.2c0.5,0.2,0.9,0.4,1.3,0.7l-0.9,1.3
		c-0.1-0.1-0.2-0.2-0.4-0.3c-0.2-0.1-0.3-0.2-0.5-0.2c-0.2-0.1-0.4-0.1-0.6-0.2c-0.2,0-0.4-0.1-0.6-0.1c-0.2,0-0.4,0-0.6,0.1
		c-0.2,0.1-0.3,0.3-0.3,0.5c0,0.2,0.1,0.4,0.3,0.5c0.2,0.1,0.4,0.2,0.7,0.3c0.3,0.1,0.6,0.2,1,0.3c0.3,0.1,0.7,0.2,1,0.4
		s0.5,0.4,0.7,0.7c0.2,0.3,0.3,0.6,0.3,1.1c0,0.4-0.1,0.8-0.3,1.1c-0.2,0.3-0.4,0.6-0.7,0.8c-0.3,0.2-0.6,0.4-1,0.5
		c-0.4,0.1-0.7,0.1-1.1,0.1c-1.3,0-2.4-0.4-3.3-1.1L228,94z"/>
	<path class="copy-grayFill" d="M234,94h2.2v2.2H234V94z"/>
</g>
</svg>
