<?xml version="1.0" encoding="utf-8"?>
<!-- Generator: Adobe Illustrator 22.1.0, SVG Export Plug-In . SVG Version: 6.00 Build 0)  -->
<svg version="1.1" id="Layer_1" xmlns="https://www.w3.org/2000/svg" xmlns:xlink="https://www.w3.org/1999/xlink" x="0px" y="0px"
	 viewBox="0 0 300 250" style="enable-background:new 0 0 300 250;" xml:space="preserve">
<style type="text/css">
	.copy-purpleFill{fill:#662868;}
</style>
<g>
	<path class="copy-purpleFill" d="M36.6,140.7c-0.9,1.4-1.9,2.5-3.1,3.1c-1.2,0.7-2.6,1-4.3,1c-1.4,0-2.6-0.2-3.7-0.7c-1.1-0.4-2-1-2.7-1.8
		s-1.3-1.7-1.6-2.8c-0.4-1.1-0.5-2.2-0.5-3.5c0-1.3,0.2-2.5,0.6-3.5c0.4-1.1,0.9-2,1.7-2.8c0.7-0.8,1.6-1.4,2.7-1.8
		c1.1-0.4,2.3-0.6,3.6-0.6c1.5,0,2.9,0.3,4.2,0.8c1.2,0.6,2.3,1.5,3.3,3l-4.1,2c-0.3-0.7-0.8-1.2-1.3-1.6c-0.6-0.4-1.2-0.6-2-0.6
		c-0.7,0-1.3,0.1-1.8,0.4c-0.5,0.3-0.9,0.6-1.2,1.1c-0.3,0.5-0.6,1-0.7,1.6s-0.2,1.3-0.2,2s0.1,1.3,0.3,2c0.2,0.6,0.4,1.1,0.8,1.6
		c0.3,0.5,0.8,0.8,1.3,1.1c0.5,0.3,1.1,0.4,1.7,0.4c0.7,0,1.4-0.2,1.9-0.6s1-1,1.4-1.9L36.6,140.7z"/>
	<path class="copy-purpleFill" d="M37.5,132.4h3.6l0.3,2.2c0.4-0.7,0.9-1.3,1.5-1.8c0.7-0.5,1.5-0.7,2.6-0.7v4.1c-0.3-0.1-0.7-0.1-1.3-0.1
		c-0.3,0-0.6,0-1,0.1c-0.3,0.1-0.6,0.2-0.9,0.4c-0.3,0.2-0.5,0.5-0.7,0.9c-0.2,0.4-0.3,1-0.3,1.7v5.3h-4V132.4z"/>
	<path class="copy-purpleFill" d="M53.4,144.5c-0.1-0.2-0.2-0.4-0.2-0.7c-0.1-0.3-0.1-0.5-0.1-0.8c-0.2,0.5-0.6,0.9-1.1,1.3
		c-0.5,0.4-1.3,0.6-2.2,0.6c-0.6,0-1.2-0.1-1.7-0.3c-0.5-0.2-0.9-0.5-1.2-0.8c-0.3-0.3-0.6-0.8-0.8-1.2s-0.3-1-0.3-1.5
		c0-0.6,0.1-1.2,0.3-1.6c0.2-0.5,0.5-0.8,0.9-1.2c0.4-0.3,0.9-0.6,1.5-0.8c0.6-0.2,1.2-0.3,1.9-0.5l2.4-0.4v-0.3
		c0-0.5-0.1-0.8-0.4-1c-0.3-0.2-0.6-0.3-1.1-0.3c-0.7,0-1.4,0.1-1.9,0.4c-0.5,0.3-1,0.6-1.4,0.9l-1.9-2.6c0.3-0.2,0.6-0.4,0.9-0.6
		c0.4-0.2,0.8-0.4,1.3-0.6s1-0.3,1.6-0.4c0.6-0.1,1.2-0.2,1.9-0.2c1.8,0,3.1,0.4,3.8,1.1c0.8,0.8,1.2,1.9,1.2,3.5v4.3
		c0,0.5,0,0.9,0,1.3c0,0.3,0,0.6,0.1,0.9c0,0.3,0.1,0.5,0.2,0.7c0.1,0.2,0.1,0.4,0.3,0.7H53.4z M52.8,139.1l-1.6,0.3
		c-0.6,0.1-1,0.3-1.2,0.5c-0.3,0.2-0.4,0.5-0.4,0.9c0,0.3,0.1,0.6,0.3,0.9c0.2,0.2,0.5,0.3,0.9,0.3c0.6,0,1-0.2,1.4-0.6
		c0.4-0.4,0.6-1,0.6-1.9V139.1z"/>
	<path class="copy-purpleFill" d="M58.3,141.7l6.3-6.3h-6v-2.9h10.8v2.8l-6.4,6.3h6.8v2.9H58.3V141.7z"/>
	<path class="copy-purpleFill" d="M71.3,145.7c0.3,0.1,0.6,0.2,0.9,0.2c0.3,0.1,0.6,0.1,0.8,0.1c0.4,0,0.6-0.1,0.8-0.2c0.2-0.2,0.4-0.4,0.5-0.8
		L70,132.4h4.3l2.1,8.1l2-8.1h4.3l-4.2,12c-0.2,0.7-0.5,1.3-0.7,1.8c-0.2,0.6-0.5,1-0.9,1.4c-0.4,0.4-0.9,0.7-1.4,0.9
		s-1.3,0.3-2.3,0.3c-0.1,0-0.3,0-0.5,0c-0.2,0-0.4,0-0.7,0s-0.5,0-0.7-0.1c-0.2,0-0.4-0.1-0.5-0.1L71.3,145.7z"/>
	<path class="copy-purpleFill" d="M82.4,147.6c0.4-0.2,0.8-0.4,1-0.6s0.5-0.4,0.6-0.6s0.2-0.5,0.3-0.7s0.1-0.5,0.1-0.8v-0.4h-2v-4.4h4.4v4.4
		c0,0.7-0.1,1.4-0.2,1.9c-0.1,0.5-0.4,1-0.7,1.4s-0.7,0.7-1.1,1c-0.4,0.3-1,0.5-1.6,0.8L82.4,147.6z"/>
	<path class="copy-purpleFill" d="M93.6,132.4h3.6l0.3,2.2c0.4-0.7,0.9-1.3,1.5-1.8c0.7-0.5,1.5-0.7,2.6-0.7v4.1c-0.3-0.1-0.7-0.1-1.3-0.1
		c-0.3,0-0.6,0-1,0.1c-0.3,0.1-0.6,0.2-0.9,0.4c-0.3,0.2-0.5,0.5-0.7,0.9c-0.2,0.4-0.3,1-0.3,1.7v5.3h-4V132.4z"/>
	<path class="copy-purpleFill" d="M102.6,127.6h4v3.2h-4V127.6z M102.6,132.4h4v12.1h-4V132.4z"/>
	<path class="copy-purpleFill" d="M110,144.4c0.5,0.5,1,0.8,1.7,1.1c0.7,0.3,1.4,0.4,2.1,0.4c0.8,0,1.3-0.2,1.6-0.5c0.3-0.3,0.4-0.8,0.4-1.5
		v-1.1c-0.3,0.4-0.7,0.8-1.2,1c-0.5,0.3-1.2,0.4-2,0.4c-0.6,0-1.1-0.1-1.7-0.3s-1.1-0.5-1.5-1s-0.8-1.1-1.1-1.8
		c-0.3-0.8-0.4-1.7-0.4-2.8c0-1,0.1-1.9,0.4-2.7s0.6-1.4,1-2c0.4-0.5,0.9-0.9,1.5-1.2c0.6-0.3,1.2-0.4,2-0.4c0.7,0,1.4,0.2,1.9,0.5
		c0.6,0.3,1,0.8,1.4,1.5l0.5-1.6h3.2v11.4c0,0.7-0.1,1.4-0.3,2.1c-0.2,0.6-0.6,1.2-1,1.6s-1.1,0.8-1.8,1.1c-0.8,0.3-1.7,0.4-2.7,0.4
		c-0.7,0-1.4-0.1-2-0.2c-0.6-0.1-1.2-0.2-1.6-0.4c-0.5-0.2-0.9-0.4-1.4-0.6c-0.4-0.2-0.8-0.4-1.1-0.6L110,144.4z M115.7,138.4
		c0-0.4,0-0.7-0.1-1.1c-0.1-0.4-0.2-0.7-0.3-0.9c-0.1-0.3-0.3-0.5-0.6-0.7c-0.2-0.2-0.5-0.3-0.9-0.3c-0.3,0-0.5,0.1-0.7,0.2
		c-0.2,0.1-0.4,0.3-0.6,0.5s-0.3,0.5-0.4,0.9c-0.1,0.4-0.2,0.8-0.2,1.4c0,1,0.2,1.8,0.5,2.2c0.3,0.5,0.8,0.7,1.4,0.7
		c0.6,0,1-0.2,1.3-0.7c0.3-0.5,0.4-1.2,0.4-2.1V138.4z"/>
	<path class="copy-purpleFill" d="M121.6,127.7h4v6.3c0.3-0.5,0.8-1,1.4-1.4c0.6-0.4,1.4-0.6,2.3-0.6c1.4,0,2.4,0.4,3,1.3c0.6,0.9,1,2.2,1,3.8
		v7.3h-4v-6.6c0-0.8-0.1-1.3-0.4-1.8s-0.7-0.6-1.3-0.6c-0.6,0-1,0.2-1.4,0.7c-0.4,0.5-0.5,1.3-0.5,2.4v5.9h-4V127.7z"/>
	<path class="copy-purpleFill" d="M136,135H134v-2.6h0.3c0.6,0,1.1-0.1,1.5-0.3c0.4-0.2,0.6-0.5,0.8-0.8c0.2-0.3,0.3-0.7,0.4-1.2
		c0.1-0.4,0.2-0.9,0.3-1.3h2.5v3.6h2.5v2.6h-2.5v5.6c0,0.4,0.1,0.7,0.2,0.9c0.1,0.2,0.5,0.4,0.9,0.4c0.1,0,0.3,0,0.5,0
		c0.2,0,0.4-0.1,0.6-0.2l0.3,2.8c-0.4,0.2-0.9,0.3-1.3,0.4c-0.4,0.1-0.9,0.1-1.4,0.1c-0.7,0-1.4-0.1-1.9-0.3
		c-0.5-0.2-0.9-0.5-1.2-0.8s-0.5-0.7-0.6-1.2s-0.2-1-0.2-1.5V135z"/>
	<path class="copy-purpleFill" d="M146.5,138.6c0-0.2,0-0.3,0-0.4c0-0.1,0-0.2,0-0.3c0-0.3,0-0.6,0.1-0.8c0.1-0.2,0.2-0.5,0.3-0.7
		c0.1-0.2,0.2-0.4,0.4-0.5c0.1-0.2,0.3-0.3,0.4-0.4c0.3-0.3,0.7-0.6,1-0.9s0.7-0.5,0.9-0.8s0.5-0.5,0.6-0.8c0.2-0.3,0.2-0.6,0.2-1
		c0-0.5-0.2-0.9-0.6-1.2c-0.4-0.3-0.8-0.4-1.3-0.4c-0.6,0-1.1,0.2-1.5,0.5c-0.4,0.4-0.7,0.8-0.9,1.4l-3.5-1.4
		c0.5-1.2,1.2-2.1,2.3-2.7c1.1-0.6,2.4-0.9,4-0.9c2,0,3.5,0.4,4.6,1.2c1.1,0.8,1.6,1.9,1.6,3.3c0,0.3,0,0.5-0.1,0.8
		c-0.1,0.3-0.2,0.6-0.3,0.9s-0.4,0.6-0.6,0.9c-0.3,0.3-0.6,0.6-1.1,1c-0.2,0.2-0.5,0.4-0.8,0.5s-0.6,0.4-0.8,0.6
		c-0.3,0.2-0.5,0.4-0.7,0.7s-0.3,0.5-0.4,0.8c0,0.1-0.1,0.2-0.1,0.3s0,0.2,0,0.2H146.5z M146.2,140.1h4.4v4.4h-4.4V140.1z"/>
</g>
</svg>
