<?xml version="1.0" encoding="utf-8"?>
<!-- Generator: Adobe Illustrator 22.1.0, SVG Export Plug-In . SVG Version: 6.00 Build 0)  -->
<svg version="1.1" id="Layer_1" xmlns="https://www.w3.org/2000/svg" xmlns:xlink="https://www.w3.org/1999/xlink" x="0px" y="0px"
	 viewBox="0 0 98.5 8.8" style="enable-background:new 0 0 98.5 8.8;" xml:space="preserve">
<style type="text/css">
	.cta-whiteFill{fill:#FFFFFF;}
</style>
<g>
	<path class="cta-whiteFill" d="M3.3,0.2h1.9l3.3,8.4H6.2L5.7,6.9H2.8L2.2,8.6H0L3.3,0.2z M5.1,5.3C4.9,4.8,4.8,4.4,4.6,4
		C4.5,3.6,4.4,3.2,4.2,2.7C4.1,3.1,4,3.6,3.8,4S3.5,4.8,3.4,5.3H5.1z"/>
	<path class="cta-whiteFill" d="M16.5,6.7C16,7.5,15.5,8,14.9,8.3s-1.3,0.5-2.2,0.5c-0.7,0-1.3-0.1-1.9-0.3c-0.5-0.2-1-0.5-1.4-0.9
		C9.2,7.2,8.9,6.7,8.7,6.2C8.5,5.6,8.4,5,8.4,4.4c0-0.7,0.1-1.2,0.3-1.8s0.5-1,0.8-1.4c0.4-0.4,0.8-0.7,1.3-0.9
		C11.4,0.1,12,0,12.7,0c0.8,0,1.5,0.1,2.1,0.4c0.6,0.3,1.2,0.8,1.6,1.5l-2.1,1c-0.2-0.3-0.4-0.6-0.7-0.8c-0.3-0.2-0.6-0.3-1-0.3
		c-0.4,0-0.7,0.1-0.9,0.2s-0.5,0.3-0.6,0.5c-0.2,0.2-0.3,0.5-0.4,0.8c-0.1,0.3-0.1,0.6-0.1,1s0,0.7,0.1,1c0.1,0.3,0.2,0.6,0.4,0.8
		c0.2,0.2,0.4,0.4,0.6,0.5s0.5,0.2,0.9,0.2c0.4,0,0.7-0.1,1-0.3s0.5-0.5,0.7-1L16.5,6.7z"/>
	<path class="cta-whiteFill" d="M25,6.7C24.5,7.5,24,8,23.4,8.3s-1.3,0.5-2.2,0.5c-0.7,0-1.3-0.1-1.9-0.3c-0.5-0.2-1-0.5-1.4-0.9
		c-0.4-0.4-0.6-0.9-0.8-1.4C17,5.6,16.9,5,16.9,4.4c0-0.7,0.1-1.2,0.3-1.8s0.5-1,0.8-1.4c0.4-0.4,0.8-0.7,1.3-0.9
		C19.9,0.1,20.5,0,21.2,0c0.8,0,1.5,0.1,2.1,0.4c0.6,0.3,1.2,0.8,1.6,1.5l-2.1,1c-0.2-0.3-0.4-0.6-0.7-0.8c-0.3-0.2-0.6-0.3-1-0.3
		c-0.4,0-0.7,0.1-0.9,0.2s-0.5,0.3-0.6,0.5c-0.2,0.2-0.3,0.5-0.4,0.8c-0.1,0.3-0.1,0.6-0.1,1s0,0.7,0.1,1c0.1,0.3,0.2,0.6,0.4,0.8
		c0.2,0.2,0.4,0.4,0.6,0.5s0.5,0.2,0.9,0.2c0.4,0,0.7-0.1,1-0.3s0.5-0.5,0.7-1L25,6.7z"/>
	<path class="cta-whiteFill" d="M25.9,0.2H28v5.3c0,0.5,0.1,0.9,0.4,1.1c0.2,0.2,0.6,0.3,1,0.3c0.4,0,0.8-0.1,1-0.3c0.2-0.2,0.3-0.6,0.3-1.1
		V0.2h2.2v5.5c0,0.2,0,0.4,0,0.6c0,0.2-0.1,0.5-0.2,0.7c-0.1,0.2-0.2,0.5-0.3,0.7c-0.2,0.2-0.4,0.4-0.6,0.6c-0.3,0.2-0.6,0.3-1,0.4
		c-0.4,0.1-0.8,0.2-1.4,0.2c-0.5,0-1-0.1-1.4-0.2c-0.4-0.1-0.7-0.2-1-0.4c-0.3-0.2-0.5-0.4-0.6-0.6S26.2,7.2,26.1,7
		C26,6.7,26,6.5,25.9,6.3c0-0.2,0-0.4,0-0.6V0.2z"/>
	<path class="cta-whiteFill" d="M34.3,0.2h3.5c0.4,0,0.9,0,1.3,0.1c0.4,0.1,0.8,0.2,1.1,0.4s0.6,0.5,0.8,0.8c0.2,0.3,0.3,0.8,0.3,1.3
		c0,0.4-0.1,0.7-0.2,0.9c-0.1,0.3-0.3,0.5-0.5,0.6c-0.2,0.2-0.4,0.3-0.7,0.4C39.6,4.9,39.4,5,39.1,5c0.2,0,0.4,0.1,0.6,0.2
		c0.2,0.1,0.3,0.3,0.5,0.5l1.6,2.8h-2.5l-1-2c-0.1-0.2-0.2-0.3-0.3-0.4S37.8,6,37.7,5.9s-0.2-0.1-0.3-0.1c-0.1,0-0.3,0-0.4,0h-0.5
		v2.8h-2.2V0.2z M37.7,4.1c0.1,0,0.3,0,0.4,0c0.1,0,0.3-0.1,0.4-0.2c0.1-0.1,0.2-0.2,0.3-0.4c0.1-0.2,0.1-0.4,0.1-0.6
		c0-0.2,0-0.4-0.1-0.5c-0.1-0.1-0.2-0.3-0.3-0.3c-0.1-0.1-0.3-0.1-0.4-0.2c-0.1,0-0.3,0-0.4,0h-1.2v2.3H37.7z"/>
	<path class="cta-whiteFill" d="M45.3,0.2h1.9l3.3,8.4h-2.3l-0.6-1.7h-2.9l-0.6,1.7H42L45.3,0.2z M47,5.3c-0.1-0.4-0.3-0.8-0.4-1.2
		c-0.1-0.4-0.3-0.9-0.4-1.4c-0.1,0.5-0.3,0.9-0.4,1.4s-0.3,0.8-0.4,1.3H47z"/>
	<path class="cta-whiteFill" d="M58.4,6.7C58,7.5,57.5,8,56.9,8.3s-1.3,0.5-2.2,0.5c-0.7,0-1.3-0.1-1.9-0.3c-0.5-0.2-1-0.5-1.4-0.9
		c-0.4-0.4-0.6-0.9-0.8-1.4c-0.2-0.5-0.3-1.1-0.3-1.8c0-0.7,0.1-1.2,0.3-1.8s0.5-1,0.8-1.4c0.4-0.4,0.8-0.7,1.3-0.9
		C53.4,0.1,54,0,54.7,0c0.8,0,1.5,0.1,2.1,0.4c0.6,0.3,1.2,0.8,1.6,1.5l-2.1,1c-0.2-0.3-0.4-0.6-0.7-0.8c-0.3-0.2-0.6-0.3-1-0.3
		c-0.4,0-0.7,0.1-0.9,0.2s-0.5,0.3-0.6,0.5c-0.2,0.2-0.3,0.5-0.4,0.8c-0.1,0.3-0.1,0.6-0.1,1s0,0.7,0.1,1C52.9,5.7,53,6,53.2,6.2
		c0.2,0.2,0.4,0.4,0.6,0.5s0.5,0.2,0.9,0.2c0.4,0,0.7-0.1,1-0.3s0.5-0.5,0.7-1L58.4,6.7z"/>
	<path class="cta-whiteFill" d="M61.4,4.9l-3.1-4.7h2.4l1.7,3.1l1.8-3.1h2.4l-3.2,4.7v3.8h-2.2V4.9z"/>
	<path class="cta-whiteFill" d="M69.9,0.2h3.6c0.4,0,0.8,0,1.2,0.1c0.4,0.1,0.7,0.2,1.1,0.5c0.3,0.2,0.6,0.5,0.8,0.8c0.2,0.3,0.3,0.8,0.3,1.3
		c0,0.5-0.1,1-0.3,1.4c-0.2,0.4-0.4,0.7-0.7,0.9c-0.3,0.2-0.6,0.4-1,0.5S74,5.8,73.5,5.8h-1.4v2.8h-2.2V0.2z M73.2,4.1
		c0.2,0,0.4,0,0.5,0c0.2,0,0.3-0.1,0.4-0.2c0.1-0.1,0.2-0.2,0.3-0.4c0.1-0.2,0.1-0.4,0.1-0.6c0-0.2,0-0.4-0.1-0.5
		c-0.1-0.1-0.2-0.3-0.3-0.3C74,2,73.8,1.9,73.7,1.9s-0.3-0.1-0.5-0.1h-1.1v2.3H73.2z"/>
	<path class="cta-whiteFill" d="M79.5,0.2h1.9l3.3,8.4h-2.3l-0.6-1.7H79l-0.6,1.7h-2.2L79.5,0.2z M81.2,5.3C81.1,4.8,81,4.4,80.8,4
		c-0.1-0.4-0.3-0.9-0.4-1.4C80.3,3.1,80.1,3.6,80,4s-0.3,0.8-0.4,1.3H81.2z"/>
	<path class="cta-whiteFill" d="M86.4,4.9l-3.1-4.7h2.4l1.7,3.1l1.8-3.1h2.4l-3.2,4.7v3.8h-2.2V4.9z"/>
	<path class="cta-whiteFill" d="M92.9,6c0.1,0.1,0.2,0.2,0.3,0.3c0.1,0.1,0.3,0.2,0.5,0.3c0.2,0.1,0.4,0.2,0.6,0.2C94.6,7,94.8,7,95.1,7
		c0.4,0,0.7-0.1,0.9-0.2c0.2-0.1,0.3-0.3,0.3-0.5c0-0.2,0-0.3-0.1-0.4s-0.2-0.2-0.4-0.3c-0.2-0.1-0.4-0.1-0.7-0.2
		c-0.3-0.1-0.6-0.1-0.9-0.2c-0.8-0.2-1.4-0.5-1.8-0.9c-0.4-0.4-0.5-0.9-0.5-1.6c0-0.4,0.1-0.7,0.2-1s0.4-0.6,0.6-0.9
		c0.3-0.3,0.6-0.5,1.1-0.6C94.1,0.1,94.6,0,95.1,0c0.6,0,1.3,0.1,1.9,0.3c0.6,0.2,1.1,0.6,1.5,1L97,2.7c-0.2-0.3-0.5-0.5-0.8-0.6
		c-0.3-0.2-0.7-0.3-1.2-0.3c-0.2,0-0.4,0-0.5,0.1c-0.1,0-0.2,0.1-0.3,0.1C94.1,2,94.1,2.1,94,2.2c0,0.1,0,0.2,0,0.2
		c0,0.2,0.1,0.4,0.3,0.5s0.6,0.3,1.1,0.4c0.6,0.2,1.1,0.3,1.5,0.5c0.4,0.2,0.7,0.4,0.9,0.6s0.4,0.5,0.5,0.7c0.1,0.3,0.1,0.6,0.1,0.9
		c0,0.4-0.1,0.8-0.3,1.2c-0.2,0.3-0.4,0.6-0.8,0.9c-0.3,0.2-0.7,0.4-1.1,0.5c-0.4,0.1-0.9,0.2-1.3,0.2c-0.4,0-0.9,0-1.2-0.1
		c-0.4-0.1-0.7-0.2-1-0.3S92.2,8.2,92,8c-0.2-0.2-0.4-0.3-0.5-0.5L92.9,6z"/>
</g>
</svg>
