<?xml version="1.0" encoding="utf-8"?>
<!-- Generator: Adobe Illustrator 22.1.0, SVG Export Plug-In . SVG Version: 6.00 Build 0)  -->
<svg version="1.1" id="Layer_1" xmlns="https://www.w3.org/2000/svg" xmlns:xlink="https://www.w3.org/1999/xlink" x="0px" y="0px"
	 viewBox="0 0 728 90" style="enable-background:new 0 0 728 90;" xml:space="preserve">
<style type="text/css">
	.copy_purpleFill{fill:#662868;}
</style>
<g>
	<path class="copy_purpleFill" d="M197.7,34.4c-1.3,0-2.6-0.2-3.8-0.6c-1.2-0.4-2.2-1-3.1-1.8c-0.9-0.8-1.6-1.9-2.1-3.1
		c-0.5-1.3-0.8-2.8-0.8-4.5c0-1.7,0.3-3.2,0.8-4.5c0.5-1.3,1.2-2.3,2.1-3.2c0.9-0.8,1.9-1.5,3.1-1.9c1.2-0.4,2.4-0.6,3.8-0.6
		c1.3,0,2.6,0.2,3.8,0.6c1.2,0.4,2.2,1,3.1,1.8c0.9,0.8,1.6,1.9,2.2,3.2s0.8,2.8,0.8,4.5c0,1.7-0.3,3.2-0.8,4.5
		c-0.5,1.3-1.3,2.3-2.2,3.1c-0.9,0.8-2,1.4-3.1,1.8C200.2,34.2,199,34.4,197.7,34.4z M197.7,30.1c0.6,0,1.2-0.1,1.8-0.3
		c0.6-0.2,1-0.6,1.5-1s0.7-1.1,1-1.8c0.2-0.7,0.3-1.6,0.3-2.6c0-1.9-0.4-3.3-1.3-4.3s-2-1.5-3.4-1.5c-1.4,0-2.5,0.5-3.3,1.5
		c-0.8,1-1.2,2.5-1.2,4.3c0,1,0.1,1.9,0.4,2.6c0.3,0.7,0.6,1.3,1,1.8c0.4,0.5,0.9,0.8,1.5,1C196.6,30,197.1,30.1,197.7,30.1z"/>
	<path class="copy_purpleFill" d="M210.1,22.9h-2.2v-3h0.4c0.7,0,1.3-0.1,1.7-0.4c0.4-0.2,0.7-0.6,1-0.9c0.2-0.4,0.4-0.8,0.5-1.3
		c0.1-0.5,0.2-1,0.4-1.5h2.9V20h2.9v3h-2.9v6.5c0,0.4,0.1,0.8,0.2,1c0.2,0.3,0.5,0.4,1.1,0.4c0.1,0,0.3,0,0.5,0
		c0.2,0,0.5-0.1,0.7-0.2l0.3,3.2c-0.5,0.2-1,0.3-1.5,0.4c-0.5,0.1-1,0.1-1.6,0.1c-0.9,0-1.6-0.1-2.1-0.3c-0.6-0.2-1-0.5-1.3-0.9
		s-0.6-0.8-0.7-1.4c-0.1-0.5-0.2-1.1-0.2-1.8V22.9z"/>
	<path class="copy_purpleFill" d="M218.7,14.6h4.6v7.2c0.3-0.6,0.9-1.1,1.6-1.6c0.7-0.4,1.6-0.7,2.7-0.7c1.6,0,2.8,0.5,3.5,1.5
		c0.7,1,1.1,2.5,1.1,4.4v8.4h-4.6v-7.6c0-0.9-0.2-1.6-0.5-2c-0.3-0.5-0.8-0.7-1.5-0.7c-0.7,0-1.2,0.3-1.6,0.8s-0.6,1.4-0.6,2.7v6.8
		h-4.6V14.6z"/>
	<path class="copy_purpleFill" d="M238.3,28c0.2,1.1,0.5,1.8,1,2.3c0.5,0.4,1.1,0.6,1.8,0.6c0.6,0,1.1-0.1,1.5-0.4c0.4-0.3,0.8-0.6,1.1-1.2
		l3.4,1.9c-0.7,1.1-1.6,1.8-2.7,2.3c-1.1,0.5-2.3,0.7-3.6,0.7c-1.2,0-2.2-0.2-3.1-0.6c-0.9-0.4-1.7-0.9-2.3-1.5
		c-0.6-0.7-1.1-1.4-1.4-2.3c-0.3-0.9-0.5-1.9-0.5-2.9c0-1.1,0.2-2,0.5-3s0.8-1.7,1.4-2.4c0.6-0.7,1.4-1.2,2.2-1.5
		c0.9-0.4,1.9-0.6,3-0.6c1.1,0,2,0.2,2.9,0.5c0.8,0.4,1.5,0.9,2.1,1.5c0.6,0.7,1,1.5,1.3,2.4c0.3,0.9,0.5,2,0.5,3.2
		c0,0.3,0,0.4,0,0.6c0,0.1,0,0.2,0,0.2H238.3z M240.6,22.9c-1.3,0-2.1,0.8-2.3,2.5h4.5c0-0.7-0.2-1.3-0.5-1.8
		C241.9,23.2,241.3,22.9,240.6,22.9z"/>
	<path class="copy_purpleFill" d="M249,20h4.1l0.3,2.6c0.4-0.8,1-1.5,1.8-2.1c0.8-0.6,1.8-0.9,3.1-0.9v4.7c-0.3-0.1-0.8-0.1-1.5-0.1
		c-0.4,0-0.7,0-1.1,0.1s-0.7,0.2-1,0.5c-0.3,0.2-0.6,0.6-0.8,1.1c-0.2,0.5-0.3,1.2-0.3,2v6.2H249V20z"/>
	<path class="copy_purpleFill" d="M277.7,31c-0.7,1.2-1.6,2-2.6,2.6s-2.3,0.8-3.7,0.8c-1.2,0-2.3-0.2-3.2-0.6c-0.9-0.4-1.6-0.9-2.2-1.6
		c-0.6-0.7-1-1.4-1.3-2.3c-0.3-0.9-0.4-1.9-0.4-2.9c0-1.1,0.2-2.2,0.5-3.1c0.3-0.9,0.8-1.7,1.4-2.4s1.3-1.1,2.2-1.5
		c0.9-0.3,1.9-0.5,3-0.5c1.4,0,2.7,0.3,3.7,0.9s1.9,1.5,2.5,2.6l-3.8,1.8c-0.3-0.7-0.6-1.1-1-1.4c-0.4-0.3-0.8-0.4-1.3-0.4
		c-0.9,0-1.5,0.3-1.8,1c-0.4,0.7-0.6,1.6-0.6,2.7c0,0.4,0,0.9,0.1,1.4c0.1,0.5,0.2,0.9,0.4,1.3c0.2,0.4,0.5,0.7,0.8,1
		c0.3,0.3,0.8,0.4,1.4,0.4c0.6,0,1.1-0.2,1.5-0.5c0.4-0.3,0.7-0.8,1-1.4L277.7,31z"/>
	<path class="copy_purpleFill" d="M284.9,34.4c-1.2,0-2.2-0.2-3.1-0.6c-0.9-0.4-1.6-0.9-2.2-1.5c-0.6-0.7-1-1.4-1.3-2.3
		c-0.3-0.9-0.4-1.9-0.4-2.9s0.2-2,0.5-2.9c0.3-0.9,0.8-1.7,1.4-2.4c0.6-0.7,1.3-1.2,2.2-1.6c0.9-0.4,1.9-0.6,3-0.6
		c1.1,0,2.2,0.2,3.1,0.6c0.9,0.4,1.6,0.9,2.2,1.5c0.6,0.7,1,1.4,1.3,2.4s0.5,1.9,0.5,3s-0.2,2-0.5,2.9c-0.3,0.9-0.7,1.7-1.3,2.3
		c-0.6,0.7-1.3,1.2-2.2,1.5C287,34.2,286,34.4,284.9,34.4z M284.9,30.8c0.8,0,1.3-0.3,1.7-1s0.5-1.6,0.5-2.8s-0.2-2.1-0.6-2.8
		s-0.9-1.1-1.7-1.1c-0.8,0-1.3,0.4-1.7,1.1c-0.4,0.7-0.5,1.7-0.5,2.8s0.2,2.1,0.6,2.8C283.5,30.5,284.1,30.8,284.9,30.8z"/>
	<path class="copy_purpleFill" d="M293.4,20h4.1l0.4,1.9c0.4-0.7,0.9-1.3,1.6-1.7c0.6-0.4,1.5-0.6,2.4-0.6c1.1,0,2,0.3,2.6,0.8
		c0.6,0.5,1.1,1.1,1.3,1.7c0.2-0.3,0.4-0.6,0.6-0.9c0.2-0.3,0.5-0.6,0.8-0.8c0.3-0.2,0.8-0.4,1.2-0.6c0.5-0.1,1.1-0.2,1.7-0.2
		c1,0,1.8,0.2,2.4,0.5c0.6,0.3,1.1,0.8,1.4,1.3c0.3,0.5,0.5,1.2,0.7,1.8c0.1,0.7,0.2,1.4,0.2,2.1v8.6h-4.6v-7.3c0-1-0.1-1.8-0.4-2.3
		c-0.3-0.5-0.7-0.8-1.4-0.8c-0.2,0-0.4,0-0.7,0.1s-0.5,0.2-0.6,0.5c-0.2,0.2-0.3,0.6-0.5,1s-0.2,1-0.2,1.8v7h-4.6v-7.4
		c0-1-0.1-1.7-0.4-2.2c-0.3-0.5-0.7-0.7-1.4-0.7c-0.2,0-0.4,0-0.7,0.1c-0.2,0.1-0.5,0.3-0.6,0.5c-0.2,0.3-0.4,0.6-0.5,1.1
		c-0.1,0.5-0.2,1.1-0.2,1.9v6.7h-4.6V20z"/>
	<path class="copy_purpleFill" d="M316.9,20h4.6v1.8c0.3-0.6,0.8-1.2,1.4-1.6c0.6-0.4,1.4-0.6,2.4-0.6c1.6,0,2.8,0.6,3.8,1.8
		c1,1.2,1.5,3,1.5,5.4c0,1.5-0.2,2.7-0.5,3.6c-0.3,0.9-0.8,1.7-1.3,2.3s-1.1,1-1.8,1.2c-0.7,0.2-1.3,0.3-1.9,0.3
		c-0.7,0-1.4-0.1-2-0.4c-0.7-0.3-1.2-0.6-1.5-1.2v6h-4.6V20z M321.5,27.1c0,0.5,0,0.9,0.1,1.4c0.1,0.4,0.2,0.8,0.4,1.1
		c0.2,0.3,0.4,0.6,0.7,0.7c0.3,0.2,0.6,0.3,1,0.3c0.6,0,1.1-0.3,1.5-0.9c0.4-0.6,0.5-1.5,0.5-2.7c0-1.2-0.2-2.1-0.6-2.7
		c-0.4-0.6-0.9-0.9-1.6-0.9c-0.4,0-0.7,0.1-1,0.3c-0.3,0.2-0.5,0.4-0.6,0.8c-0.2,0.3-0.3,0.7-0.3,1.1c-0.1,0.4-0.1,0.8-0.1,1.3V27.1
		z"/>
	<path class="copy_purpleFill" d="M340,33.9c-0.1-0.2-0.2-0.5-0.3-0.8c-0.1-0.3-0.1-0.6-0.2-0.9c-0.3,0.5-0.7,1-1.3,1.5
		c-0.6,0.4-1.4,0.6-2.5,0.6c-0.7,0-1.4-0.1-2-0.3c-0.6-0.2-1-0.5-1.4-0.9c-0.4-0.4-0.7-0.9-0.9-1.4c-0.2-0.5-0.3-1.1-0.3-1.8
		c0-0.7,0.1-1.3,0.4-1.8c0.2-0.5,0.6-1,1.1-1.3c0.5-0.4,1-0.7,1.7-0.9c0.7-0.2,1.4-0.4,2.2-0.5l2.8-0.4v-0.3c0-0.6-0.2-1-0.5-1.2
		c-0.3-0.2-0.7-0.3-1.3-0.3c-0.9,0-1.6,0.2-2.2,0.5c-0.6,0.3-1.2,0.7-1.6,1.1l-2.2-3c0.3-0.2,0.7-0.5,1.1-0.7
		c0.4-0.2,0.9-0.5,1.5-0.7c0.5-0.2,1.2-0.3,1.8-0.5c0.7-0.1,1.4-0.2,2.2-0.2c2.1,0,3.5,0.4,4.4,1.3c0.9,0.9,1.3,2.2,1.3,4v5
		c0,0.6,0,1.1,0,1.5c0,0.4,0,0.7,0.1,1c0,0.3,0.1,0.6,0.2,0.8s0.2,0.5,0.3,0.8H340z M339.3,27.8l-1.9,0.4c-0.6,0.1-1.1,0.3-1.4,0.6
		c-0.3,0.2-0.4,0.6-0.4,1c0,0.4,0.1,0.7,0.4,1c0.2,0.3,0.6,0.4,1.1,0.4c0.6,0,1.2-0.2,1.6-0.7c0.4-0.5,0.7-1.2,0.7-2.1V27.8z"/>
	<path class="copy_purpleFill" d="M346.1,20h4.1l0.4,1.9c0.4-0.7,1-1.2,1.8-1.7c0.8-0.5,1.6-0.7,2.6-0.7c3.1,0,4.6,2,4.6,5.9v8.5h-4.6v-7.3
		c0-1.1-0.2-1.9-0.5-2.3c-0.3-0.4-0.8-0.7-1.5-0.7c-0.3,0-0.6,0.1-0.9,0.2s-0.5,0.3-0.7,0.6c-0.2,0.3-0.4,0.7-0.5,1.1
		s-0.2,1.1-0.2,1.8v6.6h-4.6V20z"/>
	<path class="copy_purpleFill" d="M361.5,14.4h4.6v3.7h-4.6V14.4z M361.5,20h4.6v13.9h-4.6V20z"/>
	<path class="copy_purpleFill" d="M372.4,28c0.2,1.1,0.5,1.8,1,2.3c0.5,0.4,1.1,0.6,1.8,0.6c0.6,0,1.1-0.1,1.5-0.4c0.4-0.3,0.8-0.6,1.1-1.2
		l3.4,1.9c-0.7,1.1-1.6,1.8-2.7,2.3c-1.1,0.5-2.3,0.7-3.6,0.7c-1.2,0-2.2-0.2-3.1-0.6c-0.9-0.4-1.7-0.9-2.3-1.5
		c-0.6-0.7-1.1-1.4-1.4-2.3c-0.3-0.9-0.5-1.9-0.5-2.9c0-1.1,0.2-2,0.5-3c0.3-0.9,0.8-1.7,1.4-2.4c0.6-0.7,1.4-1.2,2.2-1.5
		c0.9-0.4,1.9-0.6,3-0.6c1.1,0,2,0.2,2.9,0.5c0.8,0.4,1.5,0.9,2.1,1.5c0.6,0.7,1,1.5,1.3,2.4c0.3,0.9,0.5,2,0.5,3.2
		c0,0.3,0,0.4,0,0.6c0,0.1,0,0.2,0,0.2H372.4z M374.7,22.9c-1.3,0-2.1,0.8-2.3,2.5h4.5c0-0.7-0.2-1.3-0.5-1.8
		C376,23.2,375.4,22.9,374.7,22.9z"/>
	<path class="copy_purpleFill" d="M384,29.3c0.2,0.2,0.5,0.4,0.8,0.6c0.3,0.2,0.6,0.4,1,0.6c0.4,0.2,0.8,0.3,1.2,0.4c0.4,0.1,0.8,0.2,1.2,0.2
		c0.3,0,0.7-0.1,1-0.2c0.3-0.1,0.5-0.3,0.5-0.7c0-0.3-0.2-0.6-0.5-0.8c-0.4-0.2-0.8-0.4-1.4-0.5c-0.5-0.2-1.1-0.3-1.8-0.5
		s-1.2-0.4-1.8-0.8c-0.5-0.3-1-0.8-1.4-1.3c-0.4-0.5-0.5-1.2-0.5-2.1c0-0.8,0.2-1.5,0.5-2.1c0.3-0.6,0.8-1.1,1.3-1.4
		c0.5-0.4,1.2-0.7,1.9-0.8c0.7-0.2,1.5-0.3,2.2-0.3c1.3,0,2.4,0.1,3.3,0.4c0.9,0.3,1.8,0.7,2.6,1.2l-2.1,3.1
		c-0.2-0.2-0.4-0.3-0.7-0.5c-0.3-0.2-0.6-0.3-1-0.5c-0.4-0.1-0.7-0.2-1.1-0.3s-0.8-0.1-1.1-0.1c-0.3,0-0.6,0.1-0.8,0.2
		c-0.2,0.1-0.3,0.3-0.3,0.6c0,0.3,0.2,0.6,0.5,0.7c0.4,0.2,0.8,0.4,1.4,0.5c0.5,0.2,1.1,0.4,1.8,0.6s1.2,0.5,1.8,0.8s1,0.8,1.4,1.3
		c0.4,0.5,0.5,1.2,0.5,2s-0.2,1.5-0.5,2.1c-0.4,0.6-0.8,1.1-1.4,1.5c-0.6,0.4-1.2,0.7-1.9,0.9c-0.7,0.2-1.4,0.3-2.1,0.3
		c-2.6,0-4.8-0.7-6.5-2L384,29.3z"/>
	<path class="copy_purpleFill" d="M410,32c-0.4,0.7-0.8,1.3-1.5,1.6s-1.4,0.6-2.3,0.6c-0.8,0-1.6-0.2-2.3-0.5c-0.7-0.3-1.3-0.8-1.8-1.4
		s-0.9-1.4-1.1-2.3c-0.3-0.9-0.4-2-0.4-3.2c0-1.4,0.2-2.5,0.5-3.4c0.3-0.9,0.8-1.7,1.3-2.2s1.1-1,1.8-1.2c0.7-0.2,1.3-0.4,2-0.4
		c0.9,0,1.6,0.2,2.2,0.5c0.6,0.3,1,0.8,1.3,1.2v-6.8h4.6v19.3H410V32z M409.7,26.7c0-0.4,0-0.9-0.1-1.3c-0.1-0.4-0.2-0.8-0.4-1.1
		c-0.2-0.3-0.4-0.6-0.6-0.8c-0.3-0.2-0.6-0.3-1-0.3c-0.7,0-1.2,0.3-1.6,0.9c-0.4,0.6-0.5,1.4-0.5,2.5c0,1.2,0.2,2.1,0.6,2.8
		c0.4,0.7,0.9,1,1.6,1c0.4,0,0.7-0.1,0.9-0.3c0.3-0.2,0.5-0.5,0.6-0.8s0.3-0.7,0.4-1.2c0.1-0.4,0.1-0.9,0.1-1.4V26.7z"/>
	<path class="copy_purpleFill" d="M422.9,34.4c-1.2,0-2.2-0.2-3.1-0.6c-0.9-0.4-1.6-0.9-2.2-1.5c-0.6-0.7-1-1.4-1.3-2.3
		c-0.3-0.9-0.4-1.9-0.4-2.9s0.2-2,0.5-2.9c0.3-0.9,0.8-1.7,1.4-2.4c0.6-0.7,1.3-1.2,2.2-1.6c0.9-0.4,1.9-0.6,3-0.6
		c1.1,0,2.2,0.2,3.1,0.6c0.9,0.4,1.6,0.9,2.2,1.5s1,1.4,1.3,2.4c0.3,0.9,0.5,1.9,0.5,3s-0.2,2-0.5,2.9c-0.3,0.9-0.7,1.7-1.3,2.3
		c-0.6,0.7-1.3,1.2-2.2,1.5C425,34.2,424,34.4,422.9,34.4z M423,30.8c0.8,0,1.3-0.3,1.7-1s0.5-1.6,0.5-2.8s-0.2-2.1-0.6-2.8
		s-0.9-1.1-1.7-1.1s-1.3,0.4-1.7,1.1s-0.5,1.7-0.5,2.8s0.2,2.1,0.6,2.8S422.1,30.8,423,30.8z"/>
	<path class="copy_purpleFill" d="M431.4,20h4.1l0.4,1.9c0.4-0.7,1-1.2,1.8-1.7c0.8-0.5,1.6-0.7,2.6-0.7c3.1,0,4.6,2,4.6,5.9v8.5h-4.6v-7.3
		c0-1.1-0.2-1.9-0.5-2.3c-0.3-0.4-0.8-0.7-1.5-0.7c-0.3,0-0.6,0.1-0.9,0.2s-0.5,0.3-0.7,0.6s-0.4,0.7-0.5,1.1
		c-0.1,0.5-0.2,1.1-0.2,1.8v6.6h-4.6V20z"/>
	<path class="copy_purpleFill" d="M446.4,23.1c0.5-0.2,0.9-0.4,1.2-0.7c0.3-0.2,0.5-0.5,0.7-0.7c0.2-0.3,0.3-0.5,0.3-0.8s0.1-0.6,0.1-1v-0.5
		h-2.3v-4.8h5.1v4.8c0,0.9-0.1,1.6-0.2,2.2c-0.2,0.6-0.4,1.1-0.8,1.6c-0.3,0.5-0.8,0.8-1.3,1.2c-0.5,0.3-1.1,0.6-1.8,0.9L446.4,23.1
		z"/>
	<path class="copy_purpleFill" d="M454.9,22.9h-2.2v-3h0.4c0.7,0,1.3-0.1,1.7-0.4c0.4-0.2,0.7-0.6,1-0.9c0.2-0.4,0.4-0.8,0.5-1.3s0.2-1,0.4-1.5
		h2.9V20h2.9v3h-2.9v6.5c0,0.4,0.1,0.8,0.2,1c0.2,0.3,0.5,0.4,1.1,0.4c0.1,0,0.3,0,0.5,0c0.2,0,0.5-0.1,0.7-0.2l0.3,3.2
		c-0.5,0.2-1,0.3-1.5,0.4c-0.5,0.1-1,0.1-1.6,0.1c-0.9,0-1.6-0.1-2.1-0.3c-0.6-0.2-1-0.5-1.3-0.9c-0.3-0.4-0.6-0.8-0.7-1.4
		c-0.1-0.5-0.2-1.1-0.2-1.8V22.9z"/>
	<path class="copy_purpleFill" d="M481.8,31c-0.7,1.2-1.6,2-2.6,2.6c-1.1,0.5-2.3,0.8-3.7,0.8c-1.2,0-2.3-0.2-3.2-0.6s-1.6-0.9-2.2-1.6
		s-1-1.4-1.3-2.3c-0.3-0.9-0.4-1.9-0.4-2.9c0-1.1,0.2-2.2,0.5-3.1c0.3-0.9,0.8-1.7,1.4-2.4c0.6-0.6,1.3-1.1,2.2-1.5
		c0.9-0.3,1.9-0.5,3-0.5c1.4,0,2.7,0.3,3.7,0.9c1,0.6,1.9,1.5,2.5,2.6l-3.8,1.8c-0.3-0.7-0.6-1.1-1-1.4c-0.4-0.3-0.8-0.4-1.3-0.4
		c-0.9,0-1.5,0.3-1.8,1s-0.6,1.6-0.6,2.7c0,0.4,0,0.9,0.1,1.4c0.1,0.5,0.2,0.9,0.4,1.3c0.2,0.4,0.5,0.7,0.8,1
		c0.3,0.3,0.8,0.4,1.4,0.4c0.6,0,1.1-0.2,1.5-0.5c0.4-0.3,0.7-0.8,1-1.4L481.8,31z"/>
	<path class="copy_purpleFill" d="M482.9,14.6h4.6v7.2c0.3-0.6,0.9-1.1,1.6-1.6c0.7-0.4,1.6-0.7,2.7-0.7c1.6,0,2.8,0.5,3.5,1.5
		c0.7,1,1.1,2.5,1.1,4.4v8.4h-4.6v-7.6c0-0.9-0.2-1.6-0.5-2c-0.3-0.5-0.8-0.7-1.5-0.7c-0.7,0-1.2,0.3-1.6,0.8s-0.6,1.4-0.6,2.7v6.8
		h-4.6V14.6z"/>
	<path class="copy_purpleFill" d="M502.5,28c0.2,1.1,0.5,1.8,1,2.3c0.5,0.4,1.1,0.6,1.8,0.6c0.6,0,1.1-0.1,1.5-0.4c0.4-0.3,0.8-0.6,1.1-1.2
		l3.4,1.9c-0.7,1.1-1.6,1.8-2.7,2.3c-1.1,0.5-2.3,0.7-3.6,0.7c-1.2,0-2.2-0.2-3.1-0.6c-0.9-0.4-1.7-0.9-2.3-1.5
		c-0.6-0.7-1.1-1.4-1.4-2.3c-0.3-0.9-0.5-1.9-0.5-2.9c0-1.1,0.2-2,0.5-3c0.3-0.9,0.8-1.7,1.4-2.4c0.6-0.7,1.4-1.2,2.2-1.5
		c0.9-0.4,1.9-0.6,3-0.6c1.1,0,2,0.2,2.9,0.5c0.8,0.4,1.5,0.9,2.1,1.5c0.6,0.7,1,1.5,1.3,2.4c0.3,0.9,0.5,2,0.5,3.2
		c0,0.3,0,0.4,0,0.6c0,0.1,0,0.2,0,0.2H502.5z M504.8,22.9c-1.3,0-2.1,0.8-2.3,2.5h4.5c0-0.7-0.2-1.3-0.5-1.8
		C506.1,23.2,505.5,22.9,504.8,22.9z"/>
	<path class="copy_purpleFill" d="M525.9,31c-0.7,1.2-1.6,2-2.6,2.6c-1.1,0.5-2.3,0.8-3.7,0.8c-1.2,0-2.3-0.2-3.2-0.6s-1.6-0.9-2.2-1.6
		s-1-1.4-1.3-2.3c-0.3-0.9-0.4-1.9-0.4-2.9c0-1.1,0.2-2.2,0.5-3.1c0.3-0.9,0.8-1.7,1.4-2.4c0.6-0.6,1.3-1.1,2.2-1.5
		c0.9-0.3,1.9-0.5,3-0.5c1.4,0,2.7,0.3,3.7,0.9c1,0.6,1.9,1.5,2.5,2.6l-3.8,1.8c-0.3-0.7-0.6-1.1-1-1.4c-0.4-0.3-0.8-0.4-1.3-0.4
		c-0.9,0-1.5,0.3-1.8,1s-0.6,1.6-0.6,2.7c0,0.4,0,0.9,0.1,1.4c0.1,0.5,0.2,0.9,0.4,1.3c0.2,0.4,0.5,0.7,0.8,1
		c0.3,0.3,0.8,0.4,1.4,0.4c0.6,0,1.1-0.2,1.5-0.5c0.4-0.3,0.7-0.8,1-1.4L525.9,31z"/>
	<path class="copy_purpleFill" d="M527,14.6h4.6v10.5l4.6-5.1h5.6l-5.5,5.3l5.4,8.7h-5.2l-3.1-5.9l-1.8,1.8v4.1H527V14.6z"/>
</g>
<g>
	<path class="copy_purpleFill" d="M189.7,52.9h-2.3v-3h2.1c-0.1-0.5-0.2-0.9-0.3-1.3c-0.1-0.4-0.1-0.8-0.1-1.1c0-0.5,0.1-1,0.2-1.4
		c0.1-0.4,0.4-0.8,0.7-1.1c0.3-0.3,0.8-0.6,1.4-0.8c0.6-0.2,1.3-0.3,2.3-0.3c0.8,0,1.5,0,2,0.1c0.6,0.1,1.1,0.2,1.6,0.4l-0.7,3.4
		c-0.2-0.1-0.5-0.2-0.9-0.3c-0.4-0.1-0.7-0.1-1-0.1c-0.3,0-0.6,0.1-0.8,0.2c-0.2,0.1-0.3,0.3-0.3,0.7c0,0.3,0,0.6,0.1,0.9
		c0.1,0.3,0.2,0.5,0.3,0.7h2.7v3h-2.6v11h-4.6V52.9z"/>
	<path class="copy_purpleFill" d="M204,64.4c-1.2,0-2.2-0.2-3.1-0.6c-0.9-0.4-1.6-0.9-2.2-1.5c-0.6-0.7-1-1.4-1.3-2.3C197.1,59,197,58,197,57
		c0-1.1,0.2-2,0.5-2.9c0.3-0.9,0.8-1.7,1.4-2.4c0.6-0.7,1.3-1.2,2.2-1.6c0.9-0.4,1.9-0.6,3-0.6c1.1,0,2.2,0.2,3.1,0.6
		c0.9,0.4,1.6,0.9,2.2,1.5c0.6,0.7,1,1.4,1.3,2.4c0.3,0.9,0.5,1.9,0.5,3c0,1.1-0.2,2-0.5,2.9c-0.3,0.9-0.7,1.7-1.3,2.3
		c-0.6,0.7-1.3,1.2-2.2,1.5C206.2,64.2,205.2,64.4,204,64.4z M204.1,60.9c0.8,0,1.3-0.3,1.7-1c0.3-0.7,0.5-1.6,0.5-2.8
		c0-1.2-0.2-2.1-0.6-2.8s-0.9-1.1-1.7-1.1c-0.8,0-1.3,0.4-1.7,1.1c-0.4,0.7-0.5,1.7-0.5,2.8c0,1.2,0.2,2.1,0.6,2.8
		C202.7,60.5,203.3,60.9,204.1,60.9z"/>
	<path class="copy_purpleFill" d="M212.6,50h4.1l0.3,2.6c0.4-0.8,1-1.5,1.8-2.1c0.8-0.6,1.8-0.9,3.1-0.9v4.7c-0.3-0.1-0.8-0.1-1.5-0.1
		c-0.4,0-0.7,0-1.1,0.1c-0.4,0.1-0.7,0.2-1,0.5c-0.3,0.2-0.6,0.6-0.8,1.1c-0.2,0.5-0.3,1.2-0.3,2v6.2h-4.6V50z"/>
	<path class="copy_purpleFill" d="M236.9,63.9c-0.1-0.2-0.2-0.5-0.3-0.8c-0.1-0.3-0.1-0.6-0.2-0.9c-0.3,0.5-0.7,1-1.3,1.5
		c-0.6,0.4-1.4,0.6-2.5,0.6c-0.7,0-1.4-0.1-2-0.3c-0.6-0.2-1-0.5-1.4-0.9c-0.4-0.4-0.7-0.9-0.9-1.4c-0.2-0.5-0.3-1.1-0.3-1.8
		c0-0.7,0.1-1.3,0.4-1.8c0.2-0.5,0.6-1,1.1-1.3s1-0.7,1.7-0.9c0.7-0.2,1.4-0.4,2.2-0.5l2.8-0.4v-0.3c0-0.6-0.2-1-0.5-1.2
		c-0.3-0.2-0.7-0.3-1.3-0.3c-0.9,0-1.6,0.2-2.2,0.5c-0.6,0.3-1.2,0.7-1.6,1.1l-2.2-3c0.3-0.2,0.7-0.5,1.1-0.7s0.9-0.5,1.5-0.7
		c0.5-0.2,1.2-0.3,1.8-0.5c0.7-0.1,1.4-0.2,2.2-0.2c2.1,0,3.5,0.4,4.4,1.3c0.9,0.9,1.3,2.2,1.3,4v5c0,0.6,0,1.1,0,1.5
		c0,0.4,0,0.7,0.1,1c0,0.3,0.1,0.6,0.2,0.8s0.2,0.5,0.3,0.8H236.9z M236.1,57.8l-1.9,0.4c-0.6,0.1-1.1,0.3-1.4,0.6
		c-0.3,0.2-0.4,0.6-0.4,1c0,0.4,0.1,0.7,0.4,1c0.2,0.3,0.6,0.4,1.1,0.4c0.6,0,1.2-0.2,1.6-0.7c0.4-0.5,0.7-1.2,0.7-2.1V57.8z"/>
	<path class="copy_purpleFill" d="M255.4,61c-0.7,1.2-1.6,2-2.6,2.6c-1.1,0.5-2.3,0.8-3.7,0.8c-1.2,0-2.3-0.2-3.2-0.6c-0.9-0.4-1.6-0.9-2.2-1.6
		c-0.6-0.7-1-1.4-1.3-2.3c-0.3-0.9-0.4-1.9-0.4-2.9c0-1.1,0.2-2.2,0.5-3.1s0.8-1.7,1.4-2.4c0.6-0.6,1.3-1.1,2.2-1.5
		c0.9-0.3,1.9-0.5,3-0.5c1.4,0,2.7,0.3,3.7,0.9c1,0.6,1.9,1.5,2.5,2.6l-3.8,1.8c-0.3-0.7-0.6-1.1-1-1.4c-0.4-0.3-0.8-0.4-1.3-0.4
		c-0.9,0-1.5,0.3-1.8,1c-0.4,0.7-0.6,1.6-0.6,2.7c0,0.4,0,0.9,0.1,1.4c0.1,0.5,0.2,0.9,0.4,1.3c0.2,0.4,0.5,0.7,0.8,1
		c0.3,0.3,0.8,0.4,1.4,0.4c0.6,0,1.1-0.2,1.5-0.5c0.4-0.3,0.7-0.8,1-1.4L255.4,61z"/>
	<path class="copy_purpleFill" d="M268.9,61c-0.7,1.2-1.6,2-2.6,2.6c-1.1,0.5-2.3,0.8-3.7,0.8c-1.2,0-2.3-0.2-3.2-0.6c-0.9-0.4-1.6-0.9-2.2-1.6
		c-0.6-0.7-1-1.4-1.3-2.3c-0.3-0.9-0.4-1.9-0.4-2.9c0-1.1,0.2-2.2,0.5-3.1s0.8-1.7,1.4-2.4c0.6-0.6,1.3-1.1,2.2-1.5
		c0.9-0.3,1.9-0.5,3-0.5c1.4,0,2.7,0.3,3.7,0.9c1,0.6,1.9,1.5,2.5,2.6l-3.8,1.8c-0.3-0.7-0.6-1.1-1-1.4c-0.4-0.3-0.8-0.4-1.3-0.4
		c-0.9,0-1.5,0.3-1.8,1c-0.4,0.7-0.6,1.6-0.6,2.7c0,0.4,0,0.9,0.1,1.4c0.1,0.5,0.2,0.9,0.4,1.3c0.2,0.4,0.5,0.7,0.8,1
		c0.3,0.3,0.8,0.4,1.4,0.4c0.6,0,1.1-0.2,1.5-0.5c0.4-0.3,0.7-0.8,1-1.4L268.9,61z"/>
	<path class="copy_purpleFill" d="M269.9,50h4.6v7.7c0,0.9,0.1,1.5,0.4,2c0.3,0.4,0.7,0.7,1.4,0.7c0.7,0,1.3-0.3,1.7-0.8s0.6-1.5,0.6-2.7V50h4.6
		v13.9h-4.3v-2.1c-0.4,0.7-0.9,1.3-1.5,1.7c-0.6,0.4-1.5,0.6-2.7,0.6c-1.7,0-2.9-0.5-3.7-1.4c-0.8-0.9-1.2-2.3-1.2-4.1V50z"/>
	<path class="copy_purpleFill" d="M285.4,50h4.1l0.3,2.6c0.4-0.8,1-1.5,1.8-2.1c0.8-0.6,1.8-0.9,3.1-0.9v4.7c-0.3-0.1-0.8-0.1-1.5-0.1
		c-0.4,0-0.7,0-1.1,0.1c-0.4,0.1-0.7,0.2-1,0.5c-0.3,0.2-0.6,0.6-0.8,1.1c-0.2,0.5-0.3,1.2-0.3,2v6.2h-4.6V50z"/>
	<path class="copy_purpleFill" d="M303.7,63.9c-0.1-0.2-0.2-0.5-0.3-0.8c-0.1-0.3-0.1-0.6-0.2-0.9c-0.3,0.5-0.7,1-1.3,1.5
		c-0.6,0.4-1.4,0.6-2.5,0.6c-0.7,0-1.4-0.1-2-0.3c-0.6-0.2-1-0.5-1.4-0.9c-0.4-0.4-0.7-0.9-0.9-1.4c-0.2-0.5-0.3-1.1-0.3-1.8
		c0-0.7,0.1-1.3,0.4-1.8c0.2-0.5,0.6-1,1.1-1.3s1-0.7,1.7-0.9c0.7-0.2,1.4-0.4,2.2-0.5l2.8-0.4v-0.3c0-0.6-0.2-1-0.5-1.2
		c-0.3-0.2-0.7-0.3-1.3-0.3c-0.9,0-1.6,0.2-2.2,0.5c-0.6,0.3-1.2,0.7-1.6,1.1l-2.2-3c0.3-0.2,0.7-0.5,1.1-0.7s0.9-0.5,1.5-0.7
		c0.5-0.2,1.2-0.3,1.8-0.5c0.7-0.1,1.4-0.2,2.2-0.2c2.1,0,3.5,0.4,4.4,1.3c0.9,0.9,1.3,2.2,1.3,4v5c0,0.6,0,1.1,0,1.5
		c0,0.4,0,0.7,0.1,1c0,0.3,0.1,0.6,0.2,0.8s0.2,0.5,0.3,0.8H303.7z M303,57.8l-1.9,0.4c-0.6,0.1-1.1,0.3-1.4,0.6
		c-0.3,0.2-0.4,0.6-0.4,1c0,0.4,0.1,0.7,0.4,1c0.2,0.3,0.6,0.4,1.1,0.4c0.6,0,1.2-0.2,1.6-0.7c0.4-0.5,0.7-1.2,0.7-2.1V57.8z"/>
	<path class="copy_purpleFill" d="M322.3,61c-0.7,1.2-1.6,2-2.6,2.6c-1.1,0.5-2.3,0.8-3.7,0.8c-1.2,0-2.3-0.2-3.2-0.6c-0.9-0.4-1.6-0.9-2.2-1.6
		c-0.6-0.7-1-1.4-1.3-2.3c-0.3-0.9-0.4-1.9-0.4-2.9c0-1.1,0.2-2.2,0.5-3.1s0.8-1.7,1.4-2.4c0.6-0.6,1.3-1.1,2.2-1.5
		c0.9-0.3,1.9-0.5,3-0.5c1.4,0,2.7,0.3,3.7,0.9c1,0.6,1.9,1.5,2.5,2.6l-3.8,1.8c-0.3-0.7-0.6-1.1-1-1.4c-0.4-0.3-0.8-0.4-1.3-0.4
		c-0.9,0-1.5,0.3-1.8,1c-0.4,0.7-0.6,1.6-0.6,2.7c0,0.4,0,0.9,0.1,1.4c0.1,0.5,0.2,0.9,0.4,1.3c0.2,0.4,0.5,0.7,0.8,1
		c0.3,0.3,0.8,0.4,1.4,0.4c0.6,0,1.1-0.2,1.5-0.5c0.4-0.3,0.7-0.8,1-1.4L322.3,61z"/>
	<path class="copy_purpleFill" d="M323.6,65.3c0.3,0.1,0.7,0.2,1,0.3s0.7,0.1,1,0.1c0.4,0,0.7-0.1,1-0.3c0.2-0.2,0.4-0.5,0.5-1l-5-14.4h5
		l2.4,9.4l2.4-9.4h5l-4.8,13.9c-0.3,0.8-0.5,1.5-0.8,2.1c-0.3,0.6-0.6,1.2-1.1,1.7c-0.4,0.5-1,0.8-1.7,1.1c-0.7,0.3-1.5,0.4-2.6,0.4
		c-0.2,0-0.4,0-0.6,0s-0.5,0-0.8,0c-0.3,0-0.5,0-0.8-0.1c-0.2,0-0.4-0.1-0.6-0.1L323.6,65.3z"/>
	<path class="copy_purpleFill" d="M336.3,58.9h5.1v5.1h-5.1V58.9z"/>
	<path class="copy_purpleFill" d="M367.1,59.6c-1,1.7-2.2,2.9-3.5,3.6c-1.4,0.8-3,1.1-5,1.1c-1.6,0-3.1-0.3-4.3-0.8c-1.2-0.5-2.3-1.2-3.1-2.1
		c-0.8-0.9-1.5-2-1.9-3.2c-0.4-1.2-0.6-2.6-0.6-4.1c0-1.5,0.2-2.9,0.7-4.1s1.1-2.3,1.9-3.2c0.8-0.9,1.9-1.6,3.1-2.1
		c1.2-0.5,2.6-0.7,4.2-0.7c1.8,0,3.4,0.3,4.8,1c1.4,0.6,2.7,1.8,3.8,3.4l-4.7,2.4c-0.4-0.8-0.9-1.4-1.5-1.8
		c-0.7-0.4-1.4-0.6-2.3-0.6c-0.8,0-1.5,0.2-2.1,0.5c-0.6,0.3-1,0.7-1.4,1.2c-0.4,0.5-0.7,1.1-0.8,1.8s-0.3,1.5-0.3,2.3
		c0,0.8,0.1,1.6,0.3,2.3c0.2,0.7,0.5,1.3,0.9,1.8c0.4,0.5,0.9,0.9,1.5,1.3s1.2,0.5,2,0.5c0.8,0,1.6-0.2,2.2-0.7
		c0.7-0.4,1.2-1.2,1.6-2.2L367.1,59.6z"/>
	<path class="copy_purpleFill" d="M368.1,50h4.1l0.3,2.6c0.4-0.8,1-1.5,1.8-2.1c0.8-0.6,1.8-0.9,3.1-0.9v4.7c-0.3-0.1-0.8-0.1-1.5-0.1
		c-0.4,0-0.7,0-1.1,0.1c-0.4,0.1-0.7,0.2-1,0.5s-0.6,0.6-0.8,1.1c-0.2,0.5-0.3,1.2-0.3,2v6.2h-4.6V50z"/>
	<path class="copy_purpleFill" d="M386.5,63.9c-0.1-0.2-0.2-0.5-0.3-0.8c-0.1-0.3-0.1-0.6-0.2-0.9c-0.3,0.5-0.7,1-1.3,1.5
		c-0.6,0.4-1.4,0.6-2.5,0.6c-0.7,0-1.4-0.1-2-0.3c-0.6-0.2-1-0.5-1.4-0.9c-0.4-0.4-0.7-0.9-0.9-1.4c-0.2-0.5-0.3-1.1-0.3-1.8
		c0-0.7,0.1-1.3,0.4-1.8c0.2-0.5,0.6-1,1.1-1.3s1-0.7,1.7-0.9c0.7-0.2,1.4-0.4,2.2-0.5l2.8-0.4v-0.3c0-0.6-0.2-1-0.5-1.2
		c-0.3-0.2-0.7-0.3-1.3-0.3c-0.9,0-1.6,0.2-2.2,0.5c-0.6,0.3-1.2,0.7-1.6,1.1l-2.2-3c0.3-0.2,0.7-0.5,1.1-0.7s0.9-0.5,1.5-0.7
		s1.2-0.3,1.8-0.5c0.7-0.1,1.4-0.2,2.2-0.2c2.1,0,3.5,0.4,4.4,1.3c0.9,0.9,1.3,2.2,1.3,4v5c0,0.6,0,1.1,0,1.5c0,0.4,0,0.7,0.1,1
		c0,0.3,0.1,0.6,0.2,0.8s0.2,0.5,0.3,0.8H386.5z M385.8,57.8l-1.9,0.4c-0.6,0.1-1.1,0.3-1.4,0.6c-0.3,0.2-0.4,0.6-0.4,1
		c0,0.4,0.1,0.7,0.4,1c0.2,0.3,0.6,0.4,1.1,0.4c0.6,0,1.2-0.2,1.6-0.7s0.7-1.2,0.7-2.1V57.8z"/>
	<path class="copy_purpleFill" d="M392.1,60.7l7.2-7.3h-7V50h12.4v3.3l-7.4,7.3h7.8v3.4h-13.1V60.7z"/>
	<path class="copy_purpleFill" d="M407.2,65.3c0.3,0.1,0.7,0.2,1,0.3c0.4,0.1,0.7,0.1,1,0.1c0.4,0,0.7-0.1,1-0.3s0.4-0.5,0.5-1l-5-14.4h5
		l2.4,9.4l2.4-9.4h5l-4.8,13.9c-0.3,0.8-0.5,1.5-0.8,2.1c-0.3,0.6-0.6,1.2-1.1,1.7c-0.4,0.5-1,0.8-1.7,1.1c-0.7,0.3-1.5,0.4-2.6,0.4
		c-0.2,0-0.4,0-0.6,0c-0.2,0-0.5,0-0.8,0s-0.5,0-0.8-0.1c-0.2,0-0.4-0.1-0.6-0.1L407.2,65.3z"/>
	<path class="copy_purpleFill" d="M419.9,67.6c0.5-0.2,0.9-0.4,1.2-0.7c0.3-0.2,0.5-0.5,0.7-0.7c0.2-0.3,0.3-0.5,0.3-0.8s0.1-0.6,0.1-1v-0.5
		h-2.3v-5.1h5.1v5c0,0.9-0.1,1.6-0.2,2.2c-0.2,0.6-0.4,1.1-0.8,1.6c-0.3,0.5-0.8,0.8-1.3,1.2c-0.5,0.3-1.1,0.6-1.8,0.9L419.9,67.6z"
		/>
	<path class="copy_purpleFill" d="M432.8,50h4.1l0.3,2.6c0.4-0.8,1-1.5,1.8-2.1c0.8-0.6,1.8-0.9,3.1-0.9v4.7c-0.3-0.1-0.8-0.1-1.5-0.1
		c-0.4,0-0.7,0-1.1,0.1c-0.4,0.1-0.7,0.2-1,0.5s-0.6,0.6-0.8,1.1c-0.2,0.5-0.3,1.2-0.3,2v6.2h-4.6V50z"/>
	<path class="copy_purpleFill" d="M443.2,44.4h4.6v3.7h-4.6V44.4z M443.2,50h4.6v13.9h-4.6V50z"/>
	<path class="copy_purpleFill" d="M451.7,63.9c0.5,0.5,1.2,0.9,2,1.3c0.8,0.3,1.6,0.5,2.4,0.5c0.9,0,1.5-0.2,1.8-0.6c0.3-0.4,0.5-0.9,0.5-1.7V62
		c-0.3,0.5-0.8,0.9-1.4,1.2s-1.4,0.5-2.3,0.5c-0.7,0-1.3-0.1-2-0.3c-0.6-0.2-1.2-0.6-1.7-1.1c-0.5-0.5-0.9-1.2-1.2-2.1
		c-0.3-0.9-0.5-1.9-0.5-3.2c0-1.2,0.1-2.2,0.4-3.1c0.3-0.9,0.7-1.7,1.1-2.3c0.5-0.6,1.1-1.1,1.8-1.4s1.4-0.5,2.3-0.5
		c0.9,0,1.6,0.2,2.2,0.5c0.6,0.4,1.2,0.9,1.6,1.7l0.6-1.9h3.6v13.2c0,0.9-0.1,1.6-0.4,2.4c-0.2,0.7-0.6,1.3-1.2,1.9
		s-1.3,0.9-2.1,1.2c-0.9,0.3-1.9,0.4-3.1,0.4c-0.8,0-1.6-0.1-2.3-0.2c-0.7-0.1-1.3-0.3-1.9-0.5c-0.6-0.2-1.1-0.4-1.6-0.6
		c-0.5-0.2-0.9-0.5-1.2-0.7L451.7,63.9z M458.4,56.9c0-0.4,0-0.9-0.1-1.3c-0.1-0.4-0.2-0.8-0.3-1.1s-0.4-0.6-0.6-0.8s-0.6-0.3-1-0.3
		c-0.3,0-0.6,0.1-0.8,0.2c-0.3,0.1-0.5,0.3-0.7,0.6c-0.2,0.3-0.3,0.6-0.5,1.1c-0.1,0.4-0.2,1-0.2,1.6c0,1.2,0.2,2,0.6,2.6
		c0.4,0.5,0.9,0.8,1.6,0.8c0.7,0,1.2-0.3,1.5-0.8c0.3-0.5,0.5-1.3,0.5-2.4V56.9z"/>
	<path class="copy_purpleFill" d="M465.1,44.6h4.6v7.2c0.3-0.6,0.9-1.1,1.6-1.6c0.7-0.4,1.6-0.7,2.7-0.7c1.6,0,2.8,0.5,3.5,1.5
		c0.7,1,1.1,2.5,1.1,4.4v8.4H474v-7.6c0-0.9-0.2-1.6-0.5-2c-0.3-0.5-0.8-0.7-1.5-0.7c-0.7,0-1.2,0.3-1.6,0.8s-0.6,1.4-0.6,2.7v6.8
		h-4.6V44.6z"/>
	<path class="copy_purpleFill" d="M481.7,52.9h-2.2v-3h0.4c0.7,0,1.3-0.1,1.7-0.4c0.4-0.2,0.7-0.6,1-0.9c0.2-0.4,0.4-0.8,0.5-1.3s0.2-1,0.4-1.5
		h2.9V50h2.9v3h-2.9v6.5c0,0.4,0.1,0.8,0.2,1c0.2,0.3,0.5,0.4,1.1,0.4c0.1,0,0.3,0,0.5,0c0.2,0,0.5-0.1,0.7-0.2l0.3,3.2
		c-0.5,0.2-1,0.3-1.5,0.4c-0.5,0.1-1,0.1-1.6,0.1c-0.9,0-1.6-0.1-2.1-0.3c-0.6-0.2-1-0.5-1.3-0.9c-0.3-0.4-0.6-0.8-0.7-1.4
		c-0.1-0.5-0.2-1.1-0.2-1.8V52.9z"/>
	<path class="copy_purpleFill" d="M493.9,57.1c0-0.2,0-0.3,0-0.5c0-0.1,0-0.3,0-0.3c0-0.3,0-0.7,0.1-0.9c0.1-0.3,0.2-0.5,0.3-0.8
		c0.1-0.2,0.3-0.4,0.4-0.6c0.2-0.2,0.3-0.3,0.4-0.4c0.4-0.4,0.8-0.7,1.2-1s0.8-0.6,1.1-0.9c0.3-0.3,0.5-0.6,0.7-0.9s0.3-0.7,0.3-1.1
		c0-0.6-0.2-1.1-0.6-1.4c-0.4-0.3-0.9-0.5-1.5-0.5c-0.7,0-1.3,0.2-1.8,0.6c-0.4,0.4-0.8,1-1.1,1.7l-4-1.6c0.5-1.4,1.4-2.4,2.7-3.1
		c1.2-0.7,2.8-1.1,4.6-1.1c2.3,0,4.1,0.5,5.3,1.4c1.2,1,1.8,2.2,1.8,3.8c0,0.3,0,0.6-0.1,0.9c-0.1,0.3-0.2,0.7-0.4,1
		c-0.2,0.3-0.4,0.7-0.7,1.1s-0.7,0.7-1.2,1.1c-0.3,0.2-0.6,0.4-0.9,0.6c-0.3,0.2-0.6,0.4-0.9,0.7c-0.3,0.2-0.6,0.5-0.8,0.8
		c-0.2,0.3-0.4,0.6-0.5,0.9c0,0.1-0.1,0.2-0.1,0.3c0,0.1,0,0.2,0,0.3H493.9z M493.5,58.9h5.1v5.1h-5.1V58.9z"/>
</g>
</svg>
