<?xml version="1.0" encoding="utf-8"?>
<!-- Generator: Adobe Illustrator 22.1.0, SVG Export Plug-In . SVG Version: 6.00 Build 0)  -->
<svg version="1.1" id="Layer_1" xmlns="https://www.w3.org/2000/svg" xmlns:xlink="https://www.w3.org/1999/xlink" x="0px" y="0px"
	 viewBox="0 0 728 90" style="enable-background:new 0 0 728 90;" xml:space="preserve">
<style type="text/css">
	.copy_purpleFill{fill:#662868;}
	.copy_grayFill{fill:#5D6770;}
</style>
<g>
	<path class="copy_purpleFill" d="M196.7,38.6c-1.3,0-2.6-0.2-3.8-0.6c-1.2-0.4-2.2-1-3.1-1.8c-0.9-0.8-1.6-1.9-2.1-3.1
		c-0.5-1.3-0.8-2.8-0.8-4.5c0-1.7,0.3-3.2,0.8-4.5c0.5-1.3,1.2-2.3,2.1-3.2c0.9-0.8,1.9-1.5,3.1-1.9c1.2-0.4,2.4-0.6,3.8-0.6
		c1.3,0,2.6,0.2,3.8,0.6c1.2,0.4,2.2,1,3.1,1.8c0.9,0.8,1.6,1.9,2.2,3.2s0.8,2.8,0.8,4.5c0,1.7-0.3,3.2-0.8,4.5
		c-0.5,1.3-1.3,2.3-2.2,3.1c-0.9,0.8-2,1.4-3.1,1.8C199.2,38.4,198,38.6,196.7,38.6z M196.7,34.3c0.6,0,1.2-0.1,1.8-0.3
		c0.6-0.2,1-0.6,1.5-1s0.7-1.1,1-1.8c0.2-0.7,0.3-1.6,0.3-2.6c0-1.9-0.4-3.3-1.3-4.3s-2-1.5-3.4-1.5c-1.4,0-2.5,0.5-3.3,1.5
		c-0.8,1-1.2,2.5-1.2,4.3c0,1,0.1,1.9,0.4,2.6c0.3,0.7,0.6,1.3,1,1.8c0.4,0.5,0.9,0.8,1.5,1C195.6,34.2,196.1,34.3,196.7,34.3z"/>
	<path class="copy_purpleFill" d="M208.1,24.2h4.1l0.4,1.9c0.4-0.7,1-1.2,1.8-1.7c0.8-0.5,1.6-0.7,2.6-0.7c3.1,0,4.6,2,4.6,5.9v8.5h-4.6v-7.3
		c0-1.1-0.2-1.9-0.5-2.3c-0.3-0.4-0.8-0.7-1.5-0.7c-0.3,0-0.6,0.1-0.9,0.2s-0.5,0.3-0.7,0.6c-0.2,0.3-0.4,0.7-0.5,1.1
		s-0.2,1.1-0.2,1.8v6.6h-4.6V24.2z"/>
	<path class="copy_purpleFill" d="M223.6,18.8h4.6v19.3h-4.6V18.8z"/>
	<path class="copy_purpleFill" d="M230.6,39.5c0.3,0.1,0.7,0.2,1,0.3c0.4,0.1,0.7,0.1,1,0.1c0.4,0,0.7-0.1,1-0.3c0.2-0.2,0.4-0.5,0.5-1l-5-14.4
		h5l2.4,9.4l2.4-9.4h5L239,38c-0.3,0.8-0.5,1.5-0.8,2.1c-0.3,0.6-0.6,1.2-1.1,1.7c-0.4,0.5-1,0.8-1.7,1.1c-0.7,0.3-1.5,0.4-2.6,0.4
		c-0.2,0-0.4,0-0.6,0s-0.5,0-0.8,0c-0.3,0-0.5,0-0.8-0.1c-0.2,0-0.4-0.1-0.6-0.1L230.6,39.5z"/>
	<path class="copy_purpleFill" d="M249.8,34.4l9.9-11.9h-9.1v-3.7h14.8v3.8l-9.9,11.9h10.1v3.7h-15.7V34.4z"/>
	<path class="copy_purpleFill" d="M271,32.2c0.2,1.1,0.5,1.8,1,2.3c0.5,0.4,1.1,0.6,1.8,0.6c0.6,0,1.1-0.1,1.5-0.4c0.4-0.3,0.8-0.6,1.1-1.2
		l3.4,1.9c-0.7,1.1-1.6,1.8-2.7,2.3c-1.1,0.5-2.3,0.7-3.6,0.7c-1.2,0-2.2-0.2-3.1-0.6c-0.9-0.4-1.7-0.9-2.3-1.5
		c-0.6-0.7-1.1-1.4-1.4-2.3c-0.3-0.9-0.5-1.9-0.5-2.9c0-1.1,0.2-2,0.5-3s0.8-1.7,1.4-2.4c0.6-0.7,1.4-1.2,2.2-1.5
		c0.9-0.4,1.9-0.6,3-0.6c1.1,0,2,0.2,2.9,0.5c0.8,0.4,1.5,0.9,2.1,1.5c0.6,0.7,1,1.5,1.3,2.4c0.3,0.9,0.5,2,0.5,3.2
		c0,0.3,0,0.4,0,0.6c0,0.1,0,0.2,0,0.2H271z M273.2,27.1c-1.3,0-2.1,0.8-2.3,2.5h4.5c0-0.7-0.2-1.3-0.5-1.8
		C274.6,27.4,274,27.1,273.2,27.1z"/>
	<path class="copy_purpleFill" d="M281.6,18.8h4.6v19.3h-4.6V18.8z"/>
	<path class="copy_purpleFill" d="M288.4,18.7h4.6v3.7h-4.6V18.7z M288.4,24.2h4.6v13.9h-4.6V24.2z"/>
	<path class="copy_purpleFill" d="M296.4,33.5c0.2,0.2,0.5,0.4,0.8,0.6c0.3,0.2,0.6,0.4,1,0.6c0.4,0.2,0.8,0.3,1.2,0.4c0.4,0.1,0.8,0.2,1.2,0.2
		c0.3,0,0.7-0.1,1-0.2c0.3-0.1,0.5-0.3,0.5-0.7c0-0.3-0.2-0.6-0.5-0.8c-0.4-0.2-0.8-0.4-1.4-0.5c-0.5-0.2-1.1-0.3-1.8-0.5
		c-0.6-0.2-1.2-0.4-1.8-0.8c-0.5-0.3-1-0.8-1.4-1.3c-0.4-0.5-0.5-1.2-0.5-2.1c0-0.8,0.2-1.5,0.5-2.1c0.3-0.6,0.8-1.1,1.3-1.4
		c0.5-0.4,1.2-0.7,1.9-0.8c0.7-0.2,1.5-0.3,2.2-0.3c1.3,0,2.4,0.1,3.3,0.4c0.9,0.3,1.8,0.7,2.6,1.2l-2.1,3.1
		c-0.2-0.2-0.4-0.3-0.7-0.5c-0.3-0.2-0.6-0.3-1-0.5c-0.4-0.1-0.7-0.2-1.1-0.3c-0.4-0.1-0.8-0.1-1.1-0.1c-0.3,0-0.6,0.1-0.8,0.2
		c-0.2,0.1-0.3,0.3-0.3,0.6c0,0.3,0.2,0.6,0.5,0.7s0.8,0.4,1.4,0.5c0.5,0.2,1.1,0.4,1.8,0.6s1.2,0.5,1.8,0.8c0.5,0.3,1,0.8,1.4,1.3
		c0.4,0.5,0.5,1.2,0.5,2s-0.2,1.5-0.5,2.1s-0.8,1.1-1.4,1.5c-0.6,0.4-1.2,0.7-1.9,0.9c-0.7,0.2-1.4,0.3-2.1,0.3
		c-2.6,0-4.8-0.7-6.5-2L296.4,33.5z"/>
	<path class="copy_purpleFill" d="M326.5,35.2c-0.7,1.2-1.6,2-2.6,2.6s-2.3,0.8-3.7,0.8c-1.2,0-2.3-0.2-3.2-0.6c-0.9-0.4-1.6-0.9-2.2-1.6
		c-0.6-0.7-1-1.4-1.3-2.3c-0.3-0.9-0.4-1.9-0.4-2.9c0-1.1,0.2-2.2,0.5-3.1c0.3-0.9,0.8-1.7,1.4-2.4s1.3-1.1,2.2-1.5
		c0.9-0.3,1.9-0.5,3-0.5c1.4,0,2.7,0.3,3.7,0.9s1.9,1.5,2.5,2.6l-3.8,1.8c-0.3-0.7-0.6-1.1-1-1.4c-0.4-0.3-0.8-0.4-1.3-0.4
		c-0.9,0-1.5,0.3-1.8,1c-0.4,0.7-0.6,1.6-0.6,2.7c0,0.4,0,0.9,0.1,1.4c0.1,0.5,0.2,0.9,0.4,1.3c0.2,0.4,0.5,0.7,0.8,1
		c0.3,0.3,0.8,0.4,1.4,0.4c0.6,0,1.1-0.2,1.5-0.5c0.4-0.3,0.7-0.8,1-1.4L326.5,35.2z"/>
	<path class="copy_purpleFill" d="M327.6,18.8h4.6V26c0.3-0.6,0.9-1.1,1.6-1.6c0.7-0.4,1.6-0.7,2.7-0.7c1.6,0,2.8,0.5,3.5,1.5
		c0.7,1,1.1,2.5,1.1,4.4v8.4h-4.6v-7.6c0-0.9-0.2-1.6-0.5-2c-0.3-0.5-0.8-0.7-1.5-0.7c-0.7,0-1.2,0.3-1.6,0.8s-0.6,1.4-0.6,2.7v6.8
		h-4.6V18.8z"/>
	<path class="copy_purpleFill" d="M347.1,32.2c0.2,1.1,0.5,1.8,1,2.3c0.5,0.4,1.1,0.6,1.8,0.6c0.6,0,1.1-0.1,1.5-0.4c0.4-0.3,0.8-0.6,1.1-1.2
		l3.4,1.9c-0.7,1.1-1.6,1.8-2.7,2.3c-1.1,0.5-2.3,0.7-3.6,0.7c-1.2,0-2.2-0.2-3.1-0.6c-0.9-0.4-1.7-0.9-2.3-1.5
		c-0.6-0.7-1.1-1.4-1.4-2.3c-0.3-0.9-0.5-1.9-0.5-2.9c0-1.1,0.2-2,0.5-3s0.8-1.7,1.4-2.4c0.6-0.7,1.4-1.2,2.2-1.5
		c0.9-0.4,1.9-0.6,3-0.6c1.1,0,2,0.2,2.9,0.5c0.8,0.4,1.5,0.9,2.1,1.5c0.6,0.7,1,1.5,1.3,2.4c0.3,0.9,0.5,2,0.5,3.2
		c0,0.3,0,0.4,0,0.6c0,0.1,0,0.2,0,0.2H347.1z M349.4,27.1c-1.3,0-2.1,0.8-2.3,2.5h4.5c0-0.7-0.2-1.3-0.5-1.8
		C350.7,27.4,350.2,27.1,349.4,27.1z"/>
	<path class="copy_purpleFill" d="M370.5,35.2c-0.7,1.2-1.6,2-2.6,2.6c-1.1,0.5-2.3,0.8-3.7,0.8c-1.2,0-2.3-0.2-3.2-0.6
		c-0.9-0.4-1.6-0.9-2.2-1.6c-0.6-0.7-1-1.4-1.3-2.3c-0.3-0.9-0.4-1.9-0.4-2.9c0-1.1,0.2-2.2,0.5-3.1c0.3-0.9,0.8-1.7,1.4-2.4
		s1.3-1.1,2.2-1.5c0.9-0.3,1.9-0.5,3-0.5c1.4,0,2.7,0.3,3.7,0.9c1,0.6,1.9,1.5,2.5,2.6l-3.8,1.8c-0.3-0.7-0.6-1.1-1-1.4
		c-0.4-0.3-0.8-0.4-1.3-0.4c-0.9,0-1.5,0.3-1.8,1c-0.4,0.7-0.6,1.6-0.6,2.7c0,0.4,0,0.9,0.1,1.4c0.1,0.5,0.2,0.9,0.4,1.3
		c0.2,0.4,0.5,0.7,0.8,1c0.3,0.3,0.8,0.4,1.4,0.4c0.6,0,1.1-0.2,1.5-0.5c0.4-0.3,0.7-0.8,1-1.4L370.5,35.2z"/>
	<path class="copy_purpleFill" d="M371.6,18.8h4.6v10.5l4.6-5.1h5.6l-5.5,5.3l5.4,8.7h-5.2l-3.1-5.9l-1.8,1.8v4.1h-4.6V18.8z"/>
	<path class="copy_purpleFill" d="M388.4,33.5c0.2,0.2,0.5,0.4,0.8,0.6c0.3,0.2,0.6,0.4,1,0.6c0.4,0.2,0.8,0.3,1.2,0.4c0.4,0.1,0.8,0.2,1.2,0.2
		c0.3,0,0.7-0.1,1-0.2c0.3-0.1,0.5-0.3,0.5-0.7c0-0.3-0.2-0.6-0.5-0.8c-0.4-0.2-0.8-0.4-1.4-0.5c-0.5-0.2-1.1-0.3-1.8-0.5
		s-1.2-0.4-1.8-0.8c-0.5-0.3-1-0.8-1.4-1.3c-0.4-0.5-0.5-1.2-0.5-2.1c0-0.8,0.2-1.5,0.5-2.1c0.3-0.6,0.8-1.1,1.3-1.4
		c0.5-0.4,1.2-0.7,1.9-0.8c0.7-0.2,1.5-0.3,2.2-0.3c1.3,0,2.4,0.1,3.3,0.4c0.9,0.3,1.8,0.7,2.6,1.2l-2.1,3.1
		c-0.2-0.2-0.4-0.3-0.7-0.5c-0.3-0.2-0.6-0.3-1-0.5c-0.4-0.1-0.7-0.2-1.1-0.3s-0.8-0.1-1.1-0.1c-0.3,0-0.6,0.1-0.8,0.2
		c-0.2,0.1-0.3,0.3-0.3,0.6c0,0.3,0.2,0.6,0.5,0.7c0.4,0.2,0.8,0.4,1.4,0.5c0.5,0.2,1.1,0.4,1.8,0.6s1.2,0.5,1.8,0.8s1,0.8,1.4,1.3
		c0.4,0.5,0.5,1.2,0.5,2s-0.2,1.5-0.5,2.1c-0.4,0.6-0.8,1.1-1.4,1.5c-0.6,0.4-1.2,0.7-1.9,0.9c-0.7,0.2-1.4,0.3-2.1,0.3
		c-2.6,0-4.8-0.7-6.5-2L388.4,33.5z"/>
	<path class="copy_purpleFill" d="M406.9,27.1h-2.3v-3h2.1c-0.1-0.5-0.2-0.9-0.3-1.3s-0.1-0.8-0.1-1.1c0-0.5,0.1-1,0.2-1.4
		c0.1-0.4,0.4-0.8,0.7-1.1s0.8-0.6,1.4-0.8c0.6-0.2,1.3-0.3,2.3-0.3c0.8,0,1.5,0,2,0.1c0.6,0.1,1.1,0.2,1.6,0.4l-0.7,3.4
		c-0.2-0.1-0.5-0.2-0.9-0.3c-0.4-0.1-0.7-0.1-1-0.1c-0.3,0-0.6,0.1-0.8,0.2c-0.2,0.1-0.3,0.3-0.3,0.7c0,0.3,0,0.6,0.1,0.9
		c0.1,0.3,0.2,0.5,0.3,0.7h2.7v3h-2.6v11h-4.6V27.1z"/>
	<path class="copy_purpleFill" d="M421.2,38.6c-1.2,0-2.2-0.2-3.1-0.6c-0.9-0.4-1.6-0.9-2.2-1.5c-0.6-0.7-1-1.4-1.3-2.3
		c-0.3-0.9-0.4-1.9-0.4-2.9s0.2-2,0.5-2.9c0.3-0.9,0.8-1.7,1.4-2.4c0.6-0.7,1.3-1.2,2.2-1.6c0.9-0.4,1.9-0.6,3-0.6
		c1.1,0,2.2,0.2,3.1,0.6c0.9,0.4,1.6,0.9,2.2,1.5s1,1.4,1.3,2.4c0.3,0.9,0.5,1.9,0.5,3s-0.2,2-0.5,2.9c-0.3,0.9-0.7,1.7-1.3,2.3
		c-0.6,0.7-1.3,1.2-2.2,1.5C423.4,38.4,422.3,38.6,421.2,38.6z M421.3,35.1c0.8,0,1.3-0.3,1.7-1s0.5-1.6,0.5-2.8s-0.2-2.1-0.6-2.8
		s-0.9-1.1-1.7-1.1s-1.3,0.4-1.7,1.1s-0.5,1.7-0.5,2.8s0.2,2.1,0.6,2.8S420.5,35.1,421.3,35.1z"/>
	<path class="copy_purpleFill" d="M429.7,24.2h4.1l0.3,2.6c0.4-0.8,1-1.5,1.8-2.1c0.8-0.6,1.8-0.9,3.1-0.9v4.7c-0.3-0.1-0.8-0.1-1.5-0.1
		c-0.4,0-0.7,0-1.1,0.1s-0.7,0.2-1,0.5c-0.3,0.2-0.6,0.6-0.8,1.1c-0.2,0.5-0.3,1.2-0.3,2v6.2h-4.6V24.2z"/>
	<path class="copy_purpleFill" d="M454.1,38.1c-0.1-0.2-0.2-0.5-0.3-0.8c-0.1-0.3-0.1-0.6-0.2-0.9c-0.3,0.5-0.7,1-1.3,1.5
		c-0.6,0.4-1.4,0.6-2.5,0.6c-0.7,0-1.4-0.1-2-0.3c-0.6-0.2-1-0.5-1.4-0.9c-0.4-0.4-0.7-0.9-0.9-1.4c-0.2-0.5-0.3-1.1-0.3-1.8
		c0-0.7,0.1-1.3,0.4-1.8c0.2-0.5,0.6-1,1.1-1.3c0.5-0.4,1-0.7,1.7-0.9c0.7-0.2,1.4-0.4,2.2-0.5l2.8-0.4v-0.3c0-0.6-0.2-1-0.5-1.2
		c-0.3-0.2-0.7-0.3-1.3-0.3c-0.9,0-1.6,0.2-2.2,0.5c-0.6,0.3-1.2,0.7-1.6,1.1l-2.2-3c0.3-0.2,0.7-0.5,1.1-0.7
		c0.4-0.2,0.9-0.5,1.5-0.7c0.5-0.2,1.2-0.3,1.8-0.5c0.7-0.1,1.4-0.2,2.2-0.2c2.1,0,3.5,0.4,4.4,1.3c0.9,0.9,1.3,2.2,1.3,4v5
		c0,0.6,0,1.1,0,1.5c0,0.4,0,0.7,0.1,1c0,0.3,0.1,0.6,0.2,0.8s0.2,0.5,0.3,0.8H454.1z M453.3,32l-1.9,0.4c-0.6,0.1-1.1,0.3-1.4,0.6
		c-0.3,0.2-0.4,0.6-0.4,1c0,0.4,0.1,0.7,0.4,1c0.2,0.3,0.6,0.4,1.1,0.4c0.6,0,1.2-0.2,1.6-0.7s0.7-1.2,0.7-2.1V32z"/>
	<path class="copy_purpleFill" d="M472.6,35.2c-0.7,1.2-1.6,2-2.6,2.6c-1.1,0.5-2.3,0.8-3.7,0.8c-1.2,0-2.3-0.2-3.2-0.6s-1.6-0.9-2.2-1.6
		s-1-1.4-1.3-2.3c-0.3-0.9-0.4-1.9-0.4-2.9c0-1.1,0.2-2.2,0.5-3.1c0.3-0.9,0.8-1.7,1.4-2.4c0.6-0.6,1.3-1.1,2.2-1.5
		c0.9-0.3,1.9-0.5,3-0.5c1.4,0,2.7,0.3,3.7,0.9c1,0.6,1.9,1.5,2.5,2.6l-3.8,1.8c-0.3-0.7-0.6-1.1-1-1.4c-0.4-0.3-0.8-0.4-1.3-0.4
		c-0.9,0-1.5,0.3-1.8,1S464,29.9,464,31c0,0.4,0,0.9,0.1,1.4c0.1,0.5,0.2,0.9,0.4,1.3c0.2,0.4,0.5,0.7,0.8,1
		c0.3,0.3,0.8,0.4,1.4,0.4c0.6,0,1.1-0.2,1.5-0.5c0.4-0.3,0.7-0.8,1-1.4L472.6,35.2z"/>
	<path class="copy_purpleFill" d="M486.1,35.2c-0.7,1.2-1.6,2-2.6,2.6c-1.1,0.5-2.3,0.8-3.7,0.8c-1.2,0-2.3-0.2-3.2-0.6s-1.6-0.9-2.2-1.6
		s-1-1.4-1.3-2.3c-0.3-0.9-0.4-1.9-0.4-2.9c0-1.1,0.2-2.2,0.5-3.1c0.3-0.9,0.8-1.7,1.4-2.4c0.6-0.6,1.3-1.1,2.2-1.5
		c0.9-0.3,1.9-0.5,3-0.5c1.4,0,2.7,0.3,3.7,0.9c1,0.6,1.9,1.5,2.5,2.6l-3.8,1.8c-0.3-0.7-0.6-1.1-1-1.4c-0.4-0.3-0.8-0.4-1.3-0.4
		c-0.9,0-1.5,0.3-1.8,1s-0.6,1.6-0.6,2.7c0,0.4,0,0.9,0.1,1.4c0.1,0.5,0.2,0.9,0.4,1.3c0.2,0.4,0.5,0.7,0.8,1
		c0.3,0.3,0.8,0.4,1.4,0.4c0.6,0,1.1-0.2,1.5-0.5c0.4-0.3,0.7-0.8,1-1.4L486.1,35.2z"/>
	<path class="copy_purpleFill" d="M487.1,24.2h4.6v7.7c0,0.9,0.1,1.5,0.4,2c0.3,0.4,0.7,0.7,1.4,0.7c0.7,0,1.3-0.3,1.7-0.8s0.6-1.5,0.6-2.7v-6.7
		h4.6v13.9h-4.3v-2.1c-0.4,0.7-0.9,1.3-1.5,1.7s-1.5,0.6-2.7,0.6c-1.7,0-2.9-0.5-3.7-1.4c-0.8-0.9-1.2-2.3-1.2-4.1V24.2z"/>
	<path class="copy_purpleFill" d="M502.6,24.2h4.1l0.3,2.6c0.4-0.8,1-1.5,1.8-2.1c0.8-0.6,1.8-0.9,3.1-0.9v4.7c-0.3-0.1-0.8-0.1-1.5-0.1
		c-0.4,0-0.7,0-1.1,0.1s-0.7,0.2-1,0.5c-0.3,0.2-0.6,0.6-0.8,1.1c-0.2,0.5-0.3,1.2-0.3,2v6.2h-4.6V24.2z"/>
	<path class="copy_purpleFill" d="M521,38.1c-0.1-0.2-0.2-0.5-0.3-0.8c-0.1-0.3-0.1-0.6-0.2-0.9c-0.3,0.5-0.7,1-1.3,1.5
		c-0.6,0.4-1.4,0.6-2.5,0.6c-0.7,0-1.4-0.1-2-0.3c-0.6-0.2-1-0.5-1.4-0.9c-0.4-0.4-0.7-0.9-0.9-1.4c-0.2-0.5-0.3-1.1-0.3-1.8
		c0-0.7,0.1-1.3,0.4-1.8c0.2-0.5,0.6-1,1.1-1.3c0.5-0.4,1-0.7,1.7-0.9c0.7-0.2,1.4-0.4,2.2-0.5l2.8-0.4v-0.3c0-0.6-0.2-1-0.5-1.2
		c-0.3-0.2-0.7-0.3-1.3-0.3c-0.9,0-1.6,0.2-2.2,0.5c-0.6,0.3-1.2,0.7-1.6,1.1l-2.2-3c0.3-0.2,0.7-0.5,1.1-0.7
		c0.4-0.2,0.9-0.5,1.5-0.7c0.5-0.2,1.2-0.3,1.8-0.5c0.7-0.1,1.4-0.2,2.2-0.2c2.1,0,3.5,0.4,4.4,1.3c0.9,0.9,1.3,2.2,1.3,4v5
		c0,0.6,0,1.1,0,1.5c0,0.4,0,0.7,0.1,1c0,0.3,0.1,0.6,0.2,0.8s0.2,0.5,0.3,0.8H521z M520.3,32l-1.9,0.4c-0.6,0.1-1.1,0.3-1.4,0.6
		c-0.3,0.2-0.4,0.6-0.4,1c0,0.4,0.1,0.7,0.4,1c0.2,0.3,0.6,0.4,1.1,0.4c0.6,0,1.2-0.2,1.6-0.7s0.7-1.2,0.7-2.1V32z"/>
	<path class="copy_purpleFill" d="M539.6,35.2c-0.7,1.2-1.6,2-2.6,2.6c-1.1,0.5-2.3,0.8-3.7,0.8c-1.2,0-2.3-0.2-3.2-0.6s-1.6-0.9-2.2-1.6
		s-1-1.4-1.3-2.3c-0.3-0.9-0.4-1.9-0.4-2.9c0-1.1,0.2-2.2,0.5-3.1c0.3-0.9,0.8-1.7,1.4-2.4c0.6-0.6,1.3-1.1,2.2-1.5
		c0.9-0.3,1.9-0.5,3-0.5c1.4,0,2.7,0.3,3.7,0.9c1,0.6,1.9,1.5,2.5,2.6l-3.8,1.8c-0.3-0.7-0.6-1.1-1-1.4c-0.4-0.3-0.8-0.4-1.3-0.4
		c-0.9,0-1.5,0.3-1.8,1S531,29.9,531,31c0,0.4,0,0.9,0.1,1.4c0.1,0.5,0.2,0.9,0.4,1.3c0.2,0.4,0.5,0.7,0.8,1
		c0.3,0.3,0.8,0.4,1.4,0.4c0.6,0,1.1-0.2,1.5-0.5c0.4-0.3,0.7-0.8,1-1.4L539.6,35.2z"/>
	<path class="copy_purpleFill" d="M540.8,39.5c0.3,0.1,0.7,0.2,1,0.3c0.4,0.1,0.7,0.1,1,0.1c0.4,0,0.7-0.1,1-0.3c0.2-0.2,0.4-0.5,0.5-1l-5-14.4
		h5l2.4,9.4l2.4-9.4h5L549.1,38c-0.3,0.8-0.5,1.5-0.8,2.1c-0.3,0.6-0.6,1.2-1.1,1.7c-0.4,0.5-1,0.8-1.7,1.1
		c-0.7,0.3-1.5,0.4-2.6,0.4c-0.2,0-0.4,0-0.6,0c-0.2,0-0.5,0-0.8,0s-0.5,0-0.8-0.1c-0.2,0-0.4-0.1-0.6-0.1L540.8,39.5z"/>
	<path class="copy_purpleFill" d="M553.6,33.1h5.1v5.1h-5.1V33.1z"/>
</g>
<g>
	<path class="copy_grayFill" d="M198.2,65.2c-0.3,0.7-0.9,1.2-1.6,1.6c-0.7,0.4-1.6,0.7-2.7,0.7c-1.2,0-2.2-0.2-3-0.6
		c-0.9-0.4-1.6-0.9-2.2-1.6c-0.6-0.7-1-1.5-1.3-2.5c-0.3-0.9-0.4-2-0.4-3.1c0-1.1,0.2-2.2,0.5-3.1c0.3-0.9,0.8-1.7,1.4-2.4
		s1.4-1.2,2.2-1.6s1.9-0.6,3-0.6c1.3,0,2.5,0.3,3.6,0.8s2,1.4,2.7,2.5l-2.9,1.4c-0.1-0.3-0.3-0.6-0.6-0.9s-0.5-0.5-0.8-0.6
		c-0.3-0.2-0.6-0.3-1-0.4c-0.4-0.1-0.7-0.1-1.1-0.1c-0.7,0-1.3,0.1-1.8,0.4s-0.9,0.6-1.2,1.1c-0.3,0.5-0.6,1-0.7,1.6
		c-0.2,0.6-0.2,1.3-0.2,2c0,0.7,0.1,1.4,0.3,2c0.2,0.6,0.4,1.2,0.8,1.6c0.3,0.5,0.7,0.8,1.2,1.1s1,0.4,1.6,0.4
		c0.6,0,1.2-0.1,1.6-0.3s0.8-0.5,1.1-0.8c0.3-0.3,0.5-0.6,0.6-1c0.1-0.4,0.2-0.7,0.2-1v-0.3h-3.2V59h6v8.1h-1.9L198.2,65.2z"/>
	<path class="copy_grayFill" d="M205.3,62.6c0.1,1,0.4,1.7,0.8,2.1c0.5,0.4,1,0.7,1.7,0.7c1,0,1.8-0.5,2.3-1.4l2.1,1.2
		c-0.5,0.8-1.1,1.3-1.9,1.7c-0.8,0.4-1.7,0.6-2.7,0.6c-0.9,0-1.6-0.1-2.3-0.4s-1.2-0.7-1.7-1.2c-0.4-0.5-0.8-1.1-1-1.8
		s-0.3-1.4-0.3-2.2c0-0.8,0.1-1.5,0.3-2.2s0.6-1.3,1-1.8c0.4-0.5,1-0.9,1.6-1.2c0.6-0.3,1.4-0.4,2.2-0.4c0.8,0,1.5,0.1,2.1,0.4
		c0.6,0.3,1.1,0.7,1.5,1.2s0.7,1.1,0.9,1.8s0.3,1.4,0.3,2.3c0,0.2,0,0.3,0,0.4c0,0.1,0,0.2,0,0.2H205.3z M207.5,58.4
		c-0.7,0-1.2,0.2-1.5,0.7c-0.4,0.4-0.6,1.1-0.7,1.8h4.2c0-0.3,0-0.7-0.1-1c-0.1-0.3-0.2-0.6-0.4-0.8c-0.2-0.2-0.4-0.4-0.6-0.6
		C208.2,58.5,207.9,58.4,207.5,58.4z"/>
	<path class="copy_grayFill" d="M214.8,58.5h-1.7v-1.8h0.3c0.5,0,0.9-0.1,1.1-0.2s0.5-0.4,0.7-0.6c0.2-0.3,0.3-0.6,0.4-1
		c0.1-0.4,0.2-0.8,0.2-1.2h1.8v3h2.2v1.8h-2.2V64c0,0.4,0.1,0.7,0.2,1c0.1,0.2,0.4,0.3,0.9,0.3c0.1,0,0.3,0,0.5,0
		c0.2,0,0.3-0.1,0.5-0.2l0.2,2c-0.3,0.2-0.7,0.3-1.1,0.3c-0.4,0.1-0.7,0.1-1.1,0.1c-0.6,0-1.1-0.1-1.5-0.2c-0.4-0.2-0.7-0.4-0.9-0.6
		c-0.2-0.3-0.4-0.6-0.5-1c-0.1-0.4-0.1-0.8-0.1-1.2V58.5z"/>
	<path class="copy_grayFill" d="M239.1,63.9c-0.7,1.2-1.5,2.1-2.5,2.7c-1,0.6-2.2,0.9-3.7,0.9c-1.2,0-2.2-0.2-3.1-0.6s-1.7-0.9-2.3-1.6
		c-0.6-0.7-1.1-1.5-1.4-2.4c-0.3-0.9-0.5-2-0.5-3.1c0-1.1,0.2-2.2,0.5-3.1c0.3-0.9,0.8-1.7,1.4-2.4s1.4-1.2,2.3-1.6
		c0.9-0.4,1.9-0.6,3.1-0.6c1.3,0,2.5,0.2,3.5,0.7c1,0.5,1.9,1.3,2.7,2.5l-2.9,1.5c-0.3-0.7-0.8-1.2-1.3-1.5c-0.6-0.4-1.2-0.5-2-0.5
		c-0.7,0-1.3,0.1-1.8,0.4s-0.9,0.6-1.3,1.1c-0.3,0.5-0.6,1-0.7,1.6c-0.2,0.6-0.2,1.3-0.2,2c0,0.7,0.1,1.4,0.3,2
		c0.2,0.6,0.4,1.1,0.8,1.6c0.3,0.5,0.8,0.8,1.3,1.1s1.1,0.4,1.8,0.4c0.8,0,1.5-0.2,2-0.5c0.6-0.4,1-1,1.4-1.8L239.1,63.9z"/>
	<path class="copy_grayFill" d="M240.9,52.4h2.8v14.7h-2.8V52.4z"/>
	<path class="copy_grayFill" d="M252.3,67.1c-0.1-0.2-0.1-0.4-0.2-0.7c0-0.3-0.1-0.5-0.1-0.8c-0.2,0.5-0.6,0.9-1.1,1.3c-0.5,0.3-1.2,0.5-2,0.5
		c-1.1,0-1.9-0.3-2.5-0.9c-0.6-0.6-0.9-1.4-0.9-2.4c0-0.5,0.1-1,0.3-1.4s0.5-0.7,0.8-1c0.3-0.3,0.8-0.5,1.3-0.6
		c0.5-0.2,1-0.3,1.6-0.4l2.3-0.4V60c0-0.6-0.1-1-0.4-1.2c-0.3-0.2-0.7-0.3-1.2-0.3c-0.7,0-1.3,0.1-1.8,0.4s-0.9,0.6-1.3,0.9
		l-1.4-1.9c0.4-0.4,1-0.8,1.8-1.1c0.8-0.3,1.8-0.5,2.9-0.5c1.5,0,2.5,0.3,3.2,1s1,1.6,1,2.9v3.9c0,0.4,0,0.7,0,1
		c0,0.3,0,0.5,0.1,0.7c0,0.2,0.1,0.4,0.1,0.6s0.1,0.4,0.2,0.6H252.3z M251.9,62.2l-1.8,0.3c-0.6,0.1-1.1,0.3-1.4,0.5
		c-0.3,0.2-0.4,0.6-0.4,1c0,0.4,0.1,0.7,0.4,1c0.3,0.3,0.6,0.4,1,0.4c0.6,0,1.1-0.2,1.5-0.7c0.4-0.5,0.6-1.1,0.6-1.9V62.2z"/>
	<path class="copy_grayFill" d="M257.1,52.5h2.8v2.3h-2.8V52.5z M257.1,56.6h2.8v10.5h-2.8V56.6z"/>
	<path class="copy_grayFill" d="M262.2,56.6h2.5l0.2,1.7c0.3-0.6,0.7-1.1,1.2-1.5c0.5-0.4,1.1-0.5,1.9-0.5c0.8,0,1.5,0.2,2,0.6
		c0.5,0.4,0.8,0.9,1,1.5c0.1-0.3,0.3-0.5,0.4-0.8c0.2-0.3,0.4-0.5,0.6-0.7c0.3-0.2,0.6-0.3,0.9-0.5c0.4-0.1,0.8-0.2,1.3-0.2
		c0.7,0,1.2,0.1,1.7,0.4c0.4,0.2,0.8,0.5,1,0.9s0.4,0.8,0.5,1.3c0.1,0.5,0.1,1,0.1,1.6v6.6h-2.8v-5.8c0-0.8-0.1-1.5-0.4-1.9
		c-0.3-0.4-0.7-0.6-1.2-0.6c-0.2,0-0.5,0-0.7,0.1c-0.2,0.1-0.4,0.2-0.6,0.5c-0.2,0.2-0.3,0.5-0.4,0.9c-0.1,0.4-0.2,0.8-0.2,1.4v5.4
		h-2.8v-5.8c0-1.6-0.5-2.5-1.6-2.5c-0.2,0-0.5,0-0.7,0.1c-0.2,0.1-0.4,0.3-0.6,0.5c-0.2,0.2-0.3,0.6-0.4,1c-0.1,0.4-0.2,0.9-0.2,1.5
		v5.2h-2.8V56.6z"/>
	<path class="copy_grayFill" d="M280,52.4h5.8c0.7,0,1.4,0.1,2.1,0.3s1.3,0.4,1.8,0.8s0.9,0.8,1.2,1.4c0.3,0.6,0.5,1.3,0.5,2.1
		c0,0.9-0.1,1.7-0.4,2.3c-0.3,0.6-0.7,1.1-1.2,1.5c-0.5,0.4-1.1,0.7-1.8,0.8c-0.7,0.2-1.4,0.3-2.2,0.3H283v5.3H280V52.4z
		 M285.3,59.4c0.4,0,0.8,0,1.1-0.1c0.3-0.1,0.6-0.2,0.9-0.4s0.4-0.4,0.6-0.8s0.2-0.7,0.2-1.2c0-0.4-0.1-0.8-0.2-1
		c-0.1-0.3-0.3-0.5-0.6-0.7c-0.3-0.2-0.5-0.3-0.9-0.4c-0.3-0.1-0.7-0.1-1.1-0.1H283v4.7H285.3z"/>
	<path class="copy_grayFill" d="M298.9,67.1c-0.1-0.2-0.1-0.4-0.2-0.7c0-0.3-0.1-0.5-0.1-0.8c-0.2,0.5-0.6,0.9-1.1,1.3c-0.5,0.3-1.2,0.5-2,0.5
		c-1.1,0-1.9-0.3-2.5-0.9c-0.6-0.6-0.9-1.4-0.9-2.4c0-0.5,0.1-1,0.3-1.4s0.5-0.7,0.8-1c0.3-0.3,0.8-0.5,1.3-0.6
		c0.5-0.2,1-0.3,1.6-0.4l2.3-0.4V60c0-0.6-0.1-1-0.4-1.2c-0.3-0.2-0.7-0.3-1.2-0.3c-0.7,0-1.3,0.1-1.8,0.4s-0.9,0.6-1.3,0.9
		l-1.4-1.9c0.4-0.4,1-0.8,1.8-1.1c0.8-0.3,1.8-0.5,2.9-0.5c1.5,0,2.5,0.3,3.2,1s1,1.6,1,2.9v3.9c0,0.4,0,0.7,0,1
		c0,0.3,0,0.5,0.1,0.7c0,0.2,0.1,0.4,0.1,0.6s0.1,0.4,0.2,0.6H298.9z M298.4,62.2l-1.8,0.3c-0.6,0.1-1.1,0.3-1.4,0.5
		c-0.3,0.2-0.4,0.6-0.4,1c0,0.4,0.1,0.7,0.4,1c0.3,0.3,0.6,0.4,1,0.4c0.6,0,1.1-0.2,1.5-0.7c0.4-0.5,0.6-1.1,0.6-1.9V62.2z"/>
	<path class="copy_grayFill" d="M304.3,64c0.2,0.2,0.4,0.4,0.6,0.5c0.2,0.2,0.5,0.3,0.8,0.4c0.3,0.1,0.6,0.2,0.9,0.3c0.3,0.1,0.6,0.1,0.9,0.1
		c0.4,0,0.7-0.1,1.1-0.2c0.3-0.2,0.5-0.4,0.5-0.8c0-0.3-0.1-0.6-0.4-0.8c-0.3-0.2-0.6-0.3-1-0.5c-0.4-0.1-0.9-0.3-1.4-0.4
		c-0.5-0.1-1-0.3-1.4-0.6c-0.4-0.2-0.8-0.6-1-1c-0.3-0.4-0.4-0.9-0.4-1.6c0-0.6,0.1-1.1,0.4-1.5s0.6-0.8,0.9-1
		c0.4-0.3,0.8-0.5,1.3-0.6s1-0.2,1.6-0.2c0.9,0,1.7,0.1,2.3,0.3c0.7,0.2,1.3,0.5,1.8,0.9l-1.3,1.9c-0.1-0.1-0.3-0.3-0.5-0.4
		c-0.2-0.1-0.5-0.2-0.7-0.3c-0.3-0.1-0.5-0.2-0.8-0.2c-0.3-0.1-0.6-0.1-0.9-0.1c-0.3,0-0.6,0.1-0.8,0.2c-0.2,0.1-0.4,0.4-0.4,0.7
		c0,0.3,0.1,0.5,0.4,0.7c0.3,0.2,0.6,0.3,1,0.5c0.4,0.1,0.9,0.3,1.4,0.4c0.5,0.2,0.9,0.4,1.4,0.6c0.4,0.2,0.8,0.6,1,1
		c0.3,0.4,0.4,0.9,0.4,1.5c0,0.6-0.1,1.1-0.4,1.5c-0.3,0.4-0.6,0.8-1,1.1c-0.4,0.3-0.9,0.5-1.4,0.6c-0.5,0.1-1,0.2-1.5,0.2
		c-1.9,0-3.4-0.5-4.6-1.6L304.3,64z"/>
	<path class="copy_grayFill" d="M314,64c0.2,0.2,0.4,0.4,0.6,0.5c0.2,0.2,0.5,0.3,0.8,0.4c0.3,0.1,0.6,0.2,0.9,0.3c0.3,0.1,0.6,0.1,0.9,0.1
		c0.4,0,0.7-0.1,1.1-0.2c0.3-0.2,0.5-0.4,0.5-0.8c0-0.3-0.1-0.6-0.4-0.8c-0.3-0.2-0.6-0.3-1-0.5c-0.4-0.1-0.9-0.3-1.4-0.4
		c-0.5-0.1-1-0.3-1.4-0.6c-0.4-0.2-0.8-0.6-1-1c-0.3-0.4-0.4-0.9-0.4-1.6c0-0.6,0.1-1.1,0.4-1.5s0.6-0.8,0.9-1
		c0.4-0.3,0.8-0.5,1.3-0.6s1-0.2,1.6-0.2c0.9,0,1.7,0.1,2.3,0.3c0.7,0.2,1.3,0.5,1.8,0.9l-1.3,1.9c-0.1-0.1-0.3-0.3-0.5-0.4
		c-0.2-0.1-0.5-0.2-0.7-0.3c-0.3-0.1-0.5-0.2-0.8-0.2c-0.3-0.1-0.6-0.1-0.9-0.1c-0.3,0-0.6,0.1-0.8,0.2c-0.2,0.1-0.4,0.4-0.4,0.7
		c0,0.3,0.1,0.5,0.4,0.7c0.3,0.2,0.6,0.3,1,0.5c0.4,0.1,0.9,0.3,1.4,0.4c0.5,0.2,0.9,0.4,1.4,0.6c0.4,0.2,0.8,0.6,1,1
		c0.3,0.4,0.4,0.9,0.4,1.5c0,0.6-0.1,1.1-0.4,1.5c-0.3,0.4-0.6,0.8-1,1.1c-0.4,0.3-0.9,0.5-1.4,0.6c-0.5,0.1-1,0.2-1.5,0.2
		c-1.9,0-3.4-0.5-4.6-1.6L314,64z"/>
</g>
<g>
	<path class="copy_grayFill" d="M324,64h3.2v3.2H324V64z"/>
	<path class="copy_grayFill" d="M344.9,65.2c-0.3,0.7-0.9,1.2-1.6,1.6c-0.7,0.4-1.6,0.7-2.7,0.7c-1.2,0-2.2-0.2-3-0.6
		c-0.9-0.4-1.6-0.9-2.2-1.6c-0.6-0.7-1-1.5-1.3-2.5c-0.3-0.9-0.4-2-0.4-3.1c0-1.1,0.2-2.2,0.5-3.1c0.3-0.9,0.8-1.7,1.4-2.4
		s1.4-1.2,2.2-1.6s1.9-0.6,3-0.6c1.3,0,2.5,0.3,3.6,0.8s2,1.4,2.7,2.5l-2.9,1.4c-0.1-0.3-0.3-0.6-0.6-0.9s-0.5-0.5-0.8-0.6
		c-0.3-0.2-0.6-0.3-1-0.4c-0.4-0.1-0.7-0.1-1.1-0.1c-0.7,0-1.3,0.1-1.8,0.4s-0.9,0.6-1.2,1.1c-0.3,0.5-0.6,1-0.7,1.6
		c-0.2,0.6-0.2,1.3-0.2,2c0,0.7,0.1,1.4,0.3,2c0.2,0.6,0.4,1.2,0.8,1.6c0.3,0.5,0.7,0.8,1.2,1.1s1,0.4,1.6,0.4
		c0.6,0,1.2-0.1,1.6-0.3s0.8-0.5,1.1-0.8c0.3-0.3,0.5-0.6,0.6-1c0.1-0.4,0.2-0.7,0.2-1v-0.3h-3.2V59h6v8.1h-1.9L344.9,65.2z"/>
	<path class="copy_grayFill" d="M352.1,62.6c0.1,1,0.4,1.7,0.8,2.1c0.5,0.4,1,0.7,1.7,0.7c1,0,1.8-0.5,2.3-1.4l2.1,1.2
		c-0.5,0.8-1.1,1.3-1.9,1.7c-0.8,0.4-1.7,0.6-2.7,0.6c-0.9,0-1.6-0.1-2.3-0.4s-1.2-0.7-1.7-1.2c-0.4-0.5-0.8-1.1-1-1.8
		s-0.3-1.4-0.3-2.2c0-0.8,0.1-1.5,0.3-2.2s0.6-1.3,1-1.8c0.4-0.5,1-0.9,1.6-1.2c0.6-0.3,1.4-0.4,2.2-0.4c0.8,0,1.5,0.1,2.1,0.4
		c0.6,0.3,1.1,0.7,1.5,1.2s0.7,1.1,0.9,1.8s0.3,1.4,0.3,2.3c0,0.2,0,0.3,0,0.4c0,0.1,0,0.2,0,0.2H352.1z M354.3,58.4
		c-0.7,0-1.2,0.2-1.5,0.7c-0.4,0.4-0.6,1.1-0.7,1.8h4.2c0-0.3,0-0.7-0.1-1c-0.1-0.3-0.2-0.6-0.4-0.8c-0.2-0.2-0.4-0.4-0.6-0.6
		C354.9,58.5,354.6,58.4,354.3,58.4z"/>
	<path class="copy_grayFill" d="M361.6,58.5h-1.7v-1.8h0.3c0.5,0,0.9-0.1,1.1-0.2s0.5-0.4,0.7-0.6c0.2-0.3,0.3-0.6,0.4-1
		c0.1-0.4,0.2-0.8,0.2-1.2h1.8v3h2.2v1.8h-2.2V64c0,0.4,0.1,0.7,0.2,1c0.1,0.2,0.4,0.3,0.9,0.3c0.1,0,0.3,0,0.5,0
		c0.2,0,0.3-0.1,0.5-0.2l0.2,2c-0.3,0.2-0.7,0.3-1.1,0.3c-0.4,0.1-0.7,0.1-1.1,0.1c-0.6,0-1.1-0.1-1.5-0.2c-0.4-0.2-0.7-0.4-0.9-0.6
		c-0.2-0.3-0.4-0.6-0.5-1s-0.1-0.8-0.1-1.2V58.5z"/>
	<path class="copy_grayFill" d="M372.9,56.6h2.5l0.2,1.7c0.3-0.6,0.7-1.1,1.2-1.5c0.5-0.4,1.1-0.5,1.9-0.5c0.8,0,1.5,0.2,2,0.6
		c0.5,0.4,0.8,0.9,1,1.5c0.1-0.3,0.3-0.5,0.4-0.8c0.2-0.3,0.4-0.5,0.6-0.7c0.3-0.2,0.6-0.3,0.9-0.5c0.4-0.1,0.8-0.2,1.3-0.2
		c0.7,0,1.2,0.1,1.7,0.4c0.4,0.2,0.8,0.5,1,0.9c0.2,0.4,0.4,0.8,0.5,1.3c0.1,0.5,0.1,1,0.1,1.6v6.6h-2.8v-5.8c0-0.8-0.1-1.5-0.4-1.9
		c-0.3-0.4-0.7-0.6-1.2-0.6c-0.2,0-0.5,0-0.7,0.1c-0.2,0.1-0.4,0.2-0.6,0.5c-0.2,0.2-0.3,0.5-0.4,0.9s-0.2,0.8-0.2,1.4v5.4h-2.8
		v-5.8c0-1.6-0.5-2.5-1.6-2.5c-0.2,0-0.5,0-0.7,0.1s-0.4,0.3-0.6,0.5c-0.2,0.2-0.3,0.6-0.4,1s-0.2,0.9-0.2,1.5v5.2h-2.8V56.6z"/>
	<path class="copy_grayFill" d="M395.1,67.5c-0.9,0-1.6-0.1-2.3-0.4s-1.2-0.7-1.6-1.2c-0.4-0.5-0.7-1.1-1-1.8c-0.2-0.7-0.3-1.4-0.3-2.2
		s0.1-1.5,0.3-2.2s0.6-1.3,1-1.8c0.4-0.5,1-0.9,1.6-1.2c0.6-0.3,1.4-0.4,2.2-0.4c0.8,0,1.6,0.1,2.2,0.4c0.6,0.3,1.2,0.7,1.6,1.2
		c0.4,0.5,0.8,1.1,1,1.8c0.2,0.7,0.3,1.4,0.3,2.2s-0.1,1.5-0.3,2.2c-0.2,0.7-0.6,1.3-1,1.8c-0.4,0.5-1,0.9-1.6,1.2
		S396,67.5,395.1,67.5z M395.2,65.3c0.7,0,1.2-0.3,1.6-0.9c0.3-0.6,0.5-1.4,0.5-2.4c0-1-0.2-1.8-0.5-2.4s-0.9-1-1.6-1
		c-0.7,0-1.3,0.3-1.6,1c-0.4,0.6-0.5,1.4-0.5,2.4c0,1,0.2,1.8,0.5,2.4C393.8,65,394.4,65.3,395.2,65.3z"/>
	<path class="copy_grayFill" d="M402.1,56.6h2.5l0.2,2.1c0.3-0.7,0.8-1.2,1.4-1.7c0.6-0.5,1.4-0.7,2.3-0.7v2.9c-0.1,0-0.2,0-0.4-0.1
		s-0.3,0-0.5,0c-0.3,0-0.6,0-0.9,0.1c-0.3,0.1-0.6,0.2-0.9,0.4c-0.3,0.2-0.5,0.5-0.6,0.9c-0.2,0.4-0.2,0.9-0.2,1.5v5h-2.8V56.6z"/>
	<path class="copy_grayFill" d="M412,62.6c0.1,1,0.4,1.7,0.8,2.1c0.5,0.4,1,0.7,1.7,0.7c1,0,1.8-0.5,2.3-1.4l2.1,1.2c-0.5,0.8-1.1,1.3-1.9,1.7
		c-0.8,0.4-1.7,0.6-2.7,0.6c-0.9,0-1.6-0.1-2.3-0.4c-0.7-0.3-1.2-0.7-1.7-1.2c-0.4-0.5-0.8-1.1-1-1.8c-0.2-0.7-0.3-1.4-0.3-2.2
		c0-0.8,0.1-1.5,0.3-2.2c0.2-0.7,0.6-1.3,1-1.8c0.4-0.5,1-0.9,1.6-1.2c0.6-0.3,1.4-0.4,2.2-0.4c0.8,0,1.5,0.1,2.1,0.4
		c0.6,0.3,1.1,0.7,1.5,1.2s0.7,1.1,0.9,1.8s0.3,1.4,0.3,2.3c0,0.2,0,0.3,0,0.4c0,0.1,0,0.2,0,0.2H412z M414.2,58.4
		c-0.7,0-1.2,0.2-1.5,0.7c-0.4,0.4-0.6,1.1-0.7,1.8h4.2c0-0.3,0-0.7-0.1-1c-0.1-0.3-0.2-0.6-0.4-0.8c-0.2-0.2-0.4-0.4-0.6-0.6
		C414.8,58.5,414.5,58.4,414.2,58.4z"/>
	<path class="copy_grayFill" d="M426.3,64c0.2,0.2,0.4,0.4,0.6,0.5c0.2,0.2,0.5,0.3,0.8,0.4c0.3,0.1,0.6,0.2,0.9,0.3c0.3,0.1,0.6,0.1,0.9,0.1
		c0.4,0,0.7-0.1,1.1-0.2s0.5-0.4,0.5-0.8c0-0.3-0.1-0.6-0.4-0.8s-0.6-0.3-1-0.5s-0.9-0.3-1.4-0.4c-0.5-0.1-1-0.3-1.4-0.6
		c-0.4-0.2-0.8-0.6-1-1c-0.3-0.4-0.4-0.9-0.4-1.6c0-0.6,0.1-1.1,0.4-1.5c0.2-0.4,0.5-0.8,0.9-1s0.8-0.5,1.3-0.6
		c0.5-0.1,1-0.2,1.6-0.2c0.9,0,1.7,0.1,2.3,0.3c0.7,0.2,1.3,0.5,1.8,0.9l-1.3,1.9c-0.1-0.1-0.3-0.3-0.5-0.4
		c-0.2-0.1-0.5-0.2-0.7-0.3s-0.5-0.2-0.8-0.2c-0.3-0.1-0.6-0.1-0.9-0.1c-0.3,0-0.6,0.1-0.8,0.2c-0.2,0.1-0.4,0.4-0.4,0.7
		c0,0.3,0.1,0.5,0.4,0.7c0.3,0.2,0.6,0.3,1,0.5c0.4,0.1,0.9,0.3,1.4,0.4s0.9,0.4,1.4,0.6c0.4,0.2,0.8,0.6,1,1
		c0.3,0.4,0.4,0.9,0.4,1.5c0,0.6-0.1,1.1-0.4,1.5s-0.6,0.8-1,1.1c-0.4,0.3-0.9,0.5-1.4,0.6c-0.5,0.1-1,0.2-1.5,0.2
		c-1.9,0-3.4-0.5-4.6-1.6L426.3,64z"/>
	<path class="copy_grayFill" d="M441.9,67.1c-0.1-0.2-0.1-0.4-0.2-0.7s-0.1-0.5-0.1-0.8c-0.2,0.5-0.6,0.9-1.1,1.3c-0.5,0.3-1.2,0.5-2,0.5
		c-1.1,0-1.9-0.3-2.5-0.9c-0.6-0.6-0.9-1.4-0.9-2.4c0-0.5,0.1-1,0.3-1.4s0.5-0.7,0.8-1c0.3-0.3,0.8-0.5,1.3-0.6s1-0.3,1.6-0.4
		l2.3-0.4V60c0-0.6-0.1-1-0.4-1.2s-0.7-0.3-1.2-0.3c-0.7,0-1.3,0.1-1.8,0.4s-0.9,0.6-1.3,0.9l-1.4-1.9c0.4-0.4,1-0.8,1.8-1.1
		s1.8-0.5,2.9-0.5c1.5,0,2.5,0.3,3.2,1c0.6,0.6,1,1.6,1,2.9v3.9c0,0.4,0,0.7,0,1c0,0.3,0,0.5,0.1,0.7c0,0.2,0.1,0.4,0.1,0.6
		s0.1,0.4,0.2,0.6H441.9z M441.4,62.2l-1.8,0.3c-0.6,0.1-1.1,0.3-1.4,0.5c-0.3,0.2-0.4,0.6-0.4,1c0,0.4,0.1,0.7,0.4,1
		c0.2,0.3,0.6,0.4,1,0.4c0.6,0,1.1-0.2,1.5-0.7c0.4-0.5,0.6-1.1,0.6-1.9V62.2z"/>
	<path class="copy_grayFill" d="M445.5,56.6h3.2l2,7.8l2-7.8h3l-3.5,10.5h-3.3L445.5,56.6z"/>
	<path class="copy_grayFill" d="M457.1,52.5h2.8v2.3h-2.8V52.5z M457.1,56.6h2.8v10.5h-2.8V56.6z"/>
	<path class="copy_grayFill" d="M462.2,56.6h2.5l0.2,1.7c0.3-0.5,0.7-1,1.3-1.4c0.6-0.4,1.3-0.6,2-0.6c1.1,0,2,0.4,2.5,1.1
		c0.6,0.7,0.8,1.8,0.8,3.2v6.6h-2.8v-5.9c0-0.9-0.1-1.5-0.4-1.9c-0.3-0.4-0.7-0.6-1.3-0.6c-0.6,0-1.1,0.2-1.5,0.7
		c-0.4,0.5-0.6,1.3-0.6,2.4v5.2h-2.8V56.6z"/>
	<path class="copy_grayFill" d="M475.1,67.6c0.4,0.4,0.9,0.7,1.5,1c0.6,0.2,1.2,0.3,1.8,0.3c0.8,0,1.4-0.2,1.6-0.6c0.3-0.4,0.4-0.9,0.4-1.6
		v-1.4c-0.2,0.5-0.6,0.8-1.1,1.1c-0.5,0.3-1.1,0.5-1.9,0.5c-0.5,0-1.1-0.1-1.5-0.3c-0.5-0.2-0.9-0.5-1.3-0.9c-0.4-0.4-0.7-1-0.9-1.6
		s-0.3-1.4-0.3-2.3c0-0.8,0.1-1.6,0.3-2.3c0.2-0.7,0.5-1.2,0.8-1.7s0.8-0.8,1.3-1.1c0.5-0.3,1.1-0.4,1.7-0.4c0.7,0,1.3,0.2,1.8,0.5
		c0.5,0.3,0.9,0.8,1.2,1.4l0.4-1.6h2.3v9.9c0,0.6-0.1,1.2-0.3,1.7s-0.5,1-0.8,1.4c-0.4,0.4-0.9,0.7-1.5,1c-0.6,0.2-1.4,0.3-2.3,0.3
		c-1.1,0-2.1-0.1-2.9-0.4s-1.5-0.6-2-1L475.1,67.6z M480.4,61.6c0-0.4,0-0.7-0.1-1.1c-0.1-0.3-0.2-0.6-0.3-0.9s-0.4-0.5-0.6-0.7
		c-0.3-0.2-0.6-0.2-0.9-0.2c-0.6,0-1.1,0.3-1.5,0.8c-0.4,0.5-0.6,1.3-0.6,2.3c0,0.9,0.2,1.7,0.5,2.2c0.3,0.5,0.9,0.8,1.6,0.8
		c0.7,0,1.2-0.3,1.5-0.8c0.3-0.5,0.5-1.2,0.5-2.1V61.6z"/>
	<path class="copy_grayFill" d="M486.2,64c0.2,0.2,0.4,0.4,0.6,0.5c0.2,0.2,0.5,0.3,0.8,0.4c0.3,0.1,0.6,0.2,0.9,0.3c0.3,0.1,0.6,0.1,0.9,0.1
		c0.4,0,0.7-0.1,1.1-0.2s0.5-0.4,0.5-0.8c0-0.3-0.1-0.6-0.4-0.8s-0.6-0.3-1-0.5s-0.9-0.3-1.4-0.4c-0.5-0.1-1-0.3-1.4-0.6
		c-0.4-0.2-0.8-0.6-1-1c-0.3-0.4-0.4-0.9-0.4-1.6c0-0.6,0.1-1.1,0.4-1.5c0.2-0.4,0.5-0.8,0.9-1s0.8-0.5,1.3-0.6
		c0.5-0.1,1-0.2,1.6-0.2c0.9,0,1.7,0.1,2.3,0.3c0.7,0.2,1.3,0.5,1.8,0.9l-1.3,1.9c-0.1-0.1-0.3-0.3-0.5-0.4
		c-0.2-0.1-0.5-0.2-0.7-0.3s-0.5-0.2-0.8-0.2c-0.3-0.1-0.6-0.1-0.9-0.1c-0.3,0-0.6,0.1-0.8,0.2c-0.2,0.1-0.4,0.4-0.4,0.7
		c0,0.3,0.1,0.5,0.4,0.7c0.3,0.2,0.6,0.3,1,0.5c0.4,0.1,0.9,0.3,1.4,0.4s0.9,0.4,1.4,0.6c0.4,0.2,0.8,0.6,1,1
		c0.3,0.4,0.4,0.9,0.4,1.5c0,0.6-0.1,1.1-0.4,1.5s-0.6,0.8-1,1.1c-0.4,0.3-0.9,0.5-1.4,0.6c-0.5,0.1-1,0.2-1.5,0.2
		c-1.9,0-3.4-0.5-4.6-1.6L486.2,64z"/>
	<path class="copy_grayFill" d="M495.2,64h3.2v3.2h-3.2V64z"/>
</g>
</svg>
