<?xml version="1.0" encoding="utf-8"?>
<!-- Generator: Adobe Illustrator 22.1.0, SVG Export Plug-In . SVG Version: 6.00 Build 0)  -->
<svg version="1.1" id="Layer_1" xmlns="http://www.w3.org/2000/svg" xmlns:xlink="http://www.w3.org/1999/xlink" x="0px" y="0px"
	 viewBox="0 0 115.4 10.3" style="enable-background:new 0 0 115.4 10.3;" xml:space="preserve">
<style type="text/css">
	.st0{fill:#FFFFFF;}
</style>
<g>
	<path class="st0" d="M3.9,0.2h2.2l3.9,9.9H7.3l-0.7-2H3.3l-0.7,2H0L3.9,0.2z M5.9,6.2c-0.2-0.5-0.3-1-0.5-1.4s-0.3-1-0.5-1.6
		C4.8,3.7,4.6,4.2,4.5,4.7c-0.2,0.5-0.4,1-0.5,1.5H5.9z"/>
	<path class="st0" d="M19.3,7.9c-0.5,0.8-1.1,1.5-1.8,1.9s-1.6,0.6-2.6,0.6c-0.8,0-1.6-0.1-2.2-0.4c-0.6-0.3-1.2-0.6-1.6-1.1
		c-0.4-0.5-0.7-1-1-1.6C10,6.6,9.9,5.9,9.9,5.2c0-0.8,0.1-1.5,0.3-2.1c0.2-0.6,0.6-1.2,1-1.6c0.4-0.5,1-0.8,1.6-1.1
		C13.4,0.1,14.1,0,14.9,0c0.9,0,1.7,0.2,2.4,0.5c0.7,0.3,1.4,0.9,1.9,1.8l-2.4,1.2c-0.2-0.4-0.5-0.7-0.8-0.9s-0.7-0.3-1.2-0.3
		c-0.4,0-0.8,0.1-1.1,0.2c-0.3,0.2-0.5,0.4-0.7,0.6c-0.2,0.3-0.3,0.6-0.4,0.9c-0.1,0.4-0.1,0.8-0.1,1.2s0.1,0.8,0.2,1.2
		C12.8,6.7,13,7,13.2,7.3c0.2,0.3,0.4,0.5,0.7,0.6c0.3,0.2,0.6,0.2,1,0.2c0.4,0,0.8-0.1,1.1-0.3s0.6-0.6,0.8-1.1L19.3,7.9z"/>
	<path class="st0" d="M29.2,7.9c-0.5,0.8-1.1,1.5-1.8,1.9s-1.6,0.6-2.6,0.6c-0.8,0-1.6-0.1-2.2-0.4c-0.6-0.3-1.2-0.6-1.6-1.1
		c-0.4-0.5-0.7-1-1-1.6c-0.2-0.6-0.3-1.3-0.3-2.1c0-0.8,0.1-1.5,0.3-2.1c0.2-0.6,0.6-1.2,1-1.6c0.4-0.5,1-0.8,1.6-1.1
		C23.3,0.1,24,0,24.8,0c0.9,0,1.7,0.2,2.4,0.5c0.7,0.3,1.4,0.9,1.9,1.8l-2.4,1.2C26.6,3,26.4,2.7,26,2.5s-0.7-0.3-1.2-0.3
		c-0.4,0-0.8,0.1-1.1,0.2c-0.3,0.2-0.5,0.4-0.7,0.6c-0.2,0.3-0.3,0.6-0.4,0.9c-0.1,0.4-0.1,0.8-0.1,1.2s0.1,0.8,0.2,1.2
		c0.1,0.4,0.3,0.7,0.5,0.9c0.2,0.3,0.4,0.5,0.7,0.6c0.3,0.2,0.6,0.2,1,0.2c0.4,0,0.8-0.1,1.1-0.3s0.6-0.6,0.8-1.1L29.2,7.9z"/>
	<path class="st0" d="M30.3,0.2h2.5v6.2c0,0.6,0.1,1,0.4,1.3c0.3,0.3,0.7,0.4,1.2,0.4s0.9-0.1,1.2-0.4S36,7.1,36,6.5V0.2h2.5v6.4
		c0,0.2,0,0.5,0,0.7c0,0.3-0.1,0.5-0.2,0.8c-0.1,0.3-0.2,0.5-0.4,0.8c-0.2,0.3-0.4,0.5-0.7,0.7c-0.3,0.2-0.7,0.4-1.1,0.5
		s-1,0.2-1.6,0.2c-0.6,0-1.2-0.1-1.6-0.2S32,9.9,31.7,9.7C31.4,9.5,31.2,9.2,31,9c-0.2-0.3-0.3-0.5-0.4-0.8s-0.2-0.5-0.2-0.8
		c0-0.3,0-0.5,0-0.7V0.2z"/>
	<path class="st0" d="M40.2,0.2h4.1c0.5,0,1,0.1,1.5,0.2c0.5,0.1,0.9,0.3,1.3,0.5c0.4,0.2,0.7,0.6,0.9,1c0.2,0.4,0.3,0.9,0.3,1.5
		c0,0.4-0.1,0.8-0.2,1.1s-0.3,0.5-0.6,0.7c-0.2,0.2-0.5,0.4-0.8,0.5s-0.6,0.2-0.9,0.3c0.3,0,0.5,0.1,0.7,0.2
		c0.2,0.1,0.4,0.3,0.6,0.6l1.9,3.3h-3l-1.2-2.4c-0.1-0.2-0.2-0.4-0.3-0.5c-0.1-0.1-0.2-0.2-0.3-0.3c-0.1-0.1-0.3-0.1-0.4-0.1
		c-0.1,0-0.3,0-0.5,0h-0.6v3.3h-2.5V0.2z M44.1,4.8c0.2,0,0.3,0,0.5,0c0.2,0,0.3-0.1,0.5-0.2c0.1-0.1,0.3-0.2,0.3-0.4
		c0.1-0.2,0.1-0.4,0.1-0.7c0-0.3,0-0.5-0.1-0.6c-0.1-0.2-0.2-0.3-0.4-0.4c-0.1-0.1-0.3-0.2-0.5-0.2c-0.2,0-0.3,0-0.5,0h-1.4v2.7
		H44.1z"/>
	<path class="st0" d="M53,0.2h2.2l3.9,9.9h-2.6l-0.7-2h-3.3l-0.7,2h-2.6L53,0.2z M55.1,6.2c-0.2-0.5-0.3-1-0.5-1.4s-0.3-1-0.5-1.6
		c-0.1,0.6-0.3,1.1-0.5,1.6c-0.2,0.5-0.4,1-0.5,1.5H55.1z"/>
	<path class="st0" d="M68.4,7.9c-0.5,0.8-1.1,1.5-1.8,1.9s-1.6,0.6-2.6,0.6c-0.8,0-1.6-0.1-2.2-0.4c-0.6-0.3-1.2-0.6-1.6-1.1
		c-0.4-0.5-0.7-1-1-1.6C59.1,6.6,59,5.9,59,5.2c0-0.8,0.1-1.5,0.3-2.1c0.2-0.6,0.6-1.2,1-1.6c0.4-0.5,1-0.8,1.6-1.1
		C62.5,0.1,63.2,0,64,0c0.9,0,1.7,0.2,2.4,0.5c0.7,0.3,1.4,0.9,1.9,1.8L66,3.4c-0.2-0.4-0.5-0.7-0.8-0.9s-0.7-0.3-1.2-0.3
		c-0.4,0-0.8,0.1-1.1,0.2c-0.3,0.2-0.5,0.4-0.7,0.6c-0.2,0.3-0.3,0.6-0.4,0.9c-0.1,0.4-0.1,0.8-0.1,1.2s0.1,0.8,0.2,1.2
		C62,6.7,62.1,7,62.3,7.3c0.2,0.3,0.4,0.5,0.7,0.6c0.3,0.2,0.6,0.2,1,0.2c0.4,0,0.8-0.1,1.1-0.3s0.6-0.6,0.8-1.1L68.4,7.9z"/>
	<path class="st0" d="M71.9,5.7l-3.6-5.5h2.9l2,3.6l2.1-3.6h2.9l-3.7,5.5v4.4h-2.5V5.7z"/>
	<path class="st0" d="M81.9,0.2h4.2c0.5,0,1,0.1,1.4,0.2c0.5,0.1,0.9,0.3,1.2,0.5s0.7,0.6,0.9,1C89.9,2.3,90,2.8,90,3.4
		C90,4,89.9,4.5,89.7,5c-0.2,0.4-0.5,0.8-0.8,1c-0.3,0.3-0.8,0.5-1.2,0.6c-0.5,0.1-1,0.2-1.5,0.2h-1.7v3.3h-2.5V0.2z M85.7,4.8
		c0.2,0,0.4,0,0.6-0.1c0.2,0,0.3-0.1,0.5-0.2c0.1-0.1,0.2-0.3,0.3-0.4c0.1-0.2,0.1-0.4,0.1-0.7c0-0.2,0-0.4-0.1-0.6
		c-0.1-0.2-0.2-0.3-0.3-0.4s-0.3-0.2-0.5-0.2c-0.2,0-0.4-0.1-0.6-0.1h-1.3v2.7H85.7z"/>
	<path class="st0" d="M93.1,0.2h2.2l3.9,9.9h-2.6l-0.7-2h-3.3l-0.7,2h-2.6L93.1,0.2z M95.2,6.2c-0.2-0.5-0.3-1-0.5-1.4
		s-0.3-1-0.5-1.6c-0.1,0.6-0.3,1.1-0.5,1.6c-0.2,0.5-0.4,1-0.5,1.5H95.2z"/>
	<path class="st0" d="M101.2,5.7l-3.6-5.5h2.9l2,3.6l2.1-3.6h2.9l-3.7,5.5v4.4h-2.5V5.7z"/>
	<path class="st0" d="M108.8,7.1c0.1,0.1,0.2,0.2,0.4,0.4s0.4,0.3,0.6,0.4c0.2,0.1,0.5,0.2,0.7,0.3s0.6,0.1,0.9,0.1
		c0.4,0,0.8-0.1,1-0.2c0.2-0.1,0.4-0.3,0.4-0.6c0-0.2-0.1-0.4-0.2-0.5c-0.1-0.1-0.3-0.2-0.5-0.3c-0.2-0.1-0.5-0.2-0.8-0.2
		s-0.7-0.2-1.1-0.3c-1-0.2-1.7-0.6-2.1-1.1c-0.4-0.5-0.6-1.1-0.6-1.8c0-0.4,0.1-0.8,0.3-1.2c0.2-0.4,0.4-0.7,0.7-1
		c0.3-0.3,0.7-0.5,1.2-0.7c0.5-0.2,1.1-0.3,1.7-0.3c0.8,0,1.5,0.1,2.2,0.4s1.3,0.7,1.7,1.2l-1.7,1.6c-0.3-0.3-0.6-0.6-1-0.8
		c-0.4-0.2-0.9-0.3-1.4-0.3c-0.2,0-0.4,0-0.6,0.1c-0.2,0-0.3,0.1-0.4,0.2c-0.1,0.1-0.1,0.2-0.2,0.2c0,0.1,0,0.2,0,0.3
		c0,0.2,0.1,0.4,0.4,0.6c0.2,0.2,0.7,0.4,1.3,0.5c0.7,0.2,1.3,0.4,1.8,0.6c0.5,0.2,0.8,0.4,1.1,0.7s0.5,0.5,0.6,0.8
		c0.1,0.3,0.2,0.6,0.2,1c0,0.5-0.1,1-0.3,1.4c-0.2,0.4-0.5,0.7-0.9,1c-0.4,0.3-0.8,0.5-1.3,0.6c-0.5,0.1-1,0.2-1.5,0.2
		c-0.5,0-1,0-1.4-0.1c-0.4-0.1-0.8-0.2-1.2-0.3c-0.3-0.1-0.7-0.3-0.9-0.5c-0.3-0.2-0.5-0.4-0.6-0.6L108.8,7.1z"/>
</g>
</svg>
