<?xml version="1.0" encoding="utf-8"?>
<!-- Generator: Adobe Illustrator 22.1.0, SVG Export Plug-In . SVG Version: 6.00 Build 0)  -->
<svg version="1.1" id="Layer_1" xmlns="https://www.w3.org/2000/svg" xmlns:xlink="https://www.w3.org/1999/xlink" x="0px" y="0px"
	 viewBox="0 0 728 90" style="enable-background:new 0 0 728 90;" xml:space="preserve">
<style type="text/css">
	.purpleFill{fill:#662868;}
	.yellowFill{fill:#FDBC40;}
	.orangeFill{fill:#EC7623;}
</style>
<polygon class="purpleFill" points="595.9,60.2 595.2,64.1 602.9,64.1 592.7,76.2 592.3,79 606.8,79 607.4,75.1 599.4,75.1 609.3,63.2 
	609.9,60.2 "/>
<path class="purpleFill" d="M609.4,71.9c0-7,4.8-12.2,10.8-12.2c3.6,0,5.7,1.8,5.7,4.8c0,4.6-5.2,6.7-11.5,7.4c0.1,2.2,0.9,3.4,3,3.4
	c2,0,3.6-1,4.8-2l2,3.3c-1.5,1.2-3.8,2.7-7.5,2.7C611.9,79.4,609.4,76.4,609.4,71.9 M614.7,68.8c3.8-0.4,6.4-1.7,6.4-3.6
	c0-1-0.6-1.5-1.8-1.5C617,63.6,615.4,66,614.7,68.8"/>
<polygon class="purpleFill" points="631.3,51.3 636.3,51.3 631.3,79 626.3,79 "/>
<path class="purpleFill" d="M639,60.2h5L640.6,79h-5L639,60.2z M639.3,54.7c0-1.6,1.3-2.9,3-2.9c1.8,0,3,1.3,3,2.9c0,1.6-1.3,3-3,3
	C640.6,57.7,639.3,56.3,639.3,54.7"/>
<path class="purpleFill" d="M643.2,77.6l2.1-3.4c0.9,0.6,2.2,1.5,4,1.5c1.5,0,2.3-0.7,2.3-1.7c0-1.2-1.3-2.1-2.8-3.7
	c-1.4-1.5-2.5-2.9-2.5-5.1c0-3.2,2.5-5.3,6.7-5.3c2.5,0,4.3,0.7,5.5,1.7l-2.2,3.2c-0.6-0.5-1.7-1.1-3.2-1.1c-1.3,0-2,0.5-2,1.6
	c0,0.9,1,1.7,2.4,3.2c1.8,1.8,3.2,3.3,3.2,5.7c0,3.4-2.5,5.5-7.3,5.5C646.1,79.4,644.2,78.2,643.2,77.6"/>
<rect x="666.9" y="66.9" transform="matrix(0.7072 -0.7071 0.7071 0.7072 148.2914 495.1638)" class="yellowFill" width="10" height="3.3"/>
<rect x="671.6" y="52.8" transform="matrix(0.7071 -0.7071 0.7071 0.7071 159.6606 494.3943)" class="yellowFill" width="10" height="3.3"/>
<rect x="679.7" y="58.9" transform="matrix(0.7071 -0.7071 0.7071 0.7071 154.3964 500.4706)" class="yellowFill" width="3.3" height="10"/>
<rect x="665.6" y="54.2" transform="matrix(0.7072 -0.7071 0.7071 0.7072 153.5601 489.0944)" class="yellowFill" width="3.3" height="10"/>
<rect x="675" y="63.6" transform="matrix(0.7071 -0.7071 0.7071 0.7071 149.6992 498.5251)" class="orangeFill" width="3.3" height="10"/>
<rect x="670.3" y="49.5" transform="matrix(0.7071 -0.7071 0.7071 0.7071 158.2876 491.0765)" class="orangeFill" width="3.3" height="10"/>
<rect x="662.2" y="62.2" transform="matrix(0.7072 -0.7071 0.7071 0.7072 150.2372 490.4675)" class="orangeFill" width="10" height="3.3"/>
<rect x="676.3" y="57.5" transform="matrix(0.7071 -0.7072 0.7072 0.7071 157.7461 499.1286)" class="orangeFill" width="10" height="3.3"/>
<polygon class="purpleFill" points="683.7,68.6 671.9,66.2 674.3,63.9 686,66.2 "/>
<polygon class="purpleFill" points="674.3,59.2 662.5,56.8 664.9,54.5 676.6,56.8 "/>
<polygon class="purpleFill" points="671.9,61.5 669.6,73.3 667.2,70.9 669.6,59.2 "/>
<polygon class="purpleFill" points="681.3,52.1 679,63.9 676.6,61.5 679,49.8 "/>
<path class="purpleFill" d="M657.6,77.6c0-1,0.8-1.8,1.8-1.8c1,0,1.8,0.8,1.8,1.8c0,1-0.8,1.8-1.8,1.8C658.4,79.5,657.6,78.6,657.6,77.6
	 M660.9,77.6c0-0.9-0.6-1.5-1.5-1.5c-0.9,0-1.5,0.6-1.5,1.5c0,0.9,0.6,1.5,1.5,1.5C660.3,79.1,660.9,78.5,660.9,77.6 M658.7,76.5
	h0.7c0.5,0,0.7,0.3,0.7,0.6c0,0.3-0.2,0.5-0.5,0.6c0.1,0.1,0.2,0.1,0.3,0.3l0.4,0.7h-0.5l-0.5-0.7c-0.1-0.2-0.2-0.2-0.3-0.2v0.9
	h-0.4V76.5z M659.4,77.5c0.2,0,0.4,0,0.4-0.3c0-0.2-0.1-0.3-0.4-0.3h-0.3v0.6H659.4z"/>
</svg>
