<svg version="1.1" id="Layer_1" xmlns="http://www.w3.org/2000/svg" x="0" y="0" viewBox="0 0 146.8 13.1" xml:space="preserve"><style>.copy_whiteFill{fill:#fff}</style><path class="copy_whiteFill" d="M4.9.3h2.9l4.9 12.6H9.3l-.9-2.6H4.2l-.9 2.6H0L4.9.3zm2.7 7.6c-.2-.7-.5-1.3-.7-1.9-.2-.6-.4-1.3-.6-2-.2.7-.4 1.4-.6 2-.3.6-.5 1.2-.7 1.9h2.6zM24.5 10c-.6 1.1-1.4 1.9-2.3 2.4-.9.5-2 .7-3.3.7-1.1 0-2-.2-2.8-.5-.8-.3-1.5-.8-2-1.4s-.9-1.2-1.1-2c-.3-.8-.4-1.7-.4-2.6 0-1 .1-1.9.4-2.7.3-.8.7-1.5 1.2-2.1.5-.6 1.2-1 2-1.3C17 .2 17.9 0 19 0c1.2 0 2.2.2 3.1.6.9.4 1.7 1.2 2.4 2.2l-3.1 1.5c-.2-.5-.6-.9-1-1.2s-.9-.3-1.4-.3c-.5 0-1 .1-1.3.3-.4.2-.7.5-.9.8-.2.3-.4.7-.5 1.2-.3.4-.3.9-.3 1.5s.1 1 .2 1.5.3.9.6 1.2.6.6.9.8c.4.2.8.3 1.3.3s1-.1 1.4-.4c.4-.3.8-.8 1.1-1.4l3 1.4zM37.2 10c-.6 1.1-1.4 1.9-2.3 2.4-.9.5-2 .7-3.3.7-1.1 0-2-.2-2.8-.5-.8-.3-1.5-.8-2-1.4-.5-.6-.9-1.3-1.2-2.1-.3-.8-.4-1.7-.4-2.6 0-1 .1-1.9.4-2.7.3-.8.7-1.5 1.2-2.1.5-.6 1.2-1 2-1.3.9-.2 1.8-.4 2.8-.4 1.2 0 2.2.2 3.1.6.9.4 1.7 1.2 2.4 2.2L34 4.3c-.2-.5-.6-.9-1-1.2s-.9-.4-1.5-.4c-.5 0-1 .1-1.3.3-.4.2-.7.5-.9.8-.2.3-.4.7-.5 1.2-.1.5-.2 1-.2 1.5s.1 1 .2 1.5.3.9.6 1.2c.3.3.6.6.9.8s.8.3 1.3.3 1-.1 1.4-.4c.4-.3.8-.8 1.1-1.4l3.1 1.5zM38.6.3h3.2v7.9c0 .8.2 1.3.5 1.6.3.3.8.5 1.5.5s1.1-.2 1.5-.5c.3-.3.5-.9.5-1.6v-8H49v9.2c0 .3-.1.7-.2 1-.1.3-.3.7-.5 1-.2.3-.5.6-.9.9-.4.2-.9.5-1.4.6-.6.2-1.3.2-2 .2-.8 0-1.5-.1-2-.2-.6-.2-1-.4-1.4-.6-.4-.3-.7-.5-.9-.9-.2-.3-.4-.7-.5-1s-.2-.7-.2-1c0-.3-.1-.7-.1-.9V.3zM51.1.3h5.2c.7 0 1.3.1 1.9.2.6.1 1.2.4 1.6.7.5.3.9.7 1.1 1.2s.4 1.1.4 1.9c0 .5-.1 1-.3 1.3-.2.4-.4.7-.7 1-.3.3-.6.5-1 .6s-.7.3-1.1.3c.3 0 .6.1.9.3s.5.4.7.8l2.4 4.2h-3.8l-1.5-3c-.1-.3-.3-.5-.4-.7-.1-.2-.3-.3-.4-.4-.2-.1-.3-.1-.5-.2h-1.4v4.2H51V.3zm5 5.8c.2 0 .4 0 .7-.1.2 0 .4-.1.6-.3.2-.1.3-.3.4-.5.1-.2.2-.5.2-.9 0-.3-.1-.6-.2-.8-.1-.2-.3-.4-.5-.5-.2-.1-.4-.2-.6-.2-.2 0-.4-.1-.6-.1h-1.8v3.4h1.8zM67.5.3h2.9l4.9 12.6h-3.4l-.9-2.6h-4.3l-.9 2.6h-3.3l5-12.6zm2.6 7.6l-.6-1.8c-.2-.7-.5-1.4-.7-2.1-.2.7-.4 1.4-.6 2s-.5 1.2-.7 1.9h2.6zM87.1 10c-.6 1.1-1.4 1.9-2.3 2.4-.9.5-2 .7-3.3.7-1.1 0-2-.2-2.8-.5-.8-.3-1.5-.8-2-1.4-.5-.6-.9-1.3-1.2-2.1-.3-.8-.4-1.7-.4-2.6 0-1 .1-1.9.4-2.7.3-.8.7-1.5 1.2-2.1.5-.6 1.2-1 2-1.3.9-.2 1.8-.4 2.8-.4 1.2 0 2.2.2 3.1.6.9.4 1.7 1.2 2.4 2.2l-3 1.6c-.2-.5-.6-.9-1-1.2s-.9-.4-1.5-.4c-.5 0-1 .1-1.3.3-.4.2-.7.5-.9.8-.2.3-.4.7-.5 1.2-.1.5-.2 1-.2 1.5s.1 1 .2 1.5.3.9.6 1.2c.3.3.6.6.9.8s.8.3 1.3.3 1-.1 1.4-.4c.4-.3.8-.8 1.1-1.4l3 1.4zM91.5 7.2l-4.6-7h3.7l2.6 4.6L95.8.2h3.7l-4.7 7v5.6h-3.2V7.2zM104.2.3h5.3c.6 0 1.2.1 1.8.2s1.1.4 1.6.7c.5.3.8.7 1.1 1.2s.4 1.1.4 1.9c0 .8-.1 1.5-.4 2-.3.5-.6 1-1 1.3s-1 .6-1.6.7-1.2.2-1.9.2h-2.2v4.2h-3.2V.3zm4.9 5.8c.3 0 .5 0 .8-.1.2 0 .4-.1.6-.3.2-.1.3-.3.4-.6.1-.2.2-.5.2-.9 0-.3-.1-.5-.2-.8-.1-.2-.3-.4-.4-.5-.2-.1-.4-.2-.7-.3-.2-.1-.5-.1-.8-.1h-1.6v3.4h1.7zM118.5.3h2.9l4.9 12.6h-3.4l-.9-2.6h-4.3l-.9 2.6h-3.3l5-12.6zm2.6 7.6l-.6-1.8c-.2-.6-.4-1.3-.6-2.1-.2.7-.4 1.4-.6 2s-.5 1.2-.7 1.9h2.5zM128.8 7.2l-4.6-7h3.7l2.6 4.6 2.6-4.6h3.7l-4.7 7v5.6h-3.2V7.2zM138.5 9c.1.2.3.3.5.5s.4.3.7.5.6.3 1 .4.7.1 1.1.1c.5 0 1-.1 1.3-.3.3-.2.5-.4.5-.7 0-.2-.1-.5-.2-.6s-.3-.3-.6-.4c-.3-.1-.6-.2-1-.3-.4-.1-.9-.2-1.4-.3-1.2-.3-2.1-.8-2.7-1.4-.5-.6-.8-1.4-.8-2.3 0-.5.1-1 .3-1.5.2-.5.5-.9 1-1.3.4-.4.9-.7 1.6-.9.6-.2 1.4-.3 2.2-.3 1 0 1.9.2 2.8.5.9.3 1.6.8 2.2 1.5l-2.1 2c-.3-.4-.8-.7-1.3-1-.5-.3-1.1-.4-1.8-.4-.3 0-.6 0-.8.1-.2.1-.4.1-.5.2-.1.1-.2.2-.2.3 0 .1-.1.2-.1.3 0 .3.2.6.5.8.3.2.9.5 1.7.7.9.2 1.7.5 2.3.7.6.3 1.1.6 1.4.9.3.3.6.7.7 1.1s.2.8.2 1.3c0 .7-.1 1.3-.4 1.8s-.7.9-1.1 1.3-1 .6-1.6.8c-.6.2-1.3.3-2 .3s-1.3-.1-1.8-.2c-.6-.1-1.1-.2-1.5-.4l-1.2-.6c-.3-.2-.6-.5-.8-.7l1.9-2.5z"/></svg>